<?xml version="1.0" encoding="utf-8"?>
<!-- Generator: Adobe Illustrator 28.3.0, SVG Export Plug-In . SVG Version: 6.00 Build 0)  -->
<svg version="1.1" id="Layer_1" xmlns="http://www.w3.org/2000/svg" xmlns:xlink="http://www.w3.org/1999/xlink" x="0px" y="0px"
	 viewBox="0 0 550 550" style="enable-background:new 0 0 550 550;" xml:space="preserve">
<style type="text/css">
	.st0{fill:#FAFAFA;}
	.st1{fill:#ECECEC;}
	.st2{fill:#E1E1E1;}
	.st3{fill:#F5F5F5;}
	.st4{fill:#FF735D;}
	.st5{opacity:0.79;}
	.st6{fill:#FFFFFF;}
	.st7{opacity:0.6;}
	.st8{fill:#1A2E35;}
	.st9{fill:#375A64;}
	.st10{fill:#FFBF9D;}
	.st11{fill:#FF9A6C;}
	.st12{opacity:0.3;}
</style>
<g>
	<g>
		<g>
			<rect x="9.3" y="32.9" class="st0" width="262.2" height="162.3"/>
		</g>
		<g>
			<g>
				<path class="st1" d="M208.2,150.2c-18.2-6.9-39.1,12.2-56.9,4.4c-10.4-4.5-15.1-16.3-20.2-26.4c-5.1-10.1-13.8-20.8-25.1-19.6
					c-11.3,1.2-20.5,14.3-31.5,11.2c-6.9-2-10.4-9.7-12.1-16.6c-1.7-7-2.9-14.7-8.2-19.6C49,78.7,38,80,37.2,87.1v86h205
					C242.2,173.2,214.5,152.6,208.2,150.2z"/>
			</g>
		</g>
		<g>
			<g>
				<g>
					<path class="st2" d="M247.7,173.2c0,0.2-49.7,0.3-111,0.3c-61.3,0-111-0.1-111-0.3c0-0.2,49.7-0.3,111-0.3
						C198,172.8,247.7,173,247.7,173.2z"/>
				</g>
			</g>
		</g>
		<g>
			<g>
				<g>
					<path class="st2" d="M247.7,135.6c0,0.2-49.7,0.3-111,0.3c-61.3,0-111-0.1-111-0.3c0-0.2,49.7-0.3,111-0.3
						C198,135.2,247.7,135.4,247.7,135.6z"/>
				</g>
			</g>
		</g>
		<g>
			<g>
				<g>
					<path class="st2" d="M247.7,98c0,0.2-49.7,0.3-111,0.3c-61.3,0-111-0.1-111-0.3c0-0.2,49.7-0.3,111-0.3
						C198,97.7,247.7,97.8,247.7,98z"/>
				</g>
			</g>
		</g>
		<g>
			<g>
				<g>
					<path class="st2" d="M247.7,62.3c0,0.2-49.7,0.3-111,0.3c-61.3,0-111-0.1-111-0.3s49.7-0.3,111-0.3
						C198,62,247.7,62.1,247.7,62.3z"/>
				</g>
			</g>
		</g>
	</g>
	<g>
		<g>
			<g>
				<path class="st1" d="M440.4,66V24.4c22.8,0,41.5,18.7,41.5,41.5c0,22.8-18.7,41.5-41.5,41.5c-22.4,0-41-18.2-41.5-40.6L440.4,66
					z"/>
			</g>
		</g>
		<g>
			<g>
				<path class="st3" d="M430.3,54.8l-41.5,0.9c0-10.8,4.2-22.1,11.8-29.9c7.5-7.7,18.3-12.3,29.1-12.5L430.3,54.8z"/>
			</g>
		</g>
	</g>
	<g>
		<g>
			<g>
				<path class="st1" d="M105.6,436.1v-37.6c-20.6,0-37.6,17-37.6,37.6c0,20.6,17,37.6,37.6,37.6c20.3,0,37.1-16.4,37.6-36.7
					L105.6,436.1z"/>
			</g>
		</g>
		<g>
			<g>
				<path class="st3" d="M114.8,426l37.6,0.8c0-9.8-3.8-20-10.6-27.1c-6.8-7-16.6-11.1-26.3-11.4L114.8,426z"/>
			</g>
		</g>
	</g>
	<g>
		<g>
			<rect x="334" y="158.7" class="st3" width="17.6" height="54.9"/>
		</g>
		<g>
			<rect x="360.2" y="171.3" class="st3" width="17.6" height="42.3"/>
		</g>
		<g>
			<rect x="384.5" y="188.5" class="st3" width="17.6" height="25.1"/>
		</g>
	</g>
	<path class="st3" d="M150.9,86.3l0.5-2.4c3.8-20.5,17.9-37,37-42.3c2.5-0.7,5-1.2,7.5-1.4c18.3-2,37.8,6.5,50,21.8
		c7.2,9,12.3,20.5,21.9,26.3c12.6,7.5,27.8,2.6,40.8-2.4c13.1-5.1,28.3-9.9,40.8-2.3c7.9,4.7,12.9,13.6,15.6,22.7
		c7.1,24.1-1.1,50.6-17.1,68c-16,17.4-38.9,26.4-62.1,29.3c-32.4,4-67.4-3.8-94.2-25.2S147.4,120.8,150.9,86.3z"/>
	<path class="st3" d="M163.6,206.9c-7.7-5.8-18.2-6.8-27.5-4.3c-5.8,1.1-16.5,12.7-14.7,22.5c1.8,9.9,11.3,16.9,21.1,19
		c10.9,2.3,24.1-1.5,28.7-11.6C175.2,223.7,171.3,212.7,163.6,206.9z"/>
	<path class="st3" d="M353.8,19.1c-7.7-5.8-18.2-6.8-27.5-4.3c-5.8,1.1-16.5,12.7-14.7,22.5c1.8,9.9,11.3,16.9,21.1,19
		c10.9,2.3,24.1-1.5,28.7-11.6C365.4,36,361.5,24.9,353.8,19.1z"/>
	<g>
		<g>
			<g>
				<g>
					<rect x="19.7" y="466.4" class="st4" width="35.7" height="69.7"/>
				</g>
			</g>
		</g>
		<g>
			<g>
				<rect x="97.2" y="494.9" class="st4" width="35.7" height="41.2"/>
			</g>
		</g>
		<g class="st5">
			<g>
				<rect x="97.2" y="494.9" class="st6" width="35.7" height="41.2"/>
			</g>
		</g>
		<g>
			<g>
				<polygon class="st4" points="205,536.1 169.3,536.3 169.3,442.9 205,442.9 				"/>
			</g>
		</g>
		<g>
			<g>
				<rect x="244.7" y="486.9" class="st4" width="35.7" height="49.2"/>
			</g>
		</g>
		<g class="st5">
			<g>
				<rect x="244.7" y="486.9" class="st6" width="35.7" height="49.2"/>
			</g>
		</g>
		<g>
			<g>
				<rect x="318.9" y="442.9" class="st4" width="35.7" height="93.2"/>
			</g>
		</g>
		<g>
			<g>
				<rect x="392.3" y="323.8" class="st4" width="35.7" height="212.3"/>
			</g>
		</g>
		<g class="st5">
			<g>
				<rect x="392.3" y="323.8" class="st6" width="35.7" height="212.3"/>
			</g>
		</g>
		<g>
			<g>
				<g>
					<path class="st6" d="M55.4,499.6c0.3,0.3-7.5,8.7-17.3,18.8c-9.8,10.1-18,18-18.3,17.8c-0.3-0.3,7.5-8.7,17.3-18.8
						C47,507.2,55.1,499.3,55.4,499.6z"/>
				</g>
			</g>
		</g>
		<g>
			<g>
				<g>
					<path class="st4" d="M132.7,500.2c0.3,0.3-7.5,8.7-17.3,18.8c-9.8,10.1-18,18-18.3,17.8c-0.3-0.3,7.5-8.7,17.3-18.8
						C124.3,507.9,132.4,499.9,132.7,500.2z"/>
				</g>
			</g>
		</g>
		<g>
			<g>
				<g>
					<path class="st4" d="M280.4,499.6c0.3,0.3-7.5,8.7-17.3,18.8c-9.8,10.1-18,18-18.3,17.8c-0.3-0.3,7.5-8.7,17.3-18.8
						C271.9,507.2,280.1,499.3,280.4,499.6z"/>
				</g>
			</g>
		</g>
		<g>
			<g>
				<g>
					<path class="st6" d="M54.9,467.1c0.3,0.3-7.5,8.7-17.3,18.8c-9.8,10.1-18,18-18.3,17.8c-0.3-0.3,7.5-8.7,17.3-18.8
						C46.5,474.8,54.7,466.8,54.9,467.1z"/>
				</g>
			</g>
		</g>
		<g>
			<g>
				<g>
					<path class="st6" d="M205.5,500.1c0.3,0.3-7.5,8.7-17.3,18.8c-9.8,10.1-18,18-18.3,17.8c-0.3-0.3,7.5-8.7,17.3-18.8
						C197.1,507.8,205.3,499.8,205.5,500.1z"/>
				</g>
			</g>
		</g>
		<g>
			<g>
				<g>
					<path class="st6" d="M205.1,467.7c0.3,0.3-7.5,8.7-17.3,18.8c-9.8,10.1-18,18-18.3,17.8s7.5-8.7,17.3-18.8
						C196.6,475.3,204.8,467.4,205.1,467.7z"/>
				</g>
			</g>
		</g>
		<g>
			<g>
				<g>
					<path class="st6" d="M193.9,442.9c0.3,0.3-5,6.1-11.7,13.1c-6.7,6.9-12.4,12.3-12.7,12c-0.3-0.3,5-6.1,11.7-13.1
						C188,448,193.7,442.6,193.9,442.9z"/>
				</g>
			</g>
		</g>
		<g>
			<g>
				<g>
					<path class="st4" d="M427.8,499.6c0.3,0.3-7.5,8.7-17.3,18.8c-9.8,10.1-18,18-18.3,17.8c-0.3-0.3,7.5-8.7,17.3-18.8
						C419.4,507.2,427.6,499.3,427.8,499.6z"/>
				</g>
			</g>
		</g>
		<g>
			<g>
				<g>
					<path class="st4" d="M427.4,467.1c0.3,0.3-7.5,8.7-17.3,18.8c-9.8,10.1-18,18-18.3,17.8c-0.3-0.3,7.5-8.7,17.3-18.8
						C418.9,474.8,427.1,466.8,427.4,467.1z"/>
				</g>
			</g>
		</g>
		<g>
			<g>
				<g>
					<path class="st4" d="M427.4,430.9c0.3,0.3-7.5,8.7-17.3,18.8c-9.8,10.1-18,18-18.3,17.8c-0.3-0.3,7.5-8.7,17.3-18.8
						C418.9,438.6,427.1,430.6,427.4,430.9z"/>
				</g>
			</g>
		</g>
		<g>
			<g>
				<g>
					<path class="st6" d="M355.4,499.6c0.3,0.3-7.5,8.7-17.3,18.8c-9.8,10.1-18,18-18.3,17.8c-0.3-0.3,7.5-8.7,17.3-18.8
						C347,507.2,355.2,499.3,355.4,499.6z"/>
				</g>
			</g>
		</g>
		<g>
			<g>
				<g>
					<path class="st6" d="M355,467.1c0.3,0.3-7.5,8.7-17.3,18.8c-9.8,10.1-18,18-18.3,17.8c-0.3-0.3,7.5-8.7,17.3-18.8
						C346.5,474.8,354.7,466.8,355,467.1z"/>
				</g>
			</g>
		</g>
		<g>
			<g>
				<g>
					<path class="st6" d="M343.6,442.6c0.3,0.3-4.9,6.1-11.6,12.9c-6.7,6.9-12.3,12.2-12.6,11.9c-0.3-0.3,4.9-6.1,11.6-12.9
						C337.7,447.7,343.3,442.3,343.6,442.6z"/>
				</g>
			</g>
		</g>
		<g>
			<g>
				<g>
					<path class="st4" d="M427.8,395.9c0.3,0.3-7.5,8.7-17.3,18.8c-9.8,10.1-18,18-18.3,17.8c-0.3-0.3,7.5-8.7,17.3-18.8
						C419.4,403.6,427.6,395.7,427.8,395.9z"/>
				</g>
			</g>
		</g>
		<g>
			<g>
				<g>
					<path class="st4" d="M427.8,330.9c0.3,0.3-7.5,8.7-17.3,18.8c-9.8,10.1-18,18-18.3,17.8c-0.3-0.3,7.5-8.7,17.3-18.8
						C419.4,338.6,427.6,330.6,427.8,330.9z"/>
				</g>
			</g>
		</g>
		<g>
			<g>
				<g>
					<path class="st4" d="M427.4,363.5c0.3,0.3-7.5,8.7-17.3,18.8c-9.8,10.1-18,18-18.3,17.8c-0.3-0.3,7.5-8.7,17.3-18.8
						C418.9,371.1,427.1,363.2,427.4,363.5z"/>
				</g>
			</g>
		</g>
		<g>
			<g>
				<g>
					<rect x="469.9" y="195.7" class="st4" width="33.7" height="340.4"/>
				</g>
			</g>
			<g class="st7">
				<g>
					<g>
						<path class="st6" d="M503.8,501.6c0.3,0.3-7,8.2-16.3,17.8c-9.3,9.5-17,17-17.3,16.8c-0.3-0.3,7-8.2,16.3-17.8
							C495.8,508.8,503.5,501.3,503.8,501.6z"/>
					</g>
				</g>
			</g>
			<g class="st7">
				<g>
					<g>
						<path class="st6" d="M503.3,470.9c0.3,0.3-7,8.2-16.3,17.8c-9.3,9.5-17,17-17.3,16.8c-0.3-0.3,7-8.2,16.3-17.8
							C495.3,478.1,503.1,470.6,503.3,470.9z"/>
					</g>
				</g>
			</g>
			<g class="st7">
				<g>
					<g>
						<path class="st6" d="M503.3,436.7c0.3,0.3-7,8.2-16.3,17.8c-9.3,9.5-17,17-17.3,16.8c-0.3-0.3,7-8.2,16.3-17.8
							C495.3,444,503.1,436.4,503.3,436.7z"/>
					</g>
				</g>
			</g>
			<g class="st7">
				<g>
					<g>
						<path class="st6" d="M503.8,403.7c0.3,0.3-7,8.2-16.3,17.8c-9.3,9.5-17,17-17.3,16.8c-0.3-0.3,7-8.2,16.3-17.8
							C495.8,410.9,503.5,403.4,503.8,403.7z"/>
					</g>
				</g>
			</g>
			<g class="st7">
				<g>
					<g>
						<path class="st6" d="M503.3,373c0.3,0.3-7,8.2-16.3,17.8c-9.3,9.5-17,17-17.3,16.8c-0.3-0.3,7-8.2,16.3-17.8
							C495.3,380.2,503.1,372.7,503.3,373z"/>
					</g>
				</g>
			</g>
			<g class="st7">
				<g>
					<g>
						<path class="st6" d="M503.3,338.8c0.3,0.3-7,8.2-16.3,17.8c-9.3,9.5-17,17-17.3,16.8c-0.3-0.3,7-8.2,16.3-17.8
							C495.3,346,503.1,338.5,503.3,338.8z"/>
					</g>
				</g>
			</g>
			<g class="st7">
				<g>
					<g>
						<path class="st6" d="M503.3,298.7c0.3,0.3-7,8.2-16.3,17.8c-9.3,9.5-17,17-17.3,16.8c-0.3-0.3,7-8.2,16.3-17.8
							C495.3,305.9,503.1,298.4,503.3,298.7z"/>
					</g>
				</g>
			</g>
			<g class="st7">
				<g>
					<g>
						<path class="st6" d="M503.8,256.7c0.3,0.3-7,8.2-16.3,17.8c-9.3,9.5-17,17-17.3,16.8c-0.3-0.3,7-8.2,16.3-17.8
							C495.8,263.9,503.5,256.4,503.8,256.7z"/>
					</g>
				</g>
			</g>
			<g class="st7">
				<g>
					<g>
						<path class="st6" d="M503.3,215.4c0.3,0.3-7,8.2-16.3,17.8c-9.3,9.5-17,17-17.3,16.8c-0.3-0.3,7-8.2,16.3-17.8
							C495.3,222.7,503.1,215.1,503.3,215.4z"/>
					</g>
				</g>
			</g>
			<g class="st7">
				<g>
					<g>
						<path class="st6" d="M489.8,195.1c0.3,0.3-4,5.1-9.6,10.8c-5.6,5.7-10.3,10.1-10.5,9.8c-0.3-0.3,4-5.1,9.6-10.8
							C484.8,199.3,489.5,194.8,489.8,195.1z"/>
					</g>
				</g>
			</g>
		</g>
	</g>
	<g>
		<g>
			<g>
				<path class="st4" d="M535.8,192.8c0,0-0.5-0.3-1.5-1c-0.5-0.3-1.1-0.8-1.8-1.3c-0.8-0.5-1.6-1-2.6-1.7c-4-2.5-10-6-18.5-8.9
					c-4.2-1.5-9-2.8-14.4-3.6c-5.4-0.8-11.3-1.1-17.6-0.4c-12.6,1.3-26.4,7.3-38.5,17.8c-6.1,5.2-11.7,11.4-17,18.3
					c-5.1,7-10.2,14.5-15.5,22.3c-10.5,15.6-21.4,32.5-32.6,50.4c-11.2,17.9-22.9,36.8-35.4,56.1c-6.3,9.6-12.7,19.4-19.4,29.2
					c-3.4,4.9-6.6,9.9-9.8,15c-3.3,5.1-6.6,10.1-10,15.2c-6.9,10.1-13.9,19.9-21.7,28.9c-3.9,4.5-8,8.8-12.6,12.5
					c-2.3,1.9-4.7,3.6-7.3,4.9c-2.6,1.4-5.4,2.4-8.4,2.5c-3-0.1-5.7-1.3-8.3-2.4c-2.6-1.2-5.1-2.6-7.5-4c-4.9-2.9-9.5-6-14.1-9.1
					c-9.1-6.3-17.7-13-25.9-19.5c-4.1-3.3-8.2-6.6-12.1-9.9c-3.9-3.3-7.9-6.5-11.8-9.7c-7.8-6.3-15.5-12.2-23.1-17.7
					c-7.6-5.5-15.5-10.1-23.9-12.5c-8.4-2.3-16.9-2.4-24.7-0.9c-7.8,1.6-14.8,4.7-21,8.4c-6.2,3.7-11.5,7.9-16.2,12.2
					c-9.4,8.6-17.2,16.1-23.7,22.4c-6.4,6.2-11.3,11.1-14.6,14.5c-1.7,1.7-2.9,2.9-3.8,3.8c-0.8,0.9-1.3,1.3-1.3,1.3
					s0.4-0.5,1.2-1.3c0.8-0.9,2.1-2.2,3.7-3.8c3.3-3.4,8.2-8.3,14.6-14.6c6.4-6.3,14.3-13.9,23.6-22.5c4.7-4.3,10-8.5,16.2-12.3
					c6.2-3.7,13.3-6.8,21.1-8.5c7.9-1.6,16.5-1.4,24.9,0.8c8.5,2.4,16.5,7,24.1,12.5c7.7,5.5,15.3,11.4,23.2,17.7
					c3.9,3.1,7.8,6.4,11.8,9.7c4,3.3,8,6.6,12.1,9.9c8.3,6.6,16.9,13.2,25.9,19.5c4.5,3.2,9.2,6.3,14,9.1c2.4,1.4,4.9,2.8,7.5,4
					c2.6,1.1,5.3,2.3,8.1,2.3c2.8-0.1,5.6-1.1,8.1-2.4c2.5-1.3,4.9-3,7.2-4.9c4.5-3.7,8.6-8,12.5-12.4c7.8-8.9,14.8-18.8,21.6-28.8
					c3.4-5,6.7-10.1,10-15.2c3.3-5.1,6.5-10.1,9.8-15c6.7-9.8,13.1-19.6,19.4-29.2c12.5-19.3,24.1-38.2,35.4-56.1
					c11.3-17.9,22.1-34.8,32.7-50.3c5.3-7.8,10.4-15.3,15.6-22.3c5.3-7,11-13.2,17.1-18.4c12.1-10.5,26-16.5,38.7-17.8
					c6.3-0.7,12.3-0.4,17.7,0.5c5.4,0.8,10.2,2.2,14.4,3.7c8.4,3,14.5,6.5,18.5,9.1c1,0.6,1.8,1.2,2.6,1.7c0.7,0.5,1.3,1,1.8,1.3
					C535.3,192.4,535.8,192.8,535.8,192.8z"/>
			</g>
		</g>
		<g>
			<g>
				<path class="st4" d="M117.2,364.6c0,4-3.1,7.2-7,7.2c-3.9,0-7-3.2-7-7.2c0-4,3.1-7.2,7-7.2C114.1,357.5,117.2,360.7,117.2,364.6
					z"/>
			</g>
			<g>
				<path class="st4" d="M110.2,377.5c-6.9,0-12.6-5.8-12.6-12.9c0-7.1,5.6-12.9,12.6-12.9c6.9,0,12.6,5.8,12.6,12.9
					C122.8,371.8,117.1,377.5,110.2,377.5z M110.2,353c-6.3,0-11.4,5.2-11.4,11.7s5.1,11.7,11.4,11.7c6.3,0,11.4-5.2,11.4-11.7
					S116.5,353,110.2,353z"/>
			</g>
		</g>
		<g>
			<g>
				<path class="st4" d="M494.5,175.2c0,4-3.1,7.2-7,7.2c-3.9,0-7-3.2-7-7.2c0-4,3.1-7.2,7-7.2C491.3,168.1,494.5,171.3,494.5,175.2
					z"/>
			</g>
			<g>
				<path class="st4" d="M487.5,188.1c-6.9,0-12.6-5.8-12.6-12.9c0-7.1,5.6-12.9,12.6-12.9c6.9,0,12.6,5.8,12.6,12.9
					C500.1,182.4,494.4,188.1,487.5,188.1z M487.5,163.6c-6.3,0-11.4,5.2-11.4,11.7c0,6.4,5.1,11.7,11.4,11.7
					c6.3,0,11.4-5.2,11.4-11.7C498.8,168.8,493.7,163.6,487.5,163.6z"/>
			</g>
		</g>
	</g>
	<g>
		<g>
			<g>
				<polygon class="st0" points="24.4,256.3 24.4,318.9 101.7,318.9 115.9,338.8 115.9,318.9 132.7,318.9 132.7,256.3 				"/>
			</g>
			<g>
				<g>
					<path class="st8" d="M24.4,256.3c0,0,0.2,0,0.5,0c0.4,0,0.9,0,1.5,0c1.3,0,3.3,0,5.9,0c5.2,0,12.7,0,22.2-0.1
						c19.1,0,46.2-0.1,78.3-0.1l0.3,0l0,0.3c0,19.2,0,40.4,0,62.7l0,0.3h-0.3c-4.8,0-9.9,0-15.1,0h-1.7l0.3-0.3c0,6.7,0,13.4,0,19.9
						v1l-0.6-0.8c-4.9-6.8-9.6-13.5-14.2-19.9l0.2,0.1c-29.3,0-55.8-0.1-77.3-0.1l-0.2,0l0-0.2c0.1-19.3,0.1-35,0.1-45.9
						c0-5.4,0-9.6,0.1-12.5c0-1.4,0-2.5,0-3.2C24.3,256.6,24.4,256.3,24.4,256.3s0,0.4,0,1.1c0,0.8,0,1.8,0,3.3
						c0,2.9,0,7.1,0.1,12.5c0,10.8,0.1,26.5,0.1,45.8l-0.2-0.2c21.6,0,48,0,77.3-0.1l0.2,0l0.1,0.1c4.6,6.5,9.4,13.1,14.2,19.9
						l-0.6,0.2c0-6.5,0-13.2,0-19.9v-0.3h0.3h1.7c5.2,0,10.3,0,15.1,0l-0.3,0.3c0-22.3,0-43.5,0-62.7l0.3,0.3
						c-32-0.1-59.1-0.1-78.1-0.1c-9.5,0-17.1-0.1-22.3-0.1c-2.6,0-4.6,0-5.9,0c-0.7,0-1.2,0-1.5,0C24.5,256.3,24.4,256.3,24.4,256.3
						z"/>
				</g>
			</g>
		</g>
		<g>
			<g>
				<path class="st8" d="M112.7,281.3c0,0.2-15.3,0.3-34.1,0.3c-18.8,0-34.1-0.1-34.1-0.3c0-0.2,15.3-0.3,34.1-0.3
					C97.4,281,112.7,281.1,112.7,281.3z"/>
			</g>
		</g>
		<g>
			<g>
				<path class="st8" d="M112.7,295.1c0,0.2-15.3,0.3-34.1,0.3c-18.8,0-34.1-0.1-34.1-0.3c0-0.2,15.3-0.3,34.1-0.3
					C97.4,294.8,112.7,294.9,112.7,295.1z"/>
			</g>
		</g>
	</g>
	<g>
		<g>
			<g>
				<polygon class="st0" points="537.2,79.6 437.7,79.6 437.7,136.1 454.2,136.1 452.9,136.3 467,154.3 466.1,136.1 537.2,136.1 
									"/>
			</g>
			<g>
				<g>
					<path class="st8" d="M537.2,79.6c0,0,0,0.3,0,1c0,0.7,0,1.6,0,2.9c0,2.6,0,6.4,0.1,11.2c0,9.8,0.1,23.9,0.1,41.3l0,0.2l-0.2,0
						c-19.9,0-44.2,0-71.1,0.1l0.3-0.3c0.3,5.8,0.6,11.9,0.9,18.2l0.1,1l-0.6-0.8c-4.5-5.7-9.3-11.8-14.1-18l-0.3-0.4l0.5-0.1
						c0.4-0.1,0.8-0.1,1.2-0.2l0.1,0.6c-0.4,0-0.8,0-1.3,0c-5.1,0-10.2,0-15.2,0h-0.3l0-0.3c0-20.1,0-39.2,0-56.5l0-0.3l0.3,0
						c29.4,0.1,54.3,0.1,71.9,0.1c8.7,0,15.6,0.1,20.4,0.1c2.3,0,4.1,0,5.4,0c0.6,0,1,0,1.4,0C537.1,79.6,537.2,79.6,537.2,79.6
						s-0.2,0-0.5,0c-0.3,0-0.8,0-1.4,0c-1.3,0-3.1,0-5.4,0c-4.8,0-11.7,0-20.4,0.1c-17.5,0-42.3,0.1-71.7,0.1l0.3-0.3
						c0,17.3,0,36.4,0,56.5l-0.3-0.3c5,0,10.1,0,15.2,0c0.4,0,0.9,0,1.3,0l0.1,0.6c-0.4,0.1-0.8,0.2-1.2,0.2l0.2-0.5
						c4.8,6.2,9.6,12.2,14.1,18l-0.6,0.2c-0.3-6.3-0.6-12.4-0.9-18.2l0-0.3l0.3,0c26.9,0,51.2,0.1,71.1,0.1l-0.2,0.2
						c0.1-17.3,0.1-31.4,0.1-41.2c0-4.9,0-8.7,0.1-11.3c0-1.3,0-2.3,0-3C537.2,80,537.2,79.6,537.2,79.6z"/>
				</g>
			</g>
		</g>
		<g>
			<g>
				<path class="st8" d="M456.5,102.5c0-0.2,13.9-0.3,31-0.3c17.1,0,31,0.1,31,0.3c0,0.2-13.9,0.3-31,0.3
					C470.3,102.8,456.5,102.6,456.5,102.5z"/>
			</g>
		</g>
		<g>
			<g>
				<path class="st8" d="M456.5,114.6c0-0.2,13.9-0.3,31-0.3c17.1,0,31,0.1,31,0.3s-13.9,0.3-31,0.3
					C470.3,114.9,456.5,114.7,456.5,114.6z"/>
			</g>
		</g>
	</g>
	<g>
		<g>
			<path class="st6" d="M184.4,164.1c5-8.1,7.9-17.7,7.9-28c0-16.6-7.6-31.4-19.5-41.2c-9.3-7.7-21.2-12.3-34.1-12.3
				c-29.6,0-53.5,24-53.5,53.5s24,53.5,53.5,53.5c12.4,0,23.8-4.2,32.9-11.3l24.1,5.7l0,0l0,0h0L184.4,164.1z"/>
		</g>
		<g>
			<g>
				<path class="st8" d="M171.9,178.2l-0.5-0.1c-6,4.6-14.7,9.2-25.5,10.6c-2.7,0.3-5.5,0.5-8.4,0.4c-1.4-0.1-2.9-0.1-4.4-0.3
					c-1.5-0.2-3-0.5-4.5-0.7c-6-1.2-12.1-3.5-17.8-7c-5.7-3.5-10.9-8.3-15.2-14.2c-4.2-5.9-7.4-12.8-8.9-20.4
					c-1.5-7.5-1.3-15.6,0.6-23.4c2-7.8,5.7-15.4,11.3-21.6c5.6-6.4,12.6-11.5,20.3-14.5c7.6-3,15.8-4.2,23.6-3.6
					c7.8,0.6,15.3,2.8,21.7,6.4c6.4,3.6,11.9,8.3,16.1,13.7c4.2,5.3,7.2,11.2,9,17.1c1.8,5.9,2.4,11.8,2.4,17.2
					c-0.3,10.9-3.9,19.9-7.8,26.3l-0.1,0.1l0.1,0.1c7.3,12.6,10.8,18.6,11.5,19.9c-0.7-1.3-4.1-7.3-11.1-20
					c3.9-6.4,7.6-15.4,7.9-26.4c0-5.5-0.5-11.4-2.3-17.4c-1.9-6-4.9-11.9-9.1-17.3c-4.2-5.4-9.7-10.3-16.3-13.9
					c-6.5-3.7-14.1-5.9-22-6.5c-7.9-0.6-16.2,0.6-24,3.7c-7.8,3-14.9,8.2-20.6,14.7c-5.7,6.4-9.4,14.1-11.5,22
					c-2,7.9-2.1,16.1-0.6,23.8c1.5,7.7,4.8,14.7,9,20.7c4.3,6,9.6,10.8,15.4,14.4c5.8,3.6,12,5.9,18,7.1c1.5,0.2,3,0.5,4.5,0.7
					c1.5,0.1,3,0.2,4.4,0.2c2.9,0.1,5.8-0.1,8.5-0.4c10.8-1.5,19.5-6,25.5-10.7c15.2,3.4,22.6,5.1,24.1,5.5
					C194.2,183.7,186.9,181.9,171.9,178.2z"/>
			</g>
			<g>
				<path class="st4" d="M134.6,117.4l1.5,24.1c0.1,2,1.7,3.5,3.7,3.7l0,0c2.1,0.1,3.9-1.4,4.1-3.5l2.7-24.2
					c0.2-1.8-1.2-3.4-3.1-3.4l-5.9,0.1C135.9,114.1,134.5,115.6,134.6,117.4z"/>
			</g>
			<g>
				<path class="st4" d="M146.2,158.7c-1,3.1-4.4,4.8-7.4,3.7c-3.1-1-4.8-4.4-3.7-7.4c1-3.1,4.4-4.8,7.4-3.7
					C145.5,152.3,147.2,155.6,146.2,158.7z"/>
			</g>
		</g>
	</g>
	<g>
		<g>
			<path class="st8" d="M341.5,362.9l4.8,13.5c0,0,22.1,20.3,25.3,47.4c3.3,27.2,3.3,33.1,3.3,33.1l-6.8,79.2H220.9
				c0,0-4.9-64-3.1-82.1c1.8-18.1,12.3-38.6,12.3-38.6l11.2-27.2l0.3-13.7L341.5,362.9z"/>
		</g>
		<g>
			<g>
				<path class="st9" d="M346,377.8c0,0-0.4,0.1-1,0.2c-0.7,0.1-1.7,0.3-3,0.5c-2.6,0.4-6.4,1-11,1.8c-9.3,1.5-22.1,3.5-36.3,5.4
					c-14.2,2-27.1,3.6-36.4,4.5c-4.7,0.5-8.5,0.8-11.1,1c-1.3,0.1-2.3,0.1-3,0.2c-0.7,0-1.1,0-1.1,0c0,0,0.4-0.1,1-0.1
					c0.7-0.1,1.7-0.2,3-0.3c2.6-0.3,6.4-0.6,11-1.2c9.3-1,22.2-2.7,36.4-4.7c14.2-2,27-3.9,36.3-5.3c4.6-0.7,8.3-1.2,11-1.6
					c1.3-0.2,2.3-0.3,3-0.4C345.7,377.8,346,377.8,346,377.8z"/>
			</g>
		</g>
		<g>
			<g>
				<path class="st9" d="M262.5,425.7c0,0-0.2,0.5-0.5,1.3c-0.4,0.8-1,2-1.8,3.5c-1.5,2.9-3.9,6.8-6.8,10.9
					c-2.9,4.1-5.9,7.5-8.1,9.9c-1.1,1.2-2.1,2.1-2.7,2.8c-0.7,0.6-1.1,1-1.1,0.9c0,0,0.3-0.4,0.9-1.1c0.7-0.8,1.6-1.8,2.6-2.9
					c2.2-2.5,5-5.9,8-10c2.9-4.1,5.3-7.9,6.9-10.7c0.8-1.3,1.4-2.5,1.9-3.4C262.2,426.1,262.5,425.7,262.5,425.7z"/>
			</g>
		</g>
	</g>
	<g>
		<g>
			<path class="st10" d="M436,219.4c0,0,3,50.7,3.9,56.5c0.9,5.7-3.9,13-3.9,13s-11.2,1.2-18.7-12.7l-4.8-10.9
				c0,0,4.5-12.4,2.7-28.7c-1.8-16.3-2.7-23.9-2.7-23.9L436,219.4z"/>
		</g>
		<g>
			<g>
				<path class="st9" d="M422.5,148.6c1.3,12.2,1.2,22.8-4.9,25c-0.5,0.2-4.6,0.3-5.1,0.4c-6.9,0.8-13.7-9.4-15.2-22.7
					c-1.4-13.3,3-24.6,10-25.4c0.7-0.1,4.4-0.6,5-0.5C418.5,126.6,421.2,136.6,422.5,148.6z"/>
			</g>
			<g>
				<path class="st10" d="M441.7,192.5c0,0,5.1,1.7,4.2,6.6c-0.9,4.9-4.2,13.6-4.2,13.6l-6.3,7l-23-7c0,0-1.7-3-1.6-6.9
					c0.2-3.8,0-13.4,0-13.4s3.2-4,4.2-8.8c0.8-4,1.3-8.6,1.5-10c0-0.2,0.3-0.4,0.5-0.4c1,0.2,3.5,1.1,4.5,4.1
					c1.2,3.8,0.9,4.9,0.9,4.9L441.7,192.5z"/>
			</g>
			<g>
				<polygon class="st9" points="423.5,176.1 420.2,170.9 416.8,173.5 423.2,186.2 424.9,180.9 				"/>
			</g>
			<g>
				<path class="st10" d="M423.5,176.1c0,0,3.6-5.4,6.9-2.8c3.3,2.6,2.6,4.1,0,8.9c0,0,6.5-0.9,5,6c0,0,6.5-1.3,6.3,4.3
					c0,0,5.4,4.4,3,7.8c-2.3,3.3-11.2,9.8-13.6,9c-2.4-0.8-2.7-4.1-2.7-4.1s-2.9-1-3.8-2.4c-0.9-1.4,0.3-3.6,0.3-3.6
					s-2.6-2.2-3.2-2.8c-0.6-0.6,0-3.8,0-3.8l3.5-4c0,0-5,2.7-6.2,1.9c-1.2-0.8-2.4-1.4-1.4-3.1c1-1.7,4.9-5.5,4.9-5.5L423.5,176.1z"
					/>
			</g>
			<g>
				<g>
					<path class="st11" d="M429,205.5c-0.1-0.1,0.6-0.9,1.5-2.2c1-1.3,2.3-3.3,4.4-4.8c2.1-1.5,4-2.7,5.1-3.9c1.2-1.1,1.6-2.1,1.7-2
						c0.1,0-0.2,1.1-1.4,2.4c-1.1,1.3-3,2.6-5,4.1c-2,1.5-3.4,3.3-4.5,4.6C429.8,204.8,429.1,205.5,429,205.5z"/>
				</g>
			</g>
			<g>
				<g>
					<path class="st11" d="M424.9,200.1c-0.1-0.1,2.1-2.9,4.9-6.3c1.4-1.7,2.6-3.2,3.7-4.2c1.1-1,1.9-1.4,1.9-1.4
						c0.1,0.1-0.7,0.6-1.6,1.7c-1,1-2.1,2.7-3.5,4.3C427.4,197.6,425,200.2,424.9,200.1z"/>
				</g>
			</g>
			<g>
				<g>
					<path class="st11" d="M425.2,188.4c-0.1-0.1,1.3-1.5,2.8-3.2c1.6-1.7,2.2-3.5,2.4-3.4c0.2,0-0.3,2-1.9,3.8
						C426.8,187.5,425.3,188.5,425.2,188.4z"/>
				</g>
			</g>
			<g>
				<g>
					<path class="st11" d="M415.9,195c0-0.1,0.9,0.1,2.1,0.9c1.2,0.8,2.7,2.2,3.8,4.1c1.1,1.9,1.8,3.8,2.2,5.1
						c0.4,1.4,0.6,2.2,0.5,2.2c-0.1,0-0.4-0.8-0.9-2.1c-0.5-1.3-1.2-3.1-2.3-4.9c-1.1-1.8-2.4-3.2-3.5-4
						C416.7,195.4,415.9,195.1,415.9,195z"/>
				</g>
			</g>
			<g>
				<path class="st8" d="M425.2,148.4c1.4,13.3-2.2,24.6-8.1,25.2c-5.9,0.6-11.9-9.6-13.3-22.9c-1.4-13.3,2.2-24.6,8.1-25.2
					C417.8,124.9,423.8,135.1,425.2,148.4z"/>
			</g>
			<g>
				<path class="st2" d="M414.9,173.3c5.6-2.8,8.9-13,7.6-24.7c-1.3-11.6-6.6-20.9-12.6-22.5c-4.7,2.7-7.4,12.8-6.1,24.5
					C405,162.3,409.8,171.6,414.9,173.3z"/>
			</g>
			<g>
				<g>
					<path class="st6" d="M415.1,163.7c-0.2,0-0.6-5.1-1-11.4c-0.4-6.3-0.5-11.4-0.4-11.4c0.2,0,0.6,5.1,1,11.4
						C415.2,158.6,415.3,163.7,415.1,163.7z"/>
				</g>
			</g>
			<g>
				<g>
					<path class="st6" d="M413.1,156c-0.1,0-0.3-1.2-0.6-3.2c-0.3-2-0.6-4.7-0.7-7.7c-0.2-3-0.2-5.8-0.1-7.8c0.1-2,0.2-3.2,0.3-3.2
						c0.1,0,0.1,1.2,0.2,3.2c0,2,0.1,4.7,0.3,7.7c0.2,3,0.4,5.7,0.6,7.7C413.1,154.8,413.2,156,413.1,156z"/>
				</g>
			</g>
			<g>
				<g>
					<path class="st11" d="M423.5,176.1c0,0,0,0.1,0,0.4c0,0.3-0.1,0.6-0.2,1.1c-0.2,1-0.4,2.4-0.7,4.2l0,0l0,0
						c-0.7,0.7-1.5,1.6-2.3,2.5c-0.8,1-1.8,2-2.6,3.2c-0.2,0.3-0.3,0.7-0.2,1c0.1,0.3,0.3,0.6,0.6,0.8c0.3,0.2,0.6,0.5,1,0.7
						c0.3,0.2,0.6,0.2,1.1,0.1c1.6-0.3,3.3-1.1,5-2l1.2-0.6l-0.9,1c-1.1,1.3-2.2,2.6-3.4,4l0.1-0.1c-0.4,1.2-0.6,2.7,0.1,3.8
						c0.8,1.1,2,2,3.2,2.8l0.3,0.2l-0.2,0.3c-0.7,1-1.2,2.6,0,3.5c1,0.9,2.4,1.6,3.8,2.1l-0.4,0.3l0-0.1c0,0,0,0,0,0l0,0
						c0.1,0.1-0.2-0.2,0.2,0.3c0.8-0.5,0.2-0.2,0.4-0.3l0,0l0,0l0,0.1l0,0.3c0,0.2,0.1,0.4,0.1,0.6c0.1,0.4,0.2,0.8,0.4,1.2
						c0.2,0.4,0.4,0.7,0.8,0.9c0.3,0.2,0.7,0.5,1,0.5c0.8,0,1.6-0.3,2.4-0.7c0.8-0.4,1.6-0.8,2.4-1.3c1.5-0.9,2.9-1.9,4.2-3
						c1.3-1.1,2.6-2.2,3.6-3.5c0.5-0.6,0.8-1.3,0.8-2.1c0-0.7-0.2-1.5-0.6-2.2c-0.7-1.4-1.8-2.6-2.9-3.5l-0.1-0.1l0-0.1
						c0-0.7-0.1-1.5-0.4-2.1c-0.3-0.6-0.8-1.1-1.5-1.5c-1.3-0.6-2.8-0.6-4.1-0.4l-0.4,0.1l0.1-0.4c0.1-0.4,0.1-0.8,0.2-1.2
						c0-0.4,0.1-0.8,0-1.2c0-0.8-0.4-1.5-0.9-2.1c-1-1.1-2.7-1.3-4-1.2l-0.4,0l0.2-0.4c0.7-1.3,1.4-2.5,1.8-3.6
						c0.2-0.6,0.4-1.2,0.4-1.8c0-0.6-0.2-1.1-0.5-1.6c-0.6-0.9-1.5-1.6-2.3-2.1c-0.8-0.4-1.8-0.3-2.5,0c-1.5,0.6-2.3,1.6-2.9,2.2
						c-0.3,0.3-0.5,0.6-0.6,0.7C423.6,176,423.5,176.1,423.5,176.1c0,0,0-0.1,0.2-0.3c0.1-0.2,0.3-0.4,0.6-0.8
						c0.3-0.3,0.6-0.7,1.1-1.1c0.5-0.4,1-0.9,1.8-1.2c0.7-0.3,1.8-0.5,2.7,0c0.2,0.1,0.4,0.3,0.7,0.4c0.2,0.2,0.4,0.3,0.6,0.5
						c0.4,0.4,0.8,0.7,1.1,1.2c0.3,0.5,0.6,1.1,0.6,1.8c0,0.6-0.2,1.3-0.4,1.9c-0.5,1.2-1.1,2.4-1.8,3.7l-0.2-0.3
						c0.8-0.1,1.5,0,2.3,0.1c0.8,0.2,1.6,0.5,2.2,1.2c0.6,0.6,1,1.5,1,2.4c0.1,0.4,0,0.9,0,1.3c0,0.4-0.1,0.9-0.2,1.3l-0.3-0.3
						c1.4-0.2,3-0.2,4.5,0.5c0.7,0.4,1.4,1,1.7,1.7c0.4,0.7,0.4,1.6,0.5,2.4l-0.1-0.2c1.2,1,2.3,2.2,3.1,3.7
						c0.4,0.7,0.7,1.6,0.7,2.5c0,0.4-0.1,0.9-0.3,1.3c-0.2,0.4-0.4,0.8-0.7,1.1c-1.1,1.3-2.3,2.5-3.7,3.6c-1.3,1.1-2.7,2.1-4.2,3.1
						c-0.8,0.5-1.6,1-2.4,1.4c-0.9,0.4-1.7,0.8-2.7,0.8c-1.1-0.1-1.8-0.9-2.3-1.8c-0.2-0.4-0.4-0.9-0.5-1.3
						c-0.1-0.2-0.1-0.5-0.1-0.7l0-0.3l0-0.2l0,0l0,0c0.2-0.1-0.4,0.2,0.4-0.3c0.4,0.5,0.1,0.2,0.2,0.3l0,0l0,0.1l0,0.1l0,0.5
						l-0.4-0.2c-1.4-0.6-2.8-1.2-4-2.3c-0.3-0.3-0.6-0.6-0.7-1c-0.2-0.4-0.2-0.8-0.2-1.2c0.1-0.8,0.4-1.5,0.9-2.1l0.1,0.4
						c-1.3-0.8-2.5-1.7-3.4-3c-0.4-0.7-0.6-1.5-0.5-2.2c0-0.7,0.1-1.4,0.4-2.1l0,0l0,0c1.2-1.4,2.4-2.7,3.5-4l0.3,0.4
						c-1.7,0.9-3.4,1.7-5.1,2c-0.4,0.1-1,0.1-1.4-0.2c-0.3-0.2-0.7-0.5-1-0.7c-0.3-0.3-0.6-0.6-0.7-1.1c-0.1-0.5,0.1-0.9,0.3-1.2
						c0.8-1.3,1.8-2.3,2.7-3.3c0.9-0.9,1.7-1.8,2.4-2.5l0,0.1c0.4-1.8,0.6-3.2,0.8-4.2c0.1-0.4,0.2-0.8,0.2-1.1
						C423.4,176.2,423.5,176.1,423.5,176.1z"/>
				</g>
			</g>
		</g>
	</g>
	<g>
		<g>
			<path class="st10" d="M223.4,400.2l-45.6-56.6c0,0-24.2,20.4-24.9,21c-0.6,0.6,37.9,38.1,62.6,52.6l7.8-5.2V400.2z"/>
		</g>
		<g>
			<g>
				<path class="st10" d="M261.6,382c0,0-14.4-2.3-15.7-1.3c-1.3,0.9-11.2,7.6-11.2,7.6s-2.8,4.3-4.4,5.9c0,0-3.2,3.8-5.7,4.2
					c-2.5,0.4-4,0-4,0l-6.4,17.8c0,0,4.9,5.1,7.9,4.7c3-0.4,19.1-9.3,19.1-9.3l4-1.3c0,0,15.5,0.6,16.3-4.2v-1.3l-15.3-1.3l-5.7,0.9
					l9.8-3.7c0,0,14.4-0.8,15.7-1.2c1.3-0.4,2.8-2.5,2.3-3.6l-3-0.4c0,0,3.3-2.3,3.2-4.3L255,389C255,389,263.2,384.9,261.6,382z"/>
			</g>
			<g>
				<g>
					<path class="st11" d="M267,395.2c0,0-0.5,0-1.2-0.2c-0.8-0.1-1.9-0.3-3.4-0.5c-2.9-0.4-6.8-0.9-11.2-1.4
						c-0.6-0.1-1.1-0.1-1.6-0.1c-0.5,0-1,0.1-1.5,0.3c-0.9,0.4-1.9,0.8-2.7,1.2c-1.7,0.8-3.3,1.6-4.5,2.3c-1.3,0.7-2.2,1.3-2.9,1.8
						c-0.7,0.5-1,0.8-1,0.7c0,0,0.3-0.4,0.9-0.9c0.6-0.5,1.6-1.2,2.8-2c1.2-0.8,2.8-1.6,4.5-2.4c0.9-0.4,1.8-0.8,2.8-1.3
						c0.5-0.2,1.1-0.3,1.6-0.3c0.6,0,1.1,0.1,1.7,0.1c4.4,0.5,8.3,1.1,11.2,1.6c1.4,0.3,2.6,0.5,3.4,0.7
						C266.6,395,267,395.2,267,395.2z"/>
				</g>
			</g>
			<g>
				<g>
					<path class="st11" d="M255.4,389.6c0,0.1-1.1-0.4-2.9-0.7c-1.8-0.4-4.4-0.5-7.1,0.2c-2.7,0.7-4.9,2.1-6.3,3.3
						c-1.4,1.2-2.1,2.1-2.2,2.1c-0.1,0,0.5-1.1,1.9-2.4c1.4-1.3,3.6-2.8,6.5-3.6c2.8-0.7,5.6-0.5,7.4,0
						C254.4,388.9,255.4,389.5,255.4,389.6z"/>
				</g>
			</g>
		</g>
	</g>
	<g>
		<g>
			<g>
				<path class="st2" d="M440,277.8c0,0,2.8,5,2.8,9.7c0,4.7-2.8,13-2.8,13l-3.4,3.2c0,0,2.3,10.3-10.8,13.3
					c-13.1,2.9-86.2-39.1-86.2-39.1l-2-55.8c0,0,10.6,4.4,18.3,12.1c7.7,7.7,51.3,39.8,51.3,39.8s1.8-11.4,3.7-10.6
					C412.8,264.1,440,277.8,440,277.8z"/>
			</g>
			<g>
				<path class="st2" d="M337.6,222.1l-39.6-8.4l-10.3-10.6l-45.5-0.4l-5.5,10l-34.1,20.7c0,0,8.6,56.8,11.7,63.4
					c3.1,6.6,28,79.7,28,79.7l99.2-11.8l0.8-45.8l2.9-22.2c0.6-4.7,0.7-9.5,0.3-14.3C343.6,261.5,337.6,222.1,337.6,222.1z"/>
			</g>
			<g>
				<path class="st2" d="M190.9,357.2l-32.5,22.3L147,363.3l3-2.7c0,0-16.8-13.9-15.8-23.7c1-9.8,18.7-35,18.7-35
					s37.9-62.1,49.7-68.7c1.6-0.9,15.9,33.5,15.9,47s-2.7,13.5-2.7,13.5s-11.5,11.1-16.9,21.3c-5.4,10.1-14.6,21.1-20.6,25.2
					L190.9,357.2z"/>
			</g>
			<g>
				<g>
					<path class="st8" d="M160.1,332.3c0,0,0.3-0.1,0.9-0.1c0.6,0,1.4,0,2.4,0.1c2,0.2,4.8,0.9,7.6,2.3c2.8,1.4,5,3.2,6.4,4.6
						c1.4,1.4,2.1,2.5,2.1,2.5c-0.2,0.2-3.3-3.9-8.8-6.6c-2.7-1.3-5.4-2.1-7.3-2.4C161.4,332.5,160.1,332.4,160.1,332.3z"/>
				</g>
			</g>
			<g>
				<g>
					<path class="st8" d="M170,321.4c0-0.1,1.1,0.6,2.4,2.1c1.4,1.4,3,3.7,4.2,6.4c1.2,2.8,1.7,5.5,1.8,7.5c0.1,2-0.1,3.2-0.1,3.2
						c-0.1,0-0.1-1.2-0.3-3.1c-0.2-1.9-0.8-4.5-2-7.2c-1.2-2.7-2.7-4.9-3.9-6.4C170.9,322.2,170,321.4,170,321.4z"/>
				</g>
			</g>
			<g>
				<g>
					<path class="st8" d="M294.8,286c0,0,0.1,0.6,0.3,1.6c0.1,0.5,0.2,1.2,0.2,1.9c0,0.8,0.1,1.6,0.1,2.6c0,1,0,2-0.1,3.1
						c-0.1,1.1-0.3,2.3-0.5,3.6c-0.5,2.5-1.2,5.2-2.3,8c-1.1,2.7-2.4,5.2-3.8,7.4c-0.7,1.1-1.4,2.1-2.1,2.9c-0.7,0.9-1.4,1.7-2,2.4
						c-0.6,0.7-1.3,1.3-1.8,1.8c-0.5,0.5-1,1-1.5,1.3c-0.8,0.7-1.3,1-1.3,1c-0.1-0.1,1.8-1.6,4.3-4.4c0.6-0.7,1.3-1.5,2-2.4
						c0.7-0.9,1.3-1.9,2-2.9c1.3-2.1,2.6-4.6,3.7-7.3c1.1-2.7,1.8-5.4,2.3-7.8c0.2-1.2,0.4-2.4,0.5-3.5c0.1-1.1,0.2-2.2,0.2-3.1
						C295,288.4,294.7,286.1,294.8,286z"/>
				</g>
			</g>
			<g>
				<g>
					<path class="st8" d="M292.4,264.4c0,0-0.3-0.2-0.8-0.6c-0.5-0.4-1.2-1-2.2-1.7c-1.9-1.5-4.7-3.6-8.2-6
						c-3.5-2.5-7.9-5.3-12.6-8.5c-4.8-3.2-10-6.8-15.1-11.2l0.5-0.1c-0.5,0.7-1,1.5-1.5,2.3c-2.1,3.5-3.5,7.3-4.2,11l-0.2,1
						l-0.4-0.9c-4.6-10.2-7.3-19.6-8.9-26.3c-0.8-3.4-1.4-6.1-1.7-7.9c-0.2-0.9-0.3-1.7-0.3-2.1c-0.1-0.5-0.1-0.7-0.1-0.8
						c0,0,0.1,0.2,0.2,0.7c0.1,0.5,0.3,1.2,0.4,2.1c0.4,1.9,1,4.5,1.9,7.9c1.7,6.7,4.5,16,9.1,26.1l-0.6,0.1
						c0.7-3.8,2.1-7.6,4.2-11.2c0.5-0.8,1-1.6,1.5-2.4l0.2-0.3l0.3,0.2c5,4.4,10.2,8,15,11.2c4.7,3.2,9,6.1,12.6,8.6
						c3.5,2.5,6.3,4.6,8.1,6.2c0.9,0.8,1.6,1.4,2.1,1.8C292.1,264.2,292.4,264.4,292.4,264.4z"/>
				</g>
			</g>
			<g>
				<g>
					<path class="st8" d="M298,213.7c0,0,0.1,0.2,0.3,0.5c0.2,0.3,0.5,0.8,0.9,1.5c0.7,1.3,1.7,3.2,2.9,5.7
						c2.3,4.9,5.4,11.9,7.4,20.5l0.2,0.8l-0.7-0.5c-2-1.6-3.9-3.3-5.7-5.3c-1.1-1.2-2.1-2.5-3.1-3.8l0.6-0.2c-0.4,7-0.7,13.3-1,18.6
						l0,0.1l0,0c-2.2,3.9-4,7.1-5.3,9.4c-0.6,1.1-1.1,1.9-1.5,2.6c-0.3,0.6-0.5,0.9-0.6,0.9c0,0,0.1-0.3,0.4-1
						c0.3-0.7,0.8-1.5,1.4-2.6c1.2-2.3,3-5.6,5.1-9.5l0,0.1c0.3-5.2,0.6-11.6,0.9-18.6l0-0.9l0.5,0.7c0.9,1.3,1.9,2.5,3,3.7
						c1.8,2,3.7,3.7,5.7,5.3l-0.5,0.3c-1.9-8.5-4.9-15.5-7.1-20.4c-1.1-2.5-2.1-4.4-2.8-5.8c-0.3-0.6-0.6-1.1-0.8-1.5
						C298.1,213.9,298,213.7,298,213.7z"/>
				</g>
			</g>
			<g>
				<g>
					<path class="st8" d="M346,284.6c-0.2,0-1.2-9.5-2.3-21.4c-1.1-11.8-1.9-21.4-1.7-21.4c0.2,0,1.2,9.5,2.3,21.4
						C345.5,274.9,346.2,284.5,346,284.6z"/>
				</g>
			</g>
			<g>
				<g>
					<path class="st8" d="M416.4,290.4c-0.1,0.1-0.9-0.7-2.1-2c-1.2-1.3-2.7-3.4-4-5.8c-1.3-2.4-2.2-4.8-2.7-6.5
						c-0.5-1.7-0.6-2.9-0.6-2.9c0.2-0.1,1.1,4.3,3.8,9.1C413.4,287.1,416.6,290.3,416.4,290.4z"/>
				</g>
			</g>
			<g>
				<g>
					<path class="st8" d="M410.5,291.8c0,0-0.2-0.2-0.6-0.7c-0.4-0.5-0.8-1.2-1.3-2.1c-1-1.8-2-4.6-2.3-7.8
						c-0.3-3.2,0.1-6.1,0.7-8.1c0.3-1,0.6-1.8,0.8-2.3c0.2-0.5,0.4-0.8,0.4-0.8c0.1,0-0.4,1.2-0.8,3.2c-0.5,2-0.8,4.8-0.5,7.9
						c0.3,3.1,1.2,5.8,2.1,7.6C409.9,290.7,410.6,291.8,410.5,291.8z"/>
				</g>
			</g>
			<g>
				<g>
					<path class="st8" d="M201.1,268.2c0,0,0.3,0.4,0.7,1.2c0.4,0.9,1,2,1.6,3.4c1.4,3,3.3,6.8,5.3,11.1c2.1,4.3,3.9,8.3,5.1,11.2
						c0.6,1.5,1.1,2.6,1.4,3.5c0.3,0.8,0.5,1.3,0.4,1.3c0,0-0.3-0.4-0.7-1.2c-0.4-0.9-1-2-1.6-3.4c-1.4-3-3.3-6.8-5.3-11.1
						c-2.1-4.3-3.9-8.3-5.1-11.2c-0.6-1.5-1.1-2.6-1.4-3.5C201.2,268.6,201.1,268.2,201.1,268.2z"/>
				</g>
			</g>
		</g>
		<g>
			<g>
				<path class="st8" d="M318,334.3c0,0-0.1,0.5-0.4,1.5c-0.3,0.9-0.7,2.3-1.2,3.9c-1.1,3.3-2.8,7.8-4.9,12.6
					c-2.1,4.9-4.2,9.2-5.9,12.2c-0.8,1.5-1.5,2.8-2,3.6c-0.5,0.8-0.8,1.3-0.8,1.3c0,0,0.2-0.5,0.6-1.4c0.5-1,1.1-2.2,1.8-3.7
					c1.5-3.1,3.6-7.4,5.7-12.3c2.1-4.8,3.8-9.3,5-12.5c0.6-1.5,1-2.8,1.4-3.8C317.8,334.8,318,334.3,318,334.3z"/>
			</g>
		</g>
		<g>
			<g>
				<path class="st8" d="M317.3,354.5c0.1,0-0.3,0.9-1,2.2c-0.7,1.3-1.7,3.1-3.1,5c-1.3,1.9-2.6,3.5-3.7,4.6c-1,1.1-1.7,1.7-1.8,1.7
					c-0.1-0.1,2.3-2.9,4.9-6.6C315.4,357.7,317.1,354.5,317.3,354.5z"/>
			</g>
		</g>
		<g>
			<g>
				<path class="st8" d="M310.2,354.5c0,0-0.1-0.3-0.1-0.9c-0.1-0.7-0.2-1.6-0.3-2.7c-0.2-2.3-0.5-5.7-1-9.8
					c-0.9-8.3-2.3-19.8-4.7-32.3c-2.4-12.5-5.3-23.7-7.8-31.7c-0.6-2-1.2-3.8-1.7-5.4c-0.5-1.6-1-2.9-1.3-4
					c-0.4-1.1-0.6-1.9-0.9-2.6c-0.2-0.6-0.3-0.9-0.3-0.9c0,0,0.1,0.3,0.4,0.9c0.2,0.6,0.6,1.5,1,2.5c0.4,1.1,0.9,2.4,1.4,4
					c0.5,1.6,1.2,3.4,1.8,5.4c2.6,8,5.6,19.1,8,31.7c2.4,12.5,3.8,24,4.6,32.4c0.4,4.2,0.7,7.5,0.8,9.9c0.1,1.1,0.1,2,0.2,2.7
					C310.3,354.2,310.3,354.5,310.2,354.5z"/>
			</g>
		</g>
		<g>
			<g>
				<path class="st8" d="M312.3,362.5c-0.2-0.1,1-2.5,0.8-5.7c-0.2-3.2-1.7-5.4-1.6-5.5c0.1,0,0.5,0.4,1,1.4c0.5,1,1,2.4,1.1,4.1
					c0.1,1.7-0.2,3.2-0.6,4.2C312.8,362,312.4,362.6,312.3,362.5z"/>
			</g>
		</g>
		<g>
			<g>
				<path class="st8" d="M310.4,368.3c-0.2,0-0.3-0.8-0.2-1.7c0.1-0.9,0.2-1.7,0.4-1.7c0.2,0,0.3,0.8,0.2,1.7
					C310.8,367.6,310.6,368.3,310.4,368.3z"/>
			</g>
		</g>
		<g>
			<g>
				<path class="st8" d="M180.6,345c0,0-0.5,0.2-1.4,0.5c-0.9,0.3-2.3,0.7-3.9,1.3c-1.7,0.6-3.6,1.3-5.7,2.3c-2.1,1-4.4,2.1-6.7,3.4
					c-4.6,2.6-8.6,5.4-11.4,7.5c-1.4,1.1-2.5,1.9-3.3,2.5c-0.8,0.6-1.2,0.9-1.2,0.9c0,0,0.4-0.4,1.1-1.1c0.7-0.7,1.8-1.6,3.1-2.7
					c2.7-2.2,6.7-5.1,11.3-7.7c2.3-1.3,4.6-2.4,6.8-3.4c2.1-0.9,4.1-1.6,5.8-2.2c1.7-0.5,3-0.9,4-1.1C180,345.1,180.6,345,180.6,345
					z"/>
			</g>
		</g>
		<g>
			<g>
				<path class="st8" d="M179.3,345c0,0.1-1.7,0.1-4.3,0.3c-2.6,0.2-6.2,0.8-10.1,2.1c-3.8,1.3-7.1,2.9-9.4,4.2
					c-2.3,1.3-3.7,2.2-3.7,2.1c0,0,0.3-0.3,0.9-0.7c0.6-0.5,1.5-1.1,2.6-1.8c2.3-1.4,5.5-3.2,9.4-4.5c3.9-1.3,7.6-1.9,10.2-2
					c1.3-0.1,2.4-0.1,3.2,0C178.9,344.9,179.3,345,179.3,345z"/>
			</g>
		</g>
		<g class="st12">
			<g>
				<path d="M203.4,272.5c-1.5,9.6,3.1,19.9,11.3,25.1C211.9,290.3,206.9,279.9,203.4,272.5z"/>
			</g>
		</g>
		<g class="st12">
			<g>
				<path d="M249.5,244.3c1.5,3.1,3.6,5.9,6.2,8.2c0-2.2-0.1-4.4-0.1-6.6c10.1,4.5,20.1,9,30.2,13.4c-10.8-7.7-21.6-15.5-32.4-23.2
					C251.6,239.1,251.3,241.3,249.5,244.3"/>
			</g>
		</g>
		<g class="st12">
			<g>
				<path d="M305.3,239.2c-1.3-2-4.9-6.3-4.9-6.3c-0.1,3.2-0.4,7.5-0.5,10.7l-0.5,7.6c0.5-2.6,0.8-7.7,1.3-10.4
					c1.9,1.8,3.7,3.6,5.6,5.3C307.2,243.8,306.6,241.2,305.3,239.2z"/>
			</g>
		</g>
		<g class="st12">
			<g>
				<path d="M342.2,246.9l3.9,34.8C347.7,270.4,350.8,264.2,342.2,246.9z"/>
			</g>
		</g>
		<g class="st12">
			<g>
				<path d="M428.1,297.1c-1.4-1.2-4.6-1.9-6.3-2.8c-7.5-4.1-11.5-11.5-14.4-19.5l-0.3-0.9c0.3,10.7,7.1,22.2,16.9,26.6
					c1,0.5,2.1,0.9,3.2,0.7c1.1-0.2,2.1-1.2,2-2.3C429.2,298.1,428.7,297.6,428.1,297.1z"/>
			</g>
		</g>
		<g class="st12">
			<g>
				<path d="M272.7,326.9c12.4-4.1,18.4-15.8,21.6-26c0.1,4.4-0.2,8.9-1.6,13.1c-1.3,4.2-3.8,8.2-7.4,10.8
					C281.7,327.4,276.9,328.4,272.7,326.9"/>
			</g>
		</g>
		<g class="st12">
			<g>
				<path d="M178.2,345.8c-9-0.6-18.2,2.4-25.1,8.1c-0.5,0.4-1.1,1-0.8,1.7c0.2,0.5,0.7,0.7,1.2,0.7c0.5-0.1,0.9-0.3,1.4-0.6
					c7.2-4.3,15.3-7.6,23.4-10.1"/>
			</g>
		</g>
		<g class="st12">
			<g>
				<path d="M327,321.6c-0.8-1-2.4-0.8-3.4-0.1c-1,0.8-1.5,2-2,3.2c-4.9,12.2-9.8,24.4-14.7,36.6l-2.3,5.4
					c5.1-8.6,10.3-17.3,15.4-25.9c3.1-5.2,6.2-10.5,7.3-16.4C327.5,323.4,327.6,322.4,327,321.6z"/>
			</g>
		</g>
	</g>
	<g>
		<g>
			<g>
				<path class="st8" d="M225.7,116.1c9.1-12.7,24.3-20.2,39.7-23c6.5-1.2,10.7-0.3,17.2,1c6.5,1.3,12.4,4.4,16.6,9.5
					c4.9,6.1,9.2,13,10.5,20.7c1.4,7.9,2.8,15.9,2.7,24c-0.1,8.1-1.8,16.3-6.1,23.1l-20.2,4.8c-11.2,1.1-22.6,2.2-33.8,0.3
					c-11.1-1.9-22.2-7.1-28.7-16.3C214.7,147.4,216.5,128.9,225.7,116.1z"/>
			</g>
			<g>
				<g>
					<g>
						<path class="st2" d="M300.8,183.2c0,0.1,0.4,0.5,1.3,1c0.9,0.5,2.4,1,4.3,1.2c1.9,0.1,4.2-0.3,6.4-1.7
							c2.2-1.4,3.9-3.9,4.5-6.8c0.6-2.9,0-5.9-1.5-8c-1.4-2.1-3.5-3.4-5.2-4.1c-1.8-0.6-3.4-0.7-4.4-0.6c-1,0.1-1.6,0.4-1.6,0.4
							c0,0.2,2.4-0.4,5.6,1c1.6,0.7,3.4,2,4.6,3.9c1.2,1.9,1.7,4.5,1.2,7.1c-0.5,2.6-2,4.8-3.9,6.1c-1.9,1.3-4,1.8-5.8,1.8
							C302.8,184.5,300.9,183,300.8,183.2z"/>
					</g>
				</g>
			</g>
			<g>
				<path class="st8" d="M209.9,174.2c0.2-4.6,2.3-9.3,6.2-11.9c3.8-2.6,9.4-2.7,12.9,0.3l3.4,3.6c5.2,1.8,8.7,7.3,8.4,12.8
					c-0.3,5.5-4.1,10.5-9.2,12.4c-5.1,1.9-11.2,0.8-15.4-2.7C212,185.2,209.7,179.6,209.9,174.2z"/>
			</g>
			<g>
				<g>
					<path class="st9" d="M214.8,187.7c0.1-0.1-1.4-1.3-1.4-4c0-2.6,1.7-6.2,4.1-9.5c2.5-3.3,5.4-5.7,7.8-7.1c2.3-1.4,3.9-2,3.9-2.2
						c0-0.1-1.7,0.2-4.2,1.6c-2.5,1.3-5.7,3.6-8.2,7.1c-1.3,1.7-2.3,3.5-3,5.2c-0.7,1.7-1.1,3.4-1,4.9c0.1,1.5,0.6,2.5,1.1,3.2
						C214.4,187.5,214.8,187.7,214.8,187.7z"/>
				</g>
			</g>
			<g>
				<g>
					<path class="st9" d="M225.1,193c0.3,0-1.4-6.1,0-13.5c1.4-7.4,5.3-12.4,5-12.6c-0.1-0.1-1.2,1-2.5,3.2
						c-1.3,2.1-2.8,5.4-3.5,9.2c-0.7,3.8-0.6,7.3-0.2,9.8C224.4,191.6,225,193.1,225.1,193z"/>
				</g>
			</g>
			<g>
				<g>
					<g>
						<g>
							<g>
								<g>
									<g>
										<path class="st10" d="M288.2,209.3c-0.6-7.1-1.1-13-1.1-13c0,0,16.5-2.9,19.7-24.5c1.6-10.7,0.9-28.3-0.1-42.7
											c-0.9-12.9-13.1-29.8-29.1-28.9l-7.2-0.4L244,112.4c-3.9,0.4-6.8,3.8-6.7,7.8l5.8,92.4l49.3,51.9l2.8-14.6L288.2,209.3z"
											/>
									</g>
								</g>
							</g>
						</g>
					</g>
					<g>
						<path class="st11" d="M274.6,168.9c0.1-1.1,0.6-2.2,1.4-2.9c1.5-1.5,3.8-1.7,5.6-0.7c1.8,1.1,2.9,3.4,2.7,5.7l0,0
							c-0.9,1.4-2.3,2.4-3.9,2.6c-0.3,0-0.5,0.1-0.8,0.1c-1.2,0-2.5-0.3-3.5-1.1C275.1,171.7,274.5,170.3,274.6,168.9z"/>
					</g>
					<g>
						<g>
							<g>
								<g>
									<g>
										<g>
											<g>
												<g>
													<g>
														<g>
															<g>
																<g>
																	<g>
																		<g>
																			<g>
																				<g>
																					<g>
																						<g>
																							<g>
																								<path class="st8" d="M301,143.8c0.1,1.5-1.1,2.7-2.6,2.8c-1.5,0.1-2.8-1-2.9-2.5c-0.1-1.5,1.1-2.7,2.6-2.8
																									C299.7,141.2,300.9,142.3,301,143.8z"/>
																							</g>
																						</g>
																					</g>
																				</g>
																			</g>
																		</g>
																	</g>
																</g>
															</g>
														</g>
													</g>
												</g>
											</g>
										</g>
									</g>
								</g>
								<g>
									<g>
										<g>
											<g>
												<g>
													<g>
														<g>
															<g>
																<g>
																	<g>
																		<g>
																			<g>
																				<g>
																					<g>
																						<g>
																							<g>
																								<g>
																									<path class="st8" d="M301.9,137.5c-0.3,0.4-2.4-1.2-5.4-1.1c-3,0-5.1,1.5-5.5,1.2
																										c-0.2-0.2,0.2-0.8,1.1-1.5c0.9-0.7,2.5-1.4,4.4-1.4c1.9,0,3.4,0.7,4.3,1.4
																										C301.8,136.6,302.1,137.3,301.9,137.5z"/>
																								</g>
																							</g>
																						</g>
																					</g>
																				</g>
																			</g>
																		</g>
																	</g>
																</g>
															</g>
														</g>
													</g>
												</g>
											</g>
										</g>
									</g>
								</g>
								<g>
									<g>
										<g>
											<g>
												<g>
													<g>
														<g>
															<g>
																<g>
																	<g>
																		<g>
																			<g>
																				<g>
																					<g>
																						<g>
																							<g>
																								<path class="st8" d="M284.7,161.1c0-0.2,1.8-0.5,4.8-0.9c0.8-0.1,1.5-0.2,1.6-0.8c0.2-0.6-0.2-1.4-0.5-2.2
																									c-0.7-1.8-1.5-3.8-2.3-5.8c-3.2-8.2-5.5-15-5.2-15.1c0.3-0.1,3.2,6.4,6.4,14.6c0.8,2,1.5,4,2.2,5.8
																									c0.3,0.9,0.8,1.8,0.4,3c-0.2,0.6-0.8,1-1.2,1.1c-0.5,0.2-0.9,0.2-1.3,0.2
																									C286.6,161.3,284.7,161.3,284.7,161.1z"/>
																							</g>
																						</g>
																					</g>
																				</g>
																			</g>
																		</g>
																	</g>
																</g>
															</g>
														</g>
													</g>
												</g>
											</g>
										</g>
									</g>
								</g>
								<g>
									<g>
										<g>
											<g>
												<g>
													<g>
														<g>
															<g>
																<g>
																	<g>
																		<g>
																			<g>
																				<g>
																					<g>
																						<g>
																							<path class="st11" d="M287.1,196.3c0,0-14.5,1.1-29-7.4c0,0,7.8,14.9,29.4,12.7L287.1,196.3z"/>
																						</g>
																					</g>
																				</g>
																			</g>
																		</g>
																	</g>
																</g>
															</g>
														</g>
													</g>
												</g>
											</g>
										</g>
									</g>
								</g>
								<g>
									<g>
										<g>
											<g>
												<g>
													<g>
														<g>
															<g>
																<g>
																	<g>
																		<g>
																			<g>
																				<g>
																					<g>
																						<g>
																							<g>
																								<path class="st8" d="M276,163.3c0.5,0,0.5,3.2,3.3,5.5c2.8,2.3,6.2,1.9,6.3,2.3c0,0.2-0.8,0.6-2.2,0.7
																									c-1.4,0.1-3.5-0.4-5.2-1.8c-1.7-1.4-2.4-3.3-2.6-4.6C275.4,164,275.8,163.2,276,163.3z"/>
																							</g>
																						</g>
																					</g>
																				</g>
																			</g>
																		</g>
																	</g>
																</g>
															</g>
														</g>
													</g>
												</g>
											</g>
										</g>
									</g>
								</g>
								<g>
									<g>
										<g>
											<g>
												<g>
													<g>
														<g>
															<g>
																<g>
																	<g>
																		<g>
																			<g>
																				<g>
																					<g>
																						<g>
																							<g>
																								<g>
																									<g>
																										<path class="st8" d="M300.5,125.2c-0.5,0.7-2.6,0-5,0c-2.5-0.1-4.5,0.5-5-0.2c-0.2-0.3,0.1-1,1-1.7
																											c0.9-0.6,2.4-1.2,4.1-1.1c1.7,0,3.2,0.6,4,1.3C300.5,124.1,300.8,124.8,300.5,125.2z"/>
																									</g>
																								</g>
																							</g>
																						</g>
																					</g>
																				</g>
																			</g>
																		</g>
																	</g>
																</g>
															</g>
														</g>
													</g>
												</g>
											</g>
										</g>
									</g>
								</g>
								<g>
									<g>
										<g>
											<g>
												<g>
													<g>
														<g>
															<g>
																<g>
																	<g>
																		<g>
																			<g>
																				<g>
																					<g>
																						<g>
																							<g>
																								<path class="st8" d="M267.5,144.5c0,1.5,1.3,2.7,2.8,2.7c1.5,0,2.7-1.2,2.7-2.6c0-1.5-1.3-2.7-2.8-2.7
																									C268.7,141.8,267.5,143,267.5,144.5z"/>
																							</g>
																						</g>
																					</g>
																				</g>
																			</g>
																		</g>
																	</g>
																</g>
															</g>
														</g>
													</g>
												</g>
											</g>
										</g>
									</g>
								</g>
								<g>
									<g>
										<g>
											<g>
												<g>
													<g>
														<g>
															<g>
																<g>
																	<g>
																		<g>
																			<g>
																				<g>
																					<g>
																						<g>
																							<g>
																								<g>
																									<path class="st8" d="M262.9,139.7c0.4,0.3,2.4-1.3,5.4-1.4c3-0.2,5.2,1.3,5.5,0.9c0.2-0.2-0.2-0.8-1.2-1.5
																										c-1-0.6-2.6-1.2-4.4-1.1c-1.9,0.1-3.4,0.9-4.2,1.6C263,138.9,262.7,139.5,262.9,139.7z"/>
																								</g>
																							</g>
																						</g>
																					</g>
																				</g>
																			</g>
																		</g>
																	</g>
																</g>
															</g>
														</g>
													</g>
												</g>
											</g>
										</g>
									</g>
								</g>
								<g>
									<g>
										<g>
											<g>
												<g>
													<g>
														<g>
															<g>
																<g>
																	<g>
																		<g>
																			<g>
																				<g>
																					<g>
																						<g>
																							<g>
																								<g>
																									<g>
																										<path class="st8" d="M263,135.5c0.6,0.7,2.6-0.1,5-0.3c2.5-0.2,4.6,0.2,5-0.5c0.2-0.4-0.2-1-1.1-1.6
																											c-0.9-0.6-2.5-1-4.1-0.9c-1.7,0.1-3.1,0.8-4,1.5C263,134.5,262.7,135.2,263,135.5z"/>
																									</g>
																								</g>
																							</g>
																						</g>
																					</g>
																				</g>
																			</g>
																		</g>
																	</g>
																</g>
															</g>
														</g>
													</g>
												</g>
											</g>
										</g>
									</g>
								</g>
							</g>
						</g>
					</g>
					<g>
						<g>
							<g>
								<g>
									<g>
										<g>
											<g>
												<g>
													<g>
														<g>
															<g>
																<g>
																	<g>
																		<g>
																			<g>
																				<g>
																					<path class="st10" d="M245,156.4c0-1.6-1.9-5.4-3.5-5.6c-4.2-0.6-11.9-0.2-11.8,10.5
																						c0,14.7,14.8,11.6,14.8,11.2C244.5,172.2,245.1,161.9,245,156.4z"/>
																				</g>
																			</g>
																		</g>
																	</g>
																</g>
															</g>
														</g>
													</g>
												</g>
											</g>
										</g>
									</g>
								</g>
							</g>
						</g>
						<g>
							<g>
								<g>
									<g>
										<g>
											<g>
												<g>
													<g>
														<g>
															<g>
																<g>
																	<g>
																		<g>
																			<g>
																				<g>
																					<g>
																						<path class="st11" d="M238.7,166.9c-0.1,0-0.3,0.2-0.7,0.4c-0.4,0.2-1.1,0.3-1.9,0c-1.6-0.6-2.9-3-2.9-5.7
																							c0-1.3,0.2-2.6,0.7-3.7c0.4-1.1,1.1-1.8,1.9-2c0.8-0.2,1.3,0.3,1.5,0.7c0.2,0.4,0.1,0.7,0.2,0.7
																							c0,0,0.3-0.2,0.2-0.9c-0.1-0.3-0.2-0.6-0.6-0.9c-0.4-0.3-0.9-0.4-1.4-0.4c-1.1,0.1-2.2,1.1-2.7,2.3
																							c-0.6,1.2-0.9,2.6-0.9,4.1c0.1,3,1.6,5.7,3.8,6.3c1,0.3,1.9,0,2.3-0.4C238.7,167.2,238.7,166.9,238.7,166.9z"
																							/>
																					</g>
																				</g>
																			</g>
																		</g>
																	</g>
																</g>
															</g>
														</g>
													</g>
												</g>
											</g>
										</g>
									</g>
								</g>
							</g>
						</g>
					</g>
				</g>
			</g>
			<g>
				<g>
					<path class="st8" d="M239.2,150.5l4,3.6c15.1-16.4,44-56.9,42.4-54.5c0,0-11.3-3.8-23.1-1c-11.8,2.8-34.1,10.2-32.9,24.3
						C230.9,137,239.2,150.5,239.2,150.5z"/>
				</g>
			</g>
			<g>
				<g>
					<g>
						<path class="st2" d="M241.9,187c0,0-0.3,0.5-1.1,1.1c-0.8,0.6-2.2,1.3-4.1,1.7c-1.9,0.3-4.2,0.2-6.6-0.9
							c-2.3-1.1-4.3-3.4-5.3-6.2c-0.9-2.8-0.7-5.8,0.4-8.1c1.2-2.3,3-3.8,4.7-4.7c1.7-0.9,3.2-1.1,4.3-1.2c1.1,0,1.6,0.1,1.6,0.2
							c0,0.2-2.4-0.1-5.5,1.7c-1.5,0.9-3.1,2.4-4.1,4.5c-1,2-1.1,4.7-0.3,7.2c0.9,2.5,2.6,4.5,4.6,5.5c2,1.1,4.2,1.2,5.9,1
							C240,188.5,241.8,186.8,241.9,187z"/>
					</g>
				</g>
			</g>
			<g>
				<g>
					<path class="st9" d="M229.2,163.4c0.1,0,0-1.2-0.1-3.4c-0.1-2.2,0-5.4,0.6-9.2c1.1-7.7,4.9-18.1,12.1-27.6
						c7.2-9.5,15.9-16.3,22.3-20.8c3.2-2.3,5.9-4,7.7-5.2c1.9-1.2,2.9-1.8,2.8-1.9c0,0-0.3,0.1-0.8,0.4c-0.5,0.3-1.3,0.7-2.2,1.2
						c-1.9,1.1-4.7,2.7-7.9,4.9c-6.5,4.4-15.3,11.1-22.7,20.8c-7.3,9.7-11.1,20.3-12,28.1c-0.5,3.9-0.5,7.1-0.3,9.3
						c0,1.1,0.2,1.9,0.3,2.5C229.1,163.1,229.2,163.4,229.2,163.4z"/>
				</g>
			</g>
			<g>
				<g>
					<path class="st9" d="M265.5,95c0,0-0.3,0.1-0.8,0.3c-0.5,0.2-1.3,0.6-2.3,1.2c-2,1-4.8,2.6-8.2,4.8c-3.4,2.2-7.3,4.9-11.4,8.3
						c-4.1,3.4-8.5,7.2-12.2,12.2c-1.8,2.5-3.4,5.1-4.4,7.8c-1.1,2.7-1.6,5.5-1.9,8.2c-0.5,5.3,0.2,10.1,0.9,14.1
						c0.8,3.9,1.7,7,2.4,9.2c0.3,1.1,0.6,1.9,0.8,2.4c0.2,0.6,0.3,0.8,0.3,0.8c0.1,0-0.2-1.2-0.8-3.4c-0.5-2.2-1.3-5.3-2-9.2
						c-0.7-3.9-1.3-8.6-0.7-13.8c0.3-2.6,0.9-5.3,1.9-7.9c1-2.6,2.5-5.2,4.3-7.6c3.6-4.8,8-8.7,12-12.1c4-3.4,7.9-6.2,11.2-8.4
						c3.3-2.2,6.1-3.9,8-5.1C264.5,95.7,265.5,95.1,265.5,95z"/>
				</g>
			</g>
			<g>
				<g>
					<path class="st2" d="M238.9,150.9c0.1,0,0.7-0.7,1.8-2c1.2-1.5,2.8-3.4,4.6-5.6c3.9-4.8,9.1-11.4,14.9-18.7
						c5.8-7.4,10.9-14,14.7-18.9c1.7-2.3,3.2-4.3,4.4-5.8c1-1.4,1.5-2.2,1.5-2.2c-0.1,0-0.7,0.7-1.8,2c-1.2,1.5-2.8,3.4-4.6,5.6
						c-3.9,4.8-9.1,11.4-14.9,18.8c-5.8,7.4-11,14.1-14.7,18.9c-1.7,2.3-3.2,4.3-4.4,5.8C239.4,150.1,238.9,150.9,238.9,150.9z"/>
				</g>
			</g>
		</g>
		<g>
			<g>
				<path class="st11" d="M277,162.3c-0.1,0.2-1.3-0.3-2.7,0.1c-1.5,0.3-2.4,1.2-2.5,1.1c-0.2-0.1,0.7-1.3,2.4-1.7
					C275.9,161.4,277.1,162.2,277,162.3z"/>
			</g>
		</g>
		<g>
			<g>
				<path class="st11" d="M261.7,143.8c0,0.2-1.2,0.4-2.8,0.3c-1.5-0.1-2.7-0.5-2.7-0.7c0-0.2,1.3,0,2.7,0
					C260.5,143.6,261.7,143.6,261.7,143.8z"/>
			</g>
		</g>
		<g>
			<g>
				<path class="st11" d="M261,144.8c0,0.2-0.8,0.4-1.9,0.8c-1,0.3-1.9,0.6-2,0.4c-0.1-0.1,0.7-0.7,1.8-1
					C260.1,144.6,261,144.7,261,144.8z"/>
			</g>
		</g>
		<g>
			<g>
				<path class="st11" d="M306.1,142.2c0.1,0.2-0.6,0.6-1.6,0.9c-0.9,0.3-1.7,0.5-1.8,0.3c-0.1-0.2,0.6-0.6,1.6-0.9
					C305.2,142.1,306,142,306.1,142.2z"/>
			</g>
		</g>
		<g>
			<g>
				<path class="st11" d="M305.8,145c-0.1,0.2-0.8,0-1.7-0.3c-0.9-0.3-1.6-0.7-1.5-0.9c0.1-0.2,0.8,0,1.7,0.3
					C305.2,144.5,305.9,144.9,305.8,145z"/>
			</g>
		</g>
	</g>
	<g>
		<g>
			<path class="st8" d="M550,536.1c0,0.2-123.1,0.3-275,0.3c-151.9,0-275-0.1-275-0.3c0-0.2,123.1-0.3,275-0.3
				C426.9,535.8,550,535.9,550,536.1z"/>
		</g>
	</g>
</g>
</svg>
