<?xml version="1.0" encoding="utf-8"?>
<!-- Generator: Adobe Illustrator 28.3.0, SVG Export Plug-In . SVG Version: 6.00 Build 0)  -->
<svg version="1.1" id="Layer_1" xmlns="http://www.w3.org/2000/svg" xmlns:xlink="http://www.w3.org/1999/xlink" x="0px" y="0px"
	 viewBox="0 0 550 550" style="enable-background:new 0 0 550 550;" xml:space="preserve">
<style type="text/css">
	.st0{fill:#F5F5F5;}
	.st1{fill:#FAFAFA;}
	.st2{fill:#E1E1E1;}
	.st3{fill:#ECECEC;}
	.st4{fill:#FFFFFF;}
	.st5{fill:#1A2E35;}
	.st6{fill:#FF735D;}
	.st7{fill:#375A64;}
	.st8{opacity:0.3;}
	.st9{opacity:0.2;}
</style>
<g>
	<g>
		<rect x="0.4" y="222.2" class="st0" width="71.9" height="220.2"/>
		<rect x="72.1" y="222.2" class="st1" width="56.8" height="220.2"/>
		<g>
			<rect x="4.3" y="257.4" class="st2" width="61" height="17.2"/>
			<rect x="6" y="259.6" class="st0" width="3.4" height="13.1"/>
			<path class="st1" d="M13.4,262.4c0,0.6-0.5,1.1-1.1,1.1c-0.6,0-1.1-0.5-1.1-1.1s0.5-1.1,1.1-1.1
				C12.9,261.3,13.4,261.8,13.4,262.4z"/>
			<circle class="st1" cx="12.3" cy="267" r="1.1"/>
			<rect x="17.8" y="261.3" class="st0" width="3.4" height="10.1"/>
			<rect x="22.6" y="261.3" class="st0" width="3.4" height="10.1"/>
			<rect x="27.4" y="261.3" class="st0" width="3.4" height="10.1"/>
			<rect x="32.3" y="261.3" class="st0" width="3.4" height="10.1"/>
			<rect x="37.1" y="261.3" class="st0" width="3.4" height="10.1"/>
			<rect x="42" y="261.3" class="st0" width="3.4" height="10.1"/>
			<rect x="46.8" y="261.3" class="st0" width="3.4" height="10.1"/>
			<rect x="51.7" y="261.3" class="st0" width="3.4" height="10.1"/>
			<rect x="56.5" y="261.3" class="st0" width="3.4" height="10.1"/>
			<rect x="61.4" y="261.3" class="st0" width="3.4" height="10.1"/>
		</g>
		<g>
			<rect x="4.3" y="284.9" class="st2" width="61" height="17.2"/>
			<rect x="6" y="287.1" class="st0" width="3.4" height="13.1"/>
			<path class="st1" d="M13.4,289.9c0,0.6-0.5,1.1-1.1,1.1c-0.6,0-1.1-0.5-1.1-1.1c0-0.6,0.5-1.1,1.1-1.1
				C12.9,288.8,13.4,289.3,13.4,289.9z"/>
			<path class="st1" d="M13.4,294.5c0,0.6-0.5,1.1-1.1,1.1c-0.6,0-1.1-0.5-1.1-1.1c0-0.6,0.5-1.1,1.1-1.1
				C12.9,293.4,13.4,293.9,13.4,294.5z"/>
			<rect x="17.8" y="288.8" class="st0" width="3.4" height="10.1"/>
			<rect x="22.6" y="288.8" class="st0" width="3.4" height="10.1"/>
			<rect x="27.4" y="288.8" class="st0" width="3.4" height="10.1"/>
			<rect x="32.3" y="288.8" class="st0" width="3.4" height="10.1"/>
			<rect x="37.1" y="288.8" class="st0" width="3.4" height="10.1"/>
			<rect x="42" y="288.8" class="st0" width="3.4" height="10.1"/>
			<rect x="46.8" y="288.8" class="st0" width="3.4" height="10.1"/>
			<rect x="51.7" y="288.8" class="st0" width="3.4" height="10.1"/>
			<rect x="56.5" y="288.8" class="st0" width="3.4" height="10.1"/>
			<rect x="61.4" y="288.8" class="st0" width="3.4" height="10.1"/>
		</g>
		<g>
			<rect x="4.3" y="312.4" class="st2" width="61" height="17.2"/>
			<rect x="6" y="314.6" class="st0" width="3.4" height="13.1"/>
			<path class="st1" d="M13.4,317.3c0,0.6-0.5,1.1-1.1,1.1c-0.6,0-1.1-0.5-1.1-1.1c0-0.6,0.5-1.1,1.1-1.1
				C12.9,316.3,13.4,316.7,13.4,317.3z"/>
			<circle class="st1" cx="12.3" cy="322" r="1.1"/>
			<rect x="17.8" y="316.3" class="st0" width="3.4" height="10.1"/>
			<rect x="22.6" y="316.3" class="st0" width="3.4" height="10.1"/>
			<rect x="27.4" y="316.3" class="st0" width="3.4" height="10.1"/>
			<rect x="32.3" y="316.3" class="st0" width="3.4" height="10.1"/>
			<rect x="37.1" y="316.3" class="st0" width="3.4" height="10.1"/>
			<rect x="42" y="316.3" class="st0" width="3.4" height="10.1"/>
			<rect x="46.8" y="316.3" class="st0" width="3.4" height="10.1"/>
			<rect x="51.7" y="316.3" class="st0" width="3.4" height="10.1"/>
			<rect x="56.5" y="316.3" class="st0" width="3.4" height="10.1"/>
			<rect x="61.4" y="316.3" class="st0" width="3.4" height="10.1"/>
		</g>
		<g>
			<rect x="4.3" y="339.9" class="st2" width="61" height="17.2"/>
			<rect x="6" y="342.1" class="st0" width="3.4" height="13.1"/>
			<path class="st1" d="M13.4,344.8c0,0.6-0.5,1.1-1.1,1.1c-0.6,0-1.1-0.5-1.1-1.1s0.5-1.1,1.1-1.1
				C12.9,343.8,13.4,344.2,13.4,344.8z"/>
			<circle class="st1" cx="12.3" cy="349.5" r="1.1"/>
			<rect x="17.8" y="343.8" class="st0" width="3.4" height="10.1"/>
			<rect x="22.6" y="343.8" class="st0" width="3.4" height="10.1"/>
			<rect x="27.4" y="343.8" class="st0" width="3.4" height="10.1"/>
			<rect x="32.3" y="343.8" class="st0" width="3.4" height="10.1"/>
			<rect x="37.1" y="343.8" class="st0" width="3.4" height="10.1"/>
			<rect x="42" y="343.8" class="st0" width="3.4" height="10.1"/>
			<rect x="46.8" y="343.8" class="st0" width="3.4" height="10.1"/>
			<rect x="51.7" y="343.8" class="st0" width="3.4" height="10.1"/>
			<rect x="56.5" y="343.8" class="st0" width="3.4" height="10.1"/>
			<rect x="61.4" y="343.8" class="st0" width="3.4" height="10.1"/>
		</g>
		<g>
			<rect x="4.3" y="367.4" class="st2" width="61" height="17.2"/>
			<rect x="6" y="369.6" class="st0" width="3.4" height="13.1"/>
			<path class="st1" d="M13.4,372.3c0,0.6-0.5,1.1-1.1,1.1c-0.6,0-1.1-0.5-1.1-1.1c0-0.6,0.5-1.1,1.1-1.1
				C12.9,371.2,13.4,371.7,13.4,372.3z"/>
			<circle class="st1" cx="12.3" cy="377" r="1.1"/>
			<rect x="17.8" y="371.2" class="st0" width="3.4" height="10.1"/>
			<rect x="22.6" y="371.2" class="st0" width="3.4" height="10.1"/>
			<rect x="27.4" y="371.2" class="st0" width="3.4" height="10.1"/>
			<rect x="32.3" y="371.2" class="st0" width="3.4" height="10.1"/>
			<rect x="37.1" y="371.2" class="st0" width="3.4" height="10.1"/>
			<rect x="42" y="371.2" class="st0" width="3.4" height="10.1"/>
			<rect x="46.8" y="371.2" class="st0" width="3.4" height="10.1"/>
			<rect x="51.7" y="371.2" class="st0" width="3.4" height="10.1"/>
			<rect x="56.5" y="371.2" class="st0" width="3.4" height="10.1"/>
			<rect x="61.4" y="371.2" class="st0" width="3.4" height="10.1"/>
		</g>
		<g>
			<rect x="4.3" y="394.9" class="st2" width="61" height="17.2"/>
			<rect x="6" y="397.1" class="st0" width="3.4" height="13.1"/>
			<path class="st1" d="M13.4,399.8c0,0.6-0.5,1.1-1.1,1.1c-0.6,0-1.1-0.5-1.1-1.1c0-0.6,0.5-1.1,1.1-1.1
				C12.9,398.7,13.4,399.2,13.4,399.8z"/>
			<circle class="st1" cx="12.3" cy="404.5" r="1.1"/>
			<rect x="17.8" y="398.7" class="st0" width="3.4" height="10.1"/>
			<rect x="22.6" y="398.7" class="st0" width="3.4" height="10.1"/>
			<rect x="27.4" y="398.7" class="st0" width="3.4" height="10.1"/>
			<rect x="32.3" y="398.7" class="st0" width="3.4" height="10.1"/>
			<rect x="37.1" y="398.7" class="st0" width="3.4" height="10.1"/>
			<rect x="42" y="398.7" class="st0" width="3.4" height="10.1"/>
			<rect x="46.8" y="398.7" class="st0" width="3.4" height="10.1"/>
			<rect x="51.7" y="398.7" class="st0" width="3.4" height="10.1"/>
			<rect x="56.5" y="398.7" class="st0" width="3.4" height="10.1"/>
			<rect x="61.4" y="398.7" class="st0" width="3.4" height="10.1"/>
		</g>
		<g>
			<rect x="4.3" y="422.4" class="st2" width="61" height="17.2"/>
			<rect x="6" y="424.6" class="st0" width="3.4" height="13.1"/>
			<path class="st1" d="M13.4,427.3c0,0.6-0.5,1.1-1.1,1.1c-0.6,0-1.1-0.5-1.1-1.1c0-0.6,0.5-1.1,1.1-1.1
				C12.9,426.2,13.4,426.7,13.4,427.3z"/>
			<path class="st1" d="M13.4,432c0,0.6-0.5,1.1-1.1,1.1c-0.6,0-1.1-0.5-1.1-1.1c0-0.6,0.5-1.1,1.1-1.1
				C12.9,430.9,13.4,431.4,13.4,432z"/>
			<rect x="17.8" y="426.2" class="st0" width="3.4" height="10.1"/>
			<rect x="22.6" y="426.2" class="st0" width="3.4" height="10.1"/>
			<rect x="27.4" y="426.2" class="st0" width="3.4" height="10.1"/>
			<rect x="32.3" y="426.2" class="st0" width="3.4" height="10.1"/>
			<rect x="37.1" y="426.2" class="st0" width="3.4" height="10.1"/>
			<rect x="42" y="426.2" class="st0" width="3.4" height="10.1"/>
			<rect x="46.8" y="426.2" class="st0" width="3.4" height="10.1"/>
			<rect x="51.7" y="426.2" class="st0" width="3.4" height="10.1"/>
			<rect x="56.5" y="426.2" class="st0" width="3.4" height="10.1"/>
			<rect x="61.4" y="426.2" class="st0" width="3.4" height="10.1"/>
		</g>
		<g>
			<path class="st2" d="M42,257.4c0,0,0-0.2-0.1-0.5c0-0.3,0-0.9-0.1-1.5c0-0.7,0-1.5-0.1-2.4c-0.1-0.9-0.1-2-0.4-3.1
				c-0.3-1.1-0.8-2.3-1.6-3.4c-0.8-1.1-1.9-2.1-3.3-2.7c-1.4-0.6-3-0.8-4.7-1c-1.7-0.1-3.5-0.3-5.3-0.5c-7.2-0.6-13.7-1-18.5-1.1
				c-2.4-0.1-4.3,0-5.6,0c-0.6,0-1.1,0-1.5,0c-0.3,0-0.5,0-0.5,0c0,0,0.2,0,0.5-0.1c0.4,0,0.9-0.1,1.5-0.1c1.3-0.1,3.2-0.1,5.6-0.1
				c4.7,0,11.3,0.4,18.5,1c1.8,0.2,3.6,0.3,5.3,0.5c1.7,0.2,3.4,0.4,4.8,1c1.5,0.6,2.7,1.7,3.5,2.8c0.8,1.2,1.3,2.4,1.6,3.6
				C42,250.9,42,252,42,253c0,0.9,0,1.8,0,2.4c0,0.6,0,1.1,0,1.5C42,257.3,42,257.4,42,257.4z"/>
		</g>
		<g>
			<path class="st2" d="M23.5,257.4c0,0,0-0.2,0-0.5c0-0.4,0-0.9,0-1.4c0-0.6,0-1.4-0.1-2.3c-0.1-0.9-0.2-1.9-0.8-2.8
				c-0.5-0.9-1.6-1.6-2.7-2.1c-1.2-0.5-2.6-0.6-4-0.4c-0.7,0.1-1.4,0.3-2.1,0.7c-0.6,0.4-1.2,0.9-1.6,1.5c-0.4,0.7-0.4,1.5,0,2.1
				c0.4,0.7,1,1.2,1.8,1.4c0.8,0.2,1.6-0.1,2.1-0.6c0.6-0.5,0.9-1.3,1-2c0.1-0.8-0.2-1.5-0.6-2.1c-0.4-0.6-1-1.1-1.6-1.4
				c-0.6-0.3-1.3-0.4-2-0.5c-0.7-0.1-1.4-0.2-2-0.3c-1.3-0.1-2.5-0.2-3.6-0.3c-2.2-0.1-4-0.1-5.3-0.1c-0.6,0-1.1,0-1.4,0
				c-0.3,0-0.5,0-0.5,0c0,0,0.2,0,0.5-0.1c0.4,0,0.8,0,1.4-0.1c1.2-0.1,3-0.1,5.3-0.1c1.1,0,2.3,0.1,3.6,0.2c0.7,0.1,1.3,0.1,2,0.2
				c0.3,0.1,0.7,0.1,1.1,0.2c0.4,0.1,0.7,0.2,1.1,0.4c0.7,0.4,1.3,0.9,1.8,1.5c0.5,0.6,0.8,1.5,0.7,2.3c-0.1,0.9-0.4,1.7-1.1,2.3
				c-0.6,0.6-1.6,0.9-2.5,0.7c-0.9-0.2-1.7-0.8-2.1-1.6c-0.5-0.8-0.4-1.8,0-2.5c0.4-0.8,1.1-1.3,1.8-1.7c0.7-0.4,1.5-0.6,2.2-0.7
				c1.5-0.2,3,0,4.2,0.5c1.2,0.5,2.3,1.3,2.9,2.3c0.6,1,0.7,2.1,0.7,3c0,0.9,0,1.7,0,2.3c0,0.6,0,1.1-0.1,1.4
				C23.5,257.3,23.5,257.4,23.5,257.4z"/>
		</g>
		<g>
			<path class="st2" d="M47,257.4c0,0-0.1-0.2-0.1-0.6c-0.1-0.4-0.2-0.9-0.3-1.6c-0.3-1.4-0.8-3.4-1.8-5.8c-1-2.3-2.6-5.1-5.3-7.1
				c-1.3-1-3-1.6-4.9-1.8c-1.8-0.3-3.7-0.3-5.7-0.3c-7.9-0.1-15-0.1-20.2-0.3c-2.6-0.1-4.7-0.2-6.1-0.3c-0.7-0.1-1.2-0.1-1.7-0.1
				c-0.4,0-0.6-0.1-0.6-0.1c0,0,0.2,0,0.6,0c0.4,0,1,0,1.7,0.1c1.4,0.1,3.5,0.1,6.1,0.2c5.2,0.1,12.3,0,20.2,0.2
				c2,0.1,3.9,0,5.8,0.3c1.9,0.3,3.7,0.9,5,1.9c1.4,1.1,2.5,2.3,3.4,3.6c0.9,1.3,1.5,2.6,2,3.8c1,2.4,1.4,4.5,1.7,5.9
				c0.1,0.7,0.2,1.3,0.2,1.6C47,257.2,47,257.4,47,257.4z"/>
		</g>
		<rect x="5.1" y="224.9" class="st2" width="59.3" height="8.6"/>
		<rect x="18.2" y="229.2" class="st0" width="32.3" height="4.3"/>
	</g>
	<g>
		<rect x="87.4" y="168.8" class="st0" width="89.1" height="273.1"/>
		<rect x="176.2" y="168.8" class="st1" width="70.5" height="273.1"/>
		<g>
			<rect x="92.2" y="212.5" class="st2" width="75.6" height="21.3"/>
			<rect x="94.3" y="215.2" class="st0" width="4.2" height="16.3"/>
			<path class="st1" d="M103.5,218.6c0,0.7-0.6,1.3-1.3,1.3c-0.7,0-1.3-0.6-1.3-1.3c0-0.7,0.6-1.3,1.3-1.3
				C102.9,217.3,103.5,217.9,103.5,218.6z"/>
			<circle class="st1" cx="102.1" cy="224.4" r="1.3"/>
			<rect x="108.9" y="217.3" class="st0" width="4.2" height="12.5"/>
			<rect x="114.9" y="217.3" class="st0" width="4.2" height="12.5"/>
			<rect x="120.9" y="217.3" class="st0" width="4.2" height="12.5"/>
			<rect x="126.9" y="217.3" class="st0" width="4.2" height="12.5"/>
			<rect x="132.9" y="217.3" class="st0" width="4.2" height="12.5"/>
			<rect x="138.9" y="217.3" class="st0" width="4.2" height="12.5"/>
			<rect x="144.9" y="217.3" class="st0" width="4.2" height="12.5"/>
			<rect x="150.9" y="217.3" class="st0" width="4.2" height="12.5"/>
			<rect x="157" y="217.3" class="st0" width="4.2" height="12.5"/>
			<rect x="163" y="217.3" class="st0" width="4.2" height="12.5"/>
		</g>
		<g>
			<rect x="92.2" y="246.6" class="st2" width="75.6" height="21.3"/>
			<rect x="94.3" y="249.3" class="st0" width="4.2" height="16.3"/>
			<path class="st1" d="M103.5,252.8c0,0.7-0.6,1.3-1.3,1.3c-0.7,0-1.3-0.6-1.3-1.3c0-0.7,0.6-1.3,1.3-1.3
				C102.9,251.4,103.5,252,103.5,252.8z"/>
			<path class="st1" d="M103.5,258.5c0,0.7-0.6,1.3-1.3,1.3c-0.7,0-1.3-0.6-1.3-1.3c0-0.7,0.6-1.3,1.3-1.3
				C102.9,257.2,103.5,257.8,103.5,258.5z"/>
			<rect x="108.9" y="251.4" class="st0" width="4.2" height="12.5"/>
			<rect x="114.9" y="251.4" class="st0" width="4.2" height="12.5"/>
			<rect x="120.9" y="251.4" class="st0" width="4.2" height="12.5"/>
			<rect x="126.9" y="251.4" class="st0" width="4.2" height="12.5"/>
			<rect x="132.9" y="251.4" class="st0" width="4.2" height="12.5"/>
			<rect x="138.9" y="251.4" class="st0" width="4.2" height="12.5"/>
			<rect x="144.9" y="251.4" class="st0" width="4.2" height="12.5"/>
			<rect x="150.9" y="251.4" class="st0" width="4.2" height="12.5"/>
			<rect x="157" y="251.4" class="st0" width="4.2" height="12.5"/>
			<rect x="163" y="251.4" class="st0" width="4.2" height="12.5"/>
		</g>
		<g>
			<rect x="92.2" y="280.7" class="st2" width="75.6" height="21.3"/>
			<rect x="94.3" y="283.4" class="st0" width="4.2" height="16.3"/>
			<path class="st1" d="M103.5,286.9c0,0.7-0.6,1.3-1.3,1.3c-0.7,0-1.3-0.6-1.3-1.3c0-0.7,0.6-1.3,1.3-1.3
				C102.9,285.5,103.5,286.1,103.5,286.9z"/>
			<circle class="st1" cx="102.1" cy="292.6" r="1.3"/>
			<rect x="108.9" y="285.5" class="st0" width="4.2" height="12.5"/>
			<rect x="114.9" y="285.5" class="st0" width="4.2" height="12.5"/>
			<rect x="120.9" y="285.5" class="st0" width="4.2" height="12.5"/>
			<rect x="126.9" y="285.5" class="st0" width="4.2" height="12.5"/>
			<rect x="132.9" y="285.5" class="st0" width="4.2" height="12.5"/>
			<rect x="138.9" y="285.5" class="st0" width="4.2" height="12.5"/>
			<rect x="144.9" y="285.5" class="st0" width="4.2" height="12.5"/>
			<rect x="150.9" y="285.5" class="st0" width="4.2" height="12.5"/>
			<rect x="157" y="285.5" class="st0" width="4.2" height="12.5"/>
			<rect x="163" y="285.5" class="st0" width="4.2" height="12.5"/>
		</g>
		<g>
			<rect x="92.2" y="314.8" class="st2" width="75.6" height="21.3"/>
			<rect x="94.3" y="317.5" class="st0" width="4.2" height="16.3"/>
			<path class="st1" d="M103.5,321c0,0.7-0.6,1.3-1.3,1.3c-0.7,0-1.3-0.6-1.3-1.3c0-0.7,0.6-1.3,1.3-1.3
				C102.9,319.6,103.5,320.2,103.5,321z"/>
			<path class="st1" d="M103.5,326.7c0,0.7-0.6,1.3-1.3,1.3c-0.7,0-1.3-0.6-1.3-1.3c0-0.7,0.6-1.3,1.3-1.3
				C102.9,325.4,103.5,326,103.5,326.7z"/>
			<rect x="108.9" y="319.6" class="st0" width="4.2" height="12.5"/>
			<rect x="114.9" y="319.6" class="st0" width="4.2" height="12.5"/>
			<rect x="120.9" y="319.6" class="st0" width="4.2" height="12.5"/>
			<rect x="126.9" y="319.6" class="st0" width="4.2" height="12.5"/>
			<rect x="132.9" y="319.6" class="st0" width="4.2" height="12.5"/>
			<rect x="138.9" y="319.6" class="st0" width="4.2" height="12.5"/>
			<rect x="144.9" y="319.6" class="st0" width="4.2" height="12.5"/>
			<rect x="150.9" y="319.6" class="st0" width="4.2" height="12.5"/>
			<rect x="157" y="319.6" class="st0" width="4.2" height="12.5"/>
			<rect x="163" y="319.6" class="st0" width="4.2" height="12.5"/>
		</g>
		<g>
			<rect x="92.2" y="348.9" class="st2" width="75.6" height="21.3"/>
			<rect x="94.3" y="351.6" class="st0" width="4.2" height="16.3"/>
			<path class="st1" d="M103.5,355.1c0,0.7-0.6,1.3-1.3,1.3c-0.7,0-1.3-0.6-1.3-1.3c0-0.7,0.6-1.3,1.3-1.3
				C102.9,353.7,103.5,354.3,103.5,355.1z"/>
			<circle class="st1" cx="102.1" cy="360.8" r="1.3"/>
			<rect x="108.9" y="353.7" class="st0" width="4.2" height="12.5"/>
			<rect x="114.9" y="353.7" class="st0" width="4.2" height="12.5"/>
			<rect x="120.9" y="353.7" class="st0" width="4.2" height="12.5"/>
			<rect x="126.9" y="353.7" class="st0" width="4.2" height="12.5"/>
			<rect x="132.9" y="353.7" class="st0" width="4.2" height="12.5"/>
			<rect x="138.9" y="353.7" class="st0" width="4.2" height="12.5"/>
			<rect x="144.9" y="353.7" class="st0" width="4.2" height="12.5"/>
			<rect x="150.9" y="353.7" class="st0" width="4.2" height="12.5"/>
			<rect x="157" y="353.7" class="st0" width="4.2" height="12.5"/>
			<rect x="163" y="353.7" class="st0" width="4.2" height="12.5"/>
		</g>
		<g>
			<rect x="92.2" y="383" class="st2" width="75.6" height="21.3"/>
			<rect x="94.3" y="385.7" class="st0" width="4.2" height="16.3"/>
			<path class="st1" d="M103.5,389.2c0,0.7-0.6,1.3-1.3,1.3c-0.7,0-1.3-0.6-1.3-1.3c0-0.7,0.6-1.3,1.3-1.3
				C102.9,387.8,103.5,388.4,103.5,389.2z"/>
			<path class="st1" d="M103.5,394.9c0,0.7-0.6,1.3-1.3,1.3c-0.7,0-1.3-0.6-1.3-1.3s0.6-1.3,1.3-1.3
				C102.9,393.6,103.5,394.2,103.5,394.9z"/>
			<rect x="108.9" y="387.8" class="st0" width="4.2" height="12.5"/>
			<rect x="114.9" y="387.8" class="st0" width="4.2" height="12.5"/>
			<rect x="120.9" y="387.8" class="st0" width="4.2" height="12.5"/>
			<rect x="126.9" y="387.8" class="st0" width="4.2" height="12.5"/>
			<rect x="132.9" y="387.8" class="st0" width="4.2" height="12.5"/>
			<rect x="138.9" y="387.8" class="st0" width="4.2" height="12.5"/>
			<rect x="144.9" y="387.8" class="st0" width="4.2" height="12.5"/>
			<rect x="150.9" y="387.8" class="st0" width="4.2" height="12.5"/>
			<rect x="157" y="387.8" class="st0" width="4.2" height="12.5"/>
			<rect x="163" y="387.8" class="st0" width="4.2" height="12.5"/>
		</g>
		<g>
			<rect x="92.2" y="417.1" class="st2" width="75.6" height="21.3"/>
			<rect x="94.3" y="419.8" class="st0" width="4.2" height="16.3"/>
			<path class="st1" d="M103.5,423.3c0,0.7-0.6,1.3-1.3,1.3c-0.7,0-1.3-0.6-1.3-1.3c0-0.7,0.6-1.3,1.3-1.3
				C102.9,421.9,103.5,422.5,103.5,423.3z"/>
			<circle class="st1" cx="102.1" cy="429" r="1.3"/>
			<rect x="108.9" y="421.9" class="st0" width="4.2" height="12.5"/>
			<rect x="114.9" y="421.9" class="st0" width="4.2" height="12.5"/>
			<rect x="120.9" y="421.9" class="st0" width="4.2" height="12.5"/>
			<rect x="126.9" y="421.9" class="st0" width="4.2" height="12.5"/>
			<rect x="132.9" y="421.9" class="st0" width="4.2" height="12.5"/>
			<rect x="138.9" y="421.9" class="st0" width="4.2" height="12.5"/>
			<rect x="144.9" y="421.9" class="st0" width="4.2" height="12.5"/>
			<rect x="150.9" y="421.9" class="st0" width="4.2" height="12.5"/>
			<rect x="157" y="421.9" class="st0" width="4.2" height="12.5"/>
			<rect x="163" y="421.9" class="st0" width="4.2" height="12.5"/>
		</g>
		<g>
			<path class="st2" d="M138.9,212.5c0,0,0-0.2-0.1-0.7c0-0.4-0.1-1.1-0.1-1.9c0-0.8,0-1.8-0.1-3c-0.1-1.2-0.1-2.5-0.5-3.9
				c-0.4-1.4-1-2.9-2-4.2c-1-1.4-2.4-2.6-4.1-3.3c-1.8-0.7-3.8-1-5.9-1.2c-2.1-0.2-4.3-0.4-6.5-0.6c-8.9-0.8-17-1.3-22.9-1.4
				c-2.9-0.1-5.3-0.1-6.9,0c-0.8,0-1.4,0-1.9,0c-0.4,0-0.7,0-0.7,0c0,0,0.2,0,0.7-0.1c0.5,0,1.1-0.1,1.9-0.1c1.6-0.1,4-0.1,7-0.1
				c5.9,0,14,0.5,22.9,1.2c2.2,0.2,4.4,0.4,6.5,0.6c2.1,0.2,4.2,0.5,6,1.3c1.8,0.8,3.3,2.1,4.3,3.5c1,1.4,1.6,3,2,4.4
				c0.4,1.5,0.4,2.8,0.5,4c0,1.2,0,2.2,0,3c0,0.8,0,1.4,0,1.9C138.9,212.3,138.9,212.5,138.9,212.5z"/>
		</g>
		<g>
			<path class="st2" d="M116,212.5c0,0,0-0.2-0.1-0.6c0-0.5,0-1.1,0-1.8c0-0.8,0-1.7-0.1-2.8c-0.1-1.1-0.3-2.3-0.9-3.5
				c-0.7-1.2-1.9-2-3.4-2.6c-1.5-0.6-3.2-0.8-5-0.5c-0.9,0.2-1.8,0.4-2.6,0.9c-0.8,0.4-1.6,1.1-2,1.9c-0.5,0.8-0.5,1.8,0,2.6
				c0.5,0.8,1.3,1.5,2.2,1.7c0.9,0.2,1.9-0.1,2.6-0.8c0.7-0.7,1.1-1.6,1.2-2.5c0.1-0.9-0.3-1.8-0.8-2.6c-0.5-0.7-1.2-1.4-2-1.8
				c-0.8-0.4-1.6-0.5-2.5-0.6c-0.9-0.1-1.7-0.2-2.5-0.3c-1.6-0.2-3.1-0.3-4.5-0.3c-2.8-0.1-5-0.1-6.5-0.1c-0.7,0-1.3,0-1.8,0
				c-0.4,0-0.6,0-0.6,0c0,0,0.2,0,0.6-0.1c0.5,0,1.1-0.1,1.8-0.1c1.5-0.1,3.8-0.2,6.6-0.1c1.4,0,2.9,0.1,4.5,0.3
				c0.8,0.1,1.6,0.2,2.5,0.3c0.4,0.1,0.9,0.1,1.3,0.2c0.5,0.1,0.9,0.2,1.3,0.5c0.9,0.4,1.6,1.1,2.2,1.9c0.6,0.8,1,1.8,0.9,2.9
				c-0.1,1.1-0.5,2.1-1.3,2.9c-0.8,0.8-2,1.2-3.1,0.9c-1.1-0.3-2.1-1-2.6-2c-0.6-1-0.5-2.2,0-3.2c0.5-0.9,1.3-1.6,2.2-2.1
				c0.9-0.5,1.8-0.8,2.7-0.9c1.9-0.3,3.7,0,5.2,0.6c1.5,0.6,2.9,1.6,3.6,2.8c0.7,1.3,0.8,2.6,0.9,3.7c0.1,1.1,0,2.1,0,2.8
				c0,0.7-0.1,1.3-0.1,1.8C116,212.3,116,212.5,116,212.5z"/>
		</g>
		<g>
			<path class="st2" d="M145.1,212.5c0,0-0.1-0.2-0.2-0.7c-0.1-0.5-0.2-1.1-0.4-2c-0.4-1.7-1-4.3-2.2-7.2c-1.2-2.9-3.2-6.3-6.6-8.8
				c-1.6-1.3-3.8-2-6-2.3c-2.3-0.3-4.6-0.3-7.1-0.4c-9.8-0.2-18.6-0.1-25-0.4c-3.2-0.1-5.8-0.3-7.6-0.4c-0.8-0.1-1.5-0.1-2.1-0.2
				c-0.5,0-0.7-0.1-0.7-0.1c0,0,0.2,0,0.7,0c0.5,0,1.2,0,2.1,0.1c1.8,0.1,4.4,0.2,7.6,0.2c6.4,0.2,15.3,0.1,25,0.2
				c2.4,0.1,4.8,0.1,7.2,0.4c2.3,0.3,4.5,1.1,6.2,2.4c1.7,1.3,3.1,2.8,4.2,4.4c1.1,1.6,1.9,3.2,2.5,4.7c1.2,3,1.8,5.6,2.1,7.3
				c0.2,0.9,0.3,1.6,0.3,2C145.1,212.3,145.1,212.5,145.1,212.5z"/>
		</g>
		<rect x="93.2" y="172.2" class="st2" width="73.5" height="10.7"/>
		<rect x="109.4" y="177.6" class="st0" width="40" height="5.3"/>
	</g>
	<g>
		<g>
			<g>
				<path class="st0" d="M321.7,156.8l48.6-7.4c4.1,26.7-14.5,52-41.2,56.1c-26.7,4.1-52-14.5-56.1-41.2
					c-4.1-26.7,14.5-52,41.2-56.1c4.2-0.6,8.6-0.7,12.8-0.3L321.7,156.8z"/>
			</g>
		</g>
		<g>
			<g>
				<path class="st2" d="M337.5,108.1l-5.9,37.7l37-6.9C368.6,138.8,363.1,117.7,337.5,108.1z"/>
			</g>
		</g>
	</g>
	<g>
		<g>
			<path class="st0" d="M14.9,146C14.7,131.4,26.4,119.2,41,119c14.6-0.2,26.7,11.5,26.9,26.2c0.2,14.7-11.5,26.8-26.1,27.1
				C27.2,172.5,15.1,160.7,14.9,146z M54.1,145.4c-0.1-7-5.9-12.6-12.9-12.5c-7,0.1-12.6,5.9-12.5,12.9c0.1,7,5.9,12.6,12.9,12.5
				C48.6,158.2,54.2,152.4,54.1,145.4z"/>
		</g>
		<g>
			<path class="st2" d="M14.9,146C14.7,131.4,26.4,119.2,41,119l0.2,13.9c-7,0.1-12.6,5.9-12.5,12.9c0.1,7,5.9,12.6,12.9,12.5
				l0.2,13.9C27.2,172.5,15.1,160.7,14.9,146z"/>
		</g>
		<g>
			<path class="st3" d="M38.6,116.9c17.1-0.3,30.7,13,31,30.2l-16.2,0.3c-0.1-8.2-6.4-13.4-14.6-13.2L38.6,116.9z"/>
		</g>
	</g>
	<g>
		<g>
			<path class="st0" d="M446.4,400.2c-0.2-14.7,11.5-26.8,26.1-27.1c14.6-0.2,26.7,11.5,26.9,26.2c0.2,14.7-11.5,26.8-26.1,27.1
				C458.7,426.7,446.7,414.9,446.4,400.2z M485.6,399.6c-0.1-7-5.9-12.6-12.9-12.5c-7,0.1-12.6,5.9-12.5,12.9
				c0.1,7,5.9,12.6,12.9,12.5C480.1,412.4,485.7,406.6,485.6,399.6z"/>
		</g>
		<g>
			<path class="st2" d="M446.4,400.2c-0.2-14.7,11.5-26.8,26.1-27.1l0.2,13.9c-7,0.1-12.6,5.9-12.5,12.9c0.1,7,5.9,12.6,12.9,12.5
				l0.2,13.9C458.7,426.7,446.7,414.9,446.4,400.2z"/>
		</g>
		<g>
			<path class="st3" d="M470.1,371c17.1-0.3,30.7,13,31,30.2l-16.2,0.3c-0.1-8.2-6.4-13.4-14.6-13.2L470.1,371z"/>
		</g>
	</g>
	<g>
		<g>
			<g>
				<g>
					<rect x="423.8" y="138.5" class="st4" width="110.3" height="125.9"/>
				</g>
			</g>
			<g>
				<g>
					<g>
						<path class="st5" d="M534.1,264.3c0,0,0-0.2,0-0.6c0-0.4,0-1,0-1.7c0-1.5,0-3.8,0-6.8c0-5.9,0-14.6,0-25.7
							c0-22.1-0.1-53.5-0.1-91l0.2,0.2c-32.5,0-70.2,0-110.3,0h0l0.2-0.2c0,46.4,0,89.7,0,125.9l-0.2-0.2c33.2,0,60.7,0.1,80,0.1
							c9.6,0,17.2,0,22.4,0c2.6,0,4.6,0,5.9,0C533.4,264.3,534.1,264.3,534.1,264.3s-0.7,0-2,0c-1.3,0-3.3,0-5.9,0
							c-5.2,0-12.7,0-22.3,0c-19.3,0-46.9,0.1-80.1,0.1l-0.2,0v-0.2c0-36.2,0-79.5,0-125.9l0-0.2h0.2h0c40.1,0,77.8,0,110.3,0h0.2
							l0,0.2c0,37.6-0.1,69.1-0.1,91.2c0,11,0,19.7,0,25.6c0,3,0,5.2,0,6.8c0,0.8,0,1.3,0,1.7C534.1,264.1,534.1,264.3,534.1,264.3z
							"/>
					</g>
				</g>
			</g>
		</g>
		<g>
			<g>
				<g>
					<g>
						<path class="st6" d="M524.6,202.7c0,0.1-1.2-0.6-3.5-1.3c-2.3-0.7-5.9-1.4-10.2-0.8c-2.1,0.3-4.4,1-6.7,2.2
							c-2.3,1.1-4.4,2.8-6.6,4.7c-2.2,1.9-4.3,4.1-6.8,6.1c-2.5,2-5.3,3.8-8.7,4.7c-1.7,0.4-3.4,0.5-5.1,0.3
							c-1.7-0.2-3.2-0.8-4.7-1.4c-2.9-1.4-5.4-3.2-7.8-4.7c-2.4-1.5-4.9-2.7-7.4-3.3c-2.5-0.6-4.9-0.7-7-0.5
							c-4.3,0.4-7.6,1.9-9.7,3.2c-2.1,1.3-3.1,2.2-3.1,2.2c0,0,0.2-0.3,0.7-0.7c0.5-0.4,1.2-1,2.3-1.7c2-1.3,5.4-3,9.8-3.4
							c2.2-0.2,4.7-0.1,7.2,0.5c2.6,0.6,5.1,1.8,7.6,3.3c2.5,1.5,5,3.3,7.8,4.6c2.8,1.3,6.1,1.9,9.2,1.1c3.2-0.8,5.9-2.6,8.4-4.5
							c2.4-2,4.6-4.1,6.8-6c2.2-1.9,4.4-3.6,6.8-4.8c2.3-1.2,4.7-1.8,6.9-2.1c4.4-0.6,8,0.2,10.3,1c1.2,0.4,2,0.8,2.6,1.1
							C524.4,202.5,524.7,202.7,524.6,202.7z"/>
					</g>
				</g>
			</g>
			<g>
				<g>
					<g>
						<rect x="454.2" y="219.6" class="st6" width="9.4" height="25.4"/>
					</g>
				</g>
				<g>
					<g>
						<rect x="494" y="219.6" class="st6" width="9.4" height="25.4"/>
					</g>
				</g>
				<g>
					<g>
						<rect x="507.2" y="204.7" class="st6" width="9.4" height="40.2"/>
					</g>
				</g>
				<g>
					<g>
						<rect x="442.1" y="237" class="st6" width="9.4" height="8.5"/>
					</g>
				</g>
				<g>
					<g>
						<rect x="467.5" y="231.1" class="st6" width="9.4" height="13.9"/>
					</g>
				</g>
				<g>
					<g>
						<rect x="480.7" y="227.9" class="st6" width="9.4" height="17.1"/>
					</g>
				</g>
			</g>
			<g>
				<g>
					<g>
						<g>
							<path class="st5" d="M463.9,248c0,0.2-2.3,0.4-5.1,0.4c-2.8,0-5.1-0.2-5.1-0.4c0-0.2,2.3-0.4,5.1-0.4
								C461.7,247.6,463.9,247.8,463.9,248z"/>
						</g>
					</g>
				</g>
				<g>
					<g>
						<g>
							<path class="st5" d="M452.3,248c0,0.2-2.3,0.4-5.1,0.4c-2.8,0-5.1-0.2-5.1-0.4c0-0.2,2.3-0.4,5.1-0.4
								C450,247.6,452.3,247.8,452.3,248z"/>
						</g>
					</g>
				</g>
				<g>
					<g>
						<g>
							<path class="st5" d="M518.5,248c0,0.2-2.6,0.4-5.7,0.4c-3.2,0-5.7-0.2-5.7-0.4c0-0.2,2.6-0.4,5.7-0.4
								C515.9,247.6,518.5,247.8,518.5,248z"/>
						</g>
					</g>
				</g>
				<g>
					<g>
						<g>
							<path class="st5" d="M504.5,248c0,0.2-2.6,0.4-5.7,0.4c-3.2,0-5.7-0.2-5.7-0.4c0-0.2,2.6-0.4,5.7-0.4
								C502,247.6,504.5,247.8,504.5,248z"/>
						</g>
					</g>
				</g>
				<g>
					<g>
						<g>
							<path class="st5" d="M490.1,248c0,0.2-2.3,0.4-5.1,0.4c-2.8,0-5.1-0.2-5.1-0.4c0-0.2,2.3-0.4,5.1-0.4
								C487.8,247.6,490.1,247.8,490.1,248z"/>
						</g>
					</g>
				</g>
				<g>
					<g>
						<g>
							<path class="st5" d="M476.4,248c0,0.2-2.3,0.4-5.1,0.4c-2.8,0-5.1-0.2-5.1-0.4c0-0.2,2.3-0.4,5.1-0.4
								C474.1,247.6,476.4,247.8,476.4,248z"/>
						</g>
					</g>
				</g>
			</g>
		</g>
		<g>
			<g>
				<g>
					<rect x="441.8" y="156.8" class="st2" width="76.6" height="31.8"/>
				</g>
			</g>
			<g>
				<g>
					<g>
						<path class="st5" d="M457.8,166.9c0,2-1.6,3.6-3.6,3.6c-2,0-3.6-1.6-3.6-3.6c0-2,1.6-3.6,3.6-3.6
							C456.2,163.3,457.8,164.9,457.8,166.9z"/>
					</g>
				</g>
				<g>
					<g>
						<rect x="461.3" y="164.4" class="st5" width="24.9" height="1.4"/>
					</g>
				</g>
				<g>
					<g>
						<rect x="461.3" y="167.5" class="st4" width="48.4" height="1.4"/>
					</g>
				</g>
			</g>
			<g>
				<g>
					<g>
						<path class="st6" d="M457.8,177.9c0,2-1.6,3.6-3.6,3.6c-2,0-3.6-1.6-3.6-3.6c0-2,1.6-3.6,3.6-3.6
							C456.2,174.3,457.8,175.9,457.8,177.9z"/>
					</g>
				</g>
				<g>
					<g>
						<rect x="461.3" y="175.4" class="st6" width="12.7" height="1.4"/>
					</g>
				</g>
				<g>
					<g>
						<rect x="461.3" y="178.5" class="st4" width="48.4" height="1.4"/>
					</g>
				</g>
			</g>
		</g>
	</g>
	<g>
		<g>
			<g>
				<g>
					<g>
						<g>
							
								<rect x="470" y="309.8" transform="matrix(8.590376e-03 -1 1 8.590376e-03 168.9792 856.2242)" class="st4" width="92.7" height="66.2"/>
							<g>
								<path class="st5" d="M482.8,388.9c0,0,0-0.1,0-0.4c0-0.3,0-0.7,0-1.3c0-1.1,0-2.8,0-5c0-4.4,0.1-10.9,0.1-19
									c0.1-16.3,0.3-39.5,0.5-66.9l0-0.2l0.2,0c20,0.2,42.5,0.4,66.2,0.5l0,0l0.2,0l0,0.2c-0.3,34.7-0.6,66.8-0.8,92.7l0,0.2
									l-0.2,0c-20.1-0.2-36.7-0.4-48.2-0.5c-5.7-0.1-10.2-0.1-13.3-0.2c-1.5,0-2.7,0-3.5,0C483.2,389,482.8,388.9,482.8,388.9
									s0.4,0,1.2,0c0.8,0,2,0,3.5,0c3.1,0,7.6,0,13.3,0.1c11.5,0.1,28,0.2,48.1,0.3l-0.2,0.2c0.2-25.9,0.5-58,0.8-92.7l0.2,0.2
									l0,0c-23.7-0.2-46.2-0.4-66.2-0.6l0.2-0.2c-0.3,27.4-0.5,50.5-0.7,66.8c-0.1,8.2-0.2,14.6-0.2,19c0,2.2-0.1,3.9-0.1,5.1
									c0,0.6,0,1,0,1.3C482.8,388.8,482.8,388.9,482.8,388.9z"/>
							</g>
						</g>
					</g>
				</g>
			</g>
			<g>
				<g>
					<g>
						<path class="st5" d="M492,318.8c0-0.2,11-0.3,24.5-0.2c13.5,0.1,24.5,0.4,24.5,0.6c0,0.2-11,0.3-24.5,0.2
							C503,319.3,492,319.1,492,318.8z"/>
					</g>
				</g>
			</g>
			<g>
				<g>
					<g>
						<path class="st5" d="M492,325.4c0-0.2,11-0.3,24.5-0.2c13.5,0.1,24.5,0.4,24.5,0.6c0,0.2-11,0.3-24.5,0.2
							C502.9,325.9,492,325.6,492,325.4z"/>
					</g>
				</g>
			</g>
			<g>
				<g>
					<g>
						<path class="st5" d="M491.9,331.9c0-0.2,11-0.3,24.5-0.2c13.5,0.1,24.5,0.4,24.5,0.6c0,0.2-11,0.3-24.5,0.2
							C502.9,332.4,491.9,332.2,491.9,331.9z"/>
					</g>
				</g>
			</g>
			<g>
				<g>
					<g>
						<path class="st5" d="M491.9,338.5c0-0.2,11-0.3,24.5-0.2c13.5,0.1,24.5,0.4,24.5,0.6c0,0.2-11,0.3-24.5,0.2
							C502.8,339,491.9,338.7,491.9,338.5z"/>
					</g>
				</g>
			</g>
			<g>
				<g>
					<g>
						<path class="st5" d="M491.8,345c0-0.2,11-0.3,24.5-0.2c13.5,0.1,24.5,0.4,24.5,0.6c0,0.2-11,0.3-24.5,0.2
							C502.8,345.5,491.8,345.2,491.8,345z"/>
					</g>
				</g>
			</g>
		</g>
		<g>
			<rect x="501.5" y="352.6" class="st7" width="7.9" height="24.6"/>
			<rect x="513.2" y="358.2" class="st7" width="7.9" height="19"/>
			<rect x="524.1" y="366" class="st7" width="7.9" height="11.3"/>
		</g>
	</g>
	<g>
		<path class="st5" d="M424.7,280.4c0,0,0.1,0,0.3,0c0.2,0,0.5,0,0.8,0c0.8,0,1.8,0,3.2,0c2.8,0,6.8,0,11.8-0.1
			c10,0,23.7,0,38.9-0.1c13.3,0,25.4,0,34.8,0l0.2,0l0,0.2c0,5-0.1,9-0.1,11.9c0,1.4,0,2.5-0.1,3.2c0,0.4,0,0.6,0,0.8
			c0,0.2,0,0.3,0,0.3c0,0,0-0.1,0-0.3c0-0.2,0-0.5,0-0.8c0-0.8,0-1.9-0.1-3.2c0-2.8-0.1-6.9-0.1-11.9l0.2,0.2c-9.4,0-21.5,0-34.8,0
			c-15.2,0-28.9,0-38.9-0.1c-5,0-9-0.1-11.8-0.1c-1.4,0-2.4,0-3.2,0c-0.3,0-0.6,0-0.8,0C424.8,280.4,424.7,280.4,424.7,280.4z"/>
	</g>
	<g>
		<path class="st5" d="M423.6,159.7c0,0-0.2,0-0.5,0c-0.4,0-0.9,0-1.5,0c-1.3,0-3.2,0-5.5,0.1c-4.7,0-11.1,0-18.4,0.1l0.2-0.2
			c0,1.4,0,2.8,0,4.3c0.1,8.3,0.1,15.9,0,21.3c0,2.7-0.1,4.9-0.1,6.5c0,0.8-0.1,1.4-0.1,1.8c0,0.4-0.1,0.6-0.1,0.6c0,0,0-3.4,0-8.8
			c0-5.5-0.1-13-0.2-21.3c0-1.5,0-2.9,0-4.3l0-0.2l0.2,0c7.3,0,13.7,0.1,18.4,0.1c2.3,0,4.1,0,5.5,0.1c0.6,0,1.1,0,1.5,0
			C423.5,159.6,423.6,159.6,423.6,159.7z"/>
	</g>
	<path class="st5" d="M425.7,159.7c0,1.2-0.9,2.1-2.1,2.1c-1.2,0-2.1-0.9-2.1-2.1c0-1.2,0.9-2.1,2.1-2.1
		C424.8,157.6,425.7,158.5,425.7,159.7z"/>
	<path class="st5" d="M516.6,296.7c0,1.2-0.9,2.1-2.1,2.1c-1.2,0-2.1-0.9-2.1-2.1c0-1.2,0.9-2.1,2.1-2.1
		C515.7,294.6,516.6,295.5,516.6,296.7z"/>
	<g>
		<g>
			<g>
				<g>
					<g>
						<g>
							<g>
								<g>
									<g>
										<g>
											<path class="st7" d="M421,192.1H138.3c-4.9,0-8.8,4-8.8,8.8v199.7c0,4.9,4,8.8,8.8,8.8h108.5c0,0,6.9,21.3-14.5,32.4
												h101.5c0,0-24.2-8.3-17.9-32.4H421c4.9,0,8.8-4,8.8-8.8V200.9C429.8,196.1,425.9,192.1,421,192.1z"/>
										</g>
									</g>
								</g>
							</g>
							<g>
								<g>
									<g>
										<g>
											<path class="st5" d="M283.4,388.4c3.8,5.5-2.2,11.5-7.7,7.7c-0.2-0.1-0.3-0.3-0.5-0.5c-3.8-5.5,2.2-11.5,7.7-7.7
												C283.1,388.1,283.3,388.2,283.4,388.4z"/>
										</g>
									</g>
								</g>
							</g>
						</g>
						<g>
							<g>
								<path class="st4" d="M425,372.9H134.3V205.5c0-5.4,4.3-9.7,9.7-9.7h271.2c5.4,0,9.7,4.3,9.7,9.7V372.9z"/>
							</g>
						</g>
					</g>
					<g>
						<path class="st3" d="M425,210.5H134.3v-5.6c0-5.1,4.1-9.2,9.2-9.2h273.9c4.2,0,7.5,3.4,7.5,7.5V210.5z"/>
					</g>
					<g>
						<g>
							<path class="st2" d="M145.6,203.4c0,1.1-0.9,2-2,2c-1.1,0-2-0.9-2-2s0.9-2,2-2C144.7,201.4,145.6,202.3,145.6,203.4z"/>
						</g>
						<g>
							<path class="st2" d="M151.7,203.4c0,1.1-0.9,2-2,2c-1.1,0-2-0.9-2-2s0.9-2,2-2C150.8,201.4,151.7,202.3,151.7,203.4z"/>
						</g>
						<g>
							<path class="st2" d="M157.5,203.4c0,1.1-0.9,2-2,2c-1.1,0-2-0.9-2-2s0.9-2,2-2C156.6,201.4,157.5,202.3,157.5,203.4z"/>
						</g>
					</g>
				</g>
				<g>
					<g>
						<path class="st5" d="M370.5,409.5c0,0.1-40.2,0.2-89.8,0.2c-49.6,0-89.9-0.1-89.9-0.2c0-0.1,40.2-0.2,89.9-0.2
							C330.2,409.3,370.5,409.4,370.5,409.5z"/>
					</g>
				</g>
			</g>
		</g>
		<g>
			<polygon class="st0" points="228,310.8 146.9,311 147.1,366.7 214.3,366.5 223.4,366.5 228.1,366.5 			"/>
			<g>
				<g>
					<g>
						<path class="st5" d="M153.2,360.7c-0.1,0-0.2-9.4-0.2-21.1c0-11.6,0-21.1,0.1-21.1c0.1,0,0.2,9.4,0.2,21.1
							C153.3,351.3,153.3,360.7,153.2,360.7z"/>
					</g>
				</g>
				<g>
					<g>
						<path class="st3" d="M223.5,354.7c0,0.1-15.8,0.2-35.3,0.3c-19.5,0.1-35.3,0-35.3-0.1c0-0.1,15.8-0.2,35.3-0.3
							C207.7,354.6,223.5,354.6,223.5,354.7z"/>
					</g>
				</g>
				<g>
					<g>
						<path class="st3" d="M223.5,348.5c0,0.1-15.8,0.2-35.3,0.3c-19.5,0.1-35.3,0-35.3-0.1c0-0.1,15.8-0.2,35.3-0.3
							C207.7,348.4,223.5,348.4,223.5,348.5z"/>
					</g>
				</g>
				<g>
					<g>
						<path class="st3" d="M223.4,342.3c0,0.1-15.8,0.2-35.3,0.3c-19.5,0.1-35.3,0-35.3-0.1c0-0.1,15.8-0.2,35.3-0.3
							C207.6,342.2,223.4,342.2,223.4,342.3z"/>
					</g>
				</g>
				<g>
					<g>
						<path class="st3" d="M223.4,336.2c0,0.1-15.8,0.2-35.3,0.3c-19.5,0.1-35.3,0-35.3-0.1c0-0.1,15.8-0.2,35.3-0.3
							C207.6,336,223.4,336.1,223.4,336.2z"/>
					</g>
				</g>
				<g>
					<g>
						<path class="st3" d="M223.4,330c0,0.1-15.8,0.2-35.3,0.3c-19.5,0.1-35.3,0-35.3-0.1c0-0.1,15.8-0.2,35.3-0.3
							C207.6,329.8,223.4,329.9,223.4,330z"/>
					</g>
				</g>
				<g>
					<g>
						<path class="st3" d="M223.4,323.8c0,0.1-15.8,0.2-35.3,0.3c-19.5,0.1-35.3,0-35.3-0.1c0-0.1,15.8-0.2,35.3-0.3
							C207.6,323.7,223.4,323.7,223.4,323.8z"/>
					</g>
				</g>
				<g>
					<g>
						<path class="st3" d="M223.4,317.6c0,0.1-15.8,0.2-35.3,0.3c-19.5,0.1-35.3,0-35.3-0.1c0-0.1,15.8-0.2,35.3-0.3
							C207.6,317.5,223.4,317.5,223.4,317.6z"/>
					</g>
				</g>
				<g>
					
						<rect x="157.7" y="351.1" transform="matrix(1 -2.878912e-03 2.878912e-03 1 -1.0239 0.4626)" class="st6" width="5.1" height="9.6"/>
				</g>
				<g>
					
						<rect x="194.4" y="351" transform="matrix(1 -2.862737e-03 2.862737e-03 1 -1.0177 0.5653)" class="st6" width="5.1" height="9.6"/>
				</g>
				<g>
					
						<rect x="167.6" y="343.9" transform="matrix(1 -2.895042e-03 2.895042e-03 1 -1.0192 0.4939)" class="st6" width="5.1" height="16.7"/>
				</g>
				<g>
					
						<rect x="186.1" y="339.5" transform="matrix(1 -2.878912e-03 2.878912e-03 1 -1.0071 0.5446)" class="st6" width="5.1" height="21.1"/>
				</g>
				<g>
					
						<rect x="176.9" y="326.8" transform="matrix(1 -2.894996e-03 2.894996e-03 1 -0.9943 0.521)" class="st6" width="5.1" height="33.9"/>
				</g>
				<g>
					
						<rect x="204.2" y="332.9" transform="matrix(1 -2.878866e-03 2.878866e-03 1 -0.9974 0.5966)" class="st6" width="5.1" height="27.6"/>
				</g>
				<g>
					<g>
						<path class="st5" d="M215.3,360.5c0,0.1-13.9,0.2-31,0.3c-17.1,0-31,0-31-0.1c0-0.1,13.9-0.2,31-0.3
							C201.5,360.4,215.3,360.4,215.3,360.5z"/>
					</g>
				</g>
			</g>
		</g>
		<g>
			<polygon class="st0" points="146.2,223.7 146.2,305.4 277.4,305.4 288.9,305.4 323,305.4 323,223.7 			"/>
			<g>
				<g>
					<g>
						<g>
							<g>
								<g>
									<g>
										<g>
											<path class="st5" d="M158.6,280.1v2.6h-0.3v-2.3h-0.6v-0.2H158.6z"/>
										</g>
									</g>
								</g>
								<g>
									<g>
										<g>
											<path class="st5" d="M159.2,281.4c0-0.8,0.4-1.3,1-1.3c0.6,0,1,0.5,1,1.3c0,0.8-0.4,1.3-1,1.3
												C159.7,282.7,159.2,282.2,159.2,281.4z M161,281.4c0-0.7-0.3-1.1-0.8-1.1c-0.4,0-0.8,0.4-0.8,1.1c0,0.7,0.3,1.1,0.8,1.1
												C160.7,282.5,161,282.1,161,281.4z"/>
										</g>
									</g>
								</g>
							</g>
						</g>
						<g>
							<g>
								<g>
									<g>
										<g>
											<path class="st5" d="M159.7,266.4v0.2h-1.8v-0.2l1.1-1.1c0.3-0.3,0.3-0.5,0.3-0.6c0-0.3-0.2-0.5-0.6-0.5
												c-0.3,0-0.5,0.1-0.7,0.3l-0.2-0.2c0.2-0.2,0.5-0.4,0.9-0.4c0.5,0,0.9,0.3,0.9,0.7c0,0.2-0.1,0.5-0.4,0.8l-0.9,0.9H159.7z
												"/>
										</g>
									</g>
								</g>
								<g>
									<g>
										<g>
											<path class="st5" d="M160,265.4c0-0.8,0.4-1.3,1-1.3c0.6,0,1,0.5,1,1.3c0,0.8-0.4,1.3-1,1.3
												C160.4,266.7,160,266.2,160,265.4z M161.8,265.4c0-0.7-0.3-1.1-0.8-1.1c-0.4,0-0.8,0.4-0.8,1.1c0,0.7,0.3,1.1,0.8,1.1
												C161.5,266.4,161.8,266,161.8,265.4z"/>
										</g>
									</g>
								</g>
							</g>
						</g>
						<g>
							<g>
								<g>
									<g>
										<g>
											<path class="st5" d="M159.6,249.9c0,0.4-0.3,0.8-0.9,0.8c-0.4,0-0.7-0.1-0.9-0.3l0.1-0.2c0.2,0.2,0.5,0.3,0.8,0.3
												c0.4,0,0.7-0.2,0.7-0.5c0-0.3-0.2-0.5-0.7-0.5h-0.2v-0.2l0.7-0.9h-1.3V248h1.7v0.2l-0.7,0.9
												C159.3,249.2,159.6,249.5,159.6,249.9z"/>
										</g>
									</g>
								</g>
								<g>
									<g>
										<g>
											<path class="st5" d="M160,249.3c0-0.8,0.4-1.3,1-1.3c0.6,0,1,0.5,1,1.3c0,0.8-0.4,1.3-1,1.3
												C160.4,250.6,160,250.1,160,249.3z M161.8,249.3c0-0.7-0.3-1.1-0.8-1.1c-0.4,0-0.8,0.4-0.8,1.1c0,0.7,0.3,1.1,0.8,1.1
												C161.5,250.4,161.8,250,161.8,249.3z"/>
										</g>
									</g>
								</g>
							</g>
						</g>
					</g>
					<g>
						<g>
							<g>
								<g>
									<g>
										<g>
											<path class="st5" d="M170,289.9c0-0.8,0.4-1.3,1-1.3c0.6,0,1,0.5,1,1.3c0,0.8-0.4,1.3-1,1.3
												C170.4,291.2,170,290.7,170,289.9z M171.8,289.9c0-0.7-0.3-1.1-0.8-1.1c-0.4,0-0.8,0.4-0.8,1.1c0,0.7,0.3,1.1,0.8,1.1
												C171.5,290.9,171.8,290.6,171.8,289.9z"/>
										</g>
									</g>
								</g>
							</g>
						</g>
						<g>
							<g>
								<g>
									<g>
										<g>
											<path class="st5" d="M189.1,288.6v2.6h-0.3v-2.3h-0.6v-0.2H189.1z"/>
										</g>
									</g>
								</g>
							</g>
						</g>
						<g>
							<g>
								<g>
									<g>
										<g>
											<path class="st5" d="M209.2,290.9v0.2h-1.8V291l1.1-1.1c0.3-0.3,0.3-0.5,0.3-0.6c0-0.3-0.2-0.5-0.6-0.5
												c-0.3,0-0.5,0.1-0.7,0.3l-0.2-0.2c0.2-0.2,0.5-0.4,0.9-0.4c0.5,0,0.9,0.3,0.9,0.7c0,0.2-0.1,0.5-0.4,0.8l-0.9,0.9H209.2z
												"/>
										</g>
									</g>
								</g>
							</g>
						</g>
						<g>
							<g>
								<g>
									<g>
										<g>
											<path class="st5" d="M228.3,290.4c0,0.4-0.3,0.8-0.9,0.8c-0.4,0-0.7-0.1-0.9-0.3l0.1-0.2c0.2,0.2,0.5,0.3,0.8,0.3
												c0.4,0,0.7-0.2,0.7-0.5c0-0.3-0.2-0.5-0.7-0.5h-0.2v-0.2l0.7-0.9h-1.3v-0.2h1.7v0.2l-0.7,0.9
												C228,289.7,228.3,290,228.3,290.4z"/>
										</g>
									</g>
								</g>
							</g>
						</g>
						<g>
							<g>
								<g>
									<g>
										<g>
											<path class="st5" d="M247.8,290.5h-0.5v0.7h-0.3v-0.7h-1.5v-0.2l1.4-1.7h0.3l-1.3,1.7h1.1v-0.6h0.3v0.6h0.5V290.5z"/>
										</g>
									</g>
								</g>
							</g>
						</g>
						<g>
							<g>
								<g>
									<g>
										<g>
											<path class="st5" d="M266.5,290.4c0,0.4-0.3,0.8-0.9,0.8c-0.4,0-0.7-0.1-0.9-0.3l0.1-0.2c0.2,0.2,0.5,0.3,0.8,0.3
												c0.4,0,0.7-0.2,0.7-0.5c0-0.3-0.2-0.5-0.9-0.5h-0.5l0.1-1.3h1.4v0.2h-1.2l-0.1,0.8h0.3
												C266.2,289.6,266.5,289.9,266.5,290.4z"/>
										</g>
									</g>
								</g>
							</g>
						</g>
						<g>
							<g>
								<g>
									<g>
										<g>
											<path class="st5" d="M285.7,290.4c0,0.5-0.4,0.8-0.9,0.8c-0.7,0-1.1-0.5-1.1-1.3c0-0.9,0.5-1.3,1.2-1.3
												c0.2,0,0.4,0,0.6,0.1l-0.1,0.2c-0.1-0.1-0.3-0.1-0.5-0.1c-0.6,0-0.9,0.4-0.9,1.1c0,0.1,0,0.1,0,0.2
												c0.1-0.3,0.4-0.4,0.8-0.4C285.4,289.6,285.7,289.9,285.7,290.4z M285.5,290.4c0-0.3-0.2-0.6-0.6-0.6
												c-0.4,0-0.7,0.2-0.7,0.6c0,0.3,0.2,0.6,0.7,0.6C285.2,291,285.5,290.7,285.5,290.4z"/>
										</g>
									</g>
								</g>
							</g>
						</g>
						<g>
							<g>
								<g>
									<g>
										<g>
											<path class="st5" d="M304.7,288.6v0.2l-1.1,2.4h-0.3l1.1-2.3h-1.3v0.5h-0.3v-0.7H304.7z"/>
										</g>
									</g>
								</g>
							</g>
						</g>
					</g>
					<g>
						<g>
							<g>
								<g>
									<g>
										<g>
											<path class="st5" d="M304.8,281.5c0,0.1-29.9,0.3-66.7,0.3c-36.8,0-66.7-0.1-66.7-0.3c0-0.1,29.9-0.3,66.7-0.3
												C275,281.3,304.8,281.4,304.8,281.5z"/>
										</g>
									</g>
								</g>
							</g>
						</g>
						<g>
							<g>
								<g>
									<g>
										<g>
											<path class="st5" d="M304.8,265.4c0,0.1-29.9,0.3-66.7,0.3c-36.8,0-66.7-0.1-66.7-0.3c0-0.1,29.9-0.3,66.7-0.3
												C275,265.2,304.8,265.3,304.8,265.4z"/>
										</g>
									</g>
								</g>
							</g>
						</g>
						<g>
							<g>
								<g>
									<g>
										<g>
											<path class="st5" d="M304.8,249.3c0,0.1-29.9,0.3-66.7,0.3c-36.8,0-66.7-0.1-66.7-0.3c0-0.1,29.9-0.3,66.7-0.3
												C275,249,304.8,249.1,304.8,249.3z"/>
										</g>
									</g>
								</g>
							</g>
						</g>
						<g>
							<g>
								<g>
									<g>
										<g>
											<path class="st6" d="M171.5,281.3c0,0.5-0.4,0.9-0.9,0.9c-0.5,0-0.9-0.4-0.9-0.9c0-0.5,0.4-0.9,0.9-0.9
												C171.1,280.4,171.5,280.8,171.5,281.3z"/>
										</g>
									</g>
								</g>
							</g>
							<g>
								<g>
									<g>
										<g>
											<path class="st6" d="M190.6,281.3c0,0.5-0.4,0.9-0.9,0.9c-0.5,0-0.9-0.4-0.9-0.9c0-0.5,0.4-0.9,0.9-0.9
												C190.2,280.4,190.6,280.8,190.6,281.3z"/>
										</g>
									</g>
								</g>
							</g>
							<g>
								<g>
									<g>
										<g>
											<path class="st6" d="M209.8,281.3c0,0.5-0.4,0.9-0.9,0.9c-0.5,0-0.9-0.4-0.9-0.9c0-0.5,0.4-0.9,0.9-0.9
												C209.4,280.4,209.8,280.8,209.8,281.3z"/>
										</g>
									</g>
								</g>
							</g>
							<g>
								<g>
									<g>
										<g>
											<path class="st6" d="M229,281.3c0,0.5-0.4,0.9-0.9,0.9c-0.5,0-0.9-0.4-0.9-0.9c0-0.5,0.4-0.9,0.9-0.9
												C228.6,280.4,229,280.8,229,281.3z"/>
										</g>
									</g>
								</g>
							</g>
							<g>
								<g>
									<g>
										<g>
											<path class="st6" d="M248.2,281.3c0,0.5-0.4,0.9-0.9,0.9c-0.5,0-0.9-0.4-0.9-0.9c0-0.5,0.4-0.9,0.9-0.9
												C247.8,280.4,248.2,280.8,248.2,281.3z"/>
										</g>
									</g>
								</g>
							</g>
							<g>
								<g>
									<g>
										<g>
											<path class="st6" d="M286.5,281.3c0,0.5-0.4,0.9-0.9,0.9c-0.5,0-0.9-0.4-0.9-0.9c0-0.5,0.4-0.9,0.9-0.9
												C286.1,280.4,286.5,280.8,286.5,281.3z"/>
										</g>
									</g>
								</g>
							</g>
							<g>
								<g>
									<g>
										<g>
											<path class="st6" d="M267.3,281.3c0,0.5-0.4,0.9-0.9,0.9c-0.5,0-0.9-0.4-0.9-0.9c0-0.5,0.4-0.9,0.9-0.9
												C267,280.4,267.3,280.8,267.3,281.3z"/>
										</g>
									</g>
								</g>
							</g>
							<g>
								<g>
									<g>
										<g>
											<path class="st6" d="M305.7,281.3c0,0.5-0.4,0.9-0.9,0.9c-0.5,0-0.9-0.4-0.9-0.9c0-0.5,0.4-0.9,0.9-0.9
												C305.3,280.4,305.7,280.8,305.7,281.3z"/>
										</g>
									</g>
								</g>
							</g>
						</g>
						<g>
							<g>
								<g>
									<g>
										<g>
											<path class="st2" d="M180.2,281.5c0,0.3-0.3,0.6-0.6,0.6c-0.3,0-0.6-0.3-0.6-0.6c0-0.3,0.3-0.6,0.6-0.6
												C179.9,281,180.2,281.2,180.2,281.5z"/>
										</g>
									</g>
								</g>
							</g>
							<g>
								<g>
									<g>
										<g>
											<path class="st2" d="M199.4,281.5c0,0.3-0.3,0.6-0.6,0.6c-0.3,0-0.6-0.3-0.6-0.6c0-0.3,0.3-0.6,0.6-0.6
												C199.2,281,199.4,281.2,199.4,281.5z"/>
										</g>
									</g>
								</g>
							</g>
							<g>
								<g>
									<g>
										<g>
											<path class="st2" d="M218.7,281.5c0,0.3-0.3,0.6-0.6,0.6s-0.6-0.3-0.6-0.6c0-0.3,0.3-0.6,0.6-0.6
												S218.7,281.2,218.7,281.5z"/>
										</g>
									</g>
								</g>
							</g>
							<g>
								<g>
									<g>
										<g>
											<path class="st2" d="M237.9,281.5c0,0.3-0.3,0.6-0.6,0.6c-0.3,0-0.6-0.3-0.6-0.6c0-0.3,0.3-0.6,0.6-0.6
												C237.7,281,237.9,281.2,237.9,281.5z"/>
										</g>
									</g>
								</g>
							</g>
							<g>
								<g>
									<g>
										<g>
											<path class="st2" d="M257.2,281.5c0,0.3-0.3,0.6-0.6,0.6c-0.3,0-0.6-0.3-0.6-0.6c0-0.3,0.3-0.6,0.6-0.6
												C256.9,281,257.2,281.2,257.2,281.5z"/>
										</g>
									</g>
								</g>
							</g>
							<g>
								<g>
									<g>
										<g>
											<path class="st2" d="M276.4,281.5c0,0.3-0.3,0.6-0.6,0.6c-0.3,0-0.6-0.3-0.6-0.6c0-0.3,0.3-0.6,0.6-0.6
												C276.2,281,276.4,281.2,276.4,281.5z"/>
										</g>
									</g>
								</g>
							</g>
							<g>
								<g>
									<g>
										<g>
											<path class="st2" d="M295.7,281.5c0,0.3-0.3,0.6-0.6,0.6c-0.3,0-0.6-0.3-0.6-0.6c0-0.3,0.3-0.6,0.6-0.6
												C295.4,281,295.7,281.2,295.7,281.5z"/>
										</g>
									</g>
								</g>
							</g>
						</g>
					</g>
					<g>
						<g>
							<g>
								<g>
									<g>
										<path class="st6" d="M191.9,274.4c0,1.2-0.9,2.1-2.1,2.1c-1.2,0-2.1-0.9-2.1-2.1c0-1.2,0.9-2.1,2.1-2.1
											C190.9,272.3,191.9,273.2,191.9,274.4z"/>
									</g>
								</g>
							</g>
						</g>
						<g>
							<g>
								<g>
									<g>
										<path class="st6" d="M208.6,264.5c0,1.2-0.9,2.1-2.1,2.1c-1.2,0-2.1-0.9-2.1-2.1c0-1.2,0.9-2.1,2.1-2.1
											C207.7,262.4,208.6,263.4,208.6,264.5z"/>
									</g>
								</g>
							</g>
						</g>
						<g>
							<g>
								<g>
									<g>
										<path class="st6" d="M229.4,265.4c0,1.2-0.9,2.1-2.1,2.1c-1.2,0-2.1-0.9-2.1-2.1c0-1.2,0.9-2.1,2.1-2.1
											C228.4,263.3,229.4,264.2,229.4,265.4z"/>
									</g>
								</g>
							</g>
						</g>
						<g>
							<g>
								<g>
									<g>
										<path class="st6" d="M249.7,247.5c0,1.2-0.9,2.1-2.1,2.1c-1.2,0-2.1-0.9-2.1-2.1c0-1.2,0.9-2.1,2.1-2.1
											C248.7,245.4,249.7,246.3,249.7,247.5z"/>
									</g>
								</g>
							</g>
						</g>
						<g>
							<g>
								<g>
									<g>
										<path class="st6" d="M268.6,258.9c0,1.2-0.9,2.1-2.1,2.1c-1.2,0-2.1-0.9-2.1-2.1c0-1.2,0.9-2.1,2.1-2.1
											C267.6,256.8,268.6,257.7,268.6,258.9z"/>
									</g>
								</g>
							</g>
						</g>
						<g>
							<g>
								<g>
									<g>
										<path class="st6" d="M287.8,261.9c0,1.2-0.9,2.1-2.1,2.1c-1.2,0-2.1-0.9-2.1-2.1c0-1.2,0.9-2.1,2.1-2.1
											C286.8,259.8,287.8,260.7,287.8,261.9z"/>
									</g>
								</g>
							</g>
						</g>
						<g>
							<g>
								<g>
									<g>
										<g>
											<path class="st6" d="M305.7,274.4c0,0-0.2,0-0.5,0c-0.3,0-0.8-0.1-1.4-0.2c-1.2-0.3-3.1-0.8-5-2.4
												c-0.9-0.8-1.8-1.9-2.5-3.2c-0.7-1.3-1.5-2.7-2.6-4c-1.1-1.3-2.5-2.6-4.3-3c-0.9-0.2-1.9-0.2-2.9,0.1
												c-1,0.3-1.9,0.8-2.7,1.5c-1.6,1.4-2.8,3.3-4.4,5.1c-0.8,0.9-1.7,1.7-2.9,2.2c-1.2,0.5-2.5,0.7-3.8,0.3
												c-1.3-0.4-2.3-1.5-2.9-2.6c-0.6-1.2-0.9-2.5-1.2-3.8c-0.3-1.3-0.6-2.7-1.1-3.9c-0.3-0.6-0.7-1.2-1.2-1.5
												c-0.6-0.3-1.3-0.4-1.9-0.4c-1.4,0.1-2.8,0.5-4.2,0.7c-0.7,0.1-1.5,0.3-2.2,0.3c-0.8,0-1.5-0.1-2.3-0.4
												c-0.7-0.3-1.3-0.9-1.8-1.5c-0.4-0.6-0.8-1.3-1.1-2c-0.6-1.4-1-2.9-1.6-4.3c-0.3-0.7-0.6-1.4-1-2c-0.4-0.6-1-1.1-1.7-1.4
												c-0.2-0.1-0.3-0.1-0.5-0.2l-0.6-0.1c-0.4,0-0.7,0-1,0.2c-0.6,0.3-1.1,1-1.5,1.6c-0.8,1.3-1.3,2.9-1.8,4.4
												c-0.5,1.5-0.8,3.1-1.2,4.7c-0.6,2.6-1.2,5.3-1.8,7.9c-0.3,1.3-0.7,2.6-1.2,3.8c-0.5,1.2-1,2.5-2,3.5
												c-0.5,0.5-1.2,0.8-1.9,0.8c-0.7,0-1.4-0.2-1.9-0.6c-1.2-0.7-2-1.7-2.7-2.8c-1.5-2.1-2.4-4.4-3.3-6.7
												c-0.9-2.2-2-4.4-3.7-5.9c-1.7-1.5-4.1-2-6.2-1.5c-1,0.3-2,0.7-2.9,1.3c-0.9,0.5-1.8,1.2-2.6,1.9c-1.6,1.3-3,2.8-4.3,4.3
												l0,0l0,0c-2,2-4.2,3.8-6.3,5.3c-2.1,1.5-4.3,2.7-6.5,3.5c-2.2,0.8-4.3,1.3-6.4,1.1c-2-0.2-3.7-0.7-5.3-1.3
												c-3.1-1.1-5.3-2.3-6.9-3.1c-0.8-0.4-1.3-0.8-1.7-1c-0.4-0.2-0.6-0.4-0.6-0.4s0.2,0.1,0.6,0.3c0.4,0.2,1,0.5,1.7,0.9
												c1.5,0.8,3.8,2,6.9,3c1.5,0.5,3.3,1,5.2,1.2c1.9,0.2,4.1-0.3,6.2-1.1c2.1-0.8,4.3-2,6.4-3.5c2.1-1.5,4.2-3.2,6.3-5.2l0,0
												c1.3-1.5,2.7-3,4.3-4.4c0.8-0.7,1.7-1.3,2.6-1.9c0.9-0.6,1.9-1.1,3.1-1.4c2.2-0.6,4.8,0,6.6,1.6c1.8,1.6,2.9,3.8,3.8,6.1
												c0.9,2.2,1.8,4.5,3.3,6.6c0.7,1,1.5,2,2.6,2.6c0.5,0.3,1.1,0.5,1.7,0.5c0.6,0,1.1-0.3,1.5-0.7c0.9-0.9,1.4-2.1,1.9-3.3
												c0.5-1.2,0.8-2.5,1.2-3.8c0.7-2.6,1.2-5.2,1.8-7.8c0.4-1.6,0.8-3.2,1.2-4.8c0.5-1.6,1-3.1,1.8-4.5c0.4-0.7,1-1.4,1.7-1.8
												c0.4-0.2,0.8-0.3,1.3-0.3l0.6,0.1c0.2,0,0.4,0.1,0.6,0.2c0.8,0.3,1.4,0.9,1.9,1.6c0.5,0.7,0.8,1.4,1.1,2.1
												c0.6,1.5,1,2.9,1.6,4.3c0.6,1.4,1.3,2.7,2.6,3.3c1.3,0.6,2.8,0.4,4.2,0.2c1.4-0.3,2.8-0.7,4.3-0.7c0.7,0,1.5,0.1,2.2,0.4
												c0.7,0.4,1.1,1,1.4,1.7c0.6,1.3,0.8,2.7,1.2,4c0.3,1.3,0.6,2.6,1.2,3.7c0.5,1.1,1.4,2.1,2.6,2.4c1.2,0.3,2.4,0.2,3.5-0.3
												c1.1-0.5,2-1.3,2.8-2.1c1.6-1.7,2.8-3.7,4.5-5.1c0.8-0.7,1.8-1.3,2.8-1.6c1-0.3,2.1-0.3,3-0.1c2,0.5,3.4,1.9,4.5,3.2
												c1.1,1.3,1.9,2.7,2.6,4c0.7,1.3,1.5,2.4,2.4,3.2c1.8,1.6,3.7,2.1,4.9,2.4c0.6,0.1,1.1,0.2,1.4,0.2
												C305.5,274.4,305.7,274.4,305.7,274.4z"/>
										</g>
									</g>
								</g>
							</g>
						</g>
					</g>
				</g>
				<g>
					<g>
						<g>
							<g>
								<g>
									<path class="st5" d="M192.1,238.2c0,0.1-7.4,0.3-16.6,0.3c-9.2,0-16.6-0.1-16.6-0.3c0-0.1,7.4-0.3,16.6-0.3
										C184.6,238,192.1,238.1,192.1,238.2z"/>
								</g>
							</g>
						</g>
					</g>
				</g>
			</g>
		</g>
		<g>
			<polygon class="st0" points="330,224.2 330,304.1 339.7,304.1 353,304.1 415,304.1 415,224.2 			"/>
			<g>
				<g>
					<g>
						<g>
							<g>
								<g>
									<path class="st5" d="M372.1,233.2c-14.5,0-26.2,11.7-26.2,26.2c0,14.5,11.7,26.2,26.2,26.2c14.5,0,26.2-11.7,26.2-26.2
										C398.4,245,386.6,233.2,372.1,233.2z M372.5,275.2c-8.9,0-16.1-7.2-16.1-16.1c0-8.9,7.2-16.1,16.1-16.1
										c8.9,0,16.1,7.2,16.1,16.1C388.6,268,381.4,275.2,372.5,275.2z"/>
								</g>
							</g>
						</g>
						<g>
							<g>
								<g>
									<g>
										<path class="st6" d="M372.5,233.3c0,2.8,0,6.6,0,9.7c8.9,0,16.1,7.2,16.1,16.1c0,1.7-0.3,3.3-0.8,4.9l9.5,2.6
											c0.6-2.2,1-4.6,1-7.1C398.4,245.1,386.8,233.5,372.5,233.3z"/>
									</g>
								</g>
							</g>
							<g>
								<g>
									<g>
										<path class="st7" d="M356.4,259.1c0-6.6,3.9-12.2,9.6-14.7l-4-9.1c-9.4,4-16,13.3-16,24.2c0,0.4,0,0.7,0,1.1h10.6
											C356.4,260.1,356.4,259.6,356.4,259.1z"/>
									</g>
								</g>
							</g>
							<g>
								<g>
									<g>
										<path class="st6" d="M372.5,275.2c-1.2,0-2.3-0.1-3.4-0.4c-0.4,2.3-1.2,6.9-1.8,10.4c1.6,0.3,3.2,0.4,4.8,0.4
											c12,0,22.2-8.1,25.3-19.2l-9.5-2.6C385.8,270.5,379.7,275.2,372.5,275.2z"/>
									</g>
								</g>
							</g>
							<g class="st8">
								<g>
									<g>
										<path d="M372.5,275.2c-1.2,0-2.3-0.1-3.4-0.4c-0.4,2.3-1.2,6.9-1.8,10.4c1.6,0.3,3.2,0.4,4.8,0.4c12,0,22.2-8.1,25.3-19.2
											l-9.5-2.6C385.8,270.5,379.7,275.2,372.5,275.2z"/>
									</g>
								</g>
							</g>
						</g>
					</g>
					<g>
						<g>
							<g>
								<path class="st5" d="M369.1,260.4h-1v1.3h-1.3v-1.3h-3.2v-0.9l2.8-3.8h1.4l-2.6,3.6h1.6v-1.1h1.3v1.1h1V260.4z"/>
							</g>
						</g>
						<g>
							<g>
								<path class="st5" d="M369.5,258.7c0-2,1.1-3.1,2.6-3.1c1.5,0,2.6,1.1,2.6,3.1c0,2-1.1,3.1-2.6,3.1
									C370.6,261.7,369.5,260.6,369.5,258.7z M373.2,258.7c0-1.4-0.5-1.9-1.2-1.9c-0.7,0-1.2,0.6-1.2,1.9c0,1.4,0.5,1.9,1.2,1.9
									C372.7,260.6,373.2,260,373.2,258.7z"/>
							</g>
						</g>
						<g>
							<g>
								<path class="st5" d="M375.1,257.3c0-1,0.6-1.6,1.5-1.6c0.9,0,1.5,0.6,1.5,1.6c0,1-0.6,1.6-1.5,1.6
									C375.8,258.9,375.1,258.3,375.1,257.3z M377.2,257.3c0-0.6-0.2-0.9-0.6-0.9c-0.4,0-0.6,0.3-0.6,0.9c0,0.6,0.3,0.9,0.6,0.9
									C377,258.2,377.2,257.9,377.2,257.3z M380.2,255.7h1l-4.1,6h-1L380.2,255.7z M379.2,260.1c0-1,0.6-1.6,1.5-1.6
									c0.9,0,1.5,0.6,1.5,1.6c0,1-0.6,1.6-1.5,1.6C379.8,261.7,379.2,261.1,379.2,260.1z M381.3,260.1c0-0.6-0.2-0.9-0.6-0.9
									c-0.4,0-0.6,0.3-0.6,0.9c0,0.6,0.3,0.9,0.6,0.9C381,261,381.3,260.7,381.3,260.1z"/>
							</g>
						</g>
					</g>
				</g>
				<g>
					<g>
						<g>
							<g>
								<g>
									<path class="st5" d="M393.8,292.3c0,0.1-9.7,0.2-21.7,0.2c-12,0-21.7-0.1-21.7-0.2s9.7-0.2,21.7-0.2
										C384.1,292.1,393.8,292.2,393.8,292.3z"/>
								</g>
							</g>
						</g>
					</g>
					<g>
						<g>
							<g>
								<g>
									<path class="st5" d="M384.2,296.3c0,0.1-5.4,0.2-12,0.2c-6.7,0-12-0.1-12-0.2c0-0.1,5.4-0.2,12-0.2
										C378.8,296.1,384.2,296.2,384.2,296.3z"/>
								</g>
							</g>
						</g>
					</g>
				</g>
			</g>
		</g>
		<g>
			<g>
				<rect x="234.6" y="309.4" class="st1" width="170.6" height="56.1"/>
			</g>
			<g>
				<g>
					<path class="st3" d="M390.8,322.7c0,0.1-29,0.2-64.8,0.2c-35.8,0-64.8-0.1-64.8-0.2s29-0.2,64.8-0.2
						C361.8,322.5,390.8,322.6,390.8,322.7z"/>
				</g>
			</g>
			<g>
				<g>
					<path class="st3" d="M390.8,329.3c0,0.1-29,0.2-64.8,0.2c-35.8,0-64.8-0.1-64.8-0.2c0-0.1,29-0.2,64.8-0.2
						C361.8,329.1,390.8,329.2,390.8,329.3z"/>
				</g>
			</g>
			<g>
				<g>
					<path class="st3" d="M390.8,335.9c0,0.1-29,0.2-64.8,0.2c-35.8,0-64.8-0.1-64.8-0.2c0-0.1,29-0.2,64.8-0.2
						C361.8,335.7,390.8,335.8,390.8,335.9z"/>
				</g>
			</g>
			<g>
				<g>
					<path class="st3" d="M390.8,342.6c0,0.1-29,0.2-64.8,0.2c-35.8,0-64.8-0.1-64.8-0.2c0-0.1,29-0.2,64.8-0.2
						C361.8,342.4,390.8,342.5,390.8,342.6z"/>
				</g>
			</g>
			<g>
				<g>
					<path class="st3" d="M390.8,349.2c0,0.1-29,0.2-64.8,0.2c-35.8,0-64.8-0.1-64.8-0.2c0-0.1,29-0.2,64.8-0.2
						C361.8,349,390.8,349.1,390.8,349.2z"/>
				</g>
			</g>
			<g>
				<g>
					<path class="st7" d="M379.5,341.5c0,0-0.1,0.1-0.3,0.3c-0.2,0.2-0.5,0.4-1.1,0.6c-1,0.4-2.9,0.4-4.7-0.8
						c-0.9-0.6-1.6-1.4-2.2-2.4c-0.6-1-1.1-2.2-1.7-3.4c-0.6-1.2-1.3-2.5-2.5-3.5c-0.6-0.5-1.4-0.9-2.2-1.2
						c-0.8-0.2-1.8-0.3-2.7-0.1c-1.9,0.3-3.7,1.2-5.2,2.4c-1.5,1.2-2.9,2.7-4.6,4c-1.6,1.3-3.8,2.5-6.3,2.7
						c-1.2,0.1-2.5-0.2-3.6-0.8c-1.1-0.6-1.9-1.5-2.5-2.5c-1.3-1.9-1.9-4.2-3.6-5.9c-0.8-0.9-1.9-1.6-3.1-1.9
						c-1.3-0.3-2.6,0-3.7,0.8c-1.1,0.7-1.9,1.7-2.4,2.8c-0.6,1.1-0.8,2.3-1.1,3.5c-0.3,1.2-0.6,2.4-1.1,3.6c-0.3,0.6-0.6,1.2-1,1.7
						c-0.5,0.5-0.9,1-1.5,1.4c-1.1,0.8-2.5,1.4-4,1.7c-1.4,0.3-2.9,0.3-4.4,0.1c-1.4-0.3-2.7-0.9-3.8-1.6c-1.1-0.7-2.2-1.5-3.2-2.3
						c-1.1-0.7-2.2-1.4-3.5-1.7c-1.3-0.3-2.6-0.1-3.7,0.4c-1.1,0.5-2,1.4-2.8,2.3c-0.7,0.9-1.3,1.9-1.9,2.9c-0.6,1-1.1,2-1.9,2.8
						c-0.7,0.9-1.6,1.7-2.7,2.2c-1.1,0.5-2.3,0.9-3.5,0.7c-1.2-0.1-2.3-0.7-3-1.5c-0.8-0.7-1.3-1.6-1.7-2.5
						c-0.4-0.9-0.6-1.8-0.8-2.7c-0.4-1.8-0.7-3.5-1.8-4.9c-1-1.4-2.5-2.5-4.2-2.7c-0.8-0.1-1.7,0-2.4,0.3c-0.7,0.3-1.4,0.7-1.9,1.1
						c-2.2,1.8-3.2,4-4.9,5.3c-1.5,1.3-3.2,1.9-4.3,1.9c-0.6,0-1-0.1-1.3-0.2c-0.3-0.1-0.4-0.2-0.4-0.2c0,0,0.5,0.3,1.7,0.3
						c1.1,0,2.7-0.6,4.2-1.9c1.6-1.3,2.6-3.4,4.8-5.3c0.6-0.5,1.2-0.9,2-1.2c0.8-0.3,1.6-0.4,2.5-0.3c1.8,0.2,3.3,1.4,4.4,2.8
						c0.5,0.7,0.9,1.5,1.2,2.4c0.3,0.8,0.5,1.7,0.7,2.6c0.2,0.9,0.4,1.8,0.8,2.7c0.4,0.9,0.9,1.7,1.6,2.4c0.7,0.7,1.7,1.2,2.8,1.4
						c1.1,0.1,2.3-0.2,3.3-0.7c1-0.5,1.9-1.3,2.6-2.1c0.7-0.9,1.3-1.8,1.8-2.8c0.6-1,1.1-2,1.9-2.9c0.8-0.9,1.7-1.8,2.9-2.4
						c1.2-0.6,2.7-0.8,4-0.5c1.4,0.3,2.6,1,3.7,1.7c1.1,0.7,2.1,1.6,3.2,2.3c1.1,0.7,2.3,1.3,3.7,1.6c1.4,0.3,2.8,0.2,4.2-0.1
						c1.4-0.3,2.7-0.8,3.8-1.6c0.6-0.4,1-0.9,1.5-1.3c0.4-0.5,0.7-1,1-1.6c0.5-1.1,0.8-2.4,1.1-3.6c0.3-1.2,0.6-2.4,1.2-3.6
						c0.6-1.1,1.4-2.2,2.5-2.9c1.1-0.8,2.6-1.1,4-0.8c1.4,0.3,2.5,1.1,3.4,2c1.7,1.8,2.4,4.1,3.6,6c0.6,0.9,1.4,1.8,2.4,2.4
						c1,0.6,2.2,0.8,3.3,0.8c2.4-0.1,4.4-1.3,6-2.6c1.6-1.3,3-2.8,4.6-4c1.6-1.2,3.4-2.1,5.3-2.4c1-0.1,1.9-0.1,2.8,0.2
						c0.9,0.3,1.7,0.7,2.3,1.2c1.3,1.1,2,2.4,2.6,3.6c0.6,1.2,1.1,2.4,1.7,3.4c0.6,1,1.3,1.8,2.1,2.4c1.7,1.1,3.6,1.1,4.6,0.8
						C379.2,341.9,379.5,341.4,379.5,341.5z"/>
				</g>
			</g>
			<g>
				<g>
					<path class="st6" d="M387.7,339.9c0,0-0.1,0-0.4,0c-0.1,0-0.3,0-0.6-0.1c-0.2-0.1-0.5-0.1-0.7-0.2c-1.1-0.4-2.4-1.4-3.9-2.8
						c-0.4-0.4-0.7-0.8-1.1-1.2c-0.4-0.4-0.7-0.9-1.2-1.3c-0.9-0.8-2.3-1.4-3.8-1.5c-0.8-0.1-1.6,0-2.3,0.3
						c-0.8,0.2-1.5,0.7-2.1,1.2c-1.2,1.1-2.2,2.5-3.4,3.8c-0.6,0.7-1.3,1.3-2.2,1.8c-0.9,0.5-1.9,0.9-3,1c-2.2,0.2-4.4-0.3-6.6-1.1
						c-2.1-0.8-4.2-1.8-6.5-2.5c-1.1-0.4-2.4-0.6-3.6-0.6c-1.2,0-2.5,0.2-3.6,0.7c-2.3,1-4.1,2.7-6.3,4.1c-1.1,0.7-2.3,1.3-3.6,1.7
						c-1.3,0.4-2.8,0.6-4.2,0.6c-2.9,0-5.8-0.6-8.3-2c-2.5-1.3-4.7-3.2-6.3-5.4c-1.7-2.2-2.6-4.7-3.8-6.9c-0.6-1.1-1.3-2.2-2.2-3.2
						c-0.9-0.9-2-1.7-3.3-2.2c-1.2-0.5-2.7-0.7-4-0.4c-1.3,0.3-2.4,1-3.3,1.9c-0.9,0.9-1.5,1.9-2,3c-0.5,1.1-0.7,2.2-1,3.3
						c-0.3,1.1-0.5,2.2-0.9,3.3c-0.3,1.1-0.8,2.1-1.4,3c-1.2,1.9-2.8,3.5-4.8,4.7c-1.9,1.2-4.1,1.9-6.2,2.2c-2.2,0.2-4.3,0-6.1-0.6
						c-3.8-1.2-6.4-3.7-7.4-6.3c-0.5-1.3-0.8-2.5-1.1-3.6c-0.4-1.1-0.8-2.1-1.5-2.8c-1.4-1.5-3.2-2-4.3-1.9
						c-1.2,0.1-1.6,0.6-1.6,0.5c0,0,0.4-0.5,1.6-0.6c1.1-0.1,3,0.4,4.4,1.9c0.7,0.8,1.2,1.8,1.5,2.9c0.4,1.1,0.7,2.4,1.2,3.6
						c1,2.5,3.6,5,7.3,6.1c1.8,0.6,3.9,0.8,6,0.6c2.1-0.3,4.2-1,6-2.1c1.9-1.1,3.5-2.7,4.6-4.6c1.2-1.8,1.7-4,2.2-6.2
						c0.3-1.1,0.6-2.2,1-3.3c0.5-1.1,1.1-2.2,2-3.1c0.9-0.9,2.1-1.7,3.5-2c1.4-0.3,2.9-0.1,4.2,0.4c1.3,0.5,2.5,1.3,3.4,2.3
						c1,1,1.7,2.1,2.3,3.2c1.2,2.3,2.1,4.8,3.8,6.9c1.6,2.2,3.7,4,6.2,5.3c2.5,1.3,5.3,2,8.1,1.9c1.4,0,2.8-0.2,4.1-0.6
						c1.3-0.4,2.5-1,3.5-1.7c2.1-1.4,4-3.2,6.4-4.2c1.2-0.5,2.5-0.7,3.8-0.7c1.3,0,2.5,0.3,3.7,0.7c2.4,0.7,4.4,1.8,6.5,2.5
						c2.1,0.8,4.3,1.3,6.4,1.1c1-0.1,2-0.4,2.9-0.9c0.8-0.5,1.5-1.1,2.1-1.8c1.2-1.3,2.2-2.7,3.5-3.8c0.6-0.5,1.4-1,2.2-1.3
						c0.8-0.2,1.6-0.3,2.4-0.3c1.6,0.1,3,0.8,3.9,1.6c0.5,0.4,0.8,0.9,1.2,1.3c0.4,0.4,0.7,0.8,1.1,1.2c1.4,1.4,2.7,2.4,3.8,2.8
						C387.1,340.1,387.7,339.9,387.7,339.9z"/>
				</g>
			</g>
			<g>
				<g>
					<path class="st2" d="M252.4,323c0,0.1-0.8,0.2-1.7,0.2c-0.9,0-1.7-0.1-1.7-0.2c0-0.1,0.8-0.2,1.7-0.2
						C251.6,322.8,252.4,322.9,252.4,323z"/>
				</g>
			</g>
			<g>
				<g>
					<path class="st2" d="M252.4,329.3c0,0.1-0.8,0.2-1.7,0.2c-0.9,0-1.7-0.1-1.7-0.2c0-0.1,0.8-0.2,1.7-0.2
						C251.6,329.1,252.4,329.2,252.4,329.3z"/>
				</g>
			</g>
			<g>
				<g>
					<path class="st2" d="M252.4,335.6c0,0.1-0.8,0.2-1.7,0.2c-0.9,0-1.7-0.1-1.7-0.2s0.8-0.2,1.7-0.2
						C251.6,335.4,252.4,335.5,252.4,335.6z"/>
				</g>
			</g>
			<g>
				<g>
					<path class="st2" d="M252.4,341.9c0,0.1-0.8,0.2-1.7,0.2c-0.9,0-1.7-0.1-1.7-0.2s0.8-0.2,1.7-0.2
						C251.6,341.7,252.4,341.8,252.4,341.9z"/>
				</g>
			</g>
			<g>
				<g>
					<path class="st2" d="M252.4,348.2c0,0.1-0.8,0.2-1.7,0.2c-0.9,0-1.7-0.1-1.7-0.2c0-0.1,0.8-0.2,1.7-0.2
						C251.6,348,252.4,348.1,252.4,348.2z"/>
				</g>
			</g>
			<g>
				<g>
					<path class="st2" d="M268.1,356.3c0,0.1-1.5,0.2-3.4,0.2c-1.9,0-3.4-0.1-3.4-0.2s1.5-0.2,3.4-0.2
						C266.6,356.1,268.1,356.2,268.1,356.3z"/>
				</g>
			</g>
			<g>
				<g>
					<path class="st2" d="M298.3,356.3c0,0.1-1.5,0.2-3.4,0.2c-1.9,0-3.4-0.1-3.4-0.2s1.5-0.2,3.4-0.2
						C296.8,356.1,298.3,356.2,298.3,356.3z"/>
				</g>
			</g>
			<g>
				<g>
					<path class="st2" d="M328.5,356.3c0,0.1-1.5,0.2-3.4,0.2c-1.9,0-3.4-0.1-3.4-0.2s1.5-0.2,3.4-0.2
						C327,356.1,328.5,356.2,328.5,356.3z"/>
				</g>
			</g>
			<g>
				<g>
					<path class="st2" d="M358.7,356.3c0,0.1-1.5,0.2-3.4,0.2c-1.9,0-3.4-0.1-3.4-0.2s1.5-0.2,3.4-0.2
						C357.2,356.1,358.7,356.2,358.7,356.3z"/>
				</g>
			</g>
			<g>
				<g>
					<path class="st2" d="M388.9,356.3c0,0.1-1.5,0.2-3.4,0.2c-1.9,0-3.4-0.1-3.4-0.2s1.5-0.2,3.4-0.2
						C387.4,356.1,388.9,356.2,388.9,356.3z"/>
				</g>
			</g>
		</g>
	</g>
	<g>
		<g>
			<g>
				<g>
					<g>
						<path class="st6" d="M428.6,273.5c0,0,21.5,1,23.9,19.8c2.4,18.8-15.9,18.2-21.1,18.2c-2.4,0-7.1,0-11.6,0
							c-9.5,0-17.1-3.6-19-13c-0.2-1.1-0.3-2.2-0.3-3.3C400.3,285,407.9,271.8,428.6,273.5z"/>
					</g>
					<g>
						<path class="st5" d="M408.5,295.5l27.6,2c2.9,0.2,5.4-2,5.6-4.9l0,0c0.2-2.9-2-5.4-4.9-5.6l-27.6-2c-2.9-0.2-5.4,2-5.6,4.9
							l0,0C403.5,292.7,405.7,295.2,408.5,295.5z"/>
					</g>
					<g>
						<path class="st4" d="M430.1,292.5c0.1,0.9,1,1.6,1.9,1.4c0.9-0.1,1.6-1,1.4-1.9c-0.1-0.9-1-1.6-1.9-1.4
							C430.6,290.7,429.9,291.6,430.1,292.5z"/>
					</g>
					<g>
						<path class="st4" d="M410.8,291.1c0.1,0.9,1,1.6,1.9,1.4c0.9-0.1,1.6-1,1.4-1.9c-0.1-0.9-1-1.6-1.9-1.4
							C411.3,289.4,410.7,290.2,410.8,291.1z"/>
					</g>
					<g>
						<g>
							<path class="st4" d="M421.8,284.5c0,0,0.3-0.8,0.6-2c0.4-1.2,1-2.9,2-4.6c1-1.7,2.4-2.9,3.5-3.5c1.1-0.6,2-0.7,1.9-0.8
								c0,0-0.2,0-0.6,0.1c-0.4,0.1-0.9,0.2-1.5,0.5c-1.2,0.6-2.7,1.8-3.7,3.5c-1.1,1.7-1.7,3.5-2,4.7c-0.2,0.6-0.3,1.2-0.3,1.5
								C421.8,284.3,421.8,284.5,421.8,284.5z"/>
						</g>
					</g>
					<g>
						<g>
							<path class="st4" d="M424.8,311.5c0,0-0.6-0.5-1.5-1.5c-0.9-1-2-2.6-2.5-4.5c-0.5-2-0.7-3.8-0.7-5.2c0-1.3,0-2.2,0-2.2
								c0,0-0.1,0.2-0.1,0.6c0,0.4-0.1,0.9-0.1,1.6c-0.1,1.4,0.1,3.3,0.6,5.3c0.6,2,1.7,3.6,2.7,4.6c0.5,0.5,0.9,0.8,1.2,1.1
								C424.6,311.4,424.8,311.5,424.8,311.5z"/>
						</g>
					</g>
					<g class="st8">
						<g>
							<path d="M405.6,307.2c2.2-1.6,4-1.5,6.8-2c2.9-0.5,5.8-0.7,8.7-0.7c6.7-0.1,13.6,0.1,19.3,2.5c1.6,0.7,3,1.5,3.9,2.7
								c0,0-2.8,1.5-8.5,1.7c-5.4,0.2-16.8,0.1-16.8,0.1s-5.1,0-9.5-1.8C405.9,308,405.6,307.2,405.6,307.2z"/>
						</g>
					</g>
					<g>
						<g>
							<path class="st4" d="M402,289.5c0,0-0.1,0.3-0.1,1c0,0.7,0.1,1.7,0.7,2.8c0.6,1.1,1.7,2.3,3.3,3c1.7,0.7,3.7,1,5.9,1.1
								c4.5,0.3,9.7,0.8,15.6,1.2c1.5,0.1,3,0.2,4.5,0.3c1.5,0.1,3.1,0.3,4.7,0.3c1.6,0,3.3-0.4,4.7-1.5c1.3-1.1,2.2-2.7,2.4-4.4
								c0.2-1.7-0.3-3.5-1.3-4.9c-1-1.4-2.5-2.3-4-2.8c-0.8-0.2-1.6-0.3-2.4-0.3c-0.8-0.1-1.6-0.1-2.3-0.2c-1.5-0.1-3-0.3-4.5-0.4
								c-2.9-0.3-5.7-0.5-8.3-0.8c-2.6-0.2-5-0.6-7.3-0.7c-1.1-0.1-2.2-0.1-3.2,0c-1,0.1-2,0.2-2.8,0.5c-1.7,0.5-3,1.4-3.9,2.3
								c-0.9,0.9-1.3,1.8-1.5,2.5c-0.1,0.3-0.1,0.6-0.2,0.7C402,289.5,402,289.5,402,289.5c0,0,0.1-0.3,0.3-1
								c0.2-0.6,0.6-1.5,1.5-2.4c0.9-0.9,2.2-1.7,3.9-2.2c0.8-0.3,1.8-0.4,2.8-0.5c1-0.1,2.1-0.1,3.2,0c2.2,0.1,4.6,0.6,7.2,0.8
								c2.6,0.2,5.4,0.5,8.3,0.8c1.5,0.1,3,0.3,4.5,0.4c0.8,0.1,1.5,0.1,2.3,0.2c0.8,0.1,1.6,0.1,2.3,0.3c1.5,0.4,2.9,1.4,3.9,2.7
								c1,1.3,1.4,3,1.2,4.6c-0.2,1.6-1,3.2-2.3,4.2c-1.2,1-2.9,1.4-4.5,1.4c-1.6,0-3.2-0.2-4.7-0.3c-1.5-0.1-3-0.2-4.5-0.3
								c-5.9-0.4-11.2-0.8-15.6-1.1c-2.2-0.1-4.2-0.4-5.9-1.1c-1.6-0.7-2.7-1.8-3.3-2.9c-0.6-1.1-0.7-2.1-0.7-2.7
								C401.9,289.9,402,289.5,402,289.5z"/>
						</g>
					</g>
					<g>
						<g>
							<path class="st4" d="M452.6,296.4c0,0-0.4-0.3-1.1-0.8c-0.7-0.4-1.8-0.9-3-1.3c-1.2-0.4-2.4-0.6-3.2-0.7
								c-0.8-0.1-1.4-0.1-1.4-0.1c0,0.1,2.1,0.3,4.5,1.1C450.7,295.4,452.6,296.5,452.6,296.4z"/>
						</g>
					</g>
					<g>
						<path class="st4" d="M427.6,276.3c-0.2-0.1-0.4,0.1-0.4,0.3c0,0.2,0.2,0.3,0.4,0.2C427.8,276.7,427.7,276.4,427.6,276.3"/>
					</g>
					<g>
						<path class="st4" d="M424.9,281.6c-0.2-0.1-0.4,0.1-0.4,0.3c0,0.2,0.2,0.3,0.4,0.2C425.1,282,425.1,281.7,424.9,281.6"/>
					</g>
					<g>
						<path class="st4" d="M447,292.4c-0.2-0.1-0.4,0.1-0.4,0.3c0,0.2,0.2,0.3,0.4,0.2C447.1,292.8,447.1,292.5,447,292.4"/>
					</g>
					<g>
						<path class="st4" d="M451.4,294.1c-0.2-0.1-0.4,0.1-0.4,0.3c0,0.2,0.2,0.3,0.4,0.2C451.6,294.4,451.6,294.2,451.4,294.1"/>
					</g>
					<g class="st8">
						<g>
							<path class="st4" d="M422.9,274.5c0,0.2,1.9,0.5,5.1,1.1c3.1,0.6,7.4,1.4,11.6,3.6c2.1,1.1,3.9,2.5,5.3,3.9
								c1.4,1.4,2.5,2.9,3.2,4.3c1.4,2.7,1.6,4.7,1.9,4.7c0.1,0,0.2-0.5,0.1-1.4c0-0.9-0.3-2.2-0.9-3.8c-0.6-1.5-1.7-3.2-3.1-4.9
								c-1.5-1.6-3.4-3.1-5.6-4.3c-2.2-1.2-4.5-1.9-6.6-2.4c-2.1-0.5-4-0.7-5.6-0.9C424.9,274.2,423,274.3,422.9,274.5z"/>
						</g>
					</g>
					<g class="st8">
						<g>
							<path class="st4" d="M447.4,301.9c0.3,0.3,1.5-0.3,2.2-1.7c0.7-1.4,0.6-2.7,0.2-2.8c-0.5-0.1-1,0.9-1.6,2
								C447.6,300.6,447.1,301.6,447.4,301.9z"/>
						</g>
					</g>
				</g>
				<g>
					<g>
						<path class="st4" d="M418.2,291.5c0,0-0.1,0.6,0.2,1.4c0.2,0.4,0.5,0.9,1,1.3c0.5,0.4,1.1,0.7,1.8,0.7
							c0.7,0.1,1.4-0.1,1.9-0.4c0.5-0.3,0.9-0.7,1.2-1.1c0.5-0.8,0.5-1.4,0.5-1.4c-0.1,0-0.1,0.5-0.6,1.2c-0.3,0.3-0.6,0.7-1.1,0.9
							c-0.5,0.3-1.1,0.4-1.7,0.3c-0.6-0.1-1.2-0.3-1.6-0.6c-0.4-0.3-0.7-0.7-0.9-1.1C418.2,292.1,418.2,291.5,418.2,291.5z"/>
					</g>
				</g>
			</g>
			<g>
				<g>
					<path class="st6" d="M401.6,318.1c-1.3,0.5,0.2,19,1.1,28.5c0.5,5.1,1.3,10.3,4.2,14.5c3.2,4.7,9,6.7,14.6,7.3
						c7.9,0.8,14-2.9,17.6-9.1c3.4-5.9,5.8-12.7,6.7-19.5c1-7.8,1.7-12.9,1.4-19.7C447.3,320.1,424.5,309.8,401.6,318.1z"/>
				</g>
				<g>
					<path class="st4" d="M433.1,355.6c-0.2-0.1-0.4,0-0.4,0.2c0,0.2,0.2,0.3,0.4,0.2C433.3,356,433.3,355.7,433.1,355.6"/>
				</g>
				<g>
					<path class="st4" d="M424.8,355.9c-0.2-0.1-0.4,0-0.4,0.2c0,0.2,0.2,0.3,0.4,0.2C425,356.3,425,356,424.8,355.9"/>
				</g>
				<g>
					<path class="st4" d="M415.2,348.1c-0.2-0.1-0.4,0-0.4,0.2c0,0.2,0.2,0.3,0.4,0.2C415.4,348.4,415.4,348.2,415.2,348.1"/>
				</g>
				<g>
					<path class="st4" d="M417.8,326.8c-0.2-0.1-0.4,0-0.4,0.2c0,0.2,0.2,0.3,0.4,0.2C418,327.2,418,326.9,417.8,326.8"/>
				</g>
				<g>
					<path class="st4" d="M409.7,330.8c-0.2-0.1-0.4,0-0.4,0.2c0,0.2,0.2,0.3,0.4,0.2C409.8,331.2,409.8,331,409.7,330.8"/>
				</g>
				<g>
					<path class="st4" d="M442.2,352.5c-0.2-0.1-0.4,0-0.4,0.2c0,0.2,0.2,0.3,0.4,0.2C442.4,352.9,442.4,352.6,442.2,352.5"/>
				</g>
				<g>
					<path class="st4" d="M443.1,345.4c-0.2-0.1-0.4,0-0.4,0.2s0.2,0.3,0.4,0.2C443.2,345.8,443.3,345.5,443.1,345.4"/>
				</g>
				<g>
					<path class="st4" d="M443.2,339.1c-0.2-0.1-0.4,0-0.4,0.2c0,0.2,0.2,0.3,0.4,0.2C443.4,339.4,443.4,339.2,443.2,339.1"/>
				</g>
				<g>
					<path class="st4" d="M443.3,332.3c-0.2-0.1-0.4,0-0.4,0.2c0,0.2,0.2,0.3,0.4,0.2C443.5,332.7,443.5,332.4,443.3,332.3"/>
				</g>
				<g>
					<path class="st4" d="M404.6,329.6c-0.2-0.1-0.4,0-0.4,0.2c0,0.2,0.2,0.3,0.4,0.2C404.7,330,404.7,329.7,404.6,329.6"/>
				</g>
				<g>
					<path class="st4" d="M414.4,356c-0.2-0.1-0.4,0-0.4,0.2c0,0.2,0.2,0.3,0.4,0.2C414.6,356.4,414.6,356.1,414.4,356"/>
				</g>
				<g>
					<path class="st4" d="M414,362.7c-0.2-0.1-0.4,0-0.4,0.2c0,0.2,0.2,0.3,0.4,0.2C414.2,363.1,414.2,362.8,414,362.7"/>
				</g>
				<g>
					<g>
						<path class="st4" d="M434.5,363.9c0,0,0.1-0.1,0.3-0.3c0.2-0.2,0.5-0.5,0.9-0.9c0.7-0.8,1.7-2.1,2.4-4c0.4-0.9,0.6-2,0.8-3.1
							c0.3-1.1,0.5-2.4,0.7-3.6c0.5-2.6,0.9-5.4,1.3-8.4c0.7-6,1-11.5,1-15.4c0-2,0-3.6-0.1-4.7c0-0.5,0-0.9-0.1-1.3
							c0-0.3,0-0.4,0-0.4c0,0,0,0.2,0,0.4c0,0.3,0,0.7,0,1.3c0,1.1,0,2.7,0,4.7c-0.1,4-0.4,9.4-1.1,15.4c-0.4,3-0.8,5.8-1.3,8.4
							c-0.2,1.3-0.5,2.5-0.7,3.6c-0.2,1.1-0.5,2.2-0.8,3.1c-0.7,1.9-1.6,3.2-2.3,4c-0.3,0.4-0.6,0.8-0.8,1
							C434.6,363.7,434.5,363.9,434.5,363.9z"/>
					</g>
				</g>
				<g>
					<g>
						<path class="st4" d="M418.1,344.5c-0.1,0-0.4,5.1-0.7,11.5c-0.3,6.4-0.5,11.5-0.4,11.5c0.1,0,0.4-5.1,0.7-11.5
							C418,349.7,418.2,344.5,418.1,344.5z"/>
					</g>
				</g>
				<g>
					<g>
						<path class="st4" d="M425.6,315.1c0,0-0.2,0.2-0.4,0.5c-0.3,0.3-0.6,0.8-1.1,1.4c-0.9,1.2-2.1,2.9-3.4,4.7
							c-0.2,0.2-0.3,0.5-0.5,0.7l-0.1,0.1c0,0-0.1,0.1-0.1,0.1c0,0,0,0.1,0,0.1l0,0.1c0,0.1,0,0.3,0,0.4c0,0.5,0,1.1,0,1.6
							c0,1,0.1,1.9,0.1,2.6c0,0.7,0.1,1.3,0.1,1.8c0,0.4,0.1,0.6,0.1,0.6c0,0,0.1-0.9,0-2.4c0-0.8,0-1.7,0-2.6c0-0.5,0-1,0-1.5
							c0-0.1,0-0.3,0-0.4l0-0.1c0,0,0,0,0-0.1c0,0,0.1-0.1,0.1-0.1c0.2-0.2,0.3-0.5,0.5-0.7c1.3-1.9,2.5-3.6,3.3-4.8
							c0.4-0.6,0.7-1.1,1-1.5C425.5,315.3,425.6,315.1,425.6,315.1z"/>
					</g>
				</g>
				<g>
					<g>
						<path class="st4" d="M418.2,354.3c0,0,0.3,0.1,0.8,0.1c0.5,0,1.3,0.1,2.2,0.1c1.9,0.1,4.5,0.2,7.4,0.1
							c2.9-0.1,5.5-0.2,7.4-0.4c0.9-0.1,1.7-0.2,2.2-0.2c0.5-0.1,0.8-0.1,0.8-0.1c0,0-0.3,0-0.8,0c-0.6,0-1.3,0.1-2.2,0.1
							c-1.9,0.1-4.5,0.3-7.4,0.3c-2.9,0.1-5.5,0-7.4,0c-0.9,0-1.6,0-2.2,0C418.5,354.2,418.2,354.2,418.2,354.3z"/>
					</g>
				</g>
				<g>
					<g>
						<path class="st4" d="M401.5,330.6c0,0,0.2,0.1,0.5,0.3c0.3,0.2,0.8,0.4,1.3,0.6c1.2,0.5,2.8,1,4.7,1.4
							c1.9,0.4,3.6,0.6,4.8,0.7c1.2,0.1,2,0.1,2,0c0-0.1-0.8-0.1-2-0.3c-1.2-0.2-2.9-0.4-4.8-0.8c-1.8-0.4-3.5-0.9-4.6-1.3
							C402.2,330.9,401.5,330.5,401.5,330.6z"/>
					</g>
				</g>
				<g>
					<g>
						<g>
							<path class="st5" d="M412.2,337.6c0.3,4.1,3.9,7.3,8.1,7c4.1-0.3,7.3-3.9,7-8.1c-0.3-4.1-3.9-7.3-8.1-7
								C415,329.9,411.9,333.5,412.2,337.6z"/>
						</g>
						<g>
							<path class="st4" d="M414.2,337.5c0.2,3,2.8,5.3,5.9,5.1c3-0.2,5.3-2.8,5.1-5.9c-0.2-3-2.8-5.3-5.9-5.1
								C416.2,331.8,414,334.5,414.2,337.5z"/>
						</g>
					</g>
					<g>
						<g>
							<path class="st6" d="M416.8,338.5c0,0,0-0.3,0.1-0.9c0-0.6,0-1.4,0-2.4l-0.1,0.1c0.8-0.5,1.8-1,2.8-1.6l-0.2,0
								c0.9,0.5,1.8,1,2.8,1.6c0.1,0.1-0.1-0.2-0.1-0.1v0v0l0,0l0,0l0,0l0,0l0,0.1l0,0.1l0,0.2l0,0.4c0,0.3,0,0.6,0,0.8
								c0,0.5,0,1.1,0,1.6l0.1-0.1c-1,0.6-2,1.2-2.8,1.7l0.1,0c-0.9-0.5-1.6-0.8-2.1-1.1C417.2,338.6,416.9,338.5,416.8,338.5
								c0,0,0.2,0.2,0.7,0.5c0.5,0.3,1.2,0.7,2.1,1.2l0.1,0l0.1,0c0.8-0.5,1.8-1,2.8-1.6l0.1,0l0-0.1c0-0.5,0-1,0-1.6
								c0-0.3,0-0.6,0-0.8l0-0.4l0-0.2l0-0.1l0-0.1l0,0l0,0v0l0,0l0,0v0c0,0-0.2-0.3-0.1-0.1c-1-0.6-2-1.1-2.9-1.6l-0.1,0l-0.1,0
								c-1,0.6-2,1.2-2.8,1.7l-0.1,0l0,0.1c0,1,0.1,1.9,0.1,2.4C416.8,338.2,416.8,338.5,416.8,338.5z"/>
						</g>
					</g>
				</g>
				<g class="st9">
					<path d="M447.3,320.1c0,0-22.9-10.4-45.7-2C401.6,318.1,412.3,326.9,447.3,320.1z"/>
				</g>
			</g>
		</g>
		<path class="st6" d="M401.6,318.1c0,0-13.7-11.1-16.2-10.2c-2.4,0.8-3.3,2.1-2.2,5.1c1.1,3,18.4,19.5,18.4,19.5V318.1z"/>
		<g>
			<path class="st5" d="M402.2,339.3c0,0-0.1-0.3-0.1-0.8c-0.1-0.5-0.1-1.3-0.2-2.3c-0.2-1.9-0.3-4.6-0.4-7.5
				c-0.1-2.9-0.1-5.6-0.1-7.5c0-1,0-1.7,0.1-2.3c0-0.5,0.1-0.8,0.1-0.8c0,0,0.1,0.3,0.1,0.8c0,0.6,0,1.4,0.1,2.3
				c0,2,0.1,4.6,0.2,7.5c0.1,2.9,0.2,5.5,0.2,7.5c0,0.9,0.1,1.6,0.1,2.3C402.2,339,402.2,339.3,402.2,339.3z"/>
		</g>
		<g class="st9">
			<path d="M439.1,323.9c0.7,7.2,3.1,15,5.7,21.8c0.5-2.1,0.9-4,1.1-5.8c-0.3-2.1-1.6-4.8-2.5-6.7c-1.4-3.1-2.7-6.1-4.1-9.2"/>
		</g>
		<g>
			<path class="st6" d="M447.3,320.1c0,0,12.6,25.7,7.7,28.4c-6.9,3.9-16.4-26.8-16.4-26.8l4.5-0.9L447.3,320.1z"/>
			<g>
				<path class="st5" d="M448.5,344.5c0,0-0.2-0.3-0.6-0.8c-0.4-0.5-0.8-1.3-1.4-2.2c-1.1-1.9-2.5-4.7-3.8-7.8
					c-1.3-3.1-2.3-6.1-3-8.2c-0.3-1.1-0.6-1.9-0.7-2.5c-0.2-0.6-0.2-0.9-0.2-1c0,0,0.2,0.3,0.4,0.9c0.2,0.7,0.5,1.5,0.9,2.5
					c0.7,2.1,1.8,5,3.1,8.1c1.3,3.1,2.6,5.9,3.7,7.9c0.5,1,1,1.8,1.3,2.3C448.4,344.2,448.5,344.5,448.5,344.5z"/>
			</g>
		</g>
	</g>
	<g>
		<g>
			<g>
				<g>
					<rect x="17" y="372.7" class="st5" width="89" height="62"/>
				</g>
				<g>
					<rect x="4.8" y="391.1" class="st7" width="91.6" height="22.7"/>
				</g>
				<g>
					<rect x="8.9" y="395.8" class="st5" width="18" height="2.8"/>
				</g>
				<g>
					<rect x="8.9" y="400.6" class="st5" width="18" height="2.8"/>
				</g>
				<g>
					<rect x="8.9" y="405.5" class="st5" width="18" height="2.8"/>
				</g>
				<g>
					<g>
						<g>
							<path class="st5" d="M34,397.5c0,0.6-0.5,1-1,1c-0.6,0-1-0.5-1-1c0-0.6,0.5-1,1-1C33.6,396.4,34,396.9,34,397.5z"/>
						</g>
						<g>
							<path class="st5" d="M38.6,397.5c0,0.6-0.5,1-1,1c-0.6,0-1-0.5-1-1c0-0.6,0.5-1,1-1C38.1,396.4,38.6,396.9,38.6,397.5z"/>
						</g>
						<g>
							<path class="st5" d="M43.2,397.5c0,0.6-0.5,1-1,1c-0.6,0-1-0.5-1-1c0-0.6,0.5-1,1-1C42.7,396.4,43.2,396.9,43.2,397.5z"/>
						</g>
						<g>
							<path class="st5" d="M47.7,397.5c0,0.6-0.5,1-1,1c-0.6,0-1-0.5-1-1c0-0.6,0.5-1,1-1C47.3,396.4,47.7,396.9,47.7,397.5z"/>
						</g>
						<g>
							<path class="st5" d="M83.1,397.5c0,0.6-0.5,1-1,1s-1-0.5-1-1c0-0.6,0.5-1,1-1S83.1,396.9,83.1,397.5z"/>
						</g>
						<g>
							<path class="st5" d="M87.8,397.5c0,0.6-0.5,1-1,1s-1-0.5-1-1c0-0.6,0.5-1,1-1S87.8,396.9,87.8,397.5z"/>
						</g>
						<g>
							<path class="st5" d="M52.3,397.5c0,0.6-0.5,1-1,1s-1-0.5-1-1c0-0.6,0.5-1,1-1S52.3,396.9,52.3,397.5z"/>
						</g>
						<g>
							<path class="st5" d="M74.7,397.5c0,0.6-0.5,1-1,1s-1-0.5-1-1c0-0.6,0.5-1,1-1S74.7,396.9,74.7,397.5z"/>
						</g>
						<g>
							<path class="st0" d="M56.9,397.5c0,0.6-0.5,1-1,1c-0.6,0-1-0.5-1-1c0-0.6,0.5-1,1-1C56.4,396.4,56.9,396.9,56.9,397.5z"/>
						</g>
						<g>
							<path class="st0" d="M61.4,397.5c0,0.6-0.5,1-1,1c-0.6,0-1-0.5-1-1c0-0.6,0.5-1,1-1C61,396.4,61.4,396.9,61.4,397.5z"/>
						</g>
						<g>
							<path class="st0" d="M70.7,397.5c0,0.6-0.5,1-1,1c-0.6,0-1-0.5-1-1c0-0.6,0.5-1,1-1C70.2,396.4,70.7,396.9,70.7,397.5z"/>
						</g>
						<g>
							<path class="st0" d="M91.6,397.5c0,0.6-0.5,1-1,1c-0.6,0-1-0.5-1-1c0-0.6,0.5-1,1-1C91.1,396.4,91.6,396.9,91.6,397.5z"/>
						</g>
						<g>
							<path class="st6" d="M66,397.5c0,0.6-0.5,1-1,1c-0.6,0-1-0.5-1-1c0-0.6,0.5-1,1-1C65.5,396.4,66,396.9,66,397.5z"/>
						</g>
						<g>
							<path class="st6" d="M79.1,397.5c0,0.6-0.5,1-1,1c-0.6,0-1-0.5-1-1c0-0.6,0.5-1,1-1C78.6,396.4,79.1,396.9,79.1,397.5z"/>
						</g>
					</g>
					<g>
						<g>
							<path class="st5" d="M89.5,402.5c0-0.6,0.5-1,1-1c0.6,0,1,0.5,1,1c0,0.6-0.5,1-1,1C90,403.5,89.5,403,89.5,402.5z"/>
						</g>
						<g>
							<path class="st5" d="M84.9,402.5c0-0.6,0.5-1,1-1c0.6,0,1,0.5,1,1c0,0.6-0.5,1-1,1C85.4,403.5,84.9,403,84.9,402.5z"/>
						</g>
						<g>
							<path class="st5" d="M80.4,402.5c0-0.6,0.5-1,1-1s1,0.5,1,1c0,0.6-0.5,1-1,1S80.4,403,80.4,402.5z"/>
						</g>
						<g>
							<path class="st5" d="M75.8,402.5c0-0.6,0.5-1,1-1c0.6,0,1,0.5,1,1c0,0.6-0.5,1-1,1C76.3,403.5,75.8,403,75.8,402.5z"/>
						</g>
						<g>
							<path class="st5" d="M40.4,402.5c0-0.6,0.5-1,1-1c0.6,0,1,0.5,1,1c0,0.6-0.5,1-1,1C40.9,403.5,40.4,403,40.4,402.5z"/>
						</g>
						<g>
							<path class="st5" d="M35.8,402.5c0-0.6,0.5-1,1-1c0.6,0,1,0.5,1,1c0,0.6-0.5,1-1,1C36.2,403.5,35.8,403,35.8,402.5z"/>
						</g>
						<g>
							<path class="st5" d="M71.2,402.5c0-0.6,0.5-1,1-1c0.6,0,1,0.5,1,1c0,0.6-0.5,1-1,1C71.7,403.5,71.2,403,71.2,402.5z"/>
						</g>
						<g>
							<path class="st5" d="M48.8,402.5c0-0.6,0.5-1,1-1c0.6,0,1,0.5,1,1c0,0.6-0.5,1-1,1C49.3,403.5,48.8,403,48.8,402.5z"/>
						</g>
						<g>
							<path class="st0" d="M66.7,402.5c0-0.6,0.5-1,1-1c0.6,0,1,0.5,1,1c0,0.6-0.5,1-1,1C67.1,403.5,66.7,403,66.7,402.5z"/>
						</g>
						<g>
							<path class="st0" d="M62.1,402.5c0-0.6,0.5-1,1-1c0.6,0,1,0.5,1,1c0,0.6-0.5,1-1,1C62.6,403.5,62.1,403,62.1,402.5z"/>
						</g>
						<g>
							<path class="st0" d="M52.8,402.5c0-0.6,0.5-1,1-1c0.6,0,1,0.5,1,1c0,0.6-0.5,1-1,1C53.3,403.5,52.8,403,52.8,402.5z"/>
						</g>
						<g>
							<path class="st0" d="M32,402.5c0-0.6,0.5-1,1-1c0.6,0,1,0.5,1,1c0,0.6-0.5,1-1,1C32.4,403.5,32,403,32,402.5z"/>
						</g>
						<g>
							<path class="st6" d="M57.5,402.5c0-0.6,0.5-1,1-1c0.6,0,1,0.5,1,1c0,0.6-0.5,1-1,1C58,403.5,57.5,403,57.5,402.5z"/>
						</g>
						<g>
							<path class="st6" d="M44.5,402.5c0-0.6,0.5-1,1-1c0.6,0,1,0.5,1,1c0,0.6-0.5,1-1,1C44.9,403.5,44.5,403,44.5,402.5z"/>
						</g>
					</g>
					<g>
						<g>
							<path class="st5" d="M34,406.9c0,0.6-0.5,1-1,1c-0.6,0-1-0.5-1-1s0.5-1,1-1C33.6,405.9,34,406.3,34,406.9z"/>
						</g>
						<g>
							<circle class="st5" cx="37.6" cy="406.9" r="1"/>
						</g>
						<g>
							<circle class="st5" cx="42.1" cy="406.9" r="1"/>
						</g>
						<g>
							<circle class="st5" cx="46.7" cy="406.9" r="1"/>
						</g>
						<g>
							<circle class="st5" cx="82.1" cy="406.9" r="1"/>
						</g>
						<g>
							<circle class="st5" cx="86.7" cy="406.9" r="1"/>
						</g>
						<g>
							<path class="st5" d="M52.3,406.9c0,0.6-0.5,1-1,1s-1-0.5-1-1s0.5-1,1-1S52.3,406.3,52.3,406.9z"/>
						</g>
						<g>
							<path class="st5" d="M74.7,406.9c0,0.6-0.5,1-1,1s-1-0.5-1-1s0.5-1,1-1S74.7,406.3,74.7,406.9z"/>
						</g>
						<g>
							<circle class="st0" cx="55.8" cy="406.9" r="1"/>
						</g>
						<g>
							<path class="st0" d="M61.4,406.9c0,0.6-0.5,1-1,1c-0.6,0-1-0.5-1-1s0.5-1,1-1C61,405.9,61.4,406.3,61.4,406.9z"/>
						</g>
						<g>
							<path class="st0" d="M70.7,406.9c0,0.6-0.5,1-1,1c-0.6,0-1-0.5-1-1s0.5-1,1-1C70.2,405.9,70.7,406.3,70.7,406.9z"/>
						</g>
						<g>
							<path class="st0" d="M91.6,406.9c0,0.6-0.5,1-1,1c-0.6,0-1-0.5-1-1s0.5-1,1-1C91.1,405.9,91.6,406.3,91.6,406.9z"/>
						</g>
						<g>
							<path class="st6" d="M66,406.9c0,0.6-0.5,1-1,1c-0.6,0-1-0.5-1-1s0.5-1,1-1C65.5,405.9,66,406.3,66,406.9z"/>
						</g>
						<g>
							<circle class="st6" cx="78" cy="406.9" r="1"/>
						</g>
					</g>
				</g>
				<g>
					<rect x="4.8" y="419.2" class="st7" width="91.6" height="22.7"/>
				</g>
				<g>
					<g>
						<g>
							<path class="st5" d="M33.8,425.3c0,0.6-0.5,1-1,1c-0.6,0-1-0.5-1-1c0-0.6,0.5-1,1-1C33.4,424.3,33.8,424.7,33.8,425.3z"/>
						</g>
						<g>
							<path class="st5" d="M38.4,425.3c0,0.6-0.5,1-1,1c-0.6,0-1-0.5-1-1c0-0.6,0.5-1,1-1C37.9,424.3,38.4,424.7,38.4,425.3z"/>
						</g>
						<g>
							<path class="st5" d="M42.9,425.3c0,0.6-0.5,1-1,1c-0.6,0-1-0.5-1-1c0-0.6,0.5-1,1-1C42.5,424.3,42.9,424.7,42.9,425.3z"/>
						</g>
						<g>
							<path class="st5" d="M47.5,425.3c0,0.6-0.5,1-1,1c-0.6,0-1-0.5-1-1c0-0.6,0.5-1,1-1C47.1,424.3,47.5,424.7,47.5,425.3z"/>
						</g>
						<g>
							<path class="st5" d="M82.9,425.3c0,0.6-0.5,1-1,1c-0.6,0-1-0.5-1-1c0-0.6,0.5-1,1-1C82.4,424.3,82.9,424.7,82.9,425.3z"/>
						</g>
						<g>
							<path class="st5" d="M87.5,425.3c0,0.6-0.5,1-1,1c-0.6,0-1-0.5-1-1c0-0.6,0.5-1,1-1C87.1,424.3,87.5,424.7,87.5,425.3z"/>
						</g>
						<g>
							<path class="st5" d="M52.1,425.3c0,0.6-0.5,1-1,1s-1-0.5-1-1c0-0.6,0.5-1,1-1S52.1,424.7,52.1,425.3z"/>
						</g>
						<g>
							<path class="st5" d="M74.5,425.3c0,0.6-0.5,1-1,1s-1-0.5-1-1c0-0.6,0.5-1,1-1S74.5,424.7,74.5,425.3z"/>
						</g>
						<g>
							<path class="st0" d="M56.6,425.3c0,0.6-0.5,1-1,1c-0.6,0-1-0.5-1-1c0-0.6,0.5-1,1-1C56.2,424.3,56.6,424.7,56.6,425.3z"/>
						</g>
						<g>
							<path class="st0" d="M61.2,425.3c0,0.6-0.5,1-1,1s-1-0.5-1-1c0-0.6,0.5-1,1-1S61.2,424.7,61.2,425.3z"/>
						</g>
						<g>
							<path class="st0" d="M70.5,425.3c0,0.6-0.5,1-1,1c-0.6,0-1-0.5-1-1c0-0.6,0.5-1,1-1C70,424.3,70.5,424.7,70.5,425.3z"/>
						</g>
						<g>
							<path class="st0" d="M91.3,425.3c0,0.6-0.5,1-1,1c-0.6,0-1-0.5-1-1c0-0.6,0.5-1,1-1C90.9,424.3,91.3,424.7,91.3,425.3z"/>
						</g>
						<g>
							<path class="st6" d="M65.8,425.3c0,0.6-0.5,1-1,1c-0.6,0-1-0.5-1-1c0-0.6,0.5-1,1-1C65.3,424.3,65.8,424.7,65.8,425.3z"/>
						</g>
						<g>
							<path class="st6" d="M78.8,425.3c0,0.6-0.5,1-1,1c-0.6,0-1-0.5-1-1c0-0.6,0.5-1,1-1C78.4,424.3,78.8,424.7,78.8,425.3z"/>
						</g>
					</g>
					<g>
						<g>
							<path class="st5" d="M89.3,430.3c0-0.6,0.5-1,1-1c0.6,0,1,0.5,1,1c0,0.6-0.5,1-1,1C89.7,431.3,89.3,430.9,89.3,430.3z"/>
						</g>
						<g>
							<circle class="st5" cx="85.7" cy="430.3" r="1"/>
						</g>
						<g>
							<path class="st5" d="M80.1,430.3c0-0.6,0.5-1,1-1c0.6,0,1,0.5,1,1c0,0.6-0.5,1-1,1C80.6,431.3,80.1,430.9,80.1,430.3z"/>
						</g>
						<g>
							<path class="st5" d="M75.6,430.3c0-0.6,0.5-1,1-1c0.6,0,1,0.5,1,1c0,0.6-0.5,1-1,1C76,431.3,75.6,430.9,75.6,430.3z"/>
						</g>
						<g>
							<path class="st5" d="M40.2,430.3c0-0.6,0.5-1,1-1c0.6,0,1,0.5,1,1c0,0.6-0.5,1-1,1C40.7,431.3,40.2,430.9,40.2,430.3z"/>
						</g>
						<g>
							<path class="st5" d="M35.5,430.3c0-0.6,0.5-1,1-1c0.6,0,1,0.5,1,1c0,0.6-0.5,1-1,1C36,431.3,35.5,430.9,35.5,430.3z"/>
						</g>
						<g>
							<circle class="st5" cx="72" cy="430.3" r="1"/>
						</g>
						<g>
							<circle class="st5" cx="49.6" cy="430.3" r="1"/>
						</g>
						<g>
							<path class="st0" d="M66.4,430.3c0-0.6,0.5-1,1-1c0.6,0,1,0.5,1,1c0,0.6-0.5,1-1,1C66.9,431.3,66.4,430.9,66.4,430.3z"/>
						</g>
						<g>
							<path class="st0" d="M61.9,430.3c0-0.6,0.5-1,1-1c0.6,0,1,0.5,1,1c0,0.6-0.5,1-1,1C62.3,431.3,61.9,430.9,61.9,430.3z"/>
						</g>
						<g>
							<circle class="st0" cx="53.6" cy="430.3" r="1"/>
						</g>
						<g>
							<path class="st0" d="M31.7,430.3c0-0.6,0.5-1,1-1c0.6,0,1,0.5,1,1c0,0.6-0.5,1-1,1C32.2,431.3,31.7,430.9,31.7,430.3z"/>
						</g>
						<g>
							<path class="st6" d="M57.3,430.3c0-0.6,0.5-1,1-1c0.6,0,1,0.5,1,1c0,0.6-0.5,1-1,1C57.8,431.3,57.3,430.9,57.3,430.3z"/>
						</g>
						<g>
							<path class="st6" d="M44.2,430.3c0-0.6,0.5-1,1-1c0.6,0,1,0.5,1,1c0,0.6-0.5,1-1,1C44.7,431.3,44.2,430.9,44.2,430.3z"/>
						</g>
					</g>
					<g>
						<g>
							<path class="st5" d="M33.8,434.7c0,0.6-0.5,1-1,1c-0.6,0-1-0.5-1-1s0.5-1,1-1C33.4,433.7,33.8,434.1,33.8,434.7z"/>
						</g>
						<g>
							<path class="st5" d="M38.4,434.7c0,0.6-0.5,1-1,1c-0.6,0-1-0.5-1-1s0.5-1,1-1C37.9,433.7,38.4,434.1,38.4,434.7z"/>
						</g>
						<g>
							<path class="st5" d="M42.9,434.7c0,0.6-0.5,1-1,1c-0.6,0-1-0.5-1-1s0.5-1,1-1C42.5,433.7,42.9,434.1,42.9,434.7z"/>
						</g>
						<g>
							<path class="st5" d="M47.5,434.7c0,0.6-0.5,1-1,1c-0.6,0-1-0.5-1-1s0.5-1,1-1C47.1,433.7,47.5,434.1,47.5,434.7z"/>
						</g>
						<g>
							<path class="st5" d="M82.9,434.7c0,0.6-0.5,1-1,1c-0.6,0-1-0.5-1-1s0.5-1,1-1C82.4,433.7,82.9,434.1,82.9,434.7z"/>
						</g>
						<g>
							<path class="st5" d="M87.5,434.7c0,0.6-0.5,1-1,1c-0.6,0-1-0.5-1-1s0.5-1,1-1C87.1,433.7,87.5,434.1,87.5,434.7z"/>
						</g>
						<g>
							<path class="st5" d="M52.1,434.7c0,0.6-0.5,1-1,1s-1-0.5-1-1s0.5-1,1-1S52.1,434.1,52.1,434.7z"/>
						</g>
						<g>
							<path class="st5" d="M74.5,434.7c0,0.6-0.5,1-1,1s-1-0.5-1-1s0.5-1,1-1S74.5,434.1,74.5,434.7z"/>
						</g>
						<g>
							<path class="st0" d="M56.6,434.7c0,0.6-0.5,1-1,1c-0.6,0-1-0.5-1-1s0.5-1,1-1C56.2,433.7,56.6,434.1,56.6,434.7z"/>
						</g>
						<g>
							<path class="st0" d="M61.2,434.7c0,0.6-0.5,1-1,1s-1-0.5-1-1s0.5-1,1-1S61.2,434.1,61.2,434.7z"/>
						</g>
						<g>
							<path class="st0" d="M70.5,434.7c0,0.6-0.5,1-1,1c-0.6,0-1-0.5-1-1s0.5-1,1-1C70,433.7,70.5,434.1,70.5,434.7z"/>
						</g>
						<g>
							<path class="st0" d="M91.3,434.7c0,0.6-0.5,1-1,1c-0.6,0-1-0.5-1-1s0.5-1,1-1C90.9,433.7,91.3,434.1,91.3,434.7z"/>
						</g>
						<g>
							<path class="st6" d="M65.8,434.7c0,0.6-0.5,1-1,1c-0.6,0-1-0.5-1-1s0.5-1,1-1C65.3,433.7,65.8,434.1,65.8,434.7z"/>
						</g>
						<g>
							<path class="st6" d="M78.8,434.7c0,0.6-0.5,1-1,1c-0.6,0-1-0.5-1-1s0.5-1,1-1C78.4,433.7,78.8,434.1,78.8,434.7z"/>
						</g>
					</g>
				</g>
				<g>
					<rect x="8.9" y="423.8" class="st5" width="18" height="2.8"/>
				</g>
				<g>
					<rect x="8.9" y="428.6" class="st5" width="18" height="2.8"/>
				</g>
				<g>
					<rect x="8.9" y="433.6" class="st5" width="18" height="2.8"/>
				</g>
				<g>
					<polygon class="st5" points="115.8,413.8 96.4,413.8 96.4,391.1 115.8,391.1 					"/>
				</g>
				<g>
					<polygon class="st5" points="115.8,441.7 96.4,441.7 96.4,419 115.8,419 					"/>
				</g>
				<g>
					<rect x="9.5" y="377.7" class="st5" width="18" height="2.8"/>
				</g>
				<g>
					<g>
						<polygon class="st5" points="115.8,386.2 96.4,386.2 96.4,363.3 115.8,363.3 						"/>
					</g>
					<g>
						<rect x="5.5" y="363.3" class="st7" width="91.6" height="22.7"/>
					</g>
					<g>
						<rect x="9.5" y="368" class="st5" width="18" height="2.8"/>
					</g>
					<g>
						<rect x="9.5" y="372.7" class="st5" width="18" height="2.8"/>
					</g>
					<g>
						<g>
							<g>
								<path class="st5" d="M34.7,369.6c0,0.6-0.5,1-1,1c-0.6,0-1-0.5-1-1c0-0.6,0.5-1,1-1C34.2,368.6,34.7,369.1,34.7,369.6z"/>
							</g>
							<g>
								<path class="st5" d="M39.3,369.6c0,0.6-0.5,1-1,1c-0.6,0-1-0.5-1-1c0-0.6,0.5-1,1-1C38.8,368.6,39.3,369.1,39.3,369.6z"/>
							</g>
							<g>
								<path class="st5" d="M43.8,369.6c0,0.6-0.5,1-1,1c-0.6,0-1-0.5-1-1c0-0.6,0.5-1,1-1C43.4,368.6,43.8,369.1,43.8,369.6z"/>
							</g>
							<g>
								<path class="st5" d="M48.4,369.6c0,0.6-0.5,1-1,1c-0.6,0-1-0.5-1-1c0-0.6,0.5-1,1-1C47.9,368.6,48.4,369.1,48.4,369.6z"/>
							</g>
							<g>
								<path class="st5" d="M83.8,369.6c0,0.6-0.5,1-1,1c-0.6,0-1-0.5-1-1c0-0.6,0.5-1,1-1C83.3,368.6,83.8,369.1,83.8,369.6z"/>
							</g>
							<g>
								<path class="st5" d="M88.4,369.6c0,0.6-0.5,1-1,1c-0.6,0-1-0.5-1-1c0-0.6,0.5-1,1-1C88,368.6,88.4,369.1,88.4,369.6z"/>
							</g>
							<g>
								<path class="st5" d="M53,369.6c0,0.6-0.5,1-1,1c-0.6,0-1-0.5-1-1c0-0.6,0.5-1,1-1C52.5,368.6,53,369.1,53,369.6z"/>
							</g>
							<g>
								<path class="st5" d="M75.4,369.6c0,0.6-0.5,1-1,1c-0.6,0-1-0.5-1-1c0-0.6,0.5-1,1-1C74.9,368.6,75.4,369.1,75.4,369.6z"/>
							</g>
							<g>
								<path class="st0" d="M57.5,369.6c0,0.6-0.5,1-1,1c-0.6,0-1-0.5-1-1c0-0.6,0.5-1,1-1C57.1,368.6,57.5,369.1,57.5,369.6z"/>
							</g>
							<g>
								<path class="st0" d="M62.1,369.6c0,0.6-0.5,1-1,1c-0.6,0-1-0.5-1-1c0-0.6,0.5-1,1-1C61.6,368.6,62.1,369.1,62.1,369.6z"/>
							</g>
							<g>
								<path class="st0" d="M71.4,369.6c0,0.6-0.5,1-1,1c-0.6,0-1-0.5-1-1c0-0.6,0.5-1,1-1C70.9,368.6,71.4,369.1,71.4,369.6z"/>
							</g>
							<g>
								<path class="st0" d="M92.2,369.6c0,0.6-0.5,1-1,1c-0.6,0-1-0.5-1-1c0-0.6,0.5-1,1-1C91.8,368.6,92.2,369.1,92.2,369.6z"/>
							</g>
							<g>
								<path class="st6" d="M66.7,369.6c0,0.6-0.5,1-1,1c-0.6,0-1-0.5-1-1c0-0.6,0.5-1,1-1C66.2,368.6,66.7,369.1,66.7,369.6z"/>
							</g>
							<g>
								<path class="st6" d="M79.7,369.6c0,0.6-0.5,1-1,1s-1-0.5-1-1c0-0.6,0.5-1,1-1S79.7,369.1,79.7,369.6z"/>
							</g>
						</g>
						<g>
							<g>
								<path class="st5" d="M90.2,374.6c0-0.6,0.5-1,1-1c0.6,0,1,0.5,1,1s-0.5,1-1,1C90.6,375.7,90.2,375.2,90.2,374.6z"/>
							</g>
							<g>
								<circle class="st5" cx="86.6" cy="374.6" r="1"/>
							</g>
							<g>
								<path class="st5" d="M81,374.6c0-0.6,0.5-1,1-1c0.6,0,1,0.5,1,1s-0.5,1-1,1C81.5,375.7,81,375.2,81,374.6z"/>
							</g>
							<g>
								<path class="st5" d="M76.5,374.6c0-0.6,0.5-1,1-1s1,0.5,1,1s-0.5,1-1,1S76.5,375.2,76.5,374.6z"/>
							</g>
							<g>
								<path class="st5" d="M41.1,374.6c0-0.6,0.5-1,1-1c0.6,0,1,0.5,1,1s-0.5,1-1,1C41.5,375.7,41.1,375.2,41.1,374.6z"/>
							</g>
							<g>
								<path class="st5" d="M36.4,374.6c0-0.6,0.5-1,1-1c0.6,0,1,0.5,1,1s-0.5,1-1,1C36.9,375.7,36.4,375.2,36.4,374.6z"/>
							</g>
							<g>
								<path class="st5" d="M71.9,374.6c0-0.6,0.5-1,1-1c0.6,0,1,0.5,1,1s-0.5,1-1,1C72.4,375.7,71.9,375.2,71.9,374.6z"/>
							</g>
							<g>
								<circle class="st5" cx="50.5" cy="374.6" r="1"/>
							</g>
							<g>
								<path class="st0" d="M67.3,374.6c0-0.6,0.5-1,1-1c0.6,0,1,0.5,1,1s-0.5,1-1,1C67.8,375.7,67.3,375.2,67.3,374.6z"/>
							</g>
							<g>
								<circle class="st0" cx="63.8" cy="374.6" r="1"/>
							</g>
							<g>
								<path class="st0" d="M53.5,374.6c0-0.6,0.5-1,1-1c0.6,0,1,0.5,1,1s-0.5,1-1,1C54,375.7,53.5,375.2,53.5,374.6z"/>
							</g>
							<g>
								<circle class="st0" cx="33.7" cy="374.6" r="1"/>
							</g>
							<g>
								<path class="st6" d="M58.2,374.6c0-0.6,0.5-1,1-1c0.6,0,1,0.5,1,1s-0.5,1-1,1C58.7,375.7,58.2,375.2,58.2,374.6z"/>
							</g>
							<g>
								<path class="st6" d="M45.1,374.6c0-0.6,0.5-1,1-1c0.6,0,1,0.5,1,1s-0.5,1-1,1C45.6,375.7,45.1,375.2,45.1,374.6z"/>
							</g>
						</g>
						<g>
							<g>
								<path class="st5" d="M34.7,379.1c0,0.6-0.5,1-1,1c-0.6,0-1-0.5-1-1c0-0.6,0.5-1,1-1C34.2,378,34.7,378.5,34.7,379.1z"/>
							</g>
							<g>
								<path class="st5" d="M39.3,379.1c0,0.6-0.5,1-1,1c-0.6,0-1-0.5-1-1c0-0.6,0.5-1,1-1C38.8,378,39.3,378.5,39.3,379.1z"/>
							</g>
							<g>
								<path class="st5" d="M43.8,379.1c0,0.6-0.5,1-1,1c-0.6,0-1-0.5-1-1c0-0.6,0.5-1,1-1C43.4,378,43.8,378.5,43.8,379.1z"/>
							</g>
							<g>
								<path class="st5" d="M48.4,379.1c0,0.6-0.5,1-1,1c-0.6,0-1-0.5-1-1c0-0.6,0.5-1,1-1C47.9,378,48.4,378.5,48.4,379.1z"/>
							</g>
							<g>
								<path class="st5" d="M83.8,379.1c0,0.6-0.5,1-1,1c-0.6,0-1-0.5-1-1c0-0.6,0.5-1,1-1C83.3,378,83.8,378.5,83.8,379.1z"/>
							</g>
							<g>
								<path class="st5" d="M88.4,379.1c0,0.6-0.5,1-1,1c-0.6,0-1-0.5-1-1c0-0.6,0.5-1,1-1C88,378,88.4,378.5,88.4,379.1z"/>
							</g>
							<g>
								<path class="st5" d="M53,379.1c0,0.6-0.5,1-1,1c-0.6,0-1-0.5-1-1c0-0.6,0.5-1,1-1C52.5,378,53,378.5,53,379.1z"/>
							</g>
							<g>
								<path class="st5" d="M75.4,379.1c0,0.6-0.5,1-1,1c-0.6,0-1-0.5-1-1c0-0.6,0.5-1,1-1C74.9,378,75.4,378.5,75.4,379.1z"/>
							</g>
							<g>
								<path class="st0" d="M57.5,379.1c0,0.6-0.5,1-1,1c-0.6,0-1-0.5-1-1c0-0.6,0.5-1,1-1C57.1,378,57.5,378.5,57.5,379.1z"/>
							</g>
							<g>
								<path class="st0" d="M62.1,379.1c0,0.6-0.5,1-1,1c-0.6,0-1-0.5-1-1c0-0.6,0.5-1,1-1C61.6,378,62.1,378.5,62.1,379.1z"/>
							</g>
							<g>
								<path class="st0" d="M71.4,379.1c0,0.6-0.5,1-1,1c-0.6,0-1-0.5-1-1c0-0.6,0.5-1,1-1C70.9,378,71.4,378.5,71.4,379.1z"/>
							</g>
							<g>
								<path class="st0" d="M92.2,379.1c0,0.6-0.5,1-1,1c-0.6,0-1-0.5-1-1c0-0.6,0.5-1,1-1C91.8,378,92.2,378.5,92.2,379.1z"/>
							</g>
							<g>
								<path class="st6" d="M66.7,379.1c0,0.6-0.5,1-1,1c-0.6,0-1-0.5-1-1c0-0.6,0.5-1,1-1C66.2,378,66.7,378.5,66.7,379.1z"/>
							</g>
							<g>
								<path class="st6" d="M79.7,379.1c0,0.6-0.5,1-1,1s-1-0.5-1-1c0-0.6,0.5-1,1-1S79.7,378.5,79.7,379.1z"/>
							</g>
						</g>
					</g>
				</g>
			</g>
		</g>
	</g>
	<g>
		<path class="st5" d="M130,266.6c0,0-0.1,0-0.4,0c-0.3,0-0.6,0-1.1,0c-1,0-2.5,0-4.4,0c-3.8,0-9.3,0.1-16.1,0.1
			c-13.6,0-32.5,0.1-53.4,0.1l0.2-0.2c0,0.8,0,1.6,0,2.4c0,25.8,0,49.2-0.1,66.2c0,8.5,0,15.3-0.1,20.1c0,2.4,0,4.2,0,5.5
			c0,0.6,0,1.1,0,1.4c0,0.3,0,0.5,0,0.5s0-0.2,0-0.5c0-0.3,0-0.8,0-1.4c0-1.3,0-3.1,0-5.5c0-4.8,0-11.6-0.1-20.1
			c0-16.9,0-40.3-0.1-66.2c0-0.8,0-1.7,0-2.4v-0.2h0.2c20.9,0,39.8,0,53.4,0c6.8,0,12.3,0,16.1,0c1.9,0,3.4,0,4.4,0
			c0.5,0,0.9,0,1.1,0C129.8,266.5,130,266.6,130,266.6z"/>
	</g>
	<path class="st5" d="M132.5,267.4c0,1.7-1.3,3-3,3c-1.7,0-3-1.3-3-3c0-1.7,1.3-3,3-3C131.1,264.4,132.5,265.7,132.5,267.4z"/>
	<g>
		<g>
			<g>
				<g>
					<g>
						<path class="st6" d="M80.5,293.2l15.6-37.7c0.7-1.7-0.2-3.1-2-3.1H91c-1.3,0-2.2-0.7-2.2-1.8l-0.1-1.4c-0.1-1.1-1-1.8-2.2-1.8
							H71.4c-1.2,0-2.5,0.6-3.5,1.5l-1.2,1.2c-1,0.9-2.3,1.5-3.5,1.5h-19c-1.8,0-3.8,1.4-4.5,3.1l-15.5,38.4H80.5z"/>
					</g>
				</g>
			</g>
		</g>
		<g class="st8">
			<g>
				<g>
					<g>
						<path d="M80.5,293.2l15.6-37.7c0.7-1.7-0.2-3.1-2-3.1H91c-1.3,0-2.2-0.7-2.2-1.8l-0.1-1.4c-0.1-1.1-1-1.8-2.2-1.8H71.4
							c-1.2,0-2.5,0.6-3.5,1.5l-1.2,1.2c-1,0.9-2.3,1.5-3.5,1.5h-19c-1.8,0-3.8,1.4-4.5,3.1l-15.5,38.4H80.5z"/>
					</g>
				</g>
			</g>
		</g>
		<g>
			<g>
				<g>
					<path class="st2" d="M83.1,280.4l5.9-22.8c0.4-1.5-0.6-3-2-3H40.8c-0.9,0-1.7,0.7-2,1.7l-8.6,34.3c-0.4,1.5,0.2,2.4,1.6,2.4
						l46.4,0c0.9,0,1.7-0.7,1.9-1.7L83.1,280.4z"/>
				</g>
			</g>
		</g>
		<g>
			<g>
				<g>
					<g>
						<path class="st3" d="M79.9,292.2l2.5-35.9c0.1-1.3-0.9-2.4-2.2-2.4H32.4v38.2H79.9z"/>
					</g>
				</g>
			</g>
			<g>
				<g>
					<g>
						<g>
							<g>
								<g>
									<path class="st1" d="M80.4,293l-5.7-37c-0.3-1.2-1.3-2.1-2.6-2.1H23.7c-1.9,0-3.2,1.9-2.4,3.6l10.4,33.8L80.4,293z"/>
								</g>
							</g>
						</g>
					</g>
				</g>
			</g>
		</g>
		<g>
			<g>
				<g>
					<g>
						<g>
							<g>
								<g>
									<path class="st6" d="M80.5,293.2l-11.7-34.6c-0.5-1.4-1.8-2.4-3.3-2.4H15.6c-1.6,0-2.7,1.6-2.2,3.2l10.9,33.8L80.5,293.2z"
										/>
								</g>
							</g>
						</g>
					</g>
				</g>
			</g>
		</g>
	</g>
	<g>
		<path class="st5" d="M543.8,441.7c0,0.1-121,0.2-270.3,0.2c-149.3,0-270.3-0.1-270.3-0.2c0-0.1,121-0.2,270.3-0.2
			C422.8,441.5,543.8,441.6,543.8,441.7z"/>
	</g>
</g>
</svg>
