<?xml version="1.0" encoding="utf-8"?>
<!-- Generator: Adobe Illustrator 28.3.0, SVG Export Plug-In . SVG Version: 6.00 Build 0)  -->
<svg version="1.1" id="Layer_1" xmlns="http://www.w3.org/2000/svg" xmlns:xlink="http://www.w3.org/1999/xlink" x="0px" y="0px"
	 viewBox="0 0 1200 450" style="enable-background:new 0 0 1200 450;" xml:space="preserve">
<style type="text/css">
	.st0{fill:#E1E1E1;}
	.st1{fill:#FAFAFA;}
	.st2{fill:#ECECEC;}
	.st3{fill:#F5F5F5;}
	.st4{fill:#FFFFFF;}
	.st5{fill:#1A2E35;}
	.st6{fill:#375A64;}
	.st7{opacity:0.3;}
	.st8{fill:#FF735D;}
	.st9{fill:none;}
	.st10{fill:#C27460;}
	.st11{fill:#7C4235;}
</style>
<g>
	<g>
		<g>
			<g>
				<g>
					<path class="st0" d="M854.6,358.5c-4.2-2.6-9-4.3-14-4.8c-2.3-0.2-4.8-0.2-6.6,1.2c-0.4,0.3-0.8,0.7-0.7,1.2
						c0.1,0.4,0.4,0.6,0.6,0.8C839.6,361.3,848.2,361.9,854.6,358.5"/>
				</g>
			</g>
			<g>
				<g>
					<path class="st0" d="M854.2,358.1c-3.2-2.5-6.3-4.9-9-7.9c-2.7-3-4.9-6.5-5.6-10.4c-0.2-1.2-0.3-2.6,0.4-3.5
						C847.2,341.9,852.8,349.1,854.2,358.1"/>
				</g>
			</g>
			<g>
				<g>
					<path class="st0" d="M854.5,358.5c-0.5-3.9-0.7-8,0.2-11.8c0.9-3.9,3-7.6,6.3-9.8c1.2,2.9,0.7,6.2-0.2,9.3
						c-1.4,4.7-3.5,9.1-6.2,13.2"/>
				</g>
			</g>
			<g>
				<g>
					<path class="st0" d="M861.5,371.1c-4.3,0.5-8,2.8-11.2,5.7c-3.2,2.9-5.5,6.8-6.4,11c4.2-0.3,7.7-3.2,10.3-6.5
						S858.6,374.3,861.5,371.1"/>
				</g>
			</g>
			<g>
				<g>
					<path class="st0" d="M863,373.1c-3.4-8.5-2.2-18.7,3.2-26.1C868.7,355.7,867.8,365.5,863,373.1"/>
				</g>
			</g>
			<g>
				<g>
					<path class="st0" d="M872.4,384.2c-3.9-0.2-7.8,0.7-11.2,2.6c-3.4,1.9-6.1,4.9-7.9,8.4c-0.2,0.5-0.4,1.1-0.1,1.5
						c0.3,0.4,0.8,0.4,1.3,0.4c3.8-0.2,7.1-2.5,9.8-5.1C867,389.4,869.4,386.4,872.4,384.2"/>
				</g>
			</g>
			<g>
				<g>
					<path class="st0" d="M872.1,383.6c-2-6.4-2.1-13.4-0.4-19.8c0.7-2.6,1.9-5.2,4.2-6.4c0.2-0.1,0.4-0.2,0.6-0.1
						c0.2,0.1,0.3,0.3,0.4,0.5c0.8,1.8,1.1,3.7,1,5.7c-0.1,1.9-0.5,3.9-0.9,5.8c-0.7,3.5-1.1,7.3-3.1,10.3c-0.5,0.7-0.9,1.5-1.2,2.3
						c-0.4,0.8-0.4,1-0.7,1.7"/>
				</g>
			</g>
			<g>
				<g>
					<path class="st0" d="M896.7,387.3c-1.8-6.9,0.1-15.4,4.5-21c0.3-0.4,0.7-0.9,1.3-0.8c0.8,0.1,1,1.1,1,2
						C903.1,374.5,900.7,381.4,896.7,387.3"/>
				</g>
			</g>
			<g>
				<g>
					<path class="st0" d="M898.9,388.8c8.4,2.2,18.1,0.1,25.1-5.1c-4.2-2.1-9.1-2.7-13.6-1.7C905.9,383,901.7,385.1,898.9,388.8"/>
				</g>
			</g>
			<g>
				<g>
					<path class="st0" d="M900.8,384.2c4.7-7.7,13.8-12.7,22.8-13.2c-1,3.7-4.1,6.5-7.5,8.2c-3.4,1.7-7.2,2.5-10.9,3.2
						C903.7,382.7,901.7,383,900.8,384.2"/>
				</g>
			</g>
			<g>
				<g>
					<path class="st0" d="M897.2,361.7c1.3-4.4,2.6-8.8,2.9-13.4c0.4-4.6-0.3-9.3-2.7-13.2c-4.4,8.5-4.9,18.5-0.4,27"/>
				</g>
			</g>
			<g>
				<g>
					<path class="st0" d="M912,354.2c5.2-9.4,15.7-16.9,26.3-17.9C934.2,346.5,923,354.5,912,354.2"/>
				</g>
			</g>
			<g>
				<g>
					<path class="st0" d="M908.8,356.1c7.7,1.2,14.2,6.1,21.4,9.1c1.5,0.6,3.2,1.1,4.8,0.9c1.7-0.2,3.3-1.3,3.6-2.9
						c0.3-1.3-0.3-2.8-1.3-3.8c-1-1-2.2-1.6-3.5-2.1c-7.8-3.3-16.2-3.3-24.5-1.4"/>
				</g>
			</g>
			<g>
				<g>
					<path class="st0" d="M904.3,361.5c1.7,0.5,2.3,1.4,3.7,2.6c4.7,4,10.3,6.9,16.3,8.4c0.6,0.2,1.4,0.2,1.7-0.3
						c0.3-0.5-0.1-1.1-0.4-1.5c-2.5-3.1-6.1-5.3-9.8-6.7c-3.8-1.4-7-3.1-11.5-2.7"/>
				</g>
			</g>
			<g>
				<g>
					<path class="st0" d="M899.3,328.9c6.3,5.8,15.1,8.8,23.6,8c0.4,0,0.8-0.1,1.1-0.4c0.6-0.6-0.1-1.6-0.8-2.2
						C916.2,328.9,907.8,326.7,899.3,328.9"/>
				</g>
			</g>
			<g>
				<g>
					<path class="st0" d="M905.2,326.7c8.3-6.2,19.6-8.1,29.4-4.9c-3.7,3.7-8.8,5.6-14,6.2C915.5,328.5,910.3,328,905.2,326.7"/>
				</g>
			</g>
			<g>
				<g>
					<path class="st0" d="M902.9,311.7c-0.7-6.9-0.2-12.4-0.7-19.3c0-0.6-0.2-1.2-0.7-1.4c-0.7-0.3-1.3,0.6-1.6,1.3
						c-2.1,6.4-0.9,13.8,3,19.3"/>
				</g>
			</g>
			<g>
				<g>
					<path class="st0" d="M902.4,312.5c4.7-2.9,8.2-6.7,11.5-11.1c2.3-3.1,4.2-6.8,3.7-10.6c-3.2-0.1-6.2,1.7-8.3,4.1
						c-2.1,2.4-3.3,5.4-4.2,8.5C904.1,306.4,903.5,309.5,902.4,312.5"/>
				</g>
			</g>
			<g>
				<g>
					<path class="st0" d="M913.6,309.4c10.3-3.8,19.9-9.5,28.2-16.6c-3.4-1.4-7.2-0.5-10.6,0.8c-7.7,3.1-14,8.4-17.8,15.7"/>
				</g>
			</g>
			<g>
				<g>
					<path class="st0" d="M905.5,316.3c5.2,0.6,10.5,0.9,15.7,0.1c5.1-0.8,9.9-2.9,14.6-4.9c0.4-0.2,0.8-0.4,1-0.8
						c0.2-0.4,0-0.9-0.4-1.3c-0.3-0.3-0.8-0.5-1.2-0.6c-5.2-1.4-10.7-0.8-15.8,0.9C914.3,311.6,910.2,313.6,905.5,316.3"/>
				</g>
			</g>
			<g>
				<g>
					<path class="st0" d="M875.8,329.1c-3.6-7.2-3.3-15.5-0.3-22.9c2.2,3.3,2.4,7.5,2,11.4c-0.4,3.9-1.6,8-1.7,11.9"/>
				</g>
			</g>
			<g>
				<g>
					<path class="st0" d="M861.6,322c-8.9-0.2-17.7,3.6-23.8,10.1c4.4,0.7,9-0.4,13-2.4c4-2,7.6-4.7,11.2-7.5"/>
				</g>
			</g>
			<g>
				<g>
					<path class="st0" d="M852.1,318.8c-4.3-0.4-8.5-0.9-12.7,0.4c-4.2,1.3-8,4.2-9.7,8.2c4.1,0.5,8.2-0.6,11.9-2.2
						C845.3,323.4,848.7,321.1,852.1,318.8"/>
				</g>
			</g>
			<g>
				<g>
					<path class="st0" d="M866.2,318.9c-3.9-2.6-7.9-5.2-12.5-6.2c-4.5-1.1-9.8-0.3-13,3.2c3.7,2.2,8.1,2.4,12.4,2.4
						c4.3,0,9.5-0.1,13.5,1.4"/>
				</g>
			</g>
			<g>
				<g>
					<path class="st0" d="M866.2,319.1c-6.7-6.6-9.2-18.3-6.5-27.3C864.9,299.8,867.3,309.6,866.2,319.1"/>
				</g>
			</g>
			<g>
				<g>
					<path class="st0" d="M884.6,300.5c1.3-2.9,2.1-6,3.3-9s2.5-5.9,4.7-8.3c2.1-2.4,5.1-4.1,8.3-4.3c-2,9-8,17.1-16,21.6"/>
				</g>
			</g>
			<g>
				<g>
					<path class="st0" d="M881.2,304.4c-2.1-2.9-4.5-6.8-7.3-8.9c-2.8-2.1-6.5-3.4-10-2.6C867.5,299.2,874.1,303.6,881.2,304.4"/>
				</g>
			</g>
			<g>
				<g>
					<path class="st0" d="M881.9,300.8c-1.4-3.5-2.7-7-3.3-10.7s-0.2-7.6,1.7-10.8c3.7,6.9,4.8,14.4,1.8,21.6"/>
				</g>
			</g>
			<g>
				<g>
					<path class="st0" d="M884.6,279.3c2.1-6.9,8.4-11.9,15.2-14.2c0.9-0.3,1.8-0.5,2.7-0.4c0.9,0.1,1.8,0.7,2,1.6
						c0.2,1.2-0.7,2.2-1.6,3C897.5,273.8,891.2,277.2,884.6,279.3"/>
				</g>
			</g>
			<g>
				<g>
					<path class="st0" d="M884.7,273.7c0.3-4.4,0.5-8.9,2-13.1c1.4-4.2,4.2-8.1,8.3-10c0.7,4.5-1.3,8.9-3.7,12.8
						c-2.4,3.8-5.2,7.5-6.7,11.8"/>
				</g>
			</g>
			<g>
				<g>
					<path class="st0" d="M884.6,276.7c-1.7-5-1.9-11.4-4.9-15.7c-2.1-3-5.4-5.1-7.3-8.4c-1.2,3-0.8,6.5,0.4,9.5
						c1.3,3,3.3,5.6,5.5,7.9C880.6,272.4,882.5,274.2,884.6,276.7"/>
				</g>
			</g>
			<g>
				<g>
					<g>
						<path class="st0" d="M884.6,424.1c-0.1,0-0.2-33.4-0.3-74.6c0-41.2,0.1-74.6,0.2-74.6c0.1,0,0.2,33.4,0.3,74.6
							C884.8,390.7,884.7,424.1,884.6,424.1z"/>
					</g>
				</g>
			</g>
			<g>
				<g>
					<g>
						<path class="st0" d="M913.8,324.1c0,0-0.4,0.2-1.3,0.5c-0.9,0.3-2.1,0.7-3.5,1.2c-2.9,1-6.9,2.4-11.3,4.2
							c-4.3,1.8-8.4,3.3-10.7,5.3c-1.2,1-1.8,2.1-2.1,2.8c-0.3,0.8-0.4,1.3-0.4,1.3c0,0,0-0.1,0-0.4c0-0.2,0.1-0.6,0.2-1
							c0.3-0.8,0.9-2,2.1-3c1.2-1.1,2.8-2,4.6-2.9c1.9-0.9,3.9-1.8,6.1-2.7c4.4-1.8,8.4-3.2,11.3-4.1c1.5-0.5,2.7-0.8,3.5-1
							C913.3,324.1,913.8,324,913.8,324.1z"/>
					</g>
				</g>
			</g>
			<g>
				<g>
					<g>
						<path class="st0" d="M923.3,300.6c0,0-0.1,0.1-0.4,0.4c-0.3,0.3-0.6,0.6-1.1,1c-1,0.9-2.3,2.1-4,3.6
							c-3.5,3.1-8.1,7.2-13.3,11.9c-5.2,4.6-9.7,9-12.8,12.4c-1.6,1.7-2.8,3-3.6,4c-0.4,0.4-0.7,0.8-1,1.1c-0.2,0.3-0.3,0.4-0.4,0.4
							c0,0,0.1-0.2,0.3-0.4c0.2-0.3,0.5-0.7,0.9-1.2c0.8-1,2-2.4,3.5-4.1c3.1-3.4,7.5-7.9,12.7-12.5c5.2-4.6,10-8.8,13.4-11.7
							c1.7-1.5,3.1-2.6,4.1-3.5c0.5-0.4,0.8-0.7,1.1-0.9C923.2,300.7,923.3,300.6,923.3,300.6z"/>
					</g>
				</g>
			</g>
			<g>
				<g>
					<g>
						<path class="st0" d="M899,322.2c-0.1-0.1,0.9-2.6,2-5.7c1.1-3.2,1.6-5.8,1.7-5.8c0.1,0-0.2,2.8-1.3,6c-0.5,1.6-1.1,3-1.6,4
							C899.4,321.6,899.1,322.2,899,322.2z"/>
					</g>
				</g>
			</g>
			<g>
				<g>
					<g>
						<path class="st0" d="M884.6,342.4c0,0-0.3-0.3-0.8-0.9c-0.5-0.7-1.2-1.6-2.1-2.6c-1.7-2.2-4.1-5.3-6.8-8.7
							c-2.7-3.4-5.1-6.4-6.9-8.6c-0.8-1-1.5-1.9-2.1-2.6c-0.5-0.6-0.7-1-0.7-1c0,0,0.3,0.3,0.9,0.9c0.5,0.6,1.3,1.4,2.2,2.5
							c1.8,2.1,4.3,5.1,7,8.5c2.7,3.4,5,6.5,6.7,8.8c0.8,1.1,1.5,2.1,1.9,2.7C884.4,342,884.7,342.3,884.6,342.4z"/>
					</g>
				</g>
			</g>
			<g>
				<g>
					<g>
						<path class="st0" d="M878.2,334.1c-0.1,0.1-1.8-1.9-2.7-5c-0.7-2.2-0.7-4.2-0.6-5.1l0.2,0c-0.1,0.4-0.2,0.6-0.2,0.6
							c0,0,0-0.2,0-0.6l0.2,0c0.1,0.9,0.2,2.8,0.9,4.9C876.9,332,878.4,334.1,878.2,334.1z"/>
					</g>
				</g>
			</g>
			<g>
				<g>
					<g>
						<path class="st0" d="M870,323.8c-0.1,0.1-0.6-0.6-1.9-1.1c-1.2-0.5-3.1-0.6-5.2-0.4c-2.1,0.2-3.9,0.5-5.2,0.8
							c-1.3,0.3-2.1,0.6-2.2,0.5c0-0.1,0.7-0.4,2.1-0.8c1.3-0.4,3.2-0.8,5.3-1c2.1-0.2,4.1,0,5.4,0.6
							C869.5,322.9,870,323.7,870,323.8z"/>
					</g>
				</g>
			</g>
			<g>
				<g>
					<g>
						<path class="st0" d="M868,321.2c0,0.1-1.1-0.4-2.9-1c-1.8-0.6-4.3-1.2-7.2-1.5c-2.9-0.2-5.4,0-7.3,0.4c-1.8,0.3-3,0.7-3,0.6
							c0,0,0.3-0.1,0.8-0.3c0.5-0.2,1.2-0.4,2.2-0.6c1.9-0.4,4.5-0.7,7.4-0.5c2.9,0.2,5.5,0.9,7.2,1.6c0.9,0.3,1.6,0.7,2,0.9
							C867.8,321.1,868,321.2,868,321.2z"/>
					</g>
				</g>
			</g>
			<g>
				<g>
					<g>
						<path class="st0" d="M884.6,310.6c-0.1,0-1.1-3.2-2.1-7.3c-1-4-1.8-7.3-1.6-7.4c0.1,0,1.1,3.2,2.1,7.3
							C884,307.3,884.7,310.6,884.6,310.6z"/>
					</g>
				</g>
			</g>
			<g>
				<g>
					<g>
						<path class="st0" d="M884.7,310.6c-0.1,0-0.7-2.1-2.3-4.3c-1.5-2.3-3.5-3.4-3.4-3.5c0-0.1,0.6,0.1,1.3,0.7
							c0.8,0.5,1.7,1.4,2.5,2.6C884.4,308.3,884.8,310.6,884.7,310.6z"/>
					</g>
				</g>
			</g>
			<g>
				<g>
					<g>
						<path class="st0" d="M884.6,406.3c-0.1,0-0.2-0.8-0.5-2.2c-0.4-1.4-1.1-3.4-2.2-5.8c-2.3-4.7-6.5-10.7-11.8-16.7
							c-2.6-3-5.2-5.9-7.4-8.6c-2.2-2.7-4-5.3-5.3-7.6c-1.3-2.3-2.2-4.3-2.7-5.7c-0.2-0.7-0.4-1.2-0.5-1.6c-0.1-0.4-0.2-0.6-0.1-0.6
							c0,0,0.3,0.8,0.8,2.1c0.5,1.4,1.4,3.3,2.8,5.5c1.3,2.3,3.1,4.8,5.3,7.5c2.2,2.7,4.8,5.5,7.4,8.6c5.3,6,9.5,12.1,11.8,16.8
							c1.1,2.4,1.8,4.4,2.1,5.9c0.2,0.7,0.3,1.3,0.3,1.7C884.6,406.1,884.6,406.3,884.6,406.3z"/>
					</g>
				</g>
			</g>
			<g>
				<g>
					<g>
						<path class="st0" d="M911,376.5c0,0-0.5,0.3-1.4,0.8c-0.9,0.5-2.1,1.3-3.6,2.4c-1.4,1.1-3.1,2.6-4.7,4.3
							c-1.7,1.7-3.4,3.8-5.1,5.9c-3.5,4.4-6.7,8.2-8.7,11.3c-1,1.5-1.7,2.8-2.2,3.7c-0.5,0.9-0.7,1.4-0.8,1.4c0,0,0-0.1,0.1-0.4
							c0.1-0.2,0.2-0.6,0.5-1.1c0.4-0.9,1.1-2.3,2.1-3.8c1.9-3.2,5.1-7.1,8.6-11.4c1.7-2.2,3.5-4.2,5.1-5.9c1.7-1.7,3.3-3.2,4.8-4.3
							c1.5-1.1,2.8-1.8,3.7-2.3c0.5-0.2,0.8-0.4,1.1-0.5C910.8,376.5,911,376.5,911,376.5z"/>
					</g>
				</g>
			</g>
			<g>
				<g>
					<g>
						<path class="st0" d="M911.5,386.2c0,0.1-1.1,0.2-2.9,0.4c-1.8,0.2-4.3,0.5-6.9,1.4c-2.6,0.9-4.8,2.1-6.2,3.3
							c-1.4,1.1-2.1,2-2.2,2c0,0,0.1-0.3,0.4-0.7c0.3-0.4,0.8-1,1.5-1.6c1.4-1.2,3.6-2.6,6.3-3.4c2.7-0.9,5.2-1.1,7-1.2
							C910.3,386.1,911.5,386.1,911.5,386.2z"/>
					</g>
				</g>
			</g>
			<g>
				<g>
					<g>
						<path class="st0" d="M894.1,392.1c-0.2-0.1,1.2-2.1,2.2-4.8c1-2.7,1.2-5.1,1.4-5.1c0.1,0,0.1,0.6,0,1.6
							c-0.1,1-0.3,2.3-0.9,3.7c-0.5,1.4-1.2,2.6-1.7,3.4C894.5,391.7,894.2,392.1,894.1,392.1z"/>
					</g>
				</g>
			</g>
			<g>
				<g>
					<g>
						<path class="st0" d="M919.5,350.6c0,0-0.2,0.1-0.5,0.2c-0.4,0.2-0.8,0.4-1.4,0.6c-0.6,0.3-1.3,0.6-2.2,1
							c-0.8,0.4-1.8,0.9-2.8,1.5c-0.5,0.3-1,0.6-1.6,0.9c-0.6,0.3-1.1,0.7-1.7,1.1c-1.2,0.7-2.4,1.6-3.6,2.5c-2.5,1.9-5,4.1-7.5,6.6
							c-2.5,2.6-4.6,5.2-6.4,7.8c-0.9,1.3-1.7,2.5-2.4,3.7c-0.3,0.6-0.7,1.2-1,1.7c-0.3,0.6-0.6,1.1-0.9,1.6c-0.6,1-1,2-1.4,2.8
							c-0.4,0.8-0.7,1.6-0.9,2.2c-0.2,0.6-0.4,1-0.6,1.4c-0.1,0.3-0.2,0.5-0.2,0.5c0,0,0-0.2,0.1-0.5c0.1-0.4,0.3-0.8,0.5-1.4
							c0.2-0.6,0.5-1.4,0.9-2.2c0.4-0.9,0.8-1.8,1.3-2.9c0.3-0.5,0.5-1.1,0.8-1.6c0.3-0.6,0.6-1.1,1-1.7c0.7-1.2,1.5-2.4,2.3-3.7
							c1.8-2.6,3.9-5.2,6.4-7.8c2.5-2.6,5.1-4.8,7.6-6.6c1.3-0.9,2.5-1.8,3.7-2.5c0.6-0.4,1.1-0.7,1.7-1c0.6-0.3,1.1-0.6,1.6-0.9
							c1-0.6,2-1,2.8-1.4c0.8-0.4,1.6-0.7,2.2-0.9c0.6-0.2,1-0.4,1.4-0.5C919.3,350.6,919.5,350.6,919.5,350.6z"/>
					</g>
				</g>
			</g>
			<g>
				<g>
					<g>
						<path class="st0" d="M898.6,364.5c0,0,0.2-0.8,1.1-1.7c0.9-0.9,2.6-1.7,4.6-1.8c2-0.1,3.7,0.5,4.9,1c1.2,0.5,1.9,0.8,1.8,0.9
							c0,0.1-0.8-0.2-2-0.6c-1.2-0.4-2.9-0.8-4.7-0.8c-1.9,0.1-3.5,0.8-4.4,1.5C899.1,363.9,898.7,364.6,898.6,364.5z"/>
					</g>
				</g>
			</g>
			<g>
				<g>
					<g>
						<path class="st0" d="M895.5,367.8c-0.1-0.1,1-1.8,1.3-4.3c0.3-2.5-0.4-4.4-0.3-4.5c0.1,0,0.3,0.4,0.5,1.2
							c0.2,0.8,0.4,2,0.2,3.3c-0.2,1.3-0.6,2.4-1,3.1C895.9,367.4,895.6,367.8,895.5,367.8z"/>
					</g>
				</g>
			</g>
		</g>
		<g>
			<g>
				<path class="st0" d="M861.5,411.1c0.7,12.8,4.6,25.7,10.5,38.9h25.7c5.6-13,9.2-25.9,9.9-38.9H861.5z"/>
			</g>
		</g>
		<g>
			<g>
				<g>
					<path class="st1" d="M903.4,431.7c0,0.1-8.5,0.2-18.9,0.2c-10.4,0-18.9-0.1-18.9-0.2s8.5-0.2,18.9-0.2
						C895,431.5,903.4,431.6,903.4,431.7z"/>
				</g>
			</g>
		</g>
		<g>
			<g>
				<g>
					<path class="st1" d="M902.9,436.3c0,0.1-7.9,0.2-17.7,0.2c-9.8,0-17.7-0.1-17.7-0.2c0-0.1,7.9-0.2,17.7-0.2
						C894.9,436.1,902.9,436.2,902.9,436.3z"/>
				</g>
			</g>
		</g>
		<g>
			<g>
				<g>
					<path class="st1" d="M872.4,419.4c0.1,0,0.2,2.7,0.2,5.9c0,3.3-0.1,5.9-0.2,5.9c-0.1,0-0.2-2.7-0.2-5.9
						C872.2,422.1,872.3,419.4,872.4,419.4z"/>
				</g>
			</g>
		</g>
		<g>
			<g>
				<g>
					<path class="st1" d="M886.2,419.4c0.1,0,0.2,2.7,0.2,6.1c0,3.4-0.1,6.1-0.2,6.1c-0.1,0-0.2-2.7-0.2-6.1
						C886,422.2,886.1,419.4,886.2,419.4z"/>
				</g>
			</g>
		</g>
		<g>
			<g>
				<g>
					<path class="st1" d="M899.2,419.3c0.1,0,0.2,2.8,0.2,6.3c0,3.5-0.1,6.3-0.2,6.3c-0.1,0-0.2-2.8-0.2-6.3
						C898.9,422.1,899,419.3,899.2,419.3z"/>
				</g>
			</g>
		</g>
		<g>
			<g>
				<g>
					<path class="st1" d="M906.8,419.4c0,0.1-9.9,0.2-22.2,0.2c-12.3,0-22.2-0.1-22.2-0.2s9.9-0.2,22.2-0.2
						C896.8,419.2,906.8,419.3,906.8,419.4z"/>
				</g>
			</g>
		</g>
	</g>
	<g>
		<g>
			<g>
				<path class="st2" d="M382.7,247c2.7-1.6,5.5-2.8,8.4-3.7l1.7-8.3l14.1-0.2l2,8.3c2.9,0.7,5.8,1.8,8.5,3.4l7.1-4.7l10.1,9.8
					l-4.4,7.3c1.6,2.7,2.8,5.5,3.7,8.4l8.3,1.7l0.2,14.1l-8.3,2c-0.7,2.9-1.8,5.8-3.4,8.5l4.7,7.1l-9.8,10.1l-7.3-4.4
					c-2.7,1.6-5.5,2.8-8.4,3.7l-1.7,8.3l-14.1,0.2l-2-8.3c-2.9-0.7-5.8-1.8-8.5-3.4l-7.1,4.7l-10.1-9.8l4.4-7.3
					c-1.6-2.7-2.8-5.5-3.7-8.4l-8.3-1.7l-0.2-14.1l8.3-2c0.7-2.9,1.8-5.8,3.4-8.5l-4.7-7.1l9.8-10.1L382.7,247L382.7,247z
					 M390.2,265.8c-5.8,6-5.6,15.6,0.4,21.3c6,5.8,15.6,5.6,21.3-0.4c5.8-6,5.6-15.6-0.4-21.3C405.5,259.6,396,259.8,390.2,265.8z"
					/>
			</g>
		</g>
	</g>
	<g>
		<g>
			<g>
				<path class="st0" d="M287.6,56.5c1.7-1,3.5-1.8,5.3-2.3l1.1-5.3l8.9-0.2l1.3,5.2c1.9,0.5,3.7,1.2,5.4,2.1l4.5-3l6.4,6.2
					l-2.8,4.6c1,1.7,1.8,3.5,2.3,5.3l5.3,1.1l0.2,8.9l-5.2,1.3c-0.5,1.9-1.2,3.7-2.1,5.4l3,4.5l-6.2,6.4l-4.6-2.8
					c-1.7,1-3.5,1.8-5.3,2.3l-1.1,5.3l-8.9,0.2l-1.3-5.2c-1.9-0.5-3.7-1.2-5.4-2.1l-4.5,3l-6.4-6.2l2.8-4.6c-1-1.7-1.8-3.5-2.3-5.3
					l-5.3-1.1l-0.2-8.9l5.2-1.3c0.5-1.9,1.2-3.7,2.1-5.4l-3-4.5l6.2-6.4L287.6,56.5L287.6,56.5z M292.3,68.4
					c-3.7,3.8-3.6,9.9,0.2,13.5c3.8,3.7,9.9,3.6,13.5-0.2c3.7-3.8,3.6-9.9-0.2-13.5C302.1,64.5,296,64.6,292.3,68.4z"/>
			</g>
		</g>
	</g>
	<g>
		<g>
			<g>
				<path class="st0" d="M852.7,60.8c2.3-1.4,4.7-2.4,7.2-3.1l1.5-7.1l12-0.2l1.7,7.1c2.5,0.6,5,1.6,7.3,2.9l6.1-4l8.6,8.3l-3.8,6.2
					c1.4,2.3,2.4,4.7,3.1,7.2l7.1,1.5l0.2,12l-7.1,1.7c-0.6,2.5-1.6,5-2.9,7.3l4,6.1l-8.3,8.6l-6.2-3.8c-2.3,1.4-4.7,2.4-7.2,3.1
					l-1.5,7.1l-12,0.2l-1.7-7.1c-2.5-0.6-5-1.6-7.3-2.9l-6.1,4l-8.6-8.3l3.8-6.2c-1.4-2.3-2.4-4.7-3.1-7.2l-7.1-1.5l-0.2-12l7.1-1.7
					c0.6-2.5,1.6-5,2.9-7.3l-4-6.1l8.3-8.6L852.7,60.8L852.7,60.8z M859.1,76.8c-4.9,5.1-4.8,13.3,0.3,18.2
					c5.1,4.9,13.3,4.8,18.2-0.3c4.9-5.1,4.8-13.3-0.3-18.2C872.2,71.5,864.1,71.6,859.1,76.8z"/>
			</g>
		</g>
	</g>
	<g>
		<g>
			<g>
				<path class="st3" d="M682.9,251.7c2-1.2,4.1-2.1,6.2-2.7l1.3-6.1l10.4-0.2l1.5,6.1c2.2,0.5,4.3,1.4,6.3,2.5l5.2-3.4l7.5,7.2
					l-3.3,5.4c1.2,2,2.1,4.1,2.7,6.2l6.1,1.3l0.2,10.4l-6.1,1.5c-0.5,2.2-1.4,4.3-2.5,6.3l3.4,5.2l-7.2,7.5l-5.4-3.3
					c-2,1.2-4.1,2.1-6.2,2.7l-1.3,6.1l-10.4,0.2l-1.5-6.1c-2.2-0.5-4.3-1.4-6.3-2.5l-5.2,3.4l-7.5-7.2l3.3-5.4
					c-1.2-2-2.1-4.1-2.7-6.2l-6.1-1.3l-0.2-10.4l6.1-1.5c0.5-2.2,1.4-4.3,2.5-6.3l-3.4-5.2l7.2-7.5L682.9,251.7L682.9,251.7z
					 M688.5,265.5c-4.3,4.4-4.1,11.5,0.3,15.7c4.4,4.3,11.5,4.1,15.7-0.3c4.3-4.4,4.1-11.5-0.3-15.7
					C699.8,261,692.7,261.1,688.5,265.5z"/>
			</g>
		</g>
	</g>
	<g>
		<g>
			<g>
				<path class="st0" d="M896,20.8c0.9-0.5,1.9-1,2.8-1.2l0.6-2.8l4.7-0.1l0.7,2.8c1,0.2,2,0.6,2.9,1.1l2.4-1.6l3.4,3.3l-1.5,2.4
					c0.5,0.9,1,1.9,1.2,2.8l2.8,0.6l0.1,4.7l-2.8,0.7c-0.2,1-0.6,2-1.1,2.9l1.6,2.4l-3.3,3.4l-2.4-1.5c-0.9,0.5-1.9,1-2.8,1.2
					l-0.6,2.8l-4.7,0.1l-0.7-2.8c-1-0.2-2-0.6-2.9-1.1l-2.4,1.6l-3.4-3.3l1.5-2.4c-0.5-0.9-1-1.9-1.2-2.8l-2.8-0.6l-0.1-4.7l2.8-0.7
					c0.2-1,0.6-2,1.1-2.9l-1.6-2.4l3.3-3.4L896,20.8L896,20.8z M898.5,27.2c-2,2-1.9,5.2,0.1,7.2c2,2,5.2,1.9,7.2-0.1
					c2-2,1.9-5.2-0.1-7.2C903.7,25.1,900.5,25.1,898.5,27.2z"/>
			</g>
		</g>
	</g>
	<g>
		<g>
			<g>
				<path class="st3" d="M890.3,168.6c0.9-0.5,1.9-1,2.8-1.2l0.6-2.8l4.7-0.1l0.7,2.8c1,0.2,2,0.6,2.9,1.1l2.4-1.6l3.4,3.3l-1.5,2.4
					c0.5,0.9,1,1.9,1.2,2.8l2.8,0.6l0.1,4.7l-2.8,0.7c-0.2,1-0.6,2-1.1,2.9l1.6,2.4l-3.3,3.4l-2.4-1.5c-0.9,0.5-1.9,1-2.8,1.2
					l-0.6,2.8l-4.7,0.1l-0.7-2.8c-1-0.2-2-0.6-2.9-1.1l-2.4,1.6l-3.4-3.3l1.5-2.4c-0.5-0.9-1-1.9-1.2-2.8l-2.8-0.6l-0.1-4.7l2.8-0.7
					c0.2-1,0.6-2,1.1-2.9l-1.6-2.4l3.3-3.4L890.3,168.6L890.3,168.6z M892.8,174.9c-2,2-1.9,5.2,0.1,7.2s5.2,1.9,7.2-0.1
					c2-2,1.9-5.2-0.1-7.2C898,172.9,894.8,172.9,892.8,174.9z"/>
			</g>
		</g>
	</g>
	<g>
		<g>
			<g>
				<path class="st3" d="M407.9,349.2c1.2-0.7,2.5-1.3,3.8-1.7l0.8-3.8l6.4-0.1l0.9,3.8c1.3,0.3,2.7,0.8,3.9,1.5l3.2-2.1l4.6,4.5
					l-2,3.3c0.7,1.2,1.3,2.5,1.7,3.8l3.8,0.8l0.1,6.4l-3.8,0.9c-0.3,1.3-0.8,2.7-1.5,3.9l2.1,3.3l-4.5,4.6l-3.3-2
					c-1.2,0.7-2.5,1.3-3.8,1.7l-0.8,3.8l-6.4,0.1l-0.9-3.8c-1.3-0.3-2.7-0.8-3.9-1.5l-3.2,2.1l-4.6-4.5l2-3.3
					c-0.7-1.2-1.3-2.5-1.7-3.8l-3.8-0.8l-0.1-6.4l3.8-0.9c0.3-1.3,0.8-2.7,1.5-3.9l-2.1-3.2l4.5-4.6L407.9,349.2L407.9,349.2z
					 M411.4,357.8c-2.6,2.7-2.6,7.1,0.2,9.8c2.7,2.6,7.1,2.6,9.8-0.2c2.6-2.7,2.6-7.1-0.2-9.8C418.4,355,414,355.1,411.4,357.8z"/>
			</g>
		</g>
	</g>
	<g>
		<g>
			<g>
				<g>
					<g>
						<g>
							<g>
								<g>
									<polygon class="st3" points="566.6,422.1 566.6,449.7 607,449.7 651.5,449.7 651.5,422.1 									"/>
								</g>
							</g>
						</g>
					</g>
				</g>
			</g>
			<g>
				<g>
					<g>
						<g>
							<g>
								<g>
									<polygon class="st0" points="563.1,414.4 563.1,422.1 654.5,422.1 654.5,414.4 607,414.4 									"/>
								</g>
							</g>
						</g>
					</g>
				</g>
			</g>
			<g>
				<g>
					<g>
						<g>
							<g>
								<g>
									<polygon class="st0" points="608.8,449.7 651.5,449.7 651.5,422.1 654.5,422.1 654.5,414.4 607,414.4 607,421.4 									
										"/>
								</g>
							</g>
						</g>
					</g>
				</g>
			</g>
			<g>
				<g>
					<g>
						<g>
							<g>
								<g>
									<rect x="578.5" y="426.5" class="st0" width="17.2" height="4.2"/>
								</g>
							</g>
						</g>
					</g>
				</g>
			</g>
			<g>
				<g>
					<g>
						<g>
							<g>
								<g>
									<rect x="576.3" y="435.9" class="st4" width="22.1" height="8.8"/>
								</g>
							</g>
						</g>
					</g>
				</g>
			</g>
		</g>
	</g>
	<g>
		<g>
			<g>
				<g>
					<g>
						<g>
							<g>
								<g>
									<polygon class="st3" points="579.7,386.8 579.7,414.4 620.1,414.4 664.6,414.4 664.6,386.8 									"/>
								</g>
							</g>
						</g>
					</g>
				</g>
			</g>
			<g>
				<g>
					<g>
						<g>
							<g>
								<g>
									<polygon class="st0" points="576.1,379.1 576.1,386.8 667.6,386.8 667.6,379.1 620.1,379.1 									"/>
								</g>
							</g>
						</g>
					</g>
				</g>
			</g>
			<g>
				<g>
					<g>
						<g>
							<g>
								<g>
									<polygon class="st0" points="621.8,414.4 664.6,414.4 664.6,386.8 667.6,386.8 667.6,379.1 620.1,379.1 620.1,386.1 
																			"/>
								</g>
							</g>
						</g>
					</g>
				</g>
			</g>
			<g>
				<g>
					<g>
						<g>
							<g>
								<g>
									<rect x="591.6" y="391.3" class="st0" width="17.2" height="4.2"/>
								</g>
							</g>
						</g>
					</g>
				</g>
			</g>
			<g>
				<g>
					<g>
						<g>
							<g>
								<g>
									<rect x="589.4" y="400.6" class="st4" width="22.1" height="8.8"/>
								</g>
							</g>
						</g>
					</g>
				</g>
			</g>
		</g>
	</g>
	<g>
		<g>
			<g>
				<path class="st5" d="M930.9,449.7c0,0.1-150.6,0.3-336.4,0.3c-185.8,0-336.4-0.1-336.4-0.3c0-0.1,150.6-0.3,336.4-0.3
					C780.3,449.4,930.9,449.5,930.9,449.7z"/>
			</g>
		</g>
	</g>
	<g>
		<g>
			<g>
				<path class="st5" d="M326.1,420.6c0,0-4.3-29.6-3.9-46.8c0.4-17.2,0-36.6,0-36.6h2c0,0-1.3,34.2,0.1,54.8
					c1.5,20.6,5.3,28.6,5.3,28.6H326.1"/>
			</g>
			<g>
				<path class="st6" d="M338.9,304c-0.4-1-0.9-2.1-1.8-2.6c-1.3-0.8-2.9-0.5-4.3,0c-6,2.1-11.3,13.3-13.7,19.2l8,26.8
					C341.4,334,343.9,316.5,338.9,304z"/>
			</g>
			<g>
				<g>
					<path class="st5" d="M336.7,302.4c0,0,0,0.1-0.1,0.3c-0.1,0.3-0.2,0.6-0.4,1c-0.3,0.8-0.8,2.1-1.4,3.6c-1.2,3-2.7,7.3-4,12.1
						c-1.3,4.8-2.2,9.2-2.8,12.4c-0.3,1.6-0.5,2.9-0.6,3.8c-0.1,0.4-0.1,0.8-0.2,1c0,0.2-0.1,0.4-0.1,0.4c0,0,0-0.1,0-0.4
						c0-0.3,0.1-0.6,0.1-1c0.1-0.9,0.3-2.2,0.5-3.8c0.5-3.2,1.4-7.7,2.7-12.5c1.3-4.8,2.9-9.1,4.1-12.1c0.6-1.5,1.1-2.7,1.5-3.6
						c0.2-0.4,0.3-0.7,0.4-1C336.6,302.5,336.6,302.4,336.7,302.4z"/>
				</g>
			</g>
			<g>
				<path class="st6" d="M323.5,353.7c-7.5-4.1-11.8-11.9-12.3-20.4c-0.3-5.9,1.5-11.8,3.6-17.4c0.2-0.5,0.4-1,0.8-1.3
					c0.6-0.4,1.4,0,2,0.3c5.4,3.1,8.7,9,10.4,14.9c1.2,4,1.8,8.2,1.2,12.3C328.9,346.4,326.5,350.9,323.5,353.7"/>
			</g>
			<g>
				<g>
					<path class="st5" d="M323.5,353.7c0,0,0-0.1,0-0.4c0-0.3,0-0.6,0-1c0-0.9,0-2.2-0.1-3.8c-0.1-3.2-0.6-7.6-1.4-12.4
						c-0.8-4.8-1.8-9.1-2.6-12.2c-0.4-1.5-0.7-2.8-0.9-3.7c-0.1-0.4-0.2-0.7-0.2-1c0-0.2-0.1-0.4-0.1-0.4c0,0,0.1,0.1,0.1,0.3
						c0.1,0.3,0.2,0.6,0.3,1c0.2,0.9,0.6,2.1,1,3.7c0.8,3.1,1.8,7.4,2.7,12.2c0.8,4.8,1.2,9.2,1.3,12.4c0,1.6,0,2.9,0,3.8
						c0,0.4,0,0.8,0,1C323.5,353.6,323.5,353.7,323.5,353.7z"/>
				</g>
			</g>
			<g class="st7">
				<g>
					<path d="M323.5,353.7c-7.5-4.1-11.8-11.9-12.3-20.4c-0.3-5.9,1.5-11.8,3.6-17.4c0.2-0.5,0.4-1,0.8-1.3c0.6-0.4,1.4,0,2,0.3
						c5.4,3.1,8.7,9,10.4,14.9c1.2,4,1.8,8.2,1.2,12.3C328.9,346.4,326.5,350.9,323.5,353.7"/>
				</g>
			</g>
			<g>
				<path class="st6" d="M331.9,399c7.3,1.6,13.4,6.8,20.5,9.3c4.7,1.7,10,2.3,13.7,5.5c-0.9-2.3-3-3.8-5.1-5.1
					c-5.8-3.6-12.1-6.6-18.5-8.8c-3.3-1.1-6.9-2.1-10.3-1.2"/>
			</g>
			<g>
				<path class="st6" d="M321.3,405.5c-9.2-0.1-18.9-8-28-8.4C302.9,394,316.6,396.5,321.3,405.5"/>
			</g>
			<g>
				<path class="st6" d="M324.9,383.5c4.7-1.7,9.8-1.8,14.7-1c4.9,0.8,9.6,2.3,14.3,3.9c-0.5-3.2-3.1-5.6-5.5-7.7
					c-1.8-1.6-3.7-3.2-5.8-4.4c-2.1-1.2-4.5-2.1-6.9-1.9c-2.9,0.1-5.7,1.6-7.6,3.8C326.3,378.4,325.2,380.6,324.9,383.5"/>
			</g>
			<g>
				<path class="st6" d="M306.1,373.3c-5.8-4.9-14.5-4.5-22.1-4.3c11.7,5.6,24.3,13.2,34.3,21.4
					C318.6,385.1,313.4,379.6,306.1,373.3z"/>
			</g>
			<g class="st7">
				<g>
					<path d="M306.1,373.3c-5.8-4.9-14.5-4.5-22.1-4.3c11.7,5.6,24.3,13.2,34.3,21.4C318.6,385.1,313.4,379.6,306.1,373.3z"/>
				</g>
			</g>
			<g>
				<path class="st6" d="M327.5,366.5c2.9-1.9,5.8-3.8,8.9-5.2c3-1.4,5.9-3.6,8.8-5.2c3.8-2.1,7.1-4.9,10.6-7.5
					c3.5-2.6,7.3-4.9,11.6-5.5c-3.5-0.7-7.1-0.3-10.6,0.6c-3.4,0.9-6.7,2.4-10,3.9c-4.5,2-9.1,4.1-12.8,7.4
					C330.4,358.3,327.1,361.6,327.5,366.5"/>
			</g>
			<g>
				<g>
					<path class="st5" d="M352.2,405.5c0,0-0.1,0-0.3-0.1c-0.2-0.1-0.5-0.2-0.8-0.4c-0.7-0.4-1.7-0.9-2.9-1.5c-0.6-0.3-1.3-0.7-2-1
						c-0.7-0.4-1.5-0.7-2.4-1.1c-1.7-0.7-3.6-1.5-5.7-2c-2.1-0.5-4.1-0.6-5.9-0.1c-0.9,0.2-1.7,0.4-2.5,0.7c-0.8,0.3-1.4,0.7-2,1
						c-1.2,0.7-2,1.5-2.5,2.1c-0.5,0.6-0.8,0.9-0.8,0.9c0,0,0-0.1,0.2-0.3c0.1-0.2,0.3-0.4,0.6-0.7c0.5-0.6,1.3-1.4,2.5-2.2
						c0.6-0.4,1.3-0.8,2-1.1c0.8-0.3,1.6-0.6,2.5-0.8c1.8-0.5,4-0.4,6,0.1c2.1,0.5,4,1.3,5.7,2c0.8,0.4,1.6,0.7,2.4,1.1
						c0.7,0.4,1.4,0.7,2,1.1c1.2,0.7,2.2,1.2,2.9,1.6c0.3,0.2,0.6,0.3,0.8,0.5C352.1,405.5,352.2,405.5,352.2,405.5z"/>
				</g>
			</g>
			<g>
				<g>
					<path class="st5" d="M314.5,401c0,0,0.2,0,0.6,0.2c0.4,0.1,0.9,0.3,1.5,0.7c1.2,0.6,2.9,1.7,4.4,3.1c1.5,1.5,2.6,3.1,3.3,4.3
						c0.3,0.6,0.6,1.1,0.7,1.5c0.1,0.4,0.2,0.6,0.2,0.6c-0.1,0-0.4-0.8-1.1-1.9c-0.7-1.2-1.8-2.7-3.3-4.1c-1.5-1.4-3.1-2.5-4.3-3.1
						C315.2,401.3,314.4,401,314.5,401z"/>
				</g>
			</g>
			<g>
				<g>
					<path class="st5" d="M294.1,372.9c0,0,0.1,0,0.4,0.1c0.3,0.1,0.6,0.2,1.1,0.4c0.5,0.2,1.1,0.4,1.7,0.6c0.7,0.3,1.4,0.6,2.2,1
						c3.3,1.5,7.7,4,12,7.6c2.1,1.8,4,3.7,5.6,5.5c1.6,1.8,2.9,3.5,4,5c1,1.5,1.8,2.7,2.4,3.6c0.3,0.4,0.5,0.7,0.6,1
						c0.1,0.2,0.2,0.3,0.2,0.4c0,0-0.1-0.1-0.3-0.3c-0.2-0.2-0.4-0.5-0.7-1c-0.6-0.8-1.4-2.1-2.5-3.5c-1.1-1.5-2.4-3.2-4-5
						c-1.6-1.8-3.5-3.6-5.6-5.4c-4.2-3.6-8.6-6.1-11.8-7.7c-0.8-0.4-1.5-0.8-2.2-1c-0.7-0.3-1.2-0.5-1.7-0.7
						c-0.4-0.2-0.8-0.3-1.1-0.4C294.3,373,294.1,372.9,294.1,372.9z"/>
				</g>
			</g>
			<g>
				<g>
					<path class="st5" d="M338.7,378.3c0,0-0.3,0-0.7-0.1c-0.3,0-0.5-0.1-0.8-0.2c-0.3-0.1-0.7-0.1-1.1-0.1c-1.7-0.1-4.1,0-6.3,1.2
						c-1.1,0.6-2.1,1.4-2.9,2.1c-0.8,0.8-1.4,1.6-1.8,2.3c-0.9,1.4-1.2,2.4-1.3,2.4c0,0,0-0.3,0.2-0.7c0.2-0.4,0.4-1.1,0.9-1.8
						c0.4-0.7,1-1.6,1.8-2.4c0.8-0.8,1.8-1.6,2.9-2.2c2.3-1.3,4.8-1.4,6.5-1.2c0.4,0.1,0.8,0.1,1.1,0.2c0.3,0.1,0.6,0.1,0.8,0.2
						C338.4,378.2,338.7,378.3,338.7,378.3z"/>
				</g>
			</g>
			<g>
				<g>
					<path class="st5" d="M347.9,349.7c0,0-0.1,0.1-0.3,0.2c-0.3,0.1-0.6,0.3-1,0.6c-0.9,0.5-2.2,1.2-3.7,2.1
						c-1.6,0.9-3.4,2.1-5.3,3.5c-1.9,1.4-4,3-5.9,5c-0.9,1-1.8,2-2.4,3.1c-0.6,1.2-1.2,2.3-1.7,3.3c-1.1,2.1-1.9,4.1-2.6,5.8
						c-0.6,1.7-1,3.1-1.2,4.1c-0.2,1-0.3,1.5-0.4,1.5c0,0,0-0.1,0-0.4c0-0.3,0.1-0.7,0.2-1.2c0.2-1,0.5-2.4,1.1-4.1
						c0.6-1.7,1.4-3.7,2.5-5.9c0.5-1.1,1.1-2.2,1.7-3.4c0.6-1.2,1.5-2.2,2.5-3.2c1.9-2,4-3.6,6-5c2-1.4,3.8-2.5,5.4-3.4
						c1.6-0.9,2.9-1.6,3.8-2c0.4-0.2,0.8-0.4,1.1-0.5C347.8,349.7,347.9,349.7,347.9,349.7z"/>
				</g>
			</g>
			<g>
				<g>
					<path class="st5" d="M322.2,377.5c0,0-0.1-0.3-0.2-0.8c-0.1-0.6-0.2-1.3-0.4-2.1c-0.3-1.8-0.9-4.3-1.7-6.9
						c-0.8-2.6-1.9-4.9-2.6-6.6c-0.4-0.8-0.7-1.4-0.9-2c-0.2-0.5-0.3-0.7-0.3-0.7c0,0,0.2,0.2,0.4,0.7c0.2,0.4,0.6,1.1,1,1.9
						c0.8,1.6,1.9,3.9,2.7,6.6c0.9,2.7,1.4,5.1,1.7,7c0.1,0.9,0.2,1.6,0.3,2.1C322.2,377.2,322.2,377.5,322.2,377.5z"/>
				</g>
			</g>
			<g>
				<path class="st6" d="M321.5,356.6c-0.2-3.5-1.4-6.8-3-9.9c-4.5-8.4-12.8-14.7-22.2-16.5c6.8,10.2,13.7,20.4,20.5,30.6l2.7,5.5
					C321.3,363.2,321.7,360.1,321.5,356.6z"/>
			</g>
		</g>
		<g>
			<g>
				<g>
					<rect x="303.2" y="416.9" class="st8" width="47.8" height="8.5"/>
				</g>
			</g>
			<g>
				<g>
					<polygon class="st8" points="306.8,423.7 310.8,450 342.5,450 347.4,423.7 					"/>
				</g>
			</g>
			<g>
				<g>
					<g>
						<path class="st5" d="M350.9,425.4c0,0.1-10.8,0.2-24.1,0.2c-13.3,0-24.1-0.1-24.1-0.2c0-0.1,10.8-0.2,24.1-0.2
							C340.2,425.3,350.9,425.3,350.9,425.4z"/>
					</g>
				</g>
			</g>
		</g>
	</g>
	<g>
		<g>
			<g>
				<g>
					<g>
						<g>
							<g>
								<g>
									<g>
										<g>
											<g>
												<g>
													<path class="st6" d="M512.2,445.6c-11,2.4-22.8,1.6-34-3.2c-13.7-5.9-24.3-16.7-29.9-30.5c-5.5-13.8-5.4-29,0.5-42.7
														c12.1-28.3,45-41.5,73.3-29.4l0,0c13.7,5.9,24.3,16.7,29.9,30.5c5.5,13.8,5.4,29-0.5,42.7
														C544.2,430.2,529.2,441.8,512.2,445.6z M489,340.2c-15.8,3.5-29.8,14.3-36.7,30.4c-5.5,12.8-5.6,26.9-0.4,39.8
														c5.2,12.9,15.1,23,27.9,28.5c12.8,5.5,26.9,5.6,39.8,0.4c12.9-5.2,23-15.1,28.5-27.9c5.5-12.8,5.6-26.9,0.4-39.8
														c-5.2-12.9-15.1-23-27.9-28.5C510.3,338.8,499.2,338,489,340.2z"/>
												</g>
											</g>
										</g>
									</g>
								</g>
							</g>
						</g>
					</g>
				</g>
				<g>
					<g>
						<g>
							<g>
								<g>
									<g>
										<g>
											<g>
												<g>
													<path class="st5" d="M512.2,445.6c-11,2.4-22.8,1.6-34-3.2c-13.7-5.9-24.3-16.7-29.9-30.5c-5.5-13.8-5.4-29,0.5-42.7
														c12.1-28.3,45-41.5,73.3-29.4l0,0c13.7,5.9,24.3,16.7,29.9,30.5c5.5,13.8,5.4,29-0.5,42.7
														C544.2,430.2,529.2,441.8,512.2,445.6z M489,340.2c-15.8,3.5-29.8,14.3-36.7,30.4c-5.5,12.8-5.6,26.9-0.4,39.8
														c5.2,12.9,15.1,23,27.9,28.5c12.8,5.5,26.9,5.6,39.8,0.4c12.9-5.2,23-15.1,28.5-27.9c5.5-12.8,5.6-26.9,0.4-39.8
														c-5.2-12.9-15.1-23-27.9-28.5C510.3,338.8,499.2,338,489,340.2z"/>
												</g>
											</g>
										</g>
									</g>
								</g>
							</g>
						</g>
					</g>
				</g>
				<g>
					<g>
						<g>
							<g>
								<g>
									<g>
										<g>
											<g>
												<g>
													<path class="st6" d="M510.3,447.9c-11,2.4-22.8,1.6-34-3.2c-13.7-5.9-24.3-16.7-29.9-30.5c-5.5-13.8-5.4-29,0.5-42.7
														c12.1-28.3,45-41.5,73.3-29.4l0,0c13.7,5.9,24.3,16.7,29.9,30.5c5.5,13.8,5.4,29-0.5,42.7
														C542.3,432.5,527.3,444.1,510.3,447.9z M487.1,342.6c-15.8,3.5-29.8,14.3-36.7,30.4c-5.5,12.8-5.6,26.9-0.4,39.8
														c5.2,12.9,15.1,23,27.9,28.5c12.8,5.5,26.9,5.6,39.8,0.4c12.9-5.2,23-15.1,28.5-27.9c5.5-12.8,5.6-26.9,0.4-39.8
														c-5.2-12.9-15.1-23-27.9-28.5C508.4,341.1,497.3,340.3,487.1,342.6z"/>
												</g>
											</g>
										</g>
									</g>
								</g>
							</g>
						</g>
					</g>
				</g>
			</g>
			<g>
				<g>
					<g>
						<g>
							<g>
								<g>
									<g>
										<g>
											<g>
												<g>
													<g>
														<g>
															<path class="st6" d="M638.7,444.5l-0.9,2.3c-0.8,2.1-4.4,2.6-6.6,1.7l-83.6-32.5l4.2-10.8l83.4,32.5
																C638.1,438.8,639.8,441.8,638.7,444.5z"/>
														</g>
													</g>
												</g>
											</g>
										</g>
									</g>
								</g>
							</g>
						</g>
					</g>
				</g>
			</g>
		</g>
		<g>
			<g>
				<g>
					<path class="st5" d="M523,372.3c0.1,0.1-10.5,8.9-23.7,19.5c-13.2,10.7-23.9,19.2-24,19.1c-0.1-0.1,10.5-8.9,23.7-19.5
						C512.1,380.7,522.9,372.1,523,372.3z"/>
				</g>
			</g>
		</g>
		<g>
			<g>
				<g>
					<path class="st5" d="M508.5,369c0.1,0.1-7.8,6.8-17.5,14.9c-9.8,8.1-17.8,14.6-17.9,14.5c-0.1-0.1,7.7-6.8,17.5-14.9
						C500.4,375.4,508.4,368.9,508.5,369z"/>
				</g>
			</g>
		</g>
		<g>
			<g>
				<g>
					<path class="st5" d="M521.8,389.3c0.1,0.1-5.3,4.7-12,10.3c-6.7,5.6-12.2,10-12.3,9.9c-0.1-0.1,5.3-4.7,12-10.3
						C516.2,393.6,521.7,389.2,521.8,389.3z"/>
				</g>
			</g>
		</g>
	</g>
	<g>
		<g>
			<g>
				<g>
					<path class="st3" d="M878.9,226.3c0.3,21.2-16.6,38.8-37.7,39.1c-21.1,0.3-38.6-16.7-38.9-37.9c-0.3-21.2,16.6-38.8,37.7-39.1
						C861.1,188.1,878.6,205.1,878.9,226.3z M822.3,227.3c0.2,10.2,8.5,18.3,18.6,18.1c10.1-0.2,18.2-8.6,18-18.7
						c-0.2-10.2-8.5-18.3-18.6-18.1C830.2,208.7,822.1,217.1,822.3,227.3z"/>
				</g>
			</g>
		</g>
		<g>
			<g>
				<g>
					<path class="st6" d="M878.9,226.3c0.3,21.2-16.6,38.8-37.7,39.1l-0.3-20.1c10.1-0.2,18.2-8.6,18-18.7
						c-0.2-10.2-8.5-18.3-18.6-18.1l-0.3-20.1C861.1,188.1,878.6,205.1,878.9,226.3z"/>
				</g>
			</g>
		</g>
		<g>
			<g>
				<g>
					<g>
						<path class="st9" d="M878.9,226.3c0.3,21.2-16.6,38.8-37.7,39.1c-21.1,0.3-38.6-16.7-38.9-37.9c-0.3-21.2,16.6-38.8,37.7-39.1
							C861.1,188.1,878.6,205.1,878.9,226.3z M822.3,227.3c0.2,10.2,8.5,18.3,18.6,18.1c10.1-0.2,18.2-8.6,18-18.7
							c-0.2-10.2-8.5-18.3-18.6-18.1C830.2,208.7,822.1,217.1,822.3,227.3z"/>
					</g>
				</g>
				<g>
					<g>
						<g>
							<path class="st5" d="M822.3,227.3c0,0,0-0.1,0-0.3c0-0.2,0-0.5,0-0.9c0-0.4,0-0.9,0.1-1.4c0.1-0.6,0.1-1.2,0.3-1.9
								c0.3-1.4,0.9-3.2,1.9-5c1-1.8,2.5-3.7,4.6-5.4c2.1-1.6,4.7-3,7.7-3.7c3-0.6,6.5-0.6,9.8,0.6c1.7,0.5,3.3,1.4,4.7,2.5
								c0.8,0.5,1.4,1.1,2.1,1.8c0.6,0.7,1.3,1.4,1.9,2.1c2.3,3,3.7,6.9,3.8,11c0,4-1.2,8-3.4,11.1c-0.5,0.8-1.2,1.5-1.8,2.2
								c-0.7,0.6-1.3,1.3-2.1,1.8c-1.4,1.1-3,2-4.7,2.6c-3.3,1.3-6.7,1.4-9.8,0.9c-3.1-0.5-5.7-1.8-7.8-3.4
								c-2.1-1.6-3.7-3.4-4.7-5.2c-1.1-1.8-1.7-3.5-2.1-4.9c-0.2-0.7-0.3-1.4-0.4-1.9c-0.1-0.6-0.1-1-0.1-1.4c0-0.4,0-0.6,0-0.9
								C822.3,227.4,822.3,227.3,822.3,227.3c0.1,0,0,1.6,0.7,4.4c0.4,1.4,1,3.1,2.1,4.8c1.1,1.7,2.6,3.6,4.7,5.1
								c2.1,1.5,4.7,2.8,7.7,3.3c3,0.5,6.3,0.3,9.5-1c1.6-0.6,3.1-1.5,4.5-2.6c0.7-0.5,1.4-1.2,2-1.8c0.6-0.7,1.2-1.4,1.7-2.1
								c2.2-3,3.4-6.8,3.3-10.8c-0.1-3.9-1.4-7.7-3.7-10.6c-0.5-0.8-1.2-1.4-1.8-2.1c-0.7-0.6-1.3-1.2-2.1-1.7
								c-1.4-1.1-3-1.9-4.6-2.4c-3.2-1.2-6.6-1.2-9.5-0.7c-3,0.6-5.6,1.9-7.6,3.5c-2,1.6-3.5,3.5-4.5,5.2c-1,1.8-1.7,3.5-2,4.9
								C822.2,225.6,822.4,227.3,822.3,227.3z"/>
						</g>
					</g>
				</g>
				<g>
					<g>
						<g>
							<path class="st5" d="M878.9,226.3c0,0,0-0.2-0.1-0.6c0-0.4-0.1-1-0.1-1.8c0-0.4-0.1-0.8-0.1-1.3c-0.1-0.5-0.2-1-0.3-1.6
								c-0.2-1.2-0.4-2.5-0.9-3.9c-0.7-3-2.2-6.4-4.4-10.1c-2.3-3.7-5.5-7.5-9.9-10.7c-4.4-3.2-9.9-5.9-16.2-6.9
								c-1.6-0.2-3.2-0.5-4.8-0.5c-0.8,0-1.7-0.1-2.5-0.1c-0.8,0.1-1.7,0.1-2.5,0.2c-0.4,0-0.9,0-1.3,0.1l-1.3,0.2
								c-0.8,0.2-1.7,0.3-2.6,0.5c-1.7,0.5-3.4,0.9-5.1,1.6c-1.7,0.6-3.3,1.5-4.9,2.3c-0.8,0.5-1.6,1-2.3,1.5
								c-0.8,0.5-1.5,1.1-2.3,1.6c-1.5,1.1-2.9,2.5-4.3,3.8c-0.6,0.7-1.3,1.4-1.9,2.2l-0.5,0.5l-0.4,0.6l-0.9,1.2l-0.9,1.2l-0.7,1.3
								l-0.7,1.3l-0.4,0.6l-0.3,0.7c-0.4,0.9-0.8,1.8-1.2,2.7c-0.3,0.9-0.7,1.9-1,2.8c-1.2,3.9-1.8,7.9-1.8,12.1
								c0.1,4.1,0.9,8.2,2.2,12c0.4,0.9,0.7,1.9,1.1,2.8c0.4,0.9,0.9,1.8,1.3,2.7l0.3,0.7l0.4,0.6l0.8,1.3l0.8,1.2l0.9,1.2l0.9,1.2
								l0.4,0.6l0.5,0.5c0.7,0.7,1.3,1.4,2,2.1c1.4,1.3,2.8,2.6,4.4,3.6c0.8,0.6,1.5,1.1,2.3,1.6c0.8,0.5,1.6,1,2.4,1.4
								c1.7,0.8,3.3,1.6,5,2.1c1.7,0.7,3.4,1,5.1,1.4c0.9,0.2,1.7,0.3,2.6,0.4l1.3,0.2c0.4,0.1,0.9,0,1.3,0.1c0.8,0,1.7,0.1,2.5,0.1
								c0.8,0,1.7-0.1,2.5-0.1c1.7,0,3.2-0.4,4.8-0.6c6.3-1.2,11.7-4.1,15.9-7.4c4.3-3.4,7.4-7.3,9.5-11c2.1-3.8,3.4-7.3,4.1-10.3
								c0.4-1.5,0.6-2.8,0.7-4c0.1-0.6,0.2-1.1,0.2-1.6c0-0.5,0-0.9,0.1-1.3c0-0.8,0.1-1.4,0.1-1.8
								C878.9,226.6,878.9,226.3,878.9,226.3s0,0.2,0,0.6c0,0.4,0,1,0,1.8c0,0.4,0,0.9,0,1.3c0,0.5-0.1,1-0.2,1.6
								c-0.1,1.2-0.3,2.5-0.7,4c-0.6,3-1.9,6.6-4,10.4c-2.1,3.8-5.2,7.8-9.5,11.2c-4.3,3.4-9.7,6.3-16.1,7.6
								c-1.6,0.3-3.2,0.6-4.9,0.7c-0.8,0-1.7,0.1-2.5,0.1c-0.8,0-1.7-0.1-2.6-0.1c-0.4,0-0.9,0-1.3-0.1l-1.3-0.2
								c-0.9-0.1-1.7-0.2-2.6-0.4c-1.7-0.4-3.5-0.8-5.2-1.4c-1.7-0.5-3.4-1.4-5.1-2.1c-0.8-0.4-1.6-0.9-2.4-1.4
								c-0.8-0.4-1.6-1-2.4-1.6c-1.6-1.1-3-2.4-4.4-3.7c-0.7-0.7-1.3-1.4-2-2.1l-0.5-0.5l-0.5-0.6l-0.9-1.2l-0.9-1.2l-0.8-1.3
								l-0.8-1.3L807,246l-0.3-0.7c-0.4-0.9-0.9-1.8-1.4-2.7c-0.4-0.9-0.7-1.9-1.1-2.8c-1.3-3.9-2.1-8-2.2-12.2
								c0-4.2,0.6-8.3,1.8-12.2c0.3-1,0.7-1.9,1-2.9c0.4-0.9,0.8-1.8,1.3-2.7l0.3-0.7l0.4-0.6l0.8-1.3l0.8-1.3l0.9-1.2l0.9-1.2
								l0.4-0.6l0.5-0.6c0.6-0.7,1.3-1.5,1.9-2.2c1.4-1.3,2.8-2.7,4.3-3.8c0.7-0.6,1.5-1.2,2.3-1.7c0.8-0.5,1.6-1,2.4-1.5
								c1.7-0.8,3.3-1.7,5-2.3c1.7-0.7,3.4-1.1,5.1-1.6c0.9-0.2,1.7-0.3,2.6-0.5l1.3-0.2c0.4-0.1,0.9-0.1,1.3-0.1
								c0.9-0.1,1.7-0.1,2.6-0.2c0.8,0,1.7,0,2.5,0.1c1.7,0,3.3,0.3,4.9,0.5c6.4,1.1,11.9,3.8,16.3,7.1c4.4,3.3,7.6,7.2,9.9,10.9
								c2.2,3.7,3.7,7.2,4.3,10.2c0.5,1.5,0.6,2.8,0.8,4c0.1,0.6,0.2,1.1,0.2,1.6c0,0.5,0.1,0.9,0.1,1.3c0,0.8,0.1,1.4,0.1,1.8
								C878.9,226.1,878.9,226.3,878.9,226.3z"/>
						</g>
					</g>
				</g>
			</g>
		</g>
		<g>
			<g>
				<g>
					<g>
						<path class="st8" d="M844.7,268.6c-24.7,0.4-44.4-18.8-44.8-43.6l23.4-0.4c0.2,11.9,9.2,19.4,21,19.2L844.7,268.6z"/>
					</g>
				</g>
				<g>
					<g>
						<g>
							<path class="st5" d="M844.7,268.6c0,0,0-0.2,0-0.5c0-0.3,0-0.8,0-1.3c0-1.2-0.1-2.8-0.1-5c-0.1-4.3-0.2-10.5-0.4-18.1
								l0.2,0.2c-2.2,0-4.6-0.2-7-0.9c-2.4-0.7-4.8-1.7-7-3.4c-2.2-1.6-4-3.8-5.3-6.5c-1.3-2.6-2-5.6-2-8.6l0.3,0.3
								c-5.7,0.1-11.8,0.2-18.1,0.3c-1.8,0-3.6,0.1-5.3,0.1l0.3-0.3c0.1,4.8,1,9.5,2.4,13.8c0.4,1.1,0.8,2.1,1.2,3.2
								c0.4,1,1,2,1.4,3c0.4,1,1,1.9,1.6,2.8c0.6,0.9,1.1,1.8,1.7,2.6c0.6,0.8,1.3,1.6,1.9,2.4c0.7,0.8,1.4,1.5,2,2.2
								c0.3,0.4,0.7,0.7,1,1.1c0.4,0.3,0.7,0.6,1.1,1c0.7,0.6,1.4,1.2,2.1,1.9c2.9,2.2,5.8,4.1,8.7,5.4c0.7,0.3,1.4,0.6,2.1,1
								c0.7,0.3,1.4,0.5,2,0.7c0.7,0.2,1.3,0.5,1.9,0.7c0.6,0.2,1.3,0.3,1.9,0.5c0.6,0.1,1.2,0.3,1.7,0.4c0.3,0.1,0.6,0.1,0.8,0.2
								c0.3,0.1,0.5,0.1,0.8,0.1c1,0.1,2,0.3,2.9,0.4c0.9,0.2,1.6,0.1,2.3,0.2c0.7,0,1.2,0.1,1.7,0.1c0.4,0,0.8,0,1,0.1
								C844.5,268.5,844.6,268.6,844.7,268.6c0,0-0.1,0-0.3,0c-0.3,0-0.6,0-1,0c-0.5,0-1,0-1.7,0c-0.7,0-1.5,0-2.3-0.1
								c-0.9-0.1-1.8-0.2-2.9-0.4c-0.3,0-0.5-0.1-0.8-0.1c-0.3-0.1-0.5-0.1-0.8-0.2c-0.6-0.1-1.1-0.3-1.8-0.4
								c-0.6-0.1-1.2-0.3-1.9-0.5c-0.6-0.2-1.3-0.4-2-0.7c-0.7-0.2-1.4-0.4-2.1-0.7c-0.7-0.3-1.4-0.6-2.1-0.9
								c-2.9-1.2-5.8-3.1-8.8-5.3c-0.7-0.6-1.4-1.2-2.1-1.9c-0.4-0.3-0.7-0.6-1.1-1c-0.3-0.4-0.7-0.7-1-1.1c-0.7-0.7-1.4-1.4-2-2.2
								c-0.6-0.8-1.3-1.6-1.9-2.5c-0.7-0.8-1.2-1.8-1.8-2.7c-0.6-0.9-1.2-1.8-1.6-2.8c-0.5-1-1-2-1.5-3c-0.4-1.1-0.8-2.1-1.2-3.2
								c-1.4-4.4-2.3-9.1-2.4-14l0-0.3l0.3,0c1.7,0,3.5-0.1,5.3-0.1c6.3-0.1,12.4-0.2,18.1-0.3l0.3,0l0,0.3c0,3,0.7,5.9,1.9,8.4
								c1.2,2.5,3,4.7,5.1,6.3c2.1,1.6,4.5,2.7,6.8,3.4c2.4,0.7,4.7,0.9,6.9,0.9h0.2l0,0.2c0.1,7.6,0.1,13.9,0.2,18.2
								c0,2.1,0,3.8,0,4.9c0,0.5,0,1,0,1.3C844.7,268.4,844.7,268.6,844.7,268.6z"/>
						</g>
					</g>
				</g>
			</g>
		</g>
	</g>
	<g>
		<g>
			<g>
				<rect x="661.9" y="5.4" class="st4" width="202.8" height="151.6"/>
			</g>
		</g>
		<g>
			<g>
				<rect x="661.9" y="5.4" class="st0" width="202.8" height="18.7"/>
			</g>
		</g>
		<g>
			<g>
				<circle class="st4" cx="673" cy="14.8" r="2.7"/>
			</g>
		</g>
		<g>
			<g>
				<circle class="st4" cx="682.1" cy="14.8" r="2.7"/>
			</g>
		</g>
		<g>
			<g>
				<circle class="st4" cx="691.2" cy="14.8" r="2.7"/>
			</g>
		</g>
		<g>
			<g>
				<g>
					<path class="st5" d="M864.7,157c0,0,0-1,0-2.8c0-1.8,0-4.5,0-8.1c0-7.1,0-17.4-0.1-30.6c0-26.4-0.1-64.3-0.1-110.2l0.2,0.2
						c-57.2,0-127.3,0-202.8,0h0l0.3-0.3c0,54.5,0,106.1,0,151.6l-0.2-0.2c60.1,0,110.8,0.1,146.4,0.1c17.9,0,31.9,0,41.6,0.1
						c4.8,0,8.5,0,11,0c1.2,0,2.2,0,2.8,0C864.4,157,864.7,157,864.7,157s-0.3,0-0.9,0c-0.6,0-1.6,0-2.8,0c-2.5,0-6.2,0-11,0
						c-9.6,0-23.7,0-41.5,0.1c-35.7,0-86.4,0.1-146.6,0.1l-0.2,0V157c0-45.5,0-97.1,0-151.6V5.1h0.3h0c75.6,0,145.6,0,202.8,0h0.2
						l0,0.2c0,45.9-0.1,83.9-0.1,110.3c0,13.2,0,23.5-0.1,30.6c0,3.5,0,6.2,0,8C864.7,156.1,864.7,157,864.7,157z"/>
				</g>
			</g>
		</g>
		<g>
			<g>
				<g>
					<path class="st0" d="M853.5,96.8c0,0.1-40.4,0.3-90.2,0.3c-49.8,0-90.2-0.1-90.2-0.3c0-0.1,40.4-0.3,90.2-0.3
						C813.2,96.5,853.5,96.6,853.5,96.8z"/>
				</g>
			</g>
		</g>
		<g>
			<g>
				<g>
					<path class="st0" d="M853.5,81.2c0,0.1-40.4,0.3-90.2,0.3c-49.8,0-90.2-0.1-90.2-0.3c0-0.1,40.4-0.3,90.2-0.3
						C813.2,81,853.5,81.1,853.5,81.2z"/>
				</g>
			</g>
		</g>
		<g>
			<g>
				<g>
					<path class="st0" d="M853.5,65.7c0,0.1-40.4,0.3-90.2,0.3c-49.8,0-90.2-0.1-90.2-0.3c0-0.1,40.4-0.3,90.2-0.3
						C813.2,65.4,853.5,65.5,853.5,65.7z"/>
				</g>
			</g>
		</g>
		<g>
			<g>
				<g>
					<path class="st0" d="M853.5,50.1c0,0.1-40.4,0.3-90.2,0.3c-49.8,0-90.2-0.1-90.2-0.3s40.4-0.3,90.2-0.3
						C813.2,49.8,853.5,49.9,853.5,50.1z"/>
				</g>
			</g>
		</g>
		<g>
			<g>
				<path class="st8" d="M840.9,96.2c-3.5-8.5-5.9-17.7-8.6-26.5c-2.3-7.6-2.6-11.2-4.6-17.7c-3.2-10.2-11.6-11.3-17.7-8.5
					c-5.4,2.5-7.8,8.8-9.6,14.6c-2.2,6.9-4.3,13.8-6.5,20.6c-1,3.3-2.1,6.6-3.9,9.4s-4.7,5.2-8.1,5.6c-5.5,0.7-10.5-3.9-12.8-9
					c-2.4-5.1-3-10.9-5.1-16.1c-2.1-5.2-6.4-10.2-12-10.3c-6.8-0.1-11.5,6.9-14.3,13.2c-3.6,7.9-6.5,16.2-8.6,24.7
					c-0.7,2.9-1.4,5.8-2.9,8.4c-1.5,2.6-3.9,4.8-6.8,5.1c-3.8,0.5-7.2-2.2-9.4-5.4s-3.5-6.8-5.8-9.9c-2.2-3.1-5.8-5.7-9.6-5
					c-3.4,0.6-5.7,3.5-7.7,6.3c-5.4,7.6-10,15.7-13.8,24.1h186.5C850.9,116.9,844.4,104.7,840.9,96.2z"/>
			</g>
		</g>
		<g>
			<g>
				<rect x="716.6" y="132.1" class="st8" width="8.8" height="8.8"/>
			</g>
		</g>
		<g>
			<g>
				<path class="st5" d="M780.5,136.5h-45.9c-0.6,0-1-0.5-1-1l0,0c0-0.6,0.5-1,1-1h45.9c0.6,0,1,0.5,1,1l0,0
					C781.5,136.1,781,136.5,780.5,136.5z"/>
			</g>
		</g>
		<g>
			<g>
				<g>
					<path class="st5" d="M851.4,119.9c0,0-0.2,0-0.7,0c-0.5,0-1.1,0-2,0c-1.8,0-4.3,0-7.6,0c-6.6,0-16.1,0-27.9,0.1
						c-23.5,0-56,0-91.9,0.1c-17.2,0-33.6,0-48.5,0h-0.2l0-0.2c0-23.9,0.1-44.3,0.1-58.7c0-7.2,0.1-12.9,0.1-16.8c0-1.9,0-3.4,0-4.5
						c0-0.5,0-0.9,0-1.2c0-0.3,0-0.4,0-0.4s0,0.1,0,0.4c0,0.3,0,0.7,0,1.2c0,1,0,2.5,0,4.5c0,3.9,0,9.6,0.1,16.8
						c0,14.4,0.1,34.8,0.1,58.7l-0.2-0.2c14.9,0,31.3,0,48.5,0c35.9,0,68.4,0.1,91.9,0.1c11.7,0,21.3,0.1,27.9,0.1
						c3.3,0,5.8,0,7.6,0c0.9,0,1.5,0,2,0C851.2,119.9,851.4,119.9,851.4,119.9z"/>
				</g>
			</g>
		</g>
		<g class="st7">
			<g>
				<polygon class="st4" points="829.5,58.8 763.3,119.9 796.4,119.9 836.2,83 				"/>
			</g>
		</g>
		<g class="st7">
			<g>
				<polyline class="st4" points="771.2,88.2 734.7,119.9 725.4,119.9 768.4,83 772.1,89.4 				"/>
			</g>
		</g>
		<g>
			<g>
				<g>
					<path class="st5" d="M673,119.9c0,0,1.8-4.5,6.1-12.2c2.2-3.8,5-8.4,8.7-13.5c1-1.2,2-2.5,3.4-3.5c1.4-1,3.1-1.7,4.9-1.6
						c1.8,0.1,3.6,0.9,5.1,2c1.5,1.1,2.8,2.6,3.9,4.3c2.2,3.3,3.5,7.3,6.4,10.5c1.4,1.5,3.2,2.9,5.3,3.4c1.1,0.3,2.2,0.3,3.2,0
						c1.1-0.2,2.1-0.8,3-1.4c1.8-1.4,3.1-3.4,4-5.6c0.9-2.2,1.4-4.6,2-6.9c1.2-4.8,2.7-9.6,4.5-14.5c0.9-2.4,1.9-4.9,2.9-7.3
						c1-2.4,2.2-4.9,3.6-7.2c1.5-2.3,3.2-4.5,5.5-6.2c1.1-0.8,2.4-1.5,3.8-1.8c1.4-0.3,2.9-0.4,4.3-0.1c2.9,0.5,5.3,2.4,7.2,4.6
						c1.9,2.2,3.2,4.9,4.1,7.7c0.9,2.8,1.6,5.7,2.4,8.5c0.8,2.8,1.8,5.7,3.4,8.1c1.6,2.4,3.8,4.6,6.5,5.7c2.7,1.1,5.8,0.9,8.2-0.7
						c2.5-1.5,4.3-3.8,5.5-6.4c1.3-2.5,2.1-5.3,2.9-8c1.7-5.4,3.4-10.7,5-15.9c0.8-2.6,1.6-5.2,2.5-7.7c0.9-2.5,2-4.9,3.6-7
						c0.8-1,1.7-2,2.8-2.8c1.1-0.8,2.2-1.3,3.4-1.8c1.2-0.4,2.5-0.7,3.7-0.8c1.3-0.1,2.5,0,3.8,0.3c2.4,0.6,4.6,2,6.1,3.9
						c1.6,1.9,2.5,4.1,3.2,6.3c1.4,4.4,2.1,8.8,3.2,13c0.5,2.1,1.2,4.1,1.7,6c0.6,2,1.1,3.9,1.7,5.8c2.2,7.5,4.3,14.3,6.8,20
						c2.5,5.7,5.1,10.4,7.7,13.9c2.6,3.5,5.2,5.8,7.1,7.1c1,0.6,1.8,1,2.3,1.2c0.5,0.2,0.8,0.4,0.8,0.4s-0.3-0.1-0.8-0.3
						c-0.6-0.2-1.3-0.6-2.4-1.2c-2-1.2-4.6-3.5-7.2-7c-2.7-3.5-5.3-8.2-7.8-13.9c-2.5-5.7-4.7-12.5-6.9-20c-0.6-1.9-1.1-3.8-1.7-5.8
						c-0.6-2-1.2-4-1.8-6c-1.1-4.1-1.9-8.5-3.2-12.9c-0.7-2.2-1.6-4.4-3.1-6.2c-1.5-1.8-3.6-3.2-5.9-3.8c-1.2-0.3-2.4-0.4-3.6-0.3
						c-1.2,0.1-2.4,0.3-3.6,0.7c-2.4,0.8-4.5,2.3-6,4.4c-1.5,2-2.6,4.4-3.5,6.9c-0.9,2.5-1.7,5.1-2.5,7.7c-1.6,5.2-3.3,10.5-5,15.9
						c-0.8,2.7-1.7,5.4-3,8c-1.3,2.6-3.1,5-5.7,6.6c-1.3,0.8-2.7,1.3-4.2,1.4c-1.5,0.1-3-0.1-4.4-0.7c-2.8-1.1-5.1-3.4-6.8-5.9
						c-1.7-2.5-2.7-5.4-3.5-8.3c-0.8-2.9-1.5-5.7-2.4-8.5c-0.9-2.8-2.2-5.3-4-7.5c-1.8-2.2-4.2-3.9-6.9-4.4
						c-1.3-0.3-2.7-0.2-4.1,0.1c-1.3,0.3-2.6,1-3.7,1.8c-2.2,1.6-3.9,3.8-5.4,6c-1.4,2.3-2.5,4.7-3.6,7.2c-1.1,2.4-2,4.9-2.9,7.3
						c-1.8,4.9-3.3,9.7-4.5,14.4c-0.6,2.4-1.1,4.8-2,7c-0.9,2.2-2.2,4.3-4.1,5.7c-0.9,0.7-2,1.3-3.2,1.5c-1.1,0.3-2.3,0.2-3.4,0
						c-2.2-0.6-4.1-2-5.5-3.5c-2.9-3.3-4.3-7.3-6.4-10.5c-1-1.7-2.3-3.1-3.8-4.2c-1.5-1.1-3.2-1.9-4.9-1.9c-1.7-0.1-3.4,0.5-4.7,1.5
						c-1.3,1-2.4,2.2-3.4,3.4c-3.7,5-6.5,9.6-8.7,13.4c-2.2,3.8-3.7,6.8-4.8,8.9c-0.5,1-0.9,1.8-1.1,2.4
						C673.1,119.6,673,119.9,673,119.9z"/>
				</g>
			</g>
		</g>
	</g>
	<g>
		<g>
			<g>
				<rect x="411.1" y="214" class="st4" width="182.5" height="109.7"/>
			</g>
		</g>
		<g>
			<g>
				<rect x="411.1" y="214" class="st0" width="182.5" height="16.9"/>
			</g>
		</g>
		<g>
			<g>
				<path class="st4" d="M423.5,222.4c0,1.3-1.1,2.4-2.4,2.4c-1.3,0-2.4-1.1-2.4-2.4c0-1.3,1.1-2.4,2.4-2.4
					C422.4,220,423.5,221.1,423.5,222.4z"/>
			</g>
		</g>
		<g>
			<g>
				<path class="st4" d="M431.7,222.4c0,1.3-1.1,2.4-2.4,2.4c-1.3,0-2.4-1.1-2.4-2.4c0-1.3,1.1-2.4,2.4-2.4
					C430.6,220,431.7,221.1,431.7,222.4z"/>
			</g>
		</g>
		<g>
			<g>
				<path class="st4" d="M439.9,222.4c0,1.3-1.1,2.4-2.4,2.4c-1.3,0-2.4-1.1-2.4-2.4c0-1.3,1.1-2.4,2.4-2.4
					C438.8,220,439.9,221.1,439.9,222.4z"/>
			</g>
		</g>
		<g>
			<g>
				<g>
					<path class="st5" d="M593.6,323.7c0,0,0-0.7,0-2c0-1.3,0-3.2,0-5.7c0-5,0-12.5-0.1-22c0-19-0.1-46.4-0.1-80l0.2,0.2
						c-49.3,0-113,0-182.5,0.1h0l0.3-0.3c0,38.9,0,75.9,0,109.7l-0.2-0.2c53.5,0,99.1,0.1,131.3,0.1c16.1,0,28.9,0.1,37.7,0.1
						c4.4,0,7.7,0,10,0c1.1,0,2,0,2.6,0C593.3,323.7,593.6,323.7,593.6,323.7s-0.3,0-0.9,0c-0.6,0-1.4,0-2.6,0c-2.3,0-5.6,0-10,0
						c-8.7,0-21.5,0-37.6,0.1c-32.3,0-77.9,0.1-131.5,0.1l-0.2,0v-0.2c0-33.7,0-70.8,0-109.7v-0.3h0.3h0c69.4,0,133.2,0,182.5,0.1
						l0.2,0l0,0.2c0,33.6-0.1,61.1-0.1,80.1c0,9.5,0,16.9-0.1,21.9c0,2.5,0,4.4,0,5.7C593.6,323,593.6,323.7,593.6,323.7z"/>
				</g>
			</g>
		</g>
		<g>
			<g>
				<g>
					<g>
						<g>
							<g>
								<rect x="431.1" y="249.3" class="st8" width="7.8" height="56.8"/>
							</g>
						</g>
					</g>
				</g>
			</g>
			<g>
				<g>
					<g>
						<g>
							<g>
								<rect x="446" y="268.6" class="st8" width="7.8" height="37.5"/>
							</g>
						</g>
					</g>
				</g>
			</g>
			<g>
				<g>
					<g>
						<g>
							<g>
								<rect x="461" y="256.4" class="st8" width="7.8" height="50"/>
							</g>
						</g>
					</g>
				</g>
			</g>
			<g>
				<g>
					<g>
						<g>
							<g>
								<rect x="476" y="251.5" class="st8" width="7.8" height="54.6"/>
							</g>
						</g>
					</g>
				</g>
			</g>
			<g>
				<g>
					<g>
						<g>
							<g>
								<rect x="491" y="269.8" class="st8" width="7.8" height="36.3"/>
							</g>
						</g>
					</g>
				</g>
			</g>
			<g>
				<g>
					<g>
						<g>
							<g>
								<rect x="505.9" y="276.9" class="st8" width="7.8" height="29.2"/>
							</g>
						</g>
					</g>
				</g>
			</g>
			<g>
				<g>
					<g>
						<g>
							<g>
								<rect x="520.9" y="255.2" class="st8" width="7.8" height="51"/>
							</g>
						</g>
					</g>
				</g>
			</g>
			<g>
				<g>
					<g>
						<g>
							<g>
								<rect x="535.9" y="264.4" class="st8" width="7.8" height="41.8"/>
							</g>
						</g>
					</g>
				</g>
			</g>
			<g>
				<g>
					<g>
						<g>
							<g>
								<rect x="550.8" y="257" class="st8" width="7.8" height="49.1"/>
							</g>
						</g>
					</g>
				</g>
			</g>
			<g>
				<g>
					<g>
						<g>
							<g>
								<rect x="565.8" y="272.7" class="st8" width="7.8" height="33.5"/>
							</g>
						</g>
					</g>
				</g>
			</g>
			<g class="st7">
				<g>
					<g>
						<g>
							<g>
								<rect x="446" y="268.6" class="st4" width="7.8" height="37.5"/>
							</g>
						</g>
					</g>
				</g>
			</g>
			<g class="st7">
				<g>
					<g>
						<g>
							<g>
								<rect x="476" y="251.5" class="st4" width="7.8" height="54.6"/>
							</g>
						</g>
					</g>
				</g>
			</g>
			<g class="st7">
				<g>
					<g>
						<g>
							<g>
								<rect x="505.9" y="276.9" class="st4" width="7.8" height="29.2"/>
							</g>
						</g>
					</g>
				</g>
			</g>
			<g class="st7">
				<g>
					<g>
						<g>
							<g>
								<rect x="535.9" y="264.4" class="st4" width="7.8" height="41.8"/>
							</g>
						</g>
					</g>
				</g>
			</g>
			<g class="st7">
				<g>
					<g>
						<g>
							<g>
								<rect x="565.8" y="272.7" class="st4" width="7.8" height="33.5"/>
							</g>
						</g>
					</g>
				</g>
			</g>
		</g>
		<g>
			<g>
				<g>
					<path class="st5" d="M584.7,306.1c0,0.1-36.1,0.3-80.6,0.3c-44.5,0-80.6-0.1-80.6-0.3c0-0.1,36.1-0.3,80.6-0.3
						C548.6,305.9,584.7,306,584.7,306.1z"/>
				</g>
			</g>
		</g>
	</g>
	<g>
		<g>
			<g>
				<rect x="271.8" y="133.8" class="st4" width="97.2" height="97.2"/>
			</g>
		</g>
		<g>
			<g>
				<g>
					<g>
						<g>
							<g>
								<path class="st6" d="M322.5,190l26.8,0.4c-0.2,14.3-12.2,25.9-26.8,25.9c-0.1,0-0.1,0-0.2,0L322.5,190z"/>
							</g>
						</g>
					</g>
				</g>
			</g>
			<g>
				<g>
					<g>
						<g>
							<g>
								<path class="st8" d="M318.2,186.2l-0.4,26.3c-14.6-0.2-26.4-12-26.4-26.3c0-14.4,12.1-26.3,26.8-26.3
									c14.7,0,26.8,11.9,26.8,26.3H318.2z"/>
							</g>
						</g>
					</g>
				</g>
			</g>
		</g>
		<g>
			<g>
				<rect x="271.8" y="133.8" class="st0" width="97.1" height="19.1"/>
			</g>
		</g>
		<g>
			<g>
				<circle class="st4" cx="283.1" cy="143.4" r="2.8"/>
			</g>
		</g>
		<g>
			<g>
				<circle class="st4" cx="292.4" cy="143.4" r="2.8"/>
			</g>
		</g>
		<g>
			<g>
				<path class="st4" d="M304.4,143.4c0,1.5-1.2,2.8-2.8,2.8s-2.8-1.2-2.8-2.8c0-1.5,1.2-2.8,2.8-2.8S304.4,141.9,304.4,143.4z"/>
			</g>
		</g>
		<g>
			<g>
				<g>
					<path class="st5" d="M369,231c0,0,0-0.2,0-0.5c0-0.3,0-0.8,0-1.3c0-1.2,0-2.9,0-5.2c0-4.6,0-11.3-0.1-19.8
						c0-17-0.1-41.3-0.1-70.4l0.2,0.2c-28.3,0-61.6,0-97.2,0h0l0.3-0.3c0,35.6,0,69,0,97.2l-0.2-0.2c29.1,0,53.4,0.1,70.4,0.1
						c8.5,0,15.2,0,19.8,0.1c2.3,0,4,0,5.2,0c0.6,0,1,0,1.3,0C368.8,231,369,231,369,231s-0.1,0-0.4,0c-0.3,0-0.7,0-1.3,0
						c-1.2,0-2.9,0-5.2,0c-4.6,0-11.2,0-19.7,0.1c-17,0-41.4,0.1-70.6,0.1l-0.2,0l0-0.2c0-28.3,0-61.6,0-97.2l0-0.3h0.3h0
						c35.6,0,69,0,97.2,0l0.2,0l0,0.2c0,29.2-0.1,53.5-0.1,70.6c0,8.5,0,15.2-0.1,19.7c0,2.3,0,4,0,5.2c0,0.6,0,1,0,1.3
						C369,230.9,369,231,369,231z"/>
				</g>
			</g>
		</g>
	</g>
	<g>
		<g>
			<g>
				<rect x="341.6" y="0.3" class="st4" width="265.1" height="191.3"/>
			</g>
		</g>
		<g>
			<g>
				<path class="st2" d="M559.3,87.7h-63.5c-10.3,0-18.6-8.3-18.6-18.6v-6.9c0-10.3,8.3-18.6,18.6-18.6h63.5
					c10.3,0,18.6,8.3,18.6,18.6v6.9C577.9,79.4,569.5,87.7,559.3,87.7z"/>
			</g>
		</g>
		<g>
			<g>
				<g>
					<g>
						<path class="st3" d="M360.6,92.9c-0.4-22.7,17.7-41.5,40.4-41.9c22.6-0.4,41.3,17.8,41.7,40.5c0.4,22.7-17.7,41.5-40.4,41.9
							C379.6,133.8,360.9,115.6,360.6,92.9z M421.2,91.9c-0.2-10.9-9.1-19.6-19.9-19.4c-10.8,0.2-19.5,9.2-19.3,20
							c0.2,10.9,9.1,19.6,19.9,19.4C412.7,111.8,421.4,102.8,421.2,91.9z"/>
					</g>
				</g>
			</g>
			<g>
				<g>
					<g>
						<path class="st6" d="M360.6,92.9c-0.4-22.7,17.7-41.5,40.4-41.9l0.3,21.5c-10.8,0.2-19.5,9.2-19.3,20
							c0.2,10.9,9.1,19.6,19.9,19.4l0.3,21.5C379.6,133.8,360.9,115.6,360.6,92.9z"/>
					</g>
				</g>
			</g>
			<g>
				<g>
					<g>
						<g>
							<path class="st9" d="M360.6,92.9c-0.4-22.7,17.7-41.5,40.4-41.9c22.6-0.4,41.3,17.8,41.7,40.5c0.4,22.7-17.7,41.5-40.4,41.9
								C379.6,133.8,360.9,115.6,360.6,92.9z M421.2,91.9c-0.2-10.9-9.1-19.6-19.9-19.4c-10.8,0.2-19.5,9.2-19.3,20
								c0.2,10.9,9.1,19.6,19.9,19.4C412.7,111.8,421.4,102.8,421.2,91.9z"/>
						</g>
					</g>
					<g>
						<g>
							<g>
								<path class="st5" d="M421.2,91.9c0,0,0,0.1,0,0.3c0,0.2,0,0.5,0,0.9c0,0.4,0,0.9-0.1,1.5c-0.1,0.6-0.1,1.3-0.3,2.1
									c-0.3,1.5-1,3.4-2,5.3c-1.1,1.9-2.7,4-4.9,5.8c-2.2,1.7-5,3.3-8.3,3.9c-3.2,0.6-6.9,0.6-10.5-0.7c-0.9-0.3-1.7-0.7-2.6-1.1
									c-0.8-0.5-1.7-0.9-2.5-1.5c-0.8-0.5-1.5-1.2-2.3-1.9c-0.7-0.7-1.4-1.4-2-2.3c-1.2-1.6-2.3-3.4-2.9-5.4
									c-0.7-2-1.1-4.1-1.1-6.3c0-2.2,0.3-4.3,0.9-6.3c0.6-2,1.6-3.9,2.8-5.5c0.6-0.9,1.3-1.6,1.9-2.3c0.7-0.7,1.4-1.4,2.2-2
									c0.8-0.6,1.6-1.1,2.4-1.6c0.9-0.4,1.7-0.9,2.6-1.2c3.5-1.4,7.2-1.5,10.4-1c3.3,0.6,6.1,2,8.4,3.6c2.3,1.7,3.9,3.7,5.1,5.6
									c1.1,1.9,1.9,3.7,2.2,5.3c0.2,0.8,0.3,1.4,0.4,2c0.1,0.6,0.1,1.1,0.2,1.5c0,0.4,0,0.7,0,0.9
									C421.2,91.8,421.2,91.9,421.2,91.9c0,0,0-0.1,0-0.3c0-0.2-0.1-0.5-0.1-0.9c0-0.4-0.1-0.9-0.2-1.5c-0.1-0.6-0.2-1.3-0.5-2
									c-0.4-1.5-1.1-3.3-2.3-5.2c-1.2-1.9-2.8-3.8-5-5.4c-2.2-1.6-5-3-8.2-3.5c-3.2-0.5-6.8-0.3-10.2,1c-0.9,0.3-1.7,0.7-2.5,1.2
									c-0.8,0.5-1.6,1-2.3,1.6c-0.8,0.6-1.5,1.2-2.2,1.9c-0.6,0.7-1.3,1.5-1.9,2.3c-1.1,1.6-2.1,3.4-2.7,5.4c-0.6,2-0.9,4-0.9,6.1
									c0.1,4.2,1.5,8.3,3.9,11.4c0.6,0.8,1.3,1.5,1.9,2.2c0.7,0.6,1.4,1.3,2.2,1.8c0.7,0.6,1.6,1,2.4,1.5c0.8,0.4,1.7,0.8,2.5,1.1
									c3.4,1.3,7,1.3,10.2,0.7c3.2-0.6,5.9-2.1,8.1-3.8c2.2-1.7,3.8-3.7,4.9-5.6c1.1-1.9,1.8-3.7,2.1-5.2c0.2-0.7,0.3-1.4,0.4-2
									c0.1-0.6,0.1-1.1,0.2-1.5c0-0.4,0-0.7,0.1-0.9C421.2,92,421.2,91.9,421.2,91.9z"/>
							</g>
						</g>
					</g>
					<g>
						<g>
							<g>
								<path class="st5" d="M360.6,92.9c0,0,0,0.2,0.1,0.7c0,0.5,0.1,1.1,0.2,1.9c0,0.4,0.1,0.9,0.1,1.4c0.1,0.5,0.2,1.1,0.3,1.7
									c0.1,0.6,0.2,1.3,0.3,2c0.1,0.7,0.4,1.4,0.6,2.2c0.8,3.2,2.3,6.9,4.7,10.8c2.4,3.9,5.9,8,10.6,11.5c0.6,0.4,1.2,0.9,1.8,1.3
									c0.6,0.4,1.3,0.8,1.9,1.2c0.7,0.4,1.3,0.8,2,1.1c0.7,0.3,1.4,0.7,2.1,1c0.4,0.2,0.7,0.3,1.1,0.5c0.4,0.1,0.8,0.3,1.1,0.4
									c0.8,0.3,1.5,0.5,2.3,0.8c0.8,0.3,1.6,0.4,2.4,0.6c0.8,0.2,1.6,0.5,2.5,0.5c1.7,0.2,3.4,0.5,5.2,0.5c0.9,0,1.8,0.1,2.7,0.1
									c0.9-0.1,1.8-0.1,2.7-0.2c0.5,0,0.9,0,1.4-0.1l1.4-0.2c0.9-0.2,1.8-0.3,2.7-0.5c1.8-0.5,3.7-0.9,5.4-1.7
									c1.8-0.6,3.5-1.6,5.3-2.4c0.8-0.5,1.7-1,2.5-1.6c0.9-0.5,1.6-1.1,2.4-1.7c1.6-1.2,3.1-2.6,4.6-4c0.7-0.8,1.4-1.5,2-2.3
									l0.5-0.6l0.5-0.6l0.9-1.3l0.9-1.3l0.8-1.4l0.8-1.4l0.4-0.7l0.3-0.7c0.4-1,0.9-1.9,1.3-2.9c0.4-1,0.7-2,1.1-3
									c1.3-4.1,1.9-8.5,1.9-12.9c-0.1-4.4-0.9-8.8-2.3-12.9c-0.4-1-0.8-2-1.2-3c-0.5-1-1-1.9-1.4-2.9l-0.4-0.7l-0.4-0.7l-0.8-1.3
									l-0.8-1.3l-1-1.2l-1-1.2l-0.5-0.6l-0.5-0.6c-0.7-0.8-1.4-1.5-2.1-2.3c-1.5-1.4-3-2.8-4.7-3.9c-0.8-0.6-1.6-1.2-2.5-1.7
									c-0.9-0.5-1.7-1-2.6-1.5c-1.8-0.8-3.5-1.7-5.4-2.3c-1.8-0.7-3.7-1.1-5.5-1.5c-0.9-0.2-1.8-0.3-2.8-0.4l-1.4-0.2
									c-0.5-0.1-0.9,0-1.4-0.1c-0.9,0-1.8-0.1-2.7-0.1c-0.9,0-1.8,0.1-2.7,0.1c-1.8,0-3.5,0.4-5.2,0.7c-0.9,0.1-1.6,0.4-2.5,0.6
									c-0.8,0.2-1.6,0.4-2.4,0.7c-0.8,0.3-1.5,0.6-2.3,0.9c-0.4,0.1-0.8,0.3-1.1,0.4c-0.4,0.2-0.7,0.4-1.1,0.5
									c-0.7,0.4-1.4,0.7-2.1,1.1c-0.7,0.3-1.3,0.8-2,1.2c-0.6,0.4-1.3,0.8-1.9,1.2c-0.6,0.5-1.2,0.9-1.7,1.4
									c-4.6,3.6-7.9,7.8-10.2,11.8c-2.3,4-3.7,7.8-4.4,11c-0.2,0.8-0.4,1.5-0.5,2.2c-0.1,0.7-0.2,1.4-0.3,2
									c-0.1,0.6-0.2,1.2-0.2,1.7c0,0.5,0,1-0.1,1.4c0,0.8-0.1,1.5-0.1,2C360.6,92.7,360.6,92.9,360.6,92.9s0-0.2,0-0.7
									c0-0.5,0-1.1,0-2c0-0.4,0-0.9,0-1.4c0-0.5,0.1-1.1,0.2-1.7c0.1-0.6,0.2-1.3,0.3-2c0.1-0.7,0.3-1.5,0.5-2.3
									c0.6-3.2,2-7,4.3-11.1c2.3-4,5.6-8.3,10.2-12c0.6-0.5,1.2-0.9,1.8-1.4c0.6-0.4,1.3-0.8,1.9-1.2c0.7-0.4,1.3-0.9,2-1.2
									c0.7-0.4,1.4-0.7,2.1-1.1c0.4-0.2,0.7-0.4,1.1-0.5c0.4-0.1,0.8-0.3,1.1-0.4c0.8-0.3,1.5-0.6,2.3-0.9
									c0.8-0.3,1.6-0.5,2.4-0.7c0.8-0.2,1.6-0.5,2.5-0.6c1.7-0.3,3.4-0.7,5.2-0.7c0.9,0,1.8-0.2,2.7-0.2c0.9,0,1.8,0.1,2.7,0.1
									c0.5,0,0.9,0,1.4,0.1l1.4,0.2c0.9,0.1,1.9,0.2,2.8,0.4c1.8,0.5,3.7,0.8,5.5,1.5c1.9,0.6,3.6,1.5,5.4,2.3
									c0.9,0.5,1.7,1,2.6,1.5c0.9,0.5,1.7,1.1,2.5,1.7c1.7,1.1,3.2,2.6,4.7,3.9c0.7,0.8,1.4,1.5,2.1,2.3l0.5,0.6l0.5,0.6l1,1.3
									l1,1.3l0.9,1.4l0.9,1.4l0.4,0.7l0.4,0.7c0.5,1,1,1.9,1.4,2.9c0.4,1,0.8,2,1.2,3c1.4,4.1,2.2,8.5,2.3,13
									c0,4.5-0.6,8.9-1.9,13.1c-0.4,1-0.7,2.1-1.1,3.1c-0.5,1-0.9,2-1.4,2.9l-0.3,0.7l-0.4,0.7l-0.8,1.4l-0.8,1.4l-0.9,1.3
									l-0.9,1.3l-0.5,0.6l-0.5,0.6c-0.7,0.8-1.4,1.6-2.1,2.4c-1.5,1.4-3,2.9-4.6,4.1c-0.8,0.6-1.6,1.3-2.5,1.8
									c-0.9,0.5-1.7,1.1-2.5,1.6c-1.8,0.9-3.5,1.8-5.4,2.5c-1.8,0.8-3.7,1.2-5.5,1.7c-0.9,0.2-1.9,0.3-2.8,0.5l-1.4,0.2
									c-0.5,0.1-0.9,0.1-1.4,0.1c-0.9,0.1-1.8,0.1-2.7,0.2c-0.9,0-1.8,0-2.7-0.1c-1.8,0-3.5-0.3-5.2-0.5c-0.9-0.1-1.7-0.4-2.5-0.5
									c-0.8-0.2-1.6-0.4-2.4-0.6c-0.8-0.3-1.6-0.6-2.3-0.8c-0.4-0.1-0.8-0.3-1.2-0.4c-0.4-0.2-0.7-0.3-1.1-0.5
									c-0.7-0.3-1.4-0.7-2.2-1c-0.7-0.3-1.4-0.8-2-1.1c-0.7-0.4-1.3-0.8-2-1.2c-0.6-0.4-1.2-0.9-1.8-1.3
									c-4.7-3.5-8.2-7.6-10.6-11.6c-2.4-4-3.9-7.8-4.7-10.9c-0.2-0.8-0.5-1.5-0.5-2.2c-0.1-0.7-0.2-1.4-0.3-2
									c-0.1-0.6-0.2-1.2-0.3-1.7c0-0.5-0.1-1-0.1-1.4c0-0.8-0.1-1.5-0.1-2C360.6,93.1,360.6,92.9,360.6,92.9z"/>
							</g>
						</g>
					</g>
				</g>
			</g>
			<g>
				<g>
					<g>
						<g>
							<path class="st8" d="M397.2,47.7c26.5-0.4,47.6,20.1,48,46.7l-25,0.4c-0.2-12.7-9.9-20.7-22.5-20.5L397.2,47.7z"/>
						</g>
					</g>
					<g>
						<g>
							<g>
								<path class="st5" d="M397.2,47.7c0,0,0,0.2,0,0.5c0,0.3,0,0.8,0,1.4c0,1.2,0.1,3,0.1,5.3c0.1,4.6,0.2,11.2,0.4,19.4
									l-0.2-0.2c2.4,0,5,0.2,7.5,0.9c2.6,0.7,5.2,1.9,7.5,3.6c2.3,1.8,4.3,4.1,5.7,6.9c1.4,2.8,2.1,6,2.1,9.2l-0.3-0.3
									c6.1-0.1,12.7-0.2,19.4-0.3c1.9,0,3.9-0.1,5.6-0.1l-0.3,0.3c-0.1-5.2-1-10.2-2.6-14.8c-0.4-1.1-0.8-2.3-1.3-3.4
									c-0.5-1.1-1-2.1-1.5-3.2c-0.5-1.1-1.1-2-1.7-3c-0.6-1-1.1-2-1.9-2.8c-0.7-0.9-1.3-1.8-2-2.6c-0.7-0.8-1.5-1.6-2.2-2.4
									c-0.4-0.4-0.7-0.8-1.1-1.1c-0.4-0.3-0.8-0.7-1.2-1c-0.8-0.7-1.5-1.3-2.3-2c-3.1-2.4-6.2-4.4-9.3-5.7c-0.8-0.4-1.5-0.7-2.2-1
									c-0.7-0.3-1.5-0.5-2.2-0.8c-0.7-0.2-1.4-0.5-2.1-0.7c-0.7-0.2-1.3-0.3-2-0.5c-0.6-0.2-1.3-0.3-1.9-0.4
									c-0.3-0.1-0.6-0.1-0.9-0.2c-0.3-0.1-0.6-0.1-0.9-0.1c-1.1-0.2-2.1-0.3-3.1-0.4c-0.9-0.2-1.7-0.1-2.4-0.2
									c-0.7,0-1.3-0.1-1.8-0.1c-0.5,0-0.8,0-1.1-0.1C397.4,47.7,397.3,47.7,397.2,47.7c0,0,0.1,0,0.4,0c0.3,0,0.6,0,1.1,0
									c0.5,0,1.1,0,1.8,0c0.7,0,1.6,0,2.5,0.1c0.9,0.1,2,0.2,3.1,0.4c0.3,0,0.6,0.1,0.9,0.1c0.3,0.1,0.6,0.1,0.9,0.2
									c0.6,0.1,1.2,0.3,1.9,0.4c0.6,0.2,1.3,0.3,2,0.5c0.7,0.2,1.4,0.5,2.1,0.7c0.7,0.2,1.5,0.5,2.2,0.8c0.7,0.3,1.5,0.7,2.2,1
									c3.1,1.3,6.2,3.4,9.4,5.7c0.7,0.7,1.5,1.3,2.3,2c0.4,0.3,0.8,0.7,1.2,1c0.4,0.4,0.7,0.8,1.1,1.2c0.7,0.8,1.5,1.5,2.2,2.4
									c0.7,0.9,1.3,1.7,2,2.6c0.7,0.9,1.3,1.9,1.9,2.8c0.6,1,1.3,2,1.7,3c0.5,1.1,1.1,2.1,1.6,3.2c0.4,1.1,0.9,2.3,1.3,3.4
									c1.5,4.7,2.4,9.7,2.6,15l0,0.3l-0.3,0c-1.8,0-3.7,0.1-5.6,0.1c-6.7,0.1-13.3,0.2-19.4,0.3l-0.3,0l0-0.3c0-3.2-0.7-6.3-2.1-9
									c-1.3-2.7-3.3-5-5.5-6.7c-2.2-1.7-4.8-2.9-7.3-3.6c-2.5-0.7-5-0.9-7.4-0.9h-0.2l0-0.2c-0.1-8.2-0.2-14.8-0.2-19.5
									c0-2.3,0-4,0-5.3c0-0.6,0-1,0-1.4C397.2,47.9,397.2,47.7,397.2,47.7z"/>
							</g>
						</g>
					</g>
				</g>
			</g>
		</g>
		<g>
			<g>
				<rect x="341.6" y="0.3" class="st0" width="265.1" height="25.6"/>
			</g>
		</g>
		<g>
			<g>
				<path class="st5" d="M566,58.4h-74.5c-0.9,0-1.6-0.7-1.6-1.6l0,0c0-0.9,0.7-1.6,1.6-1.6H566c0.9,0,1.6,0.7,1.6,1.6l0,0
					C567.6,57.7,566.9,58.4,566,58.4z"/>
			</g>
		</g>
		<g>
			<g>
				<path class="st5" d="M566,66.9h-74.5c-0.9,0-1.6-0.7-1.6-1.6l0,0c0-0.9,0.7-1.6,1.6-1.6H566c0.9,0,1.6,0.7,1.6,1.6l0,0
					C567.6,66.2,566.9,66.9,566,66.9z"/>
			</g>
		</g>
		<g>
			<g>
				<path class="st5" d="M525.4,75.3h-33.9c-0.9,0-1.6-0.7-1.6-1.6l0,0c0-0.9,0.7-1.6,1.6-1.6h33.9c0.9,0,1.6,0.7,1.6,1.6l0,0
					C527,74.6,526.2,75.3,525.4,75.3z"/>
			</g>
		</g>
		<g>
			<g>
				<path class="st2" d="M559.3,141.7h-63.5c-10.3,0-18.6-8.3-18.6-18.6v-6.9c0-10.3,8.3-18.6,18.6-18.6h63.5
					c10.3,0,18.6,8.3,18.6,18.6v6.9C577.9,133.4,569.5,141.7,559.3,141.7z"/>
			</g>
		</g>
		<g>
			<g>
				<path class="st2" d="M568.1,169.2h-83.2c-4.8,0-8.7-3.9-8.7-8.7l0,0c0-4.8,3.9-8.7,8.7-8.7h83.2c4.8,0,8.7,3.9,8.7,8.7l0,0
					C576.8,165.3,572.9,169.2,568.1,169.2z"/>
			</g>
		</g>
		<g>
			<g>
				<path class="st5" d="M565.5,112.8H491c-0.9,0-1.6-0.7-1.6-1.6l0,0c0-0.9,0.7-1.6,1.6-1.6h74.5c0.9,0,1.6,0.7,1.6,1.6l0,0
					C567.1,112.1,566.4,112.8,565.5,112.8z"/>
			</g>
		</g>
		<g>
			<g>
				<path class="st5" d="M562.4,162.3h-74.5c-0.9,0-1.6-0.7-1.6-1.6l0,0c0-0.9,0.7-1.6,1.6-1.6h74.5c0.9,0,1.6,0.7,1.6,1.6l0,0
					C563.9,161.6,563.2,162.3,562.4,162.3z"/>
			</g>
		</g>
		<g>
			<g>
				<path class="st5" d="M565.5,121.2H491c-0.9,0-1.6-0.7-1.6-1.6l0,0c0-0.9,0.7-1.6,1.6-1.6h74.5c0.9,0,1.6,0.7,1.6,1.6l0,0
					C567.1,120.5,566.4,121.2,565.5,121.2z"/>
			</g>
		</g>
		<g>
			<g>
				<path class="st5" d="M524.9,129.7H491c-0.9,0-1.6-0.7-1.6-1.6l0,0c0-0.9,0.7-1.6,1.6-1.6h33.9c0.9,0,1.6,0.7,1.6,1.6l0,0
					C526.5,129,525.8,129.7,524.9,129.7z"/>
			</g>
		</g>
		<g>
			<g>
				<g>
					<path class="st5" d="M472,53.1c0,0-0.5,0.1-1.4,0.1c-1,0-2.3,0.1-3.8,0.1c-3.2,0-7.6,0.1-12.5,0.1c-2,0-3.9,0-5.7,0l0.2-0.1
						c-2.5,2.5-4.6,4.6-6.2,6c-0.7,0.7-1.3,1.2-1.8,1.7c-0.4,0.4-0.7,0.6-0.7,0.6s0.2-0.3,0.6-0.7c0.5-0.5,1-1.1,1.7-1.8
						c1.5-1.5,3.6-3.7,6-6.2l0.1-0.1l0.1,0c1.8,0,3.7,0,5.7,0c4.9,0,9.3,0,12.5,0.1c1.5,0,2.8,0.1,3.8,0.1C471.5,53,472,53,472,53.1
						z"/>
				</g>
			</g>
		</g>
		<g>
			<g>
				<circle class="st5" cx="470.9" cy="53.1" r="2.1"/>
			</g>
		</g>
		<g>
			<g>
				<circle class="st5" cx="470.9" cy="116.8" r="2.1"/>
			</g>
		</g>
		<g>
			<g>
				<g>
					<path class="st5" d="M469.5,117.2c0,0.1-1.4,0.1-3.6,0.2c-2.2,0-5.2,0-8.6,0c-3.3,0-6.2-0.1-8.6-0.1c-1,0-1.9,0-2.6-0.1
						c-0.6,0-0.9,0-1,0c0-0.1,1.4-0.2,3.5-0.3c2.2-0.1,5.2-0.1,8.6-0.1c3.3,0,6.4,0.1,8.6,0.1C468.1,117,469.5,117.1,469.5,117.2z"
						/>
				</g>
			</g>
		</g>
		<g>
			<g>
				<g>
					<rect x="373.8" y="163.7" class="st6" width="6.9" height="6.9"/>
				</g>
			</g>
			<g>
				<g>
					<rect x="397.1" y="163.7" class="st0" width="6.9" height="6.9"/>
				</g>
			</g>
			<g>
				<g>
					<rect x="422.4" y="163.7" class="st8" width="6.9" height="6.9"/>
				</g>
			</g>
		</g>
		<g>
			<g>
				<path class="st4" d="M359.6,13c0,2-1.6,3.7-3.5,3.7c-1.9,0-3.5-1.6-3.5-3.7s1.6-3.7,3.5-3.7C358,9.4,359.6,11,359.6,13z"/>
			</g>
		</g>
		<g>
			<g>
				<path class="st4" d="M371.5,13c0,2-1.6,3.7-3.5,3.7c-1.9,0-3.5-1.6-3.5-3.7s1.6-3.7,3.5-3.7C369.9,9.4,371.5,11,371.5,13z"/>
			</g>
		</g>
		<g>
			<g>
				<path class="st4" d="M383.4,13c0,2-1.6,3.7-3.5,3.7c-1.9,0-3.5-1.6-3.5-3.7s1.6-3.7,3.5-3.7C381.8,9.4,383.4,11,383.4,13z"/>
			</g>
		</g>
		<g>
			<g>
				<g>
					<path class="st5" d="M606.7,191.6c0-1.8-0.1-75.3-0.2-191.3l0.2,0.2c-74.2,0-166,0-265.1,0h0l0.3-0.3c0,68.6,0,133.6,0,191.3
						l-0.2-0.2C498.3,191.5,604.6,191.6,606.7,191.6c-2.1,0-108.3,0.1-265.1,0.2l-0.2,0v-0.2c0-57.7,0-122.7,0-191.3V0h0.3h0
						c99.1,0,190.9,0,265.1,0h0.2l0,0.2C606.8,116.3,606.7,189.8,606.7,191.6z"/>
				</g>
			</g>
		</g>
	</g>
	<g>
		<g>
			<g>
				<rect x="527" y="126.3" class="st4" width="188.8" height="141.2"/>
			</g>
		</g>
		<g>
			<g>
				<rect x="526.4" y="126.3" class="st0" width="188.8" height="17.4"/>
			</g>
		</g>
		<g>
			<g>
				<circle class="st4" cx="536.8" cy="135.1" r="2.5"/>
			</g>
		</g>
		<g>
			<g>
				<circle class="st4" cx="545.3" cy="135.1" r="2.5"/>
			</g>
		</g>
		<g>
			<g>
				<circle class="st4" cx="553.7" cy="135.1" r="2.5"/>
			</g>
		</g>
		<g>
			<g>
				<g>
					<path class="st5" d="M715.3,267.5c0,0,0-0.9,0-2.6c0-1.7,0-4.2,0-7.5c0-6.6,0-16.2-0.1-28.5c0-24.6-0.1-59.9-0.1-102.6l0.2,0.2
						c-53.3,0-118.5,0-188.8,0h0l0.3-0.3c0,50.7,0,98.8,0,141.2l-0.2-0.2c55.9,0,103.1,0.1,136.3,0.1c16.6,0,29.7,0,38.7,0.1
						c4.5,0,7.9,0,10.3,0c1.2,0,2,0,2.6,0C715,267.5,715.3,267.5,715.3,267.5s-0.3,0-0.9,0c-0.6,0-1.5,0-2.6,0c-2.3,0-5.8,0-10.2,0
						c-9,0-22.1,0-38.7,0.1c-33.2,0-80.5,0.1-136.5,0.1l-0.2,0v-0.2c0-42.4,0-90.4,0-141.2l0-0.3h0.3h0c70.4,0,135.6,0,188.8,0
						l0.2,0l0,0.2c0,42.8-0.1,78.1-0.1,102.7c0,12.3,0,21.9-0.1,28.5c0,3.3,0,5.8,0,7.5C715.3,266.7,715.3,267.5,715.3,267.5z"/>
				</g>
			</g>
		</g>
		<g>
			<g>
				<g>
					<path class="st0" d="M704.9,211.4c0,0.1-37.6,0.3-83.9,0.3c-46.4,0-83.9-0.1-83.9-0.3c0-0.1,37.6-0.3,83.9-0.3
						C667.3,211.2,704.9,211.3,704.9,211.4z"/>
				</g>
			</g>
		</g>
		<g>
			<g>
				<g>
					<path class="st0" d="M704.9,196.9c0,0.1-37.6,0.3-83.9,0.3c-46.4,0-83.9-0.1-83.9-0.3c0-0.1,37.6-0.3,83.9-0.3
						C667.3,196.7,704.9,196.8,704.9,196.9z"/>
				</g>
			</g>
		</g>
		<g>
			<g>
				<g>
					<path class="st0" d="M704.9,182.4c0,0.1-37.6,0.3-83.9,0.3c-46.4,0-83.9-0.1-83.9-0.3c0-0.1,37.6-0.3,83.9-0.3
						C667.3,182.2,704.9,182.3,704.9,182.4z"/>
				</g>
			</g>
		</g>
		<g>
			<g>
				<g>
					<path class="st0" d="M704.9,167.9c0,0.1-37.6,0.3-83.9,0.3c-46.4,0-83.9-0.1-83.9-0.3c0-0.1,37.6-0.3,83.9-0.3
						C667.3,167.7,704.9,167.8,704.9,167.9z"/>
				</g>
			</g>
		</g>
		<g>
			<g>
				<rect x="551.2" y="204.8" class="st8" width="14" height="28.1"/>
			</g>
		</g>
		<g>
			<g>
				<rect x="601.3" y="204.8" class="st6" width="14" height="28.1"/>
			</g>
		</g>
		<g>
			<g>
				<rect x="677.4" y="214.4" class="st6" width="14" height="18.5"/>
			</g>
		</g>
		<g>
			<g>
				<rect x="651.5" y="191.5" class="st0" width="14" height="41.4"/>
			</g>
		</g>
		<g>
			<g>
				<rect x="625.8" y="175.4" class="st8" width="14" height="57.5"/>
			</g>
		</g>
		<g>
			<g>
				<rect x="575.3" y="191.5" class="st0" width="14" height="41.4"/>
			</g>
		</g>
		<g>
			<g>
				<g>
					<path class="st5" d="M702.9,232.9c0,0-0.2,0-0.6,0c-0.4,0-1,0-1.8,0c-1.6,0-4,0-7,0c-6.1,0-15,0-25.9,0.1
						c-21.9,0-52.1,0-85.5,0.1c-16,0-31.2,0-45.1,0l-0.2,0l0-0.2c0-22.2,0.1-41.2,0.1-54.6c0-6.7,0.1-12,0.1-15.6c0-1.8,0-3.2,0-4.2
						c0-0.5,0-0.8,0-1.1c0-0.2,0-0.4,0-0.4s0,0.1,0,0.4c0,0.3,0,0.6,0,1.1c0,1,0,2.4,0,4.2c0,3.7,0,9,0.1,15.6
						c0,13.4,0.1,32.4,0.1,54.6l-0.2-0.2c13.9,0,29.1,0,45.1,0c33.4,0,63.6,0.1,85.5,0.1c10.9,0,19.8,0.1,25.9,0.1c3,0,5.4,0,7,0
						c0.8,0,1.4,0,1.8,0C702.7,232.9,702.9,232.9,702.9,232.9z"/>
				</g>
			</g>
		</g>
		<g>
			<g>
				<g>
					<rect x="566.1" y="247.2" class="st8" width="6.1" height="6.1"/>
				</g>
			</g>
			<g>
				<g>
					<rect x="603.6" y="247" class="st0" width="6.1" height="6.1"/>
				</g>
			</g>
			<g>
				<g>
					<rect x="644.2" y="247.2" class="st6" width="6.1" height="6.1"/>
				</g>
			</g>
			<g>
				<g>
					<g>
						<path class="st5" d="M592.6,250.1c0,0.1-3.7,0.3-8.4,0.3c-4.6,0-8.4-0.1-8.4-0.3c0-0.1,3.7-0.3,8.4-0.3
							C588.9,249.8,592.6,249.9,592.6,250.1z"/>
					</g>
				</g>
			</g>
			<g>
				<g>
					<g>
						<path class="st5" d="M629.8,250.1c0,0.1-3.7,0.3-8.4,0.3c-4.6,0-8.4-0.1-8.4-0.3c0-0.1,3.7-0.3,8.4-0.3
							C626.1,249.8,629.8,249.9,629.8,250.1z"/>
					</g>
				</g>
			</g>
			<g>
				<g>
					<g>
						<path class="st5" d="M669.4,250.1c0,0.1-3.7,0.3-8.4,0.3c-4.6,0-8.4-0.1-8.4-0.3c0-0.1,3.7-0.3,8.4-0.3
							C665.7,249.8,669.4,249.9,669.4,250.1z"/>
					</g>
				</g>
			</g>
		</g>
	</g>
	<g>
		<g>
			<g>
				<g>
					<rect x="624.5" y="82.2" class="st4" width="65.3" height="65.3"/>
				</g>
			</g>
			<g>
				<g>
					<g>
						<path class="st5" d="M689.8,147.5c0,0,0-0.1,0-0.3c0-0.2,0-0.5,0-0.9c0-0.8,0-2,0-3.5c0-3.1,0-7.6-0.1-13.3
							c0-11.4-0.1-27.7-0.1-47.2l0.2,0.2c-19,0-41.4,0-65.2,0h0l0.3-0.3c0,23.9,0,46.3,0,65.3l-0.2-0.2c19.5,0,35.8,0.1,47.2,0.1
							c5.7,0,10.2,0,13.3,0.1c1.5,0,2.7,0,3.5,0c0.4,0,0.7,0,0.9,0C689.7,147.5,689.8,147.5,689.8,147.5c0,0-0.1,0-0.3,0
							c-0.2,0-0.5,0-0.9,0c-0.8,0-2,0-3.5,0c-3.1,0-7.5,0-13.2,0.1c-11.5,0-27.8,0.1-47.4,0.1l-0.2,0l0-0.2c0-19,0-41.4,0-65.3
							l0-0.3h0.3h0c23.9,0,46.3,0,65.2,0l0.2,0l0,0.2c0,19.6-0.1,35.9-0.1,47.4c0,5.7,0,10.2-0.1,13.2c0,1.5,0,2.7,0,3.5
							c0,0.4,0,0.7,0,0.9C689.8,147.4,689.8,147.5,689.8,147.5z"/>
					</g>
				</g>
			</g>
		</g>
		<g>
			<g>
				<g>
					<g>
						<g>
							<path class="st8" d="M660.9,115c3.6-1.5,6.2-5.3,6.3-9.7c0-5.8-4.4-10.5-9.8-10.6c-5.4,0-9.9,4.7-9.9,10.5
								c0,4.5,2.6,8.3,6.3,9.8c-15.2,2.3-14.5,18.8-14.5,18.8l35.9,0.2C675.1,133.9,675.9,117.2,660.9,115z"/>
						</g>
					</g>
				</g>
			</g>
		</g>
	</g>
	<g>
		<g>
			<g>
				<g>
					<path class="st5" d="M796.2,82.6c-0.4-0.5-1.1-0.7-1.7-0.8c-1.9-0.2-3.8,0.2-5.4,1c2.5-2.4,2.9-6.5,1.1-9.5
						c-1.8-2.9-5.5-4.5-8.8-4c-3.4,0.5-6.4,3-7.7,6.2c-1.3,3.2-1.1,6.9,0.4,10l5.7,1.5c2.6,1.8,5.8,2.7,8.9,2.7
						c1.3,0,2.7-0.2,3.5-1.2c0.9-0.9,0.7-2.8-0.5-3.2c1.2,0.3,2.4,0.5,3.5,0C796.2,85,796.9,83.5,796.2,82.6z"/>
				</g>
			</g>
			<g>
				<g>
					<path class="st5" d="M766.8,75.2c-3.5-1.1-7.4-0.7-10.6,1.1c-1.8-2.3-4.9-3.5-7.7-3.1s-5.4,2.5-6.5,5.2
						c-3.1-1.2-6.9,0.1-8.6,2.9c-1.7,2.8-0.9,6.9,1.6,8.9c-2.5,1-4.5,3.3-5.2,5.9c-0.7,2.6-0.2,5.5,1.4,7.7
						c-2.7,1.3-3.1,4.9-2.7,7.9c0.4,2.9,1.2,6.1-0.1,8.8c-1,2.1-3.1,3.3-4.6,5.1c-1.4,1.8-1.9,4.9,0,6.1c-3.3,0.4-5.9,4-5.3,7.3
						c0.6,3.3,4.3,5.7,7.5,4.9c-1.1,2.3-0.6,5.2,0.8,7.3c1.4,2.1,3.7,3.6,6.1,4.5c6.9,2.5,15.3,0.1,19.9-5.6l22-67.9
						C773.3,78.8,770.3,76.2,766.8,75.2z"/>
				</g>
			</g>
			<g>
				<g>
					<g>
						<g>
							<path class="st10" d="M777.2,94l0.3-3.7l-21.8-5.5c-6.8-1.1-14.5,5.2-15.4,12c-0.9,7.5-1.8,16.8-1.2,22.5
								c1.1,11.5,9.7,13.4,9.7,13.4l-0.6,11.3l25.1,1.8L777.2,94z"/>
						</g>
					</g>
				</g>
				<g>
					<g>
						<g>
							<path class="st5" d="M743.1,106.9c-0.1,0.8,0.5,1.5,1.3,1.6c0.8,0.1,1.5-0.5,1.6-1.2c0.1-0.8-0.5-1.5-1.3-1.6
								C743.8,105.6,743.1,106.1,743.1,106.9z"/>
						</g>
					</g>
				</g>
				<g>
					<g>
						<g>
							<path class="st5" d="M742.5,101.8c0.2,0.2,1.3-0.5,2.9-0.5c1.6,0.1,2.7,1,2.9,0.8c0.1-0.1-0.1-0.4-0.6-0.8
								c-0.5-0.4-1.3-0.8-2.3-0.9c-1-0.1-1.8,0.3-2.3,0.6C742.6,101.4,742.4,101.7,742.5,101.8z"/>
						</g>
					</g>
				</g>
				<g>
					<g>
						<g>
							<path class="st5" d="M757.3,107.7c-0.1,0.8,0.5,1.5,1.3,1.6c0.8,0.1,1.5-0.5,1.6-1.2c0.1-0.8-0.5-1.5-1.3-1.6
								C758.1,106.3,757.4,106.9,757.3,107.7z"/>
						</g>
					</g>
				</g>
				<g>
					<g>
						<g>
							<path class="st5" d="M757.9,103c0.2,0.2,1.3-0.5,2.9-0.5c1.6,0.1,2.7,1,2.9,0.8c0.1-0.1-0.1-0.4-0.6-0.8
								c-0.5-0.4-1.3-0.8-2.3-0.9c-1-0.1-1.8,0.3-2.3,0.6C758,102.6,757.8,102.9,757.9,103z"/>
						</g>
					</g>
				</g>
				<g>
					<g>
						<g>
							<path class="st5" d="M751.5,114.3c0-0.1-1-0.3-2.5-0.6c-0.4-0.1-0.8-0.2-0.8-0.4c-0.1-0.3,0.1-0.7,0.3-1.2
								c0.4-0.9,0.9-1.9,1.4-3c1.9-4.2,3.3-7.7,3.1-7.8c-0.2-0.1-1.9,3.3-3.8,7.5c-0.5,1-0.9,2-1.3,3c-0.2,0.4-0.5,0.9-0.3,1.6
								c0.1,0.3,0.4,0.5,0.6,0.6c0.3,0.1,0.5,0.1,0.7,0.1C750.5,114.3,751.5,114.4,751.5,114.3z"/>
						</g>
					</g>
				</g>
				<g>
					<g>
						<g>
							<path class="st11" d="M748.9,132.8c0,0,8,1,15.9-3.1c0,0-4.3,7.7-16,6L748.9,132.8z"/>
						</g>
					</g>
				</g>
				<g>
					<g>
						<g>
							<path class="st5" d="M758.3,97.6c0.2,0.4,1.7,0.2,3.6,0.4c1.8,0.2,3.3,0.7,3.6,0.3c0.1-0.2-0.2-0.6-0.8-1
								c-0.6-0.4-1.5-0.8-2.7-0.9c-1.1-0.1-2.1,0.1-2.8,0.3C758.6,97.1,758.2,97.4,758.3,97.6z"/>
						</g>
					</g>
				</g>
				<g>
					<g>
						<g>
							<g>
								<g>
									<g>
										<g>
											<g>
												<g>
													<g>
														<g>
															<g>
																<g>
																	<g>
																		<g>
																			<g>
																				<g>
																					<g>
																						<g>
																							<g>
																								<g>
																									<g>
																										<path class="st5" d="M742.9,97.9c0.3,0.4,1.4,0.1,2.7,0.2c1.3,0,2.4,0.4,2.7,0c0.1-0.2,0-0.5-0.5-0.9
																											c-0.5-0.4-1.2-0.7-2.1-0.7c-0.9,0-1.7,0.2-2.2,0.6C743,97.4,742.8,97.7,742.9,97.9z"/>
																									</g>
																								</g>
																							</g>
																						</g>
																					</g>
																				</g>
																			</g>
																		</g>
																	</g>
																</g>
															</g>
														</g>
													</g>
												</g>
											</g>
										</g>
									</g>
								</g>
							</g>
						</g>
					</g>
				</g>
				<g>
					<g>
						<g>
							<path class="st5" d="M740.4,88.7c2.6-3.4,6.3-5.8,10.4-6.9l18.4,2.3l1.6,0c0.3-1.2,2.3-1.8,2.3-1.8c1.7-1.3,7.7-1.4,11.9,3
								c1.5,1.6,2.6,5.5,2.6,7.7c0,0.8-0.9,2-0.2,2.4c0.2,0.2,2.2,0.1,2.5,0.2c4.7,1,7.6,5.2,6.8,11.4c0,0.3-0.2,0.6-0.1,0.9
								c0.1,0.5,0.5,0.9,0.8,1.2c2.2,2.4,2.8,6.2,1.3,9c-0.5,0.9-1.1,1.7-1.3,2.7c-0.3,1.8,1,3.3,2,4.8c3,4.5,3.6,10.9,0.1,15
								c-0.9,1-2,1.9-2.3,3.1c-0.2,0.6-0.1,1.3-0.1,1.9c0,3.2-1.7,6.9-4.9,7.5c-1.8,0.4-3.9-0.1-5.1,1.2c-0.5,0.6-0.8,1.3-1.1,2.1
								c-1.3,2.7-4.7,4.1-7.6,3.3c-2.9-0.9-3.8-12.5-3.4-15.4c-3.5-1.3-6-1.5-5.9-5.2c0,0,0.5-6.3-0.5-9.4c-1-3.1,1-9.6,2.2-12.8
								c1.2-3.2-0.2-10.6-0.5-13.6c-0.1-0.5,0-1.4,0.2-2.5l0,0c0,0,0,0,0,0c0.1-0.7,0.3-1.5,0.5-2.4c0.1-0.8,0.7-5.1,0.7-5.9
								c0-2.8-3.5-1.3-6.1-0.4c-0.6,0.2-1.3,0.3-2,0.4c-2.2,0.1-4.4-1-5.7-2.7c-2.5,2.7-6.5,3.8-10,2.7c-1.4,2-2.9,4-4.8,5.5
								c-1.9,1.5-4.3,2.6-6.7,2.3C736.5,96.2,737.9,92,740.4,88.7z"/>
						</g>
					</g>
				</g>
				<g>
					<g>
						<g>
							<path class="st11" d="M752.7,118.1c0.5-0.8,1.5-1.2,2.4-1.2c0.7,0,1.4,0.3,1.8,0.9c0.4,0.5,0.6,1.3,0.2,1.8
								c-0.4,0.6-1.2,0.8-2,0.6c-0.7-0.2-1.4-0.6-2-1.1c-0.2-0.1-0.3-0.3-0.5-0.4C752.5,118.6,752.5,118.3,752.7,118.1"/>
						</g>
					</g>
				</g>
				<g>
					<g>
						<g>
							<path class="st5" d="M756.4,115.3c-0.3,0-0.2,1.7-1.5,2.9c-1.4,1.3-3.2,1.2-3.2,1.4c0,0.1,0.4,0.3,1.2,0.3
								c0.7,0,1.8-0.3,2.6-1.1c0.8-0.8,1.2-1.8,1.2-2.4C756.7,115.7,756.5,115.3,756.4,115.3z"/>
						</g>
					</g>
				</g>
			</g>
		</g>
		<g>
			<g>
				<g>
					<g>
						<g>
							<g>
								<g>
									<g>
										<g>
											<g>
												<g>
													<g>
														<g>
															<g>
																<g>
																	<g>
																		<g>
																			<g>
																				<g>
																					<path class="st6" d="M721.5,414.7l2.1,21.6c0,0-23.5,8.8-23.8,13.1l44.5,0.1l0-3.3l-1.9-11.1l-2.7-21.6
																						L721.5,414.7z"/>
																				</g>
																			</g>
																		</g>
																	</g>
																</g>
															</g>
														</g>
													</g>
												</g>
											</g>
										</g>
									</g>
								</g>
							</g>
						</g>
					</g>
				</g>
				<g>
					<g>
						<g>
							<g>
								<g>
									<g>
										<g>
											<g>
												<g>
													<g>
														<g>
															<g>
																<g>
																	<g>
																		<g>
																			<g>
																				<g>
																					<g>
																						<path class="st0" d="M736.9,433c0.9,0.2,1.5,1.2,1.3,2.1c-0.2,0.9-1.2,1.5-2.1,1.3c-0.9-0.2-1.7-1.4-1.4-2.2
																							c0.3-0.9,1.5-1.5,2.3-1.1"/>
																					</g>
																				</g>
																			</g>
																		</g>
																	</g>
																</g>
															</g>
														</g>
													</g>
												</g>
											</g>
										</g>
									</g>
								</g>
							</g>
						</g>
					</g>
				</g>
				<g>
					<g>
						<g>
							<g>
								<g>
									<g>
										<g>
											<g>
												<g>
													<g>
														<g>
															<g>
																<g>
																	<g>
																		<g>
																			<g>
																				<g>
																					<path class="st5" d="M744.2,449.6l0-3.3l-42.6,0.8c0,0-2,0.9-1.8,2.3L744.2,449.6z"/>
																				</g>
																			</g>
																		</g>
																	</g>
																</g>
															</g>
														</g>
													</g>
												</g>
											</g>
										</g>
									</g>
								</g>
							</g>
						</g>
					</g>
				</g>
				<g>
					<g>
						<g>
							<g>
								<g>
									<g>
										<g>
											<g>
												<g>
													<g>
														<g>
															<g>
																<g>
																	<g>
																		<g>
																			<g>
																				<g>
																					<g>
																						<path class="st5" d="M722.8,436.1c0,0.2,1.1,0.3,2.2,1c1.1,0.7,1.7,1.6,1.9,1.6c0.2,0-0.1-1.4-1.5-2.2
																							C724.1,435.6,722.8,435.9,722.8,436.1z"/>
																					</g>
																				</g>
																			</g>
																		</g>
																	</g>
																</g>
															</g>
														</g>
													</g>
												</g>
											</g>
										</g>
									</g>
								</g>
							</g>
						</g>
					</g>
				</g>
				<g>
					<g>
						<g>
							<g>
								<g>
									<g>
										<g>
											<g>
												<g>
													<g>
														<g>
															<g>
																<g>
																	<g>
																		<g>
																			<g>
																				<g>
																					<g>
																						<path class="st5" d="M718,438.1c-0.1,0.2,0.9,0.6,1.7,1.5c0.8,0.9,1,1.9,1.2,1.9c0.2,0,0.4-1.3-0.6-2.4
																							C719.4,437.9,718.1,437.8,718,438.1z"/>
																					</g>
																				</g>
																			</g>
																		</g>
																	</g>
																</g>
															</g>
														</g>
													</g>
												</g>
											</g>
										</g>
									</g>
								</g>
							</g>
						</g>
					</g>
				</g>
				<g>
					<g>
						<g>
							<g>
								<g>
									<g>
										<g>
											<g>
												<g>
													<g>
														<g>
															<g>
																<g>
																	<g>
																		<g>
																			<g>
																				<g>
																					<g>
																						<path class="st5" d="M715.4,443.8c0.2,0,0.5-1.1-0.1-2.3c-0.6-1.2-1.6-1.7-1.7-1.5c-0.1,0.2,0.6,0.8,1,1.8
																							C715.1,442.8,715.1,443.8,715.4,443.8z"/>
																					</g>
																				</g>
																			</g>
																		</g>
																	</g>
																</g>
															</g>
														</g>
													</g>
												</g>
											</g>
										</g>
									</g>
								</g>
							</g>
						</g>
					</g>
				</g>
				<g>
					<g>
						<g>
							<g>
								<g>
									<g>
										<g>
											<g>
												<g>
													<g>
														<g>
															<g>
																<g>
																	<g>
																		<g>
																			<g>
																				<g>
																					<g>
																						<path class="st5" d="M721.2,430.9c0.1,0.2,1.1-0.1,2.4,0c1.3,0.1,2.2,0.5,2.4,0.3c0.1-0.2-0.8-1-2.3-1.1
																							C722.2,430,721.1,430.7,721.2,430.9z"/>
																					</g>
																				</g>
																			</g>
																		</g>
																	</g>
																</g>
															</g>
														</g>
													</g>
												</g>
											</g>
										</g>
									</g>
								</g>
							</g>
						</g>
					</g>
				</g>
			</g>
		</g>
		<g>
			<g>
				<g>
					<g>
						<g>
							<g>
								<g>
									<g>
										<g>
											<g>
												<g>
													<g>
														<g>
															<g>
																<g>
																	<g>
																		<g>
																			<g>
																				<g>
																					<path class="st6" d="M776.1,415.3l1.9,21.2c0,0-23.2,8.5-23.4,12.8l43.7,0.4l0-3.2l-1.8-10.9l-2.6-21.2
																						L776.1,415.3z"/>
																				</g>
																			</g>
																		</g>
																	</g>
																</g>
															</g>
														</g>
													</g>
												</g>
											</g>
										</g>
									</g>
								</g>
							</g>
						</g>
					</g>
				</g>
				<g>
					<g>
						<g>
							<g>
								<g>
									<g>
										<g>
											<g>
												<g>
													<g>
														<g>
															<g>
																<g>
																	<g>
																		<g>
																			<g>
																				<g>
																					<g>
																						<path class="st0" d="M791.2,433.3c0.9,0.2,1.5,1.2,1.3,2.1c-0.2,0.9-1.2,1.5-2.1,1.3
																							c-0.9-0.2-1.6-1.4-1.3-2.2c0.3-0.8,1.5-1.5,2.3-1.1"/>
																					</g>
																				</g>
																			</g>
																		</g>
																	</g>
																</g>
															</g>
														</g>
													</g>
												</g>
											</g>
										</g>
									</g>
								</g>
							</g>
						</g>
					</g>
				</g>
				<g>
					<g>
						<g>
							<g>
								<g>
									<g>
										<g>
											<g>
												<g>
													<g>
														<g>
															<g>
																<g>
																	<g>
																		<g>
																			<g>
																				<g>
																					<path class="st5" d="M798.3,449.7l0-3.2l-41.9,0.5c0,0-2,0.9-1.8,2.3L798.3,449.7z"/>
																				</g>
																			</g>
																		</g>
																	</g>
																</g>
															</g>
														</g>
													</g>
												</g>
											</g>
										</g>
									</g>
								</g>
							</g>
						</g>
					</g>
				</g>
				<g>
					<g>
						<g>
							<g>
								<g>
									<g>
										<g>
											<g>
												<g>
													<g>
														<g>
															<g>
																<g>
																	<g>
																		<g>
																			<g>
																				<g>
																					<g>
																						<path class="st5" d="M777.3,436.3c0,0.2,1.1,0.3,2.2,1c1.1,0.7,1.6,1.6,1.8,1.5c0.2,0-0.1-1.3-1.4-2.2
																							C778.6,435.9,777.2,436.1,777.3,436.3z"/>
																					</g>
																				</g>
																			</g>
																		</g>
																	</g>
																</g>
															</g>
														</g>
													</g>
												</g>
											</g>
										</g>
									</g>
								</g>
							</g>
						</g>
					</g>
				</g>
				<g>
					<g>
						<g>
							<g>
								<g>
									<g>
										<g>
											<g>
												<g>
													<g>
														<g>
															<g>
																<g>
																	<g>
																		<g>
																			<g>
																				<g>
																					<g>
																						<path class="st5" d="M772.6,438.2c-0.1,0.2,0.9,0.6,1.6,1.5c0.8,0.9,0.9,1.9,1.2,1.9c0.2,0,0.4-1.2-0.6-2.4
																							C773.9,438.1,772.6,438,772.6,438.2z"/>
																					</g>
																				</g>
																			</g>
																		</g>
																	</g>
																</g>
															</g>
														</g>
													</g>
												</g>
											</g>
										</g>
									</g>
								</g>
							</g>
						</g>
					</g>
				</g>
				<g>
					<g>
						<g>
							<g>
								<g>
									<g>
										<g>
											<g>
												<g>
													<g>
														<g>
															<g>
																<g>
																	<g>
																		<g>
																			<g>
																				<g>
																					<g>
																						<path class="st5" d="M769.9,443.8c0.2,0,0.5-1-0.1-2.2c-0.5-1.2-1.6-1.7-1.7-1.5c-0.1,0.2,0.5,0.8,1,1.8
																							C769.6,442.9,769.7,443.8,769.9,443.8z"/>
																					</g>
																				</g>
																			</g>
																		</g>
																	</g>
																</g>
															</g>
														</g>
													</g>
												</g>
											</g>
										</g>
									</g>
								</g>
							</g>
						</g>
					</g>
				</g>
				<g>
					<g>
						<g>
							<g>
								<g>
									<g>
										<g>
											<g>
												<g>
													<g>
														<g>
															<g>
																<g>
																	<g>
																		<g>
																			<g>
																				<g>
																					<g>
																						<path class="st5" d="M775.8,431.2c0.1,0.2,1.1-0.1,2.3,0c1.2,0.1,2.2,0.5,2.3,0.3c0.1-0.2-0.8-1-2.3-1.1
																							C776.7,430.3,775.7,431,775.8,431.2z"/>
																					</g>
																				</g>
																			</g>
																		</g>
																	</g>
																</g>
															</g>
														</g>
													</g>
												</g>
											</g>
										</g>
									</g>
								</g>
							</g>
						</g>
					</g>
				</g>
			</g>
		</g>
		<g>
			<g>
				<g>
					<path class="st5" d="M720.5,227.1c0,0-10.5,30.5-10.9,53.2c-0.4,22.7-0.7,58.8,4,98.6c4.7,39.8,6.9,55.8,6.9,55.8h24
						c0,0,2.5-24.9,2.2-47.3c-0.4-22.3-2.1-29.4,0-54c2.1-24.6,5.5-39.3,9.1-46.8c0,0,9.9-11.8,10.6-27.9c0.7-16.1-5-30-5-30
						L720.5,227.1z"/>
				</g>
			</g>
			<g>
				<g>
					<path class="st5" d="M741.8,269.9c0.4,1.2,7.5,51.3,12.7,73.3c5.2,22.1,11,27.9,12,45.9c1.2,20.6,6.8,45.7,6.8,45.7h25.5
						c0,0-3.6-38.2-7.2-68c-3.6-29.8-8.8-66.6-8-77.6c0.8-11,2.8-24.7,0-40.1c-2.8-15.5-8.8-19.5-8.8-19.5l-21.7-1L741.8,269.9z"/>
				</g>
			</g>
			<g>
				<g>
					<g>
						<path class="st6" d="M765.9,241.3c0,0,0.2,0.3,0.4,0.8c0.3,0.5,0.5,1.3,0.9,2.3c0.6,2.1,1,5.3,0.8,9.1
							c-0.1,3.9-0.8,8.5-2.1,13.5c-0.7,2.5-1.6,5-2.8,7.6c-1.2,2.5-2.9,4.9-4.6,7.3c-3.5,4.8-5.2,10.2-6.5,15.1
							c-1.3,4.9-1.9,9.5-2.4,13.3c-0.5,3.8-0.8,7-1,9.1c-0.1,1-0.2,1.9-0.2,2.5c-0.1,0.6-0.1,0.9-0.1,0.9c0,0,0-0.3,0-0.9
							c0-0.6,0.1-1.4,0.1-2.5c0.1-2.2,0.4-5.3,0.8-9.1c0.4-3.9,1.1-8.4,2.3-13.4c0.6-2.5,1.4-5.1,2.4-7.7c0.5-1.3,1.1-2.6,1.8-3.9
							c0.7-1.3,1.5-2.5,2.3-3.7c1.7-2.4,3.4-4.8,4.6-7.3c1.2-2.5,2.1-5,2.8-7.5c1.3-4.9,2-9.5,2.2-13.3c0.2-3.9-0.1-7-0.7-9.1
							c-0.3-1-0.5-1.8-0.8-2.4C766,241.6,765.8,241.3,765.9,241.3z"/>
					</g>
				</g>
			</g>
		</g>
		<g>
			<g>
				<g>
					<path class="st10" d="M664.3,164.8c4.4,2.6,12.4,5.1,12.4,5.1l8.9-7.1c0,0-6.4-11.7-8.4-15c-0.6-0.9-1.4-2.6-1.7-3.5
						c-0.7-2.5-2.5-1.4-2.8,0.5c-0.1,0.6,0.3,2.4,0.6,3.1c0.8,2.2,0.6,3.8,0.6,3.8s-0.7-0.6-2.3-1.6c-1.7-1.2-7.6-6.1-10.1-8.2
						c-3.7-3.1-5.6-1.2-5.1,0c0.6,1.5,9.8,8,9.5,9.1c0,0-1.8,1-2,2.2c-0.3,1.2,0,2.3,0,2.3s-1.7,0.2-2.1,1.2
						c-0.4,1.1,0.1,2.6,0.1,2.6s-1.5,0.1-1.7,1C660,161.1,661,162.8,664.3,164.8z"/>
				</g>
			</g>
		</g>
		<g>
			<g>
				<g>
					<g>
						<g>
							<path class="st8" d="M684.1,159.6c0.1,0.4,19.1,19.8,19.1,19.8s15.8-17.8,20.7-24.4c4.8-6.6,12.1-14.6,18.4-16.1
								c6.3-1.5,15,2.5,15,2.5l-11.2,22.9l-14.1,19.4c0,0-15.2,19.1-22.4,22.1c-7.2,2.9-14.3-1.3-17.4-4.5c-3.1-3.2-21.4-31-21.4-31
								L684.1,159.6z"/>
						</g>
					</g>
				</g>
				<g>
					<g>
						<path class="st8" d="M789.9,146.5l-43.7-7.6c0,0-12.1,21.4-16.7,43.8c-4.5,22.4-9.7,44.9-9.7,44.9l40.3,5
							c4.2,0.5,8.5,0.5,12.6-0.2l4.2-0.6l-3.5-14.2c5.8-14.4,10-26.7,12.5-36.9C791.5,158.5,789.9,146.5,789.9,146.5z"/>
					</g>
				</g>
				<g>
					<g>
						<g>
							<g>
								<path class="st5" d="M745.2,167.8c0,0-0.2,0.4-0.7,1c-0.6,0.7-1.2,1.5-2,2.5c-1.7,2.1-4.1,5.1-6.7,8.3
									c-2.6,3.3-5,6.2-6.8,8.2c-0.9,1-1.6,1.8-2.2,2.4c-0.5,0.6-0.8,0.8-0.9,0.8s0.2-0.4,0.7-1c0.6-0.7,1.2-1.5,2-2.5
									c1.7-2.1,4.1-5.1,6.7-8.3c2.6-3.3,5-6.2,6.8-8.2c0.9-1,1.6-1.8,2.2-2.4C744.9,168.1,745.2,167.8,745.2,167.8z"/>
							</g>
						</g>
					</g>
				</g>
			</g>
			<g>
				<g>
					<g>
						<path class="st5" d="M772.9,218.1c0,0.1-1,0.4-2.7,0.8c-1.7,0.4-4.1,0.7-6.8,0.8c-2.7,0.1-5.1-0.1-6.9-0.3
							c-1.7-0.2-2.8-0.5-2.8-0.6c0-0.1,1.1,0.1,2.8,0.2c1.7,0.1,4.2,0.3,6.8,0.2c2.7-0.1,5.1-0.4,6.8-0.7
							C771.8,218.2,772.9,218,772.9,218.1z"/>
					</g>
				</g>
			</g>
			<g>
				<g>
					<g>
						<path class="st5" d="M702.8,191c-0.1,0-0.2-2.5-0.2-5.5c0-3.1,0.2-5.5,0.3-5.5c0.1,0,0.2,2.5,0.2,5.5
							C703.1,188.5,703,191,702.8,191z"/>
					</g>
				</g>
			</g>
			<g class="st7">
				<g>
					<g>
						<path d="M788.5,151.4l-27.3-2.4c-1,2.3,0.5,5.3,2.9,5.9c-1.5,2.6-1.5,5.9-0.1,8.5c1.4,2.6,4.2,4.4,7.1,4.7
							c0.7,0.1,1.5,0,2.2,0.3c1.5,0.5,2.2,2.2,3.1,3.5c1.2,1.7,3,3.1,5.1,3.5c2.1,0.4,4.4-0.3,5.7-1.9c1.3-1.6,1.6-3.9,1.7-6
							C789.2,162.2,789,156.8,788.5,151.4z"/>
					</g>
				</g>
			</g>
			<g class="st7">
				<g>
					<g>
						<path d="M727.9,189.1c4.5-0.9,8.6-3.4,11.4-7c2.8-3.6,4.3-8.2,4.1-12.7C737.6,175.6,732.8,183.5,727.9,189.1z"/>
					</g>
				</g>
			</g>
		</g>
		<g>
			<g>
				<g>
					<path class="st5" d="M794.8,134.6l-23.3-25.9c0.9,6.6-1.6,13.1-4.6,19c-1.7,3.4-3.6,7.4-1.8,10.7c-1.5,1.6-2.9,3.3-3.8,5.3
						c-0.9,2-1.2,4.4-0.3,6.3c1,2,3.4,3.2,5.4,2.5c-1,2.6-0.2,5.8,1.9,7.7c2.1,1.9,5.3,2.3,7.9,1.1c0.6,2.7,2.1,5.2,4.4,6.8
						c2.3,1.5,5.4,1.9,7.8,0.5c2.4-1.4,3.6-4.7,2.3-7.1c5.1-1.1,8.3-6.7,8.5-11.9C799.3,144.3,797.1,139.3,794.8,134.6z"/>
				</g>
			</g>
			<g>
				<g>
					<g>
						<path class="st6" d="M746.6,91.8c0,0-0.1,0.1-0.4,0.2c-0.3,0.1-0.7,0.1-1.2,0.1c-1-0.1-2.6-0.8-3.5-2.4
							c-0.5-0.8-0.7-1.9-0.5-3c0.2-1.1,0.7-2.2,1.6-3.1c0.8-0.9,2-1.6,3.3-1.9c1.3-0.3,2.7-0.3,4.1,0c0.8,0.2,1.6,0.5,2.3,0.8
							l-0.4,0.1c1-2.4,2.9-4.1,4.9-5c2-0.9,4.1-0.9,5.6-0.6c1.6,0.3,2.7,1,3.5,1.5c0.4,0.3,0.6,0.5,0.8,0.7c0.2,0.2,0.2,0.3,0.2,0.3
							c0,0-0.4-0.3-1.1-0.8c-0.7-0.5-1.9-1.1-3.4-1.3c-1.5-0.3-3.5-0.2-5.4,0.7c-1.9,0.9-3.7,2.5-4.6,4.8l-0.1,0.3l-0.3-0.1
							c-0.7-0.3-1.4-0.6-2.2-0.8c-1.3-0.3-2.7-0.3-3.9-0.1c-1.2,0.3-2.3,0.9-3.1,1.8c-0.8,0.8-1.3,1.8-1.5,2.8c-0.2,1,0,2,0.4,2.8
							c0.8,1.6,2.3,2.3,3.2,2.4C746,92,746.6,91.8,746.6,91.8z"/>
					</g>
				</g>
			</g>
			<g>
				<g>
					<g>
						<path class="st6" d="M796,108.2c0,0,0.2-0.5,0.4-1.4c0.2-0.9,0.5-2.2,0.2-3.9c-0.3-1.6-1.1-3.6-2.7-5
							c-1.6-1.5-4.1-2.4-6.7-2.2l-0.4,0l0.1-0.4c0.2-0.7,0.4-1.6,0.4-2.4c0.1-2.9-0.9-5.6-2.5-7.5c-1.6-1.9-3.8-2.9-5.6-3.4
							c-1.9-0.4-3.4-0.3-4.5-0.1c-1.1,0.2-1.6,0.4-1.6,0.4c0,0,0.1-0.1,0.4-0.2c0.3-0.1,0.7-0.2,1.2-0.4c1.1-0.2,2.7-0.4,4.6,0
							c1.9,0.4,4.2,1.4,5.9,3.4c1.7,2,2.8,4.8,2.7,7.9c0,0.9-0.2,1.7-0.4,2.5l-0.3-0.3c2.8-0.3,5.3,0.8,7,2.3
							c1.8,1.6,2.6,3.6,2.8,5.3c0.2,1.7-0.1,3.1-0.4,4c-0.2,0.4-0.3,0.8-0.4,1C796,108.1,796,108.2,796,108.2z"/>
					</g>
				</g>
			</g>
			<g>
				<g>
					<g>
						<path class="st6" d="M759.6,91c0,0-0.3-0.1-0.7-0.4c-0.4-0.3-0.9-0.8-1.2-1.6c-0.4-0.8-0.6-1.9-0.4-3c0.2-1.2,0.8-2.4,1.8-3.3
							c1-0.9,2.2-1.4,3.4-1.6c1.2-0.2,2.2,0,3,0.2c0.8,0.2,1.5,0.6,1.9,0.8c0.4,0.3,0.6,0.4,0.6,0.5c0,0.1-0.9-0.5-2.5-0.9
							c-0.8-0.2-1.8-0.3-2.9-0.1c-1.1,0.2-2.2,0.7-3.1,1.5c-0.9,0.8-1.5,1.9-1.7,3c-0.2,1.1,0,2,0.3,2.8
							C758.7,90.4,759.7,90.9,759.6,91z"/>
					</g>
				</g>
			</g>
			<g>
				<g>
					<g>
						<path class="st6" d="M773.7,152.5c0,0-0.1-0.1-0.3-0.2c-0.2-0.1-0.5-0.4-0.8-0.7c-0.7-0.7-1.5-1.8-2.1-3.4
							c-0.6-1.6-0.9-3.7-0.2-5.9c0.7-2.2,2.3-4.3,4.6-5.6c0.9-0.5,1.9-0.9,2.9-1l-0.1,0.4c-1.6-1.7-2.1-4-1.8-5.9
							c0.3-1.9,1.3-3.4,2.4-4.3c1.1-0.9,2.2-1.3,3-1.5c0.4-0.1,0.7-0.1,0.9-0.1c0.2,0,0.3,0,0.3,0c0,0-0.4,0.1-1.1,0.3
							c-0.7,0.2-1.8,0.7-2.8,1.6c-1,0.9-2,2.3-2.2,4.1c-0.2,1.8,0.3,3.9,1.7,5.5l0.3,0.3l-0.5,0.1c-0.9,0.2-1.8,0.5-2.7,1
							c-2.2,1.2-3.7,3.2-4.4,5.3c-0.6,2.1-0.4,4.1,0.1,5.7c0.5,1.6,1.3,2.7,1.9,3.4C773.3,152.2,773.8,152.5,773.7,152.5z"/>
					</g>
				</g>
			</g>
			<g>
				<g>
					<path class="st5" d="M773.3,95.5l-0.7-3.3c-2.5,4.7-3.3,10.2-2.3,15.4c0.4,2.4,1.3,5,0.2,7.2c-0.7,1.5-2.2,2.6-3,4
						c-1.1,1.8-0.3,6.7-0.6,7.7c-0.6,2.2-2.7,3.6-3.2,6.2c-0.5,2.6,0.1,5.8,2.5,7.1c4.5-7.3,9-15,10.1-23.5
						C777.1,109.3,775.5,102.3,773.3,95.5z"/>
				</g>
			</g>
			<g>
				<g>
					<g>
						<path class="st6" d="M786.8,113.1c0,0-0.1,0-0.4,0c-0.2,0-0.6,0-1.1-0.1c-0.9-0.2-2.3-0.5-3.6-1.6c-0.6-0.6-1.2-1.3-1.6-2.3
							c-0.4-1-0.4-2.1,0.1-3.2c0.5-1.1,1.5-2,2.7-2.3c0.6-0.1,1.3-0.1,2,0.3c0.6,0.3,1.1,1.1,0.9,1.8c-0.1,0.4-0.3,0.7-0.6,1
							c-0.3,0.2-0.7,0.3-1,0.3c-0.7,0-1.3-0.2-1.9-0.5c-1.1-0.6-2-1.3-2.8-2.2c-1.5-1.7-2.1-3.8-2.2-5.5c-0.1-1.7,0.3-3.1,0.7-3.9
							c0.2-0.4,0.4-0.8,0.5-1c0.1-0.2,0.2-0.3,0.2-0.3c0,0-0.2,0.5-0.5,1.3c-0.3,0.9-0.6,2.2-0.5,3.8c0.1,1.6,0.8,3.6,2.2,5.2
							c0.7,0.8,1.6,1.5,2.7,2.1c0.5,0.3,1.1,0.4,1.6,0.4c0.6,0,1-0.3,1.1-0.8c0.1-0.5-0.2-1.1-0.7-1.3c-0.5-0.3-1.1-0.3-1.6-0.2
							c-1.1,0.2-2,1-2.4,2c-0.4,0.9-0.4,2-0.1,2.9c0.3,0.9,0.8,1.6,1.4,2.2c1.2,1.1,2.6,1.5,3.4,1.7
							C786.3,113,786.8,113.1,786.8,113.1z"/>
					</g>
				</g>
			</g>
		</g>
	</g>
</g>
</svg>
