<?xml version="1.0" encoding="utf-8"?>
<!-- Generator: Adobe Illustrator 27.9.0, SVG Export Plug-In . SVG Version: 6.00 Build 0)  -->
<svg version="1.1" id="Layer_1" xmlns="http://www.w3.org/2000/svg" xmlns:xlink="http://www.w3.org/1999/xlink" x="0px" y="0px"
	 viewBox="0 0 1200 450" enable-background="new 0 0 1200 450" xml:space="preserve">
<g>
	<g>
		<g>
			<ellipse fill="#D3896C" cx="662.08" cy="54.28" rx="5.69" ry="11.29"/>
		</g>
		<g>
			<path fill="#D3896C" d="M668.95,25.8c-2.54,8.87-7.13,53.76-0.09,61.16c7.05,7.39,14.79,9.74,24.27,9.57
				c9.48-0.17,19.31-4.52,22.36-9.4c3.04-4.87,7.39-56.55,6.18-61.33c-1.22-4.78-8.09-13.14-25.4-14.27
				C678.96,10.4,669.63,23.44,668.95,25.8z"/>
		</g>
		<g>
			<path fill="#4F3733" d="M679.11,46.17c-0.15,1.89-0.88,3.42-1.63,3.41c-0.75,0-1.24-1.54-1.08-3.42
				c0.15-1.89,0.88-3.42,1.63-3.41C678.77,42.75,679.26,44.28,679.11,46.17z"/>
		</g>
		<g>
			<path fill="#4F3733" d="M706.84,47.97c-0.15,1.89-0.88,3.42-1.63,3.41s-1.24-1.54-1.08-3.42c0.15-1.89,0.88-3.42,1.63-3.41
				C706.51,44.55,706.99,46.08,706.84,47.97z"/>
		</g>
		<g>
			<path fill="#995C4A" d="M690.81,74.06c-6.95,0-11.66-2.55-11.95-2.71l0.63-1.14l-0.32,0.57l0.32-0.57
				c0.1,0.06,10.45,5.63,22.98-0.02l0.54,1.19C698.55,73.38,694.38,74.06,690.81,74.06z"/>
		</g>
		<g>
			<path fill="#995C4A" d="M690.43,77.72c-1.66,0-2.87-0.82-2.94-0.87l0.74-1.07c0.09,0.06,2.13,1.41,4.3-0.01l0.71,1.09
				C692.25,77.51,691.28,77.72,690.43,77.72z"/>
		</g>
		<path fill="#995C4A" d="M663.08,45.58l-1.29,0.14c0.09,0.83,0.1,4,0.08,7.26l-2.27-1.07l-0.55,1.18l2.82,1.33
			c-0.03,3.48-0.07,6.66-0.07,6.73l1.3,0.02C663.09,60.59,663.28,47.5,663.08,45.58z"/>
		<g>
			
				<ellipse transform="matrix(0.094 -0.9956 0.9956 0.094 599.2971 772.3698)" fill="#D3896C" cx="724.03" cy="56.9" rx="11.28" ry="6.57"/>
		</g>
		<path fill="#995C4A" d="M727.56,56.04l-0.38-1.25l-2.9,0.87c0.3-3.39,0.6-6.47,0.78-7.25l-1.27-0.28
			c-0.42,1.9-1.43,14.95-1.47,15.5l1.3,0.1c0.14-1.79,0.34-4.24,0.54-6.67L727.56,56.04z"/>
		<g>
			<path fill="#6B4540" d="M665.7,29.43l-0.63,15.25l0.92,1.97l-0.4,5.24h1.58c0,0,1.76-18.46,1.82-18.7c0.06-0.24,3-1.53,3.65-2.65
				c0.65-1.12,0.71-7.37,1.95-9.44c1.34-2.26,7.05-7.85,22.28-7.32c15.23,0.53,18.81,9.6,18.87,10.36c0.06,0.76-0.2,6.75,0.29,8
				c0.49,1.25,2.74,2.92,2.74,2.92s-0.99,20.29-0.51,20.46c0.48,0.17,1.73-0.5,1.73-0.5l2.92-20.36c0,0,2.13,0.08,3.52-1.91
				c0.97-1.39-0.88-3.39-0.88-3.39s2.94-1.18,2.51-3.13c-0.43-1.94-1.54-2.71-1.54-2.71s4.65-2.15,0.97-6.94
				c-3.68-4.79-10.21-5.21-10.42-5.14s-0.2-7.37-10.01-10.4c-9.8-3.03-12.89,1.37-12.89,1.37s-1.6-1.25-2.97-1.07
				c-1.37,0.18-1.37,1.25-1.37,1.25s-3.21-2.26-7.25-0.59s-3.68,4.63-4.22,4.69c-0.53,0.06-1.84-2.02-3.27-1.31
				c-1.43,0.71-1.31,2.61-1.31,2.61s-6.03,1.07-7.44,5.35c-1.41,4.28,0.67,6.12,0.67,6.12s-4.62,2.67-4.48,5.47
				S665.7,29.43,665.7,29.43z"/>
		</g>
		<g>
			<path fill="#D3896C" d="M674.45,89.61l-1.01,16.82l-7.62,8.66l24.03,17.87c0,0,23.68-15.3,23.51-15.73
				c-0.17-0.43-5.22-9.66-5.56-10.17c-0.34-0.51,1.11-16.84,1.11-16.84L674.45,89.61z"/>
		</g>
		<g>
			<path fill="#F2C291" d="M674.16,94.4c0,0-4.88,0.4-6.3,2.14c-1.41,1.74-2.05,8.13-2.05,8.13s-43.86,9.04-49.08,18.67
				c-5.22,9.63-16.12,96.11-9.92,102.11c6.21,5.99,21.29,4.49,21.29,4.49s-0.12,20.18,0.93,22.04c1.04,1.86,13.69,10.9,13.69,10.9
				l92.91,2.09c0,0,14.45-8.89,15.48-11.54c1.03-2.64,1.17-14.68,1.17-14.68s21.43-2.06,23.05-11.3c1.61-9.25-4.01-98.79-9.26-105.1
				c-5.26-6.31-48-17.17-48-17.17s0.6-7.58-0.96-9.14s-8.49-2.34-8.49-2.34s-4.61,23.09-18.32,21.93
				C676.58,114.45,674.16,94.4,674.16,94.4z"/>
		</g>
		<path fill="#E5AF7F" d="M752.28,238.77c-19.46-2.84-44.96-6.67-46.34-7.16c-1.01-0.36-1.46-3.96-1.3-7.09l-1.3-0.07
			c-0.07,1.25-0.27,7.51,2.16,8.38c1.76,0.63,34.32,5.43,46.75,7.25C752.27,239.37,752.28,238.89,752.28,238.77z"/>
		<g>
			<path fill="#E5AF7F" d="M634.56,193.8c-0.16-0.6-0.57-0.57-2.5-0.43c-1.02,0.07-2.49,0.2-4.37,0.37
				c-3.41,0.32-7.46,0.73-10.14,1.01c-1.13,0.12-2.14,0.22-2.59,0.26c0.07,0.43,0.13,0.86,0.19,1.29c0.37-0.04,1.09-0.11,2.53-0.26
				c2.09-0.21,5.91-0.61,9.31-0.93c-3.62,0.88-8.05,1.92-11.61,2.75c0.06,0.43,0.13,0.86,0.2,1.29c3.29-0.77,17.63-4.11,18.6-4.57
				C634.54,194.42,634.63,194.06,634.56,193.8z"/>
		</g>
		<g>
			<path fill="#5371A0" d="M679.35,217.82c0.18,0.36,3.28,14.33,3.28,14.33h9.74l2.01-15.51L679.35,217.82z"/>
		</g>
		<path fill="#46638C" d="M686.94,222.74l1.66,8.49c0,0,0.97,0.27,0.93,0c-0.04-0.27-1.53-8.85-1.53-8.85L686.94,222.74z"/>
		<g>
			<path fill="#D3896C" d="M664.68,219.79c1.17,0.12,45.36,8.56,46.06,7.03c0.7-1.52,3.16-18.28,2.58-18.99
				c-0.59-0.7-57.31-7.74-57.31-7.74L664.68,219.79z"/>
		</g>
		<g>
			<path fill="#6B4540" d="M718.12,52.12c0,0-0.09,6.66-1.68,12.33c-1.59,5.67-5.99,8.15-5.99,8.15s-0.64-9.23-3.82-10.7
				c-3.18-1.46-11.34,2.23-15.28,2.48c-3.95,0.25-12.74-4.39-16.05-2.87c-3.31,1.53-5.22,7.51-5.22,7.51
				c-3.57-2.61-2.83-17.68-2.83-17.68l-1.61,0.14c-0.7,2.41-3.24,26.48,0.76,34.09c3.21,6.12,14.92,11.85,24.12,12.02
				c9.2,0.17,21.05-1.91,25.28-9.12c4.23-7.21,4.18-34.66,4.18-34.66L718.12,52.12z M691.38,83.19
				c-18.71-0.22-16.72-11.43-15.26-13.64c2.21-3.35,8.47,1.78,15.15,1.56c6.69-0.22,11.76-4.01,13.7-2.65S710.09,83.41,691.38,83.19
				z"/>
		</g>
		<g>
			<path fill="#E5AF7F" d="M770.32,206.91c-0.51,0-6.13-0.5-11.36-1.02c-11.08-1.09-11.1-1.16-11.25-1.75l0.32-0.75
				c0.16-0.09,0.66-0.36,18.48-1.11l0.05,1.3c-3.49,0.15-8.16,0.36-11.87,0.56c6.16,0.65,14.86,1.46,15.62,1.46V206.91z"/>
		</g>
		<g>
			<path fill="#E5AF7F" d="M693.24,192.05c-0.42-1.8-1.42-4.61-2.26-5c-1.76-0.32-24.29,2.65-37.53,4.79l-0.18-1.29
				c7.38-1.31,36.57-5.37,38.18-4.72c1.79,0.72,2.87,5.06,3.07,5.93L693.24,192.05z"/>
		</g>
		<path fill="#E5AF7F" d="M628.11,229.93c0,0,0,0.48,0,1.3l47.49-9.2l-0.29-1.27l-47.41,9.19
			C628.03,229.93,628.11,229.93,628.11,229.93z"/>
		<g>
			
				<rect x="638.59" y="148.21" transform="matrix(0.9933 -0.1155 0.1155 0.9933 -15.7543 74.9727)" fill="#E5AF7F" width="1.3" height="50.53"/>
		</g>
		<g>
			<path fill="#995C4A" d="M695.41,212.63l-0.15-0.5l-0.35-0.7c0.1-0.05,0.27-0.13,15.35-3.28l0.27,1.27
				C704.71,210.64,695.88,212.5,695.41,212.63z"/>
		</g>
		<g>
			
				<rect x="634.05" y="149.68" transform="matrix(0.8417 -0.5399 0.5399 0.8417 16.7082 367.2549)" fill="#E5AF7F" width="1.3" height="10.91"/>
		</g>
		<g>
			<path fill="#E5AF7F" d="M673.95,127.59c0.79,0.42,1.6,0.64,2.43,0.64c1.13,0,2.29-0.39,3.48-1.18c1.5-0.99,2.79-3.04,4.16-5.2
				c1.64-2.6,3.32-5.25,5.42-6.33c-0.62-0.09-1.22-0.22-1.79-0.38c-1.86,1.46-3.35,3.83-4.74,6.02c-1.29,2.04-2.51,3.97-3.78,4.81
				c-1.59,1.05-3.03,1.23-4.41,0.57c-5.19-2.52-8.07-16.44-8.91-21.97c-0.01,0.06-0.01,0.1-0.01,0.1s-0.44,0.09-1.23,0.26
				C665.46,110.46,668.23,124.51,673.95,127.59z"/>
			<path fill="#E5AF7F" d="M718.23,105.21c-0.82,11.74-6.52,18.31-11.29,20.4c-1.93,0.84-3.14,0.71-3.49,0.41
				c-1.14-0.97-2.27-2.76-3.47-4.66c-1.47-2.32-3.06-4.84-5.01-6.33c-0.55,0.2-1.11,0.35-1.69,0.46c2.14,1.1,3.96,3.98,5.6,6.57
				c1.25,1.98,2.44,3.85,3.72,4.95c0.93,0.79,2.74,0.72,4.86-0.21c5.31-2.32,11.14-9.11,12.04-21.26
				C718.88,105.38,718.45,105.26,718.23,105.21z"/>
		</g>
		<g>
			<path fill="#D3896C" d="M633.01,196.82c0,0,0.14-3.8-1.07-6.59c-1.21-2.78-7.97-5.84-8.69-9.29c-0.68-3.28,1.62-4.6,1.62-4.6
				s-1.09-3.11,1.02-4.97c2.11-1.86,3.61-0.38,3.61-0.38s-0.59-2.69,2.02-3.89c2.61-1.2,10.67,6.05,12.57,11.97
				c0,0-6-13.85-2.39-14.91c3.79-1.11,14.22,19.57,12.87,28.99C653.21,202.58,633.01,196.82,633.01,196.82z"/>
		</g>
		<g>
			
				<rect x="719.26" y="172.82" transform="matrix(0.1153 -0.9933 0.9933 0.1153 486.3912 893.034)" fill="#E5AF7F" width="50.53" height="1.3"/>
		</g>
		<g>
			
				<rect x="743.61" y="154.48" transform="matrix(0.54 -0.8417 0.8417 0.54 214.0191 701.8419)" fill="#E5AF7F" width="10.91" height="1.3"/>
		</g>
		<g>
			<polygon fill="#5371A0" points="658.73,105.66 679.05,203.04 693.5,202.07 726.34,106.63 720.9,105.31 686.26,198.3 
				664.17,104.4 			"/>
		</g>
		<g>
			<path fill="#F2C291" d="M629.38,195.8c0,0,60.39-10.13,62.15-8.24c1.76,1.89,6.21,26.61,6.08,27.97
				c-0.14,1.35-68.82,14.41-69.5,14.4c-0.68-0.01-6.02-31.98-6.02-31.98L629.38,195.8z"/>
		</g>
		<path fill="#995C4A" d="M633.6,183.08c2.97,3.47,4.17,8.18,4.18,8.22l1.26-0.32c-0.05-0.2-1.29-5.06-4.46-8.76
			c-2.6-3.03-7.52-7.41-9.88-6.52c0.08,0.39,0.16,0.63,0.16,0.63s-0.2,0.12-0.46,0.36C625.44,176.23,630.18,179.09,633.6,183.08z"/>
		<path fill="#995C4A" d="M642.85,190.68l1.29-0.18c-1.59-11.35-11.66-18.55-14.66-20.74c-0.1,0.7,0.01,1.24,0.01,1.24
			s-0.47-0.46-1.26-0.54C629.88,171.79,641.23,179.09,642.85,190.68z"/>
		<g>
			<path fill="#F2C291" d="M709.23,203.28c-0.34,1.14-4.58,26.88-3.32,28.03c1.26,1.14,46.36,7.43,46.36,7.43s13.7-28.38,13.35-29
				c-0.34-0.62-30.47-7.56-30.47-7.56L709.23,203.28z"/>
		</g>
		<path fill="#995C4A" d="M643.39,177.35c-0.73-1.49-1.75-3-2.91-4.39c2.78,4.41,5.63,8.34,7.57,16.55l1.27-0.3
			c-1.98-8.37-4.84-12.39-7.66-16.81C642.22,174.28,642.9,176.09,643.39,177.35z"/>
		<g>
			<path fill="#D3896C" d="M689.21,191.64c0,0,41.82-4.96,48.38-4.32c6.55,0.64,11.67,17.52,11.67,17.52l-14.05-1.8
				c0,0-0.8-0.51-1.52-0.53c-0.72-0.02-39.35,9.78-40.75,9.06C691.55,210.85,689.21,191.64,689.21,191.64z"/>
		</g>
		<g>
			<path fill="#314056" d="M679.71,450c0.18-1.5,0.38-4,0.59-7.3c0.08-1.29,2.65-3.2,2.73-4.72c0.12-2.1-2.25-3.89-2.13-6.37
				c0.1-1.98,2.14-4.49,2.23-6.67c0.08-1.79-1.78-3.23-1.7-5.13c1.67-38.84,3.61-99.45,4.81-99.46c0.8-0.01,5.03,51.9,8.07,90.43
				c0.16,2.01,2.33,4.27,2.49,6.2c0.19,2.41-1.65,4.47-1.47,6.72c0.24,3.04,2.82,5.97,3.03,8.64c0.19,2.46-1.99,4.7-1.83,6.77
				c0.39,5.08,0.68,8.88,0.84,10.9h54.9c-0.06-2.63-0.19-8.79-0.38-17.31c-0.04-1.92,3.19-3.94,3.15-6.08
				c-0.04-1.88-3.37-3.87-3.41-5.91c-0.07-3.07,2.61-6.59,2.54-9.97c-0.07-2.9-2.89-5.64-2.96-8.72
				c-1.24-53.77-3.17-132.36-3.91-133.84c-1.13-2.25-8.73-12.25-8.73-12.25s-26.63,1.88-51.59,1.39
				c-21.45-0.43-41.27-3.35-46.57-2.37c-0.26,0.05-10.38,12.12-10.87,15.75c-0.35,2.59-3.73,93.65-5.63,145.33
				c-0.08,2.23,2.21,4.28,2.13,6.36c-0.05,1.48-2.47,3.03-2.53,4.42c-0.1,2.84,1.69,5.59,1.6,8.01c-0.07,1.91-2.03,3.56-2.08,5.17
				c-0.18,4.96-0.31,8.45-0.37,10.03H679.71z"/>
		</g>
		<path fill="#2C353F" d="M712.01,271.1l35.42-1.3c-0.03-0.9-0.08-1.47-0.16-1.63c-0.66-1.32-3.54-5.29-5.81-8.35
			c-5.82-0.06-16.71,2.04-29.45,1.92V271.1z"/>
		<path fill="#2C353F" d="M707.67,261.5c-13.23-0.13-27.99-0.28-40.97-0.4v9.26l40.97,0.74V261.5z"/>
		<path fill="#2C353F" d="M662.72,261.1c-10.79-0.11-20.02-2.26-25.62-2.31c-2.13,2.67-4.77,6.2-6.32,8.9l31.55,2.12L662.72,261.1z"
			/>
		<g>
			<path fill="#6B443F" d="M681.77,33.63c-1.71-0.07-3.41-0.09-5.12-0.06c-2.09,0.04-2.1,3.3,0,3.25c1.71-0.03,3.41-0.01,5.12,0.06
				C683.86,36.98,683.86,33.72,681.77,33.63z"/>
		</g>
		<g>
			<path fill="#6B443F" d="M709.29,35.3c-1.76-0.46-3.55-0.75-5.36-0.88c-2.09-0.15-2.08,3.1,0,3.25c1.53,0.11,3.02,0.38,4.5,0.77
				C710.45,38.97,711.32,35.83,709.29,35.3z"/>
		</g>
		<g>
			<g>
				<path fill="#EFE6E4" d="M683.32,53.82c-2.43,1.38-10.32,1.76-12.96-0.93c-2.2-2.25-1.68-8.81-1.23-11.67
					c6.67-1.22,14.81,0.45,16.92,0.93c-0.13,2.08-0.41,4.75-0.83,7c0.48-0.79,1.03-1.55,1.68-2.27c0.33-2.48,0.46-4.71,0.49-5.21
					l0.03-0.53L686.9,41c-0.42-0.11-10.39-2.63-18.46-0.98l-0.43,0.09l-0.08,0.43c-0.07,0.4-1.76,9.92,1.5,13.25
					c1.7,1.73,4.88,2.41,7.94,2.41c2.12,0,4.17-0.33,5.62-0.84C683.08,54.84,683.19,54.32,683.32,53.82z"/>
			</g>
		</g>
		<g>
			<path fill="#EFE6E4" d="M707.55,58.52c-4.14,0-8.85-1.68-10.06-3.27c-1.75-2.3-0.55-12-0.41-13.1l0.07-0.53l0.53-0.04
				c0.43-0.03,10.64-0.76,18.29,2.27l0.41,0.16l0,0.44c0,0.41-0.01,10.07-3.81,12.78C711.3,58.15,709.49,58.52,707.55,58.52z
				 M698.31,42.85c-0.48,3.99-0.8,10.25,0.23,11.61c1.44,1.9,10.01,4.06,13.28,1.72c2.56-1.83,3.2-8.38,3.26-11.28
				C708.72,42.53,700.46,42.75,698.31,42.85z"/>
		</g>
		<g>
			<polygon fill="#EFE6E4" points="720.91,48.77 718.22,47.52 715.58,47.3 715.69,46 718.57,46.25 721.47,47.49 			"/>
		</g>
		<g>
			<polygon fill="#EFE6E4" points="668.14,44.62 666.25,44.52 665.18,45.11 664.45,44.02 666.34,43.22 668.21,43.32 			"/>
		</g>
		<g>
			<g>
				<path fill="#995C4A" d="M692.62,64.33c-3.65,0-10.14-1.4-10.31-6.83c-0.21-6.57,6.77-14.61,7.07-14.94l0.98,0.86
					c-0.07,0.08-6.94,7.99-6.74,14.04c0.18,5.67,9.17,5.56,9.27,5.56l0.03,1.3C692.8,64.33,692.71,64.33,692.62,64.33z"/>
			</g>
		</g>
		<g>
			<path fill="#EFE6E4" d="M696.61,46.42c-0.06-0.12-1.41-3.1-4.68-3.17c-3.33-0.08-4.88,2.17-4.95,2.26l-1.08-0.72
				c0.08-0.12,1.94-2.84,5.87-2.84c0.06,0,0.12,0,0.18,0c4.12,0.09,5.78,3.79,5.85,3.95L696.61,46.42z"/>
		</g>
		<g>
			<path fill="#FFFFFF" d="M675.74,42.93c0,1.06-1.19,2.3-2.67,2.78c-1.48,0.48-2.68,0.01-2.68-1.05c0-1.06,1.19-2.3,2.67-2.78
				C674.53,41.4,675.74,41.87,675.74,42.93z"/>
		</g>
		<g>
			<path fill="#FFFFFF" d="M704.2,44.96c0,1.06-1.19,2.3-2.67,2.78c-1.48,0.48-2.68,0.01-2.68-1.05c0-1.06,1.19-2.3,2.67-2.78
				C703,43.44,704.2,43.91,704.2,44.96z"/>
		</g>
		<g>
			<path fill="#EEF5FF" d="M670.11,230.49v20.22h33.46c0,0,0.45-19.83,0-19.95C703.11,230.64,670.11,230.49,670.11,230.49z"/>
		</g>
		<g>
			<path fill="#E5AF7F" d="M729.52,203.5c-1.51,16.84-3.63,28.79-5.73,31.59c0.45,0.09,0.9,0.18,1.35,0.27
				c2.9-4.94,4.76-21.3,5.73-32.23C730.87,203.14,729.88,203.41,729.52,203.5z"/>
		</g>
		<path fill="#E5AF7F" d="M670.61,189.4c-0.44,0.06-0.88,0.12-1.32,0.18c-0.24,6.5-0.21,21.41,4.24,31.54
			c0.44-0.09,0.87-0.18,1.3-0.27C670.38,210.96,670.39,195.73,670.61,189.4z"/>
		<g>
			<polygon fill="#CED7EF" points="672.89,232.76 672.77,248.15 685.18,248.15 685.25,233 			"/>
		</g>
		<g>
			<path fill="#ABBADD" d="M685.2,243.67c-1.62-0.75-4.77-1.83-4.77-1.83s1.13-0.38,1.29-0.85c0.16-0.47,0.51-5.73-0.05-6.32
				c-0.57-0.59-4.5-0.97-5.5,0c-0.89,0.87-0.75,5.79-0.4,6.32c0.35,0.53,1.03,0.61,1.03,0.61s-3,1.35-4,2.07l-0.04,4.49h12.42
				L685.2,243.67z"/>
		</g>
		<g>
			<rect x="686.94" y="233.17" fill="#ABBADD" width="15.54" height="4.07"/>
		</g>
		<g>
			<polygon fill="#ABBADD" points="686.67,238.52 686.6,247.97 702.14,247.97 702.21,238.52 			"/>
		</g>
		<g opacity="0.25">
			<path fill="#FFFFFF" d="M695.45,240.19c2.74-1.67,5.49-3.31,8.32-4.83c-0.01-2.64-0.06-4.56-0.2-4.59
				c-0.17-0.04-4.76-0.09-10.48-0.14c-3.58,2.34-7.45,4.25-11.14,6.42c-3.92,2.31-7.98,4.41-11.84,6.82v6.84h8.3
				C684.14,247.29,689.75,243.67,695.45,240.19z"/>
		</g>
		<g>
			<path fill="#5E3835" d="M676.02,18.69c-0.32-0.5-0.14-1.34-0.05-1.63l0.36-1.04c-0.18-0.12-0.36-0.25-0.54-0.38l-0.85,0.7
				c-0.01,0.01-1.1,0.9-3.35,1.22c-0.42,0.06-0.98,0.07-1.31-0.22c-0.33-0.3-0.32-0.82-0.32-0.82l-1.3-0.07
				c-0.01,0.11-0.04,1.13,0.73,1.84c0.56,0.52,1.36,0.7,2.38,0.56c1.19-0.17,2.1-0.48,2.76-0.78c0.02,0.43,0.12,0.9,0.39,1.31
				c0.12,0.18,0.29,0.38,0.54,0.56c0.27-0.3,0.58-0.61,0.95-0.94C676.24,18.94,676.11,18.83,676.02,18.69z"/>
			<path fill="#5E3835" d="M717.06,11.46c-0.04,0.01-0.07-0.24-0.16-0.69l-0.03,0c0.16,4.52-3.64,6.69-5.62,7.51
				c0.4,0.31,0.78,0.63,1.12,0.94c0.81-0.39,1.71-0.92,2.51-1.57c2.02-1.64,3.15-3.74,3.29-6.11
				C717.52,11.46,717.11,11.45,717.06,11.46z"/>
		</g>
		<g>
			<path fill="#5E3835" d="M720.25,33.73L720,33.41l-0.4,0.08c-0.74,0.15-1.54,0.3-2.22,0.42c0.54,0.51,1.07,0.93,1.28,1.09
				c0.27-0.05,0.55-0.11,0.86-0.17c0.44,0.37,1.4,0.93,3.19,1.11l0.18-1.27c0,0,0.07,0,0.2,0
				C720.94,34.51,720.25,33.73,720.25,33.73z"/>
			<path fill="#5E3835" d="M669.54,30.05l0.02-0.82l-0.8,0.16c-1.53,0.31-2.48,0.27-3.07,0.12l-0.05,1.31
				c0.67,0.12,1.56,0.15,2.73-0.04c0.2,0.61,0.67,1.31,1.58,1.78c0.43-0.25,0.95-0.55,1.42-0.87
				C669.61,31.33,669.54,30.18,669.54,30.05z"/>
		</g>
		<path fill="#845552" d="M703.29,2.54c-1.56-0.22-3.18-0.15-4.52,0.75c-0.31,0.2-0.6,0.43-0.91,0.63
			c-0.12,0.08-0.54,0.36-0.64,0.32c-0.08-0.04-0.17-0.29-0.22-0.37c-0.08-0.12-0.17-0.24-0.27-0.34c-0.26-0.25-0.6-0.39-0.96-0.44
			c-0.81-0.12-1.7,0.05-2.47,0.28c-0.86,0.25-1.68,0.64-2.42,1.16c-0.68,0.48-0.03,1.6,0.66,1.12c1.09-0.76,2.42-1.28,3.76-1.29
			c0.2,0,0.41,0,0.56,0.15c0.19,0.2,0.26,0.49,0.47,0.68c0.55,0.51,1.3,0.37,1.9,0.04c0.58-0.32,1.08-0.77,1.67-1.09
			c0.61-0.33,1.31-0.39,1.99-0.39c1.33,0,2.67,0.29,3.79,1.03c1.09,0.72,1.89,1.93,1.93,3.25c0.03,0.84,1.33,0.84,1.3,0
			C708.8,4.97,706.12,2.94,703.29,2.54z"/>
		<path fill="#5E3835" d="M698.1,10.91c-3.8-0.89-7.86-0.52-11.3,1.37c-1.49,0.82-2.8,1.9-3.89,3.18c0.79-0.26,1.64-0.51,2.55-0.72
			c1.69-1.38,3.74-2.32,5.88-2.74c3.51-0.7,7.41-0.03,10.53,1.71c0.45,0.25,0.9,0.55,1.3,0.89c0.84,0.2,1.62,0.43,2.36,0.68
			C704.01,12.88,700.78,11.54,698.1,10.91z"/>
		<path fill="#845552" d="M685.42,7.53c-0.26-1.28-1.87-1.5-2.77-0.78c-0.43,0.34-0.67,0.78-0.89,1.26
			c-0.03,0.08-0.09,0.27-0.17,0.32c-0.02,0.01,0.07,0.06-0.1-0.04c-0.26-0.14-0.58-0.25-0.86-0.33c-2.44-0.66-4.98,0.91-5.49,3.38
			c-0.17,0.82,1.09,1.17,1.26,0.35c0.38-1.89,2.29-3.05,4.14-2.4c0.47,0.17,0.92,0.44,1.44,0.28c0.44-0.14,0.72-0.5,0.91-0.91
			c0.16-0.35,0.31-0.75,0.65-0.96c0.23-0.14,0.57-0.13,0.63,0.17C684.33,8.7,685.58,8.35,685.42,7.53z"/>
		<path fill="#845552" d="M723.61,17.27c-0.99-1.12-2.63-1.92-4.13-1.66c-0.35,0.06-0.54,0.49-0.45,0.8c0.1,0.37,0.45,0.51,0.8,0.45
			c1-0.17,2.18,0.58,2.82,1.27c0.34,0.36,0.56,0.79,0.66,1.3c0.09,0.43,0,0.91-0.25,1.31c-0.19,0.3-0.06,0.72,0.23,0.89
			c0.31,0.18,0.7,0.07,0.89-0.23C725,20.06,724.61,18.38,723.61,17.27z"/>
		<path fill="#845552" d="M669.43,21.31c-0.12-0.36-0.44-0.52-0.8-0.45c-1.02,0.19-1.97,0.69-2.74,1.38
			c-0.82,0.74-1.62,1.97-0.93,3.06c0.18,0.29,0.59,0.43,0.89,0.23c0.29-0.19,0.43-0.58,0.23-0.89c-0.01-0.02-0.04-0.09-0.05-0.09
			c-0.01-0.03-0.02-0.06-0.02-0.09c0-0.01,0-0.02,0-0.03c0-0.01,0-0.05,0-0.09c0-0.02,0.01-0.08,0.01-0.1
			c0.01-0.06,0.03-0.11,0.05-0.16c0-0.01,0.01-0.02,0.01-0.03c0-0.01,0.01-0.02,0.02-0.03c0.03-0.04,0.05-0.08,0.07-0.13
			c0.02-0.04,0.05-0.08,0.08-0.12c0.01-0.02,0.04-0.06,0.06-0.08c0.06-0.08,0.13-0.16,0.2-0.23c0.14-0.15,0.28-0.29,0.44-0.42
			c0.04-0.03,0.07-0.06,0.11-0.09c0,0,0,0,0,0c0.01-0.01,0.03-0.02,0.04-0.03c0.08-0.06,0.17-0.12,0.25-0.17
			c0.17-0.11,0.35-0.21,0.53-0.3c0.05-0.02,0.1-0.05,0.15-0.07c0.01,0,0.01-0.01,0.02-0.01c0.01,0,0.02-0.01,0.03-0.01
			c0.09-0.03,0.17-0.06,0.26-0.09c0.21-0.07,0.43-0.12,0.64-0.16C669.31,22.04,669.53,21.62,669.43,21.31z"/>
		<path fill="#E5AF7F" d="M655.65,248.54c0.34-0.86,1.25-2,0.79-2.96c-0.41-0.86-1.47-0.91-2.3-0.91c-1.18-0.01-2.37,0.1-3.55,0.19
			c-2.03,0.15-4.1,0.26-6.07-0.35c-1.68-0.52-3.19-1.62-3.83-3.31c-0.73-1.96-0.41-4.15,0.24-6.09c0.27-0.79-0.99-1.14-1.26-0.35
			c-0.64,1.88-0.93,3.94-0.5,5.9c0.42,1.92,1.66,3.52,3.39,4.44c1.76,0.93,3.77,1.21,5.74,1.18c1.21-0.02,2.42-0.13,3.62-0.22
			c0.58-0.04,1.15-0.07,1.73-0.08c0.45-0.01,1.05-0.09,1.48,0.1c0.18,0.08,0.1,0.04,0.11,0.16c0.01,0.26-0.27,0.66-0.38,0.89
			c-0.27,0.57-0.55,1.14-0.69,1.75c-0.25,1.05-0.09,2.26,0.75,3.01c0.62,0.56,1.55-0.36,0.92-0.92
			C655.14,250.34,655.34,249.32,655.65,248.54z"/>
		<path fill="#E5AF7F" d="M736.38,242.93c-2.09,4.32-6.7,6.63-11.35,6.91c-1.5,0.09-3.01,0-4.5-0.24c-0.35-0.06-0.7,0.09-0.8,0.45
			c-0.09,0.31,0.11,0.74,0.45,0.8c5.27,0.86,11.01-0.05,14.93-3.94c0.97-0.97,1.79-2.09,2.39-3.32
			C737.87,242.83,736.75,242.17,736.38,242.93z"/>
		<path fill="#263344" d="M677.79,303.93l-0.32,1.26c3.35,0.86,7.06,1.92,8.04,2.35v14.56c0.21-1.1,0.45-1.75,0.73-1.76
			c0.2,0,0.39,0.64,0.57,1.71v-14.85C686.8,306.63,686.8,306.24,677.79,303.93z"/>
		<path fill="#EA957A" d="M678.39,50.93c-0.9,0.23-1.85,0.2-2.71-0.18c-0.64-0.28-1.4-0.19-1.78,0.47c-0.32,0.55-0.18,1.5,0.47,1.78
			c1.53,0.67,3.09,0.85,4.72,0.44C680.7,53.03,680.01,50.52,678.39,50.93z"/>
		<path fill="#EA957A" d="M707.48,53.85c-0.2-0.73-0.91-1.03-1.6-0.91c-0.66,0.12-1.3,0.02-1.92-0.2c-0.67-0.22-1.42,0.26-1.6,0.91
			c-0.2,0.71,0.24,1.38,0.91,1.6c1.08,0.37,2.19,0.39,3.31,0.2C707.27,55.32,707.66,54.48,707.48,53.85z"/>
		<path fill="#E2DEDC" d="M695.87,261.45c0,0-0.03-1.93-0.33-2.1s-16.88-0.31-17.45-0.31c-0.57,0-1.05,13.31-0.3,13.45
			s16.97,0.66,17.32,0.3c0.35-0.35,0.77-1.91,0.77-1.91l-15.9-0.42l0.04-3.65h1.85l0.18-2.24l-1.93-0.09l0.13-3.25L695.87,261.45z"
			/>
	</g>
	<g>
		<g>
			<path fill="#314056" d="M501.03,29.13c14.64-0.33,32.49,12.48,34.04,30.02c1.56,17.54-2.58,48.2-0.22,51.44
				c2.36,3.24,14.2,5.51,15.95,10.84c1.75,5.32-1.33,13.73-1.32,13.49c0.01-0.23-98.84,0.56-98.84,0.56s-2.23-5.48,2.28-11.6
				c4.51-6.12,9.46-5.73,12.52-11.35c3.06-5.62-0.65-42.2,3.44-58.37S490.47,29.37,501.03,29.13z"/>
		</g>
		<path fill="#2C3A4C" d="M501.47,39.9c-0.37-3.55-0.42-8.46,0.34-10.78c-0.26,0-0.52,0-0.78,0c-0.18,0-0.36,0.01-0.55,0.02
			c-0.99,3.49-0.46,9.41-0.31,10.89L501.47,39.9z"/>
		<g>
			<path fill="#314056" d="M533.61,94.36c0,0-1.04,10.87,1.74,14.27c2.78,3.39,15.66,6.61,18.1,10.18
				c2.44,3.57-0.43,11.22-0.43,11.22l1.42,0.52c0,0,4.2-7.92,0-12.44c-4.2-4.52-15.51-6.7-17.68-10.27
				c-2.17-3.57-1.95-20.11-1.95-20.11L533.61,94.36z"/>
		</g>
		<g>
			<path fill="#FFA782" d="M486.96,102.49c0.06,0.31,0.8,12.78,0.43,13.64c-0.37,0.86-5.31,10.06-5.31,10.06
				s19.71,32.24,21.25,31.94c1.54-0.29,16.37-39.27,16.37-39.27s-4.79-2.83-5.16-3.69c-0.38-0.86-0.54-14.13-0.54-14.13
				L486.96,102.49z"/>
		</g>
		<g>
			<path fill="#D5735B" d="M514.23,111.16c-0.06-1.5-0.17-6.38-0.2-7.97c-2.35,2.13-7.89,4.23-13.74,4.49
				c-6.49,0.28-11.01-1.55-13.25-3.37c0.06,1.21,0.36,6.04,0.4,7.22c3.02,4.79,8.51,12.25,14.49,12.25
				C507.08,123.64,511.64,116.41,514.23,111.16z"/>
		</g>
		<g>
			<g>
				<path fill="#2C3A4C" d="M460.09,139.55c-0.17-1.17-1.58-11.49,0.62-14.17c0.79-0.97,2.39-2.47,4.24-4.21
					c2.74-2.58,6.48-6.11,6.88-7.44c0.2-0.72,0.08-7.06-0.04-13.78c-0.29-15.69-0.7-40.69,1.38-46.51
					c1.42-3.96,5.83-10.6,12.07-14.81c5.62-3.8,11.65-6.41,15.34-6.66c4.23-0.28,11.34,3.65,16.58,7.42
					c5.24,3.77,11.27,11.27,12.55,15.52c1.28,4.27-0.18,22.28-1.45,37.02c-0.86,10-1.84,21.33-1.26,22.56
					c0.62,1.31,3.2,3.1,5.69,4.84c3.31,2.31,6.44,4.49,6.9,6.56c0.76,3.42,0.62,11.29,0.61,11.62l-1.3-0.03
					c0-0.08,0.15-8.04-0.58-11.31c-0.35-1.57-3.55-3.8-6.37-5.77c-2.75-1.92-5.35-3.73-6.12-5.35c-0.71-1.48-0.06-9.39,1.13-23.23
					c1.2-13.9,2.72-32.5,1.5-36.53c-0.98-3.25-5.69-10.26-12.06-14.84c-6.36-4.57-12.53-7.39-15.74-7.17
					c-7.01,0.47-21.66,8.57-26.27,20.61c-2.12,5.55-1.59,30.46-1.3,46.05c0.17,8.98,0.23,13.34-0.01,14.17
					c-0.46,1.55-3.29,4.3-7.23,8.02c-1.74,1.64-3.39,3.19-4.12,4.09c-1.56,1.9-0.77,10.14-0.34,13.16L460.09,139.55z"/>
			</g>
		</g>
		<g opacity="0.14">
			<path fill="#9CC9FF" d="M478.6,51.68c8.84,5.73,20.14,7.29,30.38,5.19c7.78-1.6,15.76-5.66,20.88-11.93
				c-3.03-4.44-7.12-8.15-11.64-10.86c-4.87,5.29-11.48,8.54-18.88,8.51c-6.46-0.03-12.61-2.28-16-7.46
				c-4.29,2.76-8.26,6.46-11.08,11.06C474.09,48.3,476.23,50.15,478.6,51.68z"/>
		</g>
		<g>
			<path fill="#FFA782" d="M475.88,72.97c0.11,14.61,3.42,38.93,24.3,38.58c20.29-0.34,24.42-22.74,24.9-37.84
				c0.24-7.7-12.69-36.02-24.81-35.92C488.73,37.88,475.84,66.72,475.88,72.97z"/>
		</g>
		<g>
			<g>
				<path fill="#D5735B" d="M500.14,84.81c-0.24-0.04-5.88-1.09-7.16-4.42c-1.27-3.3,5.62-11.07,6.4-11.95l0.97,0.87
					c-2.77,3.08-6.9,8.68-6.16,10.61c1.02,2.65,6.13,3.6,6.18,3.61L500.14,84.81z"/>
			</g>
		</g>
		<g>
			<path fill="#AADFF2" d="M487.48,113.35c0,0,11.81,38.85,15.35,38.11c3.54-0.74,11.45-38.92,11.45-38.92l-0.08-2.02
				c0,0,14.18,8.75,15.91,10.51c1.49,1.51,2.25,3.17,2.25,3.17s37.4,4.43,39.35,8.15c1.95,3.72,25.95,86.24,21.02,92.92
				c-4.93,6.68-20.83,6.84-20.83,6.84s-0.1,22.59-1.42,24.95c-1.32,2.36-27.36,16.94-28.03,16.94s-69.38,2.03-70.33,2.11
				c-0.95,0.08-11.13-4.21-13.2-6.52c-2.07-2.31-1.91-7.47-1.91-7.47s-4.12,33.08-5.59,35.51c-1.47,2.43-28.78-0.17-29.56-2.51
				c-0.78-2.34,9.43-71.02,9.61-75.96c0.18-4.94,4.62-79.13,8.59-84.29c3.97-5.16,32.55-9.73,32.55-9.73s1.95-4.66,3.05-5.91
				c1.1-1.25,11.71-8.66,11.71-8.66L487.48,113.35z"/>
		</g>
		<g>
			<path fill="#8FBFCC" d="M484.5,137c1.79,0.81,11.81,8.92,16.47,12.77c-0.49-0.78-1.03-1.79-1.6-2.99
				c-4.6-3.75-12.58-10.17-14.34-10.96c-1.38-0.62-5.15-0.13-10.74,0.68c-2.67,0.39-6.26,0.91-7.19,0.76
				c-0.05-0.8,0.92-3.61,5.39-12.09c-0.24,0.04-0.8,0.13-1.61,0.27c-3.99,7.61-5.4,11.12-4.99,12.35c0.12,0.35,0.35,0.53,0.52,0.61
				c0.83,0.4,3.1,0.12,8.08-0.61C478.24,137.23,483.37,136.48,484.5,137z"/>
		</g>
		<g>
			<path fill="#8FBFCC" d="M538.08,136.77c-0.94,0.16-4.53-0.37-7.19-0.76c-5.59-0.82-9.36-1.31-10.74-0.68
				c-1.77,0.8-9.84,7.24-14.47,10.98c-0.33,0.93-0.66,1.75-0.97,2.46c4.92-4.01,14.26-11.48,15.97-12.26
				c1.13-0.51,6.27,0.24,10.01,0.78c4.98,0.73,7.24,1,8.08,0.61c0.17-0.08,0.4-0.25,0.52-0.61c0.42-1.26-1.07-4.9-5.27-12.89
				c-0.84-0.1-1.38-0.17-1.57-0.19C537.13,133.05,538.13,135.95,538.08,136.77z"/>
		</g>
		<path fill="#8FBFCC" d="M455.71,152.36c0.04,0.57,3.89,57.17,3,72.54c-0.65,11.24-1.46,29.45-1.86,38.6
			c0.11-0.88,0.17-1.39,0.17-1.39s-0.1,3.35,0.94,5.86c0.24-5.61,1.26-29.41,2.05-43c0.89-15.45-2.97-72.13-3.01-72.7L455.71,152.36
			z"/>
		<g>
			<rect x="583.76" y="198.72" fill="#8FBFCC" width="5.26" height="1.3"/>
		</g>
		<path fill="#8FBFCC" d="M513.9,270.57c-2.21-1.4-3.43-3.84-4.2-6.26c-0.94-2.97-1.41-6.11-1.65-9.21
			c-0.5-6.6,0.16-13.22,0.9-19.77c0.21-1.86,0.42-3.72,0.62-5.59c0.18-1.73,0.56-3.6-0.2-5.24c-0.15-0.32-0.61-0.4-0.89-0.23
			c-0.33,0.19-0.38,0.57-0.23,0.89c0.31,0.67,0.31,1.44,0.26,2.17c-0.05,0.83-0.16,1.66-0.25,2.49c-0.18,1.66-0.37,3.31-0.55,4.97
			c-0.37,3.34-0.74,6.68-0.95,10.04c-0.41,6.48-0.29,13.21,1.57,19.48c0.86,2.88,2.28,5.75,4.9,7.4
			C513.95,272.14,514.6,271.02,513.9,270.57z"/>
		<path fill="#8FBFCC" d="M502.99,170.07c0.35,10.11,0.45,20.23,0.32,30.34c-0.07,5.69-0.23,11.38-0.45,17.07
			c-0.03,0.84,1.27,0.84,1.3,0c0.4-10.13,0.56-20.28,0.49-30.42c-0.08-10.11-0.4-20.23-0.95-30.33c-0.1-1.87-0.22-3.75-0.34-5.62
			c-0.19,0.2-0.36,0.32-0.53,0.35c-0.22,0.05-0.48-0.07-0.76-0.31C502.47,157.45,502.78,163.76,502.99,170.07z"/>
		<path fill="#8FBFCC" d="M440.84,221.63l0.35-1.25c-0.6-0.17-7.08-0.37-9.82,0.16c-0.06,0.56-0.14,1.26-0.24,2.07
			c1.96,0.62,6.22,1.08,9.83,1.38l0.11-1.3c-3.05-0.25-6.46-0.65-8.42-1.03C435.27,221.42,440.14,221.47,440.84,221.63z"/>
		<g>
			
				<rect x="560.65" y="153.38" transform="matrix(0.9992 -0.04 0.04 0.9992 -6.6656 22.6226)" fill="#8FBFCC" width="1.3" height="48.59"/>
		</g>
		<g>
			<path fill="#8FBFCC" d="M457.11,164.95c-0.32,0-0.52-0.28-0.77-0.64c-0.16-0.23-0.39-0.55-0.66-0.95
				c-0.54-0.78-1.25-1.82-1.96-2.86c-1.42-2.08-2.83-4.17-2.83-4.17l1.08-0.73c2.13,3.14,5.39,7.93,5.64,8.25l-0.5,0.4l0.01,0.03
				l0.65-0.04l-0.44,0.66C457.26,164.94,457.18,164.95,457.11,164.95z"/>
		</g>
		<g>
			<path fill="#8FBFCC" d="M462.09,176.45c-0.5,0-0.57-0.05-0.68-0.12c-0.33-0.22-0.55-0.36-0.83-7.79l-0.02-0.62l0.62-0.05
				c30.52-2.62,31.01-2.37,31.22-2.27c0.41,0.2,0.71,0.59,0.82,3.73c0.05,1.51,0.04,3.22-0.01,3.73c-0.02,0.15-0.1,0.44-0.48,0.62
				c-0.94,0.44-6.39,1.06-16.21,1.82c-3.42,0.27-7.09,0.53-10.08,0.71C463.87,176.39,462.68,176.45,462.09,176.45z M461.91,169.12
				c0.1,2.48,0.25,5.05,0.38,6.03c3.65-0.08,26.65-1.73,29.65-2.55c0.06-1.33,0-4.75-0.24-5.78
				C489.17,166.85,473.05,168.17,461.91,169.12z M491.98,166.83L491.98,166.83L491.98,166.83z M491.63,166.6L491.63,166.6
				L491.63,166.6z"/>
		</g>
		<g>
			<path fill="#466591" d="M491.58,229.58c0,0-3.18-3.18-3.18-3.54c0-0.37,35.07-65.2,36.66-65.9c1.59-0.69,66.56,5.33,67.65,6.56
				c1.1,1.22,4.89,12.83,4.89,13.44c0,0.61-34.79,55.67-35.4,55.67C561.59,235.81,491.58,229.58,491.58,229.58z"/>
		</g>
		<path fill="#5371A0" d="M527.33,163.65c-0.48,0.04-0.72,0.06-6.73,10.82c-3.1,5.55-7.33,13.29-12.59,22.99
			c-7.21,13.31-14.42,26.75-16.99,31.55c0.33,0.34,0.56,0.57,0.56,0.57s0.2,0.02,0.58,0.05c13.53-25.3,33.13-61.52,35.46-64.65
			c3.91,0.66,45.55,10.05,69.77,15.56c0.13-0.24,0.21-0.38,0.21-0.4c0-0.09-0.09-0.43-0.23-0.94
			c-19.43-4.41-68.62-15.55-70.03-15.55C527.34,163.65,527.33,163.65,527.33,163.65z"/>
		<g>
			<path fill="#FFFFFF" d="M590.88,168.94l2.67,6.95l-67.11-13.4l-35.84,66.08l-1.51-1.61c0,0,35.92-65.89,36.53-65.95
				C526.24,160.96,590.88,168.94,590.88,168.94z"/>
		</g>
		<g>
			<path fill="#AADFF2" d="M539.82,207.45c0,0,1.19-5.93,2-6.45c0.82-0.52,46.62-1.03,46.62-1.03l-6.52,30.93
				c0,0-40.24-2.3-42.09-3.79C537.96,225.63,539.82,207.45,539.82,207.45z"/>
		</g>
		<path fill="#8FBFCC" d="M566.17,229.9l-0.78,1.28c3.58,0.26,7.34,0.5,10.22,0.7c1.67-0.16,3.74-0.43,5.9-0.9
			C576.61,230.65,571.54,230.3,566.17,229.9z"/>
		<g>
			<path fill="#FFA782" d="M519.74,184.04c1.15,1.75-2.61,6.56-2.36,8.32c0.48,3.43-0.49,9.55-0.23,9.71
				c3.98,2.56,26.94,0.6,31.52,1.61c1.81,0.4,2.36,16.98,1.3,17.36c-1.06,0.38-39.94-0.26-45.01-0.87
				c-5.08-0.61-13.26-5.38-14.16-7.39c-0.9-2.01,0.59-6.03,0.59-6.03s-0.19-2.9,0.78-4.56c0.97-1.66,2.07-2.05,2.07-2.05
				s0.84-4.73,2.4-6.09c1.56-1.36,3.37-0.52,3.37-0.52s0.32-3.78,1.47-4.72c1.15-0.94,3.95-1.14,4.54-0.97
				c0.59,0.17,1.89,2.27,1.89,2.27l-2.21,4.02c0,0,4.76,3.78,5.04,3.22c0.11-0.23,0.88-2.93,1.11-5.59
				C512.21,187.8,518.59,182.29,519.74,184.04z"/>
		</g>
		<g>
			<path fill="#D16949" d="M513.02,450c0.98-3.14,3.3-7.52,3.78-12.73c0.13-1.45-2.12-2.7-1.98-4.27c0.19-2.2,2.78-4.78,2.98-7.18
				c0.16-1.93-2.43-2.5-2.27-4.54c0.17-2.14,3.09-5.76,3.27-7.99c2.8-36.23,5.74-82.74,5.74-82.74s3.77,38.21,7.51,72.34
				c0.18,1.65,0.36,3.29,0.54,4.91c0.13,1.17,2.37,1.54,2.5,2.69c0.22,1.98-1.67,4.75-1.45,6.67c0.2,1.73,3.95,3.98,4.14,5.64
				c0.2,1.69-2.41,3.61-2.25,5.2c1.01,9.53,2.98,17.12,3.97,22H594c-0.9-16.52-2.61-68.05-7.24-111.15
				c-0.25-2.34,2.56-5.69,2.31-7.97c-0.18-1.62-3.41-2.18-3.59-3.77c-3.17-28.76-6.02-51.45-7.14-53.26
				c-3.21-5.17-15.51-15.42-15.51-15.42s-31.97,8.71-48.4,10.72c-18.96,2.33-45.53,0-45.53,0s-9.49,11.48-9.85,14.63
				c-0.12,1.03-0.92,19.57-1.74,44.22c-0.05,1.63,2.21,3.58,2.15,5.26c-0.06,1.86-2.44,3.44-2.5,5.35
				c-1.26,40.42-2.36,91.64-0.81,111.38H513.02z"/>
		</g>
		<path fill="#AD5544" d="M525.23,333.87c-0.24-10.85-0.54-23.18-0.67-23.69c-0.11-0.46-0.22-0.89-5.24-1.76
			c-2.19-0.38-4.66-0.72-4.9-0.72l-0.03,1.3c0.76,0.05,7.65,1.06,8.92,1.65c0.1,1.6,0.34,11.02,0.57,21.24
			c0.4-0.84,0.64-1.37,0.64-1.37S524.79,331.96,525.23,333.87z"/>
		<g>
			<path fill="#FFA782" d="M476.75,76.01c0,0-1.79-4.59-4.13-3.39c-2.41,1.24-2.02,17.24,0.87,18.42c2.24,0.91,4.86-0.73,4.86-0.73
				L476.75,76.01z"/>
		</g>
		<g>
			<path fill="#FFA782" d="M524.66,75.71c0,0,2.11-4.46,4.36-3.1c2.32,1.4,0.82,17.34-2.15,18.32c-2.3,0.76-4.8-1.07-4.8-1.07
				L524.66,75.71z"/>
		</g>
		<g>
			<path fill="#D5735B" d="M476.48,88.72c-0.37-4.19-1.06-12.42-1.02-13.53l-1.3-0.05c-0.02,0.68,0.18,3.52,0.42,6.44l-1.53-0.93
				l-0.67,1.11l2.33,1.41c0.23,2.86,0.46,5.42,0.48,5.65L476.48,88.72z"/>
		</g>
		<g>
			<path fill="#D5735B" d="M529.8,80.91l-0.76-1.06l-1.42,1.01c0.37-2.51,0.75-4.98,0.93-5.99l-1.28-0.23
				c-0.44,2.38-1.88,12.48-1.94,12.9l1.29,0.18c0.01-0.05,0.34-2.38,0.73-5.08L529.8,80.91z"/>
		</g>
		<g>
			<path fill="#314056" d="M488.09,72.22c-0.03,2.28-0.6,4.11-1.27,4.1c-0.67-0.01-1.18-1.86-1.15-4.14c0.03-2.28,0.6-4.11,1.27-4.1
				C487.61,68.09,488.13,69.94,488.09,72.22z"/>
		</g>
		<g>
			<path fill="#FF7D6C" d="M488.87,91.03c2.26-3.71,11.3-1.2,11.3-1.2s9.72-3.69,11.49,0.72c1.28,3.2-4.29,9.05-12.17,9.26
				C491.61,100.04,487.44,93.38,488.87,91.03z"/>
		</g>
		<g>
			<path fill="#314056" d="M514.5,71.5c-0.03,2.28-0.6,4.11-1.27,4.1c-0.67-0.01-1.18-1.86-1.15-4.14c0.03-2.28,0.6-4.11,1.27-4.1
				C514.02,67.38,514.54,69.23,514.5,71.5z"/>
		</g>
		<g>
			<path fill="#2A323D" d="M489.53,90.62c0.14,0,21.61-0.39,21.61-0.39l0.26,1.63c0,0-3.76,5.28-10.92,5.4
				C492.74,97.4,489,92.08,489,92.08L489.53,90.62z"/>
		</g>
		<g>
			<path fill="#FFFFFF" d="M508.82,90.27c-4.51,0.08-14.33,0.26-17.93,0.33c0.02,0.91,0.1,2.44,0.36,2.5
				c0.38,0.08,16.95,0.03,17.14-0.23C508.51,92.69,508.7,91.27,508.82,90.27z"/>
		</g>
		<g>
			<path fill="#314056" d="M488.71,59.58c-2.14,0.13-4.27,0.37-6.38,0.71c-1.86,0.29-1.07,3.12,0.78,2.82
				c1.86-0.29,3.73-0.49,5.6-0.6C490.59,62.39,490.6,59.46,488.71,59.58z"/>
		</g>
		<g>
			<path fill="#314056" d="M517.02,60.09c-2.32-0.54-4.66-0.92-7.03-1.14c-1.88-0.18-1.86,2.75,0,2.93c2.11,0.2,4.18,0.55,6.25,1.04
				C518.08,63.34,518.86,60.52,517.02,60.09z"/>
		</g>
		<g>
			<path fill="#FFB297" d="M486.66,77.91c-0.03,0-0.08,0-0.14,0c0.01,0-0.02-0.01-0.1-0.02c-0.05-0.01-0.1-0.02-0.15-0.03
				c-0.22-0.05-0.44-0.12-0.65-0.2c-0.72-0.28-1.64,0.3-1.8,1.02c-0.19,0.84,0.26,1.51,1.02,1.8c0.58,0.22,1.21,0.33,1.83,0.35
				c0.77,0.03,1.5-0.7,1.46-1.46C488.09,78.55,487.48,77.94,486.66,77.91z"/>
		</g>
		<g>
			<path fill="#FFB297" d="M515.53,77.74c-0.25-0.78-1-1.21-1.8-1.02c-0.26,0.06-0.52,0.12-0.78,0.17
				c-0.13,0.02-0.26,0.05-0.39,0.07c-0.07,0.01-0.46,0.06-0.13,0.02c-0.4,0.05-0.74,0.13-1.04,0.43c-0.25,0.25-0.45,0.67-0.43,1.04
				c0.03,0.71,0.65,1.57,1.46,1.46c0.7-0.09,1.39-0.2,2.08-0.36C515.26,79.37,515.77,78.48,515.53,77.74z"/>
		</g>
		<path fill="#8FBFCC" d="M452.77,281.27c-1.63-0.72-23.23-2.71-26.75-2.23c-1.12,0.15-1.96,0.43-2.59,0.76
			c-0.08,0.59-0.15,1.18-0.22,1.75c0.42-0.42,1.27-0.98,2.99-1.21c3.23-0.44,24.53,1.51,26.04,2.13c0.6,0.27,1.23,1.76,1.59,3.04
			c0.13-0.86,0.26-1.73,0.39-2.62C453.84,282.16,453.36,281.53,452.77,281.27z"/>
		<path fill="#8FBFCC" d="M561.63,215.36c-0.95,8.73-4.4,12.53-5.82,13.75c0.58,0.05,1.16,0.09,1.75,0.14
			c1.82-1.92,4.52-6.01,5.36-13.75c0.83-7.64-1.52-12.46-3.55-15.11c-0.56,0.01-1.12,0.02-1.67,0.03
			C559.63,202.62,562.5,207.33,561.63,215.36z"/>
		<path fill="#8FBFCC" d="M489.89,266.81c-0.81-0.3-0.53-1.55-0.32-2.12c0.37-0.99,0.95-1.88,0.93-2.97
			c-0.01-1.02-0.51-1.92-1.49-2.3c-0.54-0.21-1.16-0.24-1.73-0.29c-0.67-0.05-1.35-0.05-2.03-0.02c-4.29,0.2-9.85,2.01-13.36-1.45
			c-1.8-1.78-1.78-4.45-0.76-6.64c0.15-0.32,0.09-0.7-0.23-0.89c-0.28-0.16-0.74-0.09-0.89,0.23c-1.01,2.16-1.31,4.78-0.06,6.91
			c1.08,1.84,3.09,3.01,5.14,3.47c2.66,0.59,5.37,0.14,8.04-0.15c1.32-0.15,2.65-0.26,3.98-0.17c0.51,0.03,1.25,0.02,1.68,0.34
			c0.33,0.24,0.4,0.69,0.39,1.07c-0.03,1.23-0.98,2.26-1.13,3.48c-0.14,1.15,0.34,2.34,1.47,2.76
			C490.33,268.35,490.67,267.1,489.89,266.81z"/>
		<path fill="#8FBFCC" d="M560.29,243.19c-2.52,1.69-5.23,3.08-8.08,4.11c-0.78,0.28-0.44,1.54,0.35,1.26
			c2.96-1.07,5.78-2.49,8.39-4.24C561.64,243.85,560.99,242.72,560.29,243.19z"/>
		<path fill="#314056" d="M521.35,203.17c0,0,3.59,5.16,2.37,11.18c-1.22,6.02-5.72,6.39-5.72,6.39s0.63,0.95,1.07,1.04
			c0.44,0.1,7.39,0.39,7.83,0.24c0.44-0.15,2.52-1.76,3.42-6.44c1.16-5.99-3.29-12.79-3.29-12.79s-7.33-0.33-7.4-0.31
			c-0.06,0.02-0.31,0.44-0.31,0.44L521.35,203.17z"/>
		<path fill="#FFB69C" d="M503.73,195.16c-1.59-1.05-3.44,0.11-4.52,1.34c-0.55,0.62-0.99,1.36-1.01,2.21
			c-0.01,0.41,0.1,0.81,0.23,1.2c0.12,0.37,0.31,0.77,0.18,1.17c-0.24,0.73-1.06,1.12-1.68,1.46c-0.72,0.4-1.46,0.86-1.87,1.6
			c-0.38,0.69-0.49,1.56-0.07,2.26c0.04,0.07,0.12,0.18,0.17,0.23c0.01,0.01,0.02,0.03,0.03,0.04c-0.01,0.01-0.01,0.01-0.02,0.02
			c-0.04,0.04-0.09,0.07-0.14,0.1c-0.35,0.25-0.68,0.5-0.98,0.81c-0.61,0.65-1.07,1.46-1.3,2.33c-0.22,0.83-0.29,1.89,0.43,2.49
			c0.66,0.56,1.62-0.4,0.96-0.96c-0.41-0.34-0.12-1.14,0.03-1.55c0.23-0.63,0.62-1.19,1.12-1.64c0.49-0.45,1.26-0.75,1.31-1.51
			c0.03-0.39-0.14-0.65-0.36-0.95c-0.17-0.23-0.2-0.43-0.13-0.71c0.18-0.66,0.82-1.02,1.38-1.34c0.63-0.36,1.29-0.7,1.78-1.25
			c0.49-0.55,0.8-1.23,0.72-1.98c-0.07-0.7-0.58-1.4-0.4-2.1c0.18-0.71,0.81-1.31,1.37-1.75c0.59-0.47,1.39-0.83,2.09-0.37
			C503.78,196.81,504.45,195.64,503.73,195.16z"/>
	</g>
	<g>
		<path fill="#DBCEC3" d="M399.18,450l10.88-0.2c-10.19-37.25-80.85-129.31-130.47-133.17c-40.2-3.13-62.13,33.14-54.55,68.14
			c5.45,25.19,21.62,49.07,46.48,60.57c5.04,2.33,13.99,3.77,22.84,4.67H399.18z"/>
	</g>
	<g>
		<path fill="#DBCEC3" d="M920.49,316.63c-49,3.81-124.02,95.21-135.7,133.37h120.93c8.85-0.89,17.8-2.33,22.84-4.67
			c24.86-11.5,41.8-36.27,46.48-60.57C982.35,346.84,960.69,313.5,920.49,316.63z"/>
	</g>
	<path fill="#7C5149" d="M803.05,178.27c0,0-8.01,0.51-10.27-7.81c-2.26-8.32,10.69-46.75,41.51-47.67
		c30.82-0.92,39.86,28.25,41.61,44.08c1.75,15.82-1.13,27.43,4.11,33.7c5.24,6.27,22.6,11.88,23.43,16.21
		c0.82,4.33-3.7-1.73-3.7-1.73s4.11,8.32,0.21,16.95c-3.9,8.63-17.98,13.46-17.98,13.46l-72.74,1.67c0,0-3.81,0.28-7.41-5.4
		c-3.6-5.68,1.32-17.58,1.32-17.58s-4.71,2.01-5.81,5.88c-1.11,3.88,1.04,7.75-2.15,7.41s-5.95-5.95-4.36-14.88
		c1.59-8.93,16.61-18.82,16.61-18.82L803.05,178.27z"/>
	<path fill="#724842" d="M830.29,135.08c-0.01-0.02-0.91-1.85,1.24-6.56c1.29-2.82,4.05-4.65,6.22-5.7
		c-0.85-0.04-1.71-0.05-2.59-0.04c-1.88,1.21-3.76,2.92-4.81,5.21c-2.44,5.34-1.33,7.51-1.19,7.74L830.29,135.08z"/>
	<path fill="#724842" d="M898.38,220.56c-2.81-6.76-10.41-10.43-17.12-13.68c-4.92-2.38-9.56-4.62-10.8-7.55
		c-1.17-2.77-1.72-10.96-2.35-20.44c-0.95-14.22-2.12-31.92-6.11-39.29c-6.62-12.23-27.84-14.96-28.74-15.07l-0.16,1.29
		c0.21,0.03,21.46,2.76,27.76,14.4c3.85,7.12,5.02,24.66,5.96,38.76c0.64,9.6,1.19,17.88,2.44,20.86c1.43,3.38,6.06,5.62,11.43,8.21
		c6.5,3.14,13.87,6.7,16.49,13c4.2,10.11-10.29,17.26-12.59,18.32l-3.11-1.91c1.96-1.8,7.44-7.29,6.73-11.97
		c-0.5-3.29-7.2-7.58-16.6-13.29c-4.36-2.64-8.48-5.14-9.69-6.55c-1.11-1.3-1.14-8.75-1.17-16.63c-0.06-14.37-0.13-34.06-5.63-45.25
		c-4.63-9.43-11.03-13.19-15.59-14.67c-4.22-1.38-7.62-1.13-8.63-1c-0.93-0.6-3.96-1.27-13.1,3.25
		c-11.17,5.53-20.28,26.2-20.52,32.93c-0.06,1.78,0.48,3.19,1.62,4.2c2.6,2.29,7.34,1.57,7.54,1.53l-0.21-1.29
		c-0.04,0.01-4.34,0.66-6.47-1.23c-0.84-0.75-1.23-1.79-1.18-3.18c0.23-6.32,9.22-26.58,19.8-31.81c9.49-4.69,11.66-3.43,11.84-3.31
		l0.21,0.28l0.4-0.07c0.15-0.02,14.67-2.31,23.13,14.93c5.36,10.92,5.44,30.43,5.49,44.68c0.04,10.39,0.12,15.89,1.48,17.48
		c1.34,1.57,5.36,4,10,6.82c6.56,3.98,15.55,9.43,15.99,12.37c0.73,4.84-6.88,11.31-6.95,11.37l-0.69,0.58l5.2,3.2l0.31-0.13
		c0.19-0.08,4.66-1.99,8.6-5.39C898.75,230.71,900.47,225.61,898.38,220.56z"/>
	<g>
		<path fill="#724842" d="M810.39,235.43c0.07-8.95,13.84-23.19,13.98-23.34l0.56-0.58l-8.16-5.08l-0.36,0.29
			c-0.59,0.47-12.52,10.03-16.38,19.4c0.78-0.66,1.56-1.15,2.14-1.48c4.03-7.57,12.82-15.06,14.69-16.61l6.01,3.74
			c-2.67,2.85-13.73,15.14-13.8,23.65c-0.04,5.02,2.81,8.87,5.67,11.59l1.89-0.04C813.69,244.38,810.35,240.52,810.39,235.43z"/>
		<path fill="#724842" d="M791.78,234.58c0.48-9.2,2.77-13.63,4.77-15.76c6-6.36,15.11-12.13,15.2-12.19l-0.69-1.1
			c-0.09,0.06-9.34,5.92-15.45,12.4c-2.6,2.76-4.23,7.28-4.89,13.49C790.96,232.65,791.33,233.71,791.78,234.58z"/>
	</g>
	<g>
		<path fill="#CCBCB0" d="M914.77,430.07l-0.4-1.24c29.95-9.59,44.87-38.7,46.37-63.28c1.19-19.37-5.59-34.87-17.67-40.44
			c-11.82-5.46-24.79-3.3-33.58-0.53c-9.58,3.02-16.43,7.4-16.5,7.44l-0.71-1.09c0.07-0.04,7.04-4.51,16.78-7.58
			c9.02-2.85,22.34-5.05,34.55,0.58c12.58,5.81,19.64,21.79,18.43,41.7c-0.82,13.46-5.39,27.02-12.86,38.17
			C940.68,416.5,928.78,425.58,914.77,430.07z"/>
	</g>
	<g>
		<path fill="#CCBCB0" d="M288.18,430.07l0.4-1.24c-29.95-9.59-44.87-38.7-46.37-63.28c-1.19-19.37,5.59-34.87,17.67-40.44
			c11.82-5.46,24.79-3.3,33.58-0.53c9.58,3.02,16.43,7.4,16.5,7.44l0.71-1.09c-0.07-0.04-7.04-4.51-16.78-7.58
			c-9.02-2.85-22.34-5.05-34.55,0.58c-12.58,5.81-19.64,21.79-18.43,41.7c0.82,13.46,5.39,27.02,12.86,38.17
			C262.27,416.5,274.17,425.58,288.18,430.07z"/>
	</g>
	<path opacity="0.14" fill="#FF9A8D" d="M809.8,150.41c9.5,6.55,21.84,8.65,33.1,6.52c7.03-1.33,13.78-4.04,19.69-8.09
		c2.31-1.58,4.4-3.39,6.38-5.35c-2.7-5.12-6.31-9.92-11.1-13.61c-0.12,0.1-0.23,0.19-0.35,0.29c-2.35,1.92-4.86,3.62-7.55,5.02
		c-8.1,4.23-18.13,6.43-27.12,3.95c-3.59-0.99-7.05-2.82-9.54-5.63c-0.56-0.64-1.06-1.31-1.51-2.01c-3.92,3.24-7.21,7.12-9.91,11.18
		C804.04,145.68,806.73,148.29,809.8,150.41z"/>
	<path opacity="0.14" fill="#FF9A8D" d="M796,227.97c0.6,0.3,1.2,0.58,1.81,0.85c1.6-3.08,5.32-4.67,5.32-4.67s-1.1,2.67-1.88,6.08
		c14.98,5.59,32.37,4.98,47.78,2.22c17.2-3.09,34.85-9.54,48.53-20.77c-4.67-2.69-11.06-5.67-15.12-8.84
		c-0.38,0.3-0.76,0.6-1.14,0.89c-3.71,2.84-7.62,5.39-11.74,7.59c-14.31,7.64-31.7,11.49-47.88,9.32c-7.48-1-15.06-3.71-20.56-9.06
		c-0.55-0.53-1.06-1.09-1.54-1.66c-3.91,3.57-7.98,8.22-8.77,12.64c-0.13,0.73-0.23,1.44-0.3,2.13
		C792.23,225.91,794.06,227.01,796,227.97z"/>
	<g>
		<g>
			<path fill="#F49473" d="M339.51,164.89c0,0,3.02,39.67,1.86,41.64c-1.16,1.97-15.19,16.12-15.19,16.12l38.74,21.23
				c0,0,5.34-13.8,5.34-14.15s-0.7-17.4,0-17.75c0.7-0.35,9.59,1.07,14.93-6.82c5.34-7.89,6.3-50.37,4.32-55.94
				c-1.97-5.57-0.81-16.35-15.89-16.93c-15.08-0.58-33.29,6.5-34.33,9.28C338.24,144.36,339.51,164.89,339.51,164.89z"/>
		</g>
	</g>
	<g>
		<ellipse fill="#F49473" cx="337.06" cy="175.61" rx="7.29" ry="9.8"/>
	</g>
	<g>
		<path fill="#D5735B" d="M339.73,182.13l-1.3,0c0.01-4.4-0.68-11.73-2.59-12.69l0.58-1.16
			C339.67,169.9,339.73,180.88,339.73,182.13z"/>
	</g>
	<g>
		
			<rect x="335.94" y="173.62" transform="matrix(0.1279 -0.9918 0.9918 0.1279 119.2205 487.1089)" fill="#D5735B" width="1.3" height="4.3"/>
	</g>
	<g>
		<path fill="#84604E" d="M336.13,154.17c-0.06,0.19,0.93,11.65,0.93,11.65l4.31,1.9c0,0,0.98,7.75,1.36,7.79
			c0.38,0.03,2.57-0.01,2.57-0.01l1.35-22.41c0,0,5.39,1.47,9.88-2.95c4.49-4.42,2.44-12.57,9.43-14.81s16.16-0.45,19.3,3.66
			c3.14,4.1,4.99,15.83,4.99,15.83s8.8-0.89,10.33-6.85c1.54-5.96-5.77-8.72-5.77-8.72s2.91-1.42,2.37-2.5
			c-0.46-0.93-3.08-0.9-3.08-0.9s3.72-6.99,0.13-12.12s-6.67-4.55-6.67-4.55s2.95-1.73,0.38-2.5c-2.57-0.77-6.99-0.32-6.99-0.32
			s0.9-2.44-5.9-2.05c-6.8,0.38-8.94,3.52-8.94,3.52s-4.78-4.22-11.84-1.91c-7.05,2.31-6.61,7.7-7.82,7.95
			c-1.22,0.26-2.5-2.18-5.19-1.41c-2.69,0.77-2.18,2.44-2.18,2.44s-5.39,1.91-6.93,7.4c-1.54,5.49,1.22,8.05,1.22,8.05
			s-4.69,2.82-3.6,7.18c1.09,4.36,5.39,4.49,5.13,4.68c-0.26,0.19-2.18,1.09-1.73,1.73C333.63,154.55,336.13,154.17,336.13,154.17z"
			/>
	</g>
	<path fill="#7A5747" d="M346.56,154.43l0.08-1.33c-2.77-0.7-3.96-2.33-4.45-3.73c-1.15-3.25,2.41-5.91,3.93-7.04
		c0.73-0.55,1.14-0.85,0.92-1.39c-0.1-0.24-0.26-0.36-0.76-0.72c-2.12-1.53-4.38-3.56-3.04-5.79c1.97-3.27,6.68-2.75,6.73-2.75
		l0.16-1.29c-0.23-0.03-5.58-0.63-8,3.37c-2.09,3.47,1.86,6.41,3.3,7.45c-0.03,0.02-0.06,0.05-0.09,0.07
		c-1.75,1.3-5.85,4.36-4.38,8.52C341.59,151.58,343.07,153.65,346.56,154.43z"/>
	<g>
		<path fill="#7A5747" d="M365.1,117.07l-0.14,0.35c0.09,0.03,0.2,0.06,0.38,0.11c0.24,0.06,0.47,0.13,0.71,0.2
			C365.91,117.63,365.59,117.38,365.1,117.07z"/>
		<path fill="#7A5747" d="M374.28,124.67c-0.61-2.71-2.35-6.16-7.09-7.91c-0.65,0.5-0.97,0.9-1.06,1.01
			c3.76,1.19,6.07,3.6,6.87,7.18c0.44,1.96,0.52,3.64,0.43,5.05c-0.79-0.41-1.77-0.57-2.59-0.62c-1.29-0.08-2.6,0.18-3.8,0.62
			c-2.29,0.84-4.35,2.35-5.93,4.21c-0.89,1.05-1.64,2.2-2.22,3.45c-0.15,0.32-0.09,0.7,0.23,0.89c0.28,0.16,0.74,0.09,0.89-0.23
			c0.9-1.94,2.22-3.65,3.87-5.01c1.68-1.38,3.81-2.47,6.01-2.62c0.64-0.04,1.28-0.01,1.91,0.13c0.51,0.12,1.06,0.27,1.46,0.63
			c-0.23,1.35-0.61,2.32-0.88,2.88c0.47,0,0.95,0.01,1.42,0.03C374.5,132.69,375.34,129.4,374.28,124.67z"/>
	</g>
	<g>
		<path fill="#7A5747" d="M358.28,153.41c-1.73,0.15-3.45,0.26-5.18,0.32c-2.09,0.07-2.1,3.33,0,3.25c1.73-0.06,3.46-0.17,5.18-0.32
			C360.35,156.48,360.37,153.23,358.28,153.41z"/>
	</g>
	<g>
		<path fill="#7A5747" d="M384.16,152.86c-1.48-0.03-2.95-0.01-4.43,0.05c-2.09,0.09-2.1,3.35,0,3.25c1.48-0.07,2.95-0.08,4.43-0.05
			C386.26,156.16,386.26,152.9,384.16,152.86z"/>
	</g>
	<g>
		<ellipse fill="#2A323D" cx="355.2" cy="166.2" rx="1.06" ry="4.17"/>
	</g>
	<g>
		<ellipse fill="#2A323D" cx="382.68" cy="165.81" rx="1.06" ry="4.17"/>
	</g>
	<g>
		<path fill="#D5735B" d="M372.53,172.87c-2.68-3.62-1.83-10.62-1.79-10.92l1.29,0.16c-0.01,0.07-0.82,6.78,1.55,9.98L372.53,172.87
			z"/>
	</g>
	<g>
		<path fill="#D5735B" d="M372.01,182.83c-1.66,0-3.4-0.41-4.98-1.39l0.68-1.11c3.1,1.92,6.9,1.32,9.05-0.25
			c1.51-1.1,2.15-2.61,1.77-4.12c-0.23-0.93-0.73-1.6-1.51-2.04c-2.29-1.31-6.14-0.2-6.18-0.19l-0.37-1.25
			c0.18-0.05,4.42-1.27,7.19,0.31c1.09,0.62,1.81,1.58,2.13,2.86c0.52,2.06-0.3,4.06-2.26,5.49
			C376.14,182.16,374.13,182.83,372.01,182.83z"/>
	</g>
	<g>
		<path fill="#FFA782" d="M427.51,293.65c0,0-11.38,51.94-10.06,54.45c1.32,2.51,26.4,5.43,27.59,4.83c1.19-0.6,4.04-2.51,3.71-3.11
			c-0.33-0.6-2.51-2.98-2.71-3.04c-0.2-0.07-2.65,0.4-2.65,0.4s0.73-4.9,1.32-4.76c0.6,0.13,3.51,8.34,6.02,9.59
			c2.51,1.26,9.73-1.32,9.33-2.71c-0.4-1.39-6.29-0.79-6.29-0.99c0-0.2,0.93-12.44-3.64-15.08c-4.57-2.65-11.21-2.65-11.43-4.17
			s5.47-32.22,4.61-33.54C442.46,294.18,428.37,293.06,427.51,293.65z"/>
		<g>
			<path fill="#D5735B" d="M439.28,347.68l0.51,1.2c1.62-0.69,3.37-1.41,4.65-1.89c-0.56,0.1-1.05,0.19-1.05,0.19
				s0.08-0.55,0.21-1.27C442.59,346.3,441.2,346.86,439.28,347.68z"/>
			<path fill="#D5735B" d="M448.85,348.78c-1.83-3.31-2.17-3.5-2.3-3.58c-0.08-0.05-0.17-0.09-0.36-0.09
				c0.62,1.31,1.39,2.87,2.19,4.19c-0.55-0.7-1.53-1.77-2.04-2.27c0.55,0.89,1.37,2.34,2.01,3.56c0.26-0.27,0.42-0.51,0.42-0.68
				c0.52,0.79,1.06,1.44,1.58,1.83C450.12,351.19,449.67,350.28,448.85,348.78z"/>
		</g>
		<path fill="#D5735B" d="M442.61,339.32c0.56,1.45,1.15,3.01,1.55,4.1c0.18-0.62,0.38-1.05,0.56-1.01c0.19,0.04,0.62,0.92,1.2,2.13
			c-0.08-0.33-0.45-1.4-2.09-5.69L442.61,339.32z"/>
	</g>
	<path fill="#D5735B" d="M351.46,209.33c-6.54-3.05-8.76-24.56-8.78-24.77l-0.08-0.81l-1.77,0.26c0.03,0.45,0.07,1.23,0.1,1.68
		l0.55-0.19c0.48,4.11,1.72,29.8,8.22,32.83c5.39,2.51,14.44,2.65,18.38,2.65c0.46,0,1.37,0.01,1.69,0c0.04-0.7,0.36-8.83,0.46-8.96
		C367.56,212.06,357.31,212.06,351.46,209.33z"/>
	<g>
		<path fill="#2A323D" d="M353.64,188.07c0,0,14.88,1.99,25.73,0l0.43,2.77c0,0-4.25,8.26-13.65,7.96s-13.65-8.99-13.65-8.99
			L353.64,188.07z"/>
	</g>
	<g>
		<path fill="#FFFFFF" d="M376.66,191.7c0.25-0.28,0.37-2.01,0.42-3.28c-8.36,1.09-18.2,0.23-21.92-0.18
			c-0.1,1.2-0.14,3.1,0.76,3.46C357.19,192.21,376.25,192.16,376.66,191.7z"/>
	</g>
	<g>
		<path fill="#D5735B" d="M366.88,203.14c-2,0-3.18-0.96-3.25-1.02l0.83-1c0.09,0.08,2.33,1.84,6.08-0.46l0.68,1.11
			C369.53,202.8,368.06,203.14,366.88,203.14z"/>
	</g>
	<path fill="#5B88C9" d="M289.35,431.25c23.06,9.34,98.18,3.45,99.44,4.08c1.02,0.51,0.4,10.71,0.12,14.67h47.96l3.26-5.34
		l2.63,5.34h48.2c-2.58-9.37-16.37-58.36-23.22-61.4c-7.58-3.37-183.02-12.47-183.02-12.47c-0.45,0.3-10.01,23.75-8.81,33.91
		C277.1,420.2,283.53,428.9,289.35,431.25z"/>
	<path fill="#4778B2" d="M442.06,395.5c1.1,2.11-0.44,28.3-2,49.27l0.07-0.11l1.08,2.19c1.09-14.43,3.52-49.04,2.01-51.95
		c-0.96-1.84-5.32-6.11-9.61-9.85c-0.73-0.05-1.47-0.11-2.22-0.16C435.91,388.71,441.05,393.54,442.06,395.5z"/>
	<path fill="#D16949" d="M799.3,450l2.44-8.03c24.67-1.68,103.16-7.32,114.71-12.2c13.48-5.7,10.11-45.84,10.11-45.84l-85.08-11.1
		c0,0-94.33,18.14-102.88,23.07c-7.65,4.4-15.48,45.47-17.05,54.1H799.3z"/>
	<g>
		<path fill="#F2C291" d="M341.59,205.04c0,0-7.07-0.97-8.57,1.75c-1.5,2.71-1.86,8.21-1.86,8.21s-27.04,5.61-35.15,21.28
			c-8.11,15.66-23.36,125.7-23.14,128.04c0.22,2.34,11.03,18.27,11.37,18.27c0.87,0.02,20.35,2.98,40.39,2.97
			c20.01,0,40.6-2.97,40.6-2.97S377.14,322,378.05,322c0.91,0,12.6,24.05,13.64,24.31s29.39,10.29,29.78,10.26
			c0.39-0.03,16.91-19.87,17.03-21.77c0.12-1.9-0.69-3.86-0.69-3.86l-20.14-7.57c0,0,0.77-2.48,0.24-3.02
			c-0.49-0.5-2.79,0.17-2.79,0.17c-2.33-13.47-15.53-89.09-18.46-91.68c-3.21-2.84-21.47-8.01-21.47-8.01s1.35-5.39-0.26-6.16
			c-1.6-0.77-4.85-0.93-4.85-0.93s-3.49,26.69-6.04,26.69c-2.55,0-19.7-13.99-21.73-20.46S341.59,205.04,341.59,205.04z"/>
	</g>
	<polygon fill="#2C3A4C" points="427.16,450 441.3,388.25 430.53,387 416.38,450 	"/>
	<path fill="#222E3A" d="M437.33,405.56l3.96-17.3L430.53,387l-3.52,15.65C430.47,403.56,433.91,404.53,437.33,405.56z"/>
	<g opacity="0.11">
		<path fill="#962A15" d="M795.61,431.89c2.52-2.11,111.65-9.72,112.71-13.39c1.06-3.67,3.47-25.26,3.47-25.26l-2.87-0.45
			c0,0-1.96,22.94-4.53,23.85c-2.57,0.91-107.72,10.7-111.67,13.43c-3.34,2.3-7.87,15.79-9.19,19.93h3.74
			C788.95,445.55,793.57,433.6,795.61,431.89z"/>
		<path fill="#962A15" d="M724.64,450h3.21c2.24-9.78,11.22-48.12,15.03-52c2.63-2.67,9.07-5.54,13.79-7.4
			c-5.54,1.34-10.21,2.55-13.49,3.57c-1.83,1.59-3.53,3.46-4.66,5.57C735.4,405.58,727.38,438.55,724.64,450z"/>
		<path fill="#962A15" d="M918.13,390.83c0,0.45-2.26,29.43-4.83,31.55c-2.57,2.11-111.55,10.57-114.27,13.59
			c-2.01,2.24-4.61,10.11-5.81,14.04h2.32c1.27-2.93,4.25-9.69,5.3-10.87c1.36-1.51,112.6-9.06,114.72-14.49
			c2.11-5.43,5.43-33.81,5.43-33.81S918.13,390.38,918.13,390.83z"/>
		<path fill="#962A15" d="M862.13,381.77c0,0-0.45-1.9-1.36-2.16c-0.91-0.26-96,15.29-101.59,22.38c-4.99,6.34-15.87,40.72-18.14,48
			h5.31c2.31-8.59,10.65-38.99,14.79-44.68C765.98,398.68,862.13,381.77,862.13,381.77z"/>
		<path fill="#962A15" d="M790.89,426c9.66-3.92,102.17-11.29,105.49-15.36c3.32-4.08,5.61-15.17,5.61-15.17l-3.32-0.87
			c0,0-3.71,13.71-4.77,13.98c-1.06,0.27-102.1,11.23-106.63,13.65c-3.73,1.99-10.96,21.12-13.38,27.77h3.72
			C778.39,446.23,782.32,429.48,790.89,426z"/>
		<path fill="#962A15" d="M785.17,418.5c7.53-5.33,105.79-15.44,105.79-15.44l-0.45-3.92c0,0-101.05,10.57-107.36,16.45
			c-5.27,4.92-13.82,27.2-16.5,34.41h2.92C771.84,443.16,778.94,422.92,785.17,418.5z"/>
		<path fill="#962A15" d="M774.13,406.23c4.08-4.08,86.94-19.22,86.94-19.22l-1.36-2.66c0,0-83.47,13.89-89.51,20.68
			c-5.17,5.82-15.45,36.36-18.28,44.98h2.57C757.45,442.55,770.52,409.84,774.13,406.23z"/>
		<path fill="#962A15" d="M750.08,399.74c-8.69,7.04-16.3,41.12-18.21,50.26h4.45c1.64-7.9,10.99-44.31,15.92-48.75
			c5.53-4.98,106.11-24.45,106.11-24.45s-0.66-1.06-1.21-1.92l-3.89-0.51C836.54,377.52,759.05,392.47,750.08,399.74z"/>
		<path fill="#962A15" d="M780.02,412.11c5.74-4.53,93.43-16.64,93.43-16.64s-0.45-4.44-0.91-4.84c-0.45-0.4-88.91,11.52-95.7,18.62
			c-5.74,5.99-15.13,32.75-18.19,40.75h3.48C765.1,442.09,775.16,415.95,780.02,412.11z"/>
	</g>
	<polygon fill="#2C3A4C" points="808.07,450 793.92,387 783.15,388.25 797.29,450 	"/>
	<path fill="#222E3A" d="M796.71,399.42L793.92,387l-10.76,1.25l3.59,15.68C790.03,402.35,793.35,400.84,796.71,399.42z"/>
	<g>
		<path fill="#E5B593" d="M844.42,372.15c0,14.27-108.89,25.85-243.21,25.85s-243.21-11.57-243.21-25.85
			c0-0.55-0.29-10.81,0.02-11.35c7.9-13.52,114.01-14.5,243.19-14.5c131.84,0,239.17,0.94,243.1,14.85
			C844.38,361.42,844.42,371.89,844.42,372.15z"/>
	</g>
	<g>
		<g>
			<ellipse fill="#EFC6A8" cx="601.2" cy="361.16" rx="243.21" ry="25.85"/>
		</g>
	</g>
	<ellipse opacity="0.19" fill="#7F5132" cx="592.17" cy="341.85" rx="18.62" ry="3.24"/>
	<path opacity="0.19" fill="#7F5132" d="M473.08,351.77c-0.42,0.21-124.62-9.45-110.44,14.52c0.09,0.16,4.03,1.74,4.03,1.74
		c1.86,0.72,4.02,1.43,6.44,2.12c8.21,0.9,20.79,2.23,21.44,2c0.97-0.33,2.96-1.38,2.96-1.38s70.08,9.94,74.43,8.86
		c4.35-1.08,5.47-4.51,5.47-4.51l27.61-0.95c0,0,27.55-9.88,27.56-10.21c0.01-0.33-1.22-12.51-1.47-12.59
		C530.86,351.28,473.5,351.56,473.08,351.77z"/>
	<g>
		<path fill="#F2C291" d="M306.29,261.1c0,0,28.95,94.84,36.81,100.06c7.86,5.22,48.53,9.71,49.9,8.84
			c1.37-0.87,3.74-4.62,3.74-4.62s4.97-24.75,4.21-26.35c-0.76-1.6-3.51-2.82-3.51-2.82s-23.11-5-31.21-6.89
			c0,0,0.69-2.13-0.43-3.14c-1-0.91-2.95,0.39-2.95,0.39c-4.1-12.59-22.57-77.41-24.82-78.01
			C335.53,247.91,306.29,261.1,306.29,261.1z"/>
	</g>
	<g>
		<path fill="#E5AF7F" d="M357.89,367.25c-0.61-0.09-14.67-2.23-18.17-5.63c-3.41-3.3-30.92-84.72-34.05-94l1.23-0.42
			c12.24,36.3,31.32,91.15,33.72,93.48c3.2,3.11,17.09,4.98,17.24,5.01L357.89,367.25z"/>
	</g>
	<path fill="#E5AF7F" d="M402.21,344.19c0.16-0.45,1.88-5.47,0.88-7.25c-0.47-0.84-3.18-2.04-19.59-5.07
		c-0.2-0.04-0.39-0.07-0.55-0.1c0.22,0.47,0.44,0.96,0.66,1.45c15.36,2.84,17.96,4.01,18.35,4.39c0.51,0.98-0.56,4.83-1.08,6.3
		L402.21,344.19z"/>
	<path opacity="0.19" fill="#7F5132" d="M843.47,363.46c-9.92-3.62-43.93-14.18-61.24-19.56c-6.53-0.77-13.5-1.5-20.86-2.19
		c-18.61,2.18-55.2,7.05-55.19,7.72c0.01,0.9-1.38,5.59-1.38,5.59l-56.47,5.33l-0.6,1.97c0,0,1.35,18.65,1.77,18.79
		c0.43,0.14,68.34-1.72,68.48-1.81c0.14-0.09,2.01-2.73,2.01-2.73s1.31,1.39,3.19,1.52c1.88,0.13,3.85-0.58,3.85-0.58
		s4.92,2.19,7.92,1.12c3-1.07,4.34-4.61,4.34-4.61s7.6,0.58,9.53-0.63c1.92-1.21,2.86-3.61,2.86-3.61l33.81-1.27
		c0,0,0.49,4.22,3.31,4.3c2.25,0.07,37.3-4.56,51.53-6.91C841.71,365.11,842.78,364.29,843.47,363.46z"/>
	<path fill="#E5AF7F" d="M386.56,256.95c-0.21,0.25-0.44,0.53-4.86,34.73c-1.64,12.73-3.27,25.55-3.97,31.09
		c0.15-0.5,0.26-0.76,0.32-0.76c0.12,0,0.44,0.52,0.91,1.41c2.5-19.8,8.16-64.12,8.7-65.8c0,0.01-0.03,0.08-0.1,0.17L386.56,256.95z
		"/>
	<path fill="#F49473" d="M420.7,350.9c0,0,1.14-5.25,3.89-12.55c2.3-6.08,5.38-8.2,6.18-8.2c0.8,0,36.63,10.11,36.65,10.88
		c0.02,0.77-6.23,10.74-6.23,10.74L420.7,350.9z"/>
	<g>
		<path fill="#E5AF7F" d="M385.38,266.97l-1.07-0.75c5.08-7.27,5.7-7.47,5.94-7.54l0.39,1.24c0.06-0.02,0.1-0.04,0.1-0.04
			C390.24,260.24,387.62,263.77,385.38,266.97z"/>
	</g>
	<g>
		<path fill="#E5AF7F" d="M363.99,323.98c-3.93,1.75-8.2,6.44-8.43,6.69l0.96,0.87c1.58-1.74,5.91-5.93,9.03-6.77
			C365.06,324.49,364.53,324.22,363.99,323.98z"/>
		<path fill="#E5AF7F" d="M367.1,325.77c-0.49,2.07-3.1,6.37-5.79,9.92l1.04,0.79c0.94-1.24,4.78-6.44,5.84-9.88
			C367.83,326.31,367.47,326.03,367.1,325.77z"/>
	</g>
	<g>
		<path fill="#E5AF7F" d="M417.67,323.35c0,0,0.16-0.5,0.28-1.1c-1.06,1.25-2.47,2.67-3.88,3.91l0.86,0.98
			c0.73-0.64,2.23-2,3.55-3.49L417.67,323.35z"/>
		<path fill="#E5AF7F" d="M415.12,320.5c-0.07-0.41-0.15-0.87-0.24-1.39c-2.36,1.36-4.39,3.33-4.74,3.68l0.92,0.92
			C411.84,322.94,413.42,321.55,415.12,320.5z"/>
	</g>
	<g>
		<path fill="#E5AF7F" d="M333.31,226.56c4,9.52,10.59,15.35,19.07,16.86l0.32,0.06l0.24-0.22c2.11-1.94,5.24-4.23,7.32-4.85
			c-0.41-0.28-0.84-0.59-1.28-0.92c-2.65,1.1-5.57,3.59-6.68,4.59c-7.94-1.52-13.91-6.87-17.74-15.91c-2.12-5-2.97-9.77-3.3-12.24
			c-0.07,0.65-0.1,1.07-0.1,1.07s-0.37,0.08-1.03,0.24C330.57,217.95,331.47,222.17,333.31,226.56z"/>
		<path fill="#E5AF7F" d="M364.59,240.05c-0.18,0.24-0.37,0.37-0.54,0.37c-0.19,0-0.47-0.08-0.81-0.23c0.84,1.92,1.1,4.68,1.12,5.9
			l1.3-0.02C365.65,245.58,365.56,242.52,364.59,240.05z"/>
	</g>
	<g>
		<path fill="#E5AF7F" d="M375.21,220.82c-1.31,7.9-3.06,16.41-3.87,17.65c-0.7-0.06-2.81-1.08-3.98-1.64
			c-0.5-0.24-0.92-0.44-1.29-0.61c-0.12,0.45-0.25,0.87-0.37,1.26c0.37,0.17,0.75,0.36,1.09,0.52c2.24,1.08,3.74,1.77,4.64,1.77
			c0.11,0,0.2-0.01,0.29-0.03c0.55-0.12,1.24-0.27,3.15-9.89c0.73-3.66,1.36-7.33,1.58-8.67
			C375.74,220.97,375.29,220.84,375.21,220.82z"/>
		<path fill="#E5AF7F" d="M375.24,220.63c0.01-0.05,0.02-0.11,0.04-0.18l-0.01,0C375.26,220.51,375.25,220.57,375.24,220.63z"/>
	</g>
	<path fill="#E5AF7F" d="M368.53,328.35c0.06-0.94-0.01-2.68-1.21-3.6c-1.14-0.87-2.91-1.23-3.73-1.36l-18.26-63.31l-1.25,0.36
		l18.38,63.72l0.12,0.42l0.44,0.04c0.64,0.06,2.52,0.4,3.51,1.16c0.85,0.65,0.75,2.36,0.64,2.97l-0.12,0.63l8.67,1.76
		c0.1-0.44,0.19-0.86,0.28-1.27L368.53,328.35z"/>
	<g>
		<path fill="#FFA782" d="M803.41,159.31c0,0-4.34,36.75,2.88,46.22c7.22,9.48,19.42,10.9,19.42,11.24c0,0.11,0.65,6.5,0.65,6.5
			s-0.92,23.59-2,38.18c-0.13,1.82,11.84,0,11.84,0s23.92-39.94,24.26-40.05s-5.08-3.84-7.33-8.69c-2.26-4.85,1.68-38.24,1.68-38.24
			s-5.73-41.82-25.48-41.71S803.41,159.31,803.41,159.31z"/>
	</g>
	<path fill="#513936" d="M811,171.21c-0.16,2.22-0.85,4-1.55,3.98c-0.69-0.02-1.13-1.83-0.96-4.04s0.85-4,1.55-3.98
		C810.73,167.18,811.16,168.99,811,171.21z"/>
	<path fill="#513936" d="M839.16,172.09c-0.16,2.22-0.85,4-1.55,3.98c-0.69-0.02-1.13-1.83-0.96-4.04c0.16-2.22,0.85-4,1.55-3.98
		C838.89,168.07,839.32,169.88,839.16,172.09z"/>
	<g>
		<path fill="#D5735B" d="M822.5,184.65c-1.59,0-3.41-0.27-4.91-0.88c-2.11-0.86-3.27-2.23-3.35-3.99c-0.12-2.62,2-4.21,4.04-5.75
			c1.98-1.49,4.02-3.03,4.24-5.52l1.3,0.11c-0.27,3.06-2.65,4.86-4.75,6.44c-1.94,1.46-3.61,2.72-3.53,4.66
			c0.05,1.22,0.91,2.18,2.54,2.84c2.85,1.16,6.58,0.79,7.03,0.36l0.89,0.95C825.48,184.37,824.11,184.65,822.5,184.65z"/>
	</g>
	<path fill="#7C5149" d="M812.39,159.33c-1.38-0.04-2.76-0.01-4.14,0.09c-1.45,0.11-1.47,2.39,0,2.28c1.38-0.1,2.76-0.13,4.14-0.09
		C813.86,161.65,813.86,159.37,812.39,159.33z"/>
	<path fill="#7C5149" d="M840.99,160.61c-2.21-0.52-4.45-0.8-6.72-0.82c-1.47-0.02-1.47,2.26,0,2.28c2.07,0.02,4.09,0.27,6.11,0.74
		C841.81,163.14,842.42,160.95,840.99,160.61z"/>
	<path fill="#D5735B" d="M853.04,192.73c0.04-0.57,0.09-1.13,0.13-1.7l-0.82-0.25l-0.21,0.58c-0.06,0.17-6.2,17.12-12.19,20.79
		c-6.02,3.69-17.57,3.62-17.68,3.62l-0.02,0.02c2.08,0.61,3.45,0.87,3.45,0.98c0,0.08,0.38,3.82,0.56,5.59
		c4.37-0.01,11.75-0.39,16.07-3.04C847.94,215.88,851.75,196.75,853.04,192.73z"/>
	<path fill="#FFA782" d="M865.74,181.6c-1.08,5.58-5.19,10.11-9.17,10.11c-0.89,0-3.29-0.43-3.99-0.84
		c-2.46-1.43-2.1-4.93-1.26-9.27c1.08-5.58,5.19-10.11,9.17-10.11S866.82,176.02,865.74,181.6z"/>
	<g>
		<path fill="#D5735B" d="M856.35,187.31l-1.3-0.06c0.02-0.38,0.49-9.25,6.04-12.56l0.67,1.12
			C856.8,178.77,856.35,187.23,856.35,187.31z"/>
	</g>
	<g>
		
			<rect x="856.39" y="181.87" transform="matrix(0.985 -0.1724 0.1724 0.985 -18.6056 150.7788)" fill="#D5735B" width="5.07" height="1.3"/>
	</g>
	<ellipse fill="#FFFFFF" cx="857" cy="192.42" rx="2.4" ry="2.88"/>
	<g>
		<path fill="#DCE9FF" d="M822.06,259.37c0,0,18.03-0.12,18.26,0c0.23,0.12,26.79,118.87,24.7,119.34
			c-0.98,0.22-8.76,0.52-20.6-5.09c-0.27-0.13-0.28-10.51-0.56-10.64c-13.28-6.3-30.72-8.21-30.72-8.21l-3.61-31.74L822.06,259.37z"
			/>
	</g>
	<g>
		<path fill="#E41663" d="M826.35,223.27c0,0-2.39,2.96-2.55,3.9c-0.16,0.93-0.54,2.89-0.46,2.81c0.08-0.08-9.29,3.41-11.63,7.17
			c-2.34,3.76-20.91,90.41-22.49,90.65c-1.58,0.24-18.32,3.36-18.9,4.63s2.55,18.21,2.55,18.21s29.91-1.98,34.97-2.99
			c0.36-0.07,2.82,7.05,2.82,7.05h8.72c0,0,1.64-67.22,2.16-72.29c0.52-5.06,2.97-20.88,3.06-23.51
			C824.7,256.28,827.58,225.54,826.35,223.27z"/>
	</g>
	<path fill="#FFA782" d="M734.54,336.03c0,0,38.28-3.42,40.25-1.21c1.97,2.2,0.46,17.51,0.46,17.51l-40.71-0.93V336.03z"/>
	<path fill="#293849" d="M648.32,360.35l-0.14,2.02l1.49,17.3l67.25-1.32l0.47-1.79c0,0-12.26-16.84-12.6-16.84
		C704.45,359.72,648.32,360.35,648.32,360.35z"/>
	<g>
		<path fill="#E41663" d="M785.17,344.98c0,0,0.66,25.61,2.95,26.3c2.29,0.69,63.14-6.82,66.11-10.43
			c2.97-3.61,22.55-95.39,21.52-95.84c-1.03-0.46-33.17-6.75-33.17-6.75s-13.05,73.67-13.85,74.93
			C827.93,334.44,786.22,342.93,785.17,344.98z"/>
	</g>
	<path fill="#A50850" d="M819.86,335.84c0.01-0.45,0.02-0.9,0.04-1.35c-23.28,5.79-35.3,8.9-35.7,9.24
		c-0.23,0.19-0.78,0.65-0.23,5.7l1.29-0.14c-0.19-1.77-0.3-3.9-0.17-4.55C787.3,344.01,806.19,339.24,819.86,335.84z"/>
	<path fill="#FFF6EE" d="M709.31,322.1c0,0-1.21,32.31,0.5,34.09c2.62,2.73,26.76,0.69,27.69-0.44s1.45-32.76,0.81-33.74
		C736.89,319.87,710.9,320.25,709.31,322.1z"/>
	<path fill="#DBC9BD" d="M737.09,322.43c0,0.71-5.94,1.29-13.26,1.29c-7.32,0-13.26-0.58-13.26-1.29s5.94-1.29,13.26-1.29
		C731.15,321.14,737.09,321.72,737.09,322.43z"/>
	<g>
		<path fill="#E41663" d="M852.55,209.18c0,0-0.47,9.83-1.28,10.73c-3.01,3.36-15.31,31.03-16.93,45.53
			c-0.68,6.07-2.65,46.58,0.82,65.36c4.82,26.07,18.36,31.08,18.36,31.08l-0.54,11.93c0,0,3.44,34.49,9.47,36.63
			c6.03,2.14,70.18-13.8,72.12-27.41c1.94-13.61-40.43-57.74-41.99-62.79c-1.56-5.05-2.16-74.84-8.84-84.97
			c-6.68-10.14-23.02-17.4-23.28-18.18c-0.26-0.79-0.76-5.28-1.93-6.14S852.55,209.18,852.55,209.18z"/>
	</g>
	<path fill="#A50850" d="M833.35,310.38l13.22-57.24l-1.27-0.29l-12.08,52.31C833.25,306.92,833.29,308.66,833.35,310.38z"/>
	<g>
		<path fill="#FFA782" d="M788.18,347.11c4.22,1.82,2.59,17.47,0.86,18.23s-41.31,0-41.31,0s-0.43,3.56-2.8,4.96
			s-8.84,1.02-8.84,1.02s0.89,2.72-3.62,3.54c-4.51,0.82-6.89-2.71-6.89-2.71s-3.12,0.9-4.51,0c-1.39-0.9-2.05-1.96-2.05-1.96
			s-3.03,1.31-4.68-0.25c-1.64-1.56,1.23-9.51,1.23-9.51s-10.37,12.4-13.23,11.73c-2.77-0.66,9.05-18.04,15.52-20.91
			c6.48-2.87,24.36,3.81,24.77,3.46C743.05,354.36,785.25,345.84,788.18,347.11z"/>
	</g>
	<g>
		<path fill="#D5735B" d="M719.02,370.19c0,0,0.09,0.14,0.26,0.36c0.03-1.56,0.45-3.33,0.7-4.15l-1.24-0.39
			c-0.12,0.38-0.74,2.46-0.76,4.51C718.59,370.37,719.02,370.19,719.02,370.19z"/>
		<path fill="#D5735B" d="M725.57,369.47l-1.23-0.41c-0.35,1.06-0.11,2.29,0.27,3.32c0.58-0.11,0.98-0.22,0.98-0.22
			s0.23,0.34,0.69,0.79C725.77,371.94,725.24,370.47,725.57,369.47z"/>
	</g>
	<path fill="#D5735B" d="M756.24,351.9l19.34-3.72c0.03-0.43,0.05-0.88,0.08-1.34l-25.57,4.92L756.24,351.9z"/>
	<path fill="#D5735B" d="M733.57,369.8l-0.47,1.22l3.03,1.17c0.07-0.5-0.05-0.86-0.05-0.86s0.63,0.04,1.56,0.04L733.57,369.8z"/>
	<path fill="#FFA782" d="M708.21,327.48c6.15-1.47,3.43,5.31,3.43,5.31s2.38,1.33,1.96,3.92c-0.42,2.59-3.14,2.83-3.14,2.83
		s3.87,1.01,3.19,3.25s-3.06,2.65-3.06,2.65s3.85,1.47,1.89,4.41c-1.96,2.94-5.04,3.29-6.01,1.4c-0.98-1.89,0.7-5.11,0.7-5.11
		s-3.85-0.77-4.13-2.9s3.15-3.93,3.15-3.93s-2.66-0.51-2.17-3.31c0.49-2.8,2.45-3.29,2.45-3.29s-1.02-0.64-0.91-2.65
		C705.64,328.61,708.21,327.48,708.21,327.48z"/>
	<g>
		<path fill="#D5735B" d="M710.42,346.27c0.41-0.08,0.83-0.16,1.23-0.24c-0.55-0.39-1.06-0.58-1.06-0.58s0.98-0.18,1.87-0.9
			c-0.58,0.11-1.33,0.25-2.28,0.44c-1.23,0.24-2.75,0.53-4.23,0.81c0.69,0.24,1.22,0.35,1.22,0.35s-0.17,0.32-0.36,0.81
			C707.84,346.77,709.03,346.54,710.42,346.27z"/>
		<path fill="#D5735B" d="M705.99,332.19c0.23,0.39,0.48,0.54,0.48,0.54s-0.77,0.19-1.46,1.02c2.01-0.52,4.65-1.04,6.64-0.97
			c0.04-0.1,0.23-0.6,0.39-1.27C710.18,331.38,707.93,331.74,705.99,332.19z"/>
		<path fill="#D5735B" d="M704.8,338.62c0.63,0.56,1.39,0.71,1.39,0.71s-0.34,0.18-0.8,0.49c1.69-0.28,3.78-0.38,5.66-0.39
			c0.56-0.16,1.39-0.51,1.96-1.29C710.08,338.09,707.08,338.17,704.8,338.62z"/>
	</g>
	<path fill="#FF7D6C" d="M813.39,191.71c2.13-3.42,11.85,0.71,11.85,0.71s9.15-7.16,12.77-4.2c3.62,2.97-2.57,13.99-12.31,15.17
		C815.96,204.57,811.24,195.15,813.39,191.71z"/>
	<path fill="#A50850" d="M881.24,262.09c-9.03,33.18-26.13,95.88-27,98.76c-0.22,0.17-0.75,0.39-1.54,0.65
		c0.53,0.27,0.83,0.39,0.83,0.39l-0.03,0.7c1.71-0.61,1.84-0.94,1.93-1.19c0.46-1.23,25.98-94.97,27.07-98.96L881.24,262.09z"/>
	<path fill="#D5735B" d="M425.06,347.61v0.94l-0.07,0.48c0.38,0.05,4.09,0.95,9.04,2.16l6.55,0.14
		C432.28,349.28,425.4,347.61,425.06,347.61z"/>
	<path fill="#F49473" d="M464.54,340.45c0,0,23.35-4.73,26.42-2.63c3.06,2.09,13.1,11.43,13.1,11.43l-24.23,0.64l-18.64-1.28
		L464.54,340.45z"/>
	<g>
		<path fill="#A50850" d="M811.49,337.39c-2.06-7.48,1.68-67.23,1.84-69.77l1.3,0.08c-0.04,0.62-3.89,62.07-1.89,69.34
			L811.49,337.39z"/>
	</g>
	<path fill="#513936" d="M813.87,191.52c1.37-1.62,5.59,2.26,11.35,1.58c5.73-0.68,9.97-5.63,12.14-4.78
		c2.18,0.85-0.94,11.81-11.8,12.69C814.68,201.9,812.18,193.52,813.87,191.52z"/>
	<path fill="#F4EEED" d="M827.21,196.02c3.83-0.47,7.66-3.08,8.01-4.03c0.22-0.58,0.24-2.24,0.23-3.42
		c-2.38,1.03-5.87,4.01-10.23,4.53c-4.04,0.48-7.32-1.28-9.39-1.82c0.05,1.07,0.39,2.98,1.99,3.83
		C820.02,196.29,823.38,196.49,827.21,196.02z"/>
	<g>
		<path fill="#A50850" d="M793.79,329.51l0.56-1.18c-1.47-0.7-3.17-1.44-4.54-1.85c-0.21,0.63-0.37,1.04-0.48,1.21
			C790.5,328.07,792.26,328.79,793.79,329.51z"/>
		<path fill="#A50850" d="M791.21,331.33l0.74-1.07c-1.19-0.82-2.33-1.75-2.99-2.42c-0.32,0.05-0.82,0.14-1.47,0.26
			C788.09,328.96,789.34,330.04,791.21,331.33z"/>
	</g>
	<path fill="#A50850" d="M860.47,217.09c-0.02-0.05-0.04-0.12-0.06-0.21c-4.87,6.4-16.03,21.52-22.64,34.12
		c-0.87,2.73-1.63,5.41-2.23,7.92c5.18-13.47,21.09-34.92,25.84-41.17C860.83,217.42,860.5,217.19,860.47,217.09z"/>
	<path fill="#A50850" d="M824.63,258.37c-0.87-8.78-1.94-21.88-1.33-28.39c-0.13,0.04-0.62,0.22-1.35,0.52
		c-0.64,8.78,1.22,26.93,2.01,33.97c0.36-2.66,0.61-4.76,0.64-5.58C824.61,258.79,824.62,258.61,824.63,258.37z"/>
	<path fill="#D5735B" d="M713.64,362.66c1.17-1.32,1.93-2.23,1.93-2.23s-0.65,1.8-1.15,3.86c0.59-1.69,2.17-5.59,4.54-7.02
		l-0.67-1.11C716.04,357.51,714.48,360.58,713.64,362.66z"/>
	<path fill="#F2C291" d="M399.15,345.28c0.31,0.14,26.85,6.97,28.02,6.49c1.17-0.48,2.22-2,2.22-2s-2.54-1.44-0.73-7.13
		c3.02-9.53,6.43-11.75,6.43-11.75l-12.36-3.9l-17.35,13.92c0,0-2.28,3.35-2.47,3.28C402.73,344.12,399.15,345.28,399.15,345.28z"/>
	<g>
		<path fill="#D5735B" d="M468.77,350.13c-1.86-2.51-1.68-4.64-1.67-4.73l1.42,0.13c-0.01,0.07-0.12,1.71,1.4,3.75L468.77,350.13z"
			/>
	</g>
	<g>
		<path fill="#D5735B" d="M485.56,349.16c0-0.04-0.38-3.88-3.74-5.56l0.64-1.27c4.09,2.05,4.51,6.52,4.52,6.71L485.56,349.16
			l0.71-0.06L485.56,349.16z"/>
	</g>
	<g>
		<path fill="#D5735B" d="M492.04,348.71c-0.34-0.53-3.13-3.8-3.88-4.31c-0.48,0.08-1.98,0.72-3.17,1.32l-0.64-1.27
			c1.47-0.74,3.37-1.6,4.1-1.46c1.12,0.2,4.76,4.9,4.79,4.95L492.04,348.71z"/>
	</g>
	<path fill="#7A5747" d="M393.26,128.33c-0.36-0.76-1.48-0.1-1.12,0.66c0.57,1.18,0.31,2.91-0.62,3.85
		c-1.01,1.03-2.77,1.22-4.14,1.31c-0.75,0.05-1.5,0.04-2.24,0.12c-0.38,0.04-0.74,0.17-0.95,0.51c-0.2,0.35-0.1,0.73-0.1,1.1
		c0.01,0.57-0.16,1.1-0.65,1.39c0.38,0.27,0.72,0.55,1.04,0.85c0.38-0.32,0.65-0.75,0.79-1.24c0.07-0.26,0.11-0.54,0.12-0.81
		c0.01-0.15-0.03-0.36-0.04-0.54c0.15-0.01,0.39,0,0.48,0c0.29-0.01,0.59-0.03,0.88-0.04c0.59-0.03,1.17-0.07,1.75-0.15
		c1.14-0.15,2.33-0.42,3.3-1.05C393.67,133.06,394.21,130.31,393.26,128.33z"/>
	<path fill="#936B5A" d="M384.33,120.59c-0.68-0.01-1.33,0.13-2,0.22c-0.56,0.08-0.58-0.27-0.7-0.73c-0.13-0.53-0.31-1.04-0.76-1.4
		c-0.52-0.42-1.19-0.54-1.83-0.6c-1.55-0.17-3.15,0.23-4.48,1.04c-0.71,0.43-0.06,1.56,0.66,1.12c1.01-0.62,2.17-0.93,3.35-0.89
		c0.45,0.01,1.07,0.03,1.45,0.31c0.32,0.23,0.33,0.72,0.43,1.07c0.13,0.46,0.35,0.91,0.77,1.18c0.55,0.34,1.17,0.23,1.77,0.11
		c1.1-0.21,2.24-0.14,3.3,0.23c0.89,0.31,2.45,1.2,2.29,2.36c-0.05,0.35,0.08,0.7,0.45,0.8c0.3,0.08,0.75-0.1,0.8-0.45
		C390.23,122.05,386.68,120.62,384.33,120.59z"/>
	<path fill="#936B5A" d="M365.71,124.41c-2.91-1.17-6.41-0.56-8.77,1.5c-0.69,0.6-1.26,1.31-1.79,2.05
		c-0.5,0.71-0.97,1.45-1.25,2.28c-0.29,0.85-0.29,1.73-0.02,2.59c0.12,0.39,0.28,0.77,0.39,1.16c0.06,0.22,0.23,0.68,0.01,0.85
		c-0.13,0.1-0.34,0.11-0.5,0.15c-0.29,0.06-0.57,0.1-0.86,0.14c-0.48,0.07-0.98,0.07-1.44,0.23c-0.93,0.32-1.31,1.15-1.55,2.03
		c-0.23,0.81,1.03,1.15,1.26,0.35c0.08-0.29,0.15-0.61,0.33-0.86c0.19-0.28,0.51-0.33,0.83-0.37c0.82-0.11,1.74-0.12,2.5-0.48
		c1.72-0.84,0.29-2.9,0.14-4.17c-0.09-0.81,0.26-1.59,0.66-2.27c0.41-0.69,0.88-1.35,1.41-1.94c0.99-1.11,2.23-1.9,3.68-2.27
		c1.54-0.4,3.16-0.29,4.63,0.31c0.33,0.13,0.72-0.14,0.8-0.45C366.27,124.84,366.04,124.55,365.71,124.41z"/>
	<path fill="#936B5A" d="M340.97,128.01c-0.09-0.32-0.47-0.58-0.8-0.45c-1.28,0.47-2.44,1.21-3.38,2.2
		c-0.96,1.02-1.94,2.43-1.81,3.9c0.03,0.35,0.28,0.65,0.65,0.65c0.33,0,0.68-0.3,0.65-0.65c-0.1-1.15,0.73-2.25,1.49-3.04
		c0.77-0.79,1.71-1.42,2.75-1.8C340.85,128.69,341.07,128.37,340.97,128.01z"/>
	<path fill="#314056" d="M457.81,347.39c-1.55,0.32-29.74,20.16-29.9,20.68c-0.16,0.52,0.07,2.04,0.07,2.04l74.22,0.66
		c0,0,43.48-61.23,43.34-61.71c-0.11-0.36-12.15-5.39-12.99-5.18c-0.54,0.13-32.74,43.39-32.74,43.39L457.81,347.39z"/>
	<path fill="#59697C" d="M468.14,349.16l-4.13,16.88c0,0,34.49,0.58,34.49,0.4c0-0.19,0-17.28,0-17.28H468.14z"/>
	<path fill="#F49473" d="M470.28,342.56c0,0,6.1-1.84,11.18,0.76c5.07,2.6,4.95,9.85,2.45,9.91c-2.5,0.07-3.53-2.74-4.08-2.69
		c-0.55,0.05-9.62-0.67-10.24-1.45c-0.62-0.78-0.65-2.34-0.65-2.34L470.28,342.56z"/>
	<path fill="#293849" d="M545.24,308.87c-0.26-0.14-0.67-0.34-1.19-0.58l-42.89,59.35h-72.75c-0.31,0.24-0.49,0.39-0.5,0.43
		c-0.06,0.2-0.07,0.53-0.05,0.87h73.96L545.24,308.87z"/>
	<path fill="#FFF6EE" d="M592.17,348.35c0.11-0.32,36.26-11.04,38.2-11.36c1.95-0.32,49.35,1.66,49.46,1.97
		c0.11,0.3-12.5,20.69-12.5,20.69s-73.54-5.55-73.86-5.34C593.15,354.52,592.17,348.35,592.17,348.35z"/>
	<polygon fill="#AADFF2" points="532.6,305.15 542.28,309.43 502.26,363.58 501.17,347.87 	"/>
	<path fill="#F49473" d="M397.74,342.47l58.45,13.64c0,0-2.29,20.18-2.87,20.02c-0.58-0.16-58.98-7.37-61.64-8.88
		C389.02,365.75,395.9,343.91,397.74,342.47z"/>
	<path fill="#F49473" d="M442.61,353.65c0,0,13.06-4.18,20.08-3.86c7.02,0.31,18.26,5.05,18.11,6.69c-0.15,1.63-0.78,3.16-1.32,3.43
		c-0.54,0.26-4.94,0-4.94,0s1.66,1.53,1.61,2.85c-0.05,1.32-1.81,3.06-1.81,3.06s1.47,1.17,1.22,3.32c-0.24,2.16-2.45,2.9-2.45,2.9
		s0.98,1.21,0.2,3.37c-0.78,2.16-4.75,1.98-4.75,1.98s-19.46-1.27-27.94-2.91C432.14,372.84,442.61,353.65,442.61,353.65z"/>
	<g>
		<g>
			<path fill="#D5735B" d="M471.49,357.44c-0.09,0.42-0.18,0.83-0.27,1.25c0.71,0.22,2.15,0.74,3.4,1.28
				c-0.04-0.04-0.07-0.06-0.07-0.06s1.5,0.09,2.86,0.11C475.98,358.87,472.67,357.79,471.49,357.44z"/>
			<path fill="#D5735B" d="M469.89,365.72c0.6,0.09,3.63,0.57,5.07,0.79c-0.31-0.47-0.61-0.72-0.61-0.72s0.24-0.24,0.55-0.61
				c-1.52-0.24-4.26-0.67-4.82-0.75L469.89,365.72z"/>
		</g>
		<path fill="#D5735B" d="M476.81,361.2L476.81,361.2L476.81,361.2z"/>
	</g>
	<path fill="#D5735B" d="M473.43,372.63c-0.14-0.39-0.31-0.6-0.31-0.6s0.5-0.17,1.05-0.58l-4.23-0.81l-0.24,1.28L473.43,372.63z"/>
	<path opacity="0.19" fill="#7F5132" d="M645.22,364.06c-0.3-1.35-22.23-3.17-22.23-3.17l-87.73,5.98c0,0-14.4,5.71-13.9,6.59
		c0.43,0.75,87.33,13.52,87.33,13.52C615.37,383.61,645.49,365.28,645.22,364.06z"/>
	<g>
		<path fill="#5A7CB9" d="M639.3,359.91l-0.32-3.3c0,0,2.39-0.91,2.39-1.27c0-0.36-0.3-1.66-0.3-1.66s-64.96-11.7-70.55-11.97
			c-5.59-0.27-43.25,10.03-45.94,13.76c-0.75,1.05-0.89,15.91,1.13,17.27c2.02,1.36,78.44,11.88,82.08,11.54
			c3.64-0.34,33.87-21.52,33.93-21.87c0.07-0.36,0.01-2.01,0.01-2.01L639.3,359.91z"/>
		<path fill="#EBF2FF" d="M608.37,370.44c-0.41,1.46,0.13,9.8,0.66,9.62s30.63-18.96,30.63-18.96l-0.32-4.63
			C639.35,356.47,608.78,368.98,608.37,370.44z"/>
		<path fill="#3D68A5" d="M639.59,353.38c-1.29,0.51-3.02,1.19-5.33,2.12c-9.42,3.74-26.95,10.71-28.47,10.84
			c-1.16-0.01-24.03-3.15-44.21-5.91c-17.72-2.43-30.57-4.18-36.95-5.01c-0.02,0.02-0.04,0.04-0.05,0.06
			c-0.1,0.14-0.19,0.51-0.26,1.06c7.14,0.93,22.28,3,37.04,5.02c26.18,3.59,43.41,5.94,44.44,5.93c1.29-0.01,11.21-3.86,29.05-10.95
			c2.41-0.96,4.65-1.85,6.3-2.5c-0.04-0.2-0.08-0.35-0.08-0.35S640.54,353.58,639.59,353.38z"/>
		<path fill="#3D68A5" d="M610.41,366.03l-0.7-0.98c-2.17,1.1-4.22,2.13-5.29,4.01c-1.11,1.95,0.75,13.4,1.32,14.13
			c0.25,0.32,1.02,0.73,1.88,1.1c0.07,0,0.13,0,0.18-0.01c0.32-0.03,0.86-0.23,1.57-0.56c-1.16-0.45-2.23-0.93-2.46-1.15
			c-0.55-1.2-2.05-11.61-1.24-13.02C606.54,367.99,608.34,367.08,610.41,366.03z"/>
		<path fill="#B4BFD6" d="M539.79,362.62c0.01,0.71,0.1,7.78,0.9,8.21c0.79,0.43,42.88,6.15,42.97,5.93
			c0.09-0.22,0.6-7.56-0.11-8.41C582.84,367.5,539.78,362.02,539.79,362.62z"/>
		<path fill="#333549" d="M532.22,361.82c-1.87,0.04-3.22,1.88-3.02,4.11c0.2,2.24,1.87,4.02,3.73,3.98
			c1.87-0.04,3.22-1.88,3.02-4.11C535.75,363.56,534.08,361.78,532.22,361.82z"/>
		<path fill="#E1E8F4" d="M571.84,346.01c-0.28-0.01-23.7,5.8-23.69,6.16c0,0.36,12.45,2.25,13.23,2.14
			c0.78-0.11,24.06-6.27,23.86-6.6C585.03,347.37,573.01,346.04,571.84,346.01z"/>
	</g>
	<path fill="#333549" d="M443.7,352.64c-0.05-0.01-7.49-1.74-7.49-1.74s-4.94,1.87-6.77,9.16c-1.82,7.28,1.09,13.19,1.72,13.67
		c0.63,0.48,8.13,1.4,8.13,1.4l0.73-0.73l-1.62-0.26c-1.02-1.67-3.1-7.12-1.84-12.31c1.31-5.39,4.67-8.47,5.38-8.82
		c0.09-0.05,0.23-0.09,0.23-0.09l1.56,0.39C443.75,353.3,443.75,352.65,443.7,352.64z"/>
	<path fill="#314056" d="M493.61,274.4c-12.49-0.28-23.13-1.74-27.05-2.34c-1.14,1.45-2.54,3.28-3.82,5.1
		c3.49,1.03,14,3.61,31.39,3.54C493.93,278.59,493.75,276.5,493.61,274.4z"/>
	<path fill="#314056" d="M534.73,269.67c-6.98,1.7-14.3,3.17-21.08,3.94c-5.82,0.66-11.78,0.87-17.43,0.83
		c0.14,2.08,0.31,4.15,0.51,6.22c5.03-0.1,10.58-0.41,16.67-1.04c8.42-0.87,16.15-2.25,23.02-3.83
		C535.81,273.77,535.25,271.73,534.73,269.67z"/>
	<path fill="#314056" d="M538.96,275.19c17.1-4.18,28.37-9.45,30.79-10.64c-1.65-1.54-3.24-2.95-4.48-4.02
		c-3.86,1.37-15.14,5.24-28.01,8.52C537.78,271.11,538.34,273.16,538.96,275.19z"/>
	<path fill="#EAE0D8" d="M520.23,272.69c0,0-0.47-3.29-7.5-2.61c-8.74,0.85-9.42,15.2,1.47,14.54c7.37-0.45,7.93-6.11,7.93-6.11
		l-2.32,0.33c0,0-0.66,2.79-6.09,3.32c-6.54,0.64-6.66-8.78-0.91-9.7c4.17-0.67,5.21,0.61,5.21,0.61L520.23,272.69z"/>
	<path fill="#EAE0D8" d="M507.43,276.79c0,0,3.6-0.56,3.67-0.41c0.08,0.14,0,1.79,0,1.79l-3.67,0.19V276.79z"/>
	<path fill="#AD5544" d="M458.01,307.86l7.68-2.71l-0.51-1.72c0,0-4.45,1.52-7.1,2.38C458.06,306.48,458.03,307.17,458.01,307.86z"
		/>
	<path fill="#AD5544" d="M573.62,297.5l-0.51,1.72l9.55,3.37c-0.09-0.74-0.18-1.46-0.26-2.18C581,300.02,573.62,297.5,573.62,297.5z
		"/>
	<g>
		<path fill="#A50850" d="M858.63,357.21c-0.22,0-0.3-0.08-0.42-0.2c-0.08-0.08-0.34-0.34-1.79-3.48l1.18-0.54
			c0.49,1.06,1.07,2.27,1.38,2.84c2.43-0.68,15.58-5.33,24.71-8.61c-0.74-2.23-1.68-4.63-2.16-5.25
			c-1.74,0.06-13.06,3.91-23.11,7.61l-0.45-1.22c0.06-0.02,5.76-2.12,11.5-4.09c11.96-4.11,12.39-3.74,12.81-3.38
			c0.98,0.84,2.42,5.22,2.84,6.54l0.19,0.6l-0.59,0.21c-0.06,0.02-6.47,2.32-12.82,4.56c-3.73,1.32-6.72,2.35-8.88,3.08
			C860.07,356.88,859.07,357.21,858.63,357.21z"/>
	</g>
	<path fill="#E5AF7F" d="M308.98,377.78c-0.95-0.31-2.05-0.64-2.68-1.48c-0.25-0.33-0.43-0.75-0.4-1.17
		c0.04-0.5,0.35-0.93,0.55-1.37c0.4-0.88,0.53-2.01-0.31-2.69c-0.39-0.32-0.87-0.42-1.35-0.48c-0.59-0.07-1.19-0.09-1.79-0.09
		c-2.35,0.02-4.66,0.49-6.99,0.69c-1.18,0.1-2.38,0.14-3.56-0.01c-0.87-0.11-1.85-0.34-2.46-1.01c-0.73-0.8-0.64-2.04-0.46-3.03
		c0.22-1.23,0.67-2.4,1.31-3.48c0.43-0.72-0.69-1.38-1.12-0.66c-0.62,1.04-1.09,2.18-1.35,3.36c-0.24,1.07-0.38,2.23-0.08,3.3
		c0.66,2.32,3.21,2.82,5.31,2.89c2.5,0.09,4.96-0.43,7.44-0.66c1.2-0.11,2.44-0.18,3.64-0.03c0.36,0.04,0.76,0.1,0.81,0.52
		c0.06,0.5-0.3,0.99-0.5,1.42c-0.55,1.17-0.44,2.35,0.38,3.37c0.81,1.02,2.09,1.46,3.28,1.85
		C309.43,379.3,309.78,378.04,308.98,377.78z"/>
	<path fill="#FFE9D7" d="M332.52,233.22c-0.75-0.24-1.76-0.02-2.42-0.49c-0.29-0.21-0.37-0.57-0.4-0.91
		c-0.05-0.51-0.04-1.03-0.14-1.54c-0.19-0.92-0.77-1.77-1.48-2.36c-1.64-1.36-3.81-1.56-5.86-1.6c-1.97-0.04-3.97,0.13-5.88,0.62
		c-2.16,0.54-4.18,1.51-5.88,2.95c-0.64,0.54,0.29,1.46,0.92,0.92c2.77-2.36,6.5-3.15,10.06-3.19c1.78-0.02,3.82-0.02,5.37,0.97
		c0.66,0.42,1.23,1.05,1.45,1.81c0.24,0.84,0.04,1.75,0.42,2.57c0.44,0.95,1.41,1.23,2.37,1.33c0.46,0.05,1.78,0.05,1.81,0.74
		c0.04,0.83,1.34,0.84,1.3,0C334.1,234.09,333.38,233.49,332.52,233.22z"/>
	<g>
		<path fill="#4778B2" d="M393.42,433.12c-1.2,0.72-2.42,1.42-3.66,2.07c-0.26,0.14-0.52,0.27-0.78,0.4
			c0.12,0.27,0.2,0.73,0.26,1.33c0.14-0.07,0.28-0.14,0.42-0.21c1.5-0.77,2.97-1.6,4.42-2.47
			C394.8,433.81,394.14,432.68,393.42,433.12z"/>
		<path fill="#4778B2" d="M390.88,427.53c-0.28-0.16-0.74-0.09-0.89,0.23c-1.09,2.37-2.67,4.47-3.77,6.83
			c-0.11,0.24-0.22,0.49-0.32,0.74c0.55-0.02,1.03-0.03,1.43-0.04c0.03-0.08,0.07-0.15,0.1-0.23c0.36-0.76,0.78-1.49,1.21-2.22
			c0.86-1.46,1.77-2.89,2.48-4.43C391.26,428.1,391.2,427.71,390.88,427.53z"/>
	</g>
	<g opacity="0.18">
		<path fill="#FFC799" d="M365.13,135.63c-3.36-0.04-6.69-0.24-7.73-0.82c-2.33-1.31-0.36-5.34-1.88-6.31
			c-1.52-0.97-8.18,3.35-12.56,2.51c-3.69-0.71-1.68-6.82-0.95-8.72c-0.24,0.02-0.48,0.06-0.75,0.14c-2.69,0.77-2.18,2.44-2.18,2.44
			s-5.39,1.91-6.93,7.4c-0.18,0.65-0.3,1.25-0.37,1.82c0.89,1.2,2.19,2.4,4.06,3.38c6.23,3.26,13.79-1.44,14.3-1.45
			c0.5-0.01-0.62,4.62,3.14,6.39c0.93,0.44,3.38,0.68,6.65,0.74C360.84,140.04,361.81,137.06,365.13,135.63z"/>
		<path fill="#FFC799" d="M395.47,135.92c-0.71-0.11-1.37-0.1-1.37-0.1s3.72-6.99,0.13-12.12c-1.01-1.44-1.98-2.43-2.85-3.11
			c1.66,1.59,0.58,7.4-1.51,9.77c-1.91,2.17-6.42,4.15-11.42,4.72c2.95,0.77,5.44,2.11,6.8,3.89c0.34,0.45,0.67,1,0.99,1.61
			c2.83-0.68,5.16-1.49,6.59-2.45C393.84,137.45,394.71,136.71,395.47,135.92z"/>
	</g>
	<path fill="#A50850" d="M785.82,342.15c0.02,0.44,0.04,0.88,0.04,1.32c0.42-0.09,0.85-0.16,1.28-0.22
		c-0.03-1.78-0.21-3.56-0.52-5.32c-0.28-1.57-0.65-3.13-1.09-4.66c-0.4-1.39-0.82-2.77-1.41-4.09c-0.06-0.13-0.12-0.26-0.19-0.4
		c-0.42,0.08-0.85,0.17-1.3,0.26c0.72,1.34,1.15,2.89,1.56,4.27C785.04,336.2,785.65,339.15,785.82,342.15z"/>
	<path fill="#EAE0D8" d="M438.92,361.98c-0.16,3.48-3.02,6.29-6.38,6.29c-3.36,0-5.96-2.82-5.8-6.29c0.16-3.48,3.02-6.29,6.38-6.29
		C436.49,355.69,439.09,358.5,438.92,361.98z"/>
	
		<ellipse transform="matrix(0.4762 -0.8793 0.8793 0.4762 -91.4773 569.7333)" fill="#F4EDE9" cx="432.51" cy="361.65" rx="5.13" ry="4.84"/>
	<path fill="#FFA38A" d="M465.51,362.81c-0.03-0.48-0.29-0.87-0.65-1.17c-0.27-0.23-0.67-0.4-0.89-0.69
		c-0.44-0.57,1.13-1.7,1.48-2.05c0.74-0.72,1.34-1.59,1.33-2.67c0-1.16-0.64-2.29-1.67-2.84c-0.74-0.4-1.39,0.72-0.66,1.12
		c0.86,0.47,1.3,1.6,0.84,2.51c-0.54,1.06-1.72,1.64-2.36,2.64c-0.36,0.56-0.5,1.27-0.14,1.87c0.26,0.44,0.7,0.69,1.09,0.99
		c0.11,0.08,0.26,0.18,0.31,0.31c0.07,0.21-0.17,0.5-0.29,0.66c-0.44,0.63-0.92,1.25-1.38,1.87c-0.14,0.19-0.1,0.46,0,0.66
		c0.23,0.44,0.61,0.72,0.96,1.06c0.34,0.33,0.36,0.71,0.22,1.16c-0.31,1.03-1.11,2-1.8,2.8c-0.55,0.63,0.37,1.55,0.92,0.92
		c0.86-1,1.84-2.2,2.17-3.5c0.15-0.61,0.13-1.27-0.2-1.81c-0.23-0.38-0.63-0.63-0.92-0.95c0.32-0.44,0.65-0.87,0.97-1.31
		C465.21,363.92,465.55,363.41,465.51,362.81z"/>
	<path fill="#334659" d="M717.15,377.47l0.24-0.92c0,0-0.1-0.14-0.28-0.39l-66.05,1.43l-2.1-17.25c-0.42,0-0.64,0.01-0.64,0.01
		l-0.14,2.02l0.69,8.01l1.04,8.54L717.15,377.47z"/>
	<g>
		<path fill="#FFF6EE" d="M576.11,308.48c0.07,0.21,1.3,30.63,2.35,32.25c0.89,1.37,3.99,2.76,11.83,2.76
			c7.14,0,11.3-1.31,11.87-2.41c0.7-1.33,1.9-32.6,1.9-32.6H576.11z"/>
		<path fill="#314056" d="M604.92,308.2c0,1.5-6.64,2.71-14.83,2.71c-8.19,0-14.83-1.21-14.83-2.71c0-0.14-0.11-2.29,0-2.42
			c1.08-1.3,7.4-0.29,14.83-0.29c7.54,0,13.89-1.05,14.83,0.29C605,305.89,604.92,308.08,604.92,308.2z"/>
		<ellipse fill="#314056" cx="590.09" cy="305.77" rx="14.83" ry="2.71"/>
		<path fill="#314056" d="M601.22,304.24c0,1.08-5.04,1.96-11.27,1.96c-6.22,0-11.27-0.88-11.27-1.96c0-1.08,5.04-1.96,11.27-1.96
			C596.17,302.28,601.22,303.16,601.22,304.24z"/>
		<ellipse fill="#202933" cx="593.47" cy="303.91" rx="4.12" ry="0.76"/>
		<path fill="#41546B" d="M590.31,308.18c8.98,0,12.92-0.97,14.64-1.77c0-0.34-0.01-0.6-0.04-0.63c0-0.24-0.17-0.47-0.49-0.69
			c-1.22,0.59-4.73,1.67-14.11,1.67c-9.63,0-13.23-1.13-14.47-1.73c-0.38,0.24-0.59,0.49-0.59,0.76c-0.03,0.04-0.05,0.25-0.05,0.54
			C576.86,307.12,580.84,308.18,590.31,308.18z"/>
		<path fill="#FFD1AB" d="M576.38,313.79c0,0,2.89,2.19,14.31,2.19s13.37-2.19,13.37-2.19l-1.24,20.57c0,0-1.69,2.8-12.74,2.8
			s-12.45-2.44-12.45-2.44L576.38,313.79z"/>
	</g>
	<path fill="#FFFFFF" d="M709.29,322.64c-0.01,0.33-0.03,0.81-0.05,1.41c1.77,0.75,5.94,1.93,14.59,1.93
		c8.02,0,12.47-1.21,14.67-2.1c-0.03-0.59-0.06-1.06-0.09-1.38c-1.83,0.81-6.16,2.18-14.57,2.18
		C714.24,324.67,710.41,323.2,709.29,322.64z"/>
	<path fill="#FFFFFF" d="M733.78,330.97c-0.13-1.87-3.06-1.88-2.93,0c0.14,1.89,0.18,3.77,0.12,5.66c-0.05,1.89,2.88,1.88,2.93,0
		C733.96,334.74,733.92,332.85,733.78,330.97z"/>
	<path fill="#FFFFFF" d="M734.13,342.75c-0.02-0.16-0.05-0.33-0.07-0.49c-0.05-0.19-0.13-0.36-0.26-0.5
		c-0.1-0.16-0.24-0.29-0.41-0.38c-0.17-0.11-0.35-0.16-0.54-0.17c-0.19-0.04-0.39-0.03-0.58,0.03c-0.35,0.11-0.7,0.33-0.88,0.67
		c-0.05,0.12-0.1,0.23-0.15,0.35c-0.07,0.26-0.07,0.52,0,0.78c0.02,0.16,0.05,0.33,0.07,0.49c0.05,0.19,0.13,0.36,0.26,0.5
		c0.1,0.16,0.24,0.29,0.41,0.38c0.17,0.11,0.35,0.16,0.54,0.17c0.19,0.04,0.39,0.03,0.58-0.03c0.35-0.11,0.7-0.33,0.88-0.67
		c0.05-0.12,0.1-0.23,0.15-0.35C734.2,343.27,734.2,343.01,734.13,342.75z"/>
	<path fill="#A50850" d="M802.76,370.02c0.45-0.05,0.9-0.11,1.37-0.16c0.18-0.83,0.29-1.67,0.37-2.51c0.21-2.43,0.08-4.88-0.12-7.31
		c-0.37-4.51-0.92-9.1-2.68-13.3c-0.88-2.1-2.05-4.07-3.56-5.78c-0.43,0.11-0.85,0.21-1.27,0.32c0.01,0.13,0.06,0.27,0.17,0.39
		c2.77,3.05,4.27,7,5.08,10.99c0.45,2.18,0.7,4.39,0.89,6.6c0.2,2.29,0.37,4.59,0.27,6.89
		C803.21,367.44,803.08,368.76,802.76,370.02z"/>
	<path fill="#FFB399" d="M809.37,176.82c-0.11,0-0.22-0.01-0.32-0.02c-0.1-0.02-0.21-0.04-0.31-0.07c-0.65-0.19-1.45,0.23-1.6,0.91
		c-0.16,0.7,0.21,1.4,0.91,1.6c0.42,0.12,0.88,0.18,1.32,0.18c0.68-0.01,1.33-0.59,1.3-1.3
		C810.64,177.43,810.1,176.81,809.37,176.82z"/>
	<path fill="#FFB399" d="M839.79,177.79c-0.22-0.68-0.89-1.09-1.6-0.91c-0.12,0.03-0.24,0.06-0.36,0.08
		c-0.05,0.01-0.1,0.02-0.15,0.02c-0.01,0-0.03,0-0.05,0c-0.27,0-0.53,0.03-0.79,0.01c-0.68-0.03-1.33,0.62-1.3,1.3
		c0.03,0.73,0.57,1.27,1.3,1.3c0.68,0.03,1.38-0.05,2.04-0.22C839.54,179.23,840,178.45,839.79,177.79z"/>
	<path fill="#FFB399" d="M822.79,176.64c-1.16-0.16-2.28-0.22-3.45-0.1c-0.7,0.07-1.3,0.55-1.3,1.3c0,0.65,0.6,1.38,1.3,1.3
		c0.91-0.1,1.85-0.12,2.76,0.01c0.7,0.1,1.4-0.17,1.6-0.91C823.87,177.64,823.49,176.74,822.79,176.64z"/>
	<path fill="#A50850" d="M880.04,235.72c-1.86-3.12-5.22-5.17-8.77-5.74c-4.2-0.67-8.46,0.48-12.1,2.58
		c-2.01,1.16-3.84,2.59-5.55,4.15c-0.62,0.57,0.3,1.48,0.92,0.92c2.81-2.57,6.04-4.8,9.73-5.88c3.52-1.02,7.4-0.96,10.66,0.84
		c1.63,0.9,3.03,2.18,3.99,3.79C879.35,237.09,880.47,236.44,880.04,235.72z"/>
	<path fill="#A50850" d="M873.03,250.81c-0.32-0.14-0.7-0.09-0.89,0.23c-0.16,0.28-0.09,0.75,0.23,0.89
		c0.63,0.28,1.26,0.59,1.85,0.96c0.37,0.23,0.98,0.68,0.82,1.2c-0.12,0.39-0.67,0.52-1.01,0.6c-0.62,0.13-1.28,0.13-1.91,0.14
		c-1.33,0.03-2.76,0-4.02,0.51c-0.58,0.24-1.09,0.71-1.06,1.39c0.03,0.66,0.53,1.14,1.03,1.49c0.63,0.45,1.32,0.78,2.02,1.12
		c0.24,0.11,0.55,0.24,0.69,0.47c0.04,0.07,0.13,0.28,0.04,0.34c-0.71,0.44-0.06,1.56,0.66,1.12c0.56-0.34,0.78-0.98,0.63-1.61
		c-0.15-0.65-0.68-1.1-1.25-1.39c-0.68-0.35-1.37-0.66-2.01-1.09c-0.12-0.08-0.55-0.34-0.51-0.52c0.02-0.1,0.58-0.23,0.68-0.26
		c1.46-0.4,3.01-0.2,4.5-0.35c1.2-0.11,2.72-0.53,2.84-1.97C876.5,252.31,874.35,251.4,873.03,250.81z"/>
	<path fill="#FFB399" d="M733.78,362.69c-0.65-1.79-2.39-2.43-4.14-2.55c0-0.83-0.37-1.64-0.95-2.26c-0.86-0.92-2.12-1.26-3.33-1.37
		c-0.3-0.03-0.6-0.04-0.9-0.04c-0.11,0-0.22,0-0.33-0.01c0.02-0.05,0.04-0.11,0.05-0.14c0.05-0.13,0.09-0.27,0.11-0.4
		c0.07-0.34,0.08-0.69,0-1.03c-0.3-1.17-1.62-1.72-2.64-2.08c-1.34-0.47-2.79-0.55-4.09,0.08c-0.75,0.37-0.09,1.49,0.66,1.12
		c1.19-0.58,2.62-0.21,3.75,0.33c0.47,0.22,1.11,0.51,1.08,1.13c-0.04,0.64-0.56,1.2-0.05,1.8c0.4,0.48,1.02,0.49,1.6,0.5
		c0.68,0.02,1.35,0.08,2,0.3c1.03,0.35,2.03,1.37,1.67,2.53c-0.12,0.4,0.21,0.83,0.63,0.82c1.3-0.02,3.11,0.17,3.63,1.61
		C732.81,363.82,734.07,363.48,733.78,362.69z"/>
	<path fill="#FF9B80" d="M375.59,174.49c-0.95-0.31-2-0.31-2.94,0.03c-0.58,0.21-0.97,0.77-0.8,1.4c0.15,0.56,0.82,1.01,1.4,0.8
		c0.6-0.22,1.13-0.23,1.73-0.03c0.58,0.19,1.24-0.22,1.4-0.8C376.56,175.27,376.18,174.68,375.59,174.49z"/>
	<path fill="#FF9B80" d="M355.51,171.39c-0.32,0.01-0.64,0.01-0.96-0.01c-0.6-0.04-1.17,0.56-1.14,1.14
		c0.03,0.65,0.5,1.09,1.14,1.14c0.32,0.02,0.64,0.03,0.96,0.01c0.59-0.03,1.17-0.5,1.14-1.14
		C356.62,171.94,356.15,171.36,355.51,171.39z"/>
	<path fill="#FF9B80" d="M383.53,171.33c-0.52-0.02-1.03,0.03-1.54,0.11c-0.26,0.04-0.55,0.31-0.68,0.52
		c-0.14,0.24-0.2,0.6-0.11,0.88c0.21,0.65,0.77,0.89,1.4,0.8c-0.28,0.04,0.04,0,0.08-0.01c0.1-0.01,0.19-0.02,0.29-0.02
		c0.19-0.01,0.38-0.01,0.57,0c0.6,0.02,1.17-0.54,1.14-1.14C384.64,171.83,384.17,171.35,383.53,171.33z"/>
	<path fill="#FFFFFF" d="M511.25,271.63c-0.05-0.16-0.15-0.31-0.3-0.39c-0.15-0.08-0.34-0.13-0.5-0.07
		c-0.66,0.24-1.27,0.62-1.76,1.13c-0.12,0.12-0.19,0.29-0.19,0.46c0,0.16,0.07,0.35,0.19,0.46c0.12,0.11,0.29,0.2,0.46,0.19
		c0.17-0.01,0.34-0.06,0.46-0.19c0.12-0.12,0.25-0.23,0.38-0.34c0.23-0.17,0.47-0.31,0.73-0.42c0.02-0.01,0.05-0.02,0.07-0.03
		c0.16-0.06,0.3-0.15,0.39-0.3C511.26,271.99,511.3,271.78,511.25,271.63z"/>
	<path fill="#FFFFFF" d="M508.65,274.56c-0.02-0.08-0.06-0.16-0.12-0.22c-0.05-0.07-0.11-0.13-0.18-0.17
		c-0.05-0.02-0.1-0.04-0.16-0.07c-0.12-0.03-0.23-0.03-0.35,0l-0.16,0.07c-0.1,0.06-0.18,0.14-0.23,0.23
		c-0.03,0.05-0.05,0.09-0.08,0.14c-0.05,0.07-0.07,0.16-0.08,0.24c-0.02,0.09-0.02,0.17,0.01,0.26c0.02,0.08,0.06,0.16,0.12,0.22
		c0.05,0.07,0.11,0.13,0.18,0.17l0.16,0.07c0.12,0.03,0.23,0.03,0.35,0c0.05-0.02,0.1-0.04,0.16-0.07c0.1-0.06,0.18-0.14,0.23-0.23
		c0.03-0.05,0.05-0.09,0.08-0.14c0.05-0.07,0.07-0.16,0.08-0.24C508.68,274.73,508.68,274.64,508.65,274.56z"/>
	<path fill="#FFFFFF" d="M679,261.24c-0.38,0.02-0.62,0.29-0.65,0.65c-0.08,0.93-0.12,1.87-0.11,2.81c0,0.34,0.3,0.67,0.65,0.65
		c0.35-0.02,0.65-0.29,0.65-0.65c-0.01-0.94,0.03-1.87,0.11-2.81C679.68,261.55,679.33,261.23,679,261.24z"/>
	<path fill="#FFFFFF" d="M684.9,259.87c-0.03-0.11-0.09-0.21-0.17-0.29c-0.04-0.03-0.09-0.07-0.13-0.1
		c-0.1-0.06-0.21-0.09-0.33-0.09c-0.2,0.01-0.4,0.03-0.6,0.04c-0.09,0-0.17,0.02-0.25,0.06c-0.08,0.03-0.15,0.07-0.21,0.13
		c-0.06,0.06-0.11,0.13-0.13,0.21c-0.04,0.08-0.06,0.16-0.06,0.25c0.01,0.06,0.02,0.12,0.02,0.17c0.03,0.11,0.09,0.21,0.17,0.29
		c0.04,0.03,0.09,0.07,0.13,0.1c0.1,0.06,0.21,0.09,0.33,0.09c0.2-0.01,0.4-0.03,0.6-0.04c0.09,0,0.17-0.02,0.25-0.06
		c0.08-0.03,0.15-0.07,0.21-0.13c0.06-0.06,0.11-0.13,0.13-0.21c0.04-0.08,0.06-0.16,0.06-0.25
		C684.92,259.98,684.91,259.92,684.9,259.87z"/>
</g>
</svg>
