<?xml version="1.0" encoding="UTF-8"?>
<svg id="Layer_1" data-name="Layer 1" xmlns="http://www.w3.org/2000/svg" version="1.1" viewBox="0 0 1200 450">
  <defs>
    <style>
      .cls-1 {
        fill: #5b8d68;
      }

      .cls-1, .cls-2, .cls-3, .cls-4, .cls-5, .cls-6, .cls-7, .cls-8, .cls-9, .cls-10, .cls-11, .cls-12, .cls-13, .cls-14, .cls-15, .cls-16, .cls-17, .cls-18, .cls-19, .cls-20, .cls-21, .cls-22, .cls-23, .cls-24, .cls-25, .cls-26, .cls-27, .cls-28, .cls-29, .cls-30, .cls-31, .cls-32, .cls-33, .cls-34, .cls-35, .cls-36, .cls-37, .cls-38, .cls-39, .cls-40, .cls-41, .cls-42, .cls-43, .cls-44, .cls-45, .cls-46, .cls-47, .cls-48, .cls-49, .cls-50, .cls-51, .cls-52, .cls-53, .cls-54, .cls-55, .cls-56, .cls-57, .cls-58, .cls-59 {
        stroke-width: 0px;
      }

      .cls-2 {
        fill: #545454;
      }

      .cls-3 {
        fill: #778a98;
      }

      .cls-4 {
        fill: #507c5a;
      }

      .cls-5, .cls-21 {
        fill: #e6fffa;
      }

      .cls-5, .cls-50 {
        opacity: .7;
      }

      .cls-6 {
        fill: #ffc88d;
      }

      .cls-7 {
        fill: #000;
        opacity: 0;
      }

      .cls-8 {
        fill: #e2e8e7;
      }

      .cls-9 {
        fill: #565656;
      }

      .cls-10 {
        fill: #282828;
      }

      .cls-11 {
        fill: #cfe8e3;
      }

      .cls-12 {
        fill: #424242;
      }

      .cls-13 {
        fill: #ffac9c;
      }

      .cls-14 {
        opacity: .6;
      }

      .cls-14, .cls-31 {
        fill: #dae5d6;
      }

      .cls-15 {
        fill: #f8fffb;
      }

      .cls-16 {
        fill: #e59339;
      }

      .cls-17 {
        fill: #59635b;
      }

      .cls-18 {
        fill: #e8efee;
      }

      .cls-19, .cls-50 {
        fill: #9ebdb7;
      }

      .cls-20 {
        fill: #f3fffd;
      }

      .cls-22 {
        fill: #809b96;
      }

      .cls-23 {
        fill: #e89234;
      }

      .cls-24 {
        fill: #c9ab8b;
      }

      .cls-25 {
        fill: #d8ba9e;
      }

      .cls-26 {
        fill: #444;
      }

      .cls-27 {
        fill: #db3931;
      }

      .cls-28 {
        fill: #8c3937;
      }

      .cls-29 {
        fill: #ec685d;
      }

      .cls-30 {
        fill: #ef4b3a;
      }

      .cls-32 {
        fill: #f5a33d;
      }

      .cls-33 {
        fill: #df472f;
      }

      .cls-34 {
        fill: #383838;
      }

      .cls-35 {
        fill: #c14f4c;
      }

      .cls-36 {
        fill: #ff756e;
      }

      .cls-37 {
        fill: #2d2d2d;
      }

      .cls-38 {
        fill: #cad8d5;
      }

      .cls-39 {
        fill: #3a3a3a;
      }

      .cls-40 {
        fill: #81aeb5;
      }

      .cls-41 {
        fill: #333;
      }

      .cls-42 {
        fill: #a74640;
      }

      .cls-43 {
        fill: #8c3a38;
      }

      .cls-44 {
        fill: #4d7757;
      }

      .cls-45 {
        fill: #517a5a;
      }

      .cls-46, .cls-49 {
        fill: #fff;
      }

      .cls-47 {
        fill: #ea3d39;
      }

      .cls-48 {
        fill: #ffaa4d;
      }

      .cls-49 {
        opacity: .3;
      }

      .cls-51 {
        fill: #8db2ab;
      }

      .cls-52 {
        fill: #c8cec4;
      }

      .cls-53 {
        fill: #d7ddd3;
      }

      .cls-54 {
        fill: #bf2c28;
      }

      .cls-55 {
        fill: #ffc3bb;
      }

      .cls-56 {
        fill: #a34040;
      }

      .cls-57 {
        fill: #494949;
      }

      .cls-58 {
        fill: #90a3af;
      }

      .cls-59 {
        fill: #c94e4b;
      }
    </style>
  </defs>
  <polygon class="cls-32" points="321.7 189.1 321.7 186.7 323.8 186.5 323.7 172.9 321.7 172.8 321.7 170.7 413.5 167 412.1 189.9 321.7 189.1"/>
  <path class="cls-23" d="M376.4,168.5s4.9.7,5.4,1.4c.4.7.6,15.7,0,16.1s-3.5,1.7-3.5,1.7h25l-2.9-20.3-23.6.9h-.3Z"/>
  <polygon class="cls-1" points="306.1 210.1 306.1 205.2 309.2 204.9 309.3 190.3 306.1 190.1 306.1 188.4 410.1 187 410.1 210.1 306.1 210.1"/>
  <g>
    <path class="cls-58" d="M796,444.9v-124.2c0-2.5-2-4.4-4.4-4.4h-70.4c-2.5,0-4.4,2-4.4,4.4v124.2h79.3Z"/>
    <path class="cls-3" d="M722.4,316.3h-1.2c-2.5,0-4.4,2-4.4,4.4v124.2h5.7v-128.6Z"/>
    <rect class="cls-3" x="775.9" y="316.3" width="15.2" height="128.6"/>
    <rect class="cls-50" x="728.7" y="316.3" width="38.4" height="128.6"/>
    <rect class="cls-5" x="737.9" y="316.3" width="19.4" height="128.6"/>
    <rect class="cls-34" x="716.7" y="334.8" width="79.3" height="6.6"/>
    <rect class="cls-34" x="716.7" y="438.2" width="79.3" height="6.7"/>
    <path class="cls-34" d="M727.9,433.3v6.6h40.9v-6.6c0-1.9-1.5-3.4-3.4-3.4h-34.1c-1.9,0-3.4,1.5-3.4,3.4Z"/>
  </g>
  <path class="cls-45" d="M366.7,207.6l43.4.9v-1.7c-1-4-3.4-14.2-4.8-19.7l-40.4.5s6.5.9,7,2.2c.5,1.3.5,14.3,0,15s-5.2,2.7-5.2,2.7Z"/>
  <polygon class="cls-19" points="336 217.9 339.7 449.1 353.9 449.1 357.7 217.9 336 217.9"/>
  <polygon class="cls-3" points="357.6 224.6 357.7 220.7 336 220.7 336.1 224.6 357.6 224.6"/>
  <g>
    <path class="cls-2" d="M550.6,415.6c-.5,2.4-1.3,7.3-2.1,12.5h31.2v-12.8c-2-1.1-3.2-1.9-3.4-2.3-1.3-2.5-5.3-24.9-5.3-24.9l-21.4,1.4s1.6,23.5,1.1,26.1Z"/>
    <path class="cls-37" d="M545.2,445.2s1.8-21.1,5-27.4,16.7,4.2,19.3,4c2.5-.3,7.1-8.1,7.1-8.1,0,0-.6-1.3-1-3.1-.2-1,29.7,19.2,29.7,19.2,0,0,22.5,5.9,22.2,15.4h-82.3Z"/>
    <path class="cls-57" d="M628.3,445.1s-16.1,3.2-54.2,3.1c-7.6,0-30.3,0-30.3,0v-6.6l84.5,1v2.5Z"/>
  </g>
  <path class="cls-2" d="M630.4,415.6c-.5,2.4-1.3,7.3-2.1,12.5h31.2v-12.8c-2-1.1-3.2-1.9-3.4-2.3-1.3-2.5-5.3-24.9-5.3-24.9l-21.4,1.4s1.6,23.5,1.1,26.1Z"/>
  <polygon class="cls-19" points="437.6 217.9 441.4 449.1 455.6 449.1 459.4 217.9 437.6 217.9"/>
  <polygon class="cls-19" points="901.9 217.9 905.6 449.1 919.8 449.1 923.6 217.9 901.9 217.9"/>
  <polygon class="cls-11" points="432.4 20.6 432.4 217.9 929.3 217.9 929.3 20.6 432.4 20.6"/>
  <polygon class="cls-19" points="918.1 20.6 918.1 208.3 430.3 208.3 430.3 217.9 931 217.9 931 20.6 918.1 20.6"/>
  <path class="cls-19" d="M488.6,40s3.8,42.5-2.8,58.3h-42.4l-.6-3.6,45.9-54.8Z"/>
  <path class="cls-19" d="M790.8,172.5v4.5h27.1s1.9-21.9,0-27.1l-27.2,22.7Z"/>
  <path class="cls-19" d="M798.1,130.3v4.1h41.3s3.9-58.1,1.6-61.2l-42.9,57.1Z"/>
  <path class="cls-19" d="M839.4,155.9c2.1,1.5,6.5,2.3,5.3,6.1-.3.9-.7,2.1,0,2.8.7.7,2.2.2,2.8,1,.3.4.3.9.3,1.4.3,2.1,3.1,3.5,4.9,2.4.5-.3,1-.7,1.6-.7,0,0,.2,0,.3,0,.3.1.6.4.9.6,1.4,1,3.1,1.4,4.8,1.2.4,1,.9,2.2,1.3,3.4h-12.8c-.7,0-1.4.5-1.4,1.2v2.2c0,.7.7,1.1,1.4,1.1h1v.2c0,0,0,.2,0,.3,0,0,0,0,0,0,0,0,0,0,0,.1,0,0,0,0,0,.1,0,0,0,.1,0,.2,0,0,0,0,0,.2,0,0,0,.1,0,.2,0,0,0,.1,0,.2,0,0,0,.1,0,.2,0,0,0,.1,0,.2,0,0,0,.1,0,.2,0,0,0,.1,0,.2,0,0,0,.1,0,.2,0,0,0,.2,0,.2,0,5.3.3,15.9,2.7,22.8h0s0,.1,0,.1c.2.7.5,1.2.8,2h-.2c-1.2,0-2,1-1.8,2.1v.4c0,0,0,0,0,0h38.8s0,0,0,0v-.3c.3-1.1-.6-2.1-1.8-2.1h-.4c.3-.8.5-1.3.8-2,0,0,0,0,0,0,2.4-6.8,2.6-17.2,2.6-22.6h0s0,0,0-.1c0-.1,0-.2,0-.3,0,0,0-.1,0-.2,0,0,0-.2,0-.2,0,0,0-.1,0-.2,0,0,0-.1,0-.2,0,0,0-.1,0-.2,0,0,0-.1,0-.2,0,0,0,0,0-.1,0,0,0-.1,0-.2,0,0,0,0,0-.1,0,0,0,0,0-.1,0,0,0,0,0-.1,0,0,0-.1,0-.2,0,0,0-.2,0-.2,0,0,0,.3,0-.2h.8c.8,0,1.5-.5,1.5-1.3v-1.6c0-.8-.6-1.5-1.5-1.5h-14.5l1.7-5.5c.7.2,1.3.4,2,.5,2.8.5,5.7-1.2,6.7-3.8.1-.3.2-.6.4-.8.6-.6,1.6-.3,2.3,0,1.1.4,2.2.7,3.3.5,1.1-.2,2.2-.9,2.6-2,.2-.7.1-1.4,0-2.1-.3-2.1-1.7-4.7,1-5.4,2-.5,3.9-1.4,5.6-2.7.8-.6,1.6-1.5,1.6-2.5,0-1.7-2.1-2.4-3.4-3.5-1.4-1.1-2.1-3-1.8-4.7.3-1.8,1.7-3.3,2.1-5.1.6-2.1-.2-4.6-1.9-6-1.6-1.3-3.7-1.6-5.7-2.1-.3,0-.7-.2-1-.4-.8-.7-.3-2.1-.3-3.2,0-1.5-1.4-2.8-2.9-3.2-1.5-.4-3.1-.2-4.6,0-2.4.4-3.8-.4-6-1.3-.4-.2-.9-.4-1.2-.7-.3-.3-.4-.7-.6-1.1-.8-1.4-2.7-1.9-4.2-1.6-1.6.3-3,1.2-4.3,2.1-.9.6-2.2,1.2-3.1.5-1-.9-.4-2.8-1.4-3.6-.7-.6-1.8-.3-2.6,0-2.3.9-4.6,1.8-6.6,3.2-2,1.4-3.7,3.4-4.2,5.8,0,.4-.2.8-.5,1-.2.1-.5.1-.7,0-1,0-2.1,0-3,.6-.9.5-1.5,1.5-1.4,2.5,0,.7.5,1.4.4,2.1-.2,1.4-2.2,1.5-3.5,2.2-1.6.7-2.4,2.5-2.5,4.2,0,1.4.1,3.2.8,4.4.5.9,1.8,1.4.6,2.4-1.6,1.3-3.1,3-3.6,5-.6,2,0,4.4,1.7,5.7ZM874.9,169.2c.7-.4,1.4-.8,2.2-.9.3,0,.6,0,.9,0l-1.9,5.8h-1.7l.6-4.9ZM870.5,170.4c1,0,2,0,2.9-.5,0,0,0,0,0,0l-.7,4.2h-2.3v-3.7ZM864.8,169.4c.6-.3,1.2-.7,1.9-.5.4,0,.7.3,1.1.6.3.2.7.4,1,.6,0,1.3,0,2.9-.1,4.1h-3.1l-1.2-4.5c.2,0,.3-.2.5-.3ZM863.6,170l1,4.2h-1.6l-1.4-3.6c.7-.1,1.4-.3,2-.6Z"/>
  <path class="cls-19" d="M791.7,46.5h-177.6c-2.7,0-4.9,2.1-5.1,4.8l-8.5,111.7c-.2,3,2.1,5.5,5.1,5.5h71.8l4.3,46.5h49.1l-5-46.5h57.5c2.7,0,4.9-2,5.1-4.7l8.5-111.7c.2-3-2.1-5.5-5.1-5.5Z"/>
  <polygon class="cls-39" points="713.3 211.8 707.3 157.1 659.1 157.1 664.1 211.8 713.3 211.8"/>
  <g>
    <polygon class="cls-46" points="764.9 209.2 742.8 209.2 739.7 170.1 768 170.1 764.9 209.2"/>
    <polygon class="cls-18" points="767.7 173.7 768 170.1 739.7 170.1 740 173.7 767.7 173.7"/>
    <polygon class="cls-32" points="765.7 201.7 767.6 177.1 740 177 742 201.6 765.7 201.7"/>
    <polygon class="cls-46" points="739.7 169.3 740.9 166.7 766 166.3 766.7 169.3 739.7 169.3"/>
    <polygon class="cls-18" points="740.4 167.6 739.7 169 766.7 169 766.4 167.6 740.4 167.6"/>
    <rect class="cls-46" x="738.4" y="168.1" width="30.8" height="4" rx="1.9" ry="1.9"/>
  </g>
  <polygon class="cls-9" points="708.2 211.8 702.3 157.1 659 157.1 664.1 211.8 708.2 211.8"/>
  <polygon class="cls-39" points="708.2 165.3 707.3 157.1 659.1 157.1 659.8 165.3 708.2 165.3"/>
  <path class="cls-39" d="M771.4,160.8h-177.6c-3,0-5.4-2.6-5.1-5.6l8.5-111.7c.2-2.7,2.4-4.8,5.1-4.8h177.6c3,0,5.4,2.6,5.1,5.5l-8.5,111.7c-.2,2.7-2.4,4.8-5.1,4.8Z"/>
  <path class="cls-13" d="M685.3,182.3s16.4-6,20.7-4.4c4.3,1.7-11.6,6.9-11.6,6.9l-9-2.6Z"/>
  <path class="cls-9" d="M765.2,160.8h-177.6c-3,0-5.4-2.6-5.1-5.6l8.5-111.7c.2-2.7,2.4-4.8,5.1-4.8h177.6c3,0,5.4,2.6,5.1,5.5l-8.5,111.7c-.2,2.7-2.4,4.8-5.1,4.8Z"/>
  <polygon class="cls-52" points="763.9 153.1 588.8 153.1 597.4 46.6 772.5 46.6 763.9 153.1"/>
  <polygon class="cls-21" points="918.2 207.4 298.7 207.7 298.6 210.7 918.3 210.3 918.2 207.4"/>
  <polygon class="cls-15" points="672.7 98.9 668.3 146.4 759.6 146.4 763.4 98.2 672.7 98.9"/>
  <polygon class="cls-40" points="763.1 101.7 763.4 98.1 672.7 98.8 672.4 101.7 763.1 101.7"/>
  <polygon class="cls-7" points="697.3 98.8 672.7 99 668.3 146.6 691.8 146.6 697.3 98.8"/>
  <rect class="cls-21" x="917.2" y="20.6" width="2.8" height="191.5"/>
  <polygon class="cls-15" points="600.7 52.1 596.8 93.3 710.8 93.3 714.6 52.1 600.7 52.1"/>
  <polygon class="cls-7" points="610.6 67 604 67 600.9 93.3 607.5 93.3 610.6 67"/>
  <polygon class="cls-7" points="693.8 67.1 690.6 93.5 698 93.5 701.2 67.1 693.8 67.1"/>
  <polygon class="cls-40" points="714.3 55.3 714.6 52 600.7 52 600.4 55.3 714.3 55.3"/>
  <path class="cls-13" d="M674.3,181.5s16.5,0,22.7,2.6c6.2,2.6,11.6,14.7,10.2,16.8s-27.3,10.3-37.7,7.2c-10.4-3.1,4.7-26.7,4.7-26.7Z"/>
  <path class="cls-57" d="M709.9,207.1c-1.8-13.7-21-11.5-21-11.5-4.6,1.9-8.4,10.6-9.4,13h29c.8,0,1.5-.7,1.4-1.5Z"/>
  <path class="cls-13" d="M558.9,103.6l4.5-11.1s11.2.8,20.1-4.6c16.3-9.8,13.8-60.8.7-74.2-13.1-13.5-45.7-10-50.8.9-5.1,10.9-3.2,57.3-3.2,57.3l-7.9,26.8,36.6,4.9Z"/>
  <polygon class="cls-52" points="710.6 61.6 681.2 61.6 681.5 58.1 710.9 58.1 710.6 61.6"/>
  <polygon class="cls-52" points="719.2 108.6 698.4 108.6 698.7 105.1 719.5 105.1 719.2 108.6"/>
  <polygon class="cls-52" points="718.6 114 697.8 114 698.1 110.5 718.9 110.5 718.6 114"/>
  <polygon class="cls-52" points="718 119.4 697.2 119.4 697.5 115.9 718.3 115.9 718 119.4"/>
  <polygon class="cls-42" points="676.1 62.1 604.3 62.1 604.6 58.5 676.4 58.5 676.1 62.1"/>
  <polygon class="cls-52" points="710.1 67.3 680.6 67.3 680.9 63.8 710.4 63.8 710.1 67.3"/>
  <polygon class="cls-52" points="709.5 73 680.1 73 680.4 69.5 709.8 69.5 709.5 73"/>
  <polygon class="cls-52" points="709 78.7 679.5 78.7 679.8 75.2 709.3 75.2 709 78.7"/>
  <polygon class="cls-52" points="708.4 84.5 679 84.5 679.3 80.9 708.7 80.9 708.4 84.5"/>
  <polygon class="cls-52" points="707.9 90.2 678.4 90.2 678.7 86.7 708.2 86.7 707.9 90.2"/>
  <path class="cls-13" d="M592.1,47.5s8.9-1.2,9.4,5.7c.4,5.6-8.9,8.9-8.9,8.9l-.4-14.6Z"/>
  <path class="cls-29" d="M564.1,67c1.3,0,3.8-.6,3.9-.6v-2.1s-2.3.5-3.6.6l-.3,2.1Z"/>
  <polygon class="cls-15" points="605.4 67.1 596.6 146.4 689.9 146.4 699.2 67 605.4 67.1"/>
  <polygon class="cls-40" points="698.9 70.2 699.2 66.8 605.4 67 605 70.2 698.9 70.2"/>
  <path class="cls-42" d="M578.5,36.2l-49.7-12.4c0,1,1.3,43.1.8,47.7-.3,2.8,32.3,2.8,32.9,1.3,1.4-3.5,2.2-5.5,3.2-9.2,1.3-4.3,2.5-8.7,3.9-12.9.3-.8,2.9,4.6,3.7,5.1,1.1.7,4.5-2.3,4.9-3.3.8-2.3-1-14.4.3-16.4Z"/>
  <path class="cls-13" d="M683.1,208s8.3.5,12.6-4.3c4.3-4.8,8.5-5.1,10.2-4.1,1.8,1-9.8-9.6-9.8-9.6l-13.5,1.4.4,16.6Z"/>
  <path class="cls-13" d="M556.6,53.5c-1.4,4.7,1.1,9.6,5.6,10.9,4.5,1.4,9.3-1.3,10.7-6s-1.3-9.4-5.9-10.7-9.1,1.1-10.5,5.8Z"/>
  <rect class="cls-11" x="298.6" y="210.3" width="632.2" height="10.6"/>
  <rect class="cls-19" x="783.9" y="210.3" width="147.1" height="10.6"/>
  <path class="cls-29" d="M566.8,84.7l1.6.7-3.3,8.1c-.8-.3-1.5-.4-1.8-.5l3.4-8.2Z"/>
  <path class="cls-10" d="M425.5,245.4s127-2,138.2,7.5c11.2,9.5,22.3,145.6,22.3,145.6,0,0-4.7,4.6-23.1,5.4-15.4.7-22.6-3.8-22.6-3.8,0,0-10.8-101.1-13.8-102.8-3-1.7-85.9,1.6-88.9.7-3-.9-12.1-52.6-12.1-52.6Z"/>
  <path class="cls-46" d="M453.4,197.4s13.9-79.8,40.3-94.8c18.4-10.5,82.5-11.9,98,4.6,20.7,22-31.5,125.1-32.3,150.7-.1,4-100.3,0-100.3,0l-5.6-60.6Z"/>
  <path class="cls-14" d="M480.6,116.3l29.8,143.2c11.5.2,23,.3,31.9.2l-12.2-125.2c-1.2-12.7-11.9-22.4-24.7-22.4h-21.9c-1,1.3-2,2.7-3,4.2Z"/>
  <path class="cls-34" d="M504.5,245.4s127-2,138.2,7.5c11.2,9.5,22.3,145.6,22.3,145.6,0,0-4.4,4.8-22.8,5.9-18.4,1.1-22.8-4.3-22.8-4.3,0,0-10.8-101.1-13.8-102.8-3-1.7-85.9,1.6-88.9.7-3-.9-12.1-52.6-12.1-52.6Z"/>
  <path class="cls-41" d="M507.7,245.4l15.1,52.7c11.3,0,35.7-.8,55.1-1.2,0-.1,0-.2,0-.2l-11-1.5c-12.5-1.7-22.1-11.8-23.4-24.3l-2.5-25.5-1.1-.2c-14.8,0-26.8,0-32.3.1Z"/>
  <g>
    <rect class="cls-34" x="430.2" y="419.6" width="6.5" height="17.9"/>
    <path class="cls-34" d="M509.5,344.4v60.6c0,2,1.7,3.7,3.7,3.7h4.5c2,0,3.7-1.7,3.7-3.7v-60.6h-11.9Z"/>
    <path class="cls-10" d="M509.5,390.5v14.5c0,2,1.7,3.7,3.7,3.7h4.5c2,0,3.7-1.7,3.7-3.7v-14.5h-11.9Z"/>
    <path class="cls-34" d="M509.5,332.8v14c0,1,.8,1.9,1.9,1.9h8.2c1,0,1.9-.8,1.9-1.9v-14h-11.9Z"/>
    <rect class="cls-10" x="509.5" y="332.8" width="11.9" height="6.6"/>
    <path class="cls-34" d="M477,322.5h0c0,7.9,6.4,14.3,14.3,14.3h46.6c7.9,0,14.3-6.4,14.3-14.3h-75.2Z"/>
    <path class="cls-10" d="M551.4,327.4c.6-1.5.9-3.2.9-4.9h0s-75.2,0-75.2,0h0c0,1.7.3,3.3.9,4.9h73.5Z"/>
    <rect class="cls-34" x="453.4" y="310" width="122.4" height="14.7" rx="7.2" ry="7.2"/>
    <path class="cls-27" d="M611.4,296.3h-74.6c-2.6,0-4.8-2-5-4.6l-11.5-145.4c-1.4-17.7-16.2-31.4-34-31.4h-51.4c-14.5,0-25.9,12.3-24.8,26.8l11.9,155.4c.8,10.3,9.4,18.3,19.7,18.3h169.6c5.3,0,9.5-4.3,9.5-9.5h0c0-5.3-4.3-9.5-9.5-9.5Z"/>
    <path class="cls-30" d="M545.7,315.3h-6.7c-13.5,0-24.6-10.4-25.6-23.9l-9.9-145.2c-1.4-17.7-16.2-31.4-34-31.4h-51.4c-14.5,0-25.9,12.3-24.8,26.8l11.9,155.4c.8,10.3,9.4,18.3,19.7,18.3h120.7Z"/>
    <circle class="cls-34" cx="433.4" cy="438.2" r="11.1"/>
    <circle class="cls-26" cx="433.4" cy="438.2" r="6.8"/>
    <rect class="cls-34" x="593.8" y="419.6" width="6.5" height="17.9"/>
    <circle class="cls-34" cx="597.1" cy="438.2" r="11.1"/>
    <circle class="cls-26" cx="597.1" cy="438.2" r="6.8"/>
    <rect class="cls-34" x="512.4" y="419.6" width="6.5" height="17.9"/>
    <circle class="cls-34" cx="515.7" cy="438.2" r="11.1"/>
    <circle class="cls-26" cx="515.7" cy="438.2" r="6.8"/>
    <path class="cls-26" d="M515.4,393.2c-22.5,0-45.3,6.4-86.8,24.3v8.5h9.8c20.8-9.1,57.2-17.5,77-17.4,19.8,0,56.4,8.5,77.2,17.3h9.9v-8.4c-41.2-17.8-64.5-24.2-87-24.2Z"/>
    <polygon class="cls-26" points="505.9 399.7 509.5 424.5 522.3 424.5 525.6 399.5 505.9 399.7"/>
    <path class="cls-12" d="M557.5,345.8l-1.9-1.5,7.2-9.4c.4-.5.5-1.2.2-1.8-.3-.6-.9-1-1.5-1h-26.1c-.7,0-1.2-.5-1.2-1.2h0c0-.7.5-1.2,1.2-1.2h26c1.5,0,3,.8,3.7,2.1.8,1.5.7,3.2-.3,4.5l-7.3,9.4Z"/>
    <path class="cls-33" d="M546.9,359.9h-4.1c-1.4,0-2.2-1.7-1.3-2.8l13.8-15.9c.9-1.1,2.3-1.7,3.8-1.7h2.2c1.3,0,2.1,1.5,1.4,2.6l-9.9,14.7c-1.3,1.9-3.5,3.1-5.8,3.1Z"/>
  </g>
  <path class="cls-46" d="M513.1,99.2s3.6-13.4,13.2-14.1c9.6-.8,34.5-.3,38.4,6,2.9,4.7-.4,11.6-.4,11.6l-51.2-3.5Z"/>
  <path class="cls-55" d="M596.2,61.5l-.8-1.9s5.1-2.2,5.1-5.9c0-4.3-5.4-5.6-5.5-5.6l.5-2c.3,0,6.9,1.7,7,7.5,0,5.1-6.1,7.7-6.3,7.8Z"/>
  <polygon class="cls-11" points="604.3 110.5 601 141.5 625.5 141.5 628.9 110.5 604.3 110.5"/>
  <polygon class="cls-11" points="632.8 119.3 630.2 141.5 654.7 141.5 657.4 119.3 632.8 119.3"/>
  <polygon class="cls-30" points="633.8 110.9 633 117.9 657.5 117.9 658.3 110.9 633.8 110.9"/>
  <polygon class="cls-11" points="663.2 119.3 660.5 141.5 685.1 141.5 687.8 119.3 663.2 119.3"/>
  <polygon class="cls-32" points="664.1 110.9 663.4 117.8 687.9 117.8 688.7 110.9 664.1 110.9"/>
  <path class="cls-46" d="M563.7,96s22.8,3.6,32.4,14.7c6.6,7.7,31.6,61.8,31.6,61.8l48.8,3.9s14.1,3,13.4,17.2c-.5,9.8-5.6,15.7-12.3,16.7-5,.8-66.7.7-73.2,0s-41.5-71-41.5-71l.8-43.3Z"/>
  <path class="cls-42" d="M529,30.5s-3.9-4.3-2.3-11c1.4-6,12.6-13.5,23.8-15.8,11.2-2.2,36-5.8,42.2,5.6,4.6,8.4-5.9,19.2-5.9,19.2l-14.8,13.5-43-11.5Z"/>
  <path class="cls-55" d="M581.3,89.1l-.7-1c13-8.7,14.6-25.4,13.6-37.9-1-13.8-5.3-25.6-5.3-25.7l1.9-.7c0,.1,4.4,12.2,5.4,26.2,1.4,18.8-2.8,33.1-15,39.1Z"/>
  <path class="cls-29" d="M568.6,60.2h-1.6c.2-3.1-.3-5.2-1.4-6.3-1.1-1.1-2.6-.9-2.6-.9l-.2-1.6c0,0,2.2-.3,4,1.4,1.6,1.5,2.2,4,1.9,7.5Z"/>
  <path class="cls-29" d="M562.5,56.4v-1.6c.1,0,3.7,0,5.4.5l-.4,1.6c-1.5-.4-4.9-.4-5-.4Z"/>
  <path class="cls-42" d="M591.1,34.1c-3.7.3-5.6,3.9-5.7,4.1l1.4.7s1.7-3.1,4.6-3.2c-.1-.5-.2-1.1-.3-1.6Z"/>
  <path class="cls-59" d="M573,56.4l-.6-1.5c1.1-.4,4.2-1.7,5.1-2.9.6-1,0-8.5-.9-14.9v-.5c0,0,.4-.3.4-.3,6.5-4.2,17.4-16.6,15.9-24.2-.6-2.9-2.5-5.4-5.6-7.2-8.7-5-24.6-4.3-42.6,1.8-10.3,3.5-16.4,8.1-17.6,13.2-1.2,5.1,2.6,9.3,2.6,9.3l-.7,1.5c-.2-.2-4.9-5.2-3.5-11.2,1.4-5.8,7.7-10.6,18.7-14.3,18.4-6.3,34.9-6.9,43.9-1.7,3.5,2,5.8,4.9,6.4,8.3,1.7,8.6-9.4,21-16.2,25.6.6,4.5,1.8,14,.5,15.6-1.4,1.7-5.4,3.2-5.8,3.4Z"/>
  <path class="cls-31" d="M514.7,94.8c-.3.6-.5,1.2-.7,1.8,5.7-1.1,19.5-3.1,35.9-1.2l.2-1.6c-15.7-1.9-29.1-.1-35.4,1Z"/>
  <path class="cls-31" d="M570.7,152.1l-1.5.7,14.2,29.1c.2-.7.5-1.5.7-2.2l-13.4-27.6Z"/>
  <polygon class="cls-31" points="632.8 183.2 634.3 182.4 629.9 172.6 627.9 172.4 632.8 183.2"/>
  <rect class="cls-21" x="782.3" y="210.2" width="2.8" height="10.7"/>
  <polygon class="cls-19" points="800.2 217.9 803.9 449.1 818.1 449.1 821.9 217.9 800.2 217.9"/>
  <polygon class="cls-3" points="921.3 360.5 921.4 351.8 904 351.8 904.2 360.5 921.3 360.5"/>
  <polygon class="cls-3" points="819.6 360.5 819.7 351.8 802.4 351.8 802.5 360.5 819.6 360.5"/>
  <path class="cls-34" d="M625,445.2s1.8-21.1,5-27.4c3.2-6.2,16.7,4.2,19.3,4,2.5-.3,7.1-8.1,7.1-8.1,0,0-.6-1.3-1-3.1-.2-1,29.7,19.2,29.7,19.2,0,0,22.5,5.9,22.2,15.4h-82.3Z"/>
  <path class="cls-2" d="M708.1,445.1s-16.1,3.2-54.2,3.1c-7.6,0-30.3,0-30.3,0v-6.6l84.5,1v2.5Z"/>
  <path class="cls-59" d="M571.7,40.2l-.5-1.5c1.2-.4,4.6-1.5,5.8-2.3l.9,1.3c-1.6,1.1-6,2.5-6.2,2.6Z"/>
  <path class="cls-31" d="M673.4,176l-4.4-.3h0c.6.2,13.9,4.8,13.1,18.4-.7,11.5-9.4,15.5-12.5,16.5,1.5,0,2.9,0,4-.1,4.1-2.3,9.5-7.1,10-16.3.6-9.9-5.9-15.5-10.3-18.1Z"/>
  <path class="cls-1" d="M846.5,167s3,8.4,3.6,8.4,13.4-.5,13.4-.5l3-9.8h-1.5l-2.8,8.4-1.4-.5,1-8.3-.7-2.5-1.9,10.8-2.1,1.1v-9.3c0,0-1.6,0-1.6,0,0,0-.2,9.7-.5,9.6-.3-.2-2.4-.4-2.4-.4l-2.2-8.6-.7.5,1.9,8-1.4-.2-2.8-7.3-.9.6Z"/>
  <path class="cls-55" d="M571.9,56.8c-.8-3.8-2.5-6.4-4.6-7.2-3.1-1.2-6.7,1.2-6.8,1.3l-1.1-1.6c.5-.7,4.5-3.2,8.6-1.5,2.8,1.1,4.8,3.8,5.6,8.4l-1.7.6Z"/>
  <polygon class="cls-29" points="590.9 70.7 591.5 68.8 587.1 68.8 587.1 70.7 590.9 70.7"/>
  <polygon class="cls-3" points="923.5 224.6 923.6 220.7 901.9 220.7 902 224.6 923.5 224.6"/>
  <polygon class="cls-3" points="821.8 224.6 821.9 220.7 800.2 220.7 800.3 224.6 821.8 224.6"/>
  <path class="cls-34" d="M592.6,45.1c.2,2-.4,3.6-1.3,3.6-.9,0-1.8-1.6-1.9-3.6s.4-3.6,1.3-3.6c.9,0,1.8,1.6,1.9,3.6Z"/>
  <g>
    <path class="cls-42" d="M843.3,208h27.9c8.1-4.2,6.8-32.1,6.8-32.1h-41.5s-1.2,27.9,6.8,32.1Z"/>
    <path class="cls-28" d="M839.1,202c1,2.8,2.4,5.1,4.2,6h27.9c1.9-1,3.2-3.2,4.2-6h-36.3Z"/>
    <path class="cls-28" d="M878.1,179.4c0-2.1,0-3.5,0-3.5h-41.5s0,1.3,0,3.5h41.7Z"/>
    <path class="cls-42" d="M876.8,206.5v-.4c.3-1.1-.6-2.2-1.8-2.2h-35.3c-1.2,0-2,1-1.8,2.2v.4c.2.9,1,1.5,1.9,1.5h35.2c.9,0,1.7-.6,1.8-1.5Z"/>
    <path class="cls-42" d="M836.2,172.1h41.9c1.3,0,2.3,1,2.3,2.3h0c0,1.4-1,2.4-2.3,2.4h-41.9c-1.1,0-1.9-.9-1.9-1.9v-.9c0-1.1.9-1.9,1.9-1.9Z"/>
    <rect class="cls-35" x="839.3" y="204.4" width="31.7" height="1.6" rx=".8" ry=".8"/>
    <path class="cls-35" d="M839.1,180.7c0,3,.7,17.6,2.8,19.4.1.1.4.2.6.3h20.8v-19.7h-24.2Z"/>
    <polygon class="cls-35" points="836.5 173.2 836.4 174.9 868.7 174.9 868.6 173.2 836.5 173.2"/>
  </g>
  <path class="cls-46" d="M800.9,73.2s-1.5,43.2-5.3,58.5l38.2.5c8.1-16.1,7.2-59,7.2-59h-40.1Z"/>
  <polygon class="cls-15" points="719.6 52.1 715.9 93.3 763.7 93.3 766.8 52.1 719.6 52.1"/>
  <polygon class="cls-40" points="766.5 55.3 766.8 52 719.6 52 719.3 55.3 766.5 55.3"/>
  <path class="cls-42" d="M787.6,450v-92.4l6.6-1.4c28-.5,135.8-2.2,137.4.1,1.1,1.7,3.8,36.2,5,63.1l-2.2.9c.5,10.8.9,21.1,1,26.2,0,1.8-1.4,3.4-3.2,3.4h-144.6Z"/>
  <path class="cls-1" d="M841.3,166.8c0,0-.2,0-.3,0-.6,0-1.1.4-1.6.7-1.9,1.1-4.6-.3-4.9-2.4,0-.5,0-1-.3-1.4-.6-.8-2-.3-2.8-1-.7-.7-.3-1.8,0-2.8,1.2-3.8-3.2-4.6-5.3-6.1-1.7-1.2-2.2-3.6-1.7-5.7s2-3.7,3.6-5c1.2-1,0-1.5-.6-2.4-.7-1.2-.9-3-.8-4.4,0-1.7.9-3.5,2.5-4.2,1.3-.6,3.3-.7,3.5-2.2.1-.7-.3-1.4-.4-2.1-.1-1,.6-2,1.4-2.5.9-.5,1.9-.6,3-.6.3,0,.5,0,.7,0,.3-.2.4-.6.5-1,.5-2.4,2.2-4.4,4.2-5.8,2-1.4,4.3-2.3,6.6-3.2.9-.3,1.9-.6,2.6,0,1,.8.4,2.8,1.4,3.6.9.7,2.1.1,3.1-.5,1.4-.9,2.7-1.8,4.3-2.1,1.6-.3,3.4.2,4.2,1.6.2.4.3.8.6,1.1.3.3.7.5,1.2.7,2.3,1,3.6,1.7,6,1.3,1.5-.2,3.1-.5,4.6,0,1.5.4,2.8,1.7,2.9,3.2,0,1.1-.6,2.5.3,3.2.3.2.6.3,1,.4,2,.5,4.1.8,5.7,2.1,1.7,1.4,2.5,3.8,1.9,6-.5,1.8-1.8,3.3-2.1,5.1-.3,1.7.4,3.6,1.8,4.7,1.3,1.1,3.4,1.8,3.4,3.5,0,1-.8,1.9-1.6,2.5-1.6,1.3-3.6,2.2-5.6,2.7-2.7.7-1.2,3.2-1,5.4,0,.7.2,1.4,0,2.1-.3,1.1-1.4,1.8-2.6,2-1.1.2-2.3-.1-3.3-.5-.8-.3-1.8-.6-2.3,0-.2.2-.3.5-.4.8-1,2.6-4,4.3-6.7,3.8-1.5-.2-2.9-1-4.3-.8-1.3.2-2.4,1.1-3.6,1.6-1.8.8-4,.6-5.7-.5-.3-.2-.7-.5-1.1-.6-.6-.1-1.3.2-1.9.5-2.9,1.5-6.6,2-9.2,0-.3-.2-.6-.5-.9-.6Z"/>
  <polygon class="cls-31" points="569.7 220.7 561.8 245.4 564.4 245.4 572.6 220.7 569.7 220.7"/>
  <path class="cls-29" d="M699.2,185.4l-1.1-1.8c-4.5-1.8-7.7-.3-7.9-.3l.5,1.1s3.6-1.6,8.5,1Z"/>
  <polygon class="cls-32" points="764 61.6 751.2 61.6 751.5 58.1 764.3 58.1 764 61.6"/>
  <polygon class="cls-11" points="723.1 58.1 720 90.1 746.7 90.1 749.5 57.9 723.1 58.1"/>
  <path class="cls-19" d="M722,83.3l-.6,5.7h23.6l2.1-22.2s-5.1-2.2-10.4,3.4c-6.6,7.1-6.9,15.1-14.8,13Z"/>
  <polygon class="cls-53" points="760.9 90.3 762.9 64.4 751.7 64.3 749.3 90.2 760.9 90.3"/>
  <polygon class="cls-40" points="756.3 116.2 752.1 116.1 752.7 107.9 756.9 108 756.3 116.2"/>
  <polygon class="cls-40" points="750.8 116.2 746.6 116.1 747 111.9 751.2 111.9 750.8 116.2"/>
  <polygon class="cls-40" points="745.4 116.2 741.2 116.1 741.6 110 745.8 110.1 745.4 116.2"/>
  <polygon class="cls-40" points="739.9 116.2 735.7 116.1 736.1 111.1 740.3 111.1 739.9 116.2"/>
  <polygon class="cls-40" points="734.4 116.2 730.2 116.1 730.4 113.8 734.6 113.8 734.4 116.2"/>
  <polygon class="cls-40" points="729 116.2 724.8 116.1 725.1 111.7 729.3 111.7 729 116.2"/>
  <path class="cls-4" d="M888.2,145c-1.4-1.1-2.1-3-1.8-4.7.3-1.8,1.7-3.3,2.1-5.1.6-2.1-.2-4.6-1.9-6-1.6-1.3-3.7-1.6-5.7-2.1-.3,0-.7-.2-1-.4-.8-.7-.3-2.1-.3-3.2,0-1.5-1.4-2.8-2.9-3.2-1.5-.4-3.1-.2-4.6,0-2.4.4-3.8-.4-6-1.3-.4-.2-.9-.4-1.2-.7-.3-.3-.4-.7-.6-1.1-.8-1.4-2.7-1.9-4.2-1.6-1.6.3-3,1.2-4.3,2.1-.9.6-2.2,1.2-3.1.5-1-.9-.4-2.8-1.4-3.6-.7-.6-1.8-.3-2.6,0-2.3.9-4.6,1.8-6.6,3.2-2,1.4-3.7,3.4-4.2,5.8,0,.4-.2.8-.5,1-.2.1-.5.1-.7,0-1,0-2.1,0-3,.6-.9.5-1.5,1.5-1.4,2.5,0,.7.5,1.4.4,2.1-.2,1.4-2.2,1.5-3.5,2.2-1.6.7-2.4,2.5-2.5,4.2,0,1.4.1,3.2.8,4.4.5.9,1.8,1.4.6,2.4-1.6,1.3-3.1,3-3.6,5-.6,2,0,4.4,1.7,5.7,2.1,1.5,6.5,2.3,5.3,6.1-.3.9-.7,2.1,0,2.8.7.7,2.2.2,2.8,1,.3.4.3.9.3,1.4.3,2.1,3.1,3.5,4.9,2.4.5-.3,1-.7,1.6-.7,0,0,.2,0,.3,0,.3.1.6.4.9.6,2.6,1.9,6.4,1.4,9.2,0,.6-.3,1.2-.7,1.9-.5.4,0,.7.3,1.1.6,1.7,1.1,3.9,1.3,5.7.5,1.2-.5,2.3-1.5,3.6-1.6,1.5-.2,2.9.6,4.3.8,2.8.5,5.7-1.2,6.7-3.8.1-.3.2-.6.4-.8.6-.6,1.6-.3,2.3,0,1.1.4,2.2.7,3.3.5,1.1-.2,2.2-.9,2.6-2,.2-.7.1-1.4,0-2.1-.3-2.1-1.7-4.7,1-5.4,2-.5,3.9-1.4,5.6-2.7.8-.6,1.6-1.5,1.6-2.5,0-1.7-2.1-2.4-3.4-3.5ZM878.8,130.2c.9-.2,1.8-.3,2.6-.4,1-.1,1.8.9,1.8,1.8,0,1.1-.9,1.7-1.8,1.8-.2,0-.3,0-.5,0,0,0-.2,0-.2,0-.3,0-.6,0-.9.2-1,.2-1.9-.3-2.2-1.3-.3-.9.3-2,1.3-2.2ZM859.2,119.7c0-.5.2-.9.5-1.3.3-.4.8-.5,1.3-.5.5,0,1,.2,1.3.5.3.3.5.8.5,1.3h0c0,.6-.2,1-.5,1.4-.3.4-.8.5-1.3.5-.5,0-1-.2-1.3-.5-.3-.3-.5-.8-.5-1.3h0ZM844.4,117.2l.2-.2c.3-.3.8-.5,1.3-.5.5,0,.9.2,1.3.5.3.3.5.8.5,1.3s-.2,1-.5,1.3c0,0-.1.1-.2.2-.3.3-.8.5-1.3.5-.5,0-.9-.2-1.3-.5-.3-.3-.5-.8-.5-1.3s.2-1,.5-1.3ZM834.4,126.7c.3-.3.8-.5,1.3-.5h.2c.5,0,.9.2,1.3.5.4.3.5.8.5,1.3,0,.5-.2,1-.5,1.3-.3.3-.8.5-1.3.5h-.2c-.5,0-.9-.2-1.3-.5-.4-.3-.5-.8-.5-1.3,0-.5.2-1,.5-1.3ZM829.8,134.1c.3-.3.8-.5,1.3-.5h0c.5,0,.9.2,1.3.5.4.3.5.8.5,1.3,0,.5-.2,1-.5,1.3s-.8.5-1.3.5h0c-.5,0-.9-.2-1.3-.5-.4-.3-.5-.8-.5-1.3,0-.5.2-1,.5-1.3ZM830.5,149.1c-.3.4-.8.5-1.3.5-.5,0-1-.2-1.3-.5-.3-.3-.5-.8-.5-1.3,0,0,0,0,0,0,0-.2,0-.3,0-.5,0-.2,0-.3,0-.5.1-.5.4-.8.8-1.1.2-.1.4-.2.6-.2,0,0,0-.1,0-.2,0-.4.3-.7.6-.9.1-.1.2-.2.3-.3.3-.4.8-.5,1.3-.5.5,0,.9.2,1.3.5.3.3.5.8.5,1.3s-.2.9-.5,1.3c-.3.3-.5.6-.8.8-.2.1-.4.2-.5.2,0,0,0,.2,0,.3,0,.5-.2.9-.5,1.3ZM839,161.9c-.3.4-.8.5-1.3.5-.5,0-1-.2-1.3-.5-.3-.3-.4-.6-.5-.9,0,0,0,0,0,0,0,0,0,0,0,0,0,0,0,0,0,0,0-.3-.1-.5-.1-.8,0-.5.2-.9.5-1.3.3-.4.8-.5,1.3-.5.5,0,1,.2,1.3.5.3.3.4.6.5.9,0,0,0,0,0,0,0,0,0,0,0,0,0,0,0,0,0,0,0,.3.1.5.1.8,0,.5-.2.9-.5,1.3ZM844,162.7c-.2.4-.7.7-1.1.8-.4.1-.8,0-1.2,0,0,0,.1,0,.2,0-.2,0-.3,0-.5-.1-1-.3-1.5-1.3-1.3-2.2.2-.9,1.3-1.6,2.2-1.3.1,0,.2,0,.3,0,.2,0,.4.2.7.3.4.2.7.7.8,1.1.2.5,0,1-.2,1.4ZM851.2,164.6c-.1.4-.4.9-.8,1.1-.3.2-.7.3-1.1.4-.5.2-1,0-1.4-.2-.4-.2-.7-.6-.8-1.1-.1-.4,0-1,.2-1.4.2-.4.6-.7,1.1-.8.1,0,.2,0,.3-.1.2-.1.5-.2.8-.2h.5c.5.2.8.5,1.1.9.2.4.3,1,.2,1.4ZM857.7,164.2c-.3.3-.8.5-1.3.5h-.5c-.5,0-.9-.2-1.3-.5-.4-.3-.5-.8-.5-1.3,0-.5.2-1,.5-1.3.3-.3.8-.5,1.3-.5h.5c.5,0,.9.2,1.3.5.4.3.5.8.5,1.3,0,.5-.2,1-.5,1.3ZM863.7,164.4c-.3.3-.8.5-1.3.5h0c-.5,0-.9-.2-1.3-.5-.4-.3-.5-.8-.5-1.3,0-.5.2-1,.5-1.3.3-.3.8-.5,1.3-.5h0c.5,0,.9.2,1.3.5.4.3.5.8.5,1.3,0,.5-.2,1-.5,1.3ZM872.2,159.1c-.3.4-.8.5-1.3.5-.5,0-1-.2-1.3-.5-.2-.2-.4-.6-.5-.9-.2-.4-.2-.8,0-1.2.1-.5.4-.8.8-1.1.4-.2,1-.3,1.4-.2.2,0,.4.2.6.3.2.1.4.3.5.5.1.2.2.4.3.6,0,.2,0,.4,0,.6,0,.5-.2.9-.5,1.3ZM878.5,154c-.3.3-.8.5-1.3.5h-.4c-.5,0-.9-.2-1.2-.5-.3.2-.7.3-1,.3s-.8-.1-1.1-.4c0,0,0,0,0,0-.2.4-.6.7-1.1.8-.3,0-.6.2-1,.2-.5.1-1,0-1.4-.2-.8.2-1.6.3-2.4,0-.5.1-1,.3-1.4.4,0,.1,0,.2,0,.4,0,.4,0,.8-.2,1.1-.2.5-.5.8-1,1.1-.4.3-1,.3-1.4.2-.1,0-.3,0-.4-.2,0,.2-.2.3-.3.4-1.1.9-2.3,1.2-3.7,1.2-.3,0-.5,0-.7-.2,0,0-.1,0-.2,0-.2,0-.3,0-.5,0-.4.4-.8.7-1.3.5-.6-.2-.9-.8-1.3-1.3-.3-.4-.6-.6-1-.8-1-.5-2.2-.5-3.4-.4.9.2,1.5.9,1.5,1.9,0,.5-.2.9-.5,1.3-.3.4-.8.5-1.3.5-.5,0-1-.2-1.3-.5,0,0-.2-.2-.2-.3-.2-.3-.4-.7-.4-1.1,0-.2,0-.3,0-.5,0,0-.1,0-.2,0h-1.1c-1,0-1.8-.8-1.8-1.8,0-.2,0-.4.1-.6-.8-.5-1.5-1.3-2.6-.9-.7.3-1.1,1.1-1.7,1.6-.8.6-2,.6-2.8,0-.3-.2-.5-.6-.7-1-.2-.2-.4-.5-.5-.8,0-.2,0-.4,0-.6,0,0,0-.2,0-.2v-.5c.1-.4.4-.6.6-.9-.2-.3-.6-.5-1-.6-.6-.2-1.2-.3-1.9-.3,0,0,0,0,0,0,.2.5,0,1-.2,1.4-.2.4-.6.7-1.1.8-.4.1-1,0-1.4-.2-.1,0-.2-.2-.3-.3-.6-.3-1-.9-1.1-1.6,0-.5.2-1,.5-1.3.2-.2.5-.4.8-.5.2-1.1.9-2,1.3-3.1.6-1.5.4-3.3-.3-4.7-.1-.2-.3-.5-.4-.7-.4.2-.8.2-1.2,0-.4,0-.6-.3-.9-.6-.1,0-.2,0-.3,0-.5,0-.8-.5-1.1-.8-.3-.4-.3-.9-.2-1.4,0-.4.5-.9.8-1.1.4-.3.9-.3,1.4-.2.7.1,1.3.4,1.8.9.3-.8.5-1.6.8-2.4,0,0-.2,0-.2-.1-.4-.2-.7-.6-.8-1.1-.1-.4,0-1,.2-1.4.2-.4.7-.8,1.1-.8.4,0,.7,0,1,0,0-.2.2-.5.2-.7.2-.5.3-.9.6-1.3.3-.4.7-.6,1.1-.9.5-.3,1-.6,1.6-.9,0,0,0,0,0-.1h0c-.2-.5,0-1,.2-1.5.2-.4.7-.7,1.1-.8.4-.1,1,0,1.4.2,0,0,0,0,.1,0,0-.7.2-1.4.4-2-.2-.3-.3-.6-.3-1v-.2c0-.5.2-.9.5-1.3.3-.4.8-.5,1.3-.5.4,0,.9.2,1.2.5.3,0,.6,0,.9,0,.4,0,.7.2,1.1.2.6,0,1.2,0,1.8-.3,0-.2,0-.4,0-.5,0-.3.2-.5.4-.7.3-.6.9-1,1.6-1.1.8,0,1.6.7,1.8,1.5,1.5.3,2.7,1.5,4,2.1-.2-.2-.4-.5-.5-.8,0,0,0,0,0,0,0-.2-.1-.4-.1-.7,0-.5.2-1,.5-1.3.3-.3.8-.6,1.3-.5.4,0,.7,0,1,.3.4.2.6.5.8.9.2.4.2.8,0,1.2,0,.2-.1.4-.2.6-.2.4-.6.7-1,.8,1.1,0,2.3-.4,3.5-.4,1,0,2,.1,3,.3,0-.2.2-.4.4-.6.3-.3.8-.5,1.3-.5h0c.5,0,.9.2,1.3.5.4.3.5.8.5,1.3,0,.5-.2,1-.5,1.3-.1.1-.2.2-.4.3,0,.5.5.8,1,1.1,0-.1,0-.2,0-.3v-.2c0-.5.2-.9.5-1.3.3-.4.8-.5,1.3-.5.5,0,1,.2,1.3.5.3.3.5.8.5,1.3h0c.3,0,.5-.1.8-.2.5,0,1,.2,1.3.5.3.3.5.8.5,1.3v.2c0,.4-.1.7-.3,1,.2.7,0,1.6-.6,2.1.2.8.5,1.5.8,2.2.2,0,.4-.1.7-.1,2.3,0,2.3,3.5.1,3.6,0,.4-.2.8-.4,1.2-.1.2-.3.4-.3.6,0,.4,0,.7.2,1.1.8,1.7,1.4,3.8.2,5.3-.2.3-.5.5-.7.7h0c.5,0,.9.2,1.3.5.4.3.5.8.5,1.3,0,.5-.2,1-.5,1.3-.3.3-.8.5-1.3.5h-.4c-.1,0-.3,0-.4,0,0,.3,0,.5-.1.8,0,0,0,0,0,0,.5-.1,1,0,1.4.2.3.1.5.3.7.5.3-.2.7-.3,1-.3h.4c.5,0,.9.2,1.3.5.4.3.5.8.5,1.3,0,.5-.2,1-.5,1.3ZM879.4,145.3c-.3.3-.8.5-1.3.5h-.2c-.5,0-.9-.2-1.3-.5-.4-.3-.5-.8-.5-1.3,0-.5.2-1,.5-1.3.3-.3.8-.5,1.3-.5h.2c.5,0,.9.2,1.3.5.4.3.5.8.5,1.3,0,.5-.2,1-.5,1.3ZM879,140.8c0,0-.1,0-.2,0,0,0-.2,0-.2,0,0,0-.2,0-.2,0,0,0,0,0-.1,0-.9.5-2,.2-2.5-.7-.5-.8-.2-2,.7-2.5.8-.5,1.7-.7,2.6-.7,1,0,1.8.8,1.8,1.8,0,1-.9,1.8-1.8,1.8ZM883.3,146.9c-.4.2-1,.3-1.4.2-.3,0-.5-.2-.7-.4-.2,0-.5-.2-.7-.4-.4-.3-.5-.8-.5-1.3,0-.5.2-1,.5-1.3.3-.3.8-.6,1.3-.5.9,0,1.7.4,2.1,1.2.5.9.2,2-.7,2.5Z"/>
  <path class="cls-4" d="M869.7,139.9c-.2,0-.4,0-.5,0-.4,0-.9.2-1.1.5-.3.3-.5.8-.4,1.2,0,.9.8,1.6,1.7,1.6.2,0,.4,0,.5,0,.1,0,.3-.1.4-.2.2-.1.3-.2.4-.4.2-.3.3-.6.3-1,0-.7-.5-1.4-1.2-1.5Z"/>
  <path class="cls-4" d="M871.2,145.2c-.2-.5-.5-.8-.9-1.1-.2-.1-.5-.2-.7-.2-.3,0-.5,0-.8,0-.3,0-.7.4-.9.7-.2.3-.2.8-.1,1.2,0,.2.2.4.3.6,0,.2,0,.4.2.5.4.5,1,.9,1.7.6.5-.2.9-.5,1.1-1.1.2-.4.2-.9,0-1.3Z"/>
  <path class="cls-4" d="M869.1,129.2c-.9-.6-2.3-.3-3.2-.1-.8.1-1.2,1-1.1,1.7.1.7.8,1.4,1.5,1.3.4,0,.7,0,1.1,0,.5,0,.9,0,1.4,0,.6-.2,1-.7,1-1.3,0-.6-.2-1.2-.8-1.5Z"/>
  <path class="cls-4" d="M867.6,132.4c-.8-.5-1.9-.2-2.8,0-.8.2-1.3,1.2-1,1.9.3.8,1.1,1.2,1.9,1,0,0,.1,0,.2,0,.2,0,.1,0,0,0,0,0,.3,0,.4,0,.5,0,.9,0,1.4-.3,1-.6.9-2.1,0-2.6Z"/>
  <path class="cls-4" d="M857.3,128.5c-.3-.7-1.1-1.3-1.9-1-.8.3-1.2,1.1-1,1.9,0,0,0,0,0,0,0,0,0,0,0,.1,0,0,0,0,0,.1,0,0,0,0,0,0,0,0,0,0,0,.1,0,0,0,0,0,0,0,0,0,0,0,0-.5.6-.5,1.3,0,1.9.4.6,1.3.7,1.9.3,1.2-.8,1.7-2.3,1.2-3.7Z"/>
  <path class="cls-4" d="M859.9,130.4c-.4,0-.8,0-1.2.2-.3.2-.6.6-.7,1,0,.3,0,.7,0,1,0,0,0,.1,0,.2,0,.6.5,1.1,1.1,1.2.5,0,.9,0,1.4-.2.4-.2.7-.7.8-1.1.2-.9-.4-2-1.4-2.2Z"/>
  <path class="cls-4" d="M848.1,128.9c0-.4,0-.6-.3-.9,0-.1-.1-.2-.2-.3-.3-.4-.6-.5-1.1-.7-.4-.1-.9,0-1.2.2-.4.2-.7.7-.7,1.2,0,.7.3,1.3.9,1.6.1.1.3.2.5.3.3.1.7.2,1,0,.2,0,.5-.2.7-.4.2-.2.5-.7.4-1.1Z"/>
  <path class="cls-4" d="M841.7,135.6c-.9-.2-1.7,0-2.6,0-.8.2-1.3,1.2-1,1.9.3.9,1.1,1.2,1.9,1,0,0,0,0,0,0,0,0,0,0,0,0,.1,0,.3,0,.4,0,.3,0,.6,0,.8,0,.7,0,1.3-.5,1.4-1.3,0-.7-.4-1.4-1.1-1.6Z"/>
  <path class="cls-4" d="M842.1,144.3c0-.2-.2-.4-.3-.5-.2-.3-.5-.4-.8-.6-.5-.2-1.2,0-1.6.3-.3.2-.6.5-.7,1,0,.4,0,.9.2,1.2.2.3.5.5.8.6.4.3.9.4,1.3.2.4-.1.7-.3.9-.7.3-.3.3-.7.3-1.1v-.4Z"/>
  <path class="cls-4" d="M844.4,148.7c-.1-.2-.3-.4-.5-.6-.4-.3-.8-.6-1.3-.7-.4,0-.9,0-1.2.2-.3.2-.6.6-.7,1,0,.4,0,.9.2,1.2.2.3.6.6,1,.7,0,0,0,0,0,0,.2.2.3.4.6.5.5.2.9.2,1.4,0,.4-.2.8-.5.9-1,0-.5,0-.9-.2-1.4Z"/>
  <path class="cls-4" d="M849.2,152.3c0-.5-.2-.9-.4-1.3-.2-.3-.6-.6-1-.7-.4,0-.9,0-1.3.2-.7.5-.9,1.3-.6,2,0,0,0,.1,0,.2,0,.2,0,.3,0,.5,0,.1.1.3.2.4.2.4.7.6,1.1.7.5,0,.9-.1,1.3-.4.4-.4.6-1,.6-1.6Z"/>
  <path class="cls-4" d="M860.4,152.2c-.1-.4-.4-.8-.8-1.1-.6-.4-1.4-.6-2.1-.4-.4.1-.7.4-.9.8-.2.4-.3.9-.1,1.2.2.6.7,1,1.4,1.1.2.2.5.3.8.4.5.2,1.1,0,1.5-.4.4-.4.6-1.2.4-1.7Z"/>
  <path class="cls-4" d="M864.5,146.4c-.5-.8-1.5-1.3-2.4-1.2-.8,0-1.6.7-1.5,1.6,0,.7.5,1.3,1.2,1.5,0,.5.2,1.1.8,1.3.6.3,1.4.3,1.8-.3.4-.5.6-1,.6-1.6,0-.5-.2-1-.4-1.4Z"/>
  <path class="cls-4" d="M864,138.2c-.2-.3-.4-.5-.7-.7-.5-.3-1.1-.3-1.6-.1-.4.1-.7.4-.9.7-.2.3-.3.8-.1,1.2.1.4.4.7.7.9.2,0,.4.2.6.2.4.2.9.3,1.4,0,.2-.1.4-.3.6-.5.2-.3.3-.5.3-.9,0-.3-.1-.7-.3-.9Z"/>
  <g>
    <path class="cls-4" d="M873.1,134.9c-.5-.7-1.6-.8-2.4-.5-.4.1-.7.4-.9.7-.2.3-.3.8-.1,1.2.3.7,1,1.2,1.8,1,.2,0,.3,0,.5,0,.5,0,1.1-.2,1.4-.7.1-.2.2-.5.2-.7,0-.4-.2-.7-.5-1Z"/>
    <path class="cls-4" d="M872.1,137.4s0,0,0,0c0,0,0,0,0,0,0,0,0,0,0,0Z"/>
    <path class="cls-4" d="M871.7,137.4c0,0,.2,0,.3,0-.1,0-.2,0-.3,0,0,0,0,0,0,0Z"/>
  </g>
  <path class="cls-4" d="M851.4,124.5c0-.3,0-.6-.2-.8l-.3-.3c-.3-.4-.9-.5-1.3-.4-.4,0-.8.3-1,.6-.2.2-.3.5-.3.7-.3.6-.2,1.4.3,1.9.7.6,1.6.5,2.2,0,.2-.2.4-.5.5-.8.1-.3.2-.6.1-.9Z"/>
  <path class="cls-4" d="M840.5,130.5c-.5-.2-1,0-1.4.2-.2.1-.4.4-.6.6-.2.3-.2.5-.2.9,0,.5.3,1,.8,1.3.3.2.7.2,1.1.1,0,0,0,0,0,0,.4,0,.9-.2,1.1-.5.2-.3.4-.6.4-.9,0-.8-.4-1.5-1.2-1.7Z"/>
  <path class="cls-4" d="M836.2,140.7c-.5,0-.9.2-1.2.6-.2.3-.4.5-.4.9,0,.3,0,.7.2,1,.1.2.3.3.5.5.3.2.6.3,1,.3.4,0,.9-.2,1.1-.5.3-.3.5-.7.4-1.1,0-.8-.7-1.6-1.6-1.6Z"/>
  <path class="cls-4" d="M854.8,146h0c0,0,0-.3-.2-.5-.2-.3-.5-.6-.8-.7-.2,0-.5-.2-.7-.1-.3,0-.6.1-.9.3-.3.2-.6.6-.7,1,0,.4,0,.9.2,1.2.2.3.6.6,1,.7,0,0,.1,0,.2,0,.3.1.6.2.8.1.3,0,.5-.1.7-.3.3-.2.4-.5.5-.8.1-.3,0-.7,0-.9Z"/>
  <path class="cls-4" d="M850.4,137.5c-.1-.4-.4-.8-.8-.9-.8-.4-1.8-.2-2.2.6,0,0,0,0,0,.1-.2.4-.3.8-.1,1.2.1.4.4.8.8.9.8.4,1.8.2,2.2-.6,0,0,0,0,0-.1.2-.4.3-.8.1-1.2Z"/>
  <path class="cls-4" d="M847.3,142.4s0,0,0,0c-.4,0-.8.2-1.1.5-.3.3-.5.7-.4,1.1,0,.4.2.8.5,1.1.3.3.7.4,1.1.4,0,0,0,0,0,0,.4,0,.9-.2,1.1-.5.3-.3.5-.7.4-1.1,0-.8-.7-1.6-1.6-1.6Z"/>
  <path class="cls-30" d="M706.4,141.2c-2.3,0-4.4-.9-6-2.5-1.7-1.6-2.6-3.9-2.6-6.3,0-4.8,4-8.9,8.8-9,2.4,0,4.6.8,6.3,2.4,1.7,1.6,2.6,3.9,2.6,6.3,0,4.8-4,8.9-8.8,9,0,0-.2,0-.2,0ZM706.8,128.3s0,0-.1,0c-2.2,0-4.1,1.9-4.1,4.2,0,1.1.4,2,1.1,2.8.7.7,1.6,1.1,2.7,1.1,2.2,0,4-1.9,4-4.2h0c0-1.1-.3-2-1.1-2.8-.7-.7-1.6-1.1-2.6-1.1Z"/>
  <path class="cls-1" d="M710.3,130.8c1.5-.5,3.2-1.1,4.7-1.6-.4-1.2-1.1-2.4-2-3.3-1.4-1.4-2.9-2.1-5.4-2.4-.1,1.6-.2,3.2-.4,4.8.9,0,1.6.5,2.2,1.1.4.4.6.9.8,1.4Z"/>
  <path class="cls-30" d="M727.1,141.2c-2.3,0-4.4-.9-6-2.5-1.7-1.6-2.6-3.9-2.6-6.3,0-4.8,4-8.9,8.8-9,2.4,0,4.6.8,6.3,2.4,1.7,1.6,2.6,3.9,2.6,6.3,0,4.8-4,8.9-8.8,9,0,0-.2,0-.2,0ZM727.5,128.3s0,0-.1,0c-2.2,0-4.1,1.9-4.1,4.2,0,1.1.4,2,1.1,2.8.7.7,1.7,1.1,2.7,1.1,2.2,0,4.1-1.9,4.1-4.2h0c0-1.1-.4-2-1.1-2.8-.7-.7-1.6-1.1-2.6-1.1Z"/>
  <path class="cls-1" d="M733.5,125.9c-1.4-1.4-3.2-2.2-5.2-2.4-.2,1.6-.4,3.2-.6,4.8.9,0,1.7.4,2.3,1,.7.7,1.1,1.7,1.1,2.8h0c0,2.3-1.8,4.1-4.1,4.2-1,0-2-.3-2.7-1.1-.7-.7-1.1-1.7-1.1-2.8,0-.4,0-.8.2-1.1-1.4-1-2.7-2-4-3-.7,1.2-1,2.6-1,4.1,0,2.4.9,4.6,2.6,6.3,1.6,1.6,3.8,2.5,6,2.5s.2,0,.2,0c4.8-.1,8.8-4.2,8.8-9,0-2.4-.9-4.6-2.6-6.3Z"/>
  <path class="cls-30" d="M747.7,141.2c-2.3,0-4.4-.9-6-2.5-1.7-1.6-2.6-3.9-2.6-6.3,0-4.8,4-8.9,8.8-9,2.4,0,4.6.8,6.3,2.4,1.7,1.6,2.6,3.9,2.6,6.3,0,4.8-4,8.9-8.8,9,0,0-.2,0-.2,0ZM748.2,128.3s0,0-.1,0c-2.2,0-4.1,1.9-4.1,4.2,0,1.1.4,2,1.1,2.8.7.7,1.7,1.1,2.8,1.1,2.2,0,4.1-1.9,4.1-4.2h0c0-1.1-.4-2-1.2-2.8-.7-.7-1.7-1.1-2.7-1.1Z"/>
  <path class="cls-1" d="M752,132.4c-.2,2.1-2,3.8-4.1,3.9-1,0-2-.3-2.8-1.1-.2-.2-.3-.4-.5-.6-1.5.7-2.9,1.4-4.4,2.1.4.7.9,1.4,1.5,2,1.6,1.6,3.8,2.5,6,2.5s.2,0,.2,0c4.7-.1,8.6-4,8.8-8.8h-4.8Z"/>
  <polygon class="cls-52" points="692.4 79.6 671.6 79.6 671.9 76 692.7 76 692.4 79.6"/>
  <polygon class="cls-52" points="691.8 85.8 671 85.8 671.3 82.2 692.1 82.2 691.8 85.8"/>
  <polygon class="cls-52" points="691.2 91.9 670.4 91.9 670.7 88.4 691.5 88.4 691.2 91.9"/>
  <polygon class="cls-52" points="690.6 98.1 669.8 98.1 670.1 94.6 690.9 94.6 690.6 98.1"/>
  <polygon class="cls-52" points="689.7 106.8 604.7 106.8 605 103.3 690 103.3 689.7 106.8"/>
  <polygon class="cls-11" points="667.7 76 665.5 98.2 605.3 98.2 608.1 75.9 667.7 76"/>
  <polygon class="cls-15" points="665.2 82.8 663.9 96.8 637.7 96.8 639.3 82.8 665.2 82.8"/>
  <path class="cls-8" d="M323.4,172.9v13.5s-.5.2-.5.2l52.9-1c1,0,1.9-.9,1.9-1.9v-10.1c0-1.1-.9-1.9-1.9-1.9l-52.1,1.2h-.2Z"/>
  <path class="cls-8" d="M309.2,204.9h54.7c1.8,0,3.2-1.4,3.1-3.1l-.2-8.3c0-1.7-1.4-3.1-3.1-3.1h-54.4s-.1,14.5-.1,14.5Z"/>
  <polygon class="cls-38" points="323.8 179 356.7 178.3 356.6 177.1 323.7 177.8 323.8 179"/>
  <rect class="cls-38" x="348.3" y="181.8" width="24.6" height="1.2" transform="translate(-3.2 6.5) rotate(-1)"/>
  <rect class="cls-38" x="309.1" y="195.7" width="14.5" height="1.1"/>
  <rect class="cls-38" x="326.9" y="200.3" width="33.1" height="1.4"/>
  <path class="cls-42" d="M881.3,358.2c-2.3-4.1-5-8.6-6.1-10.1-5.3-.2-34.5-.6-41.7-.3.5,2,2,5.6,3.3,8.6l-3.7,1.6c0-.1-1.2-2.7-2.2-5.4-2-5.2-2.1-7.1-.8-8.2.8-.7,1.2-1.1,23.9-.8.2,0,21.8.2,22.7.5,1,.2,1.4.4,8.1,12l-3.5,2Z"/>
  <path class="cls-43" d="M935.1,420.2s-125.8.8-127.7-.6c-2.7-2.1-3.3-62.7-3.3-62.7l-9.6-.7s6.2,2,7.4,2.6c.6.3-.6,61.7,2.2,64.1,1.7,1.5,120,1.1,130.4,1,0-1.2-.1-2.4-.2-3.6h.7s0,0,0,0Z"/>
  <path class="cls-24" d="M862.8,409l.2,5.9c0,1.7,1.5,3,3.1,3h15.4c1.8,0,3.3-1.6,3.1-3.4l-.5-5.9c-.1-1.6-1.5-2.9-3.1-2.9h-15.2c-1.8,0-3.2,1.5-3.1,3.3Z"/>
  <path class="cls-25" d="M864.9,409.7l.2,4.6c0,2,1.7,3.6,3.8,3.6h14.2c2.2,0,3.9-1.9,3.7-4.1l-.4-4.6c-.2-2-1.8-3.5-3.7-3.5h-14c-2.1,0-3.8,1.8-3.8,3.9Z"/>
  <g>
    <path class="cls-43" d="M836.3,355.5c-.3-.8-.7-1.6-1-2.4h-4.3c.3.9.6,1.7.9,2.4h4.4Z"/>
    <path class="cls-43" d="M882.4,352.2h-4.7c.5,1,1.1,2,1.7,3h4.7c-.6-1.1-1.2-2.1-1.7-3Z"/>
  </g>
  <polygon class="cls-53" points="804.8 77.7 804.8 84.5 836.2 84.5 836.3 78.2 804.8 77.7"/>
  <polygon class="cls-53" points="804.8 89 804.8 91.5 835.8 91.5 835.9 89.6 804.8 89"/>
  <polygon class="cls-53" points="804.1 94.3 804.1 96.8 835.4 96.8 835.3 94.9 804.1 94.3"/>
  <polygon class="cls-53" points="834.7 100 834.7 102.4 803.4 102.4 803.4 100.5 834.7 100"/>
  <polygon class="cls-53" points="803.4 104.4 803.4 106.7 834.6 106.7 834.5 104.9 803.4 104.4"/>
  <ellipse class="cls-32" cx="827.6" cy="78.5" rx="4.2" ry="3.8"/>
  <path class="cls-6" d="M829.2,76.8c0,1.2-1.1,2.5-2.5,2.9-1.4.4-2.5-.2-2.5-1.4s1.1-2.5,2.5-2.9c1.4-.4,2.5.2,2.5,1.4Z"/>
  <path class="cls-30" d="M793,149.8s-1.4,18.5-4.5,24.3h25.6c4-4.6,3.9-24.3,3.9-24.3h-25Z"/>
  <path class="cls-43" d="M798,360.9s2.1,84,1.3,84.2c-.7.2-3.7,0-3.7,0v-84.3h2.4Z"/>
  <path class="cls-46" d="M447.2,40c0,7.3-.3,46.7-8.5,56h42c8.2-6.1,8.1-47.5,8-56h-41.4Z"/>
  <ellipse class="cls-30" cx="466.1" cy="44.6" rx="4.2" ry="3.4"/>
  <path class="cls-36" d="M467.1,43.9c-.6,1.2-2,2-3,2-1,0-1.4-1.1-.8-2.2.6-1.2,2-2,3-2,1,0,1.4,1.1.8,2.2Z"/>
  <path class="cls-53" d="M479,64.5c-2.5-1.4-4.3.7-6.8.7-1.2,0-2.3-.7-3.5-.8-1.2,0-2.1.5-3.2.7-1.5.3-3-.2-4.5-.4-1.2-.1-2.4.1-3.6.1-1.2,0-2-.7-3.2-.8-1.2,0-2.3.4-3.2,1-1.4.9-.4,3.3,1.2,2.7,1.3-.5,1.8-.5,3.1,0,.9.3,1.8.3,2.8.2,2.4-.3,4.6.5,6.9.3,1,0,1.8-.4,2.8-.6,1.1-.2,2.1.3,3.2.5.9.2,1.8.1,2.7,0,1.1-.2,2.9-1.4,4-.9,1.7.8,3.2-1.7,1.4-2.6Z"/>
  <path class="cls-53" d="M477.4,72.5c-1.8-.5-3.6-.5-5.4.1-1.3.5-1.6.2-2.9-.2-.8-.3-1.6-.3-2.5-.3-2.3.2-4.6.6-6.9.7-2.3,0-4.7-.2-7,.3-1.7.4-1.2,3.2.5,3,2.2-.3,4.4-.1,6.6-.2,2.2-.1,4.4-.5,6.6-.7,1.2,0,1.8.2,2.8.7.6.3,1.2.4,1.8.3.8-.1,1.5-.6,2.3-.8,1.2-.4,2.3-.3,3.4,0,1.9.5,2.6-2.4.7-3Z"/>
  <path class="cls-53" d="M475.9,79.5c-1-.3-2.1-.4-3.1-.4-1.3,0-2.4-.1-3.7-.2-.9,0-1.7.2-2.6.4-1.2.3-2.4.3-3.6.3-4.2,0-8.5-.8-12.4,1-1.6.7-.4,3.3,1.2,2.7,3.9-1.3,7.6-.5,11.6-.6,1.9,0,3.9-.8,5.7-.7,2,.1,4.1,0,6.1.4,1.9.4,2.6-2.4.7-2.9Z"/>
  <path class="cls-53" d="M474.8,85.9c-1.1,0-2.1,0-3.2.2-1.3.2-2.6.9-3.9.8-1-.1-1.9-.6-3-.7-1.2-.1-2.4-.2-3.6-.1-1.2,0-2.2.3-3.3.5-1.3.2-2.5-.1-3.8-.2-2.3-.1-4.6.3-6.7,1.2-1.7.7-1,3.5.9,2.9,2.4-.8,4.7-1.1,7.2-.7,2.3.3,4.3-.6,6.6-.5,1.1,0,2.2,0,3.3.3.9.2,1.7.6,2.6.5,1.1,0,2.1-.5,3.2-.7,1.2-.3,2.5-.3,3.8-.3,2,0,1.9-3.1,0-3.1Z"/>
  <path class="cls-53" d="M477.9,50.4c-7.9-.4-15.9.4-23.7,1.3-1.8.2-3.3,1.5-3.2,3.4,0,1.7,1.6,3.4,3.4,3.2,7.9-.7,15.8-.8,23.7-1.3,4.3-.3,4-6.4-.2-6.6Z"/>
  <g>
    <g>
      <polygon class="cls-51" points="346.2 374.6 346.2 357.6 411.3 357.6 411.3 377.4 346.2 374.6"/>
      <polygon class="cls-22" points="329.3 374.6 329.3 357.6 394.8 357.6 394.8 377.4 329.3 374.6"/>
      <polygon class="cls-20" points="398.3 373.4 398.3 366 408.9 366 408.9 372.6 398.3 373.4"/>
    </g>
    <g>
      <polygon class="cls-56" points="326.9 374.6 326.9 357.6 392.3 357.6 392.3 377.4 326.9 374.6"/>
      <polygon class="cls-28" points="310.3 374.6 310.3 357.6 375.8 357.6 375.8 377.4 310.3 374.6"/>
      <polygon class="cls-20" points="379.3 373.4 379.3 366 389.9 366 389.9 372.6 379.3 373.4"/>
    </g>
    <g>
      <polygon class="cls-47" points="306.8 374.6 306.8 357.6 371.9 357.6 371.9 377.4 306.8 374.6"/>
      <polygon class="cls-54" points="290.3 374.6 290.3 357.6 355.4 357.6 355.4 377.4 290.3 374.6"/>
      <polygon class="cls-20" points="358.9 373.4 358.9 366 369.4 366 369.4 372.6 358.9 373.4"/>
    </g>
    <polygon class="cls-44" points="285.7 374.6 285.7 357.6 350.8 357.6 350.8 377.4 285.7 374.6"/>
    <polygon class="cls-1" points="269.1 374.6 269.1 357.6 334.3 357.6 334.3 377.4 269.1 374.6"/>
    <polygon class="cls-44" points="269.1 369.1 269.1 374.7 334.3 377.5 334.3 369.1 269.1 369.1"/>
    <polygon class="cls-20" points="338.1 373.4 338.1 366 348.3 366 348.3 372.6 338.1 373.4"/>
    <rect class="cls-16" x="263.4" y="371.3" width="153.2" height="78.6"/>
    <rect class="cls-32" x="263.4" y="371.3" width="80.2" height="78.6"/>
    <rect class="cls-17" x="284.7" y="384.2" width="33.2" height="10.4" rx="5.1" ry="5.1"/>
    <path class="cls-20" d="M313,395.4h-23.5c-3.1,0-5.7-2.5-5.7-5.7v-.7c0-3.1,2.5-5.7,5.7-5.7h23.5c3.1,0,5.7,2.5,5.7,5.7v.7c0,3.1-2.5,5.7-5.7,5.7ZM289.6,385c-2.2,0-4.1,1.8-4.1,4.1v.7c0,2.2,1.8,4.1,4.1,4.1h23.5c2.2,0,4.1-1.8,4.1-4.1v-.7c0-2.2-1.8-4.1-4.1-4.1h-23.5Z"/>
    <rect class="cls-48" x="342" y="371.3" width="3.6" height="78.6"/>
  </g>
  <path class="cls-49" d="M782,321.5h-60.9c-.9,0-1.6-.7-1.6-1.6h0c0-.9.7-1.6,1.6-1.6h60.9c.9,0,1.6.7,1.6,1.6h0c0,.9-.7,1.6-1.6,1.6Z"/>
</svg>