<?xml version="1.0" encoding="utf-8"?>
<!-- Generator: Adobe Illustrator 28.3.0, SVG Export Plug-In . SVG Version: 6.00 Build 0)  -->
<svg version="1.1" id="Layer_1" xmlns="http://www.w3.org/2000/svg" xmlns:xlink="http://www.w3.org/1999/xlink" x="0px" y="0px"
	 viewBox="0 0 550 550" style="enable-background:new 0 0 550 550;" xml:space="preserve">
<style type="text/css">
	.st0{fill:#E1E1E1;}
	.st1{fill:#ECECEC;}
	.st2{fill:#FFFFFF;}
	.st3{fill:#F5F5F5;}
	.st4{fill:#1A2E35;}
	.st5{fill:#FF735D;}
	.st6{opacity:0.5;}
	.st7{fill:#375A64;}
	.st8{fill:#FFBF9D;}
	.st9{fill:#FF9A6C;}
	.st10{opacity:0.6;}
</style>
<g>
	<g>
		<path class="st0" d="M535.2,47.6c1.2,8.5-5.1,14.4-18.3,16.2l-26.4,3.6l-6.7-48.9l25-3.5c12.9-1.8,19.9,2.6,20.9,10.2
			c0.6,4.7-1.2,8.8-5.1,11.5C530.4,38,534.4,41.7,535.2,47.6z M498.8,26.6l1.3,9.4l9.5-1.3c4.6-0.6,6.8-2.6,6.3-5.7
			c-0.4-3.1-3-4.4-7.6-3.7L498.8,26.6z M521,48c-0.5-3.4-3.2-4.6-8-4l-11.6,1.6l1.4,9.9l11.6-1.6C519.2,53.3,521.5,51.4,521,48z"/>
	</g>
	<g>
		<g>
			<rect x="24.6" y="329.6" class="st1" width="53.2" height="8.4"/>
		</g>
		<g>
			<rect x="24.6" y="360.3" class="st1" width="53.2" height="8.4"/>
		</g>
		<g>
			<rect x="24.6" y="345.5" class="st1" width="26.6" height="8.4"/>
		</g>
	</g>
	<g>
		<g>
			<polygon class="st1" points="218.6,401 177.8,401 177.8,367.5 198.9,367.5 198.9,374.6 184.8,374.6 184.8,394 211.5,394 
				211.5,386.9 218.6,386.9 			"/>
		</g>
		<g>
			<polygon class="st1" points="242.1,401 224.7,401 224.7,394 235,394 235,374.6 208.4,374.6 208.4,383.6 201.3,383.6 201.3,367.5 
				242.1,367.5 			"/>
		</g>
	</g>
	<g>
		<path class="st1" d="M540.7,117h7.1l-9.9,49.4h-7.1L540.7,117z"/>
	</g>
	<g>
		<g>
			<g>
				<g>
					<g>
						<g>
							<polygon class="st0" points="9,58.8 119.1,58.8 119.1,218.4 9.8,218.4 							"/>
						</g>
					</g>
				</g>
			</g>
			<g>
				<g>
					<g>
						<g>
							
								<rect x="0.8" y="59.6" transform="matrix(-1 -1.224647e-16 1.224647e-16 -1 110.5733 277.2525)" class="st2" width="109.1" height="158.1"/>
						</g>
					</g>
				</g>
				<g>
					<g>
						<g>
							<path class="st0" d="M110.6,58.8v159.6H0V58.8H110.6z M109.1,216.9V60.3H1.5v156.6H109.1z"/>
						</g>
					</g>
				</g>
			</g>
			<g>
				<g>
					<g>
						<g>
							<g>
								<rect x="14.3" y="76.7" class="st2" width="82" height="123.9"/>
							</g>
						</g>
					</g>
				</g>
				<g>
					<g>
						<g>
							<g>
								<g>
									<path class="st0" d="M14.3,76.7c0,0,0,0.2,0,0.6c0,0.4,0,1,0,1.8c0,1.6,0,3.8,0,6.8c0,5.9,0.1,14.6,0.1,25.5
										c0,21.8,0.1,52.8,0.2,89.2l-0.4-0.4c25,0,52.8,0,82,0h0l-0.4,0.4c0-46.7,0.1-89.8,0.1-123.9l0.3,0.3
										c-24.9-0.1-45.4-0.1-59.6-0.2c-7.1,0-12.7-0.1-16.5-0.1c-1.9,0-3.3,0-4.3,0C14.8,76.7,14.3,76.7,14.3,76.7s0.5,0,1.4,0
										c1,0,2.4,0,4.3,0c3.8,0,9.3,0,16.4-0.1c14.3,0,34.8-0.1,59.8-0.2l0.3,0l0,0.3c0,34.1,0,77.1,0.1,123.9l0,0.4h-0.4h0
										c-29.2,0-56.9,0-82,0l-0.4,0l0-0.4c0.1-36.5,0.1-67.5,0.2-89.4c0-10.9,0.1-19.5,0.1-25.4c0-2.9,0-5.2,0-6.7
										c0-0.7,0-1.3,0-1.7C14.3,76.9,14.3,76.7,14.3,76.7z"/>
								</g>
							</g>
						</g>
					</g>
				</g>
			</g>
			<g>
				<g>
					<g>
						<g>
							<g>
								<path class="st0" d="M0.4,217.7c-0.1-0.1,0.6-1.1,1.8-2.7c1.2-1.6,2.8-3.8,4.7-6.2c1.9-2.4,3.7-4.5,5.1-5.9
									c1.3-1.5,2.2-2.3,2.3-2.3c0.2,0.1-3,3.9-6.8,8.7C3.8,214,0.6,217.8,0.4,217.7z"/>
							</g>
						</g>
					</g>
				</g>
			</g>
			<g>
				<g>
					<g>
						<g>
							<g>
								<path class="st0" d="M0.7,59.6c0.2-0.1,3.3,3.6,7.1,8.3c3.7,4.7,6.6,8.7,6.5,8.8c-0.2,0.1-3.3-3.6-7.1-8.3
									C3.5,63.7,0.6,59.7,0.7,59.6z"/>
							</g>
						</g>
					</g>
				</g>
			</g>
			<g>
				<g>
					<g>
						<g>
							<g>
								<path class="st2" d="M109.8,59.7c-4.8,5.9-9.5,11.8-14.3,17.6"/>
							</g>
						</g>
					</g>
				</g>
				<g>
					<g>
						<g>
							<g>
								<g>
									<path class="st0" d="M95.6,77.3c-0.2-0.1,2.9-4.2,6.8-9.1c3.9-4.9,7.3-8.7,7.4-8.6c0.2,0.1-2.9,4.2-6.8,9.1
										C99.1,73.6,95.7,77.5,95.6,77.3z"/>
								</g>
							</g>
						</g>
					</g>
				</g>
			</g>
			<g>
				<g>
					<g>
						<g>
							<g>
								<path class="st0" d="M109.8,217.7c-0.2,0.1-3.3-3.6-7-8.2c-3.7-4.7-6.6-8.6-6.4-8.7c0.2-0.1,3.3,3.6,7,8.2
									C107.1,213.6,110,217.5,109.8,217.7z"/>
							</g>
						</g>
					</g>
				</g>
			</g>
		</g>
		<g>
			<g>
				<g>
					<path class="st0" d="M60.6,140.4H46.1l-1.7,4c-0.6,1.3-0.8,2.4-0.8,3.3c0,1.1,0.5,2,1.4,2.5c0.5,0.3,1.9,0.6,4,0.7v1.1H35.4
						v-1.1c1.5-0.2,2.7-0.8,3.6-1.8c0.9-1,2.1-3,3.5-6.2l14.6-32.6h0.6l14.7,33.5c1.4,3.2,2.6,5.2,3.5,6c0.7,0.6,1.6,1,2.9,1.1v1.1
						H59v-1.1h0.8c1.6,0,2.7-0.2,3.3-0.7c0.4-0.3,0.7-0.8,0.7-1.4c0-0.4-0.1-0.7-0.2-1.1c0-0.2-0.3-0.9-0.9-2.3L60.6,140.4z
						 M59.5,138.2l-6.1-14.1l-6.3,14.1H59.5z"/>
				</g>
			</g>
		</g>
	</g>
	<g>
		<g>
			<g>
				<g>
					<g>
						<path class="st3" d="M237.1,525.9c-1.9-1.7-6.3-6.9-2.9-13.1c1.2-2.3,3.8-3.4,6.2-4.4c2.4-1,4.8-1.9,6.8-3.5
							c3.7-3.1,4.7-8.3,7.1-12.5c2.8-4.8,8-8.4,13.6-8.1c6.3,0.3,11.6,5.5,14,11.4c2.4,5.9,2.5,12.4,2.5,18.8c0,3.5-0.1,7.5-2.7,9.9
							c-2.4,2.2-6,2.2-9.2,2.1c-11.5-0.4-23.1-0.7-34.6-1.1"/>
					</g>
				</g>
			</g>
		</g>
		<g>
			<g>
				<g>
					<g>
						<g>
							<path class="st0" d="M303.2,430.8h-91l16.4,97.7c0.7,4.3,3.8,7.6,7.8,8.7c0.1,0,0.2,0.1,0.3,0.1c0.3,0.1,0.5,0.2,0.8,0.2
								c0.6,0.1,1.2,0.2,1.9,0.2c0,0,0,0.1,0,0.1l0.4-0.1c0,0,0,0,0,0h40.5c0.8,0,1.5-0.1,2.2-0.2c4.8-0.7,8.6-4.6,9.2-9.6l7.9-67.3
								l0.4-2.7h0l3.1-26.7L303.2,430.8z M286.1,493.1h-9.3l0.9-28.4h10.8L286.1,493.1z M289.4,464.7h8.9l-3.3,28.4h-8L289.4,464.7z
								 M262.7,524.5l-0.6-24.6h13.4l-0.8,24.6H262.7z M248.2,499.9h13.1l0.6,24.6h-11.7L248.2,499.9z M249.2,524.5h-11
								c-1-6.7-2.4-15.3-3.9-24.6h12.9L249.2,524.5z M247.7,493.1l-2.2-28.4h15l0.7,28.4H247.7z M262,493.1l-0.7-28.4h15.4
								l-0.9,28.4H262z M261.2,457.9l-0.6-26.3h17.3l-0.9,26.3H261.2z M260.3,457.9h-15.4l-2-26.3h16.8L260.3,457.9z M244,457.9
								h-16.2c-0.6-3.6-1.1-7.1-1.6-10.1c-1.7-10.6-2.3-14.6-2.7-16.1H242L244,457.9z M244.6,464.7l2.2,28.4h-13.4
								c-0.5-2.9-0.9-5.8-1.4-8.7c-1.1-6.7-2.1-13.4-3.1-19.7H244.6z M232.4,493.1h-8.8l-4.8-28.4h9.1
								C229.3,473.5,230.9,483.2,232.4,493.1z M233.5,499.9c1.3,8.5,2.7,16.9,3.9,24.6h-8.4l-4.1-24.6H233.5z M275.7,524.5l0.8-24.6
								h9l-2.1,24.6H275.7z M277.9,457.9l0.9-26.3h12.5l-2.2,26.3H277.9z M222.6,431.7c0.4,1.9,2,12.2,4.2,26.3h-9.1l-4.4-26.3
								H222.6z M291.3,524.5h-7l2.1-24.6h7.8L291.3,524.5z M299.1,457.9H290l2.2-26.3h10L299.1,457.9z"/>
						</g>
					</g>
				</g>
			</g>
		</g>
	</g>
	<g>
		<g>
			<path class="st4" d="M550,540.6c0,0.2-122.6,0.3-273.9,0.3c-151.3,0-273.9-0.1-273.9-0.3c0-0.2,122.6-0.3,273.9-0.3
				C427.4,540.3,550,540.4,550,540.6z"/>
		</g>
	</g>
	<g>
		<g>
			<g>
				<rect x="65.2" y="9.4" class="st2" width="393.6" height="303.6"/>
			</g>
			<g>
				<rect x="88.3" y="201.4" class="st1" width="338.1" height="10.2"/>
			</g>
			<g>
				<rect x="88.1" y="187.9" class="st1" width="338.1" height="10.2"/>
			</g>
			<g>
				<rect x="88.1" y="174.2" class="st1" width="338.1" height="10.2"/>
			</g>
			<g>
				<rect x="88.1" y="160.6" class="st1" width="338.1" height="10.2"/>
			</g>
			<g>
				<rect x="88.3" y="215.4" class="st1" width="338.1" height="10.2"/>
			</g>
			<g>
				<rect x="88.3" y="228.6" class="st1" width="338.1" height="10.2"/>
			</g>
			<g>
				<rect x="88.3" y="242.3" class="st1" width="338.1" height="10.2"/>
			</g>
			<g>
				<rect x="88.3" y="255.4" class="st1" width="338.1" height="10.2"/>
			</g>
			<g>
				<rect x="88.3" y="267.9" class="st1" width="338.1" height="10.2"/>
			</g>
			<g>
				<rect x="88.3" y="282.2" class="st1" width="338.1" height="10.2"/>
			</g>
			<g>
				<rect x="65.2" y="9.1" class="st5" width="394" height="22.6"/>
			</g>
			<g>
				<g>
					<path class="st4" d="M92.7,55h-2.4v-0.9h5.9V55h-2.4v6.2h-1V55z"/>
				</g>
				<g>
					<path class="st4" d="M96,58.6c0-1.6,1.2-2.7,2.8-2.7c1.6,0,2.8,1.1,2.8,2.7s-1.2,2.8-2.8,2.8C97.2,61.3,96,60.2,96,58.6z
						 M100.7,58.6c0-1.1-0.8-1.9-1.8-1.9c-1,0-1.8,0.7-1.8,1.9c0,1.1,0.8,1.9,1.8,1.9C99.9,60.5,100.7,59.7,100.7,58.6z"/>
				</g>
				<g>
					<path class="st4" d="M105.3,56.5c0-0.4,0.3-0.7,0.7-0.7c0.4,0,0.7,0.3,0.7,0.7c0,0.4-0.3,0.7-0.7,0.7
						C105.6,57.2,105.3,56.9,105.3,56.5z M105.3,60.6c0-0.4,0.3-0.7,0.7-0.7c0.4,0,0.7,0.3,0.7,0.7c0,0.4-0.3,0.7-0.7,0.7
						C105.6,61.3,105.3,61,105.3,60.6z"/>
				</g>
			</g>
			<g>
				<g>
					<g>
						<path class="st4" d="M88.3,96.7l0.4-0.8c0.5,0.5,1.4,0.8,2.3,0.8c1.2,0,1.7-0.5,1.7-1.1c0-1.7-4.3-0.6-4.3-3.2
							c0-1.1,0.8-2,2.7-2c0.8,0,1.7,0.2,2.3,0.6l-0.3,0.8c-0.6-0.4-1.3-0.6-1.9-0.6c-1.2,0-1.7,0.5-1.7,1.1c0,1.7,4.3,0.6,4.3,3.2
							c0,1.1-0.9,2-2.7,2C89.9,97.6,88.9,97.3,88.3,96.7z"/>
					</g>
					<g>
						<path class="st4" d="M100,92.2v5.3h-0.9v-0.8c-0.4,0.6-1.1,0.9-1.8,0.9c-1.4,0-2.3-0.8-2.3-2.3v-3.1h1v3c0,1,0.5,1.6,1.4,1.6
							c1,0,1.6-0.6,1.6-1.8v-2.8H100z"/>
					</g>
					<g>
						<path class="st4" d="M107.3,94.9c0,1.6-1.1,2.7-2.7,2.7c-0.8,0-1.5-0.3-1.9-0.9v0.8h-0.9v-7.5h1V93c0.4-0.6,1.1-0.9,1.9-0.9
							C106.2,92.2,107.3,93.3,107.3,94.9z M106.4,94.9c0-1.1-0.8-1.9-1.8-1.9c-1,0-1.8,0.7-1.8,1.9c0,1.1,0.8,1.9,1.8,1.9
							C105.6,96.8,106.4,96,106.4,94.9z"/>
					</g>
					<g>
						<path class="st4" d="M106.8,99.2l0.3-0.7c0.2,0.2,0.5,0.3,0.8,0.3c0.5,0,0.8-0.3,0.8-0.9v-5.6h1v5.6c0,1.1-0.6,1.8-1.7,1.8
							C107.5,99.6,107.1,99.5,106.8,99.2z M108.6,90.6c0-0.4,0.3-0.6,0.7-0.6c0.4,0,0.7,0.3,0.7,0.6c0,0.4-0.3,0.6-0.7,0.6
							C108.8,91.2,108.6,90.9,108.6,90.6z"/>
					</g>
					<g>
						<path class="st4" d="M116.3,95.2H112c0.1,0.9,0.9,1.6,1.9,1.6c0.6,0,1.1-0.2,1.5-0.6l0.5,0.6c-0.5,0.6-1.2,0.9-2.1,0.9
							c-1.7,0-2.9-1.1-2.9-2.7c0-1.6,1.1-2.7,2.7-2.7c1.5,0,2.6,1.1,2.6,2.7C116.3,95,116.3,95.1,116.3,95.2z M112,94.5h3.4
							c-0.1-0.9-0.8-1.5-1.7-1.5C112.8,93,112.1,93.6,112,94.5z"/>
					</g>
					<g>
						<path class="st4" d="M117.2,94.9c0-1.6,1.2-2.7,2.8-2.7c1,0,1.7,0.4,2.2,1.1l-0.7,0.5c-0.3-0.5-0.9-0.8-1.4-0.8
							c-1,0-1.8,0.7-1.8,1.9c0,1.2,0.8,1.9,1.8,1.9c0.6,0,1.1-0.2,1.4-0.8l0.7,0.5c-0.4,0.7-1.2,1.1-2.2,1.1
							C118.3,97.6,117.2,96.5,117.2,94.9z"/>
					</g>
					<g>
						<path class="st4" d="M126.5,97.2c-0.3,0.3-0.7,0.4-1.2,0.4c-1.1,0-1.7-0.6-1.7-1.7V93h-0.9v-0.8h0.9v-1.2h1v1.2h1.5V93h-1.5
							v2.9c0,0.6,0.3,0.9,0.8,0.9c0.3,0,0.6-0.1,0.8-0.3L126.5,97.2z"/>
					</g>
				</g>
				<g>
					<path class="st4" d="M129.8,92.9c0-0.4,0.3-0.7,0.7-0.7c0.4,0,0.7,0.3,0.7,0.7c0,0.4-0.3,0.7-0.7,0.7
						C130.1,93.6,129.8,93.3,129.8,92.9z M129.8,96.9c0-0.4,0.3-0.7,0.7-0.7c0.4,0,0.7,0.3,0.7,0.7c0,0.4-0.3,0.7-0.7,0.7
						C130.1,97.6,129.8,97.3,129.8,96.9z"/>
				</g>
			</g>
			<g>
				<path class="st2" d="M79,20.4c0,1.4-1.1,2.4-2.4,2.4c-1.4,0-2.4-1.1-2.4-2.4c0-1.4,1.1-2.4,2.4-2.4C77.9,17.9,79,19,79,20.4z"/>
			</g>
			<g>
				<path class="st2" d="M87.7,20.4c0,1.4-1.1,2.4-2.4,2.4c-1.4,0-2.4-1.1-2.4-2.4c0-1.4,1.1-2.4,2.4-2.4
					C86.6,17.9,87.7,19,87.7,20.4z"/>
			</g>
			<g>
				<path class="st2" d="M96.4,20.4c0,1.4-1.1,2.4-2.4,2.4c-1.4,0-2.4-1.1-2.4-2.4c0-1.4,1.1-2.4,2.4-2.4
					C95.3,17.9,96.4,19,96.4,20.4z"/>
			</g>
			<g>
				<g>
					<path class="st4" d="M157.1,140c0,0,0-0.1,0-0.3c0-0.2,0-0.5,0-0.8c0-0.7,0-1.8,0-3.1c0-2.7-0.1-6.6-0.1-11.5l0.2,0.2
						c-15.6,0-41.4,0.1-70.6,0.1h0c0.6-0.6,0.2-0.2,0.3-0.3v0v0v0v0.1v0.1v0.3v0.5l0,1c0,0.7,0,1.3,0,2c0,1.3,0,2.6,0,4
						c0,2.6,0,5.2,0,7.7l-0.3-0.3c20,0.1,37.6,0.1,50.3,0.1c6.3,0,11.4,0.1,14.9,0.1c1.7,0,3.1,0,4,0c0.4,0,0.8,0,1.1,0
						C157,140,157.1,140,157.1,140c0,0-0.1,0-0.3,0c-0.3,0-0.6,0-1,0c-0.9,0-2.3,0-4,0c-3.5,0-8.5,0.1-14.8,0.1
						c-12.7,0-30.4,0.1-50.5,0.1l-0.3,0l0-0.3c0-2.5,0-5.1,0-7.7c0-1.3,0-2.6,0-4c0-0.7,0-1.3,0-2v-1l0-0.5v-0.3v-0.1v-0.1v0v0v0
						c0.1-0.1-0.3,0.3,0.3-0.3h0c29.2,0.1,55,0.1,70.6,0.1l0.2,0l0,0.2c0,5-0.1,8.9-0.1,11.6c0,1.3,0,2.3,0,3c0,0.3,0,0.6,0,0.8
						C157.1,139.9,157.1,140,157.1,140z"/>
				</g>
			</g>
			<g>
				<g>
					<path class="st4" d="M200.7,140c0,0,0-0.1,0-0.3c0-0.2,0-0.5,0-0.8c0-0.8,0-1.8-0.1-3.1c0-2.8-0.1-6.6-0.1-11.4l0.2,0.2
						c-9.9,0-23.5,0.1-38.7,0.1c-0.3,0.3,0.4-0.4,0.3-0.3v0v0v0v0v0.1v0.1v0.3l0,0.5l0,1c0,0.7,0,1.4,0,2c0,1.3,0,2.7,0,4
						c0,2.6,0,5.2,0,7.6l-0.3-0.3c11.1,0.1,20.7,0.1,27.6,0.1c3.4,0,6.1,0.1,8.1,0.1c0.9,0,1.6,0,2.2,0
						C200.4,140,200.7,140,200.7,140c0,0-0.2,0-0.7,0c-0.5,0-1.2,0-2.1,0c-1.9,0-4.6,0-8,0.1c-6.9,0-16.6,0.1-27.8,0.1l-0.3,0l0-0.3
						c0-2.4,0-5,0-7.6c0-1.3,0-2.6,0-4c0-0.7,0-1.4,0-2l0-1v-0.5v-0.3v-0.1v-0.1v0v0v0v0c-0.1,0.1,0.6-0.6,0.3-0.3
						c15.1,0,28.8,0.1,38.7,0.1l0.2,0l0,0.2c0,4.8-0.1,8.8-0.1,11.6c0,1.3,0,2.3-0.1,3.1C200.7,139.7,200.7,140,200.7,140z"/>
				</g>
			</g>
			<g>
				<path class="st4" d="M93.7,130.2h-2.5v-0.9h6.1v0.9h-2.5v6.5h-1V130.2z"/>
			</g>
			<g>
				<path class="st4" d="M98,129.3c0-0.4,0.3-0.7,0.7-0.7c0.4,0,0.7,0.3,0.7,0.6c0,0.4-0.3,0.7-0.7,0.7
					C98.3,129.9,98,129.7,98,129.3z M98.2,131h1v5.6h-1V131z"/>
			</g>
			<g>
				<path class="st4" d="M104.3,136.3c-0.3,0.3-0.8,0.4-1.2,0.4c-1.1,0-1.8-0.6-1.8-1.8v-3.1h-1V131h1v-1.2h1v1.2h1.6v0.8h-1.6v3
					c0,0.6,0.3,0.9,0.9,0.9c0.3,0,0.6-0.1,0.8-0.3L104.3,136.3z"/>
			</g>
			<g>
				<path class="st4" d="M105.5,128.8h1v7.9h-1V128.8z"/>
			</g>
			<g>
				<path class="st4" d="M113.5,134.2H109c0.1,1,0.9,1.6,2,1.6c0.7,0,1.2-0.2,1.6-0.7l0.6,0.7c-0.5,0.6-1.3,0.9-2.2,0.9
					c-1.8,0-3-1.2-3-2.9c0-1.7,1.2-2.9,2.8-2.9c1.6,0,2.8,1.2,2.8,2.9C113.6,134,113.5,134.1,113.5,134.2z M109,133.4h3.6
					c-0.1-0.9-0.8-1.6-1.8-1.6C109.8,131.8,109.1,132.5,109,133.4z"/>
			</g>
			<g>
				<polygon class="st4" points="145.9,131.5 152.6,131.5 149.2,134.9 				"/>
			</g>
			<g>
				<polygon class="st4" points="188.6,131.5 195.3,131.5 191.9,134.9 				"/>
			</g>
			<g>
				<g>
					<path class="st0" d="M446,299.3c0-1.8-0.1-70-0.2-182.4l0.2,0.2c-96,0-225,0-366.4,0.1h0l0.3-0.3c0,64.3,0,126,0,182.4
						l-0.3-0.3C293.4,299.1,443.3,299.3,446,299.3c-2.7,0-152.6,0.1-366.4,0.3l-0.3,0v-0.3c0-56.4,0-118.1,0-182.4v-0.3h0.3h0
						c141.4,0,270.4,0.1,366.4,0.1l0.2,0l0,0.2C446.1,229.3,446,297.4,446,299.3z"/>
				</g>
			</g>
			<g>
				<g>
					<path class="st0" d="M446,109.9c0,0,0-0.7,0-2.1c0-1.4,0-3.4,0-6c0-5.3,0-13.1-0.1-23.1l0.1,0.1C385.6,78.9,244,79,79,79.1h0
						l0.3-0.3c0,10.7,0,21.3,0,31.2l-0.3-0.3c102.8,0.1,194.5,0.1,260.5,0.1c33,0,59.6,0.1,78,0.1c9.2,0,16.3,0,21.1,0
						c2.4,0,4.2,0,5.5,0C445.3,109.9,446,109.9,446,109.9s-0.6,0-1.8,0c-1.2,0-3.1,0-5.5,0c-4.8,0-11.9,0-21.1,0
						c-18.3,0-44.9,0.1-77.9,0.1c-66.1,0-157.9,0.1-260.7,0.1l-0.3,0v-0.3c0-9.9,0-20.5,0-31.2v-0.3H79h0
						c165,0.1,306.6,0.2,366.9,0.2h0.1l0,0.1c0,10.1-0.1,17.9-0.1,23.2c0,2.6,0,4.6,0,6C446,109.3,446,109.9,446,109.9z"/>
				</g>
			</g>
			<g>
				<g>
					<path class="st0" d="M446,72.2c0,0,0-0.7,0-2.1c0-1.4,0-3.4,0-6c0-5.3,0-13.1-0.1-23.1l0.1,0.1c-60.4,0-201.9,0.1-366.9,0.2h0
						l0.3-0.3c0,10.7,0,21.3,0,31.2L79,71.8c102.8,0.1,194.5,0.1,260.5,0.1c33,0,59.6,0.1,78,0.1c9.2,0,16.3,0,21.1,0
						c2.4,0,4.2,0,5.5,0C445.3,72.1,446,72.2,446,72.2s-0.6,0-1.8,0c-1.2,0-3.1,0-5.5,0c-4.8,0-11.9,0-21.1,0
						c-18.3,0-44.9,0.1-77.9,0.1c-66.1,0-157.9,0.1-260.7,0.1l-0.3,0v-0.3c0-9.9,0-20.5,0-31.2v-0.3H79h0
						c165,0.1,306.6,0.2,366.9,0.2h0.1l0,0.1c0,10.1-0.1,17.9-0.1,23.2c0,2.6,0,4.6,0,6C446,71.5,446,72.2,446,72.2z"/>
				</g>
			</g>
			<g>
				<g>
					<path class="st4" d="M350.6,125.7c-1.3,0-2.3,0.9-2.3,2.1h0v8.1h0c0.2,1.5,1.5,2.7,3.2,2.7c1.7,0,3.1-1.2,3.2-2.7h0v-6.5h-0.6
						v6.3c0,1.3-1.2,2.4-2.6,2.4c-1.4,0-2.6-1.1-2.6-2.4v-7.8c0-0.9,0.8-1.6,1.7-1.6c0.9,0,1.7,0.7,1.7,1.6v6.6h0
						c-0.1,0.4-0.5,0.7-0.9,0.7c-0.5,0-0.8-0.3-0.9-0.7v-5.1h-0.6v4.9h0l0,0v0.2h0c0.1,0.7,0.8,1.2,1.5,1.2c0.8,0,1.4-0.5,1.5-1.2h0
						v-0.1c0,0,0-0.1,0-0.1h0v-6.4h0C352.9,126.6,351.8,125.7,350.6,125.7z"/>
				</g>
				<g>
					<g>
						<rect x="255.9" y="129.3" class="st4" width="9.2" height="1.5"/>
					</g>
					<g>
						<rect x="255.9" y="134.6" class="st4" width="9.2" height="1.5"/>
					</g>
					<g>
						<rect x="255.9" y="132.1" class="st4" width="4.6" height="1.5"/>
					</g>
				</g>
				<g>
					<g>
						<rect x="290.5" y="129.3" class="st4" width="9.2" height="1.5"/>
					</g>
					<g>
						<rect x="290.5" y="134.6" class="st4" width="9.2" height="1.5"/>
					</g>
					<g>
						<rect x="295.2" y="132.1" class="st4" width="4.6" height="1.5"/>
					</g>
				</g>
				<g>
					<g>
						<rect x="273.4" y="129.3" class="st4" width="9.2" height="1.5"/>
					</g>
					<g>
						<rect x="273.4" y="134.6" class="st4" width="9.2" height="1.5"/>
					</g>
					<g>
						<rect x="273.4" y="132.1" class="st4" width="9.2" height="1.5"/>
					</g>
				</g>
				<g>
					<g>
						<polygon class="st4" points="322.9,135.6 315.4,135.6 315.4,129.4 319.3,129.4 319.3,130.7 316.7,130.7 316.7,134.3 
							321.6,134.3 321.6,133 322.9,133 						"/>
					</g>
					<g>
						<polygon class="st4" points="327.3,135.6 324,135.6 324,134.3 326,134.3 326,130.7 321,130.7 321,132.4 319.7,132.4 
							319.7,129.4 327.3,129.4 						"/>
					</g>
					<g>
						<polygon class="st4" points="330.3,132 334.4,132 332.3,133.9 						"/>
					</g>
				</g>
				<g>
					<path class="st4" d="M239.4,132.7v-3.5h1.1v3.4c0,1.3,0.6,1.8,1.6,1.8c1,0,1.6-0.5,1.6-1.8v-3.4h1.1v3.5c0,1.8-1,2.8-2.7,2.8
						C240.4,135.4,239.4,134.5,239.4,132.7z"/>
				</g>
				<g>
					<path class="st4" d="M229,128.5h1l-1.4,7.2h-1L229,128.5z"/>
				</g>
				<g>
					<path class="st4" d="M219.3,133.7c0,1.2-1,2-3,2h-3.9v-7.2h3.7c1.9,0,2.8,0.8,2.8,1.9c0,0.7-0.3,1.2-1,1.6
						C218.8,132.2,219.3,132.8,219.3,133.7z M214.5,130v1.4h1.4c0.7,0,1-0.2,1-0.7c0-0.5-0.3-0.7-1-0.7H214.5z M217.2,133.5
						c0-0.5-0.4-0.7-1.1-0.7h-1.7v1.5h1.7C216.9,134.2,217.2,134,217.2,133.5z"/>
				</g>
				<g>
					<g>
						<path class="st0" d="M250.3,140.5c-0.2,0-0.3-3.7-0.3-8.3c0-4.6,0.1-8.3,0.3-8.3c0.2,0,0.3,3.7,0.3,8.3
							C250.6,136.7,250.4,140.5,250.3,140.5z"/>
					</g>
				</g>
				<g>
					<g>
						<path class="st0" d="M305.2,140.5c-0.2,0-0.3-3.7-0.3-8.3c0-4.6,0.1-8.3,0.3-8.3c0.2,0,0.3,3.7,0.3,8.3
							C305.5,136.7,305.3,140.5,305.2,140.5z"/>
					</g>
				</g>
				<g>
					<g>
						<path class="st0" d="M338.4,140.8c-0.2,0-0.3-3.7-0.3-8.3c0-4.6,0.1-8.3,0.3-8.3c0.2,0,0.3,3.7,0.3,8.3
							C338.7,137.1,338.5,140.8,338.4,140.8z"/>
					</g>
				</g>
				<g>
					<g>
						<path class="st0" d="M363.6,140.3c-0.2,0-0.3-3.7-0.3-8.3c0-4.6,0.1-8.3,0.3-8.3s0.3,3.7,0.3,8.3
							C363.9,136.6,363.7,140.3,363.6,140.3z"/>
					</g>
				</g>
				<g>
					<g>
						<path class="st4" d="M246,136.3c0,0.2-1.7,0.3-3.7,0.3c-2.1,0-3.7-0.1-3.7-0.3c0-0.2,1.7-0.3,3.7-0.3
							C244.4,136,246,136.1,246,136.3z"/>
					</g>
				</g>
			</g>
			<g>
				<path class="st4" d="M173.4,128.5v7.2h-1v-6.3h-1.6v-0.9H173.4z"/>
				<path class="st4" d="M180,134.8v0.9h-5.2V135l2.9-2.8c0.8-0.7,0.9-1.2,0.9-1.6c0-0.7-0.5-1.2-1.5-1.2c-0.8,0-1.4,0.2-1.8,0.8
					l-0.7-0.6c0.6-0.7,1.5-1.1,2.6-1.1c1.5,0,2.5,0.8,2.5,2c0,0.7-0.2,1.3-1.2,2.3l-2.2,2.1H180z"/>
			</g>
			<g>
				<g>
					<path class="st0" d="M446,148.2c0,0.2-82.2,0.3-183.5,0.3c-101.4,0-183.5-0.1-183.5-0.3c0-0.2,82.1-0.3,183.5-0.3
						C363.8,147.9,446,148.1,446,148.2z"/>
				</g>
			</g>
			<g>
				<g>
					<path class="st4" d="M423.3,166.4c0,0.2-74.6,0.3-166.6,0.3c-92.1,0-166.7-0.1-166.7-0.3c0-0.2,74.6-0.3,166.7-0.3
						C348.7,166.1,423.3,166.2,423.3,166.4z"/>
				</g>
			</g>
			<g>
				<g>
					<path class="st4" d="M423.3,179.9c0,0.2-74.6,0.3-166.6,0.3c-92.1,0-166.7-0.1-166.7-0.3c0-0.2,74.6-0.3,166.7-0.3
						C348.7,179.6,423.3,179.7,423.3,179.9z"/>
				</g>
			</g>
			<g>
				<g>
					<path class="st4" d="M423.3,193.4c0,0.2-74.6,0.3-166.6,0.3c-92.1,0-166.7-0.1-166.7-0.3c0-0.2,74.6-0.3,166.7-0.3
						C348.7,193.1,423.3,193.3,423.3,193.4z"/>
				</g>
			</g>
			<g>
				<g>
					<path class="st4" d="M423.3,206.9c0,0.2-74.6,0.3-166.6,0.3c-92.1,0-166.7-0.1-166.7-0.3c0-0.2,74.6-0.3,166.7-0.3
						C348.7,206.6,423.3,206.8,423.3,206.9z"/>
				</g>
			</g>
			<g>
				<g>
					<path class="st4" d="M423.3,220.4c0,0.2-74.6,0.3-166.6,0.3c-92.1,0-166.7-0.1-166.7-0.3c0-0.2,74.6-0.3,166.7-0.3
						C348.7,220.1,423.3,220.3,423.3,220.4z"/>
				</g>
			</g>
			<g>
				<g>
					<path class="st4" d="M423.3,233.9c0,0.2-74.6,0.3-166.6,0.3c-92.1,0-166.7-0.1-166.7-0.3c0-0.2,74.6-0.3,166.7-0.3
						C348.7,233.6,423.3,233.8,423.3,233.9z"/>
				</g>
			</g>
			<g>
				<g>
					<path class="st4" d="M423.3,247.4c0,0.2-74.6,0.3-166.6,0.3c-92.1,0-166.7-0.1-166.7-0.3c0-0.2,74.6-0.3,166.7-0.3
						C348.7,247.1,423.3,247.3,423.3,247.4z"/>
				</g>
			</g>
			<g>
				<g>
					<path class="st4" d="M423.6,260.5c0,0.2-74.6,0.3-166.6,0.3c-92.1,0-166.7-0.1-166.7-0.3c0-0.2,74.6-0.3,166.7-0.3
						C349,260.2,423.6,260.3,423.6,260.5z"/>
				</g>
			</g>
			<g>
				<g>
					<path class="st4" d="M423.8,273.5c0,0.2-74.6,0.3-166.6,0.3c-92.1,0-166.7-0.1-166.7-0.3s74.6-0.3,166.7-0.3
						C349.2,273.2,423.8,273.3,423.8,273.5z"/>
				</g>
			</g>
			<g>
				<g>
					<path class="st4" d="M90.8,286.5c0-0.2,74.6-0.3,166.6-0.3c92.1,0,166.7,0.1,166.7,0.3c0,0.2-74.6,0.3-166.7,0.3
						C165.4,286.8,90.8,286.7,90.8,286.5z"/>
				</g>
			</g>
			<g>
				<g>
					<path class="st4" d="M458.8,313c0-2.1-0.1-120.2-0.3-303.6l0.3,0.3c-111.8,0-247.4,0-393.6,0.1h0l0.3-0.3
						c0,109.4,0,212.8,0,303.6l-0.3-0.3C298.7,312.8,456.3,313,458.8,313c-2.5,0-160.1,0.1-393.6,0.3l-0.3,0l0-0.3
						c0-90.8,0-194.2,0-303.6l0-0.3h0.3h0c146.2,0,281.8,0,393.6,0.1h0.3l0,0.3C458.9,192.8,458.8,310.8,458.8,313z"/>
				</g>
			</g>
		</g>
		<g>
			<g>
				<path class="st5" d="M304.9,103.6v26.1c0,4.8,3.9,8.7,8.7,8.7h31.9c0.9,0,1.8,0.4,2.4,1.2l7.8,17.1l9.4-16.8
					c0.6-0.6,1.4-1,2.3-1H401c4.8,0,8.7-3.9,8.7-8.7v-26.7c0-4.8-3.9-8.7-8.7-8.7l-87.3,0.2C308.8,94.9,304.9,98.8,304.9,103.6z"/>
			</g>
			<g>
				<path class="st2" d="M326.8,126.2h-5.5V121l12.6-13.7l0.3-0.1c1.8-0.5,3.1-0.3,4.1,0.6c1.6,1.5,1.2,4.1,1.1,4.4l0,0.3
					L326.8,126.2z M323.2,124.4h2.9l11.6-12.7c0.1-0.7,0.1-2-0.6-2.5c-0.4-0.4-1.1-0.5-2.1-0.2l-11.7,12.8V124.4z"/>
			</g>
			<g>
				<path class="st2" d="M362.4,122.7v1.8H352v-14.3h10.1v1.8h-8.1v4.4h7.2v1.7h-7.2v4.6H362.4z"/>
				<path class="st2" d="M375.5,109.3v15.2h-1.9v-1.7c-0.9,1.2-2.3,1.8-3.9,1.8c-3.2,0-5.5-2.2-5.5-5.5c0-3.3,2.3-5.5,5.5-5.5
					c1.5,0,2.9,0.6,3.8,1.7v-6H375.5z M373.6,119.1c0-2.3-1.6-3.8-3.6-3.8c-2.1,0-3.7,1.5-3.7,3.8c0,2.3,1.6,3.8,3.7,3.8
					C372,122.9,373.6,121.4,373.6,119.1z"/>
				<path class="st2" d="M378.9,110.3c0-0.7,0.6-1.3,1.3-1.3c0.8,0,1.3,0.6,1.3,1.2c0,0.7-0.6,1.3-1.3,1.3
					C379.5,111.6,378.9,111,378.9,110.3z M379.2,113.7h2v10.8h-2V113.7z"/>
				<path class="st2" d="M391,123.9c-0.6,0.5-1.5,0.8-2.4,0.8c-2.2,0-3.4-1.2-3.4-3.4v-5.9h-1.8v-1.6h1.8v-2.4h2v2.4h3.1v1.6h-3.1
					v5.9c0,1.2,0.6,1.8,1.7,1.8c0.6,0,1.1-0.2,1.5-0.5L391,123.9z"/>
			</g>
		</g>
	</g>
	<g>
		<g>
			<g>
				<g>
					<path class="st5" d="M116,507.1c-3.1-0.2-4.1-4.6-2.9-7.5c1.2-2.9,3.5-5.5,3.5-8.6c0-2.7-1.7-5.2-1.9-7.9
						c-0.3-4.9,4.4-8.9,4.6-13.8c0.2-3.8-2.5-7.5-1.9-11.2c0.7-4,4.9-6.7,5.9-10.7c1-4.2-1.9-8.7-0.8-13c1.1-4.2,6.1-7.3,5.4-11.6
						c-0.2-1.4-1.1-2.7-1.5-4.1c-0.9-3.2,0.9-6.6,3-9.1c2.1-2.6,4.7-4.8,6-7.9c2-4.7,0.6-10.4,3-14.9c2-3.8,6.4-6.3,6.9-10.5
						c2.2,3.8,0,8.6,0.6,13c0.3,2.9,1.8,5.4,2.7,8.2c1.9,5.6,1.2,11.9-1.7,17c-1.9,3.4-4.9,6.5-4.7,10.4c0.2,4.7,4.9,8.1,5.7,12.7
						c1.2,6.6-5.9,12.5-4.9,19.2c0.3,1.7,1,3.3,1.2,5c0.5,5.9-6.2,10-7.2,15.8c-0.7,4.3,1.7,8.7,0.7,12.9c-0.8,3.2-3.6,6.2-2.9,9.4
						c0.3,1.4,1.2,2.6,1.8,3.9c1.1,2.5,0.7,5.7-1.2,7.8c-1.8,2.1-5.1,2.8-7.6,1.6"/>
				</g>
			</g>
			<g class="st6">
				<g>
					<g>
						<path class="st2" d="M136.8,503.8c-0.6-1.3-1.5-2.5-1.8-3.9c-0.7-3.3,2.1-6.2,2.9-9.4c1-4.2-1.4-8.6-0.7-12.9
							c1-5.8,7.7-9.9,7.2-15.8c-0.1-1.7-0.9-3.3-1.2-5c-1-6.6,6.1-12.6,4.9-19.2c-0.8-4.6-5.5-8-5.7-12.7c-0.2-3.9,2.8-7,4.7-10.4
							c2.9-5.1,3.5-11.4,1.7-17c-0.9-2.7-2.4-5.3-2.7-8.2c-0.5-4.4,1.7-9.2-0.6-13c-0.6,4.2-5,6.8-6.9,10.5c-2.4,4.5-1,10.2-3,14.9
							c-1.3,3.1-3.9,5.3-6,7.9c-2.1,2.6-3.9,5.9-3,9.1c0.4,1.4,1.2,2.6,1.5,4.1c0.7,4.3-4.3,7.4-5.4,11.6c-1.1,4.2,1.8,8.7,0.8,13
							c-1,4-5.2,6.6-5.9,10.7c-0.6,3.8,2,7.4,1.9,11.2c-0.2,4.9-4.9,8.9-4.6,13.8c0.2,2.7,1.9,5.2,1.9,7.9c0,3.1-2.3,5.7-3.5,8.6
							c-1.2,2.9-0.2,7.3,2.9,7.5l12.1,6.1c2.5,1.2,5.7,0.5,7.6-1.6C137.4,509.5,137.9,506.4,136.8,503.8z"/>
					</g>
				</g>
			</g>
			<g>
				<g>
					<path class="st5" d="M132.7,501c-0.7-1.1-1.4-3.4-1.2-4.6c0.3-1.8,3.4-3.4,4.1-6.4c1-3.9-0.8-10.9,0-14.9c1-5.4,6.6-9,6.4-14.3
						c-0.1-1.6,0.2-5.8,0-7.4c-0.6-6.1,4.7-10.1,3.9-16.1c-0.5-4.2-4.9-9.1-4.9-13.4c0-3.6,2.5-6.7,4.2-9.9
						c2.6-4.9,3.3-10.8,1.9-15.8c-0.7-2.5-1.8-4.7-2-7.3c-0.3-4,1.7-8.6-0.1-11.9c-0.6,3.9-4.3,6.5-6.1,10.1c-2.1,4.3-1.1,9.5-3,14
						c-1.2,2.9-3.4,5.2-5.2,7.7c-1.8,2.5-3.4,5.7-2.8,8.6c0.3,1.3,0.9,2.3,1.1,3.6c0.5,3.9-3.8,7.1-4.8,11c-1.1,4,1.2,7.9,0.2,11.9
						c-0.9,3.7-4.6,8.8-5.3,12.6c-0.7,3.5,2.5,5.8,2.3,9.3c-0.3,4.5-4.9,10-4.8,14.5c0.1,2.5,2.1,3.3,2,5.8
						c-0.1,2.9-2.5,8.6-3.6,11.4c-1.1,2.8-1,4.9,0.8,7.8l13.5,6.7C135.5,510.9,135.2,505.1,132.7,501z"/>
				</g>
			</g>
			<g>
				<g>
					<g>
						<path class="st4" d="M141.7,399.3c0,0,0,0.1,0,0.3c0,0.2,0,0.5,0,0.9c0,0.8,0,1.9-0.1,3.4c-0.1,1.5-0.4,3.3-1.2,5.2
							c-0.8,2-2.5,3.7-4.1,5.8c-0.8,1-1.5,2.2-1.9,3.5c-0.4,1.3-0.6,2.8-0.5,4.3c0.1,3,1.1,6.2,1.5,9.7c0.2,1.7,0.3,3.6-0.2,5.4
							c-0.2,0.9-0.6,1.8-1.1,2.6c-0.5,0.8-1.1,1.5-1.4,2.4c-0.8,1.7-0.5,3.6-0.1,5.5c0.2,0.9,0.4,1.9,0.5,2.9c0.1,1,0.1,2-0.1,3
							c-0.3,2-1.1,3.9-1.9,5.7c-0.8,1.8-1.6,3.5-2.1,5.3c-0.5,1.8-0.7,3.6-0.5,5.4c0.2,1.8,0.4,3.6,0.2,5.3c-0.2,1.8-1,3.3-1.7,4.8
							c-0.7,1.5-1.4,2.9-1.7,4.4c-0.6,3,0.3,5.8,0.2,8.5c0,2.7-0.9,4.9-1.5,6.9c-0.7,2-1.2,3.7-1.3,5.1c-0.1,1.4,0.1,2.6,0.3,3.3
							c0.3,0.7,0.5,1.1,0.5,1.1c0,0-0.2-0.3-0.6-1c-0.3-0.7-0.6-1.9-0.4-3.3c0.1-1.5,0.6-3.2,1.2-5.2c0.6-2,1.4-4.2,1.5-6.8
							c0-1.3-0.2-2.6-0.3-4.1c-0.1-1.4-0.2-2.9,0.1-4.5c0.6-3.1,2.9-5.8,3.3-9.2c0.2-1.7,0-3.4-0.2-5.2c-0.2-1.8-0.1-3.7,0.5-5.6
							c1-3.7,3.3-7,3.9-10.9c0.1-1,0.2-1.9,0.1-2.9c-0.1-1-0.3-1.9-0.5-2.9c-0.4-1.9-0.7-4,0.1-5.8c0.4-0.9,1-1.6,1.5-2.4
							c0.4-0.8,0.8-1.6,1-2.5c0.4-1.7,0.4-3.5,0.2-5.2c-0.4-3.4-1.3-6.6-1.5-9.7c-0.1-1.6,0.1-3.1,0.5-4.5c0.4-1.4,1.2-2.6,2-3.6
							c1.6-2.1,3.3-3.8,4.1-5.7c0.8-1.9,1.1-3.7,1.3-5.1c0.2-1.4,0.2-2.6,0.2-3.3c0-0.4,0-0.6,0-0.9
							C141.7,399.4,141.7,399.3,141.7,399.3z"/>
					</g>
				</g>
			</g>
			<g>
				<g>
					<path class="st5" d="M96.7,508.6c-4.4,0.6-6.9-5.2-6.1-9.6c0.8-4.4,3.3-8.6,2.5-12.9c-0.7-3.8-3.8-6.7-4.8-10.4
						c-1.8-6.7,3.7-13.5,2.6-20.4c-0.8-5.3-5.5-9.7-5.6-15.1c-0.2-5.8,5-10.6,5.2-16.4c0.3-6.2-5.1-11.6-4.6-17.8
						c0.4-6.1,6.4-11.8,4.3-17.5c-0.7-1.9-2.2-3.4-3.2-5.2c-2.1-4.2-0.6-9.3,1.6-13.4c2.2-4.1,5.2-8,6.2-12.6
						c1.5-7.1-2-14.6,0.1-21.5c1.7-5.8,7.1-10.5,6.7-16.5c4.1,4.6,2.4,11.9,4.3,17.9c1.2,3.9,4,7,6,10.6c4.1,7.2,5,16.1,2.3,24
						c-1.7,5.2-5,10.4-3.7,15.7c1.5,6.4,9,9.9,11.4,16c3.5,8.8-4.7,19-1.5,27.9c0.8,2.3,2.3,4.3,3,6.7c2.3,8-5.8,15.6-5.6,23.9
						c0.1,6.1,4.8,11.6,4.5,17.7c-0.2,4.7-3.3,9.5-1.4,13.9c0.8,1.9,2.4,3.3,3.6,5c2.2,3.2,2.5,7.7,0.5,11.1
						c-2,3.4-6.3,5.3-10.1,4.2"/>
				</g>
			</g>
			<g class="st6">
				<g>
					<g>
						<path class="st2" d="M124.7,498.4c-1.1-1.7-2.8-3.1-3.6-5c-1.9-4.3,1.2-9.1,1.4-13.9c0.3-6.1-4.4-11.6-4.5-17.7
							c-0.2-8.3,7.9-15.9,5.6-23.9c-0.7-2.3-2.2-4.4-3-6.7c-3.2-8.9,5-19.1,1.5-27.9c-2.4-6.2-9.8-9.6-11.4-16
							c-1.3-5.3,2-10.5,3.7-15.7c2.6-7.9,1.7-16.8-2.3-24c-2-3.5-4.8-6.7-6-10.6c-1.9-5.9-0.2-13.2-4.3-17.9c0.4,6-5,10.7-6.7,16.5
							c-2.1,6.9,1.4,14.5-0.1,21.5c-1,4.6-4,8.5-6.2,12.6c-2.2,4.1-3.7,9.2-1.6,13.4c0.9,1.8,2.4,3.3,3.2,5.2
							c2.2,5.8-3.9,11.4-4.3,17.5c-0.4,6.2,4.9,11.6,4.6,17.8c-0.2,5.8-5.4,10.6-5.2,16.4c0.1,5.4,4.8,9.7,5.6,15.1
							c1.1,6.9-4.4,13.7-2.6,20.4c1,3.7,4,6.7,4.8,10.4c0.8,4.4-1.7,8.6-2.5,12.9c-0.8,4.4,1.7,10.2,6.1,9.6l18.4,5.1
							c3.8,1,8.1-0.9,10.1-4.2C127.2,506.1,126.9,501.6,124.7,498.4z"/>
					</g>
				</g>
			</g>
			<g>
				<g>
					<path class="st5" d="M118.2,495.5c-1.2-1.3-2.9-4.3-2.9-6.1c0-2.6,3.7-5.6,3.9-10c0.3-5.7-4.1-14.9-4.1-20.6
						c-0.1-7.8,6.7-14.2,4.9-21.6c-0.5-2.2-1.4-8.1-2-10.2c-2.5-8.2,3.8-15.3,1-23.4c-1.9-5.7-9.3-11.3-10.5-17.3
						c-1-4.9,1.7-9.9,3.2-14.9c2.2-7.5,1.6-15.8-1.7-22.4c-1.6-3.2-3.8-6.1-4.8-9.6c-1.5-5.5,0-12.4-3.3-16.5
						c0.3,5.6-4.2,10.2-5.6,15.7c-1.7,6.6,1,13.5-0.3,20.1c-0.8,4.3-3.3,8.1-5.2,12.1c-1.9,4-3.1,8.8-1.5,12.7c0.7,1.7,2,3,2.5,4.7
						c1.7,5.3-3.3,10.8-3.7,16.6c-0.4,5.8,3.9,10.6,3.6,16.4c-0.3,5.4-3.9,13.5-3.9,18.9c0.1,5,5.1,7.3,5.7,12.3
						c0.8,6.4-4,15.2-2.6,21.4c0.8,3.4,3.9,4,4.4,7.5c0.6,4-1.2,12.7-1.9,16.8c-0.7,4.1,0,7,3.2,10.5l20.5,5.6
						C124.8,508.6,122.8,500.6,118.2,495.5z"/>
				</g>
			</g>
			<g>
				<g>
					<g>
						<path class="st4" d="M102.9,352.2c0,0,0.6,2.2,1.1,6.3c0.2,2,0.4,4.6-0.3,7.5c-0.3,1.4-0.9,2.9-1.6,4.4
							c-0.7,1.5-1.6,3-2.4,4.7c-0.8,1.6-1.6,3.4-1.7,5.4c-0.2,2-0.1,4.1,0.5,6.1c1,4.2,3.2,8.3,4.8,13c0.8,2.3,1.3,4.8,1.2,7.4
							c0,1.3-0.3,2.6-0.7,3.9c-0.4,1.2-1,2.4-1.3,3.7c-0.6,2.5,0.3,5.2,1.4,7.7c0.5,1.3,1.1,2.5,1.5,3.9c0.4,1.3,0.6,2.8,0.7,4.2
							c0.1,2.9-0.4,5.6-1,8.3c-0.6,2.7-1.2,5.3-1.4,7.9c-0.1,1.3-0.1,2.6,0,3.9c0.1,1.3,0.5,2.5,0.8,3.7c0.7,2.4,1.6,4.8,1.7,7.3
							c0.2,2.5-0.5,4.9-1,7.1c-0.6,2.2-1.1,4.4-1.2,6.5c0,2.1,0.5,4.2,1.1,6.1c0.6,1.9,1.2,3.8,1.5,5.6c0.4,1.8,0.4,3.6,0.3,5.3
							c-0.1,1.7-0.3,3.2-0.5,4.7c-0.4,2.9-0.6,5.4-0.4,7.5c0.2,2,0.8,3.6,1.4,4.5c0.6,0.9,1,1.3,0.9,1.4c0,0-0.4-0.4-1-1.3
							c-0.6-0.9-1.3-2.4-1.5-4.5c-0.3-2.1,0-4.6,0.3-7.5c0.2-1.5,0.4-3,0.5-4.7c0.1-1.6,0.1-3.4-0.3-5.2c-0.4-1.8-1-3.6-1.6-5.5
							c-0.6-1.9-1.1-4-1.1-6.2c0-2.2,0.6-4.4,1.1-6.7c0.6-2.2,1.1-4.5,1-6.9c-0.1-2.4-1-4.8-1.7-7.2c-0.3-1.2-0.7-2.5-0.8-3.8
							c-0.2-1.3-0.1-2.7,0-4c0.2-2.7,0.9-5.3,1.4-8c0.6-2.7,1.1-5.4,1-8.2c-0.1-1.4-0.3-2.7-0.7-4c-0.4-1.3-1-2.6-1.5-3.8
							c-0.5-1.3-1-2.5-1.3-3.9c-0.3-1.3-0.4-2.8-0.1-4.1c0.3-1.3,0.9-2.5,1.3-3.7c0.4-1.2,0.7-2.5,0.7-3.7c0.1-2.5-0.4-5-1.2-7.3
							c-1.5-4.6-3.7-8.8-4.7-13c-0.6-2.1-0.7-4.3-0.5-6.3c0.2-2,1-3.9,1.8-5.5c0.8-1.7,1.7-3.2,2.5-4.6c0.7-1.5,1.3-2.9,1.6-4.3
							c0.6-2.8,0.5-5.4,0.4-7.4c-0.2-2-0.4-3.6-0.6-4.7c-0.1-0.5-0.1-0.9-0.2-1.2C102.9,352.4,102.9,352.2,102.9,352.2z"/>
					</g>
				</g>
			</g>
			<g>
				<g>
					<path class="st5" d="M94,511.5c-2.5,1.2-5.1-1.8-5.5-4.6c-0.4-2.8,0.3-5.8-1-8.2c-1.2-2.1-3.6-3.3-4.9-5.3
						c-2.3-3.7-0.4-8.8-2.4-12.7c-1.5-3-5.2-4.7-6.3-7.9c-1.2-3.4,0.9-7.3-0.1-10.8c-1-3.7-5.3-6-6.2-9.7c-0.9-3.8,1.6-8.3-0.8-11.3
						c-0.8-1-2-1.6-2.9-2.5c-2.1-2.1-2.2-5.5-1.6-8.4c0.5-2.9,1.6-5.8,1.3-8.7c-0.5-4.5-4-8.4-4.1-12.9c-0.1-3.8,2.2-7.7,0.8-11.2
						c3.4,2,3.8,6.7,6.1,9.9c1.5,2.1,3.7,3.4,5.6,5.2c3.8,3.5,6.1,8.7,6,13.9c0,3.4-1,7.2,0.8,10.1c2.2,3.6,7.3,4.2,9.9,7.4
						c3.8,4.6,0.9,12.3,4.5,17c0.9,1.2,2.2,2.1,3.1,3.4c2.9,4.3-0.5,10.4,1.3,15.4c1.3,3.6,5.1,6,6.1,9.7c0.8,2.9-0.1,6.3,1.8,8.6
						c0.8,1,2.1,1.5,3.1,2.3c1.9,1.5,3,4.1,2.4,6.5c-0.5,2.4-2.7,4.4-5.2,4.5"/>
				</g>
			</g>
			<g class="st6">
				<g>
					<g>
						<path class="st2" d="M108.7,500c-1-0.8-2.3-1.3-3.1-2.3c-1.9-2.2-1-5.7-1.8-8.6c-1-3.7-4.8-6.1-6.1-9.7
							c-1.7-4.9,1.7-11-1.3-15.4c-0.9-1.3-2.2-2.2-3.1-3.4c-3.6-4.7-0.7-12.4-4.5-17c-2.6-3.2-7.7-3.8-9.9-7.4
							c-1.8-2.9-0.9-6.7-0.8-10.1c0.1-5.2-2.2-10.4-6-13.9c-1.9-1.7-4.1-3.1-5.6-5.2c-2.3-3.2-2.7-7.9-6.1-9.9
							c1.4,3.5-0.9,7.4-0.8,11.2c0.1,4.5,3.7,8.4,4.1,12.9c0.3,2.9-0.7,5.8-1.3,8.7c-0.5,2.9-0.5,6.3,1.6,8.4
							c0.9,0.9,2.1,1.5,2.9,2.5c2.4,3-0.1,7.6,0.8,11.3c0.9,3.8,5.2,6,6.2,9.7c1,3.5-1.2,7.4,0.1,10.8c1.1,3.2,4.8,4.9,6.3,7.9
							c2,3.9,0,9,2.4,12.7c1.3,2,3.7,3.2,4.9,5.3c1.3,2.4,0.7,5.5,1,8.2c0.4,2.8,3,5.8,5.5,4.6l12-0.5c2.5-0.1,4.7-2.1,5.2-4.5
							C111.7,504.2,110.7,501.5,108.7,500z"/>
					</g>
				</g>
			</g>
			<g>
				<g>
					<path class="st5" d="M104.3,499.5c-1-0.6-2.6-2-2.9-3.1c-0.5-1.5,1.1-4.1,0.4-6.7c-0.9-3.5-5.3-8.1-6.5-11.6
						c-1.5-4.6,1.3-9.8-1.2-13.9c-0.7-1.2-2.4-4.6-3.2-5.7c-3.1-4.4-0.7-9.9-3.9-14.2c-2.2-3-7.7-5-9.6-8.3c-1.5-2.8-0.9-6.3-1-9.5
						c-0.1-4.9-2.1-9.8-5.3-13.1c-1.6-1.6-3.4-2.9-4.7-4.8c-1.9-3-2.4-7.4-5.2-9.2c1.2,3.3-0.5,6.9-0.3,10.5
						c0.2,4.3,3.2,7.9,3.7,12.1c0.3,2.8-0.4,5.5-0.8,8.2c-0.3,2.7-0.2,5.9,1.6,7.9c0.8,0.9,1.7,1.4,2.4,2.4c2,2.8,0.1,7.1,1,10.6
						c0.9,3.5,4.4,5.6,5.3,9.1c0.9,3.3,0.2,8.8,1.3,12.1c1,3,4.5,3.4,5.8,6.3c1.7,3.7,0.5,9.9,2.6,13.3c1.1,1.9,3.1,1.6,4.1,3.6
						c1.2,2.3,1.8,7.8,2.1,10.4c0.4,2.6,1.3,4.2,3.9,5.7l13.3-0.6C110.8,506.1,108,501.7,104.3,499.5z"/>
				</g>
			</g>
			<g>
				<g>
					<g>
						<path class="st4" d="M67.5,416.7c0,0,0.1,0.1,0.1,0.2c0.1,0.2,0.2,0.4,0.4,0.7c0.3,0.6,0.8,1.5,1.4,2.7
							c0.5,1.2,1.1,2.7,1.3,4.6c0.2,1.9-0.3,4-0.6,6.2c-0.2,1.1-0.3,2.3,0,3.5c0.3,1.2,0.7,2.4,1.5,3.5c1.4,2.3,3.5,4.3,5.4,6.8
							c0.9,1.2,1.8,2.6,2.2,4.2c0.2,0.8,0.3,1.6,0.3,2.5c0,0.8-0.1,1.7-0.1,2.4c0.1,1.6,1.2,3,2.3,4.3c0.6,0.7,1.1,1.3,1.7,2
							c0.5,0.7,0.9,1.6,1.3,2.4c0.6,1.7,0.8,3.5,1,5.2c0.2,1.7,0.3,3.4,0.7,5c0.4,1.6,1,3.1,2,4.4c0.9,1.3,1.9,2.6,2.5,4.1
							c0.6,1.5,0.7,3,0.8,4.5c0.1,1.4,0.2,2.9,0.6,4.1c0.8,2.5,2.7,4.4,3.8,6.5c1.1,2.1,1.4,4.2,1.8,6c0.3,1.8,0.7,3.4,1.2,4.5
							c0.5,1.2,1.2,2,1.7,2.4c0.5,0.4,0.8,0.6,0.8,0.6c0,0-0.3-0.1-0.9-0.6c-0.6-0.4-1.2-1.2-1.8-2.4c-0.6-1.2-0.9-2.8-1.3-4.6
							c-0.4-1.8-0.7-3.9-1.8-5.9c-1.1-2-3-3.8-3.9-6.5c-0.9-2.7-0.3-5.7-1.4-8.5c-0.5-1.4-1.5-2.6-2.4-4c-0.9-1.3-1.7-2.9-2-4.5
							c-0.8-3.3-0.5-6.9-1.7-10.1c-0.3-0.8-0.7-1.6-1.2-2.3c-0.5-0.7-1.1-1.3-1.6-2c-1.1-1.3-2.3-2.8-2.4-4.6
							c-0.1-0.9,0.1-1.7,0.1-2.5c0-0.8-0.1-1.6-0.3-2.3c-0.4-1.5-1.2-2.9-2.1-4.1c-1.8-2.5-3.9-4.5-5.3-6.9
							c-0.7-1.2-1.3-2.4-1.5-3.7c-0.3-1.3-0.2-2.5,0-3.7c0.4-2.3,0.9-4.3,0.7-6.2c-0.2-1.8-0.7-3.3-1.2-4.5c-0.5-1.2-1-2.1-1.3-2.7
							c-0.1-0.3-0.2-0.5-0.3-0.7C67.5,416.8,67.5,416.7,67.5,416.7z"/>
					</g>
				</g>
			</g>
		</g>
		<g>
			<g>
				<rect x="68.6" y="486.9" class="st7" width="79.9" height="14.2"/>
			</g>
			<g>
				<polygon class="st7" points="74.5,498.3 84.3,540.6 131.9,540.6 142.5,498.3 				"/>
			</g>
			<g>
				<g>
					<path class="st4" d="M148.4,501.1c0,0.2-18,0.3-40.3,0.3c-22.2,0-40.3-0.1-40.3-0.3c0-0.2,18-0.3,40.3-0.3
						C130.4,500.8,148.4,500.9,148.4,501.1z"/>
				</g>
			</g>
		</g>
	</g>
	<g>
		<g>
			<g>
				<path class="st0" d="M510.7,417c0,0-27,12.3-53.3,12.3c-24.4,0-51.6-12.3-51.6-12.3L510.7,417z"/>
			</g>
			<g>
				
					<rect x="454.6" y="418.2" transform="matrix(-1 -1.224647e-16 1.224647e-16 -1 919.6953 945.5901)" class="st0" width="10.4" height="109.3"/>
			</g>
			<g>
				
					<rect x="413.1" y="522.9" transform="matrix(-1 -1.224647e-16 1.224647e-16 -1 918.7471 1052.2148)" class="st0" width="92.6" height="6.4"/>
			</g>
			<g>
				<path class="st4" d="M494.8,532.1c0,3.9,3.2,7.1,7.1,7.1c3.9,0,7.1-3.2,7.1-7.1c0-3.9-3.2-7.1-7.1-7.1
					C498,525,494.8,528.2,494.8,532.1z"/>
			</g>
			<g>
				<path class="st4" d="M453.7,532.1c0,3.9,3.2,7.1,7.1,7.1s7.1-3.2,7.1-7.1c0-3.9-3.2-7.1-7.1-7.1S453.7,528.2,453.7,532.1z"/>
			</g>
			<g>
				<path class="st4" d="M406,532.1c0,3.9,3.2,7.1,7.1,7.1c3.9,0,7.1-3.2,7.1-7.1c0-3.9-3.2-7.1-7.1-7.1
					C409.2,525,406,528.2,406,532.1z"/>
			</g>
			<g>
				
					<rect x="457.4" y="457.5" transform="matrix(-1 -1.224647e-16 1.224647e-16 -1 928.96 920.8488)" class="st0" width="14.2" height="5.9"/>
			</g>
			<g>
				
					<rect x="469" y="453.4" transform="matrix(-1 -1.224647e-16 1.224647e-16 -1 943.149 920.8488)" class="st0" width="5.2" height="14.1"/>
			</g>
			<g>
				<g>
					<path class="st7" d="M401.1,417h118.2c4.3,0,7.8-3.5,7.8-7.8l0,0c0-4.3-3.5-7.8-7.8-7.8H401.1c-4.3,0-7.8,3.5-7.8,7.8l0,0
						C393.3,413.5,396.8,417,401.1,417z"/>
				</g>
			</g>
		</g>
		<g>
			<g>
				<g>
					<g>
						<path class="st4" d="M510,210.5c0,0,9.5-3.7,9.1-11.8c-0.4-8.1-11.3-16.1-10.7-28.3c0.6-11.4-15.8-45.4-39.1-33.5
							c0,0-6.3-0.9-11.7,0.6c-7.5,2.2-9.9,9.4-14.3,16.5c-6.9,11-11.5,19.7-8.2,27.4c3.3,7.7,4.7,9.9,2.1,16.5
							c-3.4,8.6-6.8,6.1-5.7,13.5l20.4,0.3l1.9-5l0.2,5.4l12-0.2L510,210.5z"/>
					</g>
					<g>
						<g>
							<g>
								<g>
									<g>
										<g>
											<path class="st4" d="M451.9,148.8c0.2,3.1-1.8,6-3.9,8.3c-2.1,2.4-4.4,4.8-4.8,8c-0.8,5.5,4.7,10.6,3.6,16.1
												c-0.6,2.9-3,5.3-3.4,8.3c-0.4,2.9,1.2,5.7,3.1,7.8c1.9,2.2,4.2,4,5.9,6.3c0,0,3.5,5.7,14.3,2"/>
										</g>
									</g>
								</g>
							</g>
						</g>
					</g>
				</g>
				<g>
					<g>
						<g>
							<g>
								<g>
									<path class="st8" d="M461.1,144.8l26.9,5.7c2.6,0.2,4.6,2.3,4.7,4.9l-0.3,58.2c0,4-1.4,7.8-3.8,11l-2.6,3.3
										c-5.8,7.5-17.7,6.8-22.1-1.6c-0.3-0.6-0.5-1.1-0.6-1.5c-0.1-0.5-0.2-0.9-0.3-1.3l-0.5-5.7c-0.3-5.2-0.3-10.4-0.3-10.4
										c0,0-11-1.4-13.8-15.6c-1.4-7-1.5-18.7-1.3-28.2C447.3,154.9,452.6,144.2,461.1,144.8z"/>
								</g>
							</g>
						</g>
						<g>
							<g>
								<g>
									<g>
										<g>
											<g>
												<g>
													<g>
														<g>
															<g>
																<g>
																	<g>
																		<g>
																			<g>
																				<g>
																					<g>
																						<g>
																							<g>
																								<g>
																									<path class="st4" d="M451.2,174.4c0,1,0.8,1.8,1.8,1.8c1,0,1.8-0.8,1.8-1.7c0-1-0.8-1.8-1.8-1.8
																										C452,172.7,451.2,173.5,451.2,174.4z"/>
																								</g>
																							</g>
																						</g>
																					</g>
																				</g>
																			</g>
																		</g>
																	</g>
																</g>
															</g>
														</g>
													</g>
												</g>
											</g>
										</g>
									</g>
									<g>
										<g>
											<g>
												<g>
													<g>
														<g>
															<g>
																<g>
																	<g>
																		<g>
																			<g>
																				<g>
																					<g>
																						<g>
																							<g>
																								<g>
																									<g>
																										<path class="st4" d="M449.8,169.5c0.2,0.2,1.6-0.8,3.5-0.9c2-0.1,3.4,0.9,3.7,0.6c0.1-0.1-0.1-0.5-0.8-1
																											c-0.6-0.4-1.7-0.8-2.9-0.8c-1.2,0.1-2.2,0.5-2.8,1C449.9,168.9,449.7,169.4,449.8,169.5z"/>
																									</g>
																								</g>
																							</g>
																						</g>
																					</g>
																				</g>
																			</g>
																		</g>
																	</g>
																</g>
															</g>
														</g>
													</g>
												</g>
											</g>
										</g>
									</g>
								</g>
								<g>
									<g>
										<g>
											<g>
												<g>
													<g>
														<g>
															<g>
																<g>
																	<g>
																		<g>
																			<g>
																				<g>
																					<g>
																						<g>
																							<g>
																								<g>
																									<path class="st4" d="M468.8,174c0,1,0.8,1.8,1.8,1.8c1,0,1.8-0.8,1.8-1.7c0-1-0.8-1.8-1.8-1.8
																										C469.6,172.3,468.8,173,468.8,174z"/>
																								</g>
																							</g>
																						</g>
																					</g>
																				</g>
																			</g>
																		</g>
																	</g>
																</g>
															</g>
														</g>
													</g>
												</g>
											</g>
										</g>
									</g>
									<g>
										<g>
											<g>
												<g>
													<g>
														<g>
															<g>
																<g>
																	<g>
																		<g>
																			<g>
																				<g>
																					<g>
																						<g>
																							<g>
																								<g>
																									<g>
																										<path class="st4" d="M468.5,169c0.2,0.2,1.6-0.8,3.6-0.9c2-0.1,3.4,0.9,3.7,0.6c0.1-0.1-0.1-0.5-0.8-1
																											c-0.6-0.4-1.7-0.8-2.9-0.8c-1.2,0.1-2.2,0.5-2.8,1C468.6,168.4,468.4,168.9,468.5,169z"/>
																									</g>
																								</g>
																							</g>
																						</g>
																					</g>
																				</g>
																			</g>
																		</g>
																	</g>
																</g>
															</g>
														</g>
													</g>
												</g>
											</g>
										</g>
									</g>
								</g>
								<g>
									<g>
										<g>
											<g>
												<g>
													<g>
														<g>
															<g>
																<g>
																	<g>
																		<g>
																			<g>
																				<g>
																					<g>
																						<g>
																							<g>
																								<g>
																									<path class="st4" d="M462.6,184c0-0.1-1.2-0.3-3.2-0.5c-0.5,0-1-0.1-1.1-0.5c-0.1-0.4,0.1-0.9,0.3-1.5
																										c0.4-1.2,0.9-2.5,1.3-3.9c1.9-5.5,3.2-10.1,2.9-10.1c-0.2-0.1-1.9,4.3-3.8,9.9c-0.4,1.4-0.9,2.7-1.3,3.9
																										c-0.2,0.6-0.5,1.2-0.2,2c0.1,0.4,0.5,0.6,0.9,0.7c0.3,0.1,0.6,0.1,0.9,0.1
																										C461.4,184.1,462.6,184.1,462.6,184z"/>
																								</g>
																							</g>
																						</g>
																					</g>
																				</g>
																			</g>
																		</g>
																	</g>
																</g>
															</g>
														</g>
													</g>
												</g>
											</g>
										</g>
									</g>
								</g>
								<g>
									<g>
										<g>
											<g>
												<g>
													<g>
														<g>
															<g>
																<g>
																	<g>
																		<g>
																			<g>
																				<g>
																					<g>
																						<g>
																							<g>
																								<path class="st9" d="M462.2,207.3c0,0,9.6,0.2,18.9-5.8c0,0-4.4,10.1-18.7,9.3L462.2,207.3z"/>
																							</g>
																						</g>
																					</g>
																				</g>
																			</g>
																		</g>
																	</g>
																</g>
															</g>
														</g>
													</g>
												</g>
											</g>
										</g>
									</g>
								</g>
								<g>
									<g>
										<g>
											<g>
												<g>
													<g>
														<g>
															<g>
																<g>
																	<g>
																		<g>
																			<g>
																				<g>
																					<g>
																						<g>
																							<g>
																								<path class="st9" d="M463.6,188.7c0.7-1,1.9-1.5,3.1-1.4c0.9,0.1,1.7,0.4,2.3,1.1c0.5,0.7,0.7,1.7,0.2,2.3
																									c-0.5,0.8-1.6,1-2.6,0.8c-0.9-0.2-1.8-0.8-2.6-1.4c-0.2-0.2-0.4-0.3-0.6-0.6
																									C463.4,189.2,463.4,188.9,463.6,188.7"/>
																							</g>
																						</g>
																					</g>
																				</g>
																			</g>
																		</g>
																	</g>
																</g>
															</g>
														</g>
													</g>
												</g>
											</g>
										</g>
									</g>
								</g>
								<g>
									<g>
										<g>
											<g>
												<g>
													<g>
														<g>
															<g>
																<g>
																	<g>
																		<g>
																			<g>
																				<g>
																					<g>
																						<g>
																							<g>
																								<g>
																									<path class="st4" d="M468.5,185.1c-0.3,0-0.2,2.1-2,3.7c-1.8,1.6-4.1,1.4-4.1,1.7c0,0.1,0.5,0.4,1.5,0.4
																										c0.9,0,2.3-0.4,3.4-1.3c1.1-1,1.5-2.2,1.5-3.1C468.9,185.6,468.6,185.1,468.5,185.1z"/>
																								</g>
																							</g>
																						</g>
																					</g>
																				</g>
																			</g>
																		</g>
																	</g>
																</g>
															</g>
														</g>
													</g>
												</g>
											</g>
										</g>
									</g>
								</g>
							</g>
						</g>
						<g>
							<g>
								<g>
									<g>
										<g>
											<g>
												<g>
													<g>
														<g>
															<g>
																<g>
																	<g>
																		<g>
																			<g>
																				<g>
																					<path class="st4" d="M468.6,163.1c0.2,0.5,2.2,0.2,4.5,0.4c2.3,0.1,4.2,0.7,4.5,0.3c0.1-0.2-0.2-0.7-1-1.2
																						c-0.8-0.5-2-0.9-3.4-1c-1.4-0.1-2.7,0.2-3.5,0.5C469,162.5,468.5,162.9,468.6,163.1z"/>
																				</g>
																			</g>
																		</g>
																	</g>
																</g>
															</g>
														</g>
													</g>
												</g>
											</g>
										</g>
									</g>
								</g>
							</g>
						</g>
						<g>
							<g>
								<g>
									<g>
										<g>
											<g>
												<g>
													<g>
														<g>
															<g>
																<g>
																	<g>
																		<g>
																			<g>
																				<g>
																					<path class="st4" d="M450.1,160.8c0.4,0.4,1.7-0.1,3.3-0.2c1.6-0.1,3,0.2,3.3-0.3c0.1-0.2-0.1-0.7-0.7-1.1
																						c-0.6-0.4-1.6-0.7-2.7-0.6c-1.1,0.1-2.1,0.5-2.6,1C450.1,160.2,449.9,160.6,450.1,160.8z"/>
																				</g>
																			</g>
																		</g>
																	</g>
																</g>
															</g>
														</g>
													</g>
												</g>
											</g>
										</g>
									</g>
								</g>
							</g>
						</g>
						<g>
							<g>
								<g>
									<path class="st4" d="M499.9,150.5c-2-5.9-10-12.3-17.6-15.2c-4.3-1.6-9.2-1-13,1.5l-9.6,6.3c0.9,4.7,4.6,8.7,9.2,10
										c2.4,0.7,5.4,0.8,6.9,2.9c1.5,2.1,0.7,5.2,2.1,7.4c2,3,7.2,2.8,8.7,6c0.7,1.4,0.4,3.2,1,4.6c0.9,1.9,5.8,4.2,7.8,3.5
										c2-0.7,1.9-4.1,2.5-5.9c1.1-3.1,0.6-4.6,0.2-6.3C497.2,161.4,501.2,154.4,499.9,150.5z"/>
								</g>
							</g>
						</g>
						<g>
							<g>
								<g>
									<g>
										<g>
											<g>
												<path class="st8" d="M489.6,179.4c0-1.1,1.1-3.6,2.1-3.8c2.8-0.5,7.8-0.5,8.2,6.6c0.4,9.7-9.4,8.2-9.4,7.9
													C490.4,189.9,489.7,183.1,489.6,179.4z"/>
											</g>
										</g>
									</g>
								</g>
							</g>
						</g>
						<g>
							<g>
								<g>
									<g>
										<g>
											<g>
												<g>
													<path class="st9" d="M493.2,186.3c0,0,0.2,0.1,0.5,0.2c0.3,0.1,0.8,0.2,1.3,0c1-0.4,1.8-2.1,1.8-3.8
														c0-0.9-0.2-1.7-0.6-2.4c-0.3-0.7-0.8-1.2-1.3-1.2c-0.5-0.1-0.9,0.2-1,0.5c-0.1,0.3,0,0.5-0.1,0.5c0,0-0.2-0.2-0.2-0.6
														c0-0.2,0.1-0.4,0.4-0.6c0.2-0.2,0.6-0.3,0.9-0.3c0.8,0,1.5,0.7,1.8,1.4c0.4,0.8,0.7,1.7,0.7,2.7c0,2-0.9,3.8-2.3,4.3
														c-0.7,0.2-1.3,0-1.6-0.2C493.2,186.5,493.2,186.3,493.2,186.3z"/>
												</g>
											</g>
										</g>
									</g>
								</g>
							</g>
						</g>
					</g>
				</g>
			</g>
			<g>
				<g>
					<path class="st8" d="M426.6,252.8l-17.2,44.8l-32.3,2.1l-5,14.1l42.7,8.3c0,0,12.8,3.7,20.2-12.6l12.5-44.6L426.6,252.8z"/>
				</g>
				<g>
					<g>
						<g>
							<g>
								<path class="st8" d="M346.4,306.7c0.4,0.8,1.2,1.3,2.1,1.2c0.2,0,0.4,0,0.5-0.1c1.2-0.4,1.1-2.9,1.1-2.9l5.9-1
									c0,0,7.6,4.9,10.3,8.2s9.6,0.6,9.6,0.6l2.4-12.5l-10.8-9.8c0,0,0.7,0.6-0.1-1.2c-0.7-1.8-4.1-1.1-4.1-1.1
									c-0.5-0.9-2.7-1.2-2.7-1.2l-9.5,1.1c-1.9,0.2-3.7,1.3-4.7,3l-4,6.3c0,0-2.1,4.6-1.8,5.6c0.5,1.6,2.2,1.2,2.2,1.2
									s0.5,3,1.3,3.1C344.9,307.4,346.4,306.7,346.4,306.7L346.4,306.7z"/>
							</g>
						</g>
					</g>
					<g>
						<g>
							<g>
								<g>
									<path class="st9" d="M364.2,310.1c0,0-0.2-0.1-0.6-0.4c-0.4-0.3-0.9-0.7-1.6-1.3c-1.4-1.1-3.5-2.6-6.2-4.3l0.1,0
										c-1.7,0.3-3.7,0.6-5.9,1l0.2-0.2c0,0.5,0,0.9-0.1,1.4c-0.1,0.5-0.3,1-0.7,1.4c-0.2,0.2-0.5,0.3-0.8,0.4
										c-0.3,0.1-0.5,0.1-0.8,0c-0.6-0.1-1.1-0.4-1.5-0.8c-0.1-0.1-0.2-0.2-0.3-0.3l-0.1-0.1l0,0l0,0l0,0c-0.1,0,0.7,0.2,0.3,0.1
										l0,0l0,0l-0.2,0.1c-0.2,0.1-0.5,0.2-0.8,0.3c-0.3,0.1-0.5,0.2-0.8,0.2c-0.1,0-0.3,0-0.4,0c-0.1,0-0.3,0-0.5-0.1
										c-0.3-0.2-0.4-0.5-0.6-0.8c-0.1-0.3-0.2-0.5-0.3-0.8c-0.2-0.5-0.3-1.1-0.4-1.7l0.3,0.2c-0.8,0.1-1.7,0-2.2-0.7
										c-0.2-0.3-0.4-0.7-0.4-1.2c0-0.4,0.1-0.8,0.2-1.1c0.4-1.4,1-2.8,1.6-4.2l0,0l0,0c0.7-1.1,1.4-2.2,2.1-3.4
										c0.5-0.7,0.9-1.4,1.4-2.1c0.4-0.7,0.9-1.5,1.5-2.1c0.6-0.6,1.3-1.1,2.1-1.4c0.8-0.3,1.6-0.4,2.4-0.5c3.1-0.4,6.1-0.7,8.9-1
										l0,0l0,0c0.5,0.1,1.1,0.2,1.6,0.4c0.5,0.2,1,0.4,1.4,1l-0.3-0.1c1-0.4,2.2-0.4,3,0.2c0.9,0.6,1.3,1.5,1.5,2.4l-0.1-0.1
										c3.1,2.8,5.6,5.1,7.4,6.7c0.8,0.8,1.5,1.4,2,1.8c0.5,0.4,0.7,0.7,0.7,0.7c0,0-0.3-0.2-0.8-0.6c-0.5-0.4-1.2-1-2.1-1.8
										c-1.8-1.6-4.4-3.8-7.6-6.5l-0.1,0l0-0.1c-0.2-0.8-0.6-1.6-1.3-2.1c-0.7-0.5-1.7-0.5-2.6-0.1l-0.2,0.1l-0.1-0.2
										c-0.2-0.3-0.7-0.6-1.1-0.7c-0.5-0.2-1-0.3-1.5-0.4l0.1,0c-2.8,0.3-5.8,0.7-8.9,1.1c-0.8,0.1-1.5,0.2-2.3,0.5
										c-0.7,0.3-1.4,0.7-1.9,1.3c-0.6,0.5-0.9,1.3-1.4,2c-0.4,0.7-0.9,1.4-1.4,2.1c-0.7,1.2-1.5,2.3-2.1,3.4l0,0
										c-0.6,1.4-1.2,2.7-1.6,4.1c-0.1,0.3-0.2,0.7-0.2,1c0,0.3,0.1,0.6,0.3,0.8c0.3,0.5,1,0.6,1.6,0.5l0.3,0l0,0.3
										c0.1,0.5,0.2,1.1,0.4,1.6c0.1,0.5,0.4,1.1,0.6,1.3c0,0,0.1,0,0.2,0c0.1,0,0.2,0,0.4,0c0.2,0,0.5-0.1,0.7-0.2
										c0.2-0.1,0.5-0.2,0.7-0.2l0.2-0.1l0,0l0,0c-0.3-0.1,0.4,0.2,0.3,0.1l0,0l0,0l0,0l0,0.1c0.1,0.1,0.1,0.2,0.2,0.3
										c0.3,0.3,0.7,0.6,1.1,0.6c0.2,0,0.4,0,0.6,0c0.2,0,0.4-0.1,0.5-0.2c0.6-0.6,0.6-1.6,0.6-2.4l0-0.2l0.2,0
										c2.1-0.3,4.1-0.6,5.9-0.9l0.1,0l0.1,0c2.7,1.7,4.8,3.3,6.2,4.5c0.7,0.6,1.2,1,1.5,1.4C364.1,309.9,364.2,310.1,364.2,310.1
										z"/>
								</g>
							</g>
						</g>
					</g>
				</g>
				<g>
					<g>
						<path class="st9" d="M361.7,291.4c0,0.1-1.1,0.5-3,0.9c-1.9,0.4-4.7,0.7-7.8,0.6l0.3-0.2c-0.2,0.5-0.3,1-0.5,1.4
							c-1.3,3.2-3.2,5.8-4.8,7.4c-0.8,0.8-1.5,1.4-2,1.8c-0.5,0.4-0.8,0.6-0.8,0.5c-0.1-0.1,1-1,2.5-2.6c1.5-1.7,3.3-4.2,4.6-7.4
							c0.2-0.5,0.4-1,0.5-1.4l0.1-0.2l0.2,0c3.1,0.2,5.8-0.1,7.7-0.4C360.5,291.6,361.7,291.4,361.7,291.4z"/>
					</g>
				</g>
				<g>
					<g>
						<path class="st9" d="M352.7,297c0.2,0-0.5,2.6-2.3,5.3c-1.9,2.7-4.1,4.2-4.2,4c-0.1-0.1,1.9-1.8,3.7-4.4
							C351.7,299.3,352.6,296.9,352.7,297z"/>
					</g>
				</g>
				<g>
					<g>
						<path class="st9" d="M377.8,308.9c0,0-0.1,0.1-0.3,0.2c-0.2,0.1-0.5,0.2-0.9,0.4c-0.8,0.3-2.1,0.5-3.7,0.4
							c-1.6-0.1-3.6-0.6-5.4-1.9c-1.8-1.3-3.4-3.4-4.1-6l0.3,0.2c-2.1,0.4-4.5,0.6-6.8,0.3c-0.9-0.1-1.7-0.2-2.5-0.4
							c-0.8-0.2-1.7-0.3-2.4-0.8c-0.4-0.2-0.8-0.5-0.9-1c-0.1-0.5-0.1-1,0.2-1.4c0.2-0.4,0.6-0.7,1.1-0.8c0.4-0.1,0.7-0.2,1.1-0.3
							c2.9-0.7,5.5-1.2,7.7-1.5c2.2-0.3,4-0.6,5.3-0.7c1.2-0.1,1.9-0.1,1.9-0.1c0,0-0.7,0.1-1.9,0.3c-1.2,0.2-3,0.5-5.2,0.9
							c-2.2,0.4-4.8,0.9-7.6,1.7c-0.4,0.1-0.7,0.2-1.1,0.3c-0.3,0.1-0.5,0.3-0.7,0.6c-0.1,0.3-0.2,0.6-0.1,0.9
							c0.1,0.3,0.3,0.5,0.7,0.7c0.6,0.4,1.4,0.5,2.2,0.7c0.8,0.2,1.6,0.3,2.5,0.4c2.3,0.2,4.6,0.1,6.7-0.3l0.3-0.1l0.1,0.3
							c0.6,2.4,2.1,4.4,3.8,5.7c1.7,1.3,3.5,1.8,5.1,2c1.6,0.2,2.8-0.1,3.6-0.2C377.3,309.1,377.8,308.9,377.8,308.9z"/>
					</g>
				</g>
			</g>
			<g>
				<g>
					<g>
						<g>
							<g>
								<g>
									<g>
										<g>
											<path class="st4" d="M366.7,469.3c0,0-0.1-0.4,0-1.1c0.1-0.7,0.4-1.7,1.1-2.7c0.2-0.3,0.4-0.5,0.6-0.8
												c0.3-0.3,0.8-0.4,1.2-0.3c0.2,0.1,0.5,0.3,0.5,0.5c0.1,0.3,0,0.5,0,0.7c-0.2,0.4-0.4,0.7-0.6,1.1
												c-0.4,0.7-0.8,1.4-1.3,2.2c-0.3,0.4-0.9,0.7-1.4,0.6c-0.5-0.1-1-0.3-1.4-0.6c-0.8-0.6-1.5-1.2-2-1.9
												c-0.3-0.3-0.6-0.7-0.8-1c-0.2-0.4-0.5-0.7-0.6-1.2c-0.1-0.5,0.1-1.1,0.6-1.3c0.5-0.2,1,0.1,1.3,0.3c0.6,0.5,1,1,1.4,1.5
												c0.7,1,1.1,1.9,1.3,2.6c0.2,0.7,0.3,1,0.2,1c-0.1,0-0.5-1.5-1.9-3.4c-0.4-0.5-0.8-1-1.3-1.4c-0.3-0.2-0.6-0.3-0.8-0.2
												c-0.2,0.1-0.3,0.4-0.3,0.7c0.1,0.3,0.3,0.6,0.5,1c0.2,0.3,0.5,0.7,0.8,1c0.6,0.6,1.2,1.2,1.9,1.8
												c0.4,0.3,0.7,0.5,1.1,0.5c0.4,0,0.6-0.1,0.9-0.4c0.4-0.6,0.9-1.5,1.3-2.1c0.2-0.3,0.4-0.7,0.5-1c0.1-0.3,0-0.5-0.2-0.6
												c-0.5-0.2-1,0.4-1.3,0.8C366.8,467.7,366.8,469.3,366.7,469.3z"/>
										</g>
									</g>
								</g>
							</g>
						</g>
					</g>
				</g>
				<g>
					<g>
						<g>
							<g>
								<g>
									<g>
										<polygon class="st8" points="394.5,470.2 408.2,500.1 430.5,489.8 416.2,452.9 										"/>
									</g>
								</g>
							</g>
						</g>
					</g>
					<g>
						<g>
							<g>
								<g>
									<g>
										<g>
											<g>
												<g>
													<g>
														<g>
															<g>
																<g>
																	<g>
																		<g>
																			<g>
																				<path class="st7" d="M405.6,498.1l8.1,15.4c0,0-20.6,21.3-18.7,26.1l48.5-23.2l-13.3-30.8L405.6,498.1z"/>
																			</g>
																		</g>
																	</g>
																</g>
															</g>
														</g>
													</g>
												</g>
											</g>
										</g>
									</g>
								</g>
								<g>
									<g>
										<g>
											<g>
												<g>
													<g>
														<g>
															<g>
																<g>
																	<g>
																		<g>
																			<g>
																				<g>
																					<path class="st0" d="M427.7,504.2c1.1-0.2,2.2,0.6,2.5,1.6c0.2,1.1-0.5,2.2-1.6,2.4c-1.1,0.2-2.5-0.6-2.6-1.7
																						c-0.1-1.1,0.8-2.4,1.9-2.4"/>
																				</g>
																			</g>
																		</g>
																	</g>
																</g>
															</g>
														</g>
													</g>
												</g>
											</g>
										</g>
									</g>
								</g>
								<g class="st10">
									<g>
										<g>
											<g>
												<g>
													<g>
														<g>
															<g>
																<g>
																	<g>
																		<g>
																			<g>
																				<path class="st2" d="M443.5,516.3l-2-3.9l-45.7,23.7c0,0-1.7,2-0.7,3.4L443.5,516.3z"/>
																			</g>
																		</g>
																	</g>
																</g>
															</g>
														</g>
													</g>
												</g>
											</g>
										</g>
									</g>
								</g>
								<g>
									<g>
										<g>
											<g>
												<g>
													<g>
														<g>
															<g>
																<g>
																	<g>
																		<g>
																			<g>
																				<g>
																					<path class="st4" d="M412.8,513.6c0.1,0.2,1.4-0.2,2.9,0c1.5,0.2,2.6,0.9,2.8,0.7c0.2-0.2-0.8-1.4-2.7-1.6
																						C413.9,512.4,412.6,513.4,412.8,513.6z"/>
																				</g>
																			</g>
																		</g>
																	</g>
																</g>
															</g>
														</g>
													</g>
												</g>
											</g>
										</g>
									</g>
								</g>
								<g>
									<g>
										<g>
											<g>
												<g>
													<g>
														<g>
															<g>
																<g>
																	<g>
																		<g>
																			<g>
																				<g>
																					<path class="st4" d="M408.7,518.1c0.1,0.3,1.3,0.2,2.6,0.8c1.3,0.6,2,1.6,2.3,1.4c0.2-0.1-0.3-1.5-1.9-2.3
																						C410,517.3,408.6,517.9,408.7,518.1z"/>
																				</g>
																			</g>
																		</g>
																	</g>
																</g>
															</g>
														</g>
													</g>
												</g>
											</g>
										</g>
									</g>
								</g>
								<g>
									<g>
										<g>
											<g>
												<g>
													<g>
														<g>
															<g>
																<g>
																	<g>
																		<g>
																			<g>
																				<g>
																					<path class="st4" d="M408.7,525.6c0.2-0.1,0-1.4-1.2-2.4c-1.2-1-2.6-1-2.6-0.7c0,0.3,1,0.6,2,1.4
																						C407.9,524.7,408.5,525.7,408.7,525.6z"/>
																				</g>
																			</g>
																		</g>
																	</g>
																</g>
															</g>
														</g>
													</g>
												</g>
											</g>
										</g>
									</g>
								</g>
								<g>
									<g>
										<g>
											<g>
												<g>
													<g>
														<g>
															<g>
																<g>
																	<g>
																		<g>
																			<g>
																				<g>
																					<path class="st4" d="M410.5,507.7c0.2,0.2,1.1-0.7,2.5-1.2c1.4-0.6,2.6-0.6,2.7-0.9c0.1-0.2-1.4-0.6-3,0
																						C411,506.3,410.3,507.6,410.5,507.7z"/>
																				</g>
																			</g>
																		</g>
																	</g>
																</g>
															</g>
														</g>
													</g>
												</g>
											</g>
										</g>
									</g>
								</g>
							</g>
						</g>
					</g>
					<g>
						<g>
							<g>
								<g>
									<g>
										<path class="st4" d="M401.1,494.1l-36.3-90.9c0,0,0.8-15.5,3.7-20.4c2.9-4.9,89.4-33.5,89.4-33.5s22-5.3,36.7,0
											c14.7,5.3,30.1,10.6,28.4,20.9c-2.4,15-15.4,30.7-15.4,30.7l-63.7,1.9l-34.7,12.7l23.4,67L401.1,494.1z"/>
									</g>
								</g>
							</g>
						</g>
					</g>
					<g>
						<g>
							<g>
								<g>
									<g>
										<polygon class="st8" points="368.8,432 368,464.9 392.5,465.5 396,426 										"/>
									</g>
								</g>
							</g>
						</g>
					</g>
					<g>
						<g>
							<g>
								<g>
									<g>
										<g>
											<g>
												<g>
													<g>
														<g>
															<g>
																<g>
																	<g>
																		<g>
																			<g>
																				<path class="st7" d="M366.5,461.9l0.4,17.3c0,0-27.9,10-28.3,15.2l53.7,0.5l1.7-33.5L366.5,461.9z"/>
																			</g>
																		</g>
																	</g>
																</g>
															</g>
														</g>
													</g>
												</g>
											</g>
										</g>
									</g>
								</g>
								<g>
									<g>
										<g>
											<g>
												<g>
													<g>
														<g>
															<g>
																<g>
																	<g>
																		<g>
																			<g>
																				<g>
																					<path class="st0" d="M383.6,477.1c1,0.3,1.7,1.5,1.5,2.5c-0.3,1-1.4,1.8-2.5,1.5c-1-0.3-1.9-1.7-1.6-2.7
																						c0.4-1,1.8-1.8,2.8-1.3"/>
																				</g>
																			</g>
																		</g>
																	</g>
																</g>
															</g>
														</g>
													</g>
												</g>
											</g>
										</g>
									</g>
								</g>
								<g class="st10">
									<g>
										<g>
											<g>
												<g>
													<g>
														<g>
															<g>
																<g>
																	<g>
																		<g>
																			<g>
																				<path class="st2" d="M392.4,495l-0.1-4.4l-51.5,1.1c0,0-2.4,1-2.2,2.7L392.4,495z"/>
																			</g>
																		</g>
																	</g>
																</g>
															</g>
														</g>
													</g>
												</g>
											</g>
										</g>
									</g>
								</g>
								<g>
									<g>
										<g>
											<g>
												<g>
													<g>
														<g>
															<g>
																<g>
																	<g>
																		<g>
																			<g>
																				<g>
																					<path class="st4" d="M366.1,479c0,0.3,1.3,0.4,2.6,1.3c1.3,0.8,2,2,2.2,1.9c0.2,0-0.1-1.6-1.7-2.6
																						C367.6,478.5,366,478.7,366.1,479z"/>
																				</g>
																			</g>
																		</g>
																	</g>
																</g>
															</g>
														</g>
													</g>
												</g>
											</g>
										</g>
									</g>
								</g>
								<g>
									<g>
										<g>
											<g>
												<g>
													<g>
														<g>
															<g>
																<g>
																	<g>
																		<g>
																			<g>
																				<g>
																					<path class="st4" d="M360.4,481.3c-0.1,0.3,1.1,0.7,1.9,1.8c0.9,1.1,1.1,2.3,1.4,2.3c0.2,0,0.4-1.5-0.7-2.9
																						C362,481.1,360.4,481,360.4,481.3z"/>
																				</g>
																			</g>
																		</g>
																	</g>
																</g>
															</g>
														</g>
													</g>
												</g>
											</g>
										</g>
									</g>
								</g>
								<g>
									<g>
										<g>
											<g>
												<g>
													<g>
														<g>
															<g>
																<g>
																	<g>
																		<g>
																			<g>
																				<g>
																					<path class="st4" d="M357.1,488c0.2,0.1,0.6-1.2,0-2.7c-0.6-1.4-1.9-2-2-1.8c-0.2,0.2,0.6,1,1.2,2.2
																						C356.8,486.8,356.9,487.9,357.1,488z"/>
																				</g>
																			</g>
																		</g>
																	</g>
																</g>
															</g>
														</g>
													</g>
												</g>
											</g>
										</g>
									</g>
								</g>
								<g>
									<g>
										<g>
											<g>
												<g>
													<g>
														<g>
															<g>
																<g>
																	<g>
																		<g>
																			<g>
																				<g>
																					<path class="st4" d="M366.6,472.7c0.1,0.2,1.3-0.1,2.8,0c1.5,0.1,2.6,0.6,2.8,0.4c0.2-0.2-1-1.2-2.7-1.3
																						C367.7,471.6,366.5,472.5,366.6,472.7z"/>
																				</g>
																			</g>
																		</g>
																	</g>
																</g>
															</g>
														</g>
													</g>
												</g>
											</g>
										</g>
									</g>
								</g>
							</g>
						</g>
					</g>
					<g>
						<g>
							<g>
								<g>
									<g>
										<path class="st4" d="M383.1,340.7c0,0-14.7-1.2-16.3,14.8c-1.6,15.9-3.2,90.2-3.2,90.2l34.3,2.9l5.3-75.9l54.7-23.3
											C457.8,349.3,392.9,338.6,383.1,340.7z"/>
									</g>
								</g>
							</g>
						</g>
					</g>
					<g>
						<g>
							<g>
								<g>
									<g>
										<path class="st4" d="M443.6,319.2c0,0-8.9,25-7.2,27.8s24.6,14.2,24.6,14.2l57.3,22c0,0,5.9-9.4,5.9-23.7
											c0-14.4-19.9-40.3-19.9-40.3H443.6z"/>
									</g>
								</g>
							</g>
						</g>
					</g>
					<g>
						<g>
							<g>
								<g>
									<g>
										<g>
											<path class="st7" d="M460.6,348c0,0-0.1,0.1-0.3,0.1c-0.2,0.1-0.5,0.2-0.8,0.4c-0.8,0.3-1.8,0.8-3.2,1.4
												c-2.8,1.2-6.9,3-11.9,5.2c-10.2,4.4-24.6,10.6-41.1,17.7l0.2-0.3c-0.5,7.5-1.1,15.6-1.7,24c-1.4,19.6-2.7,37.7-3.7,52
												l0,0.3l-0.3,0c-10.4-0.9-19-1.7-25-2.2c-2.9-0.3-5.3-0.5-6.9-0.6c-0.8-0.1-1.4-0.1-1.8-0.2c-0.4,0-0.6-0.1-0.6-0.1
												c0,0,0.2,0,0.6,0c0.4,0,1,0.1,1.8,0.1c1.6,0.1,3.9,0.3,6.9,0.5c6,0.5,14.6,1.1,25,2l-0.3,0.2c1-14.3,2.2-32.4,3.6-52
												c0.6-8.4,1.2-16.5,1.7-24l0-0.2l0.2-0.1c16.6-7.1,31-13.1,41.2-17.5c5.1-2.1,9.2-3.8,12-5c1.4-0.6,2.4-1,3.2-1.3
												c0.3-0.1,0.6-0.2,0.8-0.3C460.5,348,460.6,348,460.6,348z"/>
										</g>
									</g>
								</g>
							</g>
						</g>
					</g>
					<g>
						<g>
							<g>
								<g>
									<g>
										<g>
											<path class="st7" d="M506.1,350.5c0,0-0.6-0.1-1.6-0.4c-1.1-0.4-2.6-0.8-4.3-1.4c-3.6-1.2-8.7-2.8-14.4-3.6
												c-5.7-0.9-11.1-0.6-14.8,0.2c-3.7,0.8-5.9,1.8-5.9,1.7c0,0,0.5-0.3,1.5-0.8c1-0.4,2.5-1,4.3-1.4c3.7-0.9,9.2-1.3,15-0.4
												c5.8,0.9,10.9,2.6,14.5,3.9c1.8,0.6,3.3,1.2,4.3,1.6C505.6,350.2,506.2,350.5,506.1,350.5z"/>
										</g>
									</g>
								</g>
							</g>
						</g>
					</g>
					<g>
						<g>
							<g>
								<g>
									<g>
										<g>
											<path class="st7" d="M498,337.4c0,0.1-1.9-0.3-5,0c-1.5,0.1-3.4,0.3-5.4,0.6c-2,0.2-4.3,0.5-6.6,1
												c-4.7,0.8-8.7,2.5-11.2,4.2c-2.6,1.7-3.8,3.2-3.9,3.1c0,0,0.2-0.4,0.8-1.1c0.6-0.6,1.5-1.5,2.8-2.4
												c2.6-1.8,6.6-3.6,11.4-4.4c2.3-0.4,4.6-0.7,6.7-0.9c2-0.2,3.9-0.4,5.5-0.4c1.6-0.1,2.8,0,3.7,0.2
												C497.6,337.2,498,337.3,498,337.4z"/>
										</g>
									</g>
								</g>
							</g>
						</g>
					</g>
				</g>
			</g>
			<g>
				<g>
					<g>
						<g>
							<g>
								<g>
									<g>
										<path class="st5" d="M422.4,248.2c0,0,10.3-17.1,13.1-20.6c2.7-3.2,6.1-5.2,8.4-6.2c1.3-0.6,2.6-0.9,4-1.2l14.7-3.3
											c0,0,0,10.1,10.6,10.7c10.5,0.6,19.4-14.1,19.4-14.1s17,2.6,21.1,4.7c4.1,2.1,10.5,4.8,14,22.4l2.5,17.3l-29.4,2.7
											l-2.8,43.6l-14.6,10.1c0,0-40.4,10.5-43,11.2c-2.6,0.7-3.4-65-3.4-65S426.6,254.1,422.4,248.2z"/>
									</g>
								</g>
							</g>
						</g>
					</g>
					<g>
						<g>
							<g>
								<path class="st4" d="M441.7,240.8c0,0-0.2,0.4-0.6,1.3c-0.3,0.8-0.8,2-1.2,3.6c-1,3-2,7.3-2.6,12.1
									c-0.6,4.8-0.6,9.2-0.4,12.4c0.1,1.6,0.2,2.9,0.3,3.7c0.1,0.9,0.2,1.4,0.2,1.4c0,0,0-0.5,0-1.4c-0.1-0.9-0.1-2.2-0.2-3.7
									c-0.1-3.2,0-7.5,0.6-12.3c0.6-4.8,1.6-9,2.4-12.1c0.4-1.5,0.8-2.7,1.1-3.6C441.6,241.3,441.7,240.8,441.7,240.8z"/>
							</g>
						</g>
					</g>
				</g>
				<g>
					<g>
						<path class="st4" d="M501.9,239.8c0,0,0.1,0.5,0,1.3c0,1-0.1,2.2-0.1,3.6c-0.2,3.2-0.3,7.3-0.6,11.9
							c-0.2,4.7-0.5,8.9-0.7,11.9c-0.1,1.5-0.2,2.8-0.3,3.6c-0.1,0.9-0.2,1.3-0.2,1.3c0,0-0.1-0.5,0-1.3c0-1,0.1-2.2,0.1-3.6
							c0.1-3.2,0.3-7.4,0.5-11.9c0.2-4.7,0.5-8.9,0.7-11.9c0.1-1.5,0.2-2.8,0.3-3.6C501.7,240.3,501.8,239.8,501.9,239.8z"/>
					</g>
				</g>
			</g>
			<g>
				<g>
					<g>
						<path class="st8" d="M442.9,312.3l55.3-12l2.6-39.5l24.6-2.3c0,0-1.7,27-1.9,35.1c-0.4,23.3-8.2,27.3-12.2,30.5
							c-4,3.2-70.9,1.7-70.9,1.7L442.9,312.3z"/>
					</g>
				</g>
				<g>
					<g>
						<path class="st8" d="M411.5,319.5c0.4,0.8,1.2,1.3,2.1,1.2c0.2,0,0.4,0,0.5-0.1c1.2-0.4,1.1-2.9,1.1-2.9l5.9-1
							c0,0,7.6,4.9,10.3,8.2c2.7,3.3,9.6,0.6,9.6,0.6l2.4-12.5l-10.8-9.8c0,0,0.7,0.6-0.1-1.2c-0.7-1.8-4.1-1.1-4.1-1.1
							c-0.5-0.9-2.7-1.2-2.7-1.2l-9.5,1.1c-1.9,0.2-3.7,1.3-4.7,3l-4,6.3c0,0-2.1,4.6-1.8,5.6c0.5,1.6,2.2,1.2,2.2,1.2
							s0.5,3,1.3,3.1C410,320.2,411.5,319.5,411.5,319.5L411.5,319.5z"/>
					</g>
				</g>
				<g>
					<g>
						<g>
							<path class="st9" d="M431.7,310.5c0,0.1-1.3,0-3.3,0.1c-2,0.1-4.8,0.5-7.7,1.4c-1.5,0.5-2.8,1.1-4,1.7
								c-1.1,0.6-2.3,1.2-2.7,2c-0.2,0.4-0.1,0.8,0.1,1.1c0.2,0.3,0.5,0.5,0.7,0.6c0.5,0.2,0.8,0.1,0.8,0.1c0,0-0.3,0.3-0.9,0.1
								c-0.3-0.1-0.6-0.3-0.9-0.6c-0.3-0.3-0.4-0.9-0.2-1.5c0.2-0.6,0.7-1,1.2-1.3c0.5-0.3,1.1-0.7,1.7-1c1.2-0.7,2.6-1.3,4.1-1.8
								c3-1,5.9-1.3,7.9-1.3C430.4,310.2,431.7,310.5,431.7,310.5z"/>
						</g>
					</g>
				</g>
				<g>
					<g>
						<g>
							<path class="st9" d="M432.3,316.6c0,0.2-3.9,0-8.6,0.3c-4.7,0.3-8.5,0.9-8.6,0.7c0-0.1,0.9-0.3,2.5-0.6
								c1.5-0.3,3.7-0.5,6.1-0.7c2.4-0.1,4.5-0.1,6.1,0C431.4,316.3,432.3,316.5,432.3,316.6z"/>
						</g>
					</g>
				</g>
				<g>
					<g>
						<g>
							<path class="st9" d="M411.6,319.3c0,0-0.1-0.4-0.1-1c0-0.7-0.1-1.6,0-2.8c0-0.6,0.1-1.2,0.3-1.9c0.2-0.7,0.5-1.4,0.9-2.1
								c0.9-1.3,2-2.6,3.5-3.6c1.5-1,3-1.8,4.5-2.3c1.5-0.5,2.9-0.6,4.1-0.6c1.2,0,2.1,0,2.8,0c0.7,0,1,0.1,1,0.1
								c0,0.1-1.4,0.1-3.7,0.3c-1.1,0.1-2.5,0.3-3.9,0.7c-1.4,0.5-2.9,1.3-4.3,2.3c-1.5,1-2.6,2.2-3.4,3.4c-0.9,1.2-1.1,2.6-1.2,3.7
								C411.7,317.8,411.7,319.3,411.6,319.3z"/>
						</g>
					</g>
				</g>
				<g>
					<g>
						<g>
							<path class="st9" d="M425.3,302.1c0,0.1-1.4,0.1-3.7,0.4c-2.2,0.3-5.7,0.5-7.6,3.5c-2.1,2.7-4,5.3-4.8,7.4
								c-0.8,2.1-0.8,3.6-0.9,3.5c0,0-0.1-0.4-0.1-1c0-0.6,0.2-1.6,0.6-2.7c0.7-2.2,2.5-4.9,4.7-7.7c0.6-0.7,1.1-1.3,1.8-1.9
								c0.7-0.5,1.5-0.8,2.2-1c1.5-0.4,2.9-0.5,4-0.6C423.8,301.9,425.3,302,425.3,302.1z"/>
						</g>
					</g>
				</g>
				<g>
					<g>
						<g>
							<path class="st9" d="M429.4,322.9c0,0-0.2-0.1-0.6-0.4c-0.4-0.3-0.9-0.7-1.6-1.3c-1.4-1.1-3.5-2.6-6.2-4.3l0.1,0
								c-1.7,0.3-3.7,0.6-5.9,1l0.2-0.2c0,0.5,0,0.9-0.1,1.4c-0.1,0.5-0.3,1-0.7,1.4c-0.2,0.2-0.5,0.3-0.8,0.4
								c-0.3,0.1-0.5,0.1-0.8,0c-0.6-0.1-1.1-0.4-1.5-0.8c-0.1-0.1-0.2-0.2-0.3-0.3l-0.1-0.1l0,0l0,0l0,0c-0.1,0,0.7,0.2,0.3,0.1
								l0,0l0,0l-0.2,0.1c-0.2,0.1-0.5,0.2-0.8,0.3c-0.3,0.1-0.5,0.2-0.8,0.2c-0.1,0-0.3,0-0.4,0c-0.1,0-0.3,0-0.5-0.1
								c-0.3-0.2-0.4-0.5-0.6-0.8c-0.1-0.3-0.2-0.5-0.3-0.8c-0.2-0.5-0.3-1.1-0.4-1.7l0.3,0.2c-0.8,0.1-1.7,0-2.2-0.7
								c-0.2-0.3-0.4-0.7-0.4-1.2c0-0.4,0.1-0.8,0.2-1.1c0.4-1.4,1-2.8,1.6-4.2l0,0l0,0c0.7-1.1,1.4-2.2,2.1-3.4
								c0.5-0.7,0.9-1.4,1.4-2.1c0.4-0.7,0.9-1.5,1.5-2.1c0.6-0.6,1.3-1.1,2.1-1.4c0.8-0.3,1.6-0.4,2.4-0.5c3.1-0.4,6.1-0.7,8.9-1
								l0,0l0,0c0.5,0.1,1.1,0.2,1.6,0.4c0.5,0.2,1,0.4,1.4,1l-0.3-0.1c1-0.4,2.2-0.4,3,0.2c0.9,0.6,1.3,1.5,1.5,2.4l-0.1-0.1
								c3.1,2.8,5.6,5.1,7.4,6.7c0.8,0.8,1.5,1.4,2,1.8c0.5,0.4,0.7,0.7,0.7,0.7c0,0-0.3-0.2-0.8-0.6c-0.5-0.4-1.2-1-2.1-1.8
								c-1.8-1.6-4.4-3.8-7.6-6.5l-0.1,0l0-0.1c-0.2-0.8-0.6-1.6-1.3-2.1c-0.7-0.5-1.7-0.5-2.6-0.1l-0.2,0.1l-0.1-0.2
								c-0.2-0.3-0.7-0.6-1.1-0.7c-0.5-0.2-1-0.3-1.5-0.4l0.1,0c-2.8,0.3-5.8,0.7-8.9,1.1c-0.8,0.1-1.5,0.2-2.3,0.5
								c-0.7,0.3-1.4,0.7-1.9,1.3c-0.6,0.5-0.9,1.3-1.4,2c-0.4,0.7-0.9,1.4-1.4,2.1c-0.7,1.2-1.5,2.3-2.1,3.4l0,0
								c-0.6,1.4-1.2,2.7-1.6,4.1c-0.1,0.3-0.2,0.7-0.2,1c0,0.3,0.1,0.6,0.3,0.8c0.3,0.5,1,0.6,1.6,0.5l0.3,0l0,0.3
								c0.1,0.5,0.2,1.1,0.4,1.6c0.1,0.5,0.4,1.1,0.6,1.3c0,0,0.1,0,0.2,0c0.1,0,0.2,0,0.4,0c0.2,0,0.5-0.1,0.7-0.2
								c0.2-0.1,0.5-0.2,0.7-0.2l0.2-0.1l0,0l0,0c-0.3-0.1,0.4,0.2,0.3,0.1l0,0l0,0l0,0l0,0.1c0.1,0.1,0.1,0.2,0.2,0.3
								c0.3,0.3,0.7,0.6,1.1,0.6c0.2,0,0.4,0,0.6,0c0.2,0,0.4-0.1,0.5-0.2c0.6-0.6,0.6-1.6,0.6-2.4l0-0.2l0.2,0
								c2.1-0.3,4.1-0.6,5.9-0.9l0.1,0l0.1,0c2.7,1.7,4.8,3.3,6.2,4.5c0.7,0.6,1.2,1,1.5,1.4C429.2,322.7,429.4,322.9,429.4,322.9z"
								/>
						</g>
					</g>
				</g>
			</g>
		</g>
		<g>
			<g>
				<g>
					<g>
						<g>
							<g>
								<polygon class="st7" points="481.8,339.9 472.5,339.9 472.5,342 492.8,540.6 503.7,540.6 								"/>
							</g>
						</g>
						<g>
							<g>
								<g>
									<path class="st4" d="M481.8,339.9c0,0,0,0.4,0.1,1c0.1,0.7,0.2,1.7,0.3,3c0.3,2.7,0.7,6.6,1.2,11.6
										c1.1,10.1,2.6,24.7,4.6,42.8c3.9,36.2,9.4,86.3,15.4,142.2l0.3-0.3c-3.2,0-6.6,0-10,0c-0.3,0-0.6,0-0.9,0l0.3,0.3
										c-9.6-93.5-17.8-172.6-20.6-198.6l0,0c0-1,0-1.5,0-2.1l-0.1,0.1c3.2,0,5.5,0,7,0c0.8,0,1.3,0,1.7,0
										C481.6,340,481.8,339.9,481.8,339.9s-0.2,0-0.5,0c-0.4,0-0.9,0-1.7,0c-1.6,0-3.9,0-7.1,0l-0.1,0l0,0.1c0,0.5,0,1.1,0,2.1
										l0,0l0,0c2.5,26,10.6,105.2,20.2,198.7l0,0.3h0.3c0.3,0,0.6,0,0.9,0c3.4,0,6.8,0,10,0h0.3l0-0.3
										c-6.2-55.9-11.7-106.1-15.7-142.4c-2-18.1-3.6-32.6-4.8-42.7c-0.6-5-1-8.9-1.3-11.6c-0.2-1.3-0.3-2.3-0.3-3
										C481.8,340.3,481.8,339.9,481.8,339.9z"/>
								</g>
							</g>
						</g>
					</g>
				</g>
			</g>
			<g>
				<g>
					<g>
						<g>
							<g>
								<polygon class="st4" points="317.4,339.9 308.1,339.9 308.1,342 327.5,540.6 337,540.6 								"/>
							</g>
						</g>
					</g>
				</g>
				<g>
					<g>
						<g>
							<polygon class="st7" points="520.6,342 189,342.3 188.9,333.6 520.6,333.6 							"/>
						</g>
					</g>
				</g>
				<g>
					<g>
						<g>
							<g>
								<polygon class="st7" points="235.7,339.9 245,339.9 245,342 225.6,540.6 216,540.6 								"/>
							</g>
						</g>
					</g>
					<g>
						<g>
							<g>
								<g>
									<path class="st4" d="M235.2,342.5c0,0,0,0.4-0.1,1c-0.1,0.7-0.2,1.7-0.3,3c-0.2,2.6-0.6,6.5-1.1,11.5
										c-1,10-2.3,24.4-4.1,42.2c-3.5,35.7-8.3,85.1-13.6,140.1l-0.3-0.3c3,0,6.2,0,9.4,0c0,0,0.1,0,0.1,0l-0.3,0.2
										c9.1-91.9,16.7-169.8,19.3-195.7l0,0c0-1,0-1.6,0-2.1l0.1,0.1c-3.2,0-5.5,0-7,0c-0.8,0-1.3,0-1.7,0
										C235.4,342.6,235.2,342.5,235.2,342.5s0.2,0,0.5,0c0.4,0,0.9,0,1.7,0c1.5,0,3.9,0,7.1,0l0.1,0l0,0.1c0,0.6,0,1.1,0,2.1v0
										l0,0c-2.5,25.9-10,103.8-18.9,195.7l0,0.2h-0.2c0,0-0.1,0-0.1,0c-3.2,0-6.4,0-9.4,0h-0.3l0-0.3
										c5.4-55.1,10.3-104.6,13.8-140.3c1.8-17.8,3.2-32.2,4.2-42.1c0.5-4.9,0.9-8.8,1.2-11.4c0.1-1.3,0.2-2.3,0.3-3
										C235.2,342.9,235.2,342.5,235.2,342.5z"/>
								</g>
							</g>
						</g>
					</g>
				</g>
				<g>
					<g>
						<g>
							<g>
								<polygon class="st7" points="370,340.7 360.7,340.7 360.7,342.8 380.1,540.6 389.7,540.6 								"/>
							</g>
						</g>
					</g>
					<g>
						<g>
							<g>
								<g>
									<path class="st4" d="M370.5,343.3c0,0,0,0.4,0.1,1c0.1,0.7,0.2,1.7,0.3,3c0.2,2.6,0.6,6.5,1.1,11.4c1,9.9,2.3,24.3,4.1,42
										c3.5,35.5,8.3,84.8,13.6,139.6l0.3-0.3c-3,0-6.2,0-9.4,0c0,0-0.1,0-0.1,0l0.3,0.2c-9.1-91.6-16.7-169.2-19.3-194.9l0,0
										c0-1,0-1.5,0-2.1l-0.1,0.1c3.2,0,5.5,0,7,0c0.8,0,1.3,0,1.7,0C370.3,343.3,370.5,343.3,370.5,343.3s-0.2,0-0.5,0
										c-0.4,0-0.9,0-1.7,0c-1.5,0-3.9,0-7.1,0l-0.1,0l0,0.1c0,0.5,0,1.1,0,2.1v0l0,0c2.5,25.8,10,103.4,18.9,195l0,0.2h0.2
										c0,0,0.1,0,0.1,0c3.2,0,6.4,0,9.4,0h0.3l0-0.3c-5.4-54.9-10.3-104.2-13.8-139.7c-1.8-17.7-3.2-32.1-4.2-42
										c-0.5-4.9-0.9-8.8-1.2-11.4c-0.1-1.3-0.2-2.3-0.3-2.9C370.5,343.6,370.5,343.3,370.5,343.3z"/>
								</g>
							</g>
						</g>
					</g>
				</g>
			</g>
			<g>
				<g>
					<path class="st4" d="M519.4,342.1c0-0.2-66.9-0.3-149.3-0.3c-82.5,0-149.3,0.1-149.3,0.3c0,0.2,66.8,0.3,149.3,0.3
						C452.5,342.3,519.4,342.2,519.4,342.1z"/>
				</g>
			</g>
		</g>
		<g>
			<g>
				<g>
					<g>
						<path class="st0" d="M311.7,272.1l72.8,0.6c2.4,0,4.6,1.1,5,3.5l8,53.1h37.5c1.2,0,2.2,1,2.2,2.2c0,1.2-1,2.2-2.2,2.2h-36.9
							h-7h-76l-8.2-56C306.5,274.7,308.7,272.1,311.7,272.1z"/>
					</g>
				</g>
				<g>
					<g>
						<g>
							<path class="st4" d="M311.7,272.1c0,0-0.4-0.1-1.1,0.1c-0.7,0.2-1.9,0.6-2.8,1.8c-0.5,0.6-0.8,1.4-0.9,2.3
								c-0.1,0.9,0.2,1.9,0.3,3c0.3,2.1,0.7,4.6,1.1,7.4c1.6,11.1,3.9,27.2,6.8,46.9l0,0.2l0.2,0c31,0,71.8,0,116.3,0.1
								c1,0,2.1,0,3.1,0c0.5,0,1.2,0,1.7-0.3c0.5-0.3,0.9-0.8,1.1-1.3c0.4-1.1-0.1-2.5-1.1-3c-0.5-0.3-1.2-0.3-1.6-0.3l-1.5,0
								c-4.1,0-8.2,0-12.2,0c-8,0-15.8,0-23.4,0l0.3,0.2c-2.9-19-5.5-36.7-7.9-52.7c-0.1-1-0.5-2.1-1.3-2.8
								c-0.8-0.7-1.8-1.1-2.8-1.2c-1-0.2-2-0.1-2.9-0.1c-1,0-1.9,0-2.9,0c-3.8,0-7.4-0.1-11-0.1c-7,0-13.6-0.1-19.5-0.1
								c-11.8-0.1-21.3-0.1-27.7-0.1c-3.2,0-5.7,0-7.4,0c-0.8,0-1.5,0-1.9,0C311.9,272.1,311.7,272.1,311.7,272.1s0.2,0,0.7,0
								c0.4,0,1.1,0,1.9,0c1.7,0,4.2,0.1,7.4,0.1c6.5,0.1,15.9,0.2,27.7,0.3c5.9,0.1,12.4,0.1,19.5,0.2c3.5,0,7.2,0.1,11,0.1
								c0.9,0,1.9,0,2.9,0c1,0,1.9,0,2.9,0.1c0.9,0.1,1.8,0.5,2.5,1.1c0.7,0.6,1.1,1.5,1.2,2.5c2.4,15.9,5,33.7,7.9,52.7l0,0.2h0.2
								c7.5,0,15.3,0,23.4,0c4,0,8.1,0,12.2,0l1.5,0c0.5,0,0.9,0,1.4,0.2c0.8,0.4,1.2,1.5,0.9,2.3c-0.2,0.4-0.5,0.8-0.9,1
								c-0.4,0.2-0.8,0.3-1.4,0.2c-1,0-2.1,0-3.1,0c-44.5,0-85.2,0.1-116.3,0.1l0.2,0.2c-2.9-19.7-5.3-35.7-6.9-46.9
								c-0.4-2.8-0.8-5.2-1.1-7.4c-0.1-1.1-0.4-2.1-0.3-3c0.1-0.9,0.4-1.7,0.8-2.3c0.9-1.2,2-1.7,2.7-1.9
								C311.3,272.1,311.7,272.1,311.7,272.1z"/>
						</g>
					</g>
				</g>
			</g>
			<g>
				<g>
					<path class="st2" d="M355.7,302.2c0,2.5-2,4.6-4.6,4.6c-2.5,0-4.6-2-4.6-4.6c0-2.5,2-4.6,4.6-4.6
						C353.7,297.6,355.7,299.7,355.7,302.2z"/>
				</g>
			</g>
			<g>
				<g>
					<g>
						<path class="st4" d="M394.5,333.1c-0.1,0-2.4-13.5-5.2-30.2c-2.8-16.7-4.9-30.2-4.8-30.3c0.1,0,2.4,13.5,5.2,30.2
							C392.4,319.6,394.6,333.1,394.5,333.1z"/>
					</g>
				</g>
			</g>
		</g>
	</g>
</g>
</svg>
