<?xml version="1.0" encoding="utf-8"?>
<!-- Generator: Adobe Illustrator 28.3.0, SVG Export Plug-In . SVG Version: 6.00 Build 0)  -->
<svg version="1.1" id="Layer_1" xmlns="http://www.w3.org/2000/svg" xmlns:xlink="http://www.w3.org/1999/xlink" x="0px" y="0px"
	 viewBox="0 0 1200 450" style="enable-background:new 0 0 1200 450;" xml:space="preserve">
<style type="text/css">
	.st0{fill:#D3896C;}
	.st1{fill:#4F3733;}
	.st2{fill:#995C4A;}
	.st3{fill:#6B4540;}
	.st4{fill:#F2C291;}
	.st5{fill:#E5AF7F;}
	.st6{fill:#5371A0;}
	.st7{fill:#46638C;}
	.st8{fill:#314056;}
	.st9{fill:#2C353F;}
	.st10{fill:#6B443F;}
	.st11{fill:#EFE6E4;}
	.st12{fill:#FFFFFF;}
	.st13{fill:#EEF5FF;}
	.st14{fill:#CED7EF;}
	.st15{fill:#ABBADD;}
	.st16{opacity:0.25;}
	.st17{fill:#5E3835;}
	.st18{fill:#845552;}
	.st19{fill:#263344;}
	.st20{fill:#EA957A;}
	.st21{fill:#E2DEDC;}
	.st22{fill:#2C3A4C;}
	.st23{fill:#FFA782;}
	.st24{fill:#D5735B;}
	.st25{opacity:0.14;}
	.st26{fill:#9CC9FF;}
	.st27{fill:#AADFF2;}
	.st28{fill:#8FBFCC;}
	.st29{fill:#466591;}
	.st30{fill:#D16949;}
	.st31{fill:#AD5544;}
	.st32{fill:#FF7D6C;}
	.st33{fill:#2A323D;}
	.st34{fill:#FFB297;}
	.st35{fill:#FFB69C;}
	.st36{fill:#DBCEC3;}
	.st37{fill:#7C5149;}
	.st38{fill:#724842;}
	.st39{fill:#CCBCB0;}
	.st40{opacity:0.14;fill:#FF9A8D;}
	.st41{fill:#F49473;}
	.st42{fill:#84604E;}
	.st43{fill:#7A5747;}
	.st44{fill:#5B88C9;}
	.st45{fill:#4778B2;}
	.st46{fill:#222E3A;}
	.st47{opacity:0.11;}
	.st48{fill:#962A15;}
	.st49{fill:#E5B593;}
	.st50{fill:#EFC6A8;}
	.st51{opacity:0.19;fill:#7F5132;}
	.st52{fill:#513936;}
	.st53{fill:#DCE9FF;}
	.st54{fill:#E41663;}
	.st55{fill:#293849;}
	.st56{fill:#A50850;}
	.st57{fill:#FFF6EE;}
	.st58{fill:#DBC9BD;}
	.st59{fill:#F4EEED;}
	.st60{fill:#936B5A;}
	.st61{fill:#59697C;}
	.st62{fill:#5A7CB9;}
	.st63{fill:#EBF2FF;}
	.st64{fill:#3D68A5;}
	.st65{fill:#B4BFD6;}
	.st66{fill:#333549;}
	.st67{fill:#E1E8F4;}
	.st68{fill:#EAE0D8;}
	.st69{fill:#FFE9D7;}
	.st70{opacity:0.18;}
	.st71{fill:#FFC799;}
	.st72{fill:#F4EDE9;}
	.st73{fill:#FFA38A;}
	.st74{fill:#334659;}
	.st75{fill:#202933;}
	.st76{fill:#41546B;}
	.st77{fill:#FFD1AB;}
	.st78{fill:#FFB399;}
	.st79{fill:#FF9B80;}
</style>
<g>
	<g>
		<g>
			<ellipse class="st0" cx="662.1" cy="54.3" rx="5.7" ry="11.3"/>
		</g>
		<g>
			<path class="st0" d="M669,25.8c-2.5,8.9-7.1,53.8-0.1,61.2c7,7.4,14.8,9.7,24.3,9.6c9.5-0.2,19.3-4.5,22.4-9.4
				c3-4.9,7.4-56.5,6.2-61.3c-1.2-4.8-8.1-13.1-25.4-14.3C679,10.4,669.6,23.4,669,25.8z"/>
		</g>
		<g>
			<path class="st1" d="M679.1,46.2c-0.2,1.9-0.9,3.4-1.6,3.4c-0.8,0-1.2-1.5-1.1-3.4c0.2-1.9,0.9-3.4,1.6-3.4
				C678.8,42.7,679.3,44.3,679.1,46.2z"/>
		</g>
		<g>
			<path class="st1" d="M706.8,48c-0.2,1.9-0.9,3.4-1.6,3.4s-1.2-1.5-1.1-3.4c0.2-1.9,0.9-3.4,1.6-3.4C706.5,44.5,707,46.1,706.8,48
				z"/>
		</g>
		<g>
			<path class="st2" d="M690.8,74.1c-7,0-11.7-2.5-12-2.7l0.6-1.1l-0.3,0.6l0.3-0.6c0.1,0.1,10.4,5.6,23,0l0.5,1.2
				C698.5,73.4,694.4,74.1,690.8,74.1z"/>
		</g>
		<g>
			<path class="st2" d="M690.4,77.7c-1.7,0-2.9-0.8-2.9-0.9l0.7-1.1c0.1,0.1,2.1,1.4,4.3,0l0.7,1.1
				C692.2,77.5,691.3,77.7,690.4,77.7z"/>
		</g>
		<path class="st2" d="M663.1,45.6l-1.3,0.1c0.1,0.8,0.1,4,0.1,7.3l-2.3-1.1l-0.6,1.2l2.8,1.3c0,3.5-0.1,6.7-0.1,6.7l1.3,0
			C663.1,60.6,663.3,47.5,663.1,45.6z"/>
		<g>
			
				<ellipse transform="matrix(9.403016e-02 -0.9956 0.9956 9.403016e-02 599.2971 772.3698)" class="st0" cx="724" cy="56.9" rx="11.3" ry="6.6"/>
		</g>
		<path class="st2" d="M727.6,56l-0.4-1.2l-2.9,0.9c0.3-3.4,0.6-6.5,0.8-7.3l-1.3-0.3c-0.4,1.9-1.4,14.9-1.5,15.5l1.3,0.1
			c0.1-1.8,0.3-4.2,0.5-6.7L727.6,56z"/>
		<g>
			<path class="st3" d="M665.7,29.4l-0.6,15.2l0.9,2l-0.4,5.2h1.6c0,0,1.8-18.5,1.8-18.7c0.1-0.2,3-1.5,3.6-2.6
				c0.6-1.1,0.7-7.4,1.9-9.4c1.3-2.3,7.1-7.8,22.3-7.3c15.2,0.5,18.8,9.6,18.9,10.4c0.1,0.8-0.2,6.8,0.3,8c0.5,1.3,2.7,2.9,2.7,2.9
				s-1,20.3-0.5,20.5c0.5,0.2,1.7-0.5,1.7-0.5l2.9-20.4c0,0,2.1,0.1,3.5-1.9c1-1.4-0.9-3.4-0.9-3.4s2.9-1.2,2.5-3.1
				c-0.4-1.9-1.5-2.7-1.5-2.7s4.7-2.2,1-6.9c-3.7-4.8-10.2-5.2-10.4-5.1s-0.2-7.4-10-10.4c-9.8-3-12.9,1.4-12.9,1.4s-1.6-1.2-3-1.1
				c-1.4,0.2-1.4,1.2-1.4,1.2s-3.2-2.3-7.2-0.6s-3.7,4.6-4.2,4.7c-0.5,0.1-1.8-2-3.3-1.3c-1.4,0.7-1.3,2.6-1.3,2.6s-6,1.1-7.4,5.3
				c-1.4,4.3,0.7,6.1,0.7,6.1s-4.6,2.7-4.5,5.5S665.7,29.4,665.7,29.4z"/>
		</g>
		<g>
			<path class="st0" d="M674.4,89.6l-1,16.8l-7.6,8.7l24,17.9c0,0,23.7-15.3,23.5-15.7c-0.2-0.4-5.2-9.7-5.6-10.2
				c-0.3-0.5,1.1-16.8,1.1-16.8L674.4,89.6z"/>
		</g>
		<g>
			<path class="st4" d="M674.2,94.4c0,0-4.9,0.4-6.3,2.1c-1.4,1.7-2,8.1-2,8.1s-43.9,9-49.1,18.7c-5.2,9.6-16.1,96.1-9.9,102.1
				c6.2,6,21.3,4.5,21.3,4.5s-0.1,20.2,0.9,22c1,1.9,13.7,10.9,13.7,10.9l92.9,2.1c0,0,14.4-8.9,15.5-11.5c1-2.6,1.2-14.7,1.2-14.7
				s21.4-2.1,23-11.3c1.6-9.2-4-98.8-9.3-105.1c-5.3-6.3-48-17.2-48-17.2s0.6-7.6-1-9.1s-8.5-2.3-8.5-2.3s-4.6,23.1-18.3,21.9
				C676.6,114.5,674.2,94.4,674.2,94.4z"/>
		</g>
		<path class="st5" d="M752.3,238.8c-19.5-2.8-45-6.7-46.3-7.2c-1-0.4-1.5-4-1.3-7.1l-1.3-0.1c-0.1,1.2-0.3,7.5,2.2,8.4
			c1.8,0.6,34.3,5.4,46.7,7.2C752.3,239.4,752.3,238.9,752.3,238.8z"/>
		<g>
			<path class="st5" d="M634.6,193.8c-0.2-0.6-0.6-0.6-2.5-0.4c-1,0.1-2.5,0.2-4.4,0.4c-3.4,0.3-7.5,0.7-10.1,1
				c-1.1,0.1-2.1,0.2-2.6,0.3c0.1,0.4,0.1,0.9,0.2,1.3c0.4,0,1.1-0.1,2.5-0.3c2.1-0.2,5.9-0.6,9.3-0.9c-3.6,0.9-8.1,1.9-11.6,2.7
				c0.1,0.4,0.1,0.9,0.2,1.3c3.3-0.8,17.6-4.1,18.6-4.6C634.5,194.4,634.6,194.1,634.6,193.8z"/>
		</g>
		<g>
			<path class="st6" d="M679.3,217.8c0.2,0.4,3.3,14.3,3.3,14.3h9.7l2-15.5L679.3,217.8z"/>
		</g>
		<path class="st7" d="M686.9,222.7l1.7,8.5c0,0,1,0.3,0.9,0c0-0.3-1.5-8.9-1.5-8.9L686.9,222.7z"/>
		<g>
			<path class="st0" d="M664.7,219.8c1.2,0.1,45.4,8.6,46.1,7c0.7-1.5,3.2-18.3,2.6-19c-0.6-0.7-57.3-7.7-57.3-7.7L664.7,219.8z"/>
		</g>
		<g>
			<path class="st3" d="M718.1,52.1c0,0-0.1,6.7-1.7,12.3c-1.6,5.7-6,8.2-6,8.2s-0.6-9.2-3.8-10.7c-3.2-1.5-11.3,2.2-15.3,2.5
				c-3.9,0.3-12.7-4.4-16-2.9c-3.3,1.5-5.2,7.5-5.2,7.5c-3.6-2.6-2.8-17.7-2.8-17.7l-1.6,0.1c-0.7,2.4-3.2,26.5,0.8,34.1
				c3.2,6.1,14.9,11.9,24.1,12c9.2,0.2,21-1.9,25.3-9.1c4.2-7.2,4.2-34.7,4.2-34.7L718.1,52.1z M691.4,83.2
				c-18.7-0.2-16.7-11.4-15.3-13.6c2.2-3.4,8.5,1.8,15.2,1.6c6.7-0.2,11.8-4,13.7-2.7S710.1,83.4,691.4,83.2z"/>
		</g>
		<g>
			<path class="st5" d="M770.3,206.9c-0.5,0-6.1-0.5-11.4-1c-11.1-1.1-11.1-1.2-11.2-1.7l0.3-0.7c0.2-0.1,0.7-0.4,18.5-1.1l0.1,1.3
				c-3.5,0.1-8.2,0.4-11.9,0.6c6.2,0.6,14.9,1.5,15.6,1.5V206.9z"/>
		</g>
		<g>
			<path class="st5" d="M693.2,192.1c-0.4-1.8-1.4-4.6-2.3-5c-1.8-0.3-24.3,2.7-37.5,4.8l-0.2-1.3c7.4-1.3,36.6-5.4,38.2-4.7
				c1.8,0.7,2.9,5.1,3.1,5.9L693.2,192.1z"/>
		</g>
		<path class="st5" d="M628.1,229.9c0,0,0,0.5,0,1.3l47.5-9.2l-0.3-1.3l-47.4,9.2C628,229.9,628.1,229.9,628.1,229.9z"/>
		<g>
			
				<rect x="638.6" y="148.2" transform="matrix(0.9933 -0.1155 0.1155 0.9933 -15.7543 74.9727)" class="st5" width="1.3" height="50.5"/>
		</g>
		<g>
			<path class="st2" d="M695.4,212.6l-0.1-0.5l-0.3-0.7c0.1-0.1,0.3-0.1,15.4-3.3l0.3,1.3C704.7,210.6,695.9,212.5,695.4,212.6z"/>
		</g>
		<g>
			
				<rect x="634" y="149.7" transform="matrix(0.8417 -0.5399 0.5399 0.8417 16.7082 367.2549)" class="st5" width="1.3" height="10.9"/>
		</g>
		<g>
			<path class="st5" d="M674,127.6c0.8,0.4,1.6,0.6,2.4,0.6c1.1,0,2.3-0.4,3.5-1.2c1.5-1,2.8-3,4.2-5.2c1.6-2.6,3.3-5.3,5.4-6.3
				c-0.6-0.1-1.2-0.2-1.8-0.4c-1.9,1.5-3.4,3.8-4.7,6c-1.3,2-2.5,4-3.8,4.8c-1.6,1-3,1.2-4.4,0.6c-5.2-2.5-8.1-16.4-8.9-22
				c0,0.1,0,0.1,0,0.1s-0.4,0.1-1.2,0.3C665.5,110.5,668.2,124.5,674,127.6z"/>
			<path class="st5" d="M718.2,105.2c-0.8,11.7-6.5,18.3-11.3,20.4c-1.9,0.8-3.1,0.7-3.5,0.4c-1.1-1-2.3-2.8-3.5-4.7
				c-1.5-2.3-3.1-4.8-5-6.3c-0.5,0.2-1.1,0.3-1.7,0.5c2.1,1.1,4,4,5.6,6.6c1.3,2,2.4,3.9,3.7,5c0.9,0.8,2.7,0.7,4.9-0.2
				c5.3-2.3,11.1-9.1,12-21.3C718.9,105.4,718.4,105.3,718.2,105.2z"/>
		</g>
		<g>
			<path class="st0" d="M633,196.8c0,0,0.1-3.8-1.1-6.6c-1.2-2.8-8-5.8-8.7-9.3c-0.7-3.3,1.6-4.6,1.6-4.6s-1.1-3.1,1-5
				c2.1-1.9,3.6-0.4,3.6-0.4s-0.6-2.7,2-3.9c2.6-1.2,10.7,6,12.6,12c0,0-6-13.8-2.4-14.9c3.8-1.1,14.2,19.6,12.9,29
				C653.2,202.6,633,196.8,633,196.8z"/>
		</g>
		<g>
			
				<rect x="719.3" y="172.8" transform="matrix(0.1153 -0.9933 0.9933 0.1153 486.3912 893.034)" class="st5" width="50.5" height="1.3"/>
		</g>
		<g>
			
				<rect x="743.6" y="154.5" transform="matrix(0.54 -0.8417 0.8417 0.54 214.0191 701.8419)" class="st5" width="10.9" height="1.3"/>
		</g>
		<g>
			<polygon class="st6" points="658.7,105.7 679,203 693.5,202.1 726.3,106.6 720.9,105.3 686.3,198.3 664.2,104.4 			"/>
		</g>
		<g>
			<path class="st4" d="M629.4,195.8c0,0,60.4-10.1,62.1-8.2c1.8,1.9,6.2,26.6,6.1,28c-0.1,1.4-68.8,14.4-69.5,14.4
				c-0.7,0-6-32-6-32L629.4,195.8z"/>
		</g>
		<path class="st2" d="M633.6,183.1c3,3.5,4.2,8.2,4.2,8.2l1.3-0.3c-0.1-0.2-1.3-5.1-4.5-8.8c-2.6-3-7.5-7.4-9.9-6.5
			c0.1,0.4,0.2,0.6,0.2,0.6s-0.2,0.1-0.5,0.4C625.4,176.2,630.2,179.1,633.6,183.1z"/>
		<path class="st2" d="M642.9,190.7l1.3-0.2c-1.6-11.3-11.7-18.5-14.7-20.7c-0.1,0.7,0,1.2,0,1.2s-0.5-0.5-1.3-0.5
			C629.9,171.8,641.2,179.1,642.9,190.7z"/>
		<g>
			<path class="st4" d="M709.2,203.3c-0.3,1.1-4.6,26.9-3.3,28c1.3,1.1,46.4,7.4,46.4,7.4s13.7-28.4,13.4-29
				c-0.3-0.6-30.5-7.6-30.5-7.6L709.2,203.3z"/>
		</g>
		<path class="st2" d="M643.4,177.4c-0.7-1.5-1.8-3-2.9-4.4c2.8,4.4,5.6,8.3,7.6,16.6l1.3-0.3c-2-8.4-4.8-12.4-7.7-16.8
			C642.2,174.3,642.9,176.1,643.4,177.4z"/>
		<g>
			<path class="st0" d="M689.2,191.6c0,0,41.8-5,48.4-4.3c6.6,0.6,11.7,17.5,11.7,17.5l-14.1-1.8c0,0-0.8-0.5-1.5-0.5
				c-0.7,0-39.4,9.8-40.7,9.1C691.5,210.9,689.2,191.6,689.2,191.6z"/>
		</g>
		<g>
			<path class="st8" d="M679.7,450c0.2-1.5,0.4-4,0.6-7.3c0.1-1.3,2.6-3.2,2.7-4.7c0.1-2.1-2.3-3.9-2.1-6.4c0.1-2,2.1-4.5,2.2-6.7
				c0.1-1.8-1.8-3.2-1.7-5.1c1.7-38.8,3.6-99.4,4.8-99.5c0.8,0,5,51.9,8.1,90.4c0.2,2,2.3,4.3,2.5,6.2c0.2,2.4-1.6,4.5-1.5,6.7
				c0.2,3,2.8,6,3,8.6c0.2,2.5-2,4.7-1.8,6.8c0.4,5.1,0.7,8.9,0.8,10.9h54.9c-0.1-2.6-0.2-8.8-0.4-17.3c0-1.9,3.2-3.9,3.1-6.1
				c0-1.9-3.4-3.9-3.4-5.9c-0.1-3.1,2.6-6.6,2.5-10c-0.1-2.9-2.9-5.6-3-8.7c-1.2-53.8-3.2-132.4-3.9-133.8
				c-1.1-2.3-8.7-12.3-8.7-12.3s-26.6,1.9-51.6,1.4c-21.4-0.4-41.3-3.3-46.6-2.4c-0.3,0-10.4,12.1-10.9,15.7
				c-0.3,2.6-3.7,93.7-5.6,145.3c-0.1,2.2,2.2,4.3,2.1,6.4c-0.1,1.5-2.5,3-2.5,4.4c-0.1,2.8,1.7,5.6,1.6,8c-0.1,1.9-2,3.6-2.1,5.2
				c-0.2,5-0.3,8.5-0.4,10H679.7z"/>
		</g>
		<path class="st9" d="M712,271.1l35.4-1.3c0-0.9-0.1-1.5-0.2-1.6c-0.7-1.3-3.5-5.3-5.8-8.4c-5.8-0.1-16.7,2-29.5,1.9V271.1z"/>
		<path class="st9" d="M707.7,261.5c-13.2-0.1-28-0.3-41-0.4v9.3l41,0.7V261.5z"/>
		<path class="st9" d="M662.7,261.1c-10.8-0.1-20-2.3-25.6-2.3c-2.1,2.7-4.8,6.2-6.3,8.9l31.6,2.1L662.7,261.1z"/>
		<g>
			<path class="st10" d="M681.8,33.6c-1.7-0.1-3.4-0.1-5.1-0.1c-2.1,0-2.1,3.3,0,3.3c1.7,0,3.4,0,5.1,0.1
				C683.9,37,683.9,33.7,681.8,33.6z"/>
		</g>
		<g>
			<path class="st10" d="M709.3,35.3c-1.8-0.5-3.5-0.7-5.4-0.9c-2.1-0.2-2.1,3.1,0,3.3c1.5,0.1,3,0.4,4.5,0.8
				C710.5,39,711.3,35.8,709.3,35.3z"/>
		</g>
		<g>
			<g>
				<path class="st11" d="M683.3,53.8c-2.4,1.4-10.3,1.8-13-0.9c-2.2-2.2-1.7-8.8-1.2-11.7c6.7-1.2,14.8,0.4,16.9,0.9
					c-0.1,2.1-0.4,4.8-0.8,7c0.5-0.8,1-1.5,1.7-2.3c0.3-2.5,0.5-4.7,0.5-5.2l0-0.5l-0.5-0.1c-0.4-0.1-10.4-2.6-18.5-1l-0.4,0.1
					l-0.1,0.4c-0.1,0.4-1.8,9.9,1.5,13.3c1.7,1.7,4.9,2.4,7.9,2.4c2.1,0,4.2-0.3,5.6-0.8C683.1,54.8,683.2,54.3,683.3,53.8z"/>
			</g>
		</g>
		<g>
			<path class="st11" d="M707.6,58.5c-4.1,0-8.8-1.7-10.1-3.3c-1.7-2.3-0.6-12-0.4-13.1l0.1-0.5l0.5,0c0.4,0,10.6-0.8,18.3,2.3
				l0.4,0.2l0,0.4c0,0.4,0,10.1-3.8,12.8C711.3,58.2,709.5,58.5,707.6,58.5z M698.3,42.8c-0.5,4-0.8,10.3,0.2,11.6
				c1.4,1.9,10,4.1,13.3,1.7c2.6-1.8,3.2-8.4,3.3-11.3C708.7,42.5,700.5,42.7,698.3,42.8z"/>
		</g>
		<g>
			<polygon class="st11" points="720.9,48.8 718.2,47.5 715.6,47.3 715.7,46 718.6,46.2 721.5,47.5 			"/>
		</g>
		<g>
			<polygon class="st11" points="668.1,44.6 666.2,44.5 665.2,45.1 664.4,44 666.3,43.2 668.2,43.3 			"/>
		</g>
		<g>
			<g>
				<path class="st2" d="M692.6,64.3c-3.6,0-10.1-1.4-10.3-6.8c-0.2-6.6,6.8-14.6,7.1-14.9l1,0.9c-0.1,0.1-6.9,8-6.7,14
					c0.2,5.7,9.2,5.6,9.3,5.6l0,1.3C692.8,64.3,692.7,64.3,692.6,64.3z"/>
			</g>
		</g>
		<g>
			<path class="st11" d="M696.6,46.4c-0.1-0.1-1.4-3.1-4.7-3.2c-3.3-0.1-4.9,2.2-4.9,2.3l-1.1-0.7c0.1-0.1,1.9-2.8,5.9-2.8
				c0.1,0,0.1,0,0.2,0c4.1,0.1,5.8,3.8,5.8,3.9L696.6,46.4z"/>
		</g>
		<g>
			<path class="st12" d="M675.7,42.9c0,1.1-1.2,2.3-2.7,2.8c-1.5,0.5-2.7,0-2.7-1c0-1.1,1.2-2.3,2.7-2.8
				C674.5,41.4,675.7,41.9,675.7,42.9z"/>
		</g>
		<g>
			<path class="st12" d="M704.2,45c0,1.1-1.2,2.3-2.7,2.8c-1.5,0.5-2.7,0-2.7-1c0-1.1,1.2-2.3,2.7-2.8C703,43.4,704.2,43.9,704.2,45
				z"/>
		</g>
		<g>
			<path class="st13" d="M670.1,230.5v20.2h33.5c0,0,0.5-19.8,0-19.9C703.1,230.6,670.1,230.5,670.1,230.5z"/>
		</g>
		<g>
			<path class="st5" d="M729.5,203.5c-1.5,16.8-3.6,28.8-5.7,31.6c0.5,0.1,0.9,0.2,1.3,0.3c2.9-4.9,4.8-21.3,5.7-32.2
				C730.9,203.1,729.9,203.4,729.5,203.5z"/>
		</g>
		<path class="st5" d="M670.6,189.4c-0.4,0.1-0.9,0.1-1.3,0.2c-0.2,6.5-0.2,21.4,4.2,31.5c0.4-0.1,0.9-0.2,1.3-0.3
			C670.4,211,670.4,195.7,670.6,189.4z"/>
		<g>
			<polygon class="st14" points="672.9,232.8 672.8,248.2 685.2,248.2 685.3,233 			"/>
		</g>
		<g>
			<path class="st15" d="M685.2,243.7c-1.6-0.8-4.8-1.8-4.8-1.8s1.1-0.4,1.3-0.9c0.2-0.5,0.5-5.7-0.1-6.3c-0.6-0.6-4.5-1-5.5,0
				c-0.9,0.9-0.8,5.8-0.4,6.3c0.4,0.5,1,0.6,1,0.6s-3,1.3-4,2.1l0,4.5h12.4L685.2,243.7z"/>
		</g>
		<g>
			<rect x="686.9" y="233.2" class="st15" width="15.5" height="4.1"/>
		</g>
		<g>
			<polygon class="st15" points="686.7,238.5 686.6,248 702.1,248 702.2,238.5 			"/>
		</g>
		<g class="st16">
			<path class="st12" d="M695.5,240.2c2.7-1.7,5.5-3.3,8.3-4.8c0-2.6-0.1-4.6-0.2-4.6c-0.2,0-4.8-0.1-10.5-0.1
				c-3.6,2.3-7.5,4.3-11.1,6.4c-3.9,2.3-8,4.4-11.8,6.8v6.8h8.3C684.1,247.3,689.8,243.7,695.5,240.2z"/>
		</g>
		<g>
			<path class="st17" d="M676,18.7c-0.3-0.5-0.1-1.3,0-1.6l0.4-1c-0.2-0.1-0.4-0.2-0.5-0.4l-0.8,0.7c0,0-1.1,0.9-3.3,1.2
				c-0.4,0.1-1,0.1-1.3-0.2c-0.3-0.3-0.3-0.8-0.3-0.8l-1.3-0.1c0,0.1,0,1.1,0.7,1.8c0.6,0.5,1.4,0.7,2.4,0.6
				c1.2-0.2,2.1-0.5,2.8-0.8c0,0.4,0.1,0.9,0.4,1.3c0.1,0.2,0.3,0.4,0.5,0.6c0.3-0.3,0.6-0.6,1-0.9C676.2,18.9,676.1,18.8,676,18.7z
				"/>
			<path class="st17" d="M717.1,11.5c0,0-0.1-0.2-0.2-0.7l0,0c0.2,4.5-3.6,6.7-5.6,7.5c0.4,0.3,0.8,0.6,1.1,0.9
				c0.8-0.4,1.7-0.9,2.5-1.6c2-1.6,3.1-3.7,3.3-6.1C717.5,11.5,717.1,11.4,717.1,11.5z"/>
		</g>
		<g>
			<path class="st17" d="M720.2,33.7l-0.2-0.3l-0.4,0.1c-0.7,0.1-1.5,0.3-2.2,0.4c0.5,0.5,1.1,0.9,1.3,1.1c0.3-0.1,0.5-0.1,0.9-0.2
				c0.4,0.4,1.4,0.9,3.2,1.1l0.2-1.3c0,0,0.1,0,0.2,0C720.9,34.5,720.2,33.7,720.2,33.7z"/>
			<path class="st17" d="M669.5,30.1l0-0.8l-0.8,0.2c-1.5,0.3-2.5,0.3-3.1,0.1l-0.1,1.3c0.7,0.1,1.6,0.1,2.7,0
				c0.2,0.6,0.7,1.3,1.6,1.8c0.4-0.2,0.9-0.5,1.4-0.9C669.6,31.3,669.5,30.2,669.5,30.1z"/>
		</g>
		<path class="st18" d="M703.3,2.5c-1.6-0.2-3.2-0.2-4.5,0.7c-0.3,0.2-0.6,0.4-0.9,0.6c-0.1,0.1-0.5,0.4-0.6,0.3
			c-0.1,0-0.2-0.3-0.2-0.4c-0.1-0.1-0.2-0.2-0.3-0.3c-0.3-0.3-0.6-0.4-1-0.4c-0.8-0.1-1.7,0.1-2.5,0.3c-0.9,0.2-1.7,0.6-2.4,1.2
			c-0.7,0.5,0,1.6,0.7,1.1c1.1-0.8,2.4-1.3,3.8-1.3c0.2,0,0.4,0,0.6,0.2c0.2,0.2,0.3,0.5,0.5,0.7c0.5,0.5,1.3,0.4,1.9,0
			c0.6-0.3,1.1-0.8,1.7-1.1c0.6-0.3,1.3-0.4,2-0.4c1.3,0,2.7,0.3,3.8,1c1.1,0.7,1.9,1.9,1.9,3.3c0,0.8,1.3,0.8,1.3,0
			C708.8,5,706.1,2.9,703.3,2.5z"/>
		<path class="st17" d="M698.1,10.9c-3.8-0.9-7.9-0.5-11.3,1.4c-1.5,0.8-2.8,1.9-3.9,3.2c0.8-0.3,1.6-0.5,2.6-0.7
			c1.7-1.4,3.7-2.3,5.9-2.7c3.5-0.7,7.4,0,10.5,1.7c0.5,0.3,0.9,0.5,1.3,0.9c0.8,0.2,1.6,0.4,2.4,0.7
			C704,12.9,700.8,11.5,698.1,10.9z"/>
		<path class="st18" d="M685.4,7.5c-0.3-1.3-1.9-1.5-2.8-0.8c-0.4,0.3-0.7,0.8-0.9,1.3c0,0.1-0.1,0.3-0.2,0.3c0,0,0.1,0.1-0.1,0
			c-0.3-0.1-0.6-0.3-0.9-0.3c-2.4-0.7-5,0.9-5.5,3.4c-0.2,0.8,1.1,1.2,1.3,0.3c0.4-1.9,2.3-3.1,4.1-2.4c0.5,0.2,0.9,0.4,1.4,0.3
			c0.4-0.1,0.7-0.5,0.9-0.9c0.2-0.3,0.3-0.8,0.7-1c0.2-0.1,0.6-0.1,0.6,0.2C684.3,8.7,685.6,8.4,685.4,7.5z"/>
		<path class="st18" d="M723.6,17.3c-1-1.1-2.6-1.9-4.1-1.7c-0.3,0.1-0.5,0.5-0.5,0.8c0.1,0.4,0.5,0.5,0.8,0.5
			c1-0.2,2.2,0.6,2.8,1.3c0.3,0.4,0.6,0.8,0.7,1.3c0.1,0.4,0,0.9-0.2,1.3c-0.2,0.3-0.1,0.7,0.2,0.9c0.3,0.2,0.7,0.1,0.9-0.2
			C725,20.1,724.6,18.4,723.6,17.3z"/>
		<path class="st18" d="M669.4,21.3c-0.1-0.4-0.4-0.5-0.8-0.5c-1,0.2-2,0.7-2.7,1.4c-0.8,0.7-1.6,2-0.9,3.1c0.2,0.3,0.6,0.4,0.9,0.2
			c0.3-0.2,0.4-0.6,0.2-0.9c0,0,0-0.1,0-0.1c0,0,0-0.1,0-0.1c0,0,0,0,0,0c0,0,0-0.1,0-0.1c0,0,0-0.1,0-0.1c0-0.1,0-0.1,0-0.2
			c0,0,0,0,0,0c0,0,0,0,0,0c0,0,0-0.1,0.1-0.1c0,0,0.1-0.1,0.1-0.1c0,0,0-0.1,0.1-0.1c0.1-0.1,0.1-0.2,0.2-0.2
			c0.1-0.1,0.3-0.3,0.4-0.4c0,0,0.1-0.1,0.1-0.1c0,0,0,0,0,0c0,0,0,0,0,0c0.1-0.1,0.2-0.1,0.3-0.2c0.2-0.1,0.3-0.2,0.5-0.3
			c0,0,0.1,0,0.2-0.1c0,0,0,0,0,0c0,0,0,0,0,0c0.1,0,0.2-0.1,0.3-0.1c0.2-0.1,0.4-0.1,0.6-0.2C669.3,22,669.5,21.6,669.4,21.3z"/>
		<path class="st5" d="M655.6,248.5c0.3-0.9,1.2-2,0.8-3c-0.4-0.9-1.5-0.9-2.3-0.9c-1.2,0-2.4,0.1-3.5,0.2c-2,0.2-4.1,0.3-6.1-0.4
			c-1.7-0.5-3.2-1.6-3.8-3.3c-0.7-2-0.4-4.2,0.2-6.1c0.3-0.8-1-1.1-1.3-0.3c-0.6,1.9-0.9,3.9-0.5,5.9c0.4,1.9,1.7,3.5,3.4,4.4
			c1.8,0.9,3.8,1.2,5.7,1.2c1.2,0,2.4-0.1,3.6-0.2c0.6,0,1.2-0.1,1.7-0.1c0.5,0,1.1-0.1,1.5,0.1c0.2,0.1,0.1,0,0.1,0.2
			c0,0.3-0.3,0.7-0.4,0.9c-0.3,0.6-0.5,1.1-0.7,1.8c-0.2,1.1-0.1,2.3,0.7,3c0.6,0.6,1.5-0.4,0.9-0.9
			C655.1,250.3,655.3,249.3,655.6,248.5z"/>
		<path class="st5" d="M736.4,242.9c-2.1,4.3-6.7,6.6-11.4,6.9c-1.5,0.1-3,0-4.5-0.2c-0.3-0.1-0.7,0.1-0.8,0.5
			c-0.1,0.3,0.1,0.7,0.5,0.8c5.3,0.9,11-0.1,14.9-3.9c1-1,1.8-2.1,2.4-3.3C737.9,242.8,736.7,242.2,736.4,242.9z"/>
		<path class="st19" d="M677.8,303.9l-0.3,1.3c3.4,0.9,7.1,1.9,8,2.4v14.6c0.2-1.1,0.4-1.8,0.7-1.8c0.2,0,0.4,0.6,0.6,1.7v-14.8
			C686.8,306.6,686.8,306.2,677.8,303.9z"/>
		<path class="st20" d="M678.4,50.9c-0.9,0.2-1.9,0.2-2.7-0.2c-0.6-0.3-1.4-0.2-1.8,0.5c-0.3,0.6-0.2,1.5,0.5,1.8
			c1.5,0.7,3.1,0.8,4.7,0.4C680.7,53,680,50.5,678.4,50.9z"/>
		<path class="st20" d="M707.5,53.8c-0.2-0.7-0.9-1-1.6-0.9c-0.7,0.1-1.3,0-1.9-0.2c-0.7-0.2-1.4,0.3-1.6,0.9
			c-0.2,0.7,0.2,1.4,0.9,1.6c1.1,0.4,2.2,0.4,3.3,0.2C707.3,55.3,707.7,54.5,707.5,53.8z"/>
		<path class="st21" d="M695.9,261.4c0,0,0-1.9-0.3-2.1s-16.9-0.3-17.4-0.3c-0.6,0-1.1,13.3-0.3,13.4s17,0.7,17.3,0.3
			c0.4-0.4,0.8-1.9,0.8-1.9l-15.9-0.4l0-3.6h1.8l0.2-2.2l-1.9-0.1l0.1-3.3L695.9,261.4z"/>
	</g>
	<g>
		<g>
			<path class="st8" d="M501,29.1c14.6-0.3,32.5,12.5,34,30c1.6,17.5-2.6,48.2-0.2,51.4c2.4,3.2,14.2,5.5,15.9,10.8
				c1.7,5.3-1.3,13.7-1.3,13.5c0-0.2-98.8,0.6-98.8,0.6s-2.2-5.5,2.3-11.6c4.5-6.1,9.5-5.7,12.5-11.4c3.1-5.6-0.6-42.2,3.4-58.4
				S490.5,29.4,501,29.1z"/>
		</g>
		<path class="st22" d="M501.5,39.9c-0.4-3.6-0.4-8.5,0.3-10.8c-0.3,0-0.5,0-0.8,0c-0.2,0-0.4,0-0.5,0c-1,3.5-0.5,9.4-0.3,10.9
			L501.5,39.9z"/>
		<g>
			<path class="st8" d="M533.6,94.4c0,0-1,10.9,1.7,14.3c2.8,3.4,15.7,6.6,18.1,10.2c2.4,3.6-0.4,11.2-0.4,11.2l1.4,0.5
				c0,0,4.2-7.9,0-12.4c-4.2-4.5-15.5-6.7-17.7-10.3c-2.2-3.6-2-20.1-2-20.1L533.6,94.4z"/>
		</g>
		<g>
			<path class="st23" d="M487,102.5c0.1,0.3,0.8,12.8,0.4,13.6c-0.4,0.9-5.3,10.1-5.3,10.1s19.7,32.2,21.2,31.9
				c1.5-0.3,16.4-39.3,16.4-39.3s-4.8-2.8-5.2-3.7c-0.4-0.9-0.5-14.1-0.5-14.1L487,102.5z"/>
		</g>
		<g>
			<path class="st24" d="M514.2,111.2c-0.1-1.5-0.2-6.4-0.2-8c-2.3,2.1-7.9,4.2-13.7,4.5c-6.5,0.3-11-1.6-13.2-3.4
				c0.1,1.2,0.4,6,0.4,7.2c3,4.8,8.5,12.3,14.5,12.3C507.1,123.6,511.6,116.4,514.2,111.2z"/>
		</g>
		<g>
			<g>
				<path class="st22" d="M460.1,139.6c-0.2-1.2-1.6-11.5,0.6-14.2c0.8-1,2.4-2.5,4.2-4.2c2.7-2.6,6.5-6.1,6.9-7.4
					c0.2-0.7,0.1-7.1,0-13.8c-0.3-15.7-0.7-40.7,1.4-46.5c1.4-4,5.8-10.6,12.1-14.8c5.6-3.8,11.6-6.4,15.3-6.7
					c4.2-0.3,11.3,3.6,16.6,7.4c5.2,3.8,11.3,11.3,12.5,15.5c1.3,4.3-0.2,22.3-1.5,37c-0.9,10-1.8,21.3-1.3,22.6
					c0.6,1.3,3.2,3.1,5.7,4.8c3.3,2.3,6.4,4.5,6.9,6.6c0.8,3.4,0.6,11.3,0.6,11.6l-1.3,0c0-0.1,0.1-8-0.6-11.3
					c-0.3-1.6-3.6-3.8-6.4-5.8c-2.8-1.9-5.4-3.7-6.1-5.3c-0.7-1.5-0.1-9.4,1.1-23.2c1.2-13.9,2.7-32.5,1.5-36.5
					c-1-3.2-5.7-10.3-12.1-14.8c-6.4-4.6-12.5-7.4-15.7-7.2c-7,0.5-21.7,8.6-26.3,20.6c-2.1,5.6-1.6,30.5-1.3,46.1
					c0.2,9,0.2,13.3,0,14.2c-0.5,1.6-3.3,4.3-7.2,8c-1.7,1.6-3.4,3.2-4.1,4.1c-1.6,1.9-0.8,10.1-0.3,13.2L460.1,139.6z"/>
			</g>
		</g>
		<g class="st25">
			<path class="st26" d="M478.6,51.7c8.8,5.7,20.1,7.3,30.4,5.2c7.8-1.6,15.8-5.7,20.9-11.9c-3-4.4-7.1-8.2-11.6-10.9
				c-4.9,5.3-11.5,8.5-18.9,8.5c-6.5,0-12.6-2.3-16-7.5c-4.3,2.8-8.3,6.5-11.1,11.1C474.1,48.3,476.2,50.2,478.6,51.7z"/>
		</g>
		<g>
			<path class="st23" d="M475.9,73c0.1,14.6,3.4,38.9,24.3,38.6c20.3-0.3,24.4-22.7,24.9-37.8c0.2-7.7-12.7-36-24.8-35.9
				C488.7,37.9,475.8,66.7,475.9,73z"/>
		</g>
		<g>
			<g>
				<path class="st24" d="M500.1,84.8c-0.2,0-5.9-1.1-7.2-4.4c-1.3-3.3,5.6-11.1,6.4-11.9l1,0.9c-2.8,3.1-6.9,8.7-6.2,10.6
					c1,2.6,6.1,3.6,6.2,3.6L500.1,84.8z"/>
			</g>
		</g>
		<g>
			<path class="st27" d="M487.5,113.4c0,0,11.8,38.9,15.4,38.1c3.5-0.7,11.5-38.9,11.5-38.9l-0.1-2c0,0,14.2,8.7,15.9,10.5
				c1.5,1.5,2.2,3.2,2.2,3.2s37.4,4.4,39.4,8.1c2,3.7,25.9,86.2,21,92.9c-4.9,6.7-20.8,6.8-20.8,6.8s-0.1,22.6-1.4,24.9
				c-1.3,2.4-27.4,16.9-28,16.9s-69.4,2-70.3,2.1c-1,0.1-11.1-4.2-13.2-6.5c-2.1-2.3-1.9-7.5-1.9-7.5s-4.1,33.1-5.6,35.5
				c-1.5,2.4-28.8-0.2-29.6-2.5c-0.8-2.3,9.4-71,9.6-76c0.2-4.9,4.6-79.1,8.6-84.3c4-5.2,32.6-9.7,32.6-9.7s2-4.7,3.1-5.9
				c1.1-1.2,11.7-8.7,11.7-8.7L487.5,113.4z"/>
		</g>
		<g>
			<path class="st28" d="M484.5,137c1.8,0.8,11.8,8.9,16.5,12.8c-0.5-0.8-1-1.8-1.6-3c-4.6-3.7-12.6-10.2-14.3-11
				c-1.4-0.6-5.1-0.1-10.7,0.7c-2.7,0.4-6.3,0.9-7.2,0.8c-0.1-0.8,0.9-3.6,5.4-12.1c-0.2,0-0.8,0.1-1.6,0.3c-4,7.6-5.4,11.1-5,12.4
				c0.1,0.4,0.3,0.5,0.5,0.6c0.8,0.4,3.1,0.1,8.1-0.6C478.2,137.2,483.4,136.5,484.5,137z"/>
		</g>
		<g>
			<path class="st28" d="M538.1,136.8c-0.9,0.2-4.5-0.4-7.2-0.8c-5.6-0.8-9.4-1.3-10.7-0.7c-1.8,0.8-9.8,7.2-14.5,11
				c-0.3,0.9-0.7,1.8-1,2.5c4.9-4,14.3-11.5,16-12.3c1.1-0.5,6.3,0.2,10,0.8c5,0.7,7.2,1,8.1,0.6c0.2-0.1,0.4-0.3,0.5-0.6
				c0.4-1.3-1.1-4.9-5.3-12.9c-0.8-0.1-1.4-0.2-1.6-0.2C537.1,133.1,538.1,136,538.1,136.8z"/>
		</g>
		<path class="st28" d="M455.7,152.4c0,0.6,3.9,57.2,3,72.5c-0.6,11.2-1.5,29.5-1.9,38.6c0.1-0.9,0.2-1.4,0.2-1.4s-0.1,3.3,0.9,5.9
			c0.2-5.6,1.3-29.4,2-43c0.9-15.5-3-72.1-3-72.7L455.7,152.4z"/>
		<g>
			<rect x="583.8" y="198.7" class="st28" width="5.3" height="1.3"/>
		</g>
		<path class="st28" d="M513.9,270.6c-2.2-1.4-3.4-3.8-4.2-6.3c-0.9-3-1.4-6.1-1.6-9.2c-0.5-6.6,0.2-13.2,0.9-19.8
			c0.2-1.9,0.4-3.7,0.6-5.6c0.2-1.7,0.6-3.6-0.2-5.2c-0.1-0.3-0.6-0.4-0.9-0.2c-0.3,0.2-0.4,0.6-0.2,0.9c0.3,0.7,0.3,1.4,0.3,2.2
			c-0.1,0.8-0.2,1.7-0.2,2.5c-0.2,1.7-0.4,3.3-0.6,5c-0.4,3.3-0.7,6.7-0.9,10c-0.4,6.5-0.3,13.2,1.6,19.5c0.9,2.9,2.3,5.7,4.9,7.4
			C514,272.1,514.6,271,513.9,270.6z"/>
		<path class="st28" d="M503,170.1c0.3,10.1,0.5,20.2,0.3,30.3c-0.1,5.7-0.2,11.4-0.5,17.1c0,0.8,1.3,0.8,1.3,0
			c0.4-10.1,0.6-20.3,0.5-30.4c-0.1-10.1-0.4-20.2-1-30.3c-0.1-1.9-0.2-3.7-0.3-5.6c-0.2,0.2-0.4,0.3-0.5,0.4
			c-0.2,0-0.5-0.1-0.8-0.3C502.5,157.5,502.8,163.8,503,170.1z"/>
		<path class="st28" d="M440.8,221.6l0.3-1.3c-0.6-0.2-7.1-0.4-9.8,0.2c-0.1,0.6-0.1,1.3-0.2,2.1c2,0.6,6.2,1.1,9.8,1.4l0.1-1.3
			c-3-0.3-6.5-0.7-8.4-1C435.3,221.4,440.1,221.5,440.8,221.6z"/>
		<g>
			
				<rect x="560.7" y="153.4" transform="matrix(0.9992 -4.004985e-02 4.004985e-02 0.9992 -6.6656 22.6226)" class="st28" width="1.3" height="48.6"/>
		</g>
		<g>
			<path class="st28" d="M457.1,165c-0.3,0-0.5-0.3-0.8-0.6c-0.2-0.2-0.4-0.6-0.7-0.9c-0.5-0.8-1.2-1.8-2-2.9
				c-1.4-2.1-2.8-4.2-2.8-4.2l1.1-0.7c2.1,3.1,5.4,7.9,5.6,8.3l-0.5,0.4l0,0l0.7,0l-0.4,0.7C457.3,164.9,457.2,165,457.1,165z"/>
		</g>
		<g>
			<path class="st28" d="M462.1,176.5c-0.5,0-0.6,0-0.7-0.1c-0.3-0.2-0.5-0.4-0.8-7.8l0-0.6l0.6-0.1c30.5-2.6,31-2.4,31.2-2.3
				c0.4,0.2,0.7,0.6,0.8,3.7c0.1,1.5,0,3.2,0,3.7c0,0.2-0.1,0.4-0.5,0.6c-0.9,0.4-6.4,1.1-16.2,1.8c-3.4,0.3-7.1,0.5-10.1,0.7
				C463.9,176.4,462.7,176.5,462.1,176.5z M461.9,169.1c0.1,2.5,0.3,5.1,0.4,6c3.7-0.1,26.6-1.7,29.6-2.6c0.1-1.3,0-4.8-0.2-5.8
				C489.2,166.9,473,168.2,461.9,169.1z M492,166.8L492,166.8L492,166.8z M491.6,166.6L491.6,166.6L491.6,166.6z"/>
		</g>
		<g>
			<path class="st29" d="M491.6,229.6c0,0-3.2-3.2-3.2-3.5c0-0.4,35.1-65.2,36.7-65.9c1.6-0.7,66.6,5.3,67.7,6.6
				c1.1,1.2,4.9,12.8,4.9,13.4c0,0.6-34.8,55.7-35.4,55.7C561.6,235.8,491.6,229.6,491.6,229.6z"/>
		</g>
		<path class="st6" d="M527.3,163.6c-0.5,0-0.7,0.1-6.7,10.8c-3.1,5.6-7.3,13.3-12.6,23c-7.2,13.3-14.4,26.7-17,31.6
			c0.3,0.3,0.6,0.6,0.6,0.6s0.2,0,0.6,0.1c13.5-25.3,33.1-61.5,35.5-64.6c3.9,0.7,45.5,10.1,69.8,15.6c0.1-0.2,0.2-0.4,0.2-0.4
			c0-0.1-0.1-0.4-0.2-0.9C577.9,174.8,528.8,163.6,527.3,163.6C527.3,163.6,527.3,163.6,527.3,163.6z"/>
		<g>
			<path class="st12" d="M590.9,168.9l2.7,7l-67.1-13.4l-35.8,66.1l-1.5-1.6c0,0,35.9-65.9,36.5-65.9
				C526.2,161,590.9,168.9,590.9,168.9z"/>
		</g>
		<g>
			<path class="st27" d="M539.8,207.5c0,0,1.2-5.9,2-6.5c0.8-0.5,46.6-1,46.6-1l-6.5,30.9c0,0-40.2-2.3-42.1-3.8
				C538,225.6,539.8,207.5,539.8,207.5z"/>
		</g>
		<path class="st28" d="M566.2,229.9l-0.8,1.3c3.6,0.3,7.3,0.5,10.2,0.7c1.7-0.2,3.7-0.4,5.9-0.9
			C576.6,230.7,571.5,230.3,566.2,229.9z"/>
		<g>
			<path class="st23" d="M519.7,184c1.1,1.7-2.6,6.6-2.4,8.3c0.5,3.4-0.5,9.5-0.2,9.7c4,2.6,26.9,0.6,31.5,1.6
				c1.8,0.4,2.4,17,1.3,17.4c-1.1,0.4-39.9-0.3-45-0.9c-5.1-0.6-13.3-5.4-14.2-7.4c-0.9-2,0.6-6,0.6-6s-0.2-2.9,0.8-4.6
				c1-1.7,2.1-2.1,2.1-2.1s0.8-4.7,2.4-6.1c1.6-1.4,3.4-0.5,3.4-0.5s0.3-3.8,1.5-4.7c1.2-0.9,3.9-1.1,4.5-1c0.6,0.2,1.9,2.3,1.9,2.3
				l-2.2,4c0,0,4.8,3.8,5,3.2c0.1-0.2,0.9-2.9,1.1-5.6C512.2,187.8,518.6,182.3,519.7,184z"/>
		</g>
		<g>
			<path class="st30" d="M513,450c1-3.1,3.3-7.5,3.8-12.7c0.1-1.4-2.1-2.7-2-4.3c0.2-2.2,2.8-4.8,3-7.2c0.2-1.9-2.4-2.5-2.3-4.5
				c0.2-2.1,3.1-5.8,3.3-8c2.8-36.2,5.7-82.7,5.7-82.7s3.8,38.2,7.5,72.3c0.2,1.6,0.4,3.3,0.5,4.9c0.1,1.2,2.4,1.5,2.5,2.7
				c0.2,2-1.7,4.7-1.4,6.7c0.2,1.7,4,4,4.1,5.6c0.2,1.7-2.4,3.6-2.2,5.2c1,9.5,3,17.1,4,22H594c-0.9-16.5-2.6-68.1-7.2-111.1
				c-0.3-2.3,2.6-5.7,2.3-8c-0.2-1.6-3.4-2.2-3.6-3.8c-3.2-28.8-6-51.5-7.1-53.3c-3.2-5.2-15.5-15.4-15.5-15.4s-32,8.7-48.4,10.7
				c-19,2.3-45.5,0-45.5,0s-9.5,11.5-9.8,14.6c-0.1,1-0.9,19.6-1.7,44.2c-0.1,1.6,2.2,3.6,2.2,5.3c-0.1,1.9-2.4,3.4-2.5,5.4
				c-1.3,40.4-2.4,91.6-0.8,111.4H513z"/>
		</g>
		<path class="st31" d="M525.2,333.9c-0.2-10.8-0.5-23.2-0.7-23.7c-0.1-0.5-0.2-0.9-5.2-1.8c-2.2-0.4-4.7-0.7-4.9-0.7l0,1.3
			c0.8,0,7.6,1.1,8.9,1.7c0.1,1.6,0.3,11,0.6,21.2c0.4-0.8,0.6-1.4,0.6-1.4S524.8,332,525.2,333.9z"/>
		<g>
			<path class="st23" d="M476.7,76c0,0-1.8-4.6-4.1-3.4c-2.4,1.2-2,17.2,0.9,18.4c2.2,0.9,4.9-0.7,4.9-0.7L476.7,76z"/>
		</g>
		<g>
			<path class="st23" d="M524.7,75.7c0,0,2.1-4.5,4.4-3.1c2.3,1.4,0.8,17.3-2.2,18.3c-2.3,0.8-4.8-1.1-4.8-1.1L524.7,75.7z"/>
		</g>
		<g>
			<path class="st24" d="M476.5,88.7c-0.4-4.2-1.1-12.4-1-13.5l-1.3,0c0,0.7,0.2,3.5,0.4,6.4l-1.5-0.9l-0.7,1.1l2.3,1.4
				c0.2,2.9,0.5,5.4,0.5,5.6L476.5,88.7z"/>
		</g>
		<g>
			<path class="st24" d="M529.8,80.9l-0.8-1.1l-1.4,1c0.4-2.5,0.7-5,0.9-6l-1.3-0.2c-0.4,2.4-1.9,12.5-1.9,12.9l1.3,0.2
				c0,0,0.3-2.4,0.7-5.1L529.8,80.9z"/>
		</g>
		<g>
			<path class="st8" d="M488.1,72.2c0,2.3-0.6,4.1-1.3,4.1c-0.7,0-1.2-1.9-1.1-4.1c0-2.3,0.6-4.1,1.3-4.1
				C487.6,68.1,488.1,69.9,488.1,72.2z"/>
		</g>
		<g>
			<path class="st32" d="M488.9,91c2.3-3.7,11.3-1.2,11.3-1.2s9.7-3.7,11.5,0.7c1.3,3.2-4.3,9-12.2,9.3
				C491.6,100,487.4,93.4,488.9,91z"/>
		</g>
		<g>
			<path class="st8" d="M514.5,71.5c0,2.3-0.6,4.1-1.3,4.1c-0.7,0-1.2-1.9-1.1-4.1c0-2.3,0.6-4.1,1.3-4.1
				C514,67.4,514.5,69.2,514.5,71.5z"/>
		</g>
		<g>
			<path class="st33" d="M489.5,90.6c0.1,0,21.6-0.4,21.6-0.4l0.3,1.6c0,0-3.8,5.3-10.9,5.4c-7.7,0.1-11.5-5.2-11.5-5.2L489.5,90.6z
				"/>
		</g>
		<g>
			<path class="st12" d="M508.8,90.3c-4.5,0.1-14.3,0.3-17.9,0.3c0,0.9,0.1,2.4,0.4,2.5c0.4,0.1,16.9,0,17.1-0.2
				C508.5,92.7,508.7,91.3,508.8,90.3z"/>
		</g>
		<g>
			<path class="st8" d="M488.7,59.6c-2.1,0.1-4.3,0.4-6.4,0.7c-1.9,0.3-1.1,3.1,0.8,2.8c1.9-0.3,3.7-0.5,5.6-0.6
				C490.6,62.4,490.6,59.5,488.7,59.6z"/>
		</g>
		<g>
			<path class="st8" d="M517,60.1c-2.3-0.5-4.7-0.9-7-1.1c-1.9-0.2-1.9,2.8,0,2.9c2.1,0.2,4.2,0.6,6.2,1
				C518.1,63.3,518.9,60.5,517,60.1z"/>
		</g>
		<g>
			<path class="st34" d="M486.7,77.9c0,0-0.1,0-0.1,0c0,0,0,0-0.1,0c-0.1,0-0.1,0-0.2,0c-0.2,0-0.4-0.1-0.7-0.2
				c-0.7-0.3-1.6,0.3-1.8,1c-0.2,0.8,0.3,1.5,1,1.8c0.6,0.2,1.2,0.3,1.8,0.4c0.8,0,1.5-0.7,1.5-1.5
				C488.1,78.5,487.5,77.9,486.7,77.9z"/>
		</g>
		<g>
			<path class="st34" d="M515.5,77.7c-0.3-0.8-1-1.2-1.8-1c-0.3,0.1-0.5,0.1-0.8,0.2c-0.1,0-0.3,0-0.4,0.1c-0.1,0-0.5,0.1-0.1,0
				c-0.4,0.1-0.7,0.1-1,0.4c-0.3,0.3-0.4,0.7-0.4,1c0,0.7,0.7,1.6,1.5,1.5c0.7-0.1,1.4-0.2,2.1-0.4
				C515.3,79.4,515.8,78.5,515.5,77.7z"/>
		</g>
		<path class="st28" d="M452.8,281.3c-1.6-0.7-23.2-2.7-26.7-2.2c-1.1,0.2-2,0.4-2.6,0.8c-0.1,0.6-0.1,1.2-0.2,1.7
			c0.4-0.4,1.3-1,3-1.2c3.2-0.4,24.5,1.5,26,2.1c0.6,0.3,1.2,1.8,1.6,3c0.1-0.9,0.3-1.7,0.4-2.6
			C453.8,282.2,453.4,281.5,452.8,281.3z"/>
		<path class="st28" d="M561.6,215.4c-1,8.7-4.4,12.5-5.8,13.7c0.6,0,1.2,0.1,1.8,0.1c1.8-1.9,4.5-6,5.4-13.7
			c0.8-7.6-1.5-12.5-3.6-15.1c-0.6,0-1.1,0-1.7,0C559.6,202.6,562.5,207.3,561.6,215.4z"/>
		<path class="st28" d="M489.9,266.8c-0.8-0.3-0.5-1.5-0.3-2.1c0.4-1,0.9-1.9,0.9-3c0-1-0.5-1.9-1.5-2.3c-0.5-0.2-1.2-0.2-1.7-0.3
			c-0.7-0.1-1.4-0.1-2,0c-4.3,0.2-9.8,2-13.4-1.4c-1.8-1.8-1.8-4.5-0.8-6.6c0.1-0.3,0.1-0.7-0.2-0.9c-0.3-0.2-0.7-0.1-0.9,0.2
			c-1,2.2-1.3,4.8-0.1,6.9c1.1,1.8,3.1,3,5.1,3.5c2.7,0.6,5.4,0.1,8-0.2c1.3-0.1,2.7-0.3,4-0.2c0.5,0,1.2,0,1.7,0.3
			c0.3,0.2,0.4,0.7,0.4,1.1c0,1.2-1,2.3-1.1,3.5c-0.1,1.1,0.3,2.3,1.5,2.8C490.3,268.4,490.7,267.1,489.9,266.8z"/>
		<path class="st28" d="M560.3,243.2c-2.5,1.7-5.2,3.1-8.1,4.1c-0.8,0.3-0.4,1.5,0.3,1.3c3-1.1,5.8-2.5,8.4-4.2
			C561.6,243.9,561,242.7,560.3,243.2z"/>
		<path class="st8" d="M521.4,203.2c0,0,3.6,5.2,2.4,11.2c-1.2,6-5.7,6.4-5.7,6.4s0.6,0.9,1.1,1c0.4,0.1,7.4,0.4,7.8,0.2
			c0.4-0.1,2.5-1.8,3.4-6.4c1.2-6-3.3-12.8-3.3-12.8s-7.3-0.3-7.4-0.3c-0.1,0-0.3,0.4-0.3,0.4L521.4,203.2z"/>
		<path class="st35" d="M503.7,195.2c-1.6-1-3.4,0.1-4.5,1.3c-0.5,0.6-1,1.4-1,2.2c0,0.4,0.1,0.8,0.2,1.2c0.1,0.4,0.3,0.8,0.2,1.2
			c-0.2,0.7-1.1,1.1-1.7,1.5c-0.7,0.4-1.5,0.9-1.9,1.6c-0.4,0.7-0.5,1.6-0.1,2.3c0,0.1,0.1,0.2,0.2,0.2c0,0,0,0,0,0c0,0,0,0,0,0
			c0,0-0.1,0.1-0.1,0.1c-0.3,0.2-0.7,0.5-1,0.8c-0.6,0.7-1.1,1.5-1.3,2.3c-0.2,0.8-0.3,1.9,0.4,2.5c0.7,0.6,1.6-0.4,1-1
			c-0.4-0.3-0.1-1.1,0-1.6c0.2-0.6,0.6-1.2,1.1-1.6c0.5-0.4,1.3-0.8,1.3-1.5c0-0.4-0.1-0.7-0.4-1c-0.2-0.2-0.2-0.4-0.1-0.7
			c0.2-0.7,0.8-1,1.4-1.3c0.6-0.4,1.3-0.7,1.8-1.2c0.5-0.5,0.8-1.2,0.7-2c-0.1-0.7-0.6-1.4-0.4-2.1c0.2-0.7,0.8-1.3,1.4-1.7
			c0.6-0.5,1.4-0.8,2.1-0.4C503.8,196.8,504.5,195.6,503.7,195.2z"/>
	</g>
	<g>
		<path class="st36" d="M399.2,450l10.9-0.2c-10.2-37.3-80.8-129.3-130.5-133.2c-40.2-3.1-62.1,33.1-54.6,68.1
			c5.5,25.2,21.6,49.1,46.5,60.6c5,2.3,14,3.8,22.8,4.7H399.2z"/>
	</g>
	<g>
		<path class="st36" d="M920.5,316.6c-49,3.8-124,95.2-135.7,133.4h120.9c8.9-0.9,17.8-2.3,22.8-4.7c24.9-11.5,41.8-36.3,46.5-60.6
			C982.4,346.8,960.7,313.5,920.5,316.6z"/>
	</g>
	<path class="st37" d="M803,178.3c0,0-8,0.5-10.3-7.8c-2.3-8.3,10.7-46.7,41.5-47.7c30.8-0.9,39.9,28.3,41.6,44.1
		c1.7,15.8-1.1,27.4,4.1,33.7c5.2,6.3,22.6,11.9,23.4,16.2c0.8,4.3-3.7-1.7-3.7-1.7s4.1,8.3,0.2,17c-3.9,8.6-18,13.5-18,13.5
		l-72.7,1.7c0,0-3.8,0.3-7.4-5.4c-3.6-5.7,1.3-17.6,1.3-17.6s-4.7,2-5.8,5.9c-1.1,3.9,1,7.8-2.1,7.4s-6-6-4.4-14.9
		c1.6-8.9,16.6-18.8,16.6-18.8L803,178.3z"/>
	<path class="st38" d="M830.3,135.1c0,0-0.9-1.9,1.2-6.6c1.3-2.8,4.1-4.6,6.2-5.7c-0.8,0-1.7-0.1-2.6,0c-1.9,1.2-3.8,2.9-4.8,5.2
		c-2.4,5.3-1.3,7.5-1.2,7.7L830.3,135.1z"/>
	<path class="st38" d="M898.4,220.6c-2.8-6.8-10.4-10.4-17.1-13.7c-4.9-2.4-9.6-4.6-10.8-7.5c-1.2-2.8-1.7-11-2.3-20.4
		c-0.9-14.2-2.1-31.9-6.1-39.3c-6.6-12.2-27.8-15-28.7-15.1l-0.2,1.3c0.2,0,21.5,2.8,27.8,14.4c3.9,7.1,5,24.7,6,38.8
		c0.6,9.6,1.2,17.9,2.4,20.9c1.4,3.4,6.1,5.6,11.4,8.2c6.5,3.1,13.9,6.7,16.5,13c4.2,10.1-10.3,17.3-12.6,18.3l-3.1-1.9
		c2-1.8,7.4-7.3,6.7-12c-0.5-3.3-7.2-7.6-16.6-13.3c-4.4-2.6-8.5-5.1-9.7-6.6c-1.1-1.3-1.1-8.7-1.2-16.6
		c-0.1-14.4-0.1-34.1-5.6-45.2c-4.6-9.4-11-13.2-15.6-14.7c-4.2-1.4-7.6-1.1-8.6-1c-0.9-0.6-4-1.3-13.1,3.3
		c-11.2,5.5-20.3,26.2-20.5,32.9c-0.1,1.8,0.5,3.2,1.6,4.2c2.6,2.3,7.3,1.6,7.5,1.5l-0.2-1.3c0,0-4.3,0.7-6.5-1.2
		c-0.8-0.7-1.2-1.8-1.2-3.2c0.2-6.3,9.2-26.6,19.8-31.8c9.5-4.7,11.7-3.4,11.8-3.3l0.2,0.3l0.4-0.1c0.1,0,14.7-2.3,23.1,14.9
		c5.4,10.9,5.4,30.4,5.5,44.7c0,10.4,0.1,15.9,1.5,17.5c1.3,1.6,5.4,4,10,6.8c6.6,4,15.5,9.4,16,12.4c0.7,4.8-6.9,11.3-7,11.4
		l-0.7,0.6l5.2,3.2l0.3-0.1c0.2-0.1,4.7-2,8.6-5.4C898.7,230.7,900.5,225.6,898.4,220.6z"/>
	<g>
		<path class="st38" d="M810.4,235.4c0.1-8.9,13.8-23.2,14-23.3l0.6-0.6l-8.2-5.1l-0.4,0.3c-0.6,0.5-12.5,10-16.4,19.4
			c0.8-0.7,1.6-1.2,2.1-1.5c4-7.6,12.8-15.1,14.7-16.6l6,3.7c-2.7,2.8-13.7,15.1-13.8,23.7c0,5,2.8,8.9,5.7,11.6l1.9,0
			C813.7,244.4,810.4,240.5,810.4,235.4z"/>
		<path class="st38" d="M791.8,234.6c0.5-9.2,2.8-13.6,4.8-15.8c6-6.4,15.1-12.1,15.2-12.2l-0.7-1.1c-0.1,0.1-9.3,5.9-15.5,12.4
			c-2.6,2.8-4.2,7.3-4.9,13.5C791,232.7,791.3,233.7,791.8,234.6z"/>
	</g>
	<g>
		<path class="st39" d="M914.8,430.1l-0.4-1.2c29.9-9.6,44.9-38.7,46.4-63.3c1.2-19.4-5.6-34.9-17.7-40.4
			c-11.8-5.5-24.8-3.3-33.6-0.5c-9.6,3-16.4,7.4-16.5,7.4l-0.7-1.1c0.1,0,7-4.5,16.8-7.6c9-2.8,22.3-5.1,34.6,0.6
			c12.6,5.8,19.6,21.8,18.4,41.7c-0.8,13.5-5.4,27-12.9,38.2C940.7,416.5,928.8,425.6,914.8,430.1z"/>
	</g>
	<g>
		<path class="st39" d="M288.2,430.1l0.4-1.2c-29.9-9.6-44.9-38.7-46.4-63.3c-1.2-19.4,5.6-34.9,17.7-40.4
			c11.8-5.5,24.8-3.3,33.6-0.5c9.6,3,16.4,7.4,16.5,7.4l0.7-1.1c-0.1,0-7-4.5-16.8-7.6c-9-2.8-22.3-5.1-34.6,0.6
			c-12.6,5.8-19.6,21.8-18.4,41.7c0.8,13.5,5.4,27,12.9,38.2C262.3,416.5,274.2,425.6,288.2,430.1z"/>
	</g>
	<path class="st40" d="M809.8,150.4c9.5,6.5,21.8,8.7,33.1,6.5c7-1.3,13.8-4,19.7-8.1c2.3-1.6,4.4-3.4,6.4-5.3
		c-2.7-5.1-6.3-9.9-11.1-13.6c-0.1,0.1-0.2,0.2-0.3,0.3c-2.3,1.9-4.9,3.6-7.6,5c-8.1,4.2-18.1,6.4-27.1,3.9c-3.6-1-7-2.8-9.5-5.6
		c-0.6-0.6-1.1-1.3-1.5-2c-3.9,3.2-7.2,7.1-9.9,11.2C804,145.7,806.7,148.3,809.8,150.4z"/>
	<path class="st40" d="M796,228c0.6,0.3,1.2,0.6,1.8,0.9c1.6-3.1,5.3-4.7,5.3-4.7s-1.1,2.7-1.9,6.1c15,5.6,32.4,5,47.8,2.2
		c17.2-3.1,34.8-9.5,48.5-20.8c-4.7-2.7-11.1-5.7-15.1-8.8c-0.4,0.3-0.8,0.6-1.1,0.9c-3.7,2.8-7.6,5.4-11.7,7.6
		c-14.3,7.6-31.7,11.5-47.9,9.3c-7.5-1-15.1-3.7-20.6-9.1c-0.5-0.5-1.1-1.1-1.5-1.7c-3.9,3.6-8,8.2-8.8,12.6
		c-0.1,0.7-0.2,1.4-0.3,2.1C792.2,225.9,794.1,227,796,228z"/>
	<g>
		<g>
			<path class="st41" d="M339.5,164.9c0,0,3,39.7,1.9,41.6c-1.2,2-15.2,16.1-15.2,16.1l38.7,21.2c0,0,5.3-13.8,5.3-14.2
				s-0.7-17.4,0-17.7c0.7-0.3,9.6,1.1,14.9-6.8c5.3-7.9,6.3-50.4,4.3-55.9c-2-5.6-0.8-16.4-15.9-16.9c-15.1-0.6-33.3,6.5-34.3,9.3
				C338.2,144.4,339.5,164.9,339.5,164.9z"/>
		</g>
	</g>
	<g>
		<ellipse class="st41" cx="337.1" cy="175.6" rx="7.3" ry="9.8"/>
	</g>
	<g>
		<path class="st24" d="M339.7,182.1l-1.3,0c0-4.4-0.7-11.7-2.6-12.7l0.6-1.2C339.7,169.9,339.7,180.9,339.7,182.1z"/>
	</g>
	<g>
		
			<rect x="335.9" y="173.6" transform="matrix(0.1279 -0.9918 0.9918 0.1279 119.2205 487.1089)" class="st24" width="1.3" height="4.3"/>
	</g>
	<g>
		<path class="st42" d="M336.1,154.2c-0.1,0.2,0.9,11.6,0.9,11.6l4.3,1.9c0,0,1,7.8,1.4,7.8c0.4,0,2.6,0,2.6,0l1.3-22.4
			c0,0,5.4,1.5,9.9-2.9c4.5-4.4,2.4-12.6,9.4-14.8s16.2-0.4,19.3,3.7c3.1,4.1,5,15.8,5,15.8s8.8-0.9,10.3-6.9c1.5-6-5.8-8.7-5.8-8.7
			s2.9-1.4,2.4-2.5c-0.5-0.9-3.1-0.9-3.1-0.9s3.7-7,0.1-12.1s-6.7-4.6-6.7-4.6s2.9-1.7,0.4-2.5c-2.6-0.8-7-0.3-7-0.3
			s0.9-2.4-5.9-2.1c-6.8,0.4-8.9,3.5-8.9,3.5s-4.8-4.2-11.8-1.9c-7.1,2.3-6.6,7.7-7.8,8c-1.2,0.3-2.5-2.2-5.2-1.4
			c-2.7,0.8-2.2,2.4-2.2,2.4s-5.4,1.9-6.9,7.4c-1.5,5.5,1.2,8.1,1.2,8.1s-4.7,2.8-3.6,7.2c1.1,4.4,5.4,4.5,5.1,4.7
			c-0.3,0.2-2.2,1.1-1.7,1.7C333.6,154.6,336.1,154.2,336.1,154.2z"/>
	</g>
	<path class="st43" d="M346.6,154.4l0.1-1.3c-2.8-0.7-4-2.3-4.4-3.7c-1.1-3.3,2.4-5.9,3.9-7c0.7-0.5,1.1-0.8,0.9-1.4
		c-0.1-0.2-0.3-0.4-0.8-0.7c-2.1-1.5-4.4-3.6-3-5.8c2-3.3,6.7-2.8,6.7-2.7l0.2-1.3c-0.2,0-5.6-0.6-8,3.4c-2.1,3.5,1.9,6.4,3.3,7.5
		c0,0-0.1,0-0.1,0.1c-1.7,1.3-5.8,4.4-4.4,8.5C341.6,151.6,343.1,153.6,346.6,154.4z"/>
	<g>
		<path class="st43" d="M365.1,117.1l-0.1,0.4c0.1,0,0.2,0.1,0.4,0.1c0.2,0.1,0.5,0.1,0.7,0.2C365.9,117.6,365.6,117.4,365.1,117.1z
			"/>
		<path class="st43" d="M374.3,124.7c-0.6-2.7-2.3-6.2-7.1-7.9c-0.7,0.5-1,0.9-1.1,1c3.8,1.2,6.1,3.6,6.9,7.2c0.4,2,0.5,3.6,0.4,5
			c-0.8-0.4-1.8-0.6-2.6-0.6c-1.3-0.1-2.6,0.2-3.8,0.6c-2.3,0.8-4.4,2.4-5.9,4.2c-0.9,1-1.6,2.2-2.2,3.4c-0.1,0.3-0.1,0.7,0.2,0.9
			c0.3,0.2,0.7,0.1,0.9-0.2c0.9-1.9,2.2-3.6,3.9-5c1.7-1.4,3.8-2.5,6-2.6c0.6,0,1.3,0,1.9,0.1c0.5,0.1,1.1,0.3,1.5,0.6
			c-0.2,1.3-0.6,2.3-0.9,2.9c0.5,0,0.9,0,1.4,0C374.5,132.7,375.3,129.4,374.3,124.7z"/>
	</g>
	<g>
		<path class="st43" d="M358.3,153.4c-1.7,0.2-3.5,0.3-5.2,0.3c-2.1,0.1-2.1,3.3,0,3.3c1.7-0.1,3.5-0.2,5.2-0.3
			C360.4,156.5,360.4,153.2,358.3,153.4z"/>
	</g>
	<g>
		<path class="st43" d="M384.2,152.9c-1.5,0-3,0-4.4,0.1c-2.1,0.1-2.1,3.3,0,3.3c1.5-0.1,3-0.1,4.4-0.1
			C386.3,156.2,386.3,152.9,384.2,152.9z"/>
	</g>
	<g>
		<ellipse class="st33" cx="355.2" cy="166.2" rx="1.1" ry="4.2"/>
	</g>
	<g>
		<ellipse class="st33" cx="382.7" cy="165.8" rx="1.1" ry="4.2"/>
	</g>
	<g>
		<path class="st24" d="M372.5,172.9c-2.7-3.6-1.8-10.6-1.8-10.9l1.3,0.2c0,0.1-0.8,6.8,1.5,10L372.5,172.9z"/>
	</g>
	<g>
		<path class="st24" d="M372,182.8c-1.7,0-3.4-0.4-5-1.4l0.7-1.1c3.1,1.9,6.9,1.3,9-0.3c1.5-1.1,2.2-2.6,1.8-4.1
			c-0.2-0.9-0.7-1.6-1.5-2c-2.3-1.3-6.1-0.2-6.2-0.2l-0.4-1.2c0.2-0.1,4.4-1.3,7.2,0.3c1.1,0.6,1.8,1.6,2.1,2.9
			c0.5,2.1-0.3,4.1-2.3,5.5C376.1,182.2,374.1,182.8,372,182.8z"/>
	</g>
	<g>
		<path class="st23" d="M427.5,293.7c0,0-11.4,51.9-10.1,54.5c1.3,2.5,26.4,5.4,27.6,4.8c1.2-0.6,4-2.5,3.7-3.1
			c-0.3-0.6-2.5-3-2.7-3c-0.2-0.1-2.6,0.4-2.6,0.4s0.7-4.9,1.3-4.8c0.6,0.1,3.5,8.3,6,9.6c2.5,1.3,9.7-1.3,9.3-2.7
			c-0.4-1.4-6.3-0.8-6.3-1c0-0.2,0.9-12.4-3.6-15.1c-4.6-2.6-11.2-2.6-11.4-4.2s5.5-32.2,4.6-33.5
			C442.5,294.2,428.4,293.1,427.5,293.7z"/>
		<g>
			<path class="st24" d="M439.3,347.7l0.5,1.2c1.6-0.7,3.4-1.4,4.6-1.9c-0.6,0.1-1.1,0.2-1.1,0.2s0.1-0.5,0.2-1.3
				C442.6,346.3,441.2,346.9,439.3,347.7z"/>
			<path class="st24" d="M448.9,348.8c-1.8-3.3-2.2-3.5-2.3-3.6c-0.1,0-0.2-0.1-0.4-0.1c0.6,1.3,1.4,2.9,2.2,4.2
				c-0.6-0.7-1.5-1.8-2-2.3c0.5,0.9,1.4,2.3,2,3.6c0.3-0.3,0.4-0.5,0.4-0.7c0.5,0.8,1.1,1.4,1.6,1.8
				C450.1,351.2,449.7,350.3,448.9,348.8z"/>
		</g>
		<path class="st24" d="M442.6,339.3c0.6,1.4,1.1,3,1.5,4.1c0.2-0.6,0.4-1,0.6-1c0.2,0,0.6,0.9,1.2,2.1c-0.1-0.3-0.4-1.4-2.1-5.7
			L442.6,339.3z"/>
	</g>
	<path class="st24" d="M351.5,209.3c-6.5-3-8.8-24.6-8.8-24.8l-0.1-0.8l-1.8,0.3c0,0.4,0.1,1.2,0.1,1.7l0.5-0.2
		c0.5,4.1,1.7,29.8,8.2,32.8c5.4,2.5,14.4,2.6,18.4,2.6c0.5,0,1.4,0,1.7,0c0-0.7,0.4-8.8,0.5-9C367.6,212.1,357.3,212.1,351.5,209.3
		z"/>
	<g>
		<path class="st33" d="M353.6,188.1c0,0,14.9,2,25.7,0l0.4,2.8c0,0-4.3,8.3-13.7,8s-13.7-9-13.7-9L353.6,188.1z"/>
	</g>
	<g>
		<path class="st12" d="M376.7,191.7c0.3-0.3,0.4-2,0.4-3.3c-8.4,1.1-18.2,0.2-21.9-0.2c-0.1,1.2-0.1,3.1,0.8,3.5
			C357.2,192.2,376.3,192.2,376.7,191.7z"/>
	</g>
	<g>
		<path class="st24" d="M366.9,203.1c-2,0-3.2-1-3.3-1l0.8-1c0.1,0.1,2.3,1.8,6.1-0.5l0.7,1.1C369.5,202.8,368.1,203.1,366.9,203.1z
			"/>
	</g>
	<path class="st44" d="M289.3,431.3c23.1,9.3,98.2,3.4,99.4,4.1c1,0.5,0.4,10.7,0.1,14.7h48l3.3-5.3l2.6,5.3H491
		c-2.6-9.4-16.4-58.4-23.2-61.4c-7.6-3.4-183-12.5-183-12.5c-0.4,0.3-10,23.8-8.8,33.9C277.1,420.2,283.5,428.9,289.3,431.3z"/>
	<path class="st45" d="M442.1,395.5c1.1,2.1-0.4,28.3-2,49.3l0.1-0.1l1.1,2.2c1.1-14.4,3.5-49,2-52c-1-1.8-5.3-6.1-9.6-9.8
		c-0.7-0.1-1.5-0.1-2.2-0.2C435.9,388.7,441,393.5,442.1,395.5z"/>
	<path class="st30" d="M799.3,450l2.4-8c24.7-1.7,103.2-7.3,114.7-12.2c13.5-5.7,10.1-45.8,10.1-45.8l-85.1-11.1
		c0,0-94.3,18.1-102.9,23.1c-7.6,4.4-15.5,45.5-17.1,54.1H799.3z"/>
	<g>
		<path class="st4" d="M341.6,205c0,0-7.1-1-8.6,1.7c-1.5,2.7-1.9,8.2-1.9,8.2s-27,5.6-35.2,21.3c-8.1,15.7-23.4,125.7-23.1,128
			c0.2,2.3,11,18.3,11.4,18.3c0.9,0,20.3,3,40.4,3c20,0,40.6-3,40.6-3s11.9-60.6,12.8-60.6c0.9,0,12.6,24,13.6,24.3
			s29.4,10.3,29.8,10.3c0.4,0,16.9-19.9,17-21.8c0.1-1.9-0.7-3.9-0.7-3.9l-20.1-7.6c0,0,0.8-2.5,0.2-3c-0.5-0.5-2.8,0.2-2.8,0.2
			c-2.3-13.5-15.5-89.1-18.5-91.7c-3.2-2.8-21.5-8-21.5-8s1.3-5.4-0.3-6.2c-1.6-0.8-4.8-0.9-4.8-0.9s-3.5,26.7-6,26.7
			c-2.6,0-19.7-14-21.7-20.5S341.6,205,341.6,205z"/>
	</g>
	<polygon class="st22" points="427.2,450 441.3,388.3 430.5,387 416.4,450 	"/>
	<path class="st46" d="M437.3,405.6l4-17.3l-10.8-1.2l-3.5,15.6C430.5,403.6,433.9,404.5,437.3,405.6z"/>
	<g class="st47">
		<path class="st48" d="M795.6,431.9c2.5-2.1,111.7-9.7,112.7-13.4c1.1-3.7,3.5-25.3,3.5-25.3l-2.9-0.5c0,0-2,22.9-4.5,23.8
			c-2.6,0.9-107.7,10.7-111.7,13.4c-3.3,2.3-7.9,15.8-9.2,19.9h3.7C788.9,445.6,793.6,433.6,795.6,431.9z"/>
		<path class="st48" d="M724.6,450h3.2c2.2-9.8,11.2-48.1,15-52c2.6-2.7,9.1-5.5,13.8-7.4c-5.5,1.3-10.2,2.6-13.5,3.6
			c-1.8,1.6-3.5,3.5-4.7,5.6C735.4,405.6,727.4,438.5,724.6,450z"/>
		<path class="st48" d="M918.1,390.8c0,0.5-2.3,29.4-4.8,31.5c-2.6,2.1-111.5,10.6-114.3,13.6c-2,2.2-4.6,10.1-5.8,14h2.3
			c1.3-2.9,4.2-9.7,5.3-10.9c1.4-1.5,112.6-9.1,114.7-14.5c2.1-5.4,5.4-33.8,5.4-33.8S918.1,390.4,918.1,390.8z"/>
		<path class="st48" d="M862.1,381.8c0,0-0.5-1.9-1.4-2.2c-0.9-0.3-96,15.3-101.6,22.4c-5,6.3-15.9,40.7-18.1,48h5.3
			c2.3-8.6,10.7-39,14.8-44.7C766,398.7,862.1,381.8,862.1,381.8z"/>
		<path class="st48" d="M790.9,426c9.7-3.9,102.2-11.3,105.5-15.4c3.3-4.1,5.6-15.2,5.6-15.2l-3.3-0.9c0,0-3.7,13.7-4.8,14
			c-1.1,0.3-102.1,11.2-106.6,13.6c-3.7,2-11,21.1-13.4,27.8h3.7C778.4,446.2,782.3,429.5,790.9,426z"/>
		<path class="st48" d="M785.2,418.5c7.5-5.3,105.8-15.4,105.8-15.4l-0.5-3.9c0,0-101,10.6-107.4,16.5c-5.3,4.9-13.8,27.2-16.5,34.4
			h2.9C771.8,443.2,778.9,422.9,785.2,418.5z"/>
		<path class="st48" d="M774.1,406.2c4.1-4.1,86.9-19.2,86.9-19.2l-1.4-2.7c0,0-83.5,13.9-89.5,20.7c-5.2,5.8-15.4,36.4-18.3,45h2.6
			C757.4,442.5,770.5,409.8,774.1,406.2z"/>
		<path class="st48" d="M750.1,399.7c-8.7,7-16.3,41.1-18.2,50.3h4.5c1.6-7.9,11-44.3,15.9-48.8c5.5-5,106.1-24.5,106.1-24.5
			s-0.7-1.1-1.2-1.9l-3.9-0.5C836.5,377.5,759.1,392.5,750.1,399.7z"/>
		<path class="st48" d="M780,412.1c5.7-4.5,93.4-16.6,93.4-16.6s-0.5-4.4-0.9-4.8c-0.5-0.4-88.9,11.5-95.7,18.6
			c-5.7,6-15.1,32.8-18.2,40.8h3.5C765.1,442.1,775.2,415.9,780,412.1z"/>
	</g>
	<polygon class="st22" points="808.1,450 793.9,387 783.2,388.3 797.3,450 	"/>
	<path class="st46" d="M796.7,399.4l-2.8-12.4l-10.8,1.2l3.6,15.7C790,402.3,793.3,400.8,796.7,399.4z"/>
	<g>
		<path class="st49" d="M844.4,372.2c0,14.3-108.9,25.8-243.2,25.8S358,386.4,358,372.2c0-0.5-0.3-10.8,0-11.3
			c7.9-13.5,114-14.5,243.2-14.5c131.8,0,239.2,0.9,243.1,14.9C844.4,361.4,844.4,371.9,844.4,372.2z"/>
	</g>
	<g>
		<g>
			<ellipse class="st50" cx="601.2" cy="361.2" rx="243.2" ry="25.8"/>
		</g>
	</g>
	<ellipse class="st51" cx="592.2" cy="341.9" rx="18.6" ry="3.2"/>
	<path class="st51" d="M473.1,351.8c-0.4,0.2-124.6-9.4-110.4,14.5c0.1,0.2,4,1.7,4,1.7c1.9,0.7,4,1.4,6.4,2.1
		c8.2,0.9,20.8,2.2,21.4,2c1-0.3,3-1.4,3-1.4s70.1,9.9,74.4,8.9c4.3-1.1,5.5-4.5,5.5-4.5l27.6-1c0,0,27.6-9.9,27.6-10.2
		c0-0.3-1.2-12.5-1.5-12.6C530.9,351.3,473.5,351.6,473.1,351.8z"/>
	<g>
		<path class="st4" d="M306.3,261.1c0,0,28.9,94.8,36.8,100.1c7.9,5.2,48.5,9.7,49.9,8.8c1.4-0.9,3.7-4.6,3.7-4.6s5-24.7,4.2-26.4
			c-0.8-1.6-3.5-2.8-3.5-2.8s-23.1-5-31.2-6.9c0,0,0.7-2.1-0.4-3.1c-1-0.9-3,0.4-3,0.4c-4.1-12.6-22.6-77.4-24.8-78
			C335.5,247.9,306.3,261.1,306.3,261.1z"/>
	</g>
	<g>
		<path class="st5" d="M357.9,367.3c-0.6-0.1-14.7-2.2-18.2-5.6c-3.4-3.3-30.9-84.7-34-94l1.2-0.4c12.2,36.3,31.3,91.1,33.7,93.5
			c3.2,3.1,17.1,5,17.2,5L357.9,367.3z"/>
	</g>
	<path class="st5" d="M402.2,344.2c0.2-0.4,1.9-5.5,0.9-7.3c-0.5-0.8-3.2-2-19.6-5.1c-0.2,0-0.4-0.1-0.5-0.1c0.2,0.5,0.4,1,0.7,1.4
		c15.4,2.8,18,4,18.4,4.4c0.5,1-0.6,4.8-1.1,6.3L402.2,344.2z"/>
	<path class="st51" d="M843.5,363.5c-9.9-3.6-43.9-14.2-61.2-19.6c-6.5-0.8-13.5-1.5-20.9-2.2c-18.6,2.2-55.2,7-55.2,7.7
		c0,0.9-1.4,5.6-1.4,5.6l-56.5,5.3l-0.6,2c0,0,1.3,18.6,1.8,18.8c0.4,0.1,68.3-1.7,68.5-1.8c0.1-0.1,2-2.7,2-2.7s1.3,1.4,3.2,1.5
		c1.9,0.1,3.8-0.6,3.8-0.6s4.9,2.2,7.9,1.1c3-1.1,4.3-4.6,4.3-4.6s7.6,0.6,9.5-0.6c1.9-1.2,2.9-3.6,2.9-3.6l33.8-1.3
		c0,0,0.5,4.2,3.3,4.3c2.3,0.1,37.3-4.6,51.5-6.9C841.7,365.1,842.8,364.3,843.5,363.5z"/>
	<path class="st5" d="M386.6,256.9c-0.2,0.2-0.4,0.5-4.9,34.7c-1.6,12.7-3.3,25.5-4,31.1c0.2-0.5,0.3-0.8,0.3-0.8
		c0.1,0,0.4,0.5,0.9,1.4c2.5-19.8,8.2-64.1,8.7-65.8c0,0,0,0.1-0.1,0.2L386.6,256.9z"/>
	<path class="st41" d="M420.7,350.9c0,0,1.1-5.3,3.9-12.5c2.3-6.1,5.4-8.2,6.2-8.2c0.8,0,36.6,10.1,36.7,10.9
		c0,0.8-6.2,10.7-6.2,10.7L420.7,350.9z"/>
	<g>
		<path class="st5" d="M385.4,267l-1.1-0.7c5.1-7.3,5.7-7.5,5.9-7.5l0.4,1.2c0.1,0,0.1,0,0.1,0C390.2,260.2,387.6,263.8,385.4,267z"
			/>
	</g>
	<g>
		<path class="st5" d="M364,324c-3.9,1.8-8.2,6.4-8.4,6.7l1,0.9c1.6-1.7,5.9-5.9,9-6.8C365.1,324.5,364.5,324.2,364,324z"/>
		<path class="st5" d="M367.1,325.8c-0.5,2.1-3.1,6.4-5.8,9.9l1,0.8c0.9-1.2,4.8-6.4,5.8-9.9C367.8,326.3,367.5,326,367.1,325.8z"/>
	</g>
	<g>
		<path class="st5" d="M417.7,323.4c0,0,0.2-0.5,0.3-1.1c-1.1,1.2-2.5,2.7-3.9,3.9l0.9,1c0.7-0.6,2.2-2,3.5-3.5L417.7,323.4z"/>
		<path class="st5" d="M415.1,320.5c-0.1-0.4-0.2-0.9-0.2-1.4c-2.4,1.4-4.4,3.3-4.7,3.7l0.9,0.9
			C411.8,322.9,413.4,321.6,415.1,320.5z"/>
	</g>
	<g>
		<path class="st5" d="M333.3,226.6c4,9.5,10.6,15.4,19.1,16.9l0.3,0.1l0.2-0.2c2.1-1.9,5.2-4.2,7.3-4.8c-0.4-0.3-0.8-0.6-1.3-0.9
			c-2.7,1.1-5.6,3.6-6.7,4.6c-7.9-1.5-13.9-6.9-17.7-15.9c-2.1-5-3-9.8-3.3-12.2c-0.1,0.7-0.1,1.1-0.1,1.1s-0.4,0.1-1,0.2
			C330.6,218,331.5,222.2,333.3,226.6z"/>
		<path class="st5" d="M364.6,240c-0.2,0.2-0.4,0.4-0.5,0.4c-0.2,0-0.5-0.1-0.8-0.2c0.8,1.9,1.1,4.7,1.1,5.9l1.3,0
			C365.6,245.6,365.6,242.5,364.6,240z"/>
	</g>
	<g>
		<path class="st5" d="M375.2,220.8c-1.3,7.9-3.1,16.4-3.9,17.6c-0.7-0.1-2.8-1.1-4-1.6c-0.5-0.2-0.9-0.4-1.3-0.6
			c-0.1,0.4-0.2,0.9-0.4,1.3c0.4,0.2,0.8,0.4,1.1,0.5c2.2,1.1,3.7,1.8,4.6,1.8c0.1,0,0.2,0,0.3,0c0.6-0.1,1.2-0.3,3.2-9.9
			c0.7-3.7,1.4-7.3,1.6-8.7C375.7,221,375.3,220.8,375.2,220.8z"/>
		<path class="st5" d="M375.2,220.6c0-0.1,0-0.1,0-0.2l0,0C375.3,220.5,375.2,220.6,375.2,220.6z"/>
	</g>
	<path class="st5" d="M368.5,328.4c0.1-0.9,0-2.7-1.2-3.6c-1.1-0.9-2.9-1.2-3.7-1.4l-18.3-63.3l-1.3,0.4l18.4,63.7l0.1,0.4l0.4,0
		c0.6,0.1,2.5,0.4,3.5,1.2c0.9,0.7,0.8,2.4,0.6,3l-0.1,0.6l8.7,1.8c0.1-0.4,0.2-0.9,0.3-1.3L368.5,328.4z"/>
	<g>
		<path class="st23" d="M803.4,159.3c0,0-4.3,36.7,2.9,46.2c7.2,9.5,19.4,10.9,19.4,11.2c0,0.1,0.6,6.5,0.6,6.5s-0.9,23.6-2,38.2
			c-0.1,1.8,11.8,0,11.8,0s23.9-39.9,24.3-40.1s-5.1-3.8-7.3-8.7c-2.3-4.9,1.7-38.2,1.7-38.2s-5.7-41.8-25.5-41.7
			S803.4,159.3,803.4,159.3z"/>
	</g>
	<path class="st52" d="M811,171.2c-0.2,2.2-0.9,4-1.5,4c-0.7,0-1.1-1.8-1-4s0.9-4,1.5-4C810.7,167.2,811.2,169,811,171.2z"/>
	<path class="st52" d="M839.2,172.1c-0.2,2.2-0.9,4-1.5,4c-0.7,0-1.1-1.8-1-4c0.2-2.2,0.9-4,1.5-4
		C838.9,168.1,839.3,169.9,839.2,172.1z"/>
	<g>
		<path class="st24" d="M822.5,184.7c-1.6,0-3.4-0.3-4.9-0.9c-2.1-0.9-3.3-2.2-3.3-4c-0.1-2.6,2-4.2,4-5.8c2-1.5,4-3,4.2-5.5
			l1.3,0.1c-0.3,3.1-2.7,4.9-4.8,6.4c-1.9,1.5-3.6,2.7-3.5,4.7c0.1,1.2,0.9,2.2,2.5,2.8c2.9,1.2,6.6,0.8,7,0.4l0.9,0.9
			C825.5,184.4,824.1,184.7,822.5,184.7z"/>
	</g>
	<path class="st37" d="M812.4,159.3c-1.4,0-2.8,0-4.1,0.1c-1.5,0.1-1.5,2.4,0,2.3c1.4-0.1,2.8-0.1,4.1-0.1
		C813.9,161.7,813.9,159.4,812.4,159.3z"/>
	<path class="st37" d="M841,160.6c-2.2-0.5-4.4-0.8-6.7-0.8c-1.5,0-1.5,2.3,0,2.3c2.1,0,4.1,0.3,6.1,0.7
		C841.8,163.1,842.4,160.9,841,160.6z"/>
	<path class="st24" d="M853,192.7c0-0.6,0.1-1.1,0.1-1.7l-0.8-0.2l-0.2,0.6c-0.1,0.2-6.2,17.1-12.2,20.8c-6,3.7-17.6,3.6-17.7,3.6
		l0,0c2.1,0.6,3.4,0.9,3.4,1c0,0.1,0.4,3.8,0.6,5.6c4.4,0,11.7-0.4,16.1-3C847.9,215.9,851.7,196.8,853,192.7z"/>
	<path class="st23" d="M865.7,181.6c-1.1,5.6-5.2,10.1-9.2,10.1c-0.9,0-3.3-0.4-4-0.8c-2.5-1.4-2.1-4.9-1.3-9.3
		c1.1-5.6,5.2-10.1,9.2-10.1S866.8,176,865.7,181.6z"/>
	<g>
		<path class="st24" d="M856.3,187.3l-1.3-0.1c0-0.4,0.5-9.2,6-12.6l0.7,1.1C856.8,178.8,856.4,187.2,856.3,187.3z"/>
	</g>
	<g>
		
			<rect x="856.4" y="181.9" transform="matrix(0.985 -0.1724 0.1724 0.985 -18.6056 150.7788)" class="st24" width="5.1" height="1.3"/>
	</g>
	<ellipse class="st12" cx="857" cy="192.4" rx="2.4" ry="2.9"/>
	<g>
		<path class="st53" d="M822.1,259.4c0,0,18-0.1,18.3,0c0.2,0.1,26.8,118.9,24.7,119.3c-1,0.2-8.8,0.5-20.6-5.1
			c-0.3-0.1-0.3-10.5-0.6-10.6c-13.3-6.3-30.7-8.2-30.7-8.2l-3.6-31.7L822.1,259.4z"/>
	</g>
	<g>
		<path class="st54" d="M826.4,223.3c0,0-2.4,3-2.5,3.9c-0.2,0.9-0.5,2.9-0.5,2.8c0.1-0.1-9.3,3.4-11.6,7.2
			c-2.3,3.8-20.9,90.4-22.5,90.7c-1.6,0.2-18.3,3.4-18.9,4.6s2.6,18.2,2.6,18.2s29.9-2,35-3c0.4-0.1,2.8,7.1,2.8,7.1h8.7
			c0,0,1.6-67.2,2.2-72.3c0.5-5.1,3-20.9,3.1-23.5C824.7,256.3,827.6,225.5,826.4,223.3z"/>
	</g>
	<path class="st23" d="M734.5,336c0,0,38.3-3.4,40.2-1.2c2,2.2,0.5,17.5,0.5,17.5l-40.7-0.9V336z"/>
	<path class="st55" d="M648.3,360.4l-0.1,2l1.5,17.3l67.2-1.3l0.5-1.8c0,0-12.3-16.8-12.6-16.8C704.4,359.7,648.3,360.4,648.3,360.4
		z"/>
	<g>
		<path class="st54" d="M785.2,345c0,0,0.7,25.6,3,26.3c2.3,0.7,63.1-6.8,66.1-10.4c3-3.6,22.5-95.4,21.5-95.8
			c-1-0.5-33.2-6.7-33.2-6.7s-13,73.7-13.8,74.9C827.9,334.4,786.2,342.9,785.2,345z"/>
	</g>
	<path class="st56" d="M819.9,335.8c0-0.4,0-0.9,0-1.3c-23.3,5.8-35.3,8.9-35.7,9.2c-0.2,0.2-0.8,0.7-0.2,5.7l1.3-0.1
		c-0.2-1.8-0.3-3.9-0.2-4.6C787.3,344,806.2,339.2,819.9,335.8z"/>
	<path class="st57" d="M709.3,322.1c0,0-1.2,32.3,0.5,34.1c2.6,2.7,26.8,0.7,27.7-0.4s1.5-32.8,0.8-33.7
		C736.9,319.9,710.9,320.2,709.3,322.1z"/>
	<path class="st58" d="M737.1,322.4c0,0.7-5.9,1.3-13.3,1.3c-7.3,0-13.3-0.6-13.3-1.3s5.9-1.3,13.3-1.3
		C731.2,321.1,737.1,321.7,737.1,322.4z"/>
	<g>
		<path class="st54" d="M852.6,209.2c0,0-0.5,9.8-1.3,10.7c-3,3.4-15.3,31-16.9,45.5c-0.7,6.1-2.6,46.6,0.8,65.4
			c4.8,26.1,18.4,31.1,18.4,31.1l-0.5,11.9c0,0,3.4,34.5,9.5,36.6c6,2.1,70.2-13.8,72.1-27.4c1.9-13.6-40.4-57.7-42-62.8
			c-1.6-5.1-2.2-74.8-8.8-85c-6.7-10.1-23-17.4-23.3-18.2c-0.3-0.8-0.8-5.3-1.9-6.1S852.6,209.2,852.6,209.2z"/>
	</g>
	<path class="st56" d="M833.4,310.4l13.2-57.2l-1.3-0.3l-12.1,52.3C833.3,306.9,833.3,308.7,833.4,310.4z"/>
	<g>
		<path class="st23" d="M788.2,347.1c4.2,1.8,2.6,17.5,0.9,18.2s-41.3,0-41.3,0s-0.4,3.6-2.8,5s-8.8,1-8.8,1s0.9,2.7-3.6,3.5
			c-4.5,0.8-6.9-2.7-6.9-2.7s-3.1,0.9-4.5,0c-1.4-0.9-2.1-2-2.1-2s-3,1.3-4.7-0.2c-1.6-1.6,1.2-9.5,1.2-9.5s-10.4,12.4-13.2,11.7
			c-2.8-0.7,9-18,15.5-20.9c6.5-2.9,24.4,3.8,24.8,3.5C743,354.4,785.3,345.8,788.2,347.1z"/>
	</g>
	<g>
		<path class="st24" d="M719,370.2c0,0,0.1,0.1,0.3,0.4c0-1.6,0.4-3.3,0.7-4.1l-1.2-0.4c-0.1,0.4-0.7,2.5-0.8,4.5
			C718.6,370.4,719,370.2,719,370.2z"/>
		<path class="st24" d="M725.6,369.5l-1.2-0.4c-0.4,1.1-0.1,2.3,0.3,3.3c0.6-0.1,1-0.2,1-0.2s0.2,0.3,0.7,0.8
			C725.8,371.9,725.2,370.5,725.6,369.5z"/>
	</g>
	<path class="st24" d="M756.2,351.9l19.3-3.7c0-0.4,0.1-0.9,0.1-1.3l-25.6,4.9L756.2,351.9z"/>
	<path class="st24" d="M733.6,369.8l-0.5,1.2l3,1.2c0.1-0.5,0-0.9,0-0.9s0.6,0,1.6,0L733.6,369.8z"/>
	<path class="st23" d="M708.2,327.5c6.2-1.5,3.4,5.3,3.4,5.3s2.4,1.3,2,3.9c-0.4,2.6-3.1,2.8-3.1,2.8s3.9,1,3.2,3.2
		s-3.1,2.7-3.1,2.7s3.8,1.5,1.9,4.4c-2,2.9-5,3.3-6,1.4c-1-1.9,0.7-5.1,0.7-5.1s-3.8-0.8-4.1-2.9s3.2-3.9,3.2-3.9s-2.7-0.5-2.2-3.3
		c0.5-2.8,2.4-3.3,2.4-3.3s-1-0.6-0.9-2.6C705.6,328.6,708.2,327.5,708.2,327.5z"/>
	<g>
		<path class="st24" d="M710.4,346.3c0.4-0.1,0.8-0.2,1.2-0.2c-0.6-0.4-1.1-0.6-1.1-0.6s1-0.2,1.9-0.9c-0.6,0.1-1.3,0.3-2.3,0.4
			c-1.2,0.2-2.8,0.5-4.2,0.8c0.7,0.2,1.2,0.4,1.2,0.4s-0.2,0.3-0.4,0.8C707.8,346.8,709,346.5,710.4,346.3z"/>
		<path class="st24" d="M706,332.2c0.2,0.4,0.5,0.5,0.5,0.5s-0.8,0.2-1.5,1c2-0.5,4.7-1,6.6-1c0-0.1,0.2-0.6,0.4-1.3
			C710.2,331.4,707.9,331.7,706,332.2z"/>
		<path class="st24" d="M704.8,338.6c0.6,0.6,1.4,0.7,1.4,0.7s-0.3,0.2-0.8,0.5c1.7-0.3,3.8-0.4,5.7-0.4c0.6-0.2,1.4-0.5,2-1.3
			C710.1,338.1,707.1,338.2,704.8,338.6z"/>
	</g>
	<path class="st32" d="M813.4,191.7c2.1-3.4,11.9,0.7,11.9,0.7s9.2-7.2,12.8-4.2c3.6,3-2.6,14-12.3,15.2
		C816,204.6,811.2,195.2,813.4,191.7z"/>
	<path class="st56" d="M881.2,262.1c-9,33.2-26.1,95.9-27,98.8c-0.2,0.2-0.8,0.4-1.5,0.6c0.5,0.3,0.8,0.4,0.8,0.4l0,0.7
		c1.7-0.6,1.8-0.9,1.9-1.2c0.5-1.2,26-95,27.1-99L881.2,262.1z"/>
	<path class="st24" d="M425.1,347.6v0.9L425,349c0.4,0.1,4.1,0.9,9,2.2l6.6,0.1C432.3,349.3,425.4,347.6,425.1,347.6z"/>
	<path class="st41" d="M464.5,340.4c0,0,23.4-4.7,26.4-2.6c3.1,2.1,13.1,11.4,13.1,11.4l-24.2,0.6l-18.6-1.3L464.5,340.4z"/>
	<g>
		<path class="st56" d="M811.5,337.4c-2.1-7.5,1.7-67.2,1.8-69.8l1.3,0.1c0,0.6-3.9,62.1-1.9,69.3L811.5,337.4z"/>
	</g>
	<path class="st52" d="M813.9,191.5c1.4-1.6,5.6,2.3,11.3,1.6c5.7-0.7,10-5.6,12.1-4.8c2.2,0.9-0.9,11.8-11.8,12.7
		C814.7,201.9,812.2,193.5,813.9,191.5z"/>
	<path class="st59" d="M827.2,196c3.8-0.5,7.7-3.1,8-4c0.2-0.6,0.2-2.2,0.2-3.4c-2.4,1-5.9,4-10.2,4.5c-4,0.5-7.3-1.3-9.4-1.8
		c0.1,1.1,0.4,3,2,3.8C820,196.3,823.4,196.5,827.2,196z"/>
	<g>
		<path class="st56" d="M793.8,329.5l0.6-1.2c-1.5-0.7-3.2-1.4-4.5-1.8c-0.2,0.6-0.4,1-0.5,1.2C790.5,328.1,792.3,328.8,793.8,329.5
			z"/>
		<path class="st56" d="M791.2,331.3l0.7-1.1c-1.2-0.8-2.3-1.8-3-2.4c-0.3,0.1-0.8,0.1-1.5,0.3C788.1,329,789.3,330,791.2,331.3z"/>
	</g>
	<path class="st56" d="M860.5,217.1c0-0.1,0-0.1-0.1-0.2c-4.9,6.4-16,21.5-22.6,34.1c-0.9,2.7-1.6,5.4-2.2,7.9
		c5.2-13.5,21.1-34.9,25.8-41.2C860.8,217.4,860.5,217.2,860.5,217.1z"/>
	<path class="st56" d="M824.6,258.4c-0.9-8.8-1.9-21.9-1.3-28.4c-0.1,0-0.6,0.2-1.3,0.5c-0.6,8.8,1.2,26.9,2,34
		c0.4-2.7,0.6-4.8,0.6-5.6C824.6,258.8,824.6,258.6,824.6,258.4z"/>
	<path class="st24" d="M713.6,362.7c1.2-1.3,1.9-2.2,1.9-2.2s-0.6,1.8-1.2,3.9c0.6-1.7,2.2-5.6,4.5-7l-0.7-1.1
		C716,357.5,714.5,360.6,713.6,362.7z"/>
	<path class="st4" d="M399.1,345.3c0.3,0.1,26.9,7,28,6.5c1.2-0.5,2.2-2,2.2-2s-2.5-1.4-0.7-7.1c3-9.5,6.4-11.7,6.4-11.7l-12.4-3.9
		l-17.4,13.9c0,0-2.3,3.4-2.5,3.3C402.7,344.1,399.1,345.3,399.1,345.3z"/>
	<g>
		<path class="st24" d="M468.8,350.1c-1.9-2.5-1.7-4.6-1.7-4.7l1.4,0.1c0,0.1-0.1,1.7,1.4,3.8L468.8,350.1z"/>
	</g>
	<g>
		<path class="st24" d="M485.6,349.2c0,0-0.4-3.9-3.7-5.6l0.6-1.3c4.1,2,4.5,6.5,4.5,6.7L485.6,349.2l0.7-0.1L485.6,349.2z"/>
	</g>
	<g>
		<path class="st24" d="M492,348.7c-0.3-0.5-3.1-3.8-3.9-4.3c-0.5,0.1-2,0.7-3.2,1.3l-0.6-1.3c1.5-0.7,3.4-1.6,4.1-1.5
			c1.1,0.2,4.8,4.9,4.8,5L492,348.7z"/>
	</g>
	<path class="st43" d="M393.3,128.3c-0.4-0.8-1.5-0.1-1.1,0.7c0.6,1.2,0.3,2.9-0.6,3.9c-1,1-2.8,1.2-4.1,1.3c-0.7,0.1-1.5,0-2.2,0.1
		c-0.4,0-0.7,0.2-0.9,0.5c-0.2,0.3-0.1,0.7-0.1,1.1c0,0.6-0.2,1.1-0.6,1.4c0.4,0.3,0.7,0.6,1,0.8c0.4-0.3,0.7-0.8,0.8-1.2
		c0.1-0.3,0.1-0.5,0.1-0.8c0-0.2,0-0.4,0-0.5c0.2,0,0.4,0,0.5,0c0.3,0,0.6,0,0.9,0c0.6,0,1.2-0.1,1.8-0.1c1.1-0.1,2.3-0.4,3.3-1.1
		C393.7,133.1,394.2,130.3,393.3,128.3z"/>
	<path class="st60" d="M384.3,120.6c-0.7,0-1.3,0.1-2,0.2c-0.6,0.1-0.6-0.3-0.7-0.7c-0.1-0.5-0.3-1-0.8-1.4
		c-0.5-0.4-1.2-0.5-1.8-0.6c-1.6-0.2-3.2,0.2-4.5,1c-0.7,0.4-0.1,1.6,0.7,1.1c1-0.6,2.2-0.9,3.4-0.9c0.5,0,1.1,0,1.5,0.3
		c0.3,0.2,0.3,0.7,0.4,1.1c0.1,0.5,0.3,0.9,0.8,1.2c0.6,0.3,1.2,0.2,1.8,0.1c1.1-0.2,2.2-0.1,3.3,0.2c0.9,0.3,2.4,1.2,2.3,2.4
		c0,0.3,0.1,0.7,0.5,0.8c0.3,0.1,0.8-0.1,0.8-0.5C390.2,122.1,386.7,120.6,384.3,120.6z"/>
	<path class="st60" d="M365.7,124.4c-2.9-1.2-6.4-0.6-8.8,1.5c-0.7,0.6-1.3,1.3-1.8,2.1c-0.5,0.7-1,1.5-1.3,2.3
		c-0.3,0.9-0.3,1.7,0,2.6c0.1,0.4,0.3,0.8,0.4,1.2c0.1,0.2,0.2,0.7,0,0.8c-0.1,0.1-0.3,0.1-0.5,0.1c-0.3,0.1-0.6,0.1-0.9,0.1
		c-0.5,0.1-1,0.1-1.4,0.2c-0.9,0.3-1.3,1.1-1.6,2c-0.2,0.8,1,1.2,1.3,0.3c0.1-0.3,0.2-0.6,0.3-0.9c0.2-0.3,0.5-0.3,0.8-0.4
		c0.8-0.1,1.7-0.1,2.5-0.5c1.7-0.8,0.3-2.9,0.1-4.2c-0.1-0.8,0.3-1.6,0.7-2.3c0.4-0.7,0.9-1.3,1.4-1.9c1-1.1,2.2-1.9,3.7-2.3
		c1.5-0.4,3.2-0.3,4.6,0.3c0.3,0.1,0.7-0.1,0.8-0.5C366.3,124.8,366,124.5,365.7,124.4z"/>
	<path class="st60" d="M341,128c-0.1-0.3-0.5-0.6-0.8-0.5c-1.3,0.5-2.4,1.2-3.4,2.2c-1,1-1.9,2.4-1.8,3.9c0,0.4,0.3,0.7,0.7,0.7
		c0.3,0,0.7-0.3,0.7-0.7c-0.1-1.2,0.7-2.3,1.5-3c0.8-0.8,1.7-1.4,2.7-1.8C340.9,128.7,341.1,128.4,341,128z"/>
	<path class="st8" d="M457.8,347.4c-1.5,0.3-29.7,20.2-29.9,20.7c-0.2,0.5,0.1,2,0.1,2l74.2,0.7c0,0,43.5-61.2,43.3-61.7
		c-0.1-0.4-12.2-5.4-13-5.2c-0.5,0.1-32.7,43.4-32.7,43.4L457.8,347.4z"/>
	<path class="st61" d="M468.1,349.2L464,366c0,0,34.5,0.6,34.5,0.4c0-0.2,0-17.3,0-17.3H468.1z"/>
	<path class="st41" d="M470.3,342.6c0,0,6.1-1.8,11.2,0.8c5.1,2.6,5,9.8,2.5,9.9c-2.5,0.1-3.5-2.7-4.1-2.7c-0.5,0-9.6-0.7-10.2-1.4
		c-0.6-0.8-0.6-2.3-0.6-2.3L470.3,342.6z"/>
	<path class="st55" d="M545.2,308.9c-0.3-0.1-0.7-0.3-1.2-0.6l-42.9,59.4h-72.7c-0.3,0.2-0.5,0.4-0.5,0.4c-0.1,0.2-0.1,0.5,0,0.9h74
		L545.2,308.9z"/>
	<path class="st57" d="M592.2,348.4c0.1-0.3,36.3-11,38.2-11.4c1.9-0.3,49.3,1.7,49.5,2c0.1,0.3-12.5,20.7-12.5,20.7
		s-73.5-5.5-73.9-5.3C593.1,354.5,592.2,348.4,592.2,348.4z"/>
	<polygon class="st27" points="532.6,305.1 542.3,309.4 502.3,363.6 501.2,347.9 	"/>
	<path class="st41" d="M397.7,342.5l58.4,13.6c0,0-2.3,20.2-2.9,20c-0.6-0.2-59-7.4-61.6-8.9C389,365.8,395.9,343.9,397.7,342.5z"/>
	<path class="st41" d="M442.6,353.7c0,0,13.1-4.2,20.1-3.9c7,0.3,18.3,5.1,18.1,6.7c-0.1,1.6-0.8,3.2-1.3,3.4c-0.5,0.3-4.9,0-4.9,0
		s1.7,1.5,1.6,2.8c0,1.3-1.8,3.1-1.8,3.1s1.5,1.2,1.2,3.3c-0.2,2.2-2.4,2.9-2.4,2.9s1,1.2,0.2,3.4c-0.8,2.2-4.7,2-4.7,2
		s-19.5-1.3-27.9-2.9C432.1,372.8,442.6,353.7,442.6,353.7z"/>
	<g>
		<g>
			<path class="st24" d="M471.5,357.4c-0.1,0.4-0.2,0.8-0.3,1.2c0.7,0.2,2.1,0.7,3.4,1.3c0,0-0.1-0.1-0.1-0.1s1.5,0.1,2.9,0.1
				C476,358.9,472.7,357.8,471.5,357.4z"/>
			<path class="st24" d="M469.9,365.7c0.6,0.1,3.6,0.6,5.1,0.8c-0.3-0.5-0.6-0.7-0.6-0.7s0.2-0.2,0.6-0.6c-1.5-0.2-4.3-0.7-4.8-0.8
				L469.9,365.7z"/>
		</g>
		<path class="st24" d="M476.8,361.2L476.8,361.2L476.8,361.2z"/>
	</g>
	<path class="st24" d="M473.4,372.6c-0.1-0.4-0.3-0.6-0.3-0.6s0.5-0.2,1-0.6l-4.2-0.8l-0.2,1.3L473.4,372.6z"/>
	<path class="st51" d="M645.2,364.1c-0.3-1.3-22.2-3.2-22.2-3.2l-87.7,6c0,0-14.4,5.7-13.9,6.6c0.4,0.8,87.3,13.5,87.3,13.5
		C615.4,383.6,645.5,365.3,645.2,364.1z"/>
	<g>
		<path class="st62" d="M639.3,359.9l-0.3-3.3c0,0,2.4-0.9,2.4-1.3c0-0.4-0.3-1.7-0.3-1.7s-65-11.7-70.6-12
			c-5.6-0.3-43.3,10-45.9,13.8c-0.8,1-0.9,15.9,1.1,17.3c2,1.4,78.4,11.9,82.1,11.5c3.6-0.3,33.9-21.5,33.9-21.9c0.1-0.4,0-2,0-2
			L639.3,359.9z"/>
		<path class="st63" d="M608.4,370.4c-0.4,1.5,0.1,9.8,0.7,9.6s30.6-19,30.6-19l-0.3-4.6C639.3,356.5,608.8,369,608.4,370.4z"/>
		<path class="st64" d="M639.6,353.4c-1.3,0.5-3,1.2-5.3,2.1c-9.4,3.7-26.9,10.7-28.5,10.8c-1.2,0-24-3.1-44.2-5.9
			c-17.7-2.4-30.6-4.2-36.9-5c0,0,0,0-0.1,0.1c-0.1,0.1-0.2,0.5-0.3,1.1c7.1,0.9,22.3,3,37,5c26.2,3.6,43.4,5.9,44.4,5.9
			c1.3,0,11.2-3.9,29-10.9c2.4-1,4.7-1.9,6.3-2.5c0-0.2-0.1-0.3-0.1-0.3S640.5,353.6,639.6,353.4z"/>
		<path class="st64" d="M610.4,366l-0.7-1c-2.2,1.1-4.2,2.1-5.3,4c-1.1,2,0.8,13.4,1.3,14.1c0.3,0.3,1,0.7,1.9,1.1
			c0.1,0,0.1,0,0.2,0c0.3,0,0.9-0.2,1.6-0.6c-1.2-0.5-2.2-0.9-2.5-1.1c-0.6-1.2-2.1-11.6-1.2-13C606.5,368,608.3,367.1,610.4,366z"
			/>
		<path class="st65" d="M539.8,362.6c0,0.7,0.1,7.8,0.9,8.2c0.8,0.4,42.9,6.2,43,5.9c0.1-0.2,0.6-7.6-0.1-8.4
			C582.8,367.5,539.8,362,539.8,362.6z"/>
		<path class="st66" d="M532.2,361.8c-1.9,0-3.2,1.9-3,4.1c0.2,2.2,1.9,4,3.7,4c1.9,0,3.2-1.9,3-4.1
			C535.8,363.6,534.1,361.8,532.2,361.8z"/>
		<path class="st67" d="M571.8,346c-0.3,0-23.7,5.8-23.7,6.2c0,0.4,12.4,2.3,13.2,2.1c0.8-0.1,24.1-6.3,23.9-6.6
			C585,347.4,573,346,571.8,346z"/>
	</g>
	<path class="st66" d="M443.7,352.6c-0.1,0-7.5-1.7-7.5-1.7s-4.9,1.9-6.8,9.2c-1.8,7.3,1.1,13.2,1.7,13.7c0.6,0.5,8.1,1.4,8.1,1.4
		l0.7-0.7l-1.6-0.3c-1-1.7-3.1-7.1-1.8-12.3c1.3-5.4,4.7-8.5,5.4-8.8c0.1,0,0.2-0.1,0.2-0.1l1.6,0.4
		C443.7,353.3,443.8,352.6,443.7,352.6z"/>
	<path class="st8" d="M493.6,274.4c-12.5-0.3-23.1-1.7-27-2.3c-1.1,1.5-2.5,3.3-3.8,5.1c3.5,1,14,3.6,31.4,3.5
		C493.9,278.6,493.8,276.5,493.6,274.4z"/>
	<path class="st8" d="M534.7,269.7c-7,1.7-14.3,3.2-21.1,3.9c-5.8,0.7-11.8,0.9-17.4,0.8c0.1,2.1,0.3,4.2,0.5,6.2
		c5-0.1,10.6-0.4,16.7-1c8.4-0.9,16.1-2.2,23-3.8C535.8,273.8,535.2,271.7,534.7,269.7z"/>
	<path class="st8" d="M539,275.2c17.1-4.2,28.4-9.5,30.8-10.6c-1.7-1.5-3.2-2.9-4.5-4c-3.9,1.4-15.1,5.2-28,8.5
		C537.8,271.1,538.3,273.2,539,275.2z"/>
	<path class="st68" d="M520.2,272.7c0,0-0.5-3.3-7.5-2.6c-8.7,0.8-9.4,15.2,1.5,14.5c7.4-0.4,7.9-6.1,7.9-6.1l-2.3,0.3
		c0,0-0.7,2.8-6.1,3.3c-6.5,0.6-6.7-8.8-0.9-9.7c4.2-0.7,5.2,0.6,5.2,0.6L520.2,272.7z"/>
	<path class="st68" d="M507.4,276.8c0,0,3.6-0.6,3.7-0.4c0.1,0.1,0,1.8,0,1.8l-3.7,0.2V276.8z"/>
	<path class="st31" d="M458,307.9l7.7-2.7l-0.5-1.7c0,0-4.5,1.5-7.1,2.4C458.1,306.5,458,307.2,458,307.9z"/>
	<path class="st31" d="M573.6,297.5l-0.5,1.7l9.5,3.4c-0.1-0.7-0.2-1.5-0.3-2.2C581,300,573.6,297.5,573.6,297.5z"/>
	<g>
		<path class="st56" d="M858.6,357.2c-0.2,0-0.3-0.1-0.4-0.2c-0.1-0.1-0.3-0.3-1.8-3.5l1.2-0.5c0.5,1.1,1.1,2.3,1.4,2.8
			c2.4-0.7,15.6-5.3,24.7-8.6c-0.7-2.2-1.7-4.6-2.2-5.2c-1.7,0.1-13.1,3.9-23.1,7.6l-0.4-1.2c0.1,0,5.8-2.1,11.5-4.1
			c12-4.1,12.4-3.7,12.8-3.4c1,0.8,2.4,5.2,2.8,6.5l0.2,0.6l-0.6,0.2c-0.1,0-6.5,2.3-12.8,4.6c-3.7,1.3-6.7,2.4-8.9,3.1
			C860.1,356.9,859.1,357.2,858.6,357.2z"/>
	</g>
	<path class="st5" d="M309,377.8c-1-0.3-2-0.6-2.7-1.5c-0.2-0.3-0.4-0.7-0.4-1.2c0-0.5,0.3-0.9,0.5-1.4c0.4-0.9,0.5-2-0.3-2.7
		c-0.4-0.3-0.9-0.4-1.4-0.5c-0.6-0.1-1.2-0.1-1.8-0.1c-2.3,0-4.7,0.5-7,0.7c-1.2,0.1-2.4,0.1-3.6,0c-0.9-0.1-1.8-0.3-2.5-1
		c-0.7-0.8-0.6-2-0.5-3c0.2-1.2,0.7-2.4,1.3-3.5c0.4-0.7-0.7-1.4-1.1-0.7c-0.6,1-1.1,2.2-1.4,3.4c-0.2,1.1-0.4,2.2-0.1,3.3
		c0.7,2.3,3.2,2.8,5.3,2.9c2.5,0.1,5-0.4,7.4-0.7c1.2-0.1,2.4-0.2,3.6,0c0.4,0,0.8,0.1,0.8,0.5c0.1,0.5-0.3,1-0.5,1.4
		c-0.6,1.2-0.4,2.3,0.4,3.4c0.8,1,2.1,1.5,3.3,1.8C309.4,379.3,309.8,378,309,377.8z"/>
	<path class="st69" d="M332.5,233.2c-0.7-0.2-1.8,0-2.4-0.5c-0.3-0.2-0.4-0.6-0.4-0.9c-0.1-0.5,0-1-0.1-1.5
		c-0.2-0.9-0.8-1.8-1.5-2.4c-1.6-1.4-3.8-1.6-5.9-1.6c-2,0-4,0.1-5.9,0.6c-2.2,0.5-4.2,1.5-5.9,3c-0.6,0.5,0.3,1.5,0.9,0.9
		c2.8-2.4,6.5-3.2,10.1-3.2c1.8,0,3.8,0,5.4,1c0.7,0.4,1.2,1,1.4,1.8c0.2,0.8,0,1.7,0.4,2.6c0.4,1,1.4,1.2,2.4,1.3
		c0.5,0,1.8,0.1,1.8,0.7c0,0.8,1.3,0.8,1.3,0C334.1,234.1,333.4,233.5,332.5,233.2z"/>
	<g>
		<path class="st45" d="M393.4,433.1c-1.2,0.7-2.4,1.4-3.7,2.1c-0.3,0.1-0.5,0.3-0.8,0.4c0.1,0.3,0.2,0.7,0.3,1.3
			c0.1-0.1,0.3-0.1,0.4-0.2c1.5-0.8,3-1.6,4.4-2.5C394.8,433.8,394.1,432.7,393.4,433.1z"/>
		<path class="st45" d="M390.9,427.5c-0.3-0.2-0.7-0.1-0.9,0.2c-1.1,2.4-2.7,4.5-3.8,6.8c-0.1,0.2-0.2,0.5-0.3,0.7c0.6,0,1,0,1.4,0
			c0-0.1,0.1-0.2,0.1-0.2c0.4-0.8,0.8-1.5,1.2-2.2c0.9-1.5,1.8-2.9,2.5-4.4C391.3,428.1,391.2,427.7,390.9,427.5z"/>
	</g>
	<g class="st70">
		<path class="st71" d="M365.1,135.6c-3.4,0-6.7-0.2-7.7-0.8c-2.3-1.3-0.4-5.3-1.9-6.3c-1.5-1-8.2,3.4-12.6,2.5
			c-3.7-0.7-1.7-6.8-1-8.7c-0.2,0-0.5,0.1-0.7,0.1c-2.7,0.8-2.2,2.4-2.2,2.4s-5.4,1.9-6.9,7.4c-0.2,0.6-0.3,1.2-0.4,1.8
			c0.9,1.2,2.2,2.4,4.1,3.4c6.2,3.3,13.8-1.4,14.3-1.4c0.5,0-0.6,4.6,3.1,6.4c0.9,0.4,3.4,0.7,6.6,0.7
			C360.8,140,361.8,137.1,365.1,135.6z"/>
		<path class="st71" d="M395.5,135.9c-0.7-0.1-1.4-0.1-1.4-0.1s3.7-7,0.1-12.1c-1-1.4-2-2.4-2.8-3.1c1.7,1.6,0.6,7.4-1.5,9.8
			c-1.9,2.2-6.4,4.1-11.4,4.7c3,0.8,5.4,2.1,6.8,3.9c0.3,0.5,0.7,1,1,1.6c2.8-0.7,5.2-1.5,6.6-2.4
			C393.8,137.5,394.7,136.7,395.5,135.9z"/>
	</g>
	<path class="st56" d="M785.8,342.2c0,0.4,0,0.9,0,1.3c0.4-0.1,0.9-0.2,1.3-0.2c0-1.8-0.2-3.6-0.5-5.3c-0.3-1.6-0.6-3.1-1.1-4.7
		c-0.4-1.4-0.8-2.8-1.4-4.1c-0.1-0.1-0.1-0.3-0.2-0.4c-0.4,0.1-0.9,0.2-1.3,0.3c0.7,1.3,1.2,2.9,1.6,4.3
		C785,336.2,785.7,339.2,785.8,342.2z"/>
	<path class="st68" d="M438.9,362c-0.2,3.5-3,6.3-6.4,6.3c-3.4,0-6-2.8-5.8-6.3c0.2-3.5,3-6.3,6.4-6.3
		C436.5,355.7,439.1,358.5,438.9,362z"/>
	<path class="st72" d="M437.4,361.7c-0.1,2.8-2.4,5.1-5.1,5.1c-2.7,0-4.8-2.3-4.7-5.1c0.1-2.8,2.4-5.1,5.1-5.1
		C435.5,356.6,437.5,358.9,437.4,361.7z"/>
	<path class="st73" d="M465.5,362.8c0-0.5-0.3-0.9-0.6-1.2c-0.3-0.2-0.7-0.4-0.9-0.7c-0.4-0.6,1.1-1.7,1.5-2
		c0.7-0.7,1.3-1.6,1.3-2.7c0-1.2-0.6-2.3-1.7-2.8c-0.7-0.4-1.4,0.7-0.7,1.1c0.9,0.5,1.3,1.6,0.8,2.5c-0.5,1.1-1.7,1.6-2.4,2.6
		c-0.4,0.6-0.5,1.3-0.1,1.9c0.3,0.4,0.7,0.7,1.1,1c0.1,0.1,0.3,0.2,0.3,0.3c0.1,0.2-0.2,0.5-0.3,0.7c-0.4,0.6-0.9,1.2-1.4,1.9
		c-0.1,0.2-0.1,0.5,0,0.7c0.2,0.4,0.6,0.7,1,1.1c0.3,0.3,0.4,0.7,0.2,1.2c-0.3,1-1.1,2-1.8,2.8c-0.5,0.6,0.4,1.6,0.9,0.9
		c0.9-1,1.8-2.2,2.2-3.5c0.2-0.6,0.1-1.3-0.2-1.8c-0.2-0.4-0.6-0.6-0.9-0.9c0.3-0.4,0.6-0.9,1-1.3
		C465.2,363.9,465.5,363.4,465.5,362.8z"/>
	<path class="st74" d="M717.2,377.5l0.2-0.9c0,0-0.1-0.1-0.3-0.4l-66,1.4l-2.1-17.3c-0.4,0-0.6,0-0.6,0l-0.1,2l0.7,8l1,8.5
		L717.2,377.5z"/>
	<g>
		<path class="st57" d="M576.1,308.5c0.1,0.2,1.3,30.6,2.4,32.2c0.9,1.4,4,2.8,11.8,2.8c7.1,0,11.3-1.3,11.9-2.4
			c0.7-1.3,1.9-32.6,1.9-32.6H576.1z"/>
		<path class="st8" d="M604.9,308.2c0,1.5-6.6,2.7-14.8,2.7c-8.2,0-14.8-1.2-14.8-2.7c0-0.1-0.1-2.3,0-2.4c1.1-1.3,7.4-0.3,14.8-0.3
			c7.5,0,13.9-1,14.8,0.3C605,305.9,604.9,308.1,604.9,308.2z"/>
		<ellipse class="st8" cx="590.1" cy="305.8" rx="14.8" ry="2.7"/>
		<path class="st8" d="M601.2,304.2c0,1.1-5,2-11.3,2c-6.2,0-11.3-0.9-11.3-2c0-1.1,5-2,11.3-2C596.2,302.3,601.2,303.2,601.2,304.2
			z"/>
		<ellipse class="st75" cx="593.5" cy="303.9" rx="4.1" ry="0.8"/>
		<path class="st76" d="M590.3,308.2c9,0,12.9-1,14.6-1.8c0-0.3,0-0.6,0-0.6c0-0.2-0.2-0.5-0.5-0.7c-1.2,0.6-4.7,1.7-14.1,1.7
			c-9.6,0-13.2-1.1-14.5-1.7c-0.4,0.2-0.6,0.5-0.6,0.8c0,0,0,0.3,0,0.5C576.9,307.1,580.8,308.2,590.3,308.2z"/>
		<path class="st77" d="M576.4,313.8c0,0,2.9,2.2,14.3,2.2s13.4-2.2,13.4-2.2l-1.2,20.6c0,0-1.7,2.8-12.7,2.8s-12.4-2.4-12.4-2.4
			L576.4,313.8z"/>
	</g>
	<path class="st12" d="M709.3,322.6c0,0.3,0,0.8,0,1.4c1.8,0.7,5.9,1.9,14.6,1.9c8,0,12.5-1.2,14.7-2.1c0-0.6-0.1-1.1-0.1-1.4
		c-1.8,0.8-6.2,2.2-14.6,2.2C714.2,324.7,710.4,323.2,709.3,322.6z"/>
	<path class="st12" d="M733.8,331c-0.1-1.9-3.1-1.9-2.9,0c0.1,1.9,0.2,3.8,0.1,5.7c-0.1,1.9,2.9,1.9,2.9,0
		C734,334.7,733.9,332.9,733.8,331z"/>
	<path class="st12" d="M734.1,342.7c0-0.2,0-0.3-0.1-0.5c0-0.2-0.1-0.4-0.3-0.5c-0.1-0.2-0.2-0.3-0.4-0.4c-0.2-0.1-0.3-0.2-0.5-0.2
		c-0.2,0-0.4,0-0.6,0c-0.4,0.1-0.7,0.3-0.9,0.7c0,0.1-0.1,0.2-0.1,0.3c-0.1,0.3-0.1,0.5,0,0.8c0,0.2,0,0.3,0.1,0.5
		c0,0.2,0.1,0.4,0.3,0.5c0.1,0.2,0.2,0.3,0.4,0.4c0.2,0.1,0.3,0.2,0.5,0.2c0.2,0,0.4,0,0.6,0c0.4-0.1,0.7-0.3,0.9-0.7
		c0-0.1,0.1-0.2,0.1-0.3C734.2,343.3,734.2,343,734.1,342.7z"/>
	<path class="st56" d="M802.8,370c0.4-0.1,0.9-0.1,1.4-0.2c0.2-0.8,0.3-1.7,0.4-2.5c0.2-2.4,0.1-4.9-0.1-7.3
		c-0.4-4.5-0.9-9.1-2.7-13.3c-0.9-2.1-2-4.1-3.6-5.8c-0.4,0.1-0.9,0.2-1.3,0.3c0,0.1,0.1,0.3,0.2,0.4c2.8,3.1,4.3,7,5.1,11
		c0.4,2.2,0.7,4.4,0.9,6.6c0.2,2.3,0.4,4.6,0.3,6.9C803.2,367.4,803.1,368.8,802.8,370z"/>
	<path class="st78" d="M809.4,176.8c-0.1,0-0.2,0-0.3,0c-0.1,0-0.2,0-0.3-0.1c-0.7-0.2-1.4,0.2-1.6,0.9c-0.2,0.7,0.2,1.4,0.9,1.6
		c0.4,0.1,0.9,0.2,1.3,0.2c0.7,0,1.3-0.6,1.3-1.3C810.6,177.4,810.1,176.8,809.4,176.8z"/>
	<path class="st78" d="M839.8,177.8c-0.2-0.7-0.9-1.1-1.6-0.9c-0.1,0-0.2,0.1-0.4,0.1c0,0-0.1,0-0.1,0c0,0,0,0-0.1,0
		c-0.3,0-0.5,0-0.8,0c-0.7,0-1.3,0.6-1.3,1.3c0,0.7,0.6,1.3,1.3,1.3c0.7,0,1.4-0.1,2-0.2C839.5,179.2,840,178.5,839.8,177.8z"/>
	<path class="st78" d="M822.8,176.6c-1.2-0.2-2.3-0.2-3.4-0.1c-0.7,0.1-1.3,0.5-1.3,1.3c0,0.6,0.6,1.4,1.3,1.3
		c0.9-0.1,1.8-0.1,2.8,0c0.7,0.1,1.4-0.2,1.6-0.9C823.9,177.6,823.5,176.7,822.8,176.6z"/>
	<path class="st56" d="M880,235.7c-1.9-3.1-5.2-5.2-8.8-5.7c-4.2-0.7-8.5,0.5-12.1,2.6c-2,1.2-3.8,2.6-5.6,4.2
		c-0.6,0.6,0.3,1.5,0.9,0.9c2.8-2.6,6-4.8,9.7-5.9c3.5-1,7.4-1,10.7,0.8c1.6,0.9,3,2.2,4,3.8C879.3,237.1,880.5,236.4,880,235.7z"/>
	<path class="st56" d="M873,250.8c-0.3-0.1-0.7-0.1-0.9,0.2c-0.2,0.3-0.1,0.7,0.2,0.9c0.6,0.3,1.3,0.6,1.8,1c0.4,0.2,1,0.7,0.8,1.2
		c-0.1,0.4-0.7,0.5-1,0.6c-0.6,0.1-1.3,0.1-1.9,0.1c-1.3,0-2.8,0-4,0.5c-0.6,0.2-1.1,0.7-1.1,1.4c0,0.7,0.5,1.1,1,1.5
		c0.6,0.4,1.3,0.8,2,1.1c0.2,0.1,0.5,0.2,0.7,0.5c0,0.1,0.1,0.3,0,0.3c-0.7,0.4-0.1,1.6,0.7,1.1c0.6-0.3,0.8-1,0.6-1.6
		c-0.1-0.7-0.7-1.1-1.3-1.4c-0.7-0.3-1.4-0.7-2-1.1c-0.1-0.1-0.6-0.3-0.5-0.5c0-0.1,0.6-0.2,0.7-0.3c1.5-0.4,3-0.2,4.5-0.3
		c1.2-0.1,2.7-0.5,2.8-2C876.5,252.3,874.4,251.4,873,250.8z"/>
	<path class="st78" d="M733.8,362.7c-0.7-1.8-2.4-2.4-4.1-2.5c0-0.8-0.4-1.6-0.9-2.3c-0.9-0.9-2.1-1.3-3.3-1.4c-0.3,0-0.6,0-0.9,0
		c-0.1,0-0.2,0-0.3,0c0,0,0-0.1,0-0.1c0-0.1,0.1-0.3,0.1-0.4c0.1-0.3,0.1-0.7,0-1c-0.3-1.2-1.6-1.7-2.6-2.1
		c-1.3-0.5-2.8-0.6-4.1,0.1c-0.8,0.4-0.1,1.5,0.7,1.1c1.2-0.6,2.6-0.2,3.8,0.3c0.5,0.2,1.1,0.5,1.1,1.1c0,0.6-0.6,1.2,0,1.8
		c0.4,0.5,1,0.5,1.6,0.5c0.7,0,1.4,0.1,2,0.3c1,0.3,2,1.4,1.7,2.5c-0.1,0.4,0.2,0.8,0.6,0.8c1.3,0,3.1,0.2,3.6,1.6
		C732.8,363.8,734.1,363.5,733.8,362.7z"/>
	<path class="st79" d="M375.6,174.5c-0.9-0.3-2-0.3-2.9,0c-0.6,0.2-1,0.8-0.8,1.4c0.2,0.6,0.8,1,1.4,0.8c0.6-0.2,1.1-0.2,1.7,0
		c0.6,0.2,1.2-0.2,1.4-0.8C376.6,175.3,376.2,174.7,375.6,174.5z"/>
	<path class="st79" d="M355.5,171.4c-0.3,0-0.6,0-1,0c-0.6,0-1.2,0.6-1.1,1.1c0,0.7,0.5,1.1,1.1,1.1c0.3,0,0.6,0,1,0
		c0.6,0,1.2-0.5,1.1-1.1C356.6,171.9,356.1,171.4,355.5,171.4z"/>
	<path class="st79" d="M383.5,171.3c-0.5,0-1,0-1.5,0.1c-0.3,0-0.6,0.3-0.7,0.5c-0.1,0.2-0.2,0.6-0.1,0.9c0.2,0.6,0.8,0.9,1.4,0.8
		c-0.3,0,0,0,0.1,0c0.1,0,0.2,0,0.3,0c0.2,0,0.4,0,0.6,0c0.6,0,1.2-0.5,1.1-1.1C384.6,171.8,384.2,171.4,383.5,171.3z"/>
	<path class="st12" d="M511.2,271.6c-0.1-0.2-0.1-0.3-0.3-0.4c-0.1-0.1-0.3-0.1-0.5-0.1c-0.7,0.2-1.3,0.6-1.8,1.1
		c-0.1,0.1-0.2,0.3-0.2,0.5c0,0.2,0.1,0.4,0.2,0.5c0.1,0.1,0.3,0.2,0.5,0.2c0.2,0,0.3-0.1,0.5-0.2c0.1-0.1,0.2-0.2,0.4-0.3
		c0.2-0.2,0.5-0.3,0.7-0.4c0,0,0,0,0.1,0c0.2-0.1,0.3-0.1,0.4-0.3C511.3,272,511.3,271.8,511.2,271.6z"/>
	<path class="st12" d="M508.7,274.6c0-0.1-0.1-0.2-0.1-0.2c0-0.1-0.1-0.1-0.2-0.2c-0.1,0-0.1,0-0.2-0.1c-0.1,0-0.2,0-0.3,0l-0.2,0.1
		c-0.1,0.1-0.2,0.1-0.2,0.2c0,0-0.1,0.1-0.1,0.1c0,0.1-0.1,0.2-0.1,0.2c0,0.1,0,0.2,0,0.3c0,0.1,0.1,0.2,0.1,0.2
		c0,0.1,0.1,0.1,0.2,0.2l0.2,0.1c0.1,0,0.2,0,0.3,0c0.1,0,0.1,0,0.2-0.1c0.1-0.1,0.2-0.1,0.2-0.2c0,0,0.1-0.1,0.1-0.1
		c0-0.1,0.1-0.2,0.1-0.2C508.7,274.7,508.7,274.6,508.7,274.6z"/>
	<path class="st12" d="M679,261.2c-0.4,0-0.6,0.3-0.7,0.7c-0.1,0.9-0.1,1.9-0.1,2.8c0,0.3,0.3,0.7,0.7,0.7c0.4,0,0.7-0.3,0.7-0.7
		c0-0.9,0-1.9,0.1-2.8C679.7,261.6,679.3,261.2,679,261.2z"/>
	<path class="st12" d="M684.9,259.9c0-0.1-0.1-0.2-0.2-0.3c0,0-0.1-0.1-0.1-0.1c-0.1-0.1-0.2-0.1-0.3-0.1c-0.2,0-0.4,0-0.6,0
		c-0.1,0-0.2,0-0.3,0.1c-0.1,0-0.2,0.1-0.2,0.1c-0.1,0.1-0.1,0.1-0.1,0.2c0,0.1-0.1,0.2-0.1,0.3c0,0.1,0,0.1,0,0.2
		c0,0.1,0.1,0.2,0.2,0.3c0,0,0.1,0.1,0.1,0.1c0.1,0.1,0.2,0.1,0.3,0.1c0.2,0,0.4,0,0.6,0c0.1,0,0.2,0,0.3-0.1c0.1,0,0.2-0.1,0.2-0.1
		c0.1-0.1,0.1-0.1,0.1-0.2c0-0.1,0.1-0.2,0.1-0.3C684.9,260,684.9,259.9,684.9,259.9z"/>
</g>
</svg>
