<?xml version="1.0" encoding="utf-8"?>
<!-- Generator: Adobe Illustrator 28.2.0, SVG Export Plug-In . SVG Version: 6.00 Build 0)  -->
<svg version="1.1" id="Layer_1" xmlns="http://www.w3.org/2000/svg" xmlns:xlink="http://www.w3.org/1999/xlink" x="0px" y="0px"
	 viewBox="0 0 550 550" style="enable-background:new 0 0 550 550;" xml:space="preserve">
<style type="text/css">
	.st0{fill:#ECECEC;}
	.st1{fill:#F5F5F5;}
	.st2{fill:#E1E1E1;}
	.st3{fill:#FF735D;}
	.st4{fill:#1A2E35;}
	.st5{opacity:0.2;}
	.st6{fill:#FFFFFF;}
	.st7{fill:#375A64;}
	.st8{fill:#FFBF9D;}
	.st9{fill:#FF9A6C;}
	.st10{opacity:0.3;}
	.st11{fill:#C17560;}
	.st12{fill:#7C4236;}
</style>
<g>
	<g>
		<g>
			<g>
				<g>
					<g>
						<g>
							<rect x="33.1" y="442.2" class="st0" width="19.9" height="46"/>
						</g>
					</g>
				</g>
				<g>
					<g>
						<g>
							<rect x="100.7" y="442.2" class="st0" width="19.9" height="46"/>
						</g>
					</g>
				</g>
				<g>
					<g>
						<g>
							<rect x="66.9" y="400.4" class="st1" width="19.9" height="87.8"/>
						</g>
					</g>
				</g>
				<g>
					<g>
						<g>
							<rect x="134.6" y="400.4" class="st1" width="19.9" height="87.8"/>
						</g>
					</g>
				</g>
				<g>
					<g>
						<g>
							<rect x="168.4" y="402.9" class="st0" width="19.9" height="85.3"/>
						</g>
					</g>
				</g>
				<g>
					<g>
						<g>
							<rect x="236.1" y="402.9" class="st0" width="19.9" height="85.3"/>
						</g>
					</g>
				</g>
				<g>
					<g>
						<g>
							<rect x="303.8" y="402.9" class="st0" width="19.9" height="85.3"/>
						</g>
					</g>
				</g>
				<g>
					<g>
						<g>
							<rect x="202.3" y="358.1" class="st1" width="19.9" height="130.1"/>
						</g>
					</g>
				</g>
				<g>
					<g>
						<g>
							<rect x="270" y="370.8" class="st1" width="19.9" height="117.4"/>
						</g>
					</g>
				</g>
				<g>
					<g>
						<g>
							<rect x="403.8" y="402.9" class="st0" width="19.9" height="85.3"/>
						</g>
					</g>
				</g>
				<g>
					<g>
						<g>
							<rect x="370" y="419.3" class="st1" width="19.9" height="68.9"/>
						</g>
					</g>
				</g>
				<g>
					<g>
						<g>
							<rect x="474.6" y="357.3" class="st0" width="19.9" height="130.8"/>
						</g>
					</g>
				</g>
				<g>
					<g>
						<g>
							<rect x="440.8" y="419.3" class="st1" width="19.9" height="68.9"/>
						</g>
					</g>
				</g>
				<g>
					<g>
						<g>
							<rect x="508.5" y="419.3" class="st1" width="19.9" height="68.9"/>
						</g>
					</g>
				</g>
				<g>
					<g>
						<g>
							<rect x="337.7" y="388.8" class="st0" width="19.9" height="99.4"/>
						</g>
					</g>
				</g>
				<g>
					<g>
						<g>
							<path class="st2" d="M215.8,358.1c0,2.8-2.3,5.1-5.1,5.1c-2.8,0-5.1-2.3-5.1-5.1c0-2.8,2.3-5.1,5.1-5.1
								C213.5,353,215.8,355.3,215.8,358.1z"/>
						</g>
					</g>
				</g>
				<g>
					<g>
						<g>
							<path class="st2" d="M210.6,367.4c-5.1,0-9.3-4.2-9.3-9.3c0-5.1,4.2-9.3,9.3-9.3c5.1,0,9.3,4.2,9.3,9.3
								C219.9,363.2,215.8,367.4,210.6,367.4z M210.6,349.5c-4.7,0-8.6,3.8-8.6,8.6c0,4.7,3.8,8.6,8.6,8.6c4.7,0,8.6-3.8,8.6-8.6
								C219.2,353.4,215.4,349.5,210.6,349.5z"/>
						</g>
					</g>
				</g>
				<g>
					<g>
						<g>
							<polygon class="st0" points="214.7,345 214.5,334.9 217,335 212.3,329.2 207.6,335 210.2,335 210.4,345 							"/>
						</g>
					</g>
				</g>
				<g>
					<g>
						<g>
							<path class="st2" d="M48.7,421.2c0,2.8-2.3,5.1-5.1,5.1c-2.8,0-5.1-2.3-5.1-5.1c0-2.8,2.3-5.1,5.1-5.1
								C46.4,416.1,48.7,418.4,48.7,421.2z"/>
						</g>
					</g>
				</g>
				<g>
					<g>
						<g>
							<path class="st2" d="M43.6,430.7c-5.1,0-9.3-4.2-9.3-9.3c0-5.1,4.2-9.3,9.3-9.3c5.1,0,9.3,4.2,9.3,9.3
								C52.9,426.5,48.7,430.7,43.6,430.7z M43.6,412.8c-4.7,0-8.6,3.8-8.6,8.6c0,4.7,3.8,8.6,8.6,8.6c4.7,0,8.6-3.8,8.6-8.6
								C52.1,416.7,48.3,412.8,43.6,412.8z"/>
						</g>
					</g>
				</g>
				<g>
					<g>
						<g>
							<polygon class="st0" points="40.5,389.4 40.8,399.9 38.1,399.9 43,405.8 47.9,399.8 45.2,399.8 44.9,389.4 							"/>
						</g>
					</g>
				</g>
				<g>
					<g>
						<g>
							<polygon class="st0" points="312,367.4 312.3,377.9 309.7,377.9 314.6,383.9 319.4,377.8 316.7,377.8 316.5,367.5 							"/>
						</g>
					</g>
				</g>
			</g>
			<g>
				<path class="st2" d="M373.8,460.5l-60.1-56.4c-38.1-18.4-96.9-45.5-103.7-45.1c-7.7,0.5-153.4,57.9-208.9,80L0,436.3
					c8.2-3.3,200.1-79.7,209.8-80.2c0.1,0,0.1,0,0.2,0c10.7,0,95.5,40.8,105.2,45.5l0.4,0.3l58.7,55.1c11.1-5.9,75-39.6,76.1-40.1
					c0.4-0.2,1.4-0.6,89.2-0.6v3c-33.7,0-84.3,0.1-88.2,0.4c-3.3,1.7-51.3,27-76.7,40.4L373.8,460.5z"/>
			</g>
		</g>
		<g>
			<g>
				<g>
					<path class="st2" d="M319.7,401.6c0,2.8-2.3,5.1-5.1,5.1c-2.8,0-5.1-2.3-5.1-5.1c0-2.8,2.3-5.1,5.1-5.1
						C317.4,396.5,319.7,398.8,319.7,401.6z"/>
				</g>
			</g>
		</g>
		<g>
			<g>
				<g>
					<path class="st2" d="M314.6,411.1c-5.1,0-9.3-4.2-9.3-9.3c0-5.1,4.2-9.3,9.3-9.3c5.1,0,9.3,4.2,9.3,9.3
						C323.9,407,319.7,411.1,314.6,411.1z M314.6,393.2c-4.7,0-8.6,3.8-8.6,8.6c0,4.7,3.8,8.6,8.6,8.6c4.7,0,8.6-3.8,8.6-8.6
						C323.1,397.1,319.3,393.2,314.6,393.2z"/>
				</g>
			</g>
		</g>
		<g>
			<g>
				<g>
					<path class="st2" d="M456.1,416.9c0,2.8-2.3,5.1-5.1,5.1c-2.8,0-5.1-2.3-5.1-5.1c0-2.8,2.3-5.1,5.1-5.1
						C453.8,411.8,456.1,414.1,456.1,416.9z"/>
				</g>
			</g>
		</g>
		<g>
			<g>
				<g>
					<path class="st2" d="M451,426.4c-5.1,0-9.3-4.2-9.3-9.3c0-5.1,4.2-9.3,9.3-9.3c5.1,0,9.3,4.2,9.3,9.3
						C460.3,422.3,456.1,426.4,451,426.4z M451,408.5c-4.7,0-8.6,3.8-8.6,8.6c0,4.7,3.8,8.6,8.6,8.6c4.7,0,8.6-3.8,8.6-8.6
						C459.5,412.4,455.7,408.5,451,408.5z"/>
				</g>
			</g>
		</g>
		<g>
			<g>
				<g>
					<polygon class="st0" points="448.2,386.4 448.5,396.9 445.9,396.9 450.8,402.9 455.7,396.8 452.9,396.8 452.7,386.5 					"/>
				</g>
			</g>
		</g>
	</g>
	<g>
		<g>
			<path class="st1" d="M457.3,289.7c-0.4-24.9,19.4-45.4,44.2-45.8c24.8-0.4,45.2,19.5,45.6,44.4c0.4,24.9-19.4,45.4-44.2,45.8
				C478.2,334.4,457.7,314.5,457.3,289.7z M523.7,288.6c-0.2-11.9-10-21.4-21.8-21.2c-11.8,0.2-21.3,10-21.1,21.9
				c0.2,11.9,10,21.4,21.8,21.2C514.4,310.3,523.9,300.5,523.7,288.6z"/>
		</g>
		<g>
			<path class="st2" d="M457.3,289.7c-0.4-24.9,19.4-45.4,44.2-45.8l0.4,23.5c-11.8,0.2-21.3,10-21.1,21.9
				c0.2,11.9,10,21.4,21.8,21.2l0.4,23.5C478.2,334.4,457.7,314.5,457.3,289.7z"/>
		</g>
		<g>
			<path class="st0" d="M497.5,240.2c29-0.5,52.1,22,52.5,51.1l-27.4,0.4c-0.2-13.9-10.8-22.7-24.7-22.4L497.5,240.2z"/>
		</g>
	</g>
	<g>
		<rect x="108.7" y="26.4" class="st0" width="20.2" height="63.2"/>
		<rect x="138.9" y="40.8" class="st0" width="20.2" height="48.7"/>
		<rect x="166.9" y="60.6" class="st0" width="20.2" height="28.9"/>
	</g>
	<g>
		<g>
			<path class="st0" d="M360.9,64.6V29.2c19.4,0,35.4,16,35.4,35.4c0,19.4-16,35.4-35.4,35.4c-19.1,0-35-15.5-35.4-34.6L360.9,64.6z
				"/>
		</g>
		<g>
			<path class="st1" d="M354.3,51.3l-35.4,0.8c0-9.2,3.6-18.9,10-25.5c6.4-6.6,15.6-10.5,24.8-10.7L354.3,51.3z"/>
		</g>
	</g>
	<g>
		<g>
			<g>
				<path class="st1" d="M42.9,261.3l24.8-19.6c10.8,13.6,8.5,33.7-5.1,44.4c-13.6,10.8-33.7,8.5-44.4-5.1
					c-10.8-13.6-8.5-33.7,5.1-44.4c2.2-1.7,4.5-3.1,7.1-4.2L42.9,261.3z"/>
			</g>
		</g>
		<g>
			<g>
				<path class="st2" d="M36.1,229.1l8.7,22.9l18.4-15.7C63.3,236.4,53.5,226.3,36.1,229.1z"/>
			</g>
		</g>
	</g>
	<g>
		<g>
			<g>
				<g>
					<g>
						<path class="st3" d="M62.9,103.6c-4.8-11.1-17.7-16.1-28.8-11.3C23,97.2,18,110.1,22.8,121.1c3.5,8,11.2,12.9,19.4,13.1
							c1,2.4,2.2,5.1,2.2,5.1l17.6-7.7c0,0-1.1-2.9-2.2-5.4C64.8,120.1,66.3,111.4,62.9,103.6z"/>
					</g>
				</g>
			</g>
			<g>
				<g>
					<g>
						<g>
							<path class="st4" d="M55.6,134.3c0,0,0-0.1-0.1-0.3c-0.1-0.2-0.1-0.4-0.2-0.8c-0.2-0.7-0.5-1.7-0.8-2.9
								c-0.3-1.3-0.8-2.9-1.1-4.7c-0.3-1.9-0.6-4-0.6-6.4c0-1.2,0.1-2.4,0.3-3.7c0.1-0.6,0.4-1.3,0.8-1.8c0.5-0.5,1.2-0.9,1.9-0.8
								c0.4,0,0.7,0.2,1,0.5c0.3,0.3,0.4,0.7,0.4,1.1c0,0.8-0.4,1.5-1,2c-1.1,1-2.7,1.6-4.3,1.5c-1.6-0.1-3.2-0.8-4.3-2.1
								c-0.5-0.6-1-1.4-1.1-2.3c-0.2-0.9,0.3-1.9,1.2-2.2c0.4-0.2,1,0,1.3,0.3c0.4,0.3,0.6,0.7,0.7,1.2c0.2,0.9-0.2,1.8-0.5,2.6
								c-0.8,1.6-2.3,2.9-4.1,3.4c-1.8,0.5-3.8,0-5.1-1.2c-0.7-0.6-1.2-1.5-1.2-2.4c0-0.5,0.1-0.9,0.5-1.3c0.3-0.3,0.8-0.5,1.3-0.4
								c0.5,0,0.9,0.2,1.2,0.5c0.3,0.3,0.6,0.6,0.8,1c0.4,0.8,0.6,1.6,0.7,2.4c0.1,1.7-0.4,3.3-1.4,4.6c-1,1.3-2.4,2.1-3.9,2.4
								c-0.7,0.1-1.5,0.2-2.2-0.2c-0.7-0.3-1.2-1.1-1-1.9c0.1-0.4,0.4-0.7,0.7-0.8c0.3-0.2,0.7-0.2,1-0.2c0.7,0,1.3,0.4,1.8,0.8
								c1,0.9,1.8,1.7,2.7,2.6c3.4,3.3,6,6.2,7.7,8.2c0.9,1,1.6,1.8,2,2.3c0.2,0.3,0.4,0.5,0.5,0.6c0.1,0.1,0.2,0.2,0.2,0.2
								s-0.1-0.1-0.2-0.2c-0.1-0.1-0.3-0.3-0.5-0.6c-0.5-0.5-1.2-1.3-2.1-2.3c-1.8-2-4.4-4.8-7.8-8.1c-0.8-0.8-1.7-1.7-2.7-2.6
								c-0.5-0.4-1.1-0.8-1.7-0.8c-0.6,0-1.3,0.3-1.5,0.9c-0.2,0.6,0.2,1.3,0.8,1.6c0.6,0.3,1.4,0.3,2.1,0.1
								c1.4-0.3,2.8-1.1,3.8-2.3c1-1.2,1.4-2.8,1.3-4.4c-0.1-0.8-0.3-1.6-0.7-2.3c-0.4-0.7-1-1.3-1.8-1.4c-0.4,0-0.8,0.1-1.1,0.4
								c-0.3,0.3-0.4,0.7-0.4,1.1c0,0.8,0.5,1.6,1.1,2.2c1.3,1.1,3.2,1.6,4.9,1.1c1.7-0.4,3.1-1.7,3.9-3.3c0.4-0.8,0.7-1.6,0.5-2.4
								c-0.1-0.4-0.3-0.8-0.6-1c-0.3-0.2-0.7-0.3-1.1-0.2c-0.4,0.1-0.7,0.4-0.9,0.8c-0.2,0.3-0.2,0.8-0.2,1.1
								c0.1,0.8,0.6,1.5,1.1,2.1c1,1.2,2.6,2,4.1,2c1.5,0.1,3.1-0.5,4.1-1.4c0.5-0.5,0.9-1.2,0.9-1.8c0-0.7-0.5-1.3-1.1-1.4
								c-0.7-0.1-1.3,0.2-1.7,0.7c-0.4,0.5-0.7,1.1-0.8,1.7c-0.2,1.3-0.3,2.5-0.4,3.7c0,2.4,0.2,4.5,0.6,6.3
								c0.3,1.9,0.7,3.4,1.1,4.7c0.3,1.3,0.6,2.3,0.8,2.9c0.1,0.3,0.2,0.6,0.2,0.8C55.6,134.3,55.6,134.3,55.6,134.3z"/>
						</g>
					</g>
				</g>
			</g>
			<g>
				<g>
					<g>
						<path class="st4" d="M62.1,135.5L47,142.1c-0.6,0.3-1.4,0-1.6-0.6l0,0c-0.3-0.6,0-1.4,0.6-1.6l15.1-6.6c0.6-0.3,1.4,0,1.6,0.6
							l0,0C63,134.5,62.7,135.2,62.1,135.5z"/>
					</g>
				</g>
			</g>
			<g>
				<g>
					<g>
						<path class="st4" d="M62.5,136.5l-15.1,6.6c-0.6,0.3-0.9,1-0.6,1.6c0.3,0.6,1,0.9,1.6,0.6l1.7-0.7l4,3.2
							c0.5,0.4,1.1,0.5,1.6,0.2l5.4-2.4c0.5-0.2,0.9-0.8,0.9-1.4l0.3-5.1l1.1-0.5c0.6-0.3,0.9-1,0.6-1.6
							C63.9,136.5,63.2,136.2,62.5,136.5z"/>
					</g>
				</g>
			</g>
		</g>
		<g class="st5">
			<g>
				<g>
					<g>
						<path class="st6" d="M24.4,105.2c0.8-1.8,1.8-3.3,2.9-4.4c1-1.1,2-1.8,2.7-2.2c0.7-0.4,1.2-0.5,1.3-0.4c0.2,0.3-1,1.5-2.5,3.8
							c-1.5,2.2-3,5.7-3.1,9.7c-0.1,4,1.3,7.5,2.6,9.8c1.3,2.3,2.6,3.6,2.3,3.9c-0.1,0.1-0.6,0-1.3-0.4c-0.7-0.4-1.6-1.2-2.6-2.4
							c-1-1.1-1.9-2.7-2.6-4.6c-0.7-1.9-1.2-4.1-1.1-6.4"/>
					</g>
				</g>
			</g>
		</g>
		<g class="st5">
			<g>
				<g>
					<g>
						<path class="st6" d="M36.4,96.9c-1.3,0.5-2.6,0.7-3,0.1c-0.2-0.3-0.1-0.8,0.2-1.2c0.3-0.5,0.9-1,1.7-1.3
							c0.8-0.3,1.5-0.4,2.1-0.3c0.6,0.1,1,0.3,1.1,0.7"/>
					</g>
				</g>
			</g>
		</g>
		<g>
			<g>
				<g>
					<g>
						<path class="st7" d="M62,144.8c0,0-0.5,0-1.2,0.1c-0.7,0.1-1.7,0.3-2.7,0.8c-1,0.5-1.8,1.1-2.3,1.6c-0.5,0.5-0.8,0.9-0.9,0.8
							c0,0,0.2-0.4,0.7-1c0.5-0.5,1.3-1.2,2.4-1.7c1-0.5,2.1-0.7,2.8-0.7C61.5,144.7,62,144.8,62,144.8z"/>
					</g>
				</g>
			</g>
		</g>
		<g>
			<g>
				<g>
					<g>
						<path class="st7" d="M62.4,139.3c0,0.1-2.7,1.3-6,2.8c-3.4,1.5-6.1,2.6-6.1,2.5c0-0.1,2.7-1.3,6-2.8
							C59.7,140.4,62.4,139.2,62.4,139.3z"/>
					</g>
				</g>
			</g>
		</g>
		<g>
			<g>
				<g>
					<g>
						<path class="st7" d="M62.3,141.5c0,0-0.5,0.3-1.4,0.8c-0.9,0.5-2.1,1.1-3.5,1.7c-1.4,0.6-2.7,1.2-3.6,1.5
							c-0.9,0.4-1.5,0.6-1.5,0.5c0,0,0.5-0.3,1.5-0.7c1-0.4,2.2-1,3.6-1.6c1.4-0.6,2.6-1.2,3.6-1.6
							C61.7,141.7,62.3,141.5,62.3,141.5z"/>
					</g>
				</g>
			</g>
		</g>
	</g>
	<g>
		<g>
			<g>
				<g>
					<g>
						<g>
							<path class="st6" d="M321.1,337.7h-88.7c-3.4,0-6.1-2.8-6.1-6.1v-54.3c0-3.4,2.8-6.1,6.1-6.1h88.7c3.4,0,6.1,2.8,6.1,6.1
								v54.3C327.2,334.9,324.5,337.7,321.1,337.7z"/>
						</g>
					</g>
					<g>
						<g>
							<g>
								<path class="st4" d="M321.1,337.7c0,0,0.3,0,0.8-0.1c0.5-0.1,1.4-0.3,2.3-0.8c0.9-0.5,1.9-1.5,2.5-3
									c0.6-1.5,0.4-3.3,0.4-5.4c0-8.2,0-20.1-0.1-34.8c0-3.7,0-7.5,0-11.5c0-1,0-2,0-3c0-1,0.1-2.1-0.1-3c-0.4-2-1.9-3.7-3.9-4.4
									c-1-0.4-2-0.3-3.2-0.3c-1.1,0-2.2,0-3.3,0c-2.2,0-4.5,0-6.8,0c-4.6,0-9.3,0-14.2,0c-19.4,0-40.8,0-63.2,0
									c-1.3,0-2.7,0.5-3.7,1.3c-1,0.8-1.8,2-2,3.3c-0.1,0.6-0.1,1.3-0.1,2l0,2.1c0,1.4,0,2.7,0,4.1c0,5.5,0,10.8,0,16.1
									c0,10.6,0,20.8,0,30.5c0,1.2,0.1,2.4,0.6,3.4c0.5,1,1.3,1.9,2.3,2.5c1,0.6,2.1,0.8,3.3,0.8c1.2,0,2.3,0,3.5,0
									c4.6,0,9.1,0,13.4,0c8.6,0,16.7,0,24,0c14.7,0,26.6,0.1,34.8,0.1c4.1,0,7.3,0,9.5,0.1c1.1,0,1.9,0,2.5,0
									C320.8,337.6,321.1,337.7,321.1,337.7s-0.3,0-0.8,0c-0.6,0-1.4,0-2.5,0c-2.2,0-5.4,0-9.5,0.1c-8.2,0-20.1,0-34.8,0.1
									c-7.3,0-15.4,0-24,0c-4.3,0-8.8,0-13.4,0c-1.2,0-2.3,0-3.5,0c-1.2,0-2.4-0.2-3.5-0.9c-1.1-0.6-2-1.6-2.5-2.7
									c-0.6-1.1-0.7-2.4-0.7-3.6c0-9.7,0-19.9,0-30.5c0-5.3,0-10.7,0-16.1c0-1.4,0-2.7,0-4.1l0-2.1c0-0.7,0-1.4,0.1-2.1
									c0.3-1.4,1.1-2.7,2.2-3.6c1.1-0.9,2.6-1.4,4-1.4c22.4,0,43.8,0,63.2,0c4.9,0,9.6,0,14.2,0c2.3,0,4.6,0,6.8,0
									c1.1,0,2.2,0,3.3,0c1.1,0,2.2-0.1,3.3,0.4c2.1,0.7,3.7,2.6,4.2,4.7c0.2,1.1,0.1,2.1,0.1,3.1c0,1,0,2,0,3c0,4,0,7.9,0,11.5
									c0,14.7-0.1,26.6-0.1,34.8c0,1,0,2,0,2.9c0,0.9-0.2,1.8-0.5,2.5c-0.6,1.5-1.7,2.5-2.6,3c-0.9,0.6-1.8,0.7-2.3,0.8
									C321.4,337.7,321.1,337.7,321.1,337.7z"/>
							</g>
						</g>
					</g>
				</g>
				<g>
					<g>
						<g>
							<g>
								<g>
									<g>
										<g>
											<g>
												<g>
													<rect x="271.5" y="309.7" class="st3" width="3.9" height="15.4"/>
												</g>
											</g>
										</g>
									</g>
								</g>
								<g>
									<g>
										<g>
											<g>
												<g>
													<rect x="239.1" y="307.5" class="st3" width="3.9" height="17.7"/>
												</g>
											</g>
										</g>
									</g>
								</g>
								<g>
									<g>
										<g>
											<g>
												<g>
													<rect x="247.2" y="303.8" class="st3" width="3.9" height="21.3"/>
												</g>
											</g>
										</g>
									</g>
								</g>
								<g>
									<g>
										<g>
											<g>
												<g>
													<rect x="255.3" y="305" class="st3" width="3.9" height="20.2"/>
												</g>
											</g>
										</g>
									</g>
								</g>
								<g>
									<g>
										<g>
											<g>
												<g>
													<rect x="263.4" y="298.2" class="st3" width="3.9" height="27"/>
												</g>
											</g>
										</g>
									</g>
								</g>
								<g>
									<g>
										<g>
											<g>
												<g>
													<rect x="279.6" y="298.3" class="st3" width="3.9" height="26.9"/>
												</g>
											</g>
										</g>
									</g>
								</g>
								<g>
									<g>
										<g>
											<g>
												<g>
													<rect x="287.7" y="307.1" class="st3" width="3.9" height="18"/>
												</g>
											</g>
										</g>
									</g>
								</g>
								<g>
									<g>
										<g>
											<g>
												<g>
													<rect x="295.8" y="299.5" class="st3" width="3.9" height="25.7"/>
												</g>
											</g>
										</g>
									</g>
								</g>
								<g>
									<g>
										<g>
											<g>
												<g>
													<rect x="303.9" y="293.7" class="st3" width="3.9" height="31.5"/>
												</g>
											</g>
										</g>
									</g>
								</g>
								<g>
									<g>
										<g>
											<g>
												<g>
													<rect x="312" y="299.3" class="st3" width="3.9" height="25.8"/>
												</g>
											</g>
										</g>
									</g>
								</g>
							</g>
						</g>
					</g>
				</g>
			</g>
		</g>
		<g>
			<g>
				<path class="st4" d="M267.9,284.1c0,0.2-6.9,0.3-15.4,0.3c-8.5,0-15.4-0.1-15.4-0.3s6.9-0.3,15.4-0.3
					C261,283.8,267.9,284,267.9,284.1z"/>
			</g>
		</g>
	</g>
	<g>
		<g>
			<g>
				<path class="st6" d="M483.2,76.9h48.5c2.5,0,4.4,2,4.4,4.4v48.5c0,2.5-2,4.4-4.4,4.4h-33.6l-13.5,11.1v-11.1h-1.5
					c-2.5,0-4.4-2-4.4-4.4V81.4C478.8,78.9,480.7,76.9,483.2,76.9z"/>
			</g>
		</g>
		<g>
			<g>
				<g>
					<path class="st3" d="M478.8,95h57.4V81.6c0-2.6-2.1-4.7-4.7-4.7h-48.1c-2.6,0-4.6,2.1-4.6,4.6V95z"/>
				</g>
			</g>
			<g>
				<g>
					<path class="st4" d="M503.7,102.4v19.5h-4.5V106h-3.9v-3.6H503.7z"/>
				</g>
				<g>
					<path class="st4" d="M522.3,102.4v2.9l-7.2,16.6h-4.9l7-15.8h-6.5v3.2h-4v-6.9H522.3z"/>
				</g>
			</g>
			<g>
				<g>
					<g>
						<path class="st4" d="M499.4,87.2c0,0.1,3.9,0.2,8.8,0.2c4.9,0,8.8-0.1,8.8-0.2c0-0.1-3.9-0.2-8.8-0.2
							C503.4,87,499.4,87.1,499.4,87.2z"/>
					</g>
				</g>
			</g>
		</g>
		<g>
			<g>
				<g>
					<path class="st4" d="M483.2,76.9c0,0-0.1,0-0.3,0c-0.2,0-0.5,0-0.9,0.1c-0.7,0.2-1.9,0.7-2.7,2c-0.4,0.6-0.6,1.5-0.6,2.4
						c0,0.9,0,1.9,0,3c0,2.2,0,4.7,0,7.5c0,5.6,0,12.4,0,20.2c0,3.9,0,8,0,12.4c0,1.1,0,2.2,0,3.3c0,0.6,0,1.1,0,1.7
						c0,0.6,0,1.2,0.2,1.7c0.4,1.1,1.2,2.1,2.3,2.6c0.5,0.3,1.1,0.4,1.7,0.5c0.6,0,1.2,0,1.8,0l-0.2-0.2c0,3.5,0,7.3,0,11.1l0,0.4
						l0.3-0.2c4.3-3.6,8.8-7.3,13.5-11.1l-0.1,0c8.3,0,17,0,26,0c2,0,4.1,0,6.1,0l1.5,0c0.5,0,1-0.1,1.5-0.3c1-0.4,1.8-1.1,2.4-1.9
						c0.3-0.4,0.5-0.9,0.6-1.4c0.1-0.5,0.1-1,0.1-1.5c0-1,0-2,0-3c0-2,0-3.9,0-5.8c0-7.7,0-15.2,0-22.3c0-3.5,0-7,0-10.4
						c0-1.7,0-3.3,0-5c0-0.8,0.1-1.6-0.1-2.4c-0.2-0.8-0.5-1.6-1.1-2.2c-0.5-0.6-1.2-1.1-2-1.3c-0.8-0.3-1.6-0.2-2.3-0.2
						c-1.5,0-3,0-4.5,0c-2.9,0-5.7,0-8.4,0c-10.7,0-19.4,0-25.4,0.1c-3,0-5.3,0-6.9,0c-0.8,0-1.4,0-1.8,0
						C483.4,76.9,483.2,76.9,483.2,76.9s0.2,0,0.6,0c0.4,0,1,0,1.8,0c1.6,0,3.9,0,6.9,0c6,0,14.7,0,25.4,0.1c2.7,0,5.5,0,8.4,0
						c1.5,0,3,0,4.5,0c0.8,0,1.5,0,2.2,0.2c0.7,0.2,1.4,0.7,1.9,1.2c0.5,0.6,0.9,1.3,1,2c0.1,0.8,0.1,1.6,0.1,2.4c0,1.6,0,3.3,0,5
						c0,3.4,0,6.8,0,10.4c0,7.1,0,14.5,0,22.3c0,1.9,0,3.9,0,5.8c0,1,0,2,0,3c0,0.5,0,1-0.1,1.4c-0.1,0.5-0.3,0.9-0.5,1.3
						c-0.5,0.8-1.3,1.5-2.2,1.8c-0.9,0.4-1.9,0.2-2.9,0.3c-2,0-4.1,0-6.1,0c-9,0-17.7,0-26,0h-0.1l0,0c-4.7,3.8-9.2,7.6-13.5,11.1
						l0.3,0.1c0-3.9,0-7.6,0-11.1l0-0.2l-0.2,0c-0.6,0-1.2,0-1.8,0c-0.6,0-1.1-0.2-1.6-0.4c-1-0.5-1.8-1.4-2.1-2.5
						c-0.2-0.5-0.2-1.1-0.2-1.6c0-0.6,0-1.1,0-1.7c0-1.1,0-2.2,0-3.3c0-4.3,0-8.5,0-12.4c0-7.8,0-14.6,0-20.2c0-2.8,0-5.3,0-7.5
						c0.1-2.2-0.3-4.1,0.6-5.4c0.8-1.3,1.9-1.8,2.6-2C482.8,76.9,483.2,76.9,483.2,76.9z"/>
				</g>
			</g>
		</g>
		<g>
			<g>
				<g>
					<path class="st2" d="M498.9,84.3h0.1c1,0,1.8-0.8,1.8-1.8v-9.4c0-1-0.8-1.8-1.8-1.8h-0.1c-1,0-1.8,0.8-1.8,1.8v9.4
						C497.1,83.4,497.9,84.3,498.9,84.3z"/>
				</g>
			</g>
			<g>
				<g>
					<g>
						<path class="st4" d="M498.9,84.3c0,0-0.5,0-1.1-0.4c-0.3-0.2-0.6-0.6-0.6-1.1c0-0.5,0-1.2,0-1.8c0-1.4,0-3,0-4.8
							c0-0.9,0-1.9,0-2.8c0-0.5,0.1-0.9,0.5-1.2c0.3-0.3,0.8-0.5,1.3-0.5c0.5,0,0.9,0.2,1.2,0.6c0.3,0.4,0.4,0.8,0.4,1.3
							c0,1,0,1.9,0,2.8c0,1.8,0,3.4,0,4.8c0,0.3,0,0.7,0,1c0,0.3,0,0.6,0,0.8c-0.1,0.5-0.4,0.9-0.7,1.1
							C499.4,84.3,498.9,84.2,498.9,84.3c0,0,0.1,0,0.3,0c0.2,0,0.5-0.1,0.9-0.3c0.3-0.2,0.7-0.6,0.8-1.2c0.1-0.3,0-0.6,0.1-0.9
							c0-0.3,0-0.6,0-1c0-1.4,0-3,0-4.8c0-0.9,0-1.9,0-2.8c0-0.5-0.1-1.1-0.5-1.5c-0.4-0.4-0.9-0.7-1.5-0.7c-0.6,0-1.1,0.2-1.5,0.6
							c-0.4,0.4-0.6,1-0.6,1.5c0,1,0,1.9,0,2.8c0,1.8,0,3.4,0,4.8c0,0.7,0,1.3,0,1.9c0.1,0.6,0.4,1,0.7,1.2c0.3,0.2,0.6,0.3,0.8,0.3
							C498.8,84.3,498.9,84.3,498.9,84.3z"/>
					</g>
				</g>
			</g>
		</g>
		<g>
			<g>
				<g>
					<path class="st2" d="M516.4,84.3h0.1c1,0,1.8-0.8,1.8-1.8v-9.4c0-1-0.8-1.8-1.8-1.8h-0.1c-1,0-1.8,0.8-1.8,1.8v9.4
						C514.6,83.4,515.4,84.3,516.4,84.3z"/>
				</g>
			</g>
			<g>
				<g>
					<g>
						<path class="st4" d="M516.4,84.3c0,0-0.5,0-1.1-0.4c-0.3-0.2-0.6-0.6-0.6-1.1c0-0.5,0-1.2,0-1.8c0-1.4,0-3,0-4.8
							c0-0.9,0-1.9,0-2.8c0-0.5,0.1-0.9,0.5-1.2c0.3-0.3,0.8-0.5,1.3-0.5c0.5,0,0.9,0.2,1.2,0.6c0.3,0.4,0.4,0.8,0.4,1.3
							c0,1,0,1.9,0,2.8c0,1.8,0,3.4,0,4.8c0,0.3,0,0.7,0,1c0,0.3,0,0.6,0,0.8c-0.1,0.5-0.4,0.9-0.7,1.1
							C516.9,84.3,516.4,84.2,516.4,84.3c0,0,0.1,0,0.3,0c0.2,0,0.5-0.1,0.9-0.3c0.3-0.2,0.7-0.6,0.8-1.2c0.1-0.3,0-0.6,0.1-0.9
							c0-0.3,0-0.6,0-1c0-1.4,0-3,0-4.8c0-0.9,0-1.9,0-2.8c0-0.5-0.1-1.1-0.5-1.5c-0.4-0.4-0.9-0.7-1.5-0.7c-0.6,0-1.1,0.2-1.5,0.6
							c-0.4,0.4-0.6,1-0.6,1.5c0,1,0,1.9,0,2.8c0,1.8,0,3.4,0,4.8c0,0.7,0,1.3,0,1.9c0.1,0.6,0.4,1,0.7,1.2c0.3,0.2,0.6,0.3,0.8,0.3
							C516.3,84.3,516.4,84.3,516.4,84.3z"/>
					</g>
				</g>
			</g>
		</g>
	</g>
	<g>
		<g>
			<g>
				<g>
					<path class="st8" d="M385.8,231l4.2,5.2v-9H403c0,0,1.5,20.5,1.1,24.9c-0.1,1.5-0.8,4.1-1.6,6.7c-1.7,5.5-8.6,7.2-12.7,3.2
						c-1.4-1.3-2.8-2.9-4.1-4.6c-5.8-7.5-15.5-25.8-15.5-25.8l10.1-6.1L385.8,231z"/>
				</g>
			</g>
			<g>
				<g>
					<g>
						<path class="st9" d="M384.9,230c-0.1,0.1,0.6,0.9,1.7,2.3c1.1,1.4,2.6,3.3,4.4,5.3c1.8,2,3.4,3.8,4.7,5.1
							c1.3,1.2,2.2,1.9,2.2,1.8c0.1-0.1-0.7-0.8-1.9-2.1c-1.2-1.3-2.8-3.1-4.5-5.2C388,233.1,385.1,229.9,384.9,230z"/>
					</g>
				</g>
			</g>
		</g>
		<g>
			<g>
				<g>
					<g>
						<g>
							<g>
								<g>
									<g>
										<g>
											<g>
												<g>
													<g>
														<g>
															<g>
																<g>
																	<g>
																		<g>
																			<g>
																				<g>
																					<g>
																						<g>
																							<g>
																								<path class="st8" d="M456.4,113.9l0.6,47.7c0.1,8.1-1.4,20-14.2,19.6l0,0c-11.1-1.2-14-11.7-14.1-19.3
																									c0-3.6-0.1-6.6-0.1-6.9c0,0-12.1-1-13.2-13c-0.5-5.8-0.5-17.8-0.5-28.7c0.1-11.7,9.2-21.3,20.8-22.2
																									l1.2-0.1C449.4,90.8,456.5,101.3,456.4,113.9z"/>
																							</g>
																						</g>
																					</g>
																				</g>
																			</g>
																		</g>
																	</g>
																</g>
															</g>
														</g>
													</g>
												</g>
											</g>
										</g>
									</g>
								</g>
							</g>
						</g>
						<g>
							<g>
								<g>
									<g>
										<g>
											<g>
												<g>
													<g>
														<g>
															<g>
																<g>
																	<g>
																		<g>
																			<g>
																				<g>
																					<g>
																						<g>
																							<g>
																								<path class="st9" d="M428.5,154.9c0,0,7.6-0.1,15.3-5.8c0,0-3.2,9.1-15.2,8.8L428.5,154.9z"/>
																							</g>
																						</g>
																					</g>
																				</g>
																			</g>
																		</g>
																	</g>
																</g>
															</g>
														</g>
													</g>
												</g>
											</g>
										</g>
									</g>
								</g>
							</g>
						</g>
					</g>
				</g>
			</g>
			<g>
				<g>
					<g>
						<g>
							<g>
								<g>
									<g>
										<g>
											<g>
												<g>
													<g>
														<g>
															<g>
																<g>
																	<g>
																		<g>
																			<g>
																				<g>
																					<g>
																						<g>
																							<g>
																								<g>
																									<g>
																										<g>
																											<g>
																												<path class="st4" d="M435.4,118.2c0.2,0.2,1.6-0.9,3.6-0.9c2-0.1,3.5,0.9,3.7,0.7
																													c0.1-0.1-0.1-0.6-0.8-1c-0.6-0.5-1.7-0.9-3-0.8c-1.3,0-2.3,0.5-2.9,1
																													C435.5,117.6,435.3,118.1,435.4,118.2z"/>
																											</g>
																										</g>
																									</g>
																								</g>
																							</g>
																						</g>
																					</g>
																				</g>
																			</g>
																		</g>
																	</g>
																</g>
															</g>
														</g>
													</g>
												</g>
											</g>
										</g>
									</g>
								</g>
								<g>
									<g>
										<g>
											<g>
												<g>
													<g>
														<g>
															<g>
																<g>
																	<g>
																		<g>
																			<g>
																				<g>
																					<g>
																						<g>
																							<g>
																								<g>
																									<g>
																										<g>
																											<path class="st4" d="M434.3,123c0,0.9,0.8,1.5,1.7,1.5c0.9,0,1.6-0.7,1.6-1.6c0-0.9-0.8-1.5-1.7-1.5
																												C434.9,121.4,434.2,122.2,434.3,123z"/>
																										</g>
																									</g>
																								</g>
																							</g>
																						</g>
																					</g>
																				</g>
																			</g>
																		</g>
																	</g>
																</g>
															</g>
														</g>
													</g>
												</g>
											</g>
										</g>
									</g>
								</g>
								<g>
									<g>
										<g>
											<g>
												<g>
													<g>
														<g>
															<g>
																<g>
																	<g>
																		<g>
																			<g>
																				<g>
																					<g>
																						<g>
																							<g>
																								<g>
																									<g>
																										<g>
																											<path class="st4" d="M430.3,132.2c0-0.1-1.2-0.2-3-0.3c-0.5,0-0.9-0.1-1-0.4c-0.1-0.3,0-0.9,0.2-1.4
																												c0.4-1.2,0.7-2.4,1.1-3.7c1.6-5.3,2.7-9.6,2.4-9.6c-0.2-0.1-1.7,4.1-3.2,9.4c-0.4,1.3-0.7,2.5-1.1,3.7
																												c-0.1,0.5-0.4,1.2-0.1,1.9c0.2,0.3,0.5,0.6,0.8,0.6c0.3,0.1,0.6,0.1,0.8,0.1
																												C429.2,132.3,430.3,132.3,430.3,132.2z"/>
																										</g>
																									</g>
																								</g>
																							</g>
																						</g>
																					</g>
																				</g>
																			</g>
																		</g>
																	</g>
																</g>
															</g>
														</g>
													</g>
												</g>
											</g>
										</g>
									</g>
								</g>
							</g>
						</g>
					</g>
					<g>
						<g>
							<g>
								<g>
									<g>
										<g>
											<g>
												<g>
													<g>
														<g>
															<g>
																<g>
																	<g>
																		<g>
																			<g>
																				<g>
																					<g>
																						<g>
																							<path class="st4" d="M436.2,109.6c0.2,0.4,1.8,0.1,3.7,0.2c1.9,0.1,3.5,0.5,3.7,0.1c0.1-0.2-0.2-0.6-0.9-1
																								c-0.6-0.4-1.7-0.7-2.8-0.8c-1.2,0-2.2,0.2-2.9,0.6C436.5,109,436.1,109.4,436.2,109.6z"/>
																						</g>
																					</g>
																				</g>
																			</g>
																		</g>
																	</g>
																</g>
															</g>
														</g>
													</g>
												</g>
											</g>
										</g>
									</g>
								</g>
							</g>
						</g>
					</g>
					<g>
						<g>
							<g>
								<g>
									<g>
										<g>
											<g>
												<g>
													<g>
														<g>
															<g>
																<g>
																	<g>
																		<g>
																			<g>
																				<g>
																					<g>
																						<g>
																							<path class="st4" d="M417.1,112.6c0.2,0.4,1.8,0,3.7-0.1c1.9-0.1,3.5,0.2,3.7-0.2c0.1-0.2-0.2-0.5-0.9-0.8
																								c-0.7-0.3-1.7-0.5-2.8-0.5c-1.1,0-2.1,0.3-2.8,0.7C417.3,112.1,417,112.4,417.1,112.6z"/>
																						</g>
																					</g>
																				</g>
																			</g>
																		</g>
																	</g>
																</g>
															</g>
														</g>
													</g>
												</g>
											</g>
										</g>
									</g>
								</g>
							</g>
						</g>
					</g>
				</g>
			</g>
			<g>
				<g>
					<g>
						<g>
							<g>
								<g>
									<g>
										<g>
											<g>
												<g>
													<g>
														<g>
															<g>
																<g>
																	<g>
																		<g>
																			<path class="st8" d="M456,122.9c0.2-0.1,8.1-3,8.4,5.2c0.3,8.2-8,6.9-8,6.6C456.4,134.4,456,122.9,456,122.9z"/>
																		</g>
																	</g>
																</g>
															</g>
														</g>
													</g>
												</g>
											</g>
										</g>
									</g>
								</g>
							</g>
						</g>
					</g>
				</g>
			</g>
			<g>
				<g>
					<g>
						<g>
							<g>
								<g>
									<g>
										<g>
											<g>
												<g>
													<g>
														<g>
															<g>
																<g>
																	<g>
																		<g>
																			<g>
																				<path class="st9" d="M458.8,131.5c0,0,0.1,0.1,0.4,0.2c0.2,0.1,0.7,0.2,1.1,0c0.9-0.4,1.5-1.8,1.5-3.2
																					c0-0.7-0.2-1.5-0.5-2c-0.3-0.6-0.7-1-1.1-1.1c-0.4-0.1-0.7,0.2-0.8,0.4c-0.1,0.2,0,0.4-0.1,0.4
																					c0,0-0.2-0.1-0.1-0.5c0-0.2,0.1-0.4,0.3-0.5c0.2-0.2,0.5-0.3,0.8-0.2c0.6,0,1.2,0.6,1.5,1.2
																					c0.4,0.6,0.6,1.4,0.6,2.3c0,1.7-0.8,3.2-1.9,3.6c-0.6,0.2-1.1,0-1.3-0.2C458.8,131.7,458.8,131.5,458.8,131.5z"
																					/>
																			</g>
																		</g>
																	</g>
																</g>
															</g>
														</g>
													</g>
												</g>
											</g>
										</g>
									</g>
								</g>
							</g>
						</g>
					</g>
				</g>
			</g>
			<g>
				<g>
					<g>
						<g>
							<path class="st4" d="M432.3,137.8c-0.1-0.2,1.5-0.7,2.7-2.2c0.6-0.7,0.9-1.6,1.1-2.1c0.2-0.6,0.4-1,0.5-0.9
								c0.1,0,0.1,0.4-0.1,1.1c-0.1,0.6-0.4,1.6-1.1,2.4c-0.6,0.9-1.5,1.4-2.1,1.6C432.7,137.9,432.3,137.9,432.3,137.8z"/>
						</g>
					</g>
				</g>
			</g>
			<g>
				<g>
					<g>
						<g>
							<path class="st4" d="M398.9,102.5c0.1-0.5,0.5-0.9,0.9-1.1c0.9-0.6,2-0.5,3.1-0.5c3.2-0.1,6.3-1,9-2.7
								c1.3-1.8,2.7-3.5,4.2-5.1c3.6-3.8,6.6-6.3,9.7-7.5c4-1.6,10.7-2.3,14.9-1.2c4.2,1.1,7.9,4.5,8.5,8.8c2.3-2,5.9-2,8.7-0.8
								l0.1,0c3.2,1.1,5,4.5,5.9,7.7c0.9,3.2,1.3,6.7,3.1,9.6c0.4,0.6,0.8,1.3,0.5,2c-0.2,0.5-0.9,0.7-1.4,0.6
								c-0.5-0.1-1-0.4-1.5-0.7c0.4,0.8,0.7,1.7,1.1,2.5c-1.1,0.2-2.3,0.1-3.5-0.2c-0.7,3-1.5,6.5-2.3,8.5c-1.3,0-2.5,0.1-3.4,0.8
								c-1.1,1-1.6,2.9-3.5,2.2c-0.9-0.4-1.8-2.3-2.1-3.3c-2.1-6.4-2.8-13.2-2-19.8c-1.3-1.4-2.9-2.5-4.6-3.4l0.1,0.1
								c-3.4-1.2-7.1-2.3-10.3-0.7c-2.5,1.2-3.9,3.8-5.8,5.8c-3.5,3.9-8.2,6-13.4,6.2c-0.2,3.4,0.1,8.2-0.1,11.5l-2.8-5.4l0,0
								c-0.2-0.4-0.4-0.8-0.6-1.2l-0.1-0.1v0c-0.3-0.6-0.6-1.3-1-1.9c0,0,0,0,0,0c-1.8,1.6-4.5-0.9-3.1-2.8c0.3-0.4,0.6-0.7,1-1
								c-0.8,0.8-2.1,1.2-3.2,0.8c-1.1-0.3-1.9-1.4-1.9-2.6c0.1-0.8,0.6-1.5,1.3-1.8c-1.5,0.1-3-0.2-4.3-0.9
								C399.5,104.3,398.6,103.5,398.9,102.5z"/>
						</g>
					</g>
				</g>
			</g>
			<g>
				<g>
					<g>
						<g>
							<path class="st7" d="M445.5,94.4c0,0,0.5,0.3,1.2,1.1c0.7,0.8,1.5,2.1,1.8,4c0.2,0.9,0.3,1.9,0.3,3.1c0,1.1-0.1,2.3-0.2,3.5
								c-0.1,1.2-0.2,2.6-0.1,3.9c0,0.7,0.1,1.4,0.3,2.1c0.2,0.7,0.3,1.4,0.8,2c0.4,0.5,1.1,0.7,1.7,0.6c0.6-0.1,1.1-0.4,1.5-0.9
								c0.8-0.9,1-2,1.2-3.1l-0.3,0c0.4,0.9,0.8,1.8,1.5,2.5c0.6,0.7,1.5,1.2,2.3,1.3c0.4,0,0.9,0,1.2-0.2c0.4-0.2,0.7-0.5,0.8-0.8
								c0.2-0.3,0.3-0.7,0.3-1.1c0-0.4-0.2-0.7-0.4-0.9l-0.1,0.1c0.9,1.1,1.9,1.6,2.6,1.9c0.3,0.2,0.6,0.3,0.8,0.3
								c0.2,0.1,0.3,0.1,0.3,0.1c0,0-0.1,0-0.3-0.1c-0.2-0.1-0.4-0.2-0.8-0.3c-0.7-0.3-1.6-0.9-2.5-2l-0.1,0.1
								c0.4,0.4,0.4,1.2,0.1,1.8c-0.2,0.3-0.4,0.6-0.8,0.7c-0.3,0.2-0.7,0.2-1.1,0.2c-0.8-0.1-1.6-0.5-2.2-1.2
								c-0.6-0.7-1-1.6-1.4-2.5l-0.2-0.4l-0.1,0.4c-0.2,1-0.4,2.1-1.1,2.9c-0.3,0.4-0.8,0.7-1.4,0.8c-0.5,0.1-1.1-0.1-1.4-0.5
								c-0.5-0.5-0.6-1.2-0.8-1.9c-0.1-0.7-0.2-1.4-0.3-2c-0.1-1.3,0-2.7,0.1-3.9c0.1-1.2,0.2-2.4,0.1-3.6c0-1.1-0.1-2.2-0.3-3.1
								c-0.4-1.9-1.2-3.2-2-4C446,94.7,445.5,94.4,445.5,94.4z"/>
						</g>
					</g>
				</g>
			</g>
			<g>
				<g>
					<g>
						<g>
							<path class="st7" d="M408.3,106.1C408.3,106.1,408.4,106.1,408.3,106.1c0.2,0.1,0.3,0.2,0.4,0.3c0.1,0.1,0.3,0.2,0.5,0.3
								c0.2,0.1,0.4,0.3,0.7,0.4c1.1,0.5,2.9,1.1,5.1,0.9c2.2-0.1,4.9-0.9,7.2-2.7c2.4-1.7,4.5-4.3,6.2-7.2c0.9-1.5,1.6-2.9,2.4-4.3
								c0.8-1.4,1.6-2.6,2.7-3.7c1-1,2.2-1.8,3.5-2.1c0.6-0.2,1.2-0.2,1.8-0.2c0.6,0,1.2,0.2,1.7,0.3c1,0.3,1.9,0.9,2.5,1.5
								c0.6,0.6,1.1,1.2,1.4,1.8c0.5,1.1,0.6,1.8,0.6,1.8c0,0,0,0,0-0.1c0-0.1,0-0.2-0.1-0.4c-0.1-0.3-0.2-0.8-0.5-1.4
								c-0.3-0.6-0.7-1.2-1.3-1.8c-0.6-0.6-1.5-1.2-2.5-1.6c-0.5-0.2-1.1-0.3-1.7-0.3c-0.6,0-1.3,0-1.9,0.2
								c-1.3,0.3-2.5,1.1-3.6,2.1c-1.1,1-2,2.3-2.7,3.7c-0.8,1.4-1.5,2.9-2.4,4.3c-1.7,2.9-3.8,5.4-6.1,7.1
								c-2.3,1.8-4.9,2.5-7.1,2.7c-2.2,0.2-4-0.3-5.1-0.8C408.9,106.5,408.3,106.1,408.3,106.1z"/>
						</g>
					</g>
				</g>
			</g>
			<g>
				<g>
					<g>
						<g>
							<path class="st7" d="M407.2,100.8c0,0,0.1,0.1,0.4,0.3c0.3,0.2,0.7,0.4,1.3,0.6c0.6,0.2,1.2,0.5,2,0.7
								c0.8,0.2,1.7,0.3,2.6,0.3c0.9,0,1.8-0.1,2.6-0.2c0.8-0.1,1.5-0.3,2.1-0.5c0.6-0.2,1-0.4,1.3-0.6c0.3-0.2,0.5-0.3,0.4-0.3
								c0,0-0.7,0.3-1.8,0.6c-0.6,0.2-1.3,0.3-2,0.5c-0.8,0.1-1.6,0.2-2.5,0.2c-0.9,0-1.8-0.2-2.5-0.3c-0.8-0.2-1.4-0.4-2-0.6
								C407.9,101.2,407.3,100.8,407.2,100.8z"/>
						</g>
					</g>
				</g>
			</g>
			<g>
				<g>
					<g>
						<g>
							<g>
								<g>
									<g>
										<g>
											<g>
												<g>
													<g>
														<g>
															<path class="st4" d="M417,118.2c0.2,0.2,1.6-0.9,3.6-0.9c2-0.1,3.5,0.9,3.7,0.7c0.1-0.1-0.1-0.6-0.8-1
																c-0.6-0.5-1.7-0.9-3-0.8c-1.3,0-2.3,0.5-2.9,1C417.1,117.6,416.9,118.1,417,118.2z"/>
														</g>
													</g>
												</g>
											</g>
										</g>
									</g>
								</g>
							</g>
						</g>
					</g>
				</g>
			</g>
			<g>
				<g>
					<g>
						<g>
							<g>
								<g>
									<g>
										<g>
											<g>
												<g>
													<g>
														<path class="st4" d="M417.5,123c0,0.9,0.8,1.5,1.7,1.5c0.9,0,1.6-0.7,1.6-1.6c0-0.9-0.8-1.5-1.7-1.5
															C418.1,121.4,417.4,122.2,417.5,123z"/>
													</g>
												</g>
											</g>
										</g>
									</g>
								</g>
							</g>
						</g>
					</g>
				</g>
			</g>
		</g>
		<g>
			<g>
				<g>
					<g>
						<g>
							<g>
								<g>
									<g>
										<path class="st7" d="M480.1,476.6l2.5,30l8.8,23.1c0.6,1.7-0.3,3.5-2,4l0,0c-1,0.3-2,0.1-2.8-0.5
											c-5-3.9-23.2-18.2-23.4-20.1c-0.3-2.4-4.9-31.9-4.9-31.9L480.1,476.6z"/>
									</g>
								</g>
							</g>
						</g>
					</g>
				</g>
				<g>
					<g>
						<g>
							<g>
								<g>
									<g>
										<path class="st4" d="M489.4,533.8l-26.6-24l0.3,2.2c0.2,1.2,0.2,1.9,1,2.6c2.1,2,8.4,8.2,22.3,19.1
											C487.2,534.4,488.4,534.1,489.4,533.8L489.4,533.8z"/>
									</g>
								</g>
							</g>
						</g>
					</g>
				</g>
				<g>
					<g>
						<g>
							<g>
								<g>
									<g>
										<g>
											<path class="st6" d="M468,500.4c0.8,0.4,1.2,1.5,0.8,2.4c-0.4,0.8-1.5,1.2-2.3,0.8c-0.8-0.4-1.3-1.7-0.8-2.5
												c0.5-0.8,1.8-1.1,2.5-0.5"/>
										</g>
									</g>
								</g>
							</g>
						</g>
					</g>
				</g>
				<g>
					<g>
						<g>
							<g>
								<g>
									<g>
										<g>
											<path class="st4" d="M481.2,521.4c0.2,0.1,0.7-1.6,2.4-2.6c1.7-1.1,3.4-0.8,3.4-1c0-0.1-0.4-0.3-1.1-0.3
												c-0.7,0-1.7,0.2-2.6,0.8c-0.9,0.6-1.5,1.4-1.8,2C481.1,521,481.1,521.4,481.2,521.4z"/>
										</g>
									</g>
								</g>
							</g>
						</g>
					</g>
				</g>
				<g>
					<g>
						<g>
							<g>
								<g>
									<g>
										<g>
											<path class="st4" d="M483.7,525.2c0.2,0.1,1-1,2.5-1.6c1.5-0.6,2.9-0.5,2.9-0.7c0.1-0.2-1.4-0.6-3.1,0.1
												C484.3,523.7,483.6,525.1,483.7,525.2z"/>
										</g>
									</g>
								</g>
							</g>
						</g>
					</g>
				</g>
				<g>
					<g>
						<g>
							<g>
								<g>
									<g>
										<g>
											<path class="st4" d="M476.7,516.7c0.2,0.1,1.5-1.5,3.7-2.7c2.2-1.2,4.3-1.3,4.3-1.5c0-0.2-2.2-0.3-4.6,0.9
												C477.7,514.7,476.5,516.6,476.7,516.7z"/>
										</g>
									</g>
								</g>
							</g>
						</g>
					</g>
				</g>
				<g>
					<g>
						<g>
							<g>
								<g>
									<g>
										<g>
											<path class="st4" d="M475.2,507.7c0.1,0.2,1.7-0.7,3.8-1c2.1-0.3,3.9,0,3.9-0.2c0.1-0.2-1.7-0.8-4-0.5
												C476.6,506.3,475,507.5,475.2,507.7z"/>
										</g>
									</g>
								</g>
							</g>
						</g>
					</g>
				</g>
				<g>
					<g>
						<g>
							<g>
								<g>
									<g>
										<g>
											<path class="st4" d="M474.2,498.9c0.1,0.2,1.7-1,3.9-1.1c2.3-0.2,4,0.8,4.1,0.6c0-0.1-0.3-0.4-1.1-0.7
												c-0.7-0.3-1.8-0.6-3.1-0.5c-1.2,0.1-2.3,0.5-3,0.9C474.5,498.4,474.1,498.8,474.2,498.9z"/>
										</g>
									</g>
								</g>
							</g>
						</g>
					</g>
				</g>
				<g>
					<g>
						<g>
							<g>
								<g>
									<g>
										<g>
											<path class="st4" d="M477.9,496.1c0,0,0.1-0.4-0.1-1.1c-0.1-0.7-0.5-1.8-1.2-2.9c-0.4-0.5-0.8-1.2-1.7-1.5
												c-0.4-0.2-1,0-1.4,0.4c-0.3,0.4-0.4,0.9-0.3,1.4c0.2,1.9,2.1,3.6,4.2,3.6c2.2,0,4-1.4,4.7-3.2c0.1-0.4,0.2-1-0.1-1.5
												c-0.3-0.5-0.9-0.6-1.3-0.5c-0.9,0.2-1.4,0.8-1.9,1.2c-0.9,0.9-1.5,1.9-1.8,2.5c-0.3,0.7-0.4,1.1-0.3,1.1
												c0.1,0.1,0.6-1.5,2.5-3.3c0.5-0.4,1-0.9,1.6-1c0.3-0.1,0.6,0,0.7,0.3c0.1,0.2,0.1,0.6,0,1c-0.6,1.4-2.2,2.7-4.1,2.7
												c-1.8,0-3.4-1.5-3.6-3c0-0.4,0-0.7,0.2-1c0.2-0.2,0.5-0.3,0.7-0.2c0.6,0.2,1.1,0.8,1.4,1.2
												C477.7,494.4,477.8,496.1,477.9,496.1z"/>
										</g>
									</g>
								</g>
							</g>
						</g>
					</g>
				</g>
			</g>
		</g>
		<g>
			<g>
				<g>
					<g>
						<g>
							<g>
								<g>
									<g>
										<g>
											<g>
												<path class="st7" d="M409.1,478.2l1.1,25.4c0,0-25.4,9.7-25.7,14.4l49.3-0.4l-0.1-39.6L409.1,478.2z"/>
											</g>
										</g>
									</g>
								</g>
							</g>
						</g>
					</g>
					<g>
						<g>
							<g>
								<g>
									<g>
										<g>
											<g>
												<g>
													<path class="st2" d="M425.5,501.3c1,0.3,1.6,1.3,1.4,2.3c-0.2,1-1.3,1.7-2.3,1.4c-1-0.2-1.8-1.5-1.5-2.4
														c0.3-0.9,1.6-1.7,2.5-1.2"/>
												</g>
											</g>
										</g>
									</g>
								</g>
							</g>
						</g>
					</g>
					<g>
						<g>
							<g>
								<g>
									<g>
										<g>
											<g>
												<path class="st4" d="M433.8,517.5l-0.2-4l-47.2,1.9c0,0-2.2,1-1.9,2.5L433.8,517.5z"/>
											</g>
										</g>
									</g>
								</g>
							</g>
						</g>
					</g>
					<g>
						<g>
							<g>
								<g>
									<g>
										<g>
											<g>
												<g>
													<path class="st4" d="M409.4,503.3c0,0.2,1.2,0.3,2.4,1.1c1.2,0.7,1.8,1.8,2,1.7c0.2,0-0.1-1.5-1.6-2.4
														C410.8,502.8,409.4,503.1,409.4,503.3z"/>
												</g>
											</g>
										</g>
									</g>
								</g>
							</g>
						</g>
					</g>
					<g>
						<g>
							<g>
								<g>
									<g>
										<g>
											<g>
												<g>
													<path class="st4" d="M404.3,505.5c-0.1,0.2,1,0.6,1.8,1.6c0.9,1,1.1,2.1,1.3,2.1c0.2,0,0.4-1.4-0.7-2.6
														C405.7,505.3,404.3,505.2,404.3,505.5z"/>
												</g>
											</g>
										</g>
									</g>
								</g>
							</g>
						</g>
					</g>
					<g>
						<g>
							<g>
								<g>
									<g>
										<g>
											<g>
												<g>
													<path class="st4" d="M401.4,511.7c0.2,0,0.5-1.2-0.1-2.5c-0.6-1.3-1.8-1.8-1.9-1.6c-0.1,0.2,0.6,0.9,1.1,2
														C401.1,510.6,401.2,511.7,401.4,511.7z"/>
												</g>
											</g>
										</g>
									</g>
								</g>
							</g>
						</g>
					</g>
					<g>
						<g>
							<g>
								<g>
									<g>
										<g>
											<g>
												<g>
													<path class="st4" d="M409.8,497.5c0.1,0.2,1.2-0.1,2.6,0c1.4,0.1,2.4,0.5,2.5,0.3c0.1-0.2-0.9-1.1-2.5-1.1
														C410.8,496.5,409.7,497.3,409.8,497.5z"/>
												</g>
											</g>
										</g>
									</g>
								</g>
							</g>
						</g>
					</g>
				</g>
			</g>
		</g>
		<g>
			<g>
				<g>
					<g>
						<path class="st4" d="M400.5,295.9c0,1.5,5.7,204.3,5.7,204.3h30.5l6.2-173.5c0,0,7.2,90.7,7.2,92.7c0,2,6.4,81.8,6.4,81.8
							l28.2-2.3l-1.9-182.7l-3.5-26.8L400.5,295.9z"/>
					</g>
				</g>
				<g>
					<g>
						<g>
							<path class="st7" d="M446.1,320.3c0,0-0.4,0.2-1.2,0.5c-0.8,0.3-2,0.7-3.4,1.2l-0.3,0.1l0-0.3c-0.2-2.4-0.4-5.7-0.5-9.3
								c-0.2-3.9-0.3-7.4-0.4-9.9c0-1.3-0.1-2.3-0.1-3c0-0.7,0-1.1,0.1-1.1c0,0,0.1,0.4,0.2,1.1c0.1,0.7,0.2,1.7,0.2,3
								c0.2,2.5,0.4,6,0.6,9.9c0.2,3.6,0.3,6.8,0.4,9.3l-0.3-0.2c1.5-0.4,2.7-0.8,3.5-1C445.6,320.4,446.1,320.3,446.1,320.3z"/>
						</g>
					</g>
				</g>
				<g>
					<g>
						<g>
							<path class="st7" d="M443.8,299.2c0,0,0.1-0.2,0.4-0.3c0.3-0.1,0.8-0.1,1.3,0.1c0.5,0.2,1.1,0.9,1,1.7
								c-0.1,0.8-0.6,1.6-1.6,1.8c-1,0.2-1.8-0.4-2.2-1c-0.4-0.7-0.3-1.5,0-1.9c0.3-0.5,0.7-0.7,1-0.8c0.3-0.1,0.5-0.1,0.5-0.1
								c0,0.1-0.7,0.2-1.1,1.1c-0.2,0.4-0.3,1,0.1,1.5c0.3,0.5,1,0.9,1.7,0.7c0.6-0.1,1.1-0.7,1.2-1.3c0.1-0.6-0.3-1-0.7-1.3
								C444.4,298.9,443.8,299.3,443.8,299.2z"/>
						</g>
					</g>
				</g>
				<g>
					<g>
						<g>
							<path class="st7" d="M457.7,301.3c-0.2,0-0.4-0.9-0.5-2c-0.1-1.1-0.1-2,0.1-2c0.2,0,0.4,0.9,0.5,2
								C457.9,300.4,457.9,301.3,457.7,301.3z"/>
						</g>
					</g>
				</g>
				<g>
					<g>
						<g>
							<path class="st7" d="M459.9,301.1c-0.2,0-0.3-0.9-0.3-2.1c0-1.2,0.1-2.1,0.3-2.1c0.2,0,0.3,0.9,0.3,2.1
								C460.2,300.2,460,301.1,459.9,301.1z"/>
						</g>
					</g>
				</g>
				<g>
					<g>
						<g>
							<path class="st7" d="M423.1,302.5c-0.2,0-0.4-1-0.6-2.4c-0.2-1.3-0.1-2.4,0-2.4c0.2,0,0.4,1,0.6,2.4
								C423.3,301.4,423.3,302.5,423.1,302.5z"/>
						</g>
					</g>
				</g>
				<g>
					<g>
						<g>
							<path class="st7" d="M425.7,302.7c-0.1,0.1-0.7-1-0.7-2.5c-0.1-1.4,0.4-2.6,0.5-2.5c0.2,0,0,1.1,0.1,2.5
								C425.6,301.5,425.9,302.6,425.7,302.7z"/>
						</g>
					</g>
				</g>
			</g>
			<g>
				<g>
					<g>
						<path class="st7" d="M416.1,300c0,0,0,0.3-0.1,0.9c-0.1,0.6-0.3,1.4-0.6,2.4c-0.6,2-1.8,4.6-3.8,7.2c-1.9,2.6-4.2,4.5-6,5.8
							c-0.9,0.6-1.6,1.1-2.2,1.3c-0.5,0.3-0.8,0.4-0.9,0.4c0-0.1,1.1-0.7,2.8-2c1.7-1.3,3.8-3.2,5.7-5.8c1.9-2.5,3.1-5.1,3.9-7
							C415.7,301.2,416,300,416.1,300z"/>
					</g>
				</g>
			</g>
			<g>
				<g>
					<g>
						<path class="st7" d="M481.9,313.6c0,0-0.3,0.1-0.9,0.1c-0.6,0-1.5,0.1-2.6,0c-2.1-0.2-5.1-1-7.8-2.9c-2.7-1.9-4.4-4.4-5.2-6.2
							c-0.4-0.9-0.7-1.7-0.8-2.3c-0.1-0.6-0.2-0.9-0.1-0.9c0.1,0,0.4,1.2,1.3,3c0.9,1.8,2.6,4.2,5.2,6c2.6,1.8,5.5,2.7,7.5,2.9
							C480.6,313.7,481.9,313.5,481.9,313.6z"/>
					</g>
				</g>
			</g>
			<g>
				<g>
					<g>
						<path class="st7" d="M432.3,416.3c0,0.1-5.1-1-11.3-2.6c-6.2-1.6-11.2-3-11.1-3.1c0-0.1,5.1,1,11.3,2.6
							C427.4,414.8,432.3,416.2,432.3,416.3z"/>
					</g>
				</g>
			</g>
			<g>
				<g>
					<g>
						<path class="st7" d="M481.4,409c0.1,0.1-4.3,2.6-9.8,5.5c-5.5,2.9-10,5.1-10.1,5c-0.1-0.1,4.3-2.6,9.8-5.5
							C476.8,411.1,481.3,408.8,481.4,409z"/>
					</g>
				</g>
			</g>
		</g>
		<g>
			<g>
				<g>
					<polygon class="st8" points="415.7,167.9 429.5,162.5 455,161.1 467,165.6 450.6,174.7 436.4,174.2 					"/>
				</g>
			</g>
			<g>
				<path class="st3" d="M399.4,298.2c1.3,0.2,84.8,3.8,84.8,3.8l-2.9-75.1l-0.2-14.7l-4.7-44.7c0,0-12.5-4.3-18.9-6.3
					c0,0-6.7,7-19.5,6.8c-12.5-0.2-15.1-3-15.1-3l-17.4,6.7c0,0-12.4,4.4-14.5,9.9c-2.1,5.3-5.9,35.8-5.9,35.8h18.1l-0.3,53.8
					L399.4,298.2z"/>
			</g>
			<g class="st5">
				<polyline points="451.9,197.9 454.5,216.9 467,222.4 476.3,214.6 476.3,197 451.9,197.9 				"/>
			</g>
			<g>
				<g>
					<path class="st4" d="M475.9,203.3c0,0.2-5.2,0.3-11.6,0.3c-6.4,0-11.6-0.1-11.6-0.3c0-0.2,5.2-0.3,11.6-0.3
						C470.7,203,475.9,203.1,475.9,203.3z"/>
				</g>
			</g>
			<g>
				<g>
					<g>
						<g>
							<g>
								<g>
									<path class="st4" d="M393.7,189.3c0,0,0.1,0.2,0.1,0.5c0.1,0.4,0.2,0.9,0.3,1.5c0.3,1.3,0.8,3.1,1.7,5.3
										c0.8,2.2,2,4.9,3.4,7.8c1.4,3,2.6,6.5,3.9,10.2l0,0l0,0c0,4.5-0.1,9.4-0.1,14.6c-0.1,11.5-0.2,21.9-0.3,29.5
										c-0.1,3.7-0.1,6.8-0.2,8.9c0,1-0.1,1.8-0.1,2.4c0,0.6,0,0.8-0.1,0.8c0,0,0-0.3,0-0.8c0-0.6,0-1.4,0-2.4c0-2.2,0-5.2,0-8.9
										c0-7.6,0.1-18,0.2-29.5c0-5.1,0.1-10.1,0.1-14.6l0,0.1c-1.3-3.7-2.5-7.2-3.8-10.2c-1.4-3-2.6-5.6-3.3-7.9
										c-0.8-2.3-1.3-4.1-1.5-5.4c-0.1-0.6-0.2-1.1-0.3-1.5C393.7,189.5,393.7,189.3,393.7,189.3z"/>
								</g>
							</g>
						</g>
						<g>
							<g>
								<g>
									<path class="st4" d="M482.3,180.5c0,0,0,0.6,0,1.6c0,1.1-0.1,2.6-0.2,4.4c-0.1,3.8-0.3,8.8-0.6,14.4
										c-0.3,5.6-0.5,10.6-0.7,14.4c-0.1,1.8-0.2,3.2-0.3,4.4c-0.1,1-0.1,1.6-0.2,1.6c0,0-0.1-0.6,0-1.6c0-1.1,0-2.6,0.1-4.4
										c0.1-3.7,0.3-8.8,0.5-14.4c0.2-5.6,0.5-10.7,0.7-14.4c0.1-1.8,0.2-3.3,0.3-4.4C482.2,181.1,482.3,180.5,482.3,180.5z"/>
								</g>
							</g>
						</g>
						<g class="st10">
							<g>
								<g>
									<path d="M393.8,192c-0.4,8.2,2.7,16.2,8.2,22.4C400.3,206.6,396,199.4,393.8,192z"/>
								</g>
							</g>
						</g>
						<g class="st10">
							<g>
								<g>
									<path d="M430.5,266.4c3.9-0.3,7.4-2.6,10-5.6c2.6-2.9,5-6.3,6.7-9.7c2.4-4.7,3.6-9.9,3.9-15.3
										C446.3,248.8,439.2,259.1,430.5,266.4z"/>
								</g>
							</g>
						</g>
						<g>
							<g>
								<g>
									<path class="st4" d="M452.7,230c0,0,0,0.2-0.1,0.5c-0.1,0.4-0.2,0.8-0.3,1.4c-0.1,0.6-0.3,1.3-0.6,2.1
										c-0.2,0.8-0.5,1.8-0.9,2.8c-0.7,2.1-1.7,4.4-2.9,7c-1.3,2.6-2.8,5.3-4.6,8.1c-1.8,2.7-3.8,5.2-5.7,7.4
										c-1.9,2.1-3.7,3.9-5.4,5.3c-0.8,0.7-1.6,1.3-2.2,1.9c-0.7,0.5-1.3,1-1.8,1.3c-0.5,0.3-0.8,0.6-1.1,0.8
										c-0.3,0.2-0.4,0.3-0.4,0.2c0,0,0.1-0.1,0.4-0.3c0.3-0.2,0.7-0.5,1.1-0.9c0.5-0.4,1.1-0.8,1.7-1.4c0.6-0.6,1.4-1.2,2.2-1.9
										c1.6-1.4,3.4-3.3,5.3-5.4c1.8-2.2,3.8-4.6,5.6-7.3c1.8-2.7,3.3-5.5,4.6-8c1.2-2.6,2.3-4.9,3-6.9c0.4-1,0.7-1.9,0.9-2.7
										c0.3-0.8,0.5-1.5,0.6-2.1c0.2-0.5,0.3-1,0.4-1.3C452.6,230.2,452.7,230,452.7,230z"/>
								</g>
							</g>
						</g>
					</g>
					<g>
						<g>
							<g>
								<path class="st4" d="M450.3,206.5c0,0,0,0.3-0.1,0.8c-0.1,0.6-0.2,1.3-0.4,2.2c-0.2,0.9-0.4,2.1-0.7,3.4
									c-0.3,1.3-0.6,2.9-1.2,4.5c-0.2,0.8-0.5,1.7-0.8,2.6c-0.3,0.9-0.6,1.8-0.9,2.8c-0.6,1.9-1.5,3.9-2.3,6
									c-1.8,4.2-4,8.7-6.8,13.2c-2.8,4.5-5.7,8.5-8.6,12c-1.5,1.7-2.9,3.4-4.3,4.8c-0.7,0.7-1.4,1.5-2,2.1c-0.7,0.6-1.3,1.3-2,1.9
									c-1.2,1.2-2.4,2.2-3.5,3.1c-1,0.9-2,1.6-2.7,2.2c-0.7,0.6-1.3,1-1.8,1.3c-0.4,0.3-0.6,0.5-0.6,0.4c0,0,0.2-0.2,0.6-0.5
									c0.4-0.4,1-0.8,1.7-1.4c0.7-0.6,1.7-1.3,2.7-2.3c1-0.9,2.2-1.9,3.4-3.1c0.6-0.6,1.3-1.2,1.9-1.9c0.7-0.7,1.3-1.4,2-2.1
									c1.4-1.4,2.8-3.1,4.3-4.8c2.9-3.5,5.8-7.5,8.6-12c2.7-4.5,5-8.9,6.8-13.1c0.9-2.1,1.7-4.1,2.4-6c0.3-1,0.7-1.9,1-2.7
									c0.3-0.9,0.5-1.8,0.8-2.6c0.5-1.6,0.9-3.1,1.2-4.5c0.4-1.3,0.6-2.5,0.8-3.4c0.2-0.9,0.4-1.6,0.5-2.2
									C450.2,206.8,450.3,206.5,450.3,206.5z"/>
							</g>
						</g>
					</g>
				</g>
			</g>
		</g>
		<g>
			<g>
				<g>
					<g>
						<g>
							<path class="st2" d="M384.3,183.2c5.1,7.8,26,39.5,32.2,48.9c0.7,1-0.2,2.4-1.4,2.2l-37-4.7c-0.4,0-0.8-0.3-1-0.6l-35.4-48.3
								c-0.7-1,0-2.4,1.3-2.3l38.1,2.8C382.4,181.4,383.6,182.1,384.3,183.2z"/>
						</g>
					</g>
					<g>
						<g>
							<g>
								<path class="st4" d="M384.3,183.2c0,0-0.1-0.2-0.3-0.4c-0.2-0.3-0.6-0.7-1.2-1c-0.6-0.4-1.5-0.6-2.5-0.6
									c-1-0.1-2.2-0.2-3.4-0.3c-5.2-0.4-12.7-1-22-1.7c-2.3-0.2-4.7-0.4-7.3-0.6c-1.3-0.1-2.6-0.2-3.9-0.3c-0.3,0-0.6-0.1-1-0.1
									c-0.4,0-0.8,0.2-1.1,0.4c-0.6,0.5-0.7,1.5-0.3,2.2c3.2,4.4,6.7,9.1,10.3,14.1c7.3,9.9,15.2,20.8,23.6,32.3
									c0.5,0.7,1,1.4,1.6,2.2c0.2,0.2,0.4,0.4,0.7,0.4c0.3,0.1,0.5,0.1,0.7,0.1l1.3,0.2c1.7,0.2,3.5,0.4,5.2,0.7
									c3.4,0.4,6.8,0.9,10.1,1.3c6.6,0.8,13,1.6,19.2,2.4c0.4,0,0.7,0.1,1.2,0.1c0.5,0,0.9-0.2,1.2-0.5c0.3-0.3,0.5-0.8,0.5-1.2
									c0-0.4-0.2-0.9-0.4-1.2c-0.8-1.3-1.6-2.5-2.4-3.7c-1.6-2.4-3.2-4.8-4.7-7.1c-3-4.6-5.8-8.8-8.4-12.7
									c-5.1-7.7-9.3-14-12.2-18.4c-1.4-2.1-2.6-3.8-3.3-5c-0.4-0.5-0.7-1-0.9-1.3C384.4,183.3,384.3,183.2,384.3,183.2
									c0,0,0.1,0.2,0.3,0.5c0.2,0.3,0.5,0.8,0.8,1.3c0.8,1.2,1.8,2.9,3.2,5c2.9,4.4,7,10.7,12,18.5c2.5,3.9,5.3,8.2,8.3,12.7
									c1.5,2.3,3,4.7,4.6,7.1c0.8,1.2,1.6,2.5,2.4,3.7c0.2,0.3,0.3,0.6,0.4,0.9c0,0.3-0.1,0.6-0.3,0.8c-0.2,0.2-0.5,0.3-0.8,0.3
									c-0.3,0-0.7-0.1-1.1-0.1c-6.1-0.8-12.5-1.6-19.1-2.4c-3.3-0.4-6.7-0.8-10.1-1.3c-1.7-0.2-3.4-0.4-5.2-0.7l-1.3-0.2
									c-0.2,0-0.4,0-0.6-0.1c-0.2-0.1-0.3-0.2-0.4-0.3c-0.5-0.7-1-1.4-1.6-2.1c-8.4-11.4-16.4-22.3-23.7-32.3
									c-3.6-5-7.1-9.7-10.3-14.1c-0.3-0.5-0.2-1.2,0.2-1.5c0.2-0.2,0.5-0.3,0.7-0.3c0.3,0,0.6,0,1,0.1c1.3,0.1,2.6,0.2,3.9,0.3
									c2.5,0.2,5,0.4,7.3,0.5c9.3,0.6,16.8,1.2,22,1.5c1.3,0.1,2.4,0.2,3.4,0.2c1,0,1.8,0.2,2.4,0.5
									C383.9,182.5,384.3,183.2,384.3,183.2z"/>
							</g>
						</g>
					</g>
				</g>
				<g>
					<g>
						<g>
							<path class="st4" d="M341.7,180.7c0,0,0.3,0.1,0.8,0.1c0.6,0.1,1.3,0.1,2.2,0.2c2,0.2,4.9,0.4,8.4,0.7
								c7.2,0.6,17.1,1.4,28.5,2.3l-0.2-0.1c1.8,2.6,3.6,5.4,5.5,8.2c7.5,11.5,14.1,22.2,19,29.7c2.5,3.8,4.5,6.8,5.9,8.9
								c0.7,1,1.3,1.8,1.7,2.4c0.4,0.5,0.6,0.8,0.6,0.8c0,0-0.2-0.3-0.5-0.9c-0.4-0.6-0.9-1.4-1.6-2.4c-1.4-2.2-3.4-5.2-5.8-9
								c-4.9-7.6-11.4-18.2-18.9-29.8c-1.8-2.8-3.7-5.6-5.5-8.2l-0.1-0.1l-0.1,0c-11.3-0.8-21.3-1.6-28.5-2.1
								c-3.5-0.2-6.4-0.4-8.4-0.6c-0.9-0.1-1.7-0.1-2.3-0.1C341.9,180.7,341.7,180.7,341.7,180.7z"/>
						</g>
					</g>
				</g>
				<g>
					<g>
						<g>
							<path class="st6" d="M364.6,187.6C364.6,187.6,364.6,187.6,364.6,187.6C364.6,187.6,364.6,187.6,364.6,187.6L364.6,187.6z"/>
						</g>
					</g>
					<g>
						<g>
							<path class="st6" d="M363.7,188.2c0.1-0.4,0.5-0.6,0.9-0.6c0.4,0.1,0.7,0.2,1,0.6c0.3,0.3,0.5,0.9,0.2,1.3
								c-0.4,0.5-1.1,0.3-1.6-0.1C363.9,189.1,363.6,188.6,363.7,188.2z"/>
						</g>
					</g>
				</g>
			</g>
			<g>
				<g>
					<path class="st8" d="M381,215.6c0,0,1.5-3.5-2.2-3.9c-3.7-0.4-13.4,0-13.4,0s-5.3,0.6-4.2,4.4c0,0-3.1,2.8-1.5,5.8
						c1.7,3,2.4,2.1,2.4,2.1s-0.4,3.7,2.4,4.3c0,0,3,3.6,5.9,3.4c2.8-0.2,14.7-6,15.5-7.1c0.8-1.1,1.9-1.8,1.2-3
						c0,0,1.5-3.3-1.7-3.8C385.3,217.8,385.1,215,381,215.6z"/>
				</g>
			</g>
			<g>
				<g>
					<g>
						<path class="st9" d="M364.1,216.9c0,0.1,1,0.1,2.5,0.2c1.5,0,3.7,0,6,0c2.4-0.1,4.5,0,6.1-0.4c1.6-0.4,2.2-1.3,2.2-1.3
							c-0.1-0.1-0.7,0.7-2.2,0.9c-1.5,0.2-3.6,0.1-6,0.2c-2.4,0-4.5,0.1-6,0.2C365.1,216.7,364.1,216.8,364.1,216.9z"/>
					</g>
				</g>
			</g>
			<g>
				<g>
					<g>
						<path class="st9" d="M366.8,222.5c0,0,0.3,0.2,0.8,0.3c0.5,0.1,1.3,0.2,2.3,0.1c1-0.1,2.1-0.3,3.4-0.6c1.2-0.3,2.6-0.8,4-1.3
							c1.4-0.4,2.7-0.7,4-0.8c1.2-0.1,2.5,0,3.4-0.7c0.4-0.3,0.7-0.7,0.8-1.2c0.1-0.4,0-0.8-0.1-1.1c-0.3-0.5-0.7-0.6-0.7-0.5
							c0,0,0.3,0.2,0.5,0.6c0.2,0.5,0.1,1.3-0.7,1.8c-0.8,0.5-1.9,0.5-3.2,0.5c-1.3,0.1-2.7,0.4-4.1,0.8c-1.4,0.5-2.7,0.9-3.9,1.3
							c-1.2,0.4-2.3,0.6-3.3,0.7C368,222.7,366.8,222.4,366.8,222.5z"/>
					</g>
				</g>
			</g>
			<g>
				<g>
					<g>
						<path class="st9" d="M370.8,227.2c0,0.1,1-0.1,2.5-0.5c1.5-0.4,3.6-1,5.9-1.7c2.3-0.7,4.3-1.5,5.8-2.1c1.5-0.6,2.3-1,2.3-1.1
							c-0.1-0.2-3.7,1.1-8.3,2.6C374.4,225.9,370.7,227.1,370.8,227.2z"/>
					</g>
				</g>
			</g>
			<g>
				<g>
					<g>
						<path class="st9" d="M369.8,231.6c0,0.1,0.8,0,2.1-0.2c1.3-0.3,3-0.9,4.7-1.7c1.8-0.8,3.3-1.6,4.5-2.2c1.1-0.6,1.8-1,1.8-1.1
							c-0.1-0.2-3,1.1-6.5,2.8C372.9,230.8,369.8,231.5,369.8,231.6z"/>
					</g>
				</g>
			</g>
		</g>
		<g>
			<g>
				<g>
					<path class="st8" d="M488.2,198.1c0,0-7.6,30.3-17,41.5c-9.2,10.8-23.5,5.9-28.5-8.2c-5-14-13.8-46.1-13.8-46.1l10.9-8.3
						l18.8,36.4l8.5-24.8L488.2,198.1z"/>
				</g>
			</g>
			<g>
				<g>
					<g>
						<g>
							<path class="st8" d="M429.4,186.3l-8-11.6c0,0-2.6-0.6-3.4-1.1c-0.9-0.5-1.8-5.1-1.8-6c0-0.9-1.5-3-0.9-3.6
								c0.6-0.6,2.8-0.6,2.7-1.5c0-0.2-1.6-2.1-0.3-3.5c0.4-0.5,2.2-1,2.2-1l-0.1-4.4c0,0,2.4-5.2,4.8-3.3c0,0,9.2,7.1,10.1,8.2
								c0.9,1.1,4.5,15.8,5.1,18.6"/>
						</g>
					</g>
					<g>
						<g>
							<g>
								<path class="st9" d="M439.7,177.1c0,0,0-0.3-0.1-0.8c-0.1-0.6-0.3-1.3-0.5-2.2c-0.4-1.9-1.1-4.7-1.9-8.1
									c-0.4-1.7-0.9-3.6-1.5-5.6c-0.2-0.5-0.3-1-0.5-1.5c-0.2-0.6-0.7-1-1.1-1.3c-0.8-0.7-1.7-1.5-2.6-2.2c-1.8-1.5-3.7-3-5.8-4.6
									c-0.5-0.4-0.9-0.8-1.7-1.1c-0.7-0.2-1.5,0.1-2.1,0.5c-1.1,0.9-1.8,2.1-2.4,3.3l0,0.1l0,0.1c0,0.4,0,0.9,0,1.3
									c0,1,0.1,2.1,0.1,3.1l0.2-0.3c-0.6,0.1-1.1,0.3-1.6,0.5c-0.3,0.1-0.5,0.2-0.8,0.5c-0.2,0.2-0.4,0.5-0.4,0.8
									c-0.2,0.6-0.1,1.2,0.1,1.8c0.1,0.3,0.2,0.5,0.4,0.8l0.2,0.3l0,0.1c0,0,0,0,0,0c0,0,0,0.1,0,0.1c0,0.1-0.2,0.2-0.5,0.3
									c-0.2,0.1-0.5,0.2-0.7,0.2c-0.2,0.1-0.5,0.1-0.8,0.2c-0.3,0.1-0.5,0.2-0.8,0.5c-0.2,0.4-0.1,0.7,0,0.9
									c0.1,0.3,0.2,0.5,0.3,0.7c0.2,0.5,0.4,0.9,0.6,1.3c0.1,0.2,0.1,0.4,0.1,0.6c0,0.3,0,0.5,0.1,0.8c0.1,0.5,0.2,1,0.3,1.4
									c0.2,0.9,0.4,1.8,0.7,2.7c0.2,0.4,0.3,0.8,0.7,1.2c0.4,0.3,0.8,0.4,1.2,0.5c0.8,0.3,1.6,0.4,2.4,0.6l-0.1-0.1
									c2.5,3.5,4.5,6.4,5.9,8.4c0.7,0.9,1.2,1.7,1.6,2.3c0.4,0.5,0.6,0.8,0.6,0.8s-0.2-0.3-0.5-0.8c-0.4-0.6-0.9-1.4-1.5-2.3
									c-1.4-2.1-3.4-5-5.8-8.5l0-0.1l-0.1,0c-0.8-0.2-1.5-0.4-2.3-0.6c-0.4-0.1-0.8-0.3-1.1-0.5c-0.2-0.2-0.4-0.7-0.6-1
									c-0.3-0.8-0.5-1.7-0.7-2.6c-0.1-0.5-0.2-0.9-0.2-1.4c0-0.2-0.1-0.5-0.1-0.7c0-0.3-0.1-0.6-0.2-0.8c-0.2-0.5-0.4-0.9-0.6-1.4
									c-0.1-0.2-0.2-0.5-0.2-0.7c-0.1-0.2-0.1-0.5,0-0.5c0-0.1,0.3-0.2,0.5-0.3c0.2-0.1,0.5-0.2,0.7-0.2c0.2-0.1,0.5-0.1,0.8-0.3
									c0.2-0.1,0.6-0.2,0.8-0.6c0-0.1,0.1-0.2,0.1-0.3c0,0,0-0.1-0.1-0.2l-0.1-0.1l-0.2-0.3c-0.1-0.2-0.2-0.4-0.3-0.7
									c-0.2-0.5-0.3-1-0.1-1.4c0.1-0.2,0.2-0.4,0.3-0.6c0.1-0.1,0.4-0.3,0.6-0.4c0.5-0.2,1-0.4,1.5-0.5l0.2-0.1l0-0.2
									c0-1-0.1-2-0.1-3.1c0-0.5,0-0.9,0-1.3l0,0.1c0.6-1.2,1.3-2.3,2.3-3.1c0.5-0.4,1.1-0.6,1.6-0.4c0.5,0.2,1,0.6,1.5,1
									c2,1.6,3.9,3.1,5.8,4.5c0.9,0.7,1.8,1.4,2.6,2.2c0.4,0.4,0.8,0.7,1,1.2c0.2,0.5,0.4,1,0.5,1.5c0.6,2,1.1,3.8,1.6,5.5
									c0.9,3.4,1.6,6.1,2.1,8c0.2,0.9,0.4,1.6,0.6,2.2C439.6,176.8,439.7,177.1,439.7,177.1z"/>
							</g>
						</g>
					</g>
				</g>
				<g>
					<g>
						<g>
							<path class="st9" d="M419.8,158.1c0,0.1,0.9,0,2.4,0.2c0.7,0.1,1.5,0.3,2.5,0.6c1,0.2,2.1,0.1,3.2,0c2.2-0.3,4.1,0.6,5.1,1.7
								c1,1,1.1,2,1.2,2c0,0,0.1-1-0.9-2.2c-0.5-0.6-1.3-1.2-2.2-1.5c-0.9-0.4-2.1-0.5-3.3-0.4c-1.1,0.1-2.2,0.2-3.1,0
								c-0.9-0.2-1.8-0.5-2.6-0.5C420.7,157.8,419.8,158,419.8,158.1z"/>
						</g>
					</g>
				</g>
				<g>
					<g>
						<g>
							<path class="st9" d="M423.1,157.8c0.1,0.1,0.5-0.5,0.5-1.2c0-0.8-0.5-1.3-0.6-1.2c-0.1,0.1,0,0.6,0,1.2
								C423,157.3,422.9,157.8,423.1,157.8z"/>
						</g>
					</g>
				</g>
				<g>
					<g>
						<g>
							<path class="st9" d="M417.7,162.7c0,0.1,3.1,0.3,6.9-0.5c0.9-0.2,1.8-0.5,2.5-0.3c0.7,0.1,1.3,0.6,1.6,1.1
								c0.7,1,0.8,1.8,0.9,1.8c0,0,0.1-0.8-0.6-2c-0.4-0.5-1-1.2-1.9-1.4c-0.9-0.2-1.9,0.1-2.8,0.3
								C420.8,162.4,417.7,162.5,417.7,162.7z"/>
						</g>
					</g>
				</g>
				<g>
					<g>
						<g>
							<path class="st9" d="M416.4,166.9c0,0.1,0.7,0.1,1.7,0c1-0.1,2.4-0.5,4-0.8c0.8-0.1,1.5-0.3,2.1-0.2c0.6,0,1.2,0.2,1.5,0.6
								c0.8,0.6,0.7,1.4,0.8,1.3c0,0,0.1-0.2,0.1-0.5c0-0.3-0.2-0.8-0.6-1.2c-0.4-0.4-1-0.7-1.8-0.8c-0.7-0.1-1.5,0-2.3,0.2
								c-1.6,0.3-2.9,0.7-3.9,0.9C417.1,166.7,416.4,166.8,416.4,166.9z"/>
						</g>
					</g>
				</g>
				<g>
					<g>
						<g>
							<path class="st9" d="M419.2,170.2c-0.1,0.1,0.7,0.9,2.1,0.9l-0.3-0.2c0,0.3,0.1,0.5,0.1,0.7c0.2,1.6,0.5,2.9,0.7,2.9
								c0.2,0,0.1-1.4-0.1-3c0-0.2-0.1-0.5-0.1-0.7l0-0.3l-0.2,0C420.1,170.6,419.2,170.1,419.2,170.2z"/>
						</g>
					</g>
				</g>
			</g>
		</g>
		<g>
			<g>
				<g>
					<path class="st3" d="M476.2,167.4c0,0,15.5,3.8,15.5,24.3c0,20.5-4.7,30.7-4.7,30.7l-28.6-15.6l6.4-16L476.2,167.4z"/>
				</g>
			</g>
		</g>
		<g>
			<g>
				<path class="st4" d="M487,222.4c0,0-0.2-0.1-0.6-0.3c-0.4-0.2-1-0.5-1.7-0.8c-1.5-0.8-3.6-1.9-6.1-3.2
					c-5.2-2.8-12.3-6.6-20.4-11l-0.2-0.1l0.1-0.2c0.5-1.3,1-2.6,1.5-4c1.8-4.7,3.6-9.3,5.2-13.4c0.8-2.1,1.6-4,2.3-5.8
					c0.7-1.8,1.4-3.5,2.3-5c1.6-2.9,3.5-5,5.2-6c0.8-0.5,1.5-0.7,2-0.8c0.2,0,0.4-0.1,0.6-0.1c0.1,0,0.2,0,0.2,0
					c0,0.1-1.1,0.1-2.6,1.1c-1.6,1-3.4,3-4.9,6c-0.8,1.5-1.5,3.1-2.2,5c-0.7,1.8-1.4,3.8-2.2,5.9c-1.6,4.1-3.3,8.6-5.1,13.4
					c-0.5,1.4-1,2.7-1.5,4l-0.1-0.4c8,4.4,15.1,8.3,20.3,11.2c2.5,1.4,4.5,2.5,6,3.4c0.7,0.4,1.2,0.7,1.6,0.9
					C486.8,222.3,487,222.4,487,222.4z"/>
			</g>
		</g>
	</g>
	<g>
		<g>
			<g>
				<g>
					<g>
						<g>
							<g>
								<g>
									<g>
										<g>
											<g>
												<g>
													<g>
														<path class="st7" d="M107.9,456.7l-26.9,24.6l30.4,33.6c3-3.1-6.3-26.3-6.3-26.3l16.8-16.2L107.9,456.7z"/>
													</g>
												</g>
											</g>
										</g>
									</g>
								</g>
							</g>
						</g>
					</g>
					<g>
						<g>
							<g>
								<g>
									<g>
										<g>
											<g>
												<g>
													<g>
														<g>
															<path class="st6" d="M97.2,476.8c-0.8-0.5-1.9-0.3-2.4,0.5c-0.5,0.7-0.3,1.9,0.4,2.4c0.8,0.5,2.1,0.3,2.6-0.5
																c0.4-0.8,0.1-2.1-0.7-2.5"/>
														</g>
													</g>
												</g>
											</g>
										</g>
									</g>
								</g>
							</g>
						</g>
					</g>
					<g>
						<g>
							<g>
								<g>
									<g>
										<g>
											<g>
												<g>
													<g>
														<path class="st4" d="M81.1,481.3l2.8-2.6l28,33.4c0,0,0.7,2.1-0.5,2.9L81.1,481.3z"/>
													</g>
												</g>
											</g>
										</g>
									</g>
								</g>
							</g>
						</g>
					</g>
					<g>
						<g>
							<g>
								<g>
									<g>
										<g>
											<g>
												<g>
													<g>
														<g>
															<path class="st6" d="M105.8,488.9c-0.2,0.1-1-0.6-2.2-0.9c-1.2-0.4-2.3-0.1-2.4-0.3c-0.1-0.2,1.1-0.8,2.6-0.4
																C105.3,487.7,106,488.8,105.8,488.9z"/>
														</g>
													</g>
												</g>
											</g>
										</g>
									</g>
								</g>
							</g>
						</g>
					</g>
					<g>
						<g>
							<g>
								<g>
									<g>
										<g>
											<g>
												<g>
													<g>
														<g>
															<path class="st6" d="M107.6,493.8c-0.1,0.2-1-0.3-2.2-0.2c-1.2,0-2.1,0.6-2.2,0.4c-0.2-0.1,0.6-1.1,2.1-1.2
																C106.7,492.7,107.7,493.6,107.6,493.8z"/>
														</g>
													</g>
												</g>
											</g>
										</g>
									</g>
								</g>
							</g>
						</g>
					</g>
					<g>
						<g>
							<g>
								<g>
									<g>
										<g>
											<g>
												<g>
													<g>
														<g>
															<path class="st6" d="M105.2,499.6c-0.2-0.1,0.3-1,1.7-1.5c1.3-0.4,2.3,0.1,2.3,0.2c-0.1,0.2-1,0.2-2,0.5
																C106.1,499.1,105.3,499.7,105.2,499.6z"/>
														</g>
													</g>
												</g>
											</g>
										</g>
									</g>
								</g>
							</g>
						</g>
					</g>
					<g>
						<g>
							<g>
								<g>
									<g>
										<g>
											<g>
												<g>
													<g>
														<g>
															<path class="st6" d="M109.5,485c-0.2,0.1-0.7-0.9-1.6-1.8c-0.9-0.9-1.8-1.3-1.8-1.5c0-0.2,1.3,0,2.3,1
																C109.6,483.8,109.7,485,109.5,485z"/>
														</g>
													</g>
												</g>
											</g>
										</g>
									</g>
								</g>
							</g>
						</g>
					</g>
					<g>
						<g>
							<g>
								<g>
									<g>
										<g>
											<g>
												<g>
													<g>
														<g>
															<path class="st6" d="M112.8,480.6c-0.1,0.1-0.8-0.5-1.5-1.7c-0.4-0.6-0.8-1.4-1.1-2.2c-0.1-0.4-0.3-0.9-0.4-1.4
																c0-0.2-0.1-0.5-0.1-0.9c0-0.3,0.3-0.8,0.8-0.9c0.4-0.1,0.8,0.1,1,0.4c0.2,0.2,0.4,0.5,0.5,0.7
																c0.2,0.5,0.4,0.9,0.6,1.4c0.3,0.9,0.4,1.8,0.4,2.5c0,1.4-0.4,2.3-0.5,2.2c-0.1,0,0-0.9-0.1-2.2
																c-0.1-0.7-0.2-1.4-0.5-2.3c-0.2-0.4-0.3-0.8-0.6-1.2c-0.2-0.4-0.5-0.7-0.7-0.7c-0.1,0-0.1,0-0.2,0.2
																c0,0.2,0,0.4,0,0.6c0.1,0.5,0.2,0.9,0.3,1.3c0.2,0.8,0.5,1.6,0.8,2.2C112.4,479.9,112.9,480.6,112.8,480.6z"/>
														</g>
													</g>
												</g>
											</g>
										</g>
									</g>
								</g>
							</g>
						</g>
					</g>
					<g>
						<g>
							<g>
								<g>
									<g>
										<g>
											<g>
												<g>
													<g>
														<g>
															<path class="st6" d="M112.4,480.6c-0.1,0,0.2-0.9,1.2-1.9c0.5-0.5,1.2-1,2-1.4c0.4-0.2,0.9-0.4,1.4-0.5
																c0.5-0.1,1.2-0.3,1.8,0.3c0.3,0.3,0.3,0.8,0.2,1.1c-0.1,0.3-0.3,0.5-0.5,0.7c-0.3,0.4-0.7,0.8-1.1,1
																c-0.8,0.5-1.7,0.8-2.4,0.9c-1.5,0.1-2.3-0.4-2.2-0.4c0-0.1,0.9,0.2,2.2-0.1c0.6-0.1,1.4-0.4,2.1-0.9
																c0.3-0.2,0.7-0.6,0.9-0.9c0.3-0.4,0.5-0.8,0.3-0.9c-0.1-0.2-0.7-0.2-1.1-0.1c-0.5,0.1-0.9,0.2-1.3,0.4
																c-0.8,0.3-1.5,0.8-2,1.2C112.9,480,112.5,480.7,112.4,480.6z"/>
														</g>
													</g>
												</g>
											</g>
										</g>
									</g>
								</g>
							</g>
						</g>
					</g>
				</g>
			</g>
			<g>
				<g>
					<g>
						<g>
							<g>
								<g>
									<g>
										<g>
											<g>
												<g>
													<g>
														<path class="st7" d="M101.4,480.4l0.3,36.4l45.3-0.2c-0.3-4.3-23.7-12.9-23.7-12.9l0.7-23.3L101.4,480.4z"/>
													</g>
												</g>
											</g>
										</g>
									</g>
								</g>
							</g>
						</g>
					</g>
					<g>
						<g>
							<g>
								<g>
									<g>
										<g>
											<g>
												<g>
													<g>
														<g>
															<path class="st6" d="M109.3,501.8c-0.9,0.2-1.5,1.2-1.3,2.1c0.2,0.9,1.2,1.5,2.1,1.3c0.9-0.2,1.6-1.4,1.3-2.2
																c-0.3-0.9-1.5-1.5-2.3-1.1"/>
														</g>
													</g>
												</g>
											</g>
										</g>
									</g>
								</g>
							</g>
						</g>
					</g>
					<g>
						<g>
							<g>
								<g>
									<g>
										<g>
											<g>
												<g>
													<g>
														<path class="st4" d="M101.8,516.8l-0.1-3.9l43.5,1.5c0,0,2,0.9,1.8,2.3L101.8,516.8z"/>
													</g>
												</g>
											</g>
										</g>
									</g>
								</g>
							</g>
						</g>
					</g>
					<g>
						<g>
							<g>
								<g>
									<g>
										<g>
											<g>
												<g>
													<g>
														<g>
															<path class="st6" d="M124,503.4c0,0.2-1.1,0.3-2.2,1c-1.1,0.7-1.7,1.6-1.9,1.6c-0.2,0,0.1-1.4,1.4-2.2
																C122.7,503,124.1,503.2,124,503.4z"/>
														</g>
													</g>
												</g>
											</g>
										</g>
									</g>
								</g>
							</g>
						</g>
					</g>
					<g>
						<g>
							<g>
								<g>
									<g>
										<g>
											<g>
												<g>
													<g>
														<g>
															<path class="st6" d="M128.8,505.4c0.1,0.2-0.9,0.6-1.7,1.5c-0.8,0.9-1,1.9-1.2,1.9c-0.2,0-0.4-1.3,0.6-2.4
																C127.5,505.3,128.8,505.2,128.8,505.4z"/>
														</g>
													</g>
												</g>
											</g>
										</g>
									</g>
								</g>
							</g>
						</g>
					</g>
					<g>
						<g>
							<g>
								<g>
									<g>
										<g>
											<g>
												<g>
													<g>
														<g>
															<path class="st6" d="M131.5,511c-0.2,0-0.5-1.1,0-2.3c0.6-1.2,1.6-1.7,1.7-1.5c0.1,0.2-0.5,0.8-1,1.8
																C131.8,510.1,131.7,511,131.5,511z"/>
														</g>
													</g>
												</g>
											</g>
										</g>
									</g>
								</g>
							</g>
						</g>
					</g>
					<g>
						<g>
							<g>
								<g>
									<g>
										<g>
											<g>
												<g>
													<g>
														<g>
															<path class="st6" d="M123.6,498.1c-0.1,0.2-1.1-0.1-2.4,0c-1.3,0.1-2.2,0.5-2.3,0.3c-0.1-0.2,0.8-1,2.3-1.1
																C122.7,497.2,123.7,497.9,123.6,498.1z"/>
														</g>
													</g>
												</g>
											</g>
										</g>
									</g>
								</g>
							</g>
						</g>
					</g>
				</g>
			</g>
			<g>
				<g>
					<g>
						<g>
							<g>
								<g>
									<g>
										<g>
											<path class="st4" d="M103.7,272.8c0,0-6.3,6.8-9.5,13.3c-3.1,6.5-7.9,20.4-7.9,20.4s-6,21.2-4.6,31.2
												c1.3,10,10.3,78.3,10.3,78.3s-1.8,54.1,5.9,78.2l1.4,6.4l25.5-4.5l0,0l0,0l5.7-134l15.6-88.6L103.7,272.8z"/>
										</g>
									</g>
								</g>
							</g>
						</g>
					</g>
					<g>
						<g>
							<g>
								<g>
									<g>
										<g>
											<g>
												<path class="st7" d="M136.3,278.5c-0.1,0-0.1-0.8-1-1.5c-0.4-0.3-1.1-0.4-1.7-0.2c-0.6,0.2-1.2,0.9-1.1,1.7
													c0,0.8,0.6,1.5,1.2,1.7c0.6,0.2,1.3,0.1,1.7-0.2C136.2,279.4,136.2,278.5,136.3,278.5c0,0,0.1,0.2,0.1,0.5
													c0,0.3-0.2,0.9-0.7,1.3c-0.5,0.4-1.3,0.7-2.2,0.4c-0.9-0.3-1.6-1.1-1.6-2.2c0-1.1,0.7-2,1.6-2.3
													c0.9-0.3,1.7-0.1,2.2,0.4c0.5,0.4,0.7,0.9,0.8,1.3C136.4,278.3,136.3,278.5,136.3,278.5z"/>
											</g>
										</g>
									</g>
								</g>
							</g>
						</g>
					</g>
					<g>
						<g>
							<g>
								<g>
									<g>
										<path class="st4" d="M165.9,291.2c0,0,9.4,84.9,10.7,99.5c1.3,14.6-51.6,92.4-51.6,92.4l-22.3-26.4l34.1-63.4l-11.5-63.1
											l15.1-56.9l23.5,0.3L165.9,291.2z"/>
									</g>
								</g>
							</g>
						</g>
					</g>
				</g>
				<g>
					<g>
						<g>
							<g>
								<g>
									<g>
										<path class="st7" d="M93.9,473.7c0,0,0,0.6,0.2,1.9c0.2,1.2,0.5,3,0.9,5.3c0.8,4.6,2.2,11.3,4.1,19.7l0,0.2l0.2,0
											c7.2-1.3,15.9-2.8,25.5-4.5l0.2,0l0-0.2c0.7-17.5,1.6-38.5,2.5-60.9c0.9-24.2,1.8-46.6,2.5-64.9l0,0
											c1.9-14.8,3.5-27,4.6-35.5c0.5-4.2,1-7.6,1.2-9.9c0.1-1.1,0.2-2,0.3-2.6c0.1-0.6,0.1-0.9,0.1-0.9s-0.1,0.3-0.2,0.9
											c-0.1,0.6-0.2,1.5-0.4,2.6c-0.3,2.3-0.8,5.6-1.4,9.9c-1.2,8.5-2.8,20.7-4.8,35.5l0,0l0,0c-0.7,18.4-1.7,40.8-2.6,64.9
											c-0.9,22.5-1.7,43.4-2.4,60.9l0.2-0.2c-9.7,1.7-18.3,3.3-25.5,4.6l0.2,0.1c-1.9-8.4-3.3-15.1-4.2-19.7
											c-0.5-2.3-0.8-4.1-1-5.3c-0.1-0.6-0.2-1.1-0.2-1.4C94,473.8,93.9,473.7,93.9,473.7z"/>
									</g>
								</g>
							</g>
						</g>
					</g>
				</g>
			</g>
			<g>
				<g>
					<path class="st7" d="M132.6,307.4c0,0,0.5,0,1.4,0.1c0.9,0,2.3,0.2,3.6-0.6c0.7-0.4,1.2-1.1,1.4-1.9c0.3-0.9,0.3-1.9,0.4-2.9
						c0.2-2.1,0.4-4.4,0.5-6.9c0.3-4.9,0.5-9.3,0.6-12.6c0.1-1.5,0.1-2.8,0.1-3.8c0-0.9,0.1-1.4,0.1-1.4c0,0,0.1,0.5,0.1,1.4
						c0,0.9,0.1,2.2,0.1,3.8c0,3.2-0.1,7.7-0.4,12.6c-0.2,2.5-0.4,4.8-0.6,6.9c-0.1,1.1-0.2,2.1-0.5,3c-0.3,0.9-0.9,1.7-1.7,2.1
						c-0.7,0.4-1.5,0.5-2.2,0.6c-0.7,0-1.2,0-1.7-0.1C133,307.5,132.6,307.4,132.6,307.4z"/>
				</g>
			</g>
			<g>
				<g>
					<path class="st7" d="M164.9,291.3c0,0.1-1-0.4-2.4-1.3c-1.4-0.9-3.3-2.4-5-4.4c-1.7-2-3-4-3.7-5.5c-0.7-1.5-1-2.6-1-2.6
						c0.2-0.1,1.7,3.9,5.1,7.7C161.3,289.1,165,291.1,164.9,291.3z"/>
				</g>
			</g>
		</g>
		<g>
			<g>
				<g>
					<g>
						<g>
							<path class="st3" d="M84.5,196.2l10.2,36.9l4.5,19.7c0,16.9-4.5,24.6-4.5,24.6l69.2-3.5c0,0,1.1-46.9,0-55.7l-8.4-30.7
								l-22-5.4l-27.4,0.5L84.5,196.2z"/>
						</g>
					</g>
				</g>
				<g>
					<g>
						<g>
							<path class="st4" d="M179.7,248.2c-0.1,0-0.2-0.7-0.3-1.8c0-1.1,0.2-2.7,0.8-4.4c0.6-1.6,1.5-3,2.3-3.8
								c0.8-0.9,1.3-1.3,1.4-1.2c0.1,0.1-2,2-3.1,5.2C179.5,245.4,179.8,248.2,179.7,248.2z"/>
						</g>
					</g>
				</g>
				<g>
					<path class="st3" d="M200.7,223.9l-18,10.7l-10.2-26.1c0,0-1.3-3.2-5.9-11.2c-6-10.5-13.6-9.9-13.6-9.9l-9.1,13.6l9.7,20.8
						c0,0,5.9,38.6,17.4,41.6C188.5,267.9,200.7,223.9,200.7,223.9L200.7,223.9z"/>
				</g>
			</g>
			<g class="st10">
				<g>
					<path d="M88.4,300.6c8.1-0.3,16.6-3.8,23.6-8c7-4.2,13.4-9.3,20-14.1c15.8-11.4,47.3-36.5,62-49.4l-4.3,1l-98.9,64L88.4,300.6z
						"/>
				</g>
			</g>
			<g>
				<g>
					<path class="st4" d="M164.2,263.7c0,0,0-0.2-0.1-0.7c0-0.5,0-1.2,0-2c0-1.8,0-4.2,0-7.2c0-6.1,0.1-14.5,0.1-23.7
						c0-2.3,0.1-4.6-0.1-6.7c-0.1-2.2-0.4-4.2-0.9-6.2c-0.8-3.9-2.7-7-4.3-9.6c-1.5-2.6-2.8-4.7-3.5-6.3c-0.4-0.8-0.6-1.4-0.8-1.8
						c-0.2-0.4-0.2-0.6-0.2-0.7c0,0,0.1,0.2,0.3,0.6c0.2,0.4,0.5,1,0.9,1.7c0.8,1.5,2.1,3.6,3.7,6.2c1.6,2.6,3.5,5.7,4.4,9.7
						c0.5,2,0.8,4.1,0.9,6.3c0.2,2.2,0.1,4.5,0.1,6.8c-0.1,9.2-0.2,17.6-0.3,23.7c-0.1,3-0.1,5.4-0.2,7.2c0,0.8-0.1,1.4-0.1,2
						C164.2,263.4,164.2,263.7,164.2,263.7z"/>
				</g>
			</g>
		</g>
		<g>
			<g>
				<path class="st4" d="M157.5,155.8c-1.7,0.2-3.4-0.6-4.3-1.9c1.1,0.2,2.3,0.3,3.3-0.2c1-0.5,1.6-2,0.8-2.8
					c-0.6-0.6-1.6-0.5-2.5-0.6c-2.1-0.2-4-1.6-4.6-3.6c-0.7-2.1-0.1-4.5,0.2-6.7c0.8-6.6-2.3-13.4-7.8-17.2l-14.1-8.2
					c-5.1,6.6-6.7,15.4-5.7,23.7c1.1,8.3,4.6,16,8.8,23.2c1.2,2.1,2.5,4.2,4.3,5.9c1.7,1.7,3.9,3,6.4,3.3c0.6-2,0.2-4.3-1-5.9
					c3.8,0.2,7.7-1.2,10.5-3.8c-1-0.8-2-1.5-3-2.3C151.8,159.1,155.1,158,157.5,155.8z"/>
			</g>
			<g>
				<g>
					<g>
						<g>
							<g>
								<g>
									<g>
										<path class="st11" d="M103,132.8c0.2-5.9,3.9-10.9,9.6-12.5l17.7-5.1c7.7-1.1,13.1,8.3,13.8,16c0.8,8.6,1.4,17.7,0.6,24.1
											c-1.7,13-11.5,14.9-11.5,14.9c0,0,0.2,5.9,0.3,9.7l-0.2,28.8l-26.2-28.3l-4.3-47.6C102.9,132.7,103,133.1,103,132.8z"/>
									</g>
								</g>
							</g>
							<g>
								<g>
									<g>
										<g>
											<g>
												<g>
													<g>
														<g>
															<g>
																<g>
																	<g>
																		<g>
																			<g>
																				<g>
																					<g>
																						<g>
																							<g>
																								<g>
																									<path class="st4" d="M142,141.1c0.1,0.9-0.6,1.6-1.5,1.7c-0.9,0.1-1.7-0.6-1.8-1.4
																										c-0.1-0.9,0.6-1.6,1.5-1.7C141.1,139.6,141.9,140.2,142,141.1z"/>
																								</g>
																							</g>
																						</g>
																					</g>
																				</g>
																			</g>
																		</g>
																	</g>
																</g>
															</g>
														</g>
													</g>
												</g>
											</g>
										</g>
									</g>
								</g>
							</g>
							<g>
								<g>
									<g>
										<g>
											<g>
												<g>
													<g>
														<g>
															<g>
																<g>
																	<g>
																		<g>
																			<g>
																				<g>
																					<g>
																						<g>
																							<g>
																								<g>
																									<g>
																										<path class="st4" d="M142.4,136.4c-0.2,0.2-1.5-0.7-3.3-0.6c-1.8,0-3.1,1-3.3,0.8
																											c-0.1-0.1,0.1-0.5,0.7-0.9c0.5-0.4,1.5-0.9,2.6-0.9c1.1,0,2.1,0.4,2.6,0.8
																											C142.3,135.9,142.5,136.3,142.4,136.4z"/>
																									</g>
																								</g>
																							</g>
																						</g>
																					</g>
																				</g>
																			</g>
																		</g>
																	</g>
																</g>
															</g>
														</g>
													</g>
												</g>
											</g>
										</g>
									</g>
								</g>
							</g>
							<g>
								<g>
									<g>
										<g>
											<g>
												<g>
													<g>
														<g>
															<g>
																<g>
																	<g>
																		<g>
																			<g>
																				<g>
																					<g>
																						<g>
																							<g>
																								<g>
																									<path class="st4" d="M126.3,141.1c0.1,0.9-0.6,1.6-1.5,1.7c-0.9,0.1-1.7-0.6-1.8-1.4
																										c-0.1-0.9,0.6-1.6,1.5-1.7C125.5,139.6,126.3,140.3,126.3,141.1z"/>
																								</g>
																							</g>
																						</g>
																					</g>
																				</g>
																			</g>
																		</g>
																	</g>
																</g>
															</g>
														</g>
													</g>
												</g>
											</g>
										</g>
									</g>
								</g>
							</g>
							<g>
								<g>
									<g>
										<g>
											<g>
												<g>
													<g>
														<g>
															<g>
																<g>
																	<g>
																		<g>
																			<g>
																				<g>
																					<g>
																						<g>
																							<g>
																								<g>
																									<g>
																										<path class="st4" d="M125.5,136.8c-0.2,0.2-1.5-0.7-3.3-0.6c-1.8,0-3.1,1-3.3,0.8
																											c-0.1-0.1,0.1-0.5,0.7-0.9c0.5-0.4,1.5-0.9,2.6-0.9c1.1,0,2.1,0.4,2.6,0.8
																											C125.4,136.3,125.6,136.7,125.5,136.8z"/>
																									</g>
																								</g>
																							</g>
																						</g>
																					</g>
																				</g>
																			</g>
																		</g>
																	</g>
																</g>
															</g>
														</g>
													</g>
												</g>
											</g>
										</g>
									</g>
								</g>
							</g>
							<g>
								<g>
									<g>
										<g>
											<g>
												<g>
													<g>
														<g>
															<g>
																<g>
																	<g>
																		<g>
																			<g>
																				<g>
																					<g>
																						<g>
																							<g>
																								<g>
																									<g>
																										<path class="st4" d="M131.4,150.7c0-0.1,1.1-0.3,2.9-0.6c0.5-0.1,0.9-0.2,0.9-0.5
																											c0.1-0.3-0.1-0.8-0.3-1.3c-0.5-1.1-0.9-2.2-1.5-3.4c-2-4.9-3.5-8.9-3.3-9c0.2-0.1,2,3.8,4,8.7
																											c0.5,1.2,1,2.3,1.4,3.4c0.2,0.5,0.5,1.1,0.3,1.8c-0.1,0.3-0.4,0.6-0.7,0.7c-0.3,0.1-0.5,0.1-0.8,0.1
																											C132.6,150.7,131.5,150.8,131.4,150.7z"/>
																									</g>
																								</g>
																							</g>
																						</g>
																					</g>
																				</g>
																			</g>
																		</g>
																	</g>
																</g>
															</g>
														</g>
													</g>
												</g>
											</g>
										</g>
									</g>
								</g>
							</g>
							<g>
								<g>
									<g>
										<g>
											<g>
												<g>
													<g>
														<path class="st12" d="M116,166.2c0,0,4.5,8.8,17.3,7.1l-0.1-3C133.3,170.3,124.8,171.1,116,166.2z"/>
													</g>
												</g>
											</g>
										</g>
									</g>
								</g>
							</g>
							<g>
								<g>
									<g>
										<g>
											<g>
												<g>
													<g>
														<g>
															<g>
																<g>
																	<g>
																		<g>
																			<g>
																				<g>
																					<g>
																						<path class="st4" d="M124.7,131.1c-0.2,0.5-1.9,0.3-4,0.6c-2.1,0.3-3.8,0.9-4,0.5c-0.1-0.2,0.1-0.7,0.8-1.2
																							c0.7-0.5,1.7-1,3-1.1c1.3-0.2,2.4,0,3.2,0.3C124.4,130.5,124.8,130.9,124.7,131.1z"/>
																					</g>
																				</g>
																			</g>
																		</g>
																	</g>
																</g>
															</g>
														</g>
													</g>
												</g>
											</g>
										</g>
									</g>
								</g>
							</g>
							<g>
								<g>
									<g>
										<g>
											<g>
												<g>
													<g>
														<g>
															<g>
																<g>
																	<g>
																		<g>
																			<g>
																				<g>
																					<g>
																						<path class="st4" d="M141.7,130.9c-0.3,0.4-1.5,0-3,0.1c-1.5,0-2.7,0.4-3-0.1c-0.1-0.2,0.1-0.6,0.6-1
																							c0.5-0.4,1.4-0.7,2.4-0.7c1,0,1.9,0.3,2.4,0.7C141.6,130.3,141.8,130.7,141.7,130.9z"/>
																					</g>
																				</g>
																			</g>
																		</g>
																	</g>
																</g>
															</g>
														</g>
													</g>
												</g>
											</g>
										</g>
									</g>
								</g>
							</g>
						</g>
					</g>
					<g>
						<g>
							<g>
								<path class="st12" d="M124.8,154.2c0.2-1.1,1.3-1.9,2.4-1.8c0.8,0.1,1.5,0.6,1.9,1.3c0.4,0.7,0.4,1.6,0.2,2.3l0,0.2
									c-0.7,0.8-2,1.1-3,0.7C125.2,156.4,124.6,155.2,124.8,154.2z"/>
							</g>
						</g>
					</g>
					<g>
						<g>
							<g>
								<g>
									<g>
										<g>
											<g>
												<g>
													<g>
														<g>
															<g>
																<path class="st4" d="M130.5,156.1c0-0.3-1.8-0.1-3.2-1.6c-1.4-1.4-1.4-3.4-1.6-3.4c-0.1,0-0.3,0.5-0.3,1.3
																	c0,0.8,0.4,1.9,1.2,2.8c0.9,0.9,1.9,1.2,2.7,1.2C130,156.4,130.5,156.2,130.5,156.1z"/>
															</g>
														</g>
													</g>
												</g>
											</g>
										</g>
									</g>
								</g>
							</g>
						</g>
					</g>
				</g>
			</g>
			<g>
				<path class="st4" d="M109,112.2c2-3.2,6.7-6.5,10.4-7.1c4.2-0.7,6.7,0,9.5,2.5c0,0,2.2,2.1,4.2,2.5c2,0.4,3.7,0.1,6.1,1.3
					c3.3,1.7,4.7,6.1,6.2,9.4c1.9,4.2,4.6,8,5.8,12.4c1.2,4.4,0.6,9.8-3.1,12.5c0.7-3.8,1.3-8-0.8-11.2c-1.6-2.5-4.4-3.8-6.4-5.9
					c-2.4-2.5-2.8-6-5.3-8.4C129.7,114.7,119.4,124.4,109,112.2"/>
			</g>
			<g>
				<path class="st4" d="M146.1,129.8c-1.5-3.7-3.2-7.4-5.8-10.4c-3.2-3.8-7.9-6.3-12.8-6.9c-4.9-0.6-10.1,0.6-14.2,3.5l-1,0.1
					c3.2,4,8.2,6.4,13.3,6.4c3,0,6.3-0.8,8.9,0.8c2.5,1.5,3.5,4.7,5.5,6.7c1.4,1.4,3.3,2.3,4.6,3.7c1.4,1.5,2.2,3.6,2.9,5.6
					C148.5,136.1,147.3,132.8,146.1,129.8z"/>
			</g>
			<g>
				<path class="st4" d="M118.9,118.5l-8.3-7.3c-6.5-0.3-10.6,5.8-12.8,10.5c-1.6,3.5-2.2,7.4-3.4,11.1c-1.3,3.8-3.3,7.2-4.5,11
					c-1.2,3.8-1.3,8.2,1,11.5c0.5-0.9,1-1.8,1.4-2.7c0.2,3.7,1.8,7.2,4.3,9.9c0.2-0.9,0.4-1.8,0.6-2.8c1.3,2.8,3.5,5.2,6.2,6.7
					l3.9,10.4C113.1,159.4,98.4,158,118.9,118.5z"/>
			</g>
			<g>
				<path class="st4" d="M117.7,120c-0.5,2.4-1,4.7-1.9,6.9c-0.9,2.2-2.3,4.3-4.3,5.7c-2.8,2.1-6.5,2.5-9.9,3.3
					c-3.4,0.8-7,2.4-8.4,5.6c0.6-4.7,1.5-9.4,2.9-13.9c1.5-5,3.7-10.1,7.9-13.2c3.8-2.9,9.1-3.7,13.6-2"/>
			</g>
			<g>
				<g>
					<g>
						<g>
							<g>
								<g>
									<g>
										<g>
											<g>
												<g>
													<g>
														<g>
															<g>
																<g>
																	<g>
																		<g>
																			<g>
																				<g>
																					<g>
																						<g>
																							<g>
																								<g>
																									<path class="st11" d="M108.9,142.8c-0.2-0.4-8.2-3.1-8.1,5.4c0.1,8.2,8.4,6.4,8.4,6.1
																										C109.3,154.1,108.9,142.8,108.9,142.8z"/>
																								</g>
																							</g>
																						</g>
																					</g>
																				</g>
																			</g>
																		</g>
																	</g>
																</g>
															</g>
														</g>
													</g>
												</g>
											</g>
										</g>
									</g>
								</g>
							</g>
						</g>
					</g>
					<g>
						<g>
							<g>
								<g>
									<g>
										<g>
											<g>
												<g>
													<g>
														<g>
															<g>
																<g>
																	<g>
																		<g>
																			<g>
																				<g>
																					<g>
																						<g>
																							<g>
																								<g>
																									<g>
																										<path class="st12" d="M106.6,151.2c0,0-0.1,0.1-0.4,0.2c-0.2,0.1-0.6,0.2-1.1,0c-0.9-0.3-1.6-1.7-1.7-3.1
																											c0-0.7,0.1-1.5,0.4-2.1c0.2-0.6,0.6-1,1.1-1.1c0.4-0.1,0.7,0.1,0.9,0.4c0.1,0.2,0.1,0.4,0.1,0.4
																											c0,0,0.2-0.1,0.1-0.5c0-0.2-0.1-0.4-0.3-0.5c-0.2-0.2-0.5-0.2-0.8-0.2c-0.6,0.1-1.2,0.6-1.5,1.3
																											c-0.3,0.7-0.5,1.5-0.5,2.3c0.1,1.7,1,3.2,2.2,3.5c0.6,0.1,1.1,0,1.3-0.2
																											C106.6,151.4,106.7,151.3,106.6,151.2z"/>
																									</g>
																								</g>
																							</g>
																						</g>
																					</g>
																				</g>
																			</g>
																		</g>
																	</g>
																</g>
															</g>
														</g>
													</g>
												</g>
											</g>
										</g>
									</g>
								</g>
							</g>
						</g>
					</g>
				</g>
				<g>
					<g>
						<g>
							<g>
								<g>
									<g>
										<g>
											<g>
												<path class="st6" d="M105.8,152.7c-0.8-0.1-1.7,0.5-1.8,1.2c-0.2,0.8,0.4,1.7,1.1,1.9c0.8,0.2,1.7-0.2,2-1
													c0.3-0.8-0.1-1.7-0.9-2"/>
											</g>
										</g>
									</g>
								</g>
							</g>
						</g>
					</g>
					<g>
						<g>
							<g>
								<g>
									<g>
										<g>
											<g>
												<g>
													<path class="st4" d="M106.1,152.8c0,0.1,0.5,0.3,0.8,1.1c0.1,0.4,0.1,0.9-0.3,1.3c-0.3,0.4-1,0.6-1.5,0.5
														c-0.6-0.2-1-0.7-1-1.2c-0.1-0.5,0.2-1,0.4-1.3c0.6-0.6,1.2-0.4,1.2-0.5c0,0-0.1-0.1-0.4-0.1c-0.3,0-0.6,0.1-1,0.4
														c-0.4,0.3-0.7,0.8-0.6,1.5c0.1,0.6,0.5,1.3,1.3,1.5c0.7,0.2,1.5-0.1,1.9-0.6c0.4-0.5,0.4-1.2,0.3-1.6
														c-0.2-0.4-0.4-0.7-0.7-0.9C106.3,152.8,106.2,152.8,106.1,152.8z"/>
												</g>
											</g>
										</g>
									</g>
								</g>
							</g>
						</g>
					</g>
				</g>
			</g>
			<g>
				<g>
					<path class="st7" d="M118.3,120.5c-0.2,0.1-0.9-2.7-3.2-5.3c-2.3-2.6-4.9-3.7-4.8-3.9c0-0.1,0.7,0.1,1.7,0.7
						c1,0.6,2.3,1.5,3.5,2.8c1.2,1.3,1.9,2.8,2.3,3.8C118.2,119.8,118.3,120.5,118.3,120.5z"/>
				</g>
			</g>
		</g>
		<g>
			<g>
				<g>
					<path class="st4" d="M324.8,146.2c0,0,0.1,0.3,0.2,1c0.1,0.7,0.4,1.6,0.5,2.9c0.4,2.5,0.8,6.2,0.9,10.8c0,4.6-0.4,10.1-1.7,16
						c-0.6,3-1.5,6.1-2.6,9.2c-1.1,3.1-2.5,6.3-4.2,9.3c-1.7,3.1-3.7,5.9-5.7,8.5c-2.1,2.6-4.3,4.9-6.5,6.9
						c-4.5,4.1-9.1,7.2-13.1,9.3c-4.1,2.1-7.6,3.5-10,4.1c-1.2,0.4-2.2,0.6-2.9,0.7c-0.7,0.1-1,0.2-1,0.2s0.3-0.1,1-0.3
						c0.6-0.2,1.6-0.4,2.8-0.8c2.4-0.8,5.9-2.1,9.9-4.3c4-2.2,8.5-5.3,12.9-9.3c2.2-2.1,4.4-4.4,6.5-6.9c2-2.6,4-5.4,5.7-8.4
						c1.7-3,3-6.2,4.2-9.2c1.1-3.1,2-6.1,2.6-9.1c1.3-5.9,1.8-11.3,1.8-15.9c0-4.6-0.3-8.3-0.7-10.8c-0.1-1.3-0.4-2.2-0.4-2.9
						C324.8,146.6,324.8,146.2,324.8,146.2z"/>
				</g>
			</g>
			<g>
				<g>
					<g>
						<path class="st4" d="M330.8,133.9c-9.7-17.2-25.5-29.5-44.4-34.8c-19-5.3-38.9-2.9-56,6.8c-13.5,7.6-24.1,19.1-30.6,33.1
							c-10,21.6-9,46.7,2.6,67.4c9.7,17.2,25.5,29.5,44.4,34.8c6.6,1.8,13.3,2.7,19.9,2.7c12.5,0,24.9-3.2,36.1-9.6
							c17.1-9.7,29.5-25.5,34.8-44.4C342.9,170.9,340.5,151.1,330.8,133.9z M284.5,105.8c17.2,4.8,31.5,16,40.2,31.5
							c10.5,18.7,11.4,41.5,2.4,61c-5.9,12.7-15.5,23.1-27.7,30c-15.5,8.8-33.6,11-50.7,6.2c-17.2-4.8-31.5-16-40.2-31.5
							c-8.8-15.5-11-33.6-6.2-50.7c4.8-17.2,16-31.5,31.5-40.2c10.2-5.7,21.4-8.7,32.7-8.7C272.5,103.4,278.6,104.2,284.5,105.8z"/>
					</g>
				</g>
				<g>
					<g>
						<path class="st4" d="M210,193.4c0,0-0.1-0.2-0.3-0.5c-0.2-0.4-0.4-1-0.7-1.6c-0.3-0.7-0.7-1.6-1-2.6c-0.4-1-0.8-2.2-1.2-3.5
							c-0.2-0.7-0.4-1.4-0.6-2.1c-0.2-0.7-0.3-1.5-0.5-2.3c-0.4-1.6-0.6-3.3-0.8-5.1c-0.4-3.6-0.5-7.6-0.2-11.8
							c0.4-4.2,1.2-8.1,2.2-11.6c0.6-1.7,1.1-3.4,1.7-4.9c0.3-0.7,0.6-1.5,0.9-2.2c0.3-0.7,0.6-1.3,0.9-1.9c0.6-1.3,1.2-2.3,1.8-3.3
							c0.5-1,1-1.7,1.5-2.4c0.4-0.6,0.7-1.1,1-1.5c0.2-0.3,0.4-0.5,0.4-0.5c0,0-0.1,0.2-0.3,0.6c-0.2,0.4-0.5,0.9-0.9,1.5
							c-0.4,0.6-0.9,1.4-1.4,2.4c-0.5,1-1.1,2-1.7,3.3c-0.3,0.6-0.6,1.3-0.9,2c-0.3,0.7-0.6,1.4-0.9,2.2c-0.6,1.5-1.1,3.1-1.6,4.9
							c-1,3.5-1.8,7.4-2.1,11.5c-0.3,4.2-0.2,8.1,0.1,11.7c0.2,1.8,0.4,3.5,0.8,5.1c0.2,0.8,0.3,1.6,0.5,2.3
							c0.2,0.7,0.4,1.4,0.5,2.1c0.3,1.3,0.7,2.5,1.1,3.5c0.3,1,0.7,1.9,0.9,2.6c0.3,0.7,0.5,1.2,0.6,1.6
							C209.9,193.2,210,193.4,210,193.4z"/>
					</g>
				</g>
				<g>
					<g>
						<path class="st4" d="M220.1,206c-0.1,0.1-1.3-0.4-2.4-1.4c-1.1-1.1-1.7-2.2-1.6-2.3c0.1-0.1,0.9,0.8,2,1.8
							C219.2,205.2,220.2,205.9,220.1,206z"/>
					</g>
				</g>
				<g>
					<g>
						<g>
							<g>
								<g>
									<g>
										<g>
											<g>
												<g>
													<path class="st7" d="M199.7,133.4c6.2-13.3,16.4-24.9,30.2-32.6c16.9-9.5,36.5-11.9,55.2-6.7
														c18.7,5.2,34.3,17.4,43.8,34.3c19.7,34.9,7.3,79.3-27.6,99l0,0c-16.9,9.5-36.5,11.9-55.2,6.7
														c-18.7-5.2-34.3-17.4-43.8-34.3C190.3,178.6,190.2,153.9,199.7,133.4z M327.1,192.7c8.9-19.2,8.8-42.2-2.4-62
														c-8.9-15.8-23.4-27.1-40.9-32c-17.5-4.9-35.8-2.6-51.5,6.3c-15.8,8.9-27.1,23.4-32,40.9c-4.9,17.5-2.6,35.8,6.3,51.5
														c8.9,15.8,23.4,27.1,40.9,32c17.5,4.9,35.8,2.6,51.5-6.3C311.7,215.9,321.3,205.1,327.1,192.7z"/>
													<path class="st7" d="M265.7,237.9c-6.7,0-13.3-0.9-19.9-2.7c-19-5.3-34.8-17.7-44.5-34.8
														c-11.7-20.7-12.6-45.9-2.6-67.5c6.5-14.1,17.1-25.5,30.6-33.2c17.2-9.7,37.1-12.1,56.1-6.8c19,5.3,34.8,17.7,44.5,34.9
														c20,35.5,7.4,80.6-28,100.6C290.7,234.7,278.3,237.9,265.7,237.9z M265.5,92.5c-12.2,0-24.2,3.1-35,9.3
														c-13.1,7.4-23.3,18.5-29.7,32.1c-9.7,20.9-8.8,45.3,2.5,65.4c9.4,16.6,24.7,28.6,43.1,33.8c18.4,5.1,37.7,2.8,54.4-6.6
														c34.4-19.4,46.5-63.1,27.1-97.5c-9.4-16.6-24.7-28.6-43.1-33.8C278.4,93.3,271.9,92.5,265.5,92.5z M265.7,233
														c-6.2,0-12.5-0.8-18.6-2.6c-17.8-4.9-32.5-16.5-41.6-32.6c-9.1-16-11.3-34.7-6.4-52.4c4.9-17.8,16.5-32.5,32.6-41.6
														c16-9.1,34.7-11.3,52.4-6.4c17.8,4.9,32.5,16.5,41.6,32.6c10.9,19.3,11.8,42.8,2.4,63l0,0c-6.1,13.1-16,23.8-28.6,31
														C289,230,277.4,233,265.7,233z M265.5,97.3c-11.3,0-22.5,2.9-32.7,8.6c-15.5,8.8-26.7,23-31.5,40.2
														c-4.8,17.2-2.6,35.1,6.2,50.7c8.8,15.5,23,26.7,40.2,31.5c17.2,4.8,35.1,2.6,50.7-6.2c12.2-6.9,21.8-17.2,27.6-29.9
														l0,0c9-19.5,8.2-42.3-2.4-60.9c-8.8-15.5-23-26.7-40.2-31.5C277.5,98.1,271.5,97.3,265.5,97.3z"/>
												</g>
											</g>
										</g>
									</g>
								</g>
							</g>
							<g>
								<g>
									<g>
										<g>
											<g>
												<g>
													<path class="st7" d="M62.7,300.8l-1.3-2.1c-2.8-4.4,0.4-11.5,3.5-13.4L202,198.8c0.7-0.4,1.8,0,2.4,1l9.2,14.6
														c0.6,1,0.6,2.1-0.1,2.6L77.1,303C74,304.9,65.5,305.3,62.7,300.8z"/>
												</g>
											</g>
										</g>
									</g>
								</g>
							</g>
						</g>
					</g>
				</g>
			</g>
			<g>
				<g>
					<g>
						<g>
							<path class="st11" d="M190.5,232l4.2-4.4c0,0-0.5-10,1.2-12.5l0.9-1.5c0,0-0.9-4.9,1.7-6c0.7-1.8,1.7-2.6,3-1.6
								c0,0-0.7-3.7,2.7-4.2c3.4-0.5,4.4,15,4.4,15s1.7,7-2.2,7c0,0-2.2,2.4-4.6,2.7c0,0-0.7,4.2-4.2,3.9L190.5,232z"/>
						</g>
					</g>
				</g>
				<g>
					<g>
						<g>
							<g>
								<path class="st12" d="M201.2,224.8c0,0,0.2,0.1,0.4,0.5c0.2,0.4,0.3,1,0.2,1.7c-0.1,0.7-0.5,1.6-1.3,2.2
									c-0.7,0.7-1.7,1.1-2.7,1.5c-2.1,0.7-4,1-5.5,1.1c-1.4,0.1-2.3-0.1-2.3-0.1c0-0.2,3.5,0,7.6-1.5c1-0.3,1.9-0.8,2.6-1.4
									c0.7-0.6,1.1-1.3,1.2-1.9C201.7,225.6,201.1,224.8,201.2,224.8z"/>
							</g>
						</g>
					</g>
				</g>
				<g>
					<g>
						<g>
							<g>
								<path class="st12" d="M204.2,219.2c-0.2,0-0.2-3.1-0.9-6.9c-0.7-3.8-1.9-6.6-1.8-6.7c0.1,0,0.4,0.7,0.9,1.8
									c0.5,1.2,1,2.9,1.4,4.8c0.4,1.9,0.5,3.7,0.5,4.9C204.4,218.5,204.3,219.2,204.2,219.2z"/>
							</g>
						</g>
					</g>
				</g>
				<g>
					<g>
						<g>
							<g>
								<path class="st12" d="M201.3,221c-0.2,0-0.5-3-1.2-6.7c-0.8-3.7-1.7-6.6-1.6-6.6c0.1-0.1,1.3,2.8,2.1,6.5
									C201.4,217.9,201.4,221,201.3,221z"/>
							</g>
						</g>
					</g>
				</g>
				<g>
					<g>
						<g>
							<g>
								<path class="st12" d="M206.8,220.8c0.1-0.1,0.6,0.9,0.3,2.1c-0.3,1.2-1.3,1.8-1.3,1.7c-0.1-0.1,0.5-0.8,0.8-1.8
									C206.8,221.8,206.6,220.9,206.8,220.8z"/>
							</g>
						</g>
					</g>
				</g>
				<g>
					<g>
						<g>
							<g>
								<path class="st12" d="M197.2,221.5c-0.2,0-0.2-1.7-0.3-3.8c-0.1-2.1-0.3-3.8-0.2-3.8c0.1,0,0.6,1.7,0.7,3.8
									C197.6,219.8,197.3,221.5,197.2,221.5z"/>
							</g>
						</g>
					</g>
				</g>
			</g>
			<g>
				<g>
					<g>
						<path class="st11" d="M105.7,257.7c0,0,1.3-2.1,4-3.7c2.7-1.6,8.2-2.2,9.2-4.1c1-1.8,2.7,0,1.8,2.4c-0.6,1.5-4.5,5-4.5,5
							s3.6,1.6,6.4,0.6c2.8-1,12-2,12.7-0.6c0.8,1.6-1.6,1.6-2.7,2c-0.8,0.3-7.2,2.1-7.2,2.1s11.7,1.7,13,2.5c1.5,0.9-0.4,2-1.1,1.9
							c-0.5-0.1-2.8,1.3-4.4,2.4c-1.1,0.7-2.5,1-3.8,0.8l-2.7-0.5l8,2.4c0,0,1.2,1.6-0.9,1.9c-0.9,0.1-26.4-0.8-28.3-1.1
							c-3.4-0.4-8.8-0.6-8.8-0.6l4.2-15.2L105.7,257.7z"/>
					</g>
				</g>
				<g>
					<g>
						<g>
							<path class="st12" d="M137.5,266.1c0,0.1-2.6,0.7-5.8,0.7c-3.3,0-5.8-0.6-5.8-0.7c0-0.2,2.6,0.2,5.8,0.2
								C134.9,266.3,137.5,266,137.5,266.1z"/>
						</g>
					</g>
				</g>
			</g>
			<g>
				<g>
					<path class="st3" d="M85.6,250l11.7-24L87,194.7c0,0-4,1.7-7.7,6.7c-3.7,5-7.6,15.6-7.6,15.6s-12.7,29.1-14.8,33.4
						c-2.1,4.3-5.5,12.4,0,16.9c5.5,4.5,42,4.6,42,4.6l3.9-16.2L85.6,250z"/>
				</g>
			</g>
			<g>
				<g>
					<path class="st4" d="M87,211.1c0.2-0.1,2.9,8.1,6.1,18.1c3.2,10.1,5.7,18.3,5.5,18.3c-0.2,0.1-2.9-8.1-6.1-18.1
						C89.3,219.3,86.8,211.1,87,211.1z"/>
				</g>
			</g>
			<g>
				<g>
					<path class="st4" d="M102.7,255.8c0,0-0.5-0.1-1.4-0.3c-1-0.3-2.2-0.6-3.6-1c-3.1-0.9-7.3-2.1-12-3.4c-4.7-1.2-9-2.1-12.2-2
						c-3.2,0-4.9,1.1-5,1c0,0,0.4-0.3,1.2-0.6c0.8-0.3,2.1-0.7,3.7-0.8c3.2-0.2,7.6,0.7,12.3,1.9c4.7,1.2,8.9,2.6,11.9,3.5
						c1.5,0.5,2.7,0.9,3.6,1.2C102.2,255.6,102.7,255.8,102.7,255.8z"/>
				</g>
			</g>
			<g class="st10">
				<g>
					<path d="M89.6,219c-0.3,6.5,0.2,13.9,1,20.3l3.3-6.6c-0.5-3.4-3-10.1-4.1-13.3"/>
				</g>
			</g>
		</g>
		<g>
			<rect x="278.7" y="140.1" class="st3" width="15.1" height="54.6"/>
			<g>
				<g>
					<rect x="231.3" y="172.2" class="st3" width="15.1" height="24.8"/>
				</g>
				<g>
					<rect x="254.7" y="158.7" class="st3" width="15.1" height="38.2"/>
				</g>
				<g>
					<g>
						<path class="st4" d="M288.2,122.1c0,0-0.1,0.2-0.4,0.5c-0.3,0.3-0.7,0.8-1.1,1.3c-1,1.2-2.5,2.8-4.3,4.9
							c-3.7,4.2-8.9,10-14.8,16.7l-0.2,0.2l-0.2-0.1c-2.9-1.9-6.1-4-9.3-6.1l0.4-0.1c-0.1,0.1-0.2,0.3-0.4,0.4
							c-7.7,9-14.6,17.1-19.6,23l-0.1,0.2l-0.2-0.1c-3.1-2.3-5.6-4.2-7.4-5.5c-0.8-0.6-1.5-1.1-2-1.5c-0.5-0.4-0.7-0.5-0.7-0.6
							c0,0,0.3,0.1,0.7,0.5c0.5,0.4,1.2,0.8,2.1,1.4c1.8,1.3,4.4,3.1,7.5,5.3l-0.3,0c5-6,11.9-14.1,19.5-23.2
							c0.1-0.1,0.2-0.3,0.4-0.4l0.2-0.2l0.2,0.1c3.2,2.1,6.4,4.2,9.3,6.1l-0.4,0c6-6.7,11.2-12.4,15-16.6c1.8-2,3.3-3.6,4.4-4.8
							c0.5-0.5,0.9-0.9,1.2-1.3C288.1,122.2,288.2,122.1,288.2,122.1z"/>
					</g>
				</g>
				<g>
					<g>
						<path class="st4" d="M288.7,133.6c-0.1,0-0.2-1.3-0.2-3.5c-0.1-2.2-0.1-5.1-0.1-8.4l0.4,0.3c-0.1,0-0.2,0-0.3,0
							c-3.3,0.5-6.4,1-8.5,1.3c-2.2,0.3-3.6,0.5-3.6,0.4s1.3-0.4,3.5-0.8c2.2-0.4,5.2-0.9,8.5-1.5c0.1,0,0.2,0,0.3,0l0.4-0.1l0,0.4
							c0,3.3,0,6.3-0.1,8.4C288.9,132.3,288.8,133.6,288.7,133.6z"/>
					</g>
				</g>
			</g>
		</g>
	</g>
</g>
</svg>
