<?xml version="1.0" encoding="utf-8"?>
<!-- Generator: Adobe Illustrator 28.2.0, SVG Export Plug-In . SVG Version: 6.00 Build 0)  -->
<svg version="1.1" id="Layer_1" xmlns="http://www.w3.org/2000/svg" xmlns:xlink="http://www.w3.org/1999/xlink" x="0px" y="0px"
	 viewBox="0 0 550 550" style="enable-background:new 0 0 550 550;" xml:space="preserve">
<style type="text/css">
	.st0{fill:#FAFAFA;}
	.st1{fill:#E1E1E1;}
	.st2{fill:#ECECEC;}
	.st3{fill:#F5F5F5;}
	.st4{fill:#1A2E35;}
	.st5{fill:#375A64;}
	.st6{opacity:0.3;}
	.st7{fill:#FFFFFF;}
	.st8{fill:#FF735D;}
	.st9{opacity:0.1;}
	.st10{opacity:0.2;}
	.st11{fill:#FFBF9D;}
	.st12{fill:#FF9A6C;}
</style>
<g>
	<g>
		<g>
			<g>
				<g>
					<g>
						<path class="st0" d="M311.4,31v72.1c0,2.7,2.2,4.9,4.9,4.9h77.4c2.7,0,4.9-2.2,4.9-4.9V31c0-2.7-2.2-4.9-4.9-4.9h-77.4
							C313.6,26.1,311.4,28.3,311.4,31z"/>
					</g>
				</g>
				<g>
					<g>
						<g>
							<path class="st1" d="M311.4,31c0,0,0-0.3,0-0.9c0.1-0.6,0.3-1.4,1-2.3c0.7-0.9,1.9-1.7,3.6-1.8c1.6,0,3.5,0,5.5,0
								c8.4,0,20.4-0.1,35.3-0.1c7.5,0,15.6,0,24.4,0c2.2,0,4.4,0,6.7,0c1.1,0,2.3,0,3.4,0c0.6,0,1.2,0,1.7,0c0.6,0,1.2,0,1.8,0.2
								c1.2,0.3,2.3,1,3,2.1c0.4,0.5,0.6,1.1,0.7,1.7c0.2,0.6,0.1,1.3,0.1,1.8c0,2.4,0,4.8,0,7.3c0,19.7,0,41.4,0,64.2
								c0,1.5-0.7,3-1.8,4c-0.6,0.5-1.3,0.8-2,1c-0.7,0.2-1.5,0.2-2.2,0.2c-2.8,0-5.6,0-8.4,0c-5.5,0-11,0-16.4,0
								c-10.7,0-21.1,0-30.9,0c-4.9,0-9.7,0-14.4,0c-2.3,0-4.6,0-6.9,0c-1.2-0.1-2.3-0.6-3.1-1.5c-0.8-0.8-1.4-1.9-1.5-3.1
								c-0.1-8.8,0-17,0-24.4c0-14.9,0.1-27,0.1-35.3c0-4.2,0-7.4,0.1-9.6c0-1.1,0-1.9,0-2.5C311.4,31.2,311.4,31,311.4,31
								s0,0.3,0,0.9c0,0.6,0,1.4,0,2.5c0,2.2,0,5.4,0.1,9.6c0,8.4,0.1,20.4,0.1,35.3c0,7.5,0,15.6,0.1,24.4c0.1,1,0.6,2,1.3,2.8
								c0.8,0.7,1.8,1.2,2.8,1.3c2.2,0,4.6,0,6.9,0c4.7,0,9.5,0,14.4,0c9.9,0,20.2,0,30.9,0c5.4,0,10.8,0,16.4,0c2.8,0,5.6,0,8.4,0
								c0.7,0,1.4,0,2-0.2c0.6-0.2,1.2-0.5,1.7-0.9c1-0.9,1.6-2.2,1.6-3.5c0-22.8,0-44.4,0-64.2c0-2.5,0-4.9,0-7.3
								c0.1-1.2-0.1-2.3-0.8-3.3c-0.6-0.9-1.6-1.6-2.7-1.9c-0.5-0.1-1.1-0.2-1.7-0.2c-0.6,0-1.2,0-1.7,0c-1.2,0-2.3,0-3.4,0
								c-2.3,0-4.5,0-6.7,0c-8.8,0-16.9,0-24.4,0c-14.9,0-27-0.1-35.3-0.1c-2.1,0-3.9,0-5.5,0c-1.6,0.1-2.8,0.9-3.5,1.7
								c-0.7,0.8-0.9,1.7-1,2.2C311.4,30.7,311.5,31,311.4,31z"/>
						</g>
					</g>
				</g>
			</g>
			<g>
				<g>
					<g>
						<g>
							<g>
								<g>
									<g>
										<g>
											<path class="st1" d="M376.9,95.9c0,0.1-10,0.3-22.2,0.3c-12.3,0-22.2-0.1-22.2-0.3c0-0.1,10-0.3,22.2-0.3
												C366.9,95.7,376.9,95.8,376.9,95.9z"/>
										</g>
									</g>
								</g>
							</g>
						</g>
					</g>
					<g>
						<g>
							<g>
								<g>
									<g>
										<g>
											<path class="st1" d="M367,100c0,0.1-5.5,0.3-12.3,0.3c-6.8,0-12.3-0.1-12.3-0.3c0-0.1,5.5-0.3,12.3-0.3
												C361.4,99.7,367,99.9,367,100z"/>
										</g>
									</g>
								</g>
							</g>
						</g>
					</g>
				</g>
			</g>
		</g>
		<g>
			<g>
				<g>
					<g>
						<g>
							<g>
								<path class="st2" d="M356.4,64.1l22.1,0.3c-0.2,11.8-10.1,21.4-22.1,21.4c0,0-0.1,0-0.1,0L356.4,64.1z"/>
							</g>
						</g>
					</g>
				</g>
			</g>
			<g>
				<g>
					<g>
						<g>
							<g>
								<path class="st1" d="M352.9,61l-0.3,21.7c-12-0.2-21.8-9.9-21.8-21.7c0-11.9,10-21.7,22.1-21.7C365,39.3,375,49.1,375,61
									H352.9z"/>
							</g>
						</g>
					</g>
				</g>
			</g>
		</g>
	</g>
	<g>
		<path class="st3" d="M162.9,36.8c0-13.6,8.3-22.3,20.1-22.3c11.8,0,19.9,8.5,19.9,22.3S194.8,59,183,59
			C171.2,59,162.9,50.4,162.9,36.8z M191.4,36.8c0-8.6-3.3-12.8-8.4-12.8c-5,0-8.4,4.3-8.4,12.8s3.5,12.8,8.4,12.8
			C188.1,49.6,191.4,45.4,191.4,36.8z M231.1,15.5h13.7l-55.1,80.7H176L231.1,15.5z M217.8,74.8c0-13.6,8.3-22.3,19.9-22.3
			c11.8,0,20.1,8.6,20.1,22.3c0,13.6-8.3,22.3-20.1,22.3C226.1,97.1,217.8,88.4,217.8,74.8z M246.2,74.8c0-8.5-3.3-12.8-8.4-12.8
			c-5,0-8.4,4.2-8.4,12.8c0,8.6,3.5,12.8,8.4,12.8C242.8,87.6,246.2,83.4,246.2,74.8z"/>
	</g>
	<g>
		<g>
			<g>
				<g>
					<g>
						<g>
							<path class="st3" d="M530.7,202.5c-0.2,17.6-14.6,31.7-32.3,31.5c-17.6-0.2-31.7-14.6-31.5-32.2
								c0.2-17.6,14.6-31.7,32.3-31.5C516.7,170.5,530.9,184.9,530.7,202.5z"/>
						</g>
					</g>
				</g>
			</g>
			<g>
				<g>
					<g>
						<g>
							<path class="st2" d="M523.1,202.4c-0.2,13.4-11.2,24.1-24.6,24c-13.4-0.2-24.2-11.1-24-24.5c0.2-13.4,11.2-24.1,24.6-24
								C512.5,178,523.2,189,523.1,202.4z"/>
						</g>
					</g>
				</g>
			</g>
			<g>
				<g>
					<g>
						<g>
							<g>
								<path class="st1" d="M523.1,201.6c-0.1,0-0.2-1.1-0.6-2.9c-0.4-1.9-1.1-4.5-2.7-7.5c-0.8-1.5-1.9-3-3.2-4.5
									c-1.3-1.5-2.9-2.9-4.7-4.1c-0.9-0.6-1.9-1.2-2.9-1.6c-1-0.5-2.1-0.9-3.3-1.3c-1.1-0.3-2.3-0.6-3.6-0.8
									c-1.2-0.2-2.5-0.2-3.7-0.2c-1.3,0-2.5,0.2-3.7,0.4c-1.2,0.2-2.4,0.5-3.5,0.9c-1.1,0.4-2.2,0.9-3.2,1.4c-1,0.5-2,1.1-2.9,1.8
									c-1.8,1.3-3.3,2.7-4.6,4.3c-1.2,1.5-2.2,3.1-3,4.6c-1.5,3-2.1,5.7-2.4,7.6c-0.3,1.9-0.3,3-0.5,3c-0.1,0-0.3-1.1-0.2-3
									c0.1-1.9,0.5-4.8,1.9-8.1c0.7-1.6,1.7-3.3,3-5c1.3-1.6,2.9-3.3,4.8-4.7c0.9-0.7,2-1.4,3.1-2c1.1-0.6,2.2-1.1,3.5-1.5
									c1.2-0.4,2.5-0.8,3.8-1c1.3-0.2,2.7-0.4,4-0.4c1.4,0,2.7,0.1,4,0.2c1.3,0.2,2.6,0.5,3.8,0.9c1.2,0.4,2.4,0.9,3.5,1.4
									c1.1,0.5,2.2,1.2,3.1,1.8c2,1.3,3.6,2.9,4.9,4.5c1.3,1.6,2.4,3.3,3.2,4.9c1.6,3.2,2.1,6,2.3,8
									C523.3,200.5,523.2,201.6,523.1,201.6z"/>
							</g>
						</g>
					</g>
				</g>
			</g>
		</g>
		<g>
			<g>
				<g>
					<g>
						<g>
							<g>
								<path class="st1" d="M501.3,216.6l0,4.2l-3.8,0l0-4.1c-3.7-0.2-7.3-1.4-9.4-3l2.1-4.6c1.9,1.4,4.6,2.4,7.3,2.7l0-6.3
									c-4.2-1-8.9-2.4-8.9-7.8c0-4,2.9-7.5,8.9-8.2l0-4.2l3.8,0l0,4.1c2.8,0.2,5.6,1,7.7,2.3l-1.9,4.7c-1.9-1.1-3.9-1.7-5.8-2
									l0,6.4c4.2,1,8.8,2.4,8.8,7.7C510.1,212.5,507.3,215.9,501.3,216.6z M497.5,199.9l0-5.4c-2,0.5-2.8,1.6-2.8,2.8
									C494.7,198.7,495.8,199.4,497.5,199.9z M504,209c0-1.3-1.1-2-2.7-2.6l0,5.2C503.2,211.2,504,210.2,504,209z"/>
							</g>
						</g>
					</g>
				</g>
			</g>
		</g>
	</g>
	<g>
		<g>
			<g>
				<g>
					<g>
						<g>
							<path class="st3" d="M52.9,182.1c-0.2,14.1-11.8,25.5-26,25.3c-14.2-0.2-25.5-11.8-25.4-25.9c0.2-14.1,11.8-25.5,26-25.3
								C41.7,156.4,53.1,168,52.9,182.1z"/>
						</g>
					</g>
				</g>
			</g>
			<g>
				<g>
					<g>
						<g>
							<path class="st2" d="M46.8,182.1c-0.1,10.8-9,19.4-19.8,19.3c-10.8-0.1-19.5-9-19.3-19.7c0.1-10.8,9-19.4,19.8-19.3
								C38.3,162.5,46.9,171.3,46.8,182.1z"/>
						</g>
					</g>
				</g>
			</g>
			<g>
				<g>
					<g>
						<g>
							<g>
								<path class="st1" d="M46.8,181.5c-0.1,0-0.2-0.9-0.5-2.4c-0.3-1.5-0.9-3.7-2.2-6c-0.7-1.2-1.5-2.4-2.5-3.6
									c-1.1-1.2-2.3-2.3-3.8-3.3c-0.7-0.5-1.5-0.9-2.4-1.3c-0.8-0.4-1.7-0.7-2.6-1c-0.9-0.3-1.9-0.5-2.9-0.6c-1-0.1-2-0.2-3-0.2
									c-1,0-2,0.1-3,0.3c-1,0.2-1.9,0.4-2.8,0.7c-0.9,0.3-1.8,0.7-2.6,1.1c-0.8,0.4-1.6,0.9-2.3,1.4c-1.4,1-2.7,2.2-3.7,3.4
									c-1,1.2-1.8,2.5-2.4,3.7c-1.2,2.4-1.7,4.6-1.9,6.1c-0.2,1.5-0.3,2.4-0.4,2.4c-0.1,0-0.2-0.9-0.2-2.4
									c0.1-1.6,0.4-3.9,1.6-6.5c0.6-1.3,1.4-2.7,2.4-4c1-1.3,2.3-2.6,3.8-3.8c0.8-0.6,1.6-1.1,2.5-1.6c0.9-0.5,1.8-0.9,2.8-1.2
									c1-0.3,2-0.6,3.1-0.8c1.1-0.2,2.1-0.3,3.2-0.3c1.1,0,2.2,0.1,3.3,0.2c1.1,0.1,2.1,0.4,3.1,0.7c1,0.3,1.9,0.7,2.8,1.1
									c0.9,0.4,1.7,0.9,2.5,1.5c1.6,1.1,2.9,2.3,4,3.6c1.1,1.3,1.9,2.6,2.5,3.9c1.3,2.6,1.7,4.9,1.8,6.4
									C47,180.6,46.9,181.5,46.8,181.5z"/>
							</g>
						</g>
					</g>
				</g>
			</g>
		</g>
		<g>
			<g>
				<g>
					<g>
						<g>
							<g>
								<path class="st1" d="M29.3,193.5l0,3.4l-3,0l0-3.3c-3-0.2-5.9-1.1-7.6-2.4l1.7-3.7c1.5,1.1,3.7,1.9,5.9,2.1l0-5.1
									c-3.4-0.8-7.2-1.9-7.2-6.3c0-3.2,2.3-6,7.1-6.6l0-3.4l3,0l0,3.3c2.3,0.2,4.5,0.8,6.2,1.8l-1.5,3.7c-1.6-0.9-3.1-1.4-4.7-1.6
									l0,5.2c3.4,0.8,7.1,1.9,7.1,6.2C36.4,190.2,34.1,193,29.3,193.5z M26.2,180.1l0-4.3c-1.6,0.4-2.2,1.3-2.2,2.3
									C24,179.1,24.9,179.7,26.2,180.1z M31.5,187.4c0-1.1-0.9-1.6-2.2-2.1l0,4.2C30.8,189.2,31.5,188.4,31.5,187.4z"/>
							</g>
						</g>
					</g>
				</g>
			</g>
		</g>
	</g>
	<g>
		<g>
			<path class="st4" d="M550,469.2c0,0.2-123.1,0.3-275,0.3c-151.9,0-275-0.1-275-0.3c0-0.2,123.1-0.3,275-0.3
				C426.9,468.9,550,469,550,469.2z"/>
		</g>
	</g>
	<g>
		<g>
			<g>
				<rect x="417.3" y="195.4" class="st4" width="113.2" height="273.8"/>
			</g>
		</g>
		<g>
			<g>
				<rect x="423.4" y="204.3" class="st5" width="100.4" height="264.9"/>
			</g>
		</g>
		<g class="st6">
			<g>
				<polygon class="st7" points="492.4,246.8 523.8,246.8 523.8,204.3 423.4,204.3 423.4,341.9 443.7,341.9 443.7,308.8 
					460.1,308.8 460.1,282 492.9,282 				"/>
			</g>
		</g>
		<g>
			<g>
				<g>
					<path class="st4" d="M528.4,231.8c0,0.2-24.1,0.4-53.7,0.4c-29.7,0-53.7-0.2-53.7-0.4c0-0.2,24.1-0.4,53.7-0.4
						C504.3,231.4,528.4,231.6,528.4,231.8z"/>
				</g>
			</g>
		</g>
		<g>
			<g>
				<g>
					<path class="st4" d="M528.4,261.9c0,0.2-24.1,0.4-53.7,0.4c-29.7,0-53.7-0.2-53.7-0.4s24.1-0.4,53.7-0.4
						C504.3,261.5,528.4,261.7,528.4,261.9z"/>
				</g>
			</g>
		</g>
		<g>
			<g>
				<g>
					<path class="st4" d="M528.4,292.1c0,0.2-24.1,0.4-53.7,0.4c-29.7,0-53.7-0.2-53.7-0.4c0-0.2,24.1-0.4,53.7-0.4
						C504.3,291.6,528.4,291.8,528.4,292.1z"/>
				</g>
			</g>
		</g>
		<g>
			<g>
				<g>
					<path class="st4" d="M528.4,322.2c0,0.2-24.1,0.4-53.7,0.4c-29.7,0-53.7-0.2-53.7-0.4c0-0.2,24.1-0.4,53.7-0.4
						C504.3,321.7,528.4,321.9,528.4,322.2z"/>
				</g>
			</g>
		</g>
		<g>
			<g>
				<g>
					<path class="st4" d="M528.4,352.3c0,0.2-24.1,0.4-53.7,0.4c-29.7,0-53.7-0.2-53.7-0.4c0-0.2,24.1-0.4,53.7-0.4
						C504.3,351.8,528.4,352,528.4,352.3z"/>
				</g>
			</g>
		</g>
		<g>
			<g>
				<g>
					<path class="st4" d="M528.4,382.4c0,0.2-24.1,0.4-53.7,0.4c-29.7,0-53.7-0.2-53.7-0.4s24.1-0.4,53.7-0.4
						C504.3,381.9,528.4,382.1,528.4,382.4z"/>
				</g>
			</g>
		</g>
		<g>
			<g>
				<g>
					<path class="st4" d="M528.4,412.5c0,0.2-24.1,0.4-53.7,0.4c-29.7,0-53.7-0.2-53.7-0.4c0-0.2,24.1-0.4,53.7-0.4
						C504.3,412,528.4,412.2,528.4,412.5z"/>
				</g>
			</g>
		</g>
		<g>
			<g>
				<g>
					<path class="st4" d="M528.4,442.6c0,0.2-24.1,0.4-53.7,0.4c-29.7,0-53.7-0.2-53.7-0.4s24.1-0.4,53.7-0.4
						C504.3,442.1,528.4,442.3,528.4,442.6z"/>
				</g>
			</g>
		</g>
		<g>
			<g>
				<g>
					<path class="st4" d="M446.3,469.2c-0.2,0-0.4-73.8-0.4-143.3c0-69.5,0.2-125.8,0.4-125.8c0.2,0,0.4,56.3,0.4,125.8
						C446.7,395.3,446.5,469.2,446.3,469.2z"/>
				</g>
			</g>
		</g>
		<g>
			<g>
				<g>
					<path class="st4" d="M475.4,469.2c-0.2,0-0.4-73.8-0.4-143.3c0-69.5,0.2-125.8,0.4-125.8s0.4,56.3,0.4,125.8
						C475.8,395.3,475.6,469.2,475.4,469.2z"/>
				</g>
			</g>
		</g>
		<g>
			<g>
				<g>
					<path class="st4" d="M504.5,469.2c-0.2,0-0.4-73.8-0.4-143.3c0-69.5,0.2-125.8,0.4-125.8c0.2,0,0.4,56.3,0.4,125.8
						C504.9,395.3,504.8,469.2,504.5,469.2z"/>
				</g>
			</g>
		</g>
		<g>
			<g>
				<rect x="381.1" y="195.2" class="st4" width="36.8" height="273.9"/>
			</g>
		</g>
		<g class="st6">
			<g>
				<rect x="381.1" y="195.2" width="36.8" height="273.9"/>
			</g>
		</g>
		<g>
			<g>
				<g>
					<path class="st7" d="M471.2,237.3c0.2,0.2-3.6,4.1-8.3,8.8c-4.8,4.7-8.7,8.4-8.9,8.2c-0.2-0.2,3.6-4.1,8.3-8.8
						C467,240.8,471,237.1,471.2,237.3z"/>
				</g>
			</g>
		</g>
		<g>
			<g>
				<g>
					<path class="st7" d="M498.1,236.8c0.2,0.2-3.6,4.1-8.3,8.8c-4.8,4.7-8.7,8.4-8.9,8.2c-0.2-0.2,3.6-4.1,8.3-8.8
						C494,240.3,498,236.6,498.1,236.8z"/>
				</g>
			</g>
		</g>
		<g>
			<g>
				<g>
					<path class="st7" d="M498.6,212.9c0.2,0.2-3.6,4.1-8.3,8.8c-4.8,4.7-8.7,8.4-8.9,8.2c-0.2-0.2,3.6-4.1,8.3-8.8
						C494.5,216.4,498.4,212.7,498.6,212.9z"/>
				</g>
			</g>
		</g>
	</g>
	<g>
		<g>
			<g>
				
					<rect x="50.8" y="58.3" transform="matrix(-1 -1.224647e-16 1.224647e-16 -1 193.8409 140.989)" class="st4" width="92.3" height="24.4"/>
			</g>
		</g>
		<g>
			<g>
				
					<rect x="54.7" y="61.3" transform="matrix(-1 -1.224647e-16 1.224647e-16 -1 193.8409 138.5287)" class="st5" width="84.5" height="15.8"/>
			</g>
		</g>
		<g class="st6">
			<g>
				
					<rect x="54.7" y="61.3" transform="matrix(-1 -1.224647e-16 1.224647e-16 -1 193.8409 138.5287)" class="st7" width="84.5" height="15.8"/>
			</g>
		</g>
		<g>
			
				<rect x="143.1" y="58.3" transform="matrix(-1 -1.224647e-16 1.224647e-16 -1 316.3901 140.989)" class="st4" width="30.2" height="24.4"/>
		</g>
		<g class="st6">
			<rect x="143.1" y="58.3" transform="matrix(-1 -1.224647e-16 1.224647e-16 -1 316.3901 140.989)" width="30.2" height="24.4"/>
		</g>
		<g>
			<g>
				
					<rect x="38.6" y="81.7" transform="matrix(-1 -1.224647e-16 1.224647e-16 -1 195.7692 550.8796)" class="st4" width="118.6" height="387.4"/>
			</g>
		</g>
		<g>
			<g>
				
					<rect x="45.7" y="90.3" transform="matrix(-1 -1.224647e-16 1.224647e-16 -1 196.5019 559.4304)" class="st5" width="105.1" height="378.9"/>
			</g>
		</g>
		<g class="st6">
			<g>
				<polygon class="st7" points="150.8,227.9 129.5,227.9 129.5,194.8 112.4,194.8 112.4,168 78.1,168 78.1,252.4 60.9,252.4 
					60.9,132.8 45.7,132.8 45.7,90.3 150.8,90.3 				"/>
			</g>
		</g>
		<g>
			<g>
				<g>
					<path class="st4" d="M40.8,115.2c0,0.2,25.2,0.4,56.3,0.4c31.1,0,56.3-0.2,56.3-0.4c0-0.2-25.2-0.4-56.3-0.4
						C66,114.7,40.8,114.9,40.8,115.2z"/>
				</g>
			</g>
		</g>
		<g>
			<g>
				<g>
					<path class="st4" d="M40.8,145.3c0,0.2,25.2,0.4,56.3,0.4c31.1,0,56.3-0.2,56.3-0.4c0-0.2-25.2-0.4-56.3-0.4
						C66,144.8,40.8,145,40.8,145.3z"/>
				</g>
			</g>
		</g>
		<g>
			<g>
				<g>
					<path class="st4" d="M40.8,175.4c0,0.2,25.2,0.4,56.3,0.4c31.1,0,56.3-0.2,56.3-0.4c0-0.2-25.2-0.4-56.3-0.4
						C66,174.9,40.8,175.1,40.8,175.4z"/>
				</g>
			</g>
		</g>
		<g>
			<g>
				<g>
					<path class="st4" d="M40.8,205.5c0,0.2,25.2,0.4,56.3,0.4c31.1,0,56.3-0.2,56.3-0.4c0-0.2-25.2-0.4-56.3-0.4
						C66,205,40.8,205.2,40.8,205.5z"/>
				</g>
			</g>
		</g>
		<g>
			<g>
				<g>
					<path class="st4" d="M40.8,235.6c0,0.2,25.2,0.4,56.3,0.4c31.1,0,56.3-0.2,56.3-0.4c0-0.2-25.2-0.4-56.3-0.4
						C66,235.1,40.8,235.3,40.8,235.6z"/>
				</g>
			</g>
		</g>
		<g>
			<g>
				<g>
					<path class="st4" d="M40.8,265.7c0,0.2,25.2,0.4,56.3,0.4c31.1,0,56.3-0.2,56.3-0.4s-25.2-0.4-56.3-0.4
						C66,265.2,40.8,265.4,40.8,265.7z"/>
				</g>
			</g>
		</g>
		<g>
			<g>
				<g>
					<path class="st4" d="M40.8,295.8c0,0.2,25.2,0.4,56.3,0.4c31.1,0,56.3-0.2,56.3-0.4s-25.2-0.4-56.3-0.4
						C66,295.3,40.8,295.5,40.8,295.8z"/>
				</g>
			</g>
		</g>
		<g>
			<g>
				<g>
					<path class="st4" d="M40.8,325.9c0,0.2,25.2,0.4,56.3,0.4c31.1,0,56.3-0.2,56.3-0.4s-25.2-0.4-56.3-0.4
						C66,325.4,40.8,325.6,40.8,325.9z"/>
				</g>
			</g>
		</g>
		<g>
			<g>
				<g>
					<path class="st4" d="M40.8,356c0,0.2,25.2,0.4,56.3,0.4c31.1,0,56.3-0.2,56.3-0.4c0-0.2-25.2-0.4-56.3-0.4
						C66,355.5,40.8,355.7,40.8,356z"/>
				</g>
			</g>
		</g>
		<g>
			<g>
				<g>
					<path class="st4" d="M42.6,383.8c0,0.2,25.2,0.4,56.3,0.4c31.1,0,56.3-0.2,56.3-0.4c0-0.2-25.2-0.4-56.3-0.4
						C67.8,383.4,42.6,383.6,42.6,383.8z"/>
				</g>
			</g>
		</g>
		<g>
			<g>
				<g>
					<path class="st4" d="M44.4,411.7c0,0.2,25.2,0.4,56.3,0.4c31.1,0,56.3-0.2,56.3-0.4c0-0.2-25.2-0.4-56.3-0.4
						C69.6,411.2,44.4,411.4,44.4,411.7z"/>
				</g>
			</g>
		</g>
		<g>
			<g>
				<g>
					<path class="st4" d="M46.1,439.5c0,0.2,25.2,0.4,56.3,0.4c31.1,0,56.3-0.2,56.3-0.4c0-0.2-25.2-0.4-56.3-0.4
						C71.3,439,46.1,439.2,46.1,439.5z"/>
				</g>
			</g>
		</g>
		<g>
			<g>
				<g>
					<path class="st4" d="M126.9,469.1c0.2,0,0.4-105.9,0.4-214.4c0-108.5-0.2-196.4-0.4-196.4c-0.2,0-0.4,87.9-0.4,196.4
						C126.4,363.1,126.6,469.1,126.9,469.1z"/>
				</g>
			</g>
		</g>
		<g>
			<g>
				<g>
					<path class="st4" d="M96.4,469.1c0.2,0,0.4-105.9,0.4-214.4c0-108.5-0.2-196.4-0.4-196.4s-0.4,87.9-0.4,196.4
						C95.9,363.1,96.1,469.1,96.4,469.1z"/>
				</g>
			</g>
		</g>
		<g>
			<g>
				<g>
					<path class="st4" d="M65.9,469.1c0.2,0,0.4-105.9,0.4-214.4c0-108.5-0.2-196.4-0.4-196.4c-0.2,0-0.4,87.9-0.4,196.4
						C65.4,363.1,65.6,469.1,65.9,469.1z"/>
				</g>
			</g>
		</g>
		<g>
			<g>
				
					<rect x="156.6" y="81.7" transform="matrix(-1 -1.224647e-16 1.224647e-16 -1 351.7537 550.8796)" class="st4" width="38.6" height="387.4"/>
			</g>
		</g>
		<g class="st6">
			<g>
				
					<rect x="156.6" y="81.7" transform="matrix(-1 -1.224647e-16 1.224647e-16 -1 351.7537 550.8796)" width="38.6" height="387.4"/>
			</g>
		</g>
		<g>
			<g>
				<g>
					<path class="st7" d="M100.8,120.6c-0.2,0.2,3.7,4.1,8.7,8.8c5,4.7,9.2,8.4,9.3,8.2c0.2-0.2-3.7-4.1-8.7-8.8
						C105.1,124.1,101,120.4,100.8,120.6z"/>
				</g>
			</g>
		</g>
		<g>
			<g>
				<g>
					<path class="st7" d="M72.5,120.1c-0.2,0.2,3.7,4.1,8.7,8.8c5,4.7,9.2,8.4,9.3,8.2c0.2-0.2-3.7-4.1-8.7-8.8
						C76.9,123.6,72.7,119.9,72.5,120.1z"/>
				</g>
			</g>
		</g>
		<g>
			<g>
				<g>
					<path class="st7" d="M72.1,96.2c-0.2,0.2,3.7,4.1,8.7,8.8c5,4.7,9.2,8.4,9.3,8.2c0.2-0.2-3.7-4.1-8.7-8.8
						C76.4,99.7,72.2,96,72.1,96.2z"/>
				</g>
			</g>
		</g>
		<g>
			
				<rect x="125.8" y="46.7" transform="matrix(-1 -1.224647e-16 1.224647e-16 -1 262.2993 106.0831)" class="st4" width="10.7" height="12.7"/>
		</g>
		<g>
			
				<rect x="91.9" y="52.4" transform="matrix(-1 -1.224647e-16 1.224647e-16 -1 209.4186 111.8215)" class="st4" width="25.7" height="6.9"/>
		</g>
		<g class="st6">
			<rect x="107.2" y="52.4" transform="matrix(-1 -1.224647e-16 1.224647e-16 -1 224.7559 110.757)" width="10.4" height="5.9"/>
		</g>
		<g class="st6">
			<rect x="131.7" y="46.7" transform="matrix(-1 -1.224647e-16 1.224647e-16 -1 268.238 104.8856)" width="4.7" height="11.5"/>
		</g>
	</g>
	<g>
		<g>
			<rect x="236.5" y="135.8" class="st2" width="177.1" height="346.7"/>
		</g>
		<g>
			<g>
				<g>
					<g>
						<g>
							<polygon class="st7" points="160,136.1 160,482.3 392.9,482.3 392.9,420.4 392.9,136.1 							"/>
						</g>
						<g>
							<g>
								<path class="st4" d="M160,136.1c2,0,91.1-0.1,233-0.2l0.2,0l0,0.2c0,95.5,0,215.8,0.1,346.2v0v0.3h-0.3c-83,0-162,0-233,0
									h-0.3l0-0.3C159.8,278.3,159.9,138.6,160,136.1c0,2.5,0.1,142.2,0.3,346.2L160,482c71,0,149.9,0,233,0l-0.3,0.3v0
									c0-130.4,0-250.7,0.1-346.2l0.2,0.2C251,136.2,162,136.1,160,136.1z"/>
							</g>
						</g>
					</g>
					<g>
						<g>
							<rect x="174.7" y="157.5" class="st8" width="101.7" height="56.9"/>
						</g>
					</g>
					<g>
						<g>
							<g>
								<path class="st4" d="M374.4,170.7c0,0.1-18.3,0.3-40.9,0.3c-22.6,0-40.9-0.1-40.9-0.3c0-0.1,18.3-0.3,40.9-0.3
									C356.1,170.4,374.4,170.6,374.4,170.7z"/>
							</g>
						</g>
					</g>
					<g>
						<g>
							<g>
								<path class="st4" d="M374.4,180.9c0,0.1-18.3,0.3-40.9,0.3c-22.6,0-40.9-0.1-40.9-0.3c0-0.1,18.3-0.3,40.9-0.3
									C356.1,180.7,374.4,180.8,374.4,180.9z"/>
							</g>
						</g>
					</g>
					<g>
						<g>
							<g>
								<path class="st4" d="M374.4,191.1c0,0.1-18.3,0.3-40.9,0.3c-22.6,0-40.9-0.1-40.9-0.3c0-0.1,18.3-0.3,40.9-0.3
									C356.1,190.9,374.4,191,374.4,191.1z"/>
							</g>
						</g>
					</g>
					<g>
						<g>
							<g>
								<path class="st4" d="M341.8,201.3c0,0.1-11,0.3-24.6,0.3c-13.6,0-24.6-0.1-24.6-0.3c0-0.1,11-0.3,24.6-0.3
									C330.8,201.1,341.8,201.2,341.8,201.3z"/>
							</g>
						</g>
					</g>
					<g>
						<g>
							<g>
								<path class="st4" d="M377.5,226c0,0.1-45.1,0.3-100.8,0.3c-55.7,0-100.8-0.1-100.8-0.3c0-0.1,45.1-0.3,100.8-0.3
									C332.3,225.8,377.5,225.9,377.5,226z"/>
							</g>
						</g>
					</g>
					<g>
						<g>
							<g>
								<path class="st4" d="M377.5,232.3c0,0.1-44.7,0.3-99.7,0.3c-55.1,0-99.7-0.1-99.7-0.3c0-0.1,44.6-0.3,99.7-0.3
									C332.8,232,377.5,232.2,377.5,232.3z"/>
							</g>
						</g>
					</g>
					<g>
						<g>
							<rect x="175.8" y="242.5" class="st1" width="201.7" height="12.1"/>
						</g>
					</g>
					<g>
						<g>
							<rect x="173.6" y="353.8" class="st1" width="201.7" height="12.1"/>
						</g>
					</g>
					<g>
						<g>
							<rect x="175.8" y="294" class="st1" width="80.4" height="12.1"/>
						</g>
					</g>
					<g>
						<g>
							<rect x="274.7" y="294" class="st1" width="100.6" height="12.1"/>
						</g>
					</g>
					<g>
						<g>
							<g>
								<path class="st4" d="M292.3,265.3c0,0.1-25.9,0.3-57.8,0.3c-31.9,0-57.8-0.1-57.8-0.3c0-0.1,25.9-0.3,57.8-0.3
									C266.5,265.1,292.3,265.2,292.3,265.3z"/>
							</g>
						</g>
					</g>
					<g>
						<g>
							<g>
								<path class="st4" d="M376.3,274.9c0,0.1-44.7,0.3-99.9,0.3c-55.2,0-99.9-0.1-99.9-0.3c0-0.1,44.7-0.3,99.9-0.3
									C331.6,274.6,376.3,274.8,376.3,274.9z"/>
							</g>
						</g>
					</g>
					<g>
						<g>
							<g>
								<path class="st4" d="M376.3,283.9c0,0.1-44.7,0.3-99.9,0.3c-55.2,0-99.9-0.1-99.9-0.3c0-0.1,44.7-0.3,99.9-0.3
									C331.6,283.7,376.3,283.8,376.3,283.9z"/>
							</g>
						</g>
					</g>
					<g>
						<g>
							<g>
								<path class="st4" d="M255.5,313.5c0,0.1-18,0.3-40.2,0.3c-22.2,0-40.2-0.1-40.2-0.3c0-0.1,18-0.3,40.2-0.3
									C237.5,313.3,255.5,313.4,255.5,313.5z"/>
							</g>
						</g>
					</g>
					<g>
						<g>
							<g>
								<path class="st4" d="M255.5,322.9c0,0.1-17.7,0.3-39.5,0.3c-21.8,0-39.5-0.1-39.5-0.3c0-0.1,17.7-0.3,39.5-0.3
									C237.8,322.6,255.5,322.7,255.5,322.9z"/>
							</g>
						</g>
					</g>
					<g>
						<g>
							<g>
								<path class="st4" d="M255.2,332.3c0,0.1-17.8,0.3-39.9,0.3c-22,0-39.9-0.1-39.9-0.3c0-0.1,17.8-0.3,39.9-0.3
									C237.4,332.1,255.2,332.2,255.2,332.3z"/>
							</g>
						</g>
					</g>
					<g>
						<g>
							<g>
								<path class="st4" d="M255.2,341.6c0,0.1-17.8,0.3-39.9,0.3c-22,0-39.9-0.1-39.9-0.3c0-0.1,17.8-0.3,39.9-0.3
									C237.4,341.3,255.2,341.4,255.2,341.6z"/>
							</g>
						</g>
					</g>
					<g>
						<g>
							<g>
								<g>
									<path class="st4" d="M373.8,315.7c0,0.1-18.6,0.3-41.6,0.3c-23,0-41.6-0.1-41.6-0.3c0-0.1,18.6-0.3,41.6-0.3
										C355.1,315.5,373.8,315.6,373.8,315.7z"/>
								</g>
							</g>
						</g>
						<g>
							<g>
								<g>
									<path class="st4" d="M284.1,318.7c0,0-0.1-0.7-0.1-1.7c0-1-0.1-2.5-0.1-4.2l0.2,0.2c-1.7,0-3.7,0-5.7,0
										c-0.1,0.1,0.5-0.5,0.2-0.3v0v0v0v0v0v0.1v0.1l0,0.2l0,0.4c0,0.3,0,0.5,0,0.8c0,0.5,0,1,0,1.5c0,1,0,1.9,0,2.8l-0.2-0.2
										c1.7,0,3.1,0.1,4.1,0.1C283.5,318.6,284.1,318.7,284.1,318.7c0,0-0.5,0.1-1.5,0.1c-1,0-2.5,0.1-4.2,0.1l-0.2,0l0-0.2
										c0-0.9,0-1.8,0-2.8c0-0.5,0-1,0-1.5c0-0.3,0-0.5,0-0.8l0-0.4l0-0.2l0-0.1v-0.1v0v0v0v0v0c-0.2,0.2,0.3-0.3,0.2-0.3
										c2.1,0,4,0,5.7,0l0.2,0l0,0.2c0,1.8-0.1,3.4-0.1,4.4C284.2,318.2,284.2,318.7,284.1,318.7z"/>
								</g>
							</g>
						</g>
					</g>
					<g>
						<g>
							<g>
								<g>
									<path class="st4" d="M373.8,327.1c0,0.1-18.6,0.3-41.6,0.3c-23,0-41.6-0.1-41.6-0.3c0-0.1,18.6-0.3,41.6-0.3
										C355.1,326.9,373.8,327,373.8,327.1z"/>
								</g>
							</g>
						</g>
						<g>
							<g>
								<g>
									<path class="st4" d="M284.1,330.1c0,0-0.1-0.7-0.1-1.7c0-1-0.1-2.5-0.1-4.2l0.2,0.2c-1.7,0-3.7,0-5.7,0
										c-0.1,0.1,0.5-0.5,0.2-0.3v0v0v0v0v0v0.1v0.1l0,0.2l0,0.4c0,0.3,0,0.5,0,0.8c0,0.5,0,1,0,1.5c0,1,0,1.9,0,2.8l-0.2-0.2
										c1.7,0,3.1,0.1,4.1,0.1C283.5,330.1,284.1,330.1,284.1,330.1c0,0-0.5,0.1-1.5,0.1c-1,0-2.5,0.1-4.2,0.1l-0.2,0l0-0.2
										c0-0.9,0-1.8,0-2.8c0-0.5,0-1,0-1.5c0-0.3,0-0.5,0-0.8l0-0.4l0-0.2l0-0.1v-0.1v0v0v0v0v0c-0.2,0.2,0.3-0.3,0.2-0.3
										c2.1,0,4,0,5.7,0l0.2,0l0,0.2c0,1.8-0.1,3.4-0.1,4.4C284.2,329.6,284.2,330.2,284.1,330.1z"/>
								</g>
							</g>
						</g>
					</g>
					<g>
						<g>
							<g>
								<g>
									<path class="st4" d="M373.8,338.6c0,0.1-18.6,0.3-41.6,0.3c-23,0-41.6-0.1-41.6-0.3c0-0.1,18.6-0.3,41.6-0.3
										C355.1,338.3,373.8,338.4,373.8,338.6z"/>
								</g>
							</g>
						</g>
						<g>
							<g>
								<g>
									<path class="st4" d="M284.1,341.6c0,0-0.1-0.7-0.1-1.7c0-1-0.1-2.5-0.1-4.2l0.2,0.2c-1.7,0-3.7,0-5.7,0
										c-0.1,0.1,0.5-0.5,0.2-0.3v0v0v0v0v0v0.1v0.1l0,0.2l0,0.4c0,0.3,0,0.5,0,0.8c0,0.5,0,1,0,1.5c0,1,0,1.9,0,2.8l-0.2-0.2
										c1.7,0,3.1,0.1,4.1,0.1C283.5,341.5,284.1,341.5,284.1,341.6c0,0-0.5,0.1-1.5,0.1c-1,0-2.5,0.1-4.2,0.1l-0.2,0l0-0.2
										c0-0.9,0-1.8,0-2.8c0-0.5,0-1,0-1.5c0-0.3,0-0.5,0-0.8l0-0.4l0-0.2l0-0.1v-0.1v0v0v0v0v0c-0.2,0.2,0.3-0.3,0.2-0.3
										c2.1,0,4,0,5.7,0l0.2,0l0,0.2c0,1.8-0.1,3.4-0.1,4.4C284.2,341,284.2,341.6,284.1,341.6z"/>
								</g>
							</g>
						</g>
					</g>
					<g>
						<g>
							<g>
								<g>
									<path class="st4" d="M373.8,433.1c0,0,0-0.3,0-1c0-0.6,0-1.6,0-2.8c0-2.5,0-6.2,0-11c0-9.6,0-23.7-0.1-41.4l0.2,0.2
										c-45.5,0-117.6,0.1-198.6,0.1h0l0.2-0.3c0,19.4,0,38.2,0,56.3l-0.2-0.3c56.8,0,106.4,0.1,141.8,0.1
										c17.7,0,31.9,0.1,41.7,0.1c4.9,0,8.6,0,11.2,0c1.3,0,2.2,0,2.9,0C373.4,433.1,373.8,433.1,373.8,433.1s-0.3,0-1,0
										c-0.7,0-1.6,0-2.9,0c-2.5,0-6.3,0-11.1,0c-9.7,0-23.9,0-41.6,0.1c-35.5,0-85.1,0.1-142,0.1l-0.2,0v-0.3c0-18,0-36.9,0-56.3
										l0-0.3h0.2h0c81,0,153.1,0.1,198.6,0.1l0.2,0l0,0.2c0,17.8-0.1,31.9-0.1,41.5c0,4.8,0,8.5,0,11c0,1.2,0,2.2,0,2.8
										C373.8,432.8,373.8,433.1,373.8,433.1z"/>
								</g>
							</g>
						</g>
						<g>
							<g>
								<g>
									<path class="st4" d="M373.8,391c0,0.1-44.3,0.3-99,0.3c-54.7,0-99-0.1-99-0.3s44.3-0.3,99-0.3
										C329.4,390.7,373.8,390.8,373.8,391z"/>
								</g>
							</g>
						</g>
						<g>
							<g>
								<g>
									<path class="st4" d="M373.8,404.9c0,0.1-44.3,0.3-99,0.3c-54.7,0-99-0.1-99-0.3c0-0.1,44.3-0.3,99-0.3
										C329.4,404.7,373.8,404.8,373.8,404.9z"/>
								</g>
							</g>
						</g>
						<g>
							<g>
								<g>
									<path class="st4" d="M373.8,419.1c0,0.1-44.3,0.3-99,0.3c-54.7,0-99-0.1-99-0.3c0-0.1,44.3-0.3,99-0.3
										C329.4,418.8,373.8,418.9,373.8,419.1z"/>
								</g>
							</g>
						</g>
						<g>
							<g>
								<g>
									<path class="st4" d="M198.3,433.6c-0.1,0-0.2-12.7-0.2-28.4c0-15.7,0.1-28.4,0.2-28.4c0.1,0,0.2,12.7,0.2,28.4
										C198.5,420.8,198.4,433.6,198.3,433.6z"/>
								</g>
							</g>
						</g>
						<g>
							<g>
								<g>
									<path class="st4" d="M265.4,431.9c-0.1,0-0.2-12.2-0.2-27.1c0-15,0.1-27.1,0.2-27.1c0.1,0,0.2,12.2,0.2,27.1
										C265.7,419.7,265.6,431.9,265.4,431.9z"/>
								</g>
							</g>
						</g>
						<g>
							<g>
								<g>
									<path class="st4" d="M336.2,434.4c-0.1,0-0.2-12.5-0.2-28c0-15.5,0.1-28,0.2-28c0.1,0,0.2,12.5,0.2,28
										C336.4,421.9,336.3,434.4,336.2,434.4z"/>
								</g>
							</g>
						</g>
					</g>
					<g>
						<g>
							<g>
								<path class="st4" d="M373.9,445.7c0,0.1-44.3,0.3-98.9,0.3c-54.6,0-98.9-0.1-98.9-0.3c0-0.1,44.3-0.3,98.9-0.3
									C329.6,445.4,373.9,445.5,373.9,445.7z"/>
							</g>
						</g>
					</g>
					<g>
						<g>
							<g>
								<path class="st4" d="M373.9,453.8c0,0.1-44.3,0.3-98.9,0.3c-54.6,0-98.9-0.1-98.9-0.3c0-0.1,44.3-0.3,98.9-0.3
									C329.6,453.6,373.9,453.7,373.9,453.8z"/>
							</g>
						</g>
					</g>
					<g>
						<g>
							<g>
								<path class="st4" d="M246.6,462c0,0.1-15.8,0.3-35.2,0.3c-19.5,0-35.2-0.1-35.2-0.3c0-0.1,15.8-0.3,35.2-0.3
									C230.8,461.7,246.6,461.8,246.6,462z"/>
							</g>
						</g>
					</g>
					<g>
						<g>
							<path class="st7" d="M198,177.8h-8.9v-4.4h22.8v4.4H203v23.5h-5V177.8z"/>
						</g>
						<g>
							<path class="st7" d="M231.8,194.9h-13.4l-2.6,6.5h-5.1l12.1-27.9h4.9l12.1,27.9h-5.2L231.8,194.9z M230.1,190.8l-5.1-12.2
								l-5,12.2H230.1z"/>
						</g>
						<g>
							<path class="st7" d="M258.7,201.3l-7.3-10.6l-7.2,10.6h-5.7l10-14.2l-9.4-13.7h5.6l6.9,9.9l6.8-9.9h5.4l-9.4,13.5l10.1,14.4
								H258.7z"/>
						</g>
					</g>
					<g>
						<g>
							<g>
								<path class="st1" d="M379.3,148.1c0,0.1-45.8,0.3-102.3,0.3c-56.5,0-102.3-0.1-102.3-0.3c0-0.1,45.8-0.3,102.3-0.3
									C333.5,147.9,379.3,148,379.3,148.1z"/>
							</g>
						</g>
					</g>
					<g>
						<g>
							<g>
								<path class="st1" d="M277.7,152c0,0.1-23.1,0.3-51.5,0.3c-28.4,0-51.5-0.1-51.5-0.3c0-0.1,23.1-0.3,51.5-0.3
									C254.7,151.7,277.7,151.8,277.7,152z"/>
							</g>
						</g>
					</g>
				</g>
			</g>
		</g>
		<g class="st6">
			<rect x="392.9" y="135.8" width="20.6" height="346.7"/>
		</g>
		<g>
			<g>
				<path class="st4" d="M400,482.5c-0.2,0-0.3-77.6-0.3-173.3c0-95.7,0.1-173.3,0.3-173.3c0.2,0,0.3,77.6,0.3,173.3
					C400.3,404.9,400.2,482.5,400,482.5z"/>
			</g>
		</g>
		<g>
			<g>
				<path class="st4" d="M407.5,482.5c-0.2,0-0.3-77.6-0.3-173.3c0-95.7,0.1-173.3,0.3-173.3c0.2,0,0.3,77.6,0.3,173.3
					C407.8,404.9,407.7,482.5,407.5,482.5z"/>
			</g>
		</g>
		<g class="st6">
			<rect x="268.5" y="135.8" width="35.3" height="19.6"/>
		</g>
		<g>
			<g>
				<path class="st4" d="M300.2,153.8h-36c-0.6,0-1.1-0.5-1.1-1.1v-21.4c0-0.6,0.5-1.1,1.1-1.1h36c0.6,0,1.1,0.5,1.1,1.1v21.4
					C301.3,153.3,300.8,153.8,300.2,153.8z"/>
			</g>
			<g>
				<g>
					<path class="st1" d="M275.2,153.1c0.6-2.1,1-4.4,1.4-6.6c0.7-3.6,1.4-7.1,2-10.7c0.5-3,1-6,1.5-8.9c0.1-1,0.3-2,0.2-3.1
						c-0.1-2.1-1.2-3.7-2.7-5.1c-1.9-1.9-4.8-3.5-3.1-6.6c1.2-2.1,4.1-2.4,6.3-2.5c2.1-0.1,4.3,0,6.4,0.6c1.2,0.3,2.2,0.8,2.9,1.9
						c0.9,1.4,0.8,3.1-0.3,4.4c-1.5,1.7-3.6,2.8-4.7,4.9c-0.7,1.3-0.8,2.8-0.6,4.3c0.2,2.6,0.7,5.2,1.2,7.7c0.7,4,1.4,8,2.2,12
						c0.5,2.6,0.9,5.3,1.6,7.9c0.3,0.9,1.7,0.5,1.4-0.4c-0.7-2.3-1.1-4.8-1.5-7.1c-0.7-3.8-1.4-7.6-2.1-11.4
						c-0.5-2.8-1.1-5.7-1.3-8.6c-0.2-1.9,0.1-3.6,1.5-5.1c1.6-1.8,4.1-3,4.7-5.5c0.4-2-0.5-4.3-2.1-5.5c-1.7-1.3-4.3-1.6-6.4-1.7
						c-3.6-0.3-9-0.1-10.6,3.8c-1,2.3-0.3,4.5,1.5,6.1c2,1.8,4.2,3.2,4.3,6.1c0.1,2.5-0.5,5.1-0.9,7.5c-0.7,4.3-1.5,8.5-2.3,12.7
						c-0.5,2.8-1,5.7-1.8,8.5C273.5,153.7,274.9,154.1,275.2,153.1L275.2,153.1z"/>
				</g>
			</g>
			<g>
				<rect x="264.7" y="151.4" class="st4" width="12.8" height="2.2"/>
			</g>
			<g>
				<rect x="286.9" y="151.4" class="st4" width="12" height="2.3"/>
			</g>
			<g>
				<g>
					<path class="st5" d="M276.7,151.4c0,0.2-3,0.3-6.7,0.3c-3.7,0-6.7-0.1-6.7-0.3s3-0.3,6.7-0.3
						C273.7,151.1,276.7,151.3,276.7,151.4z"/>
				</g>
			</g>
			<g>
				<g>
					<path class="st5" d="M301,151.4c0,0.2-2.9,0.3-6.5,0.3c-3.6,0-6.5-0.1-6.5-0.3s2.9-0.3,6.5-0.3
						C298.1,151.1,301,151.3,301,151.4z"/>
				</g>
			</g>
		</g>
	</g>
	<g>
		<g id="freepik--Coins--inject-2">
			<g>
				<g>
					
						<ellipse transform="matrix(0.4602 -0.8878 0.8878 0.4602 -246.7652 345.31)" class="st8" cx="160.6" cy="375.6" rx="39.3" ry="39.3"/>
				</g>
			</g>
			<g class="st9">
				<g>
					<g>
						<path class="st7" d="M146.5,338.9c-20.2,7.8-30.3,30.5-22.5,50.8c0,0,0,0,0,0c0,0,26.2-8.8,28.4-21.5
							C154.6,355.4,146.5,338.9,146.5,338.9z"/>
					</g>
				</g>
			</g>
			<g>
				<g>
					
						<ellipse transform="matrix(0.7563 -0.6543 0.6543 0.7563 -204.719 195.7634)" class="st8" cx="160.4" cy="372.7" rx="29.8" ry="29.8"/>
				</g>
			</g>
			<g class="st10">
				<g>
					<g>
						<ellipse transform="matrix(0.9919 -0.1274 0.1274 0.9919 -46.2294 23.4693)" cx="160.4" cy="373.2" rx="29.8" ry="29.8"/>
					</g>
				</g>
			</g>
			<g>
				<g>
					<path class="st8" d="M188.9,365.3c5.9,15.2-1.7,32.2-16.9,38.1c-15.2,5.9-32.2-1.7-38.1-16.9c-5.9-15.2,1.7-32.2,16.9-38.1
						c0,0,0,0,0,0C166,342.6,183,350.2,188.9,365.3z"/>
				</g>
			</g>
			<g class="st10">
				<g>
					<g>
						<path class="st7" d="M188.9,365.3c5.9,15.2-1.7,32.2-16.9,38.1c-15.2,5.9-32.2-1.7-38.1-16.9c-5.9-15.2,1.7-32.2,16.9-38.1
							c0,0,0,0,0,0C166,342.6,183,350.2,188.9,365.3z"/>
					</g>
				</g>
			</g>
			<g>
				<g>
					<path class="st8" d="M161.6,373.1l-2.7-7l0,0c1.3-0.3,2.7-0.5,4.1-0.5c0.7,0.1,1.5,0.2,2.2,0.4v-0.3l0.1-3v-0.7l-1.8-0.8
						l-0.5,0.5c-1.9-0.2-3.8,0-5.6,0.5l-1.5-3.9l-1.6-0.5l0.4,1l-1.6,0.6l1.5,3.9c-5.2,2.6-6.6,6.8-5.3,10.3c1.9,4.8,6.5,4.5,10.7,4
						l2.7,7c-2.6,0.8-5.4,0.8-8,0l-0.2,4.1c2.4,0.9,6.2,0.7,9.7-0.4l1.1,2.9l-1.4,0.6l1.7,0.4l2.9-1.1l-1.5-3.9
						c5.3-2.7,6.7-6.8,5.3-10.3C170.5,372.2,165.8,372.6,161.6,373.1z M158.4,373.5c-2.3,0.2-4,0-4.7-1.7c-0.7-1.7,0-3.2,2.3-4.5
						L158.4,373.5z M165.6,383.5l-2.4-6.2c2.3-0.2,4.2,0,4.8,1.7C168.6,380.5,168,382.1,165.6,383.5L165.6,383.5z"/>
				</g>
			</g>
			<g class="st6">
				<g>
					<g>
						<path d="M161.6,373.1l-2.7-7l0,0c1.3-0.3,2.7-0.5,4.1-0.5c0.7,0.1,1.5,0.2,2.2,0.4v-0.3l0.1-3v-0.7l-1.8-0.8l-0.5,0.5
							c-1.9-0.2-3.8,0-5.6,0.5l-1.5-3.9l-1.6-0.5l0.4,1l-1.6,0.6l1.5,3.9c-5.2,2.6-6.6,6.8-5.3,10.3c1.9,4.8,6.5,4.5,10.7,4l2.7,7
							c-2.6,0.8-5.4,0.8-8,0l-0.2,4.1c2.4,0.9,6.2,0.7,9.7-0.4l1.1,2.9l-1.4,0.6l1.7,0.4l2.9-1.1l-1.5-3.9c5.3-2.7,6.7-6.8,5.3-10.3
							C170.5,372.2,165.8,372.6,161.6,373.1z M158.4,373.5c-2.3,0.2-4,0-4.7-1.7c-0.7-1.7,0-3.2,2.3-4.5L158.4,373.5z M165.6,383.5
							l-2.4-6.2c2.3-0.2,4.2,0,4.8,1.7C168.6,380.5,168,382.1,165.6,383.5L165.6,383.5z"/>
					</g>
				</g>
			</g>
			<g>
				<g>
					<path class="st8" d="M165.5,386.8l1.5,3.9l-2.9,1.1l-1.5-3.9c-3.5,1.1-7.2,1.3-9.7,0.4l0.2-4.1c2.6,0.8,5.4,0.8,8,0l-2.7-7
						c-4.2,0.5-8.9,0.9-10.7-4c-1.4-3.6,0-7.6,5.3-10.3l-1.5-3.9l2.9-1.1l1.5,3.9c2.5-0.9,5.2-1.1,7.9-0.6l-0.1,4.1
						c-2.1-0.3-4.3-0.3-6.4,0.3l2.7,7.1c4.2-0.6,8.9-1,10.8,3.9C172.2,380.1,170.8,384.1,165.5,386.8z M156.9,373l-2.4-6.2
						c-2.3,1.3-2.9,3-2.3,4.5C152.9,372.8,154.6,373.2,156.9,373L156.9,373z M166.5,378.5c-0.7-1.7-2.5-1.9-4.8-1.7l2.4,6.2
						C166.4,381.6,167,380,166.5,378.5L166.5,378.5z"/>
				</g>
			</g>
			<g>
				<g>
					<path class="st7" d="M151.3,375.2c-0.4-0.1-0.8-0.2-1.1-0.5c-0.8-0.6-1.5-1.4-1.8-2.3c-0.3-1-0.3-2,0-3
						c0.1-0.4,0.3-0.8,0.6-1.1c0,0-0.2,0.4-0.4,1.1c-0.2,0.9-0.2,1.9,0.1,2.8c0.3,0.9,0.9,1.7,1.6,2.3
						C150.9,375,151.3,375.2,151.3,375.2z"/>
				</g>
			</g>
			<g>
				<g>
					<path class="st7" d="M153.4,362.2c-0.1,0-0.3-0.5-0.6-1.1c-0.2-0.7-0.4-1.1-0.3-1.2c0.1-0.1,0.3,0.5,0.6,1.1
						C153.3,361.6,153.5,362.1,153.4,362.2z"/>
				</g>
			</g>
			<g>
				<g>
					<rect x="117.3" y="419.1" class="st8" width="83.2" height="16.8"/>
				</g>
			</g>
			<g>
				<g>
					<path class="st4" d="M195.2,419.4c-0.2,0-0.4,3.7-0.4,8.1c0,4.5,0.2,8.1,0.4,8.1c0.2,0,0.4-3.6,0.4-8.1
						C195.5,423,195.4,419.4,195.2,419.4z"/>
				</g>
			</g>
			<g>
				<g>
					<path class="st4" d="M187.4,419.4c-0.2,0-0.4,3.7-0.4,8.1c0,4.5,0.2,8.1,0.4,8.1s0.4-3.6,0.4-8.1
						C187.8,423,187.6,419.4,187.4,419.4z"/>
				</g>
			</g>
			<g>
				<g>
					<path class="st4" d="M179.8,419.4c-0.2,0-0.4,3.7-0.4,8.1c0,4.5,0.2,8.1,0.4,8.1c0.2,0,0.4-3.6,0.4-8.1
						C180.2,423,180,419.4,179.8,419.4z"/>
				</g>
			</g>
			<g>
				<g>
					<path class="st4" d="M172.2,419.4c-0.2,0-0.4,3.7-0.4,8.1c0,4.5,0.2,8.1,0.4,8.1c0.2,0,0.4-3.6,0.4-8.1
						C172.6,423,172.5,419.4,172.2,419.4z"/>
				</g>
			</g>
			<g>
				<g>
					<path class="st4" d="M164.7,419.4c-0.2,0-0.4,3.7-0.4,8.1c0,4.5,0.2,8.1,0.4,8.1c0.2,0,0.4-3.6,0.4-8.1
						C165,423,164.9,419.4,164.7,419.4z"/>
				</g>
			</g>
			<g>
				<g>
					<path class="st4" d="M157.1,419.4c-0.2,0-0.4,3.7-0.4,8.1c0,4.5,0.2,8.1,0.4,8.1c0.2,0,0.4-3.6,0.4-8.1
						C157.4,423,157.3,419.4,157.1,419.4z"/>
				</g>
			</g>
			<g>
				<g>
					<path class="st4" d="M149.5,419.4c-0.2,0-0.4,3.7-0.4,8.1c0,4.5,0.2,8.1,0.4,8.1s0.4-3.6,0.4-8.1
						C149.9,423,149.7,419.4,149.5,419.4z"/>
				</g>
			</g>
			<g>
				<g>
					<path class="st4" d="M141.9,419.4c-0.2,0-0.4,3.7-0.4,8.1c0,4.5,0.2,8.1,0.4,8.1c0.2,0,0.4-3.6,0.4-8.1
						C142.3,423,142.1,419.4,141.9,419.4z"/>
				</g>
			</g>
			<g>
				<g>
					<path class="st4" d="M134.3,419.4c-0.2,0-0.4,3.7-0.4,8.1c0,4.5,0.2,8.1,0.4,8.1c0.2,0,0.4-3.6,0.4-8.1
						C134.7,423,134.5,419.4,134.3,419.4z"/>
				</g>
			</g>
			<g>
				<g>
					<path class="st4" d="M126.7,419.4c-0.2,0-0.4,3.7-0.4,8.1c0,4.5,0.2,8.1,0.4,8.1c0.2,0,0.4-3.6,0.4-8.1
						C127.1,423,126.9,419.4,126.7,419.4z"/>
				</g>
			</g>
			<g>
				<g>
					<path class="st4" d="M119.2,419.4c-0.2,0-0.4,3.7-0.4,8.1c0,4.5,0.2,8.1,0.4,8.1c0.2,0,0.4-3.6,0.4-8.1
						C119.5,423,119.4,419.4,119.2,419.4z"/>
				</g>
			</g>
			<g>
				<g>
					<path class="st4" d="M158.8,418.8c-22.9,0-41.5,0.2-41.5,0.4c0,0.2,18.6,0.4,41.5,0.4c22.9,0,41.5-0.2,41.5-0.4"/>
				</g>
			</g>
			<g>
				<g>
					<rect x="115.4" y="435.6" class="st8" width="83.2" height="16.8"/>
				</g>
			</g>
			<g class="st10">
				<rect x="141.3" y="435.6" class="st7" width="4.5" height="16"/>
			</g>
			<g>
				<g>
					<path class="st4" d="M193.3,435.9c-0.2,0-0.4,3.6-0.4,8.1c0,4.5,0.2,8.1,0.4,8.1s0.4-3.6,0.4-8.1S193.5,435.9,193.3,435.9z"/>
				</g>
			</g>
			<g>
				<g>
					<path class="st4" d="M185.6,435.9c-0.2,0-0.4,3.6-0.4,8.1c0,4.5,0.2,8.1,0.4,8.1s0.4-3.6,0.4-8.1S185.8,435.9,185.6,435.9z"/>
				</g>
			</g>
			<g>
				<g>
					<path class="st4" d="M178,435.9c-0.2,0-0.4,3.6-0.4,8.1c0,4.5,0.2,8.1,0.4,8.1c0.2,0,0.4-3.6,0.4-8.1S178.2,435.9,178,435.9z"
						/>
				</g>
			</g>
			<g>
				<g>
					<path class="st4" d="M170.4,435.9c-0.2,0-0.4,3.6-0.4,8.1c0,4.5,0.2,8.1,0.4,8.1c0.2,0,0.4-3.6,0.4-8.1
						S170.6,435.9,170.4,435.9z"/>
				</g>
			</g>
			<g>
				<g>
					<path class="st4" d="M162.8,435.9c-0.2,0-0.4,3.6-0.4,8.1c0,4.5,0.2,8.1,0.4,8.1c0.2,0,0.4-3.6,0.4-8.1S163,435.9,162.8,435.9z
						"/>
				</g>
			</g>
			<g>
				<g>
					<path class="st4" d="M155.2,435.9c-0.2,0-0.4,3.6-0.4,8.1c0,4.5,0.2,8.1,0.4,8.1c0.2,0,0.4-3.6,0.4-8.1
						S155.4,435.9,155.2,435.9z"/>
				</g>
			</g>
			<g>
				<g>
					<path class="st4" d="M147.7,435.9c-0.2,0-0.4,3.6-0.4,8.1c0,4.5,0.2,8.1,0.4,8.1c0.2,0,0.4-3.6,0.4-8.1
						S147.8,435.9,147.7,435.9z"/>
				</g>
			</g>
			<g>
				<g>
					<path class="st4" d="M140,435.9c-0.2,0-0.4,3.6-0.4,8.1c0,4.5,0.2,8.1,0.4,8.1s0.4-3.6,0.4-8.1S140.2,435.9,140,435.9z"/>
				</g>
			</g>
			<g>
				<g>
					<path class="st4" d="M132.5,435.9c-0.2,0-0.4,3.6-0.4,8.1c0,4.5,0.2,8.1,0.4,8.1s0.4-3.6,0.4-8.1S132.7,435.9,132.5,435.9z"/>
				</g>
			</g>
			<g>
				<g>
					<path class="st4" d="M124.9,435.9c-0.2,0-0.4,3.6-0.4,8.1c0,4.5,0.2,8.1,0.4,8.1s0.4-3.6,0.4-8.1S125.1,435.9,124.9,435.9z"/>
				</g>
			</g>
			<g>
				<g>
					<path class="st4" d="M117.2,435.9c-0.2,0-0.4,3.6-0.4,8.1c0,4.5,0.2,8.1,0.4,8.1c0.2,0,0.4-3.6,0.4-8.1
						S117.5,435.9,117.2,435.9z"/>
				</g>
			</g>
			<g class="st6">
				<g>
					<g>
						<path d="M197.3,435.6c-26.7,3.6-53.8,3.6-80.5,0H197.3z"/>
					</g>
				</g>
			</g>
			<g>
				<g>
					<path class="st4" d="M115.4,435.7c0,0.2,18.6,0.4,41.5,0.4c22.9,0,41.5-0.2,41.5-0.4c0-0.2-18.6-0.4-41.5-0.4
						S115.4,435.5,115.4,435.7z"/>
				</g>
			</g>
			<g>
				<g>
					<rect x="123.4" y="451.8" class="st8" width="83.2" height="16.8"/>
				</g>
			</g>
			<g class="st10">
				<rect x="141.7" y="452.3" class="st7" width="4.5" height="16"/>
			</g>
			<g>
				<g>
					<path class="st4" d="M201.2,452.1c-0.2,0-0.4,3.7-0.4,8.1c0,4.5,0.2,8.1,0.4,8.1s0.4-3.6,0.4-8.1
						C201.6,455.8,201.4,452.1,201.2,452.1z"/>
				</g>
			</g>
			<g>
				<g>
					<path class="st4" d="M193.5,452.1c-0.2,0-0.4,3.7-0.4,8.1c0,4.5,0.2,8.1,0.4,8.1c0.2,0,0.4-3.6,0.4-8.1
						C193.8,455.8,193.7,452.1,193.5,452.1z"/>
				</g>
			</g>
			<g>
				<g>
					<path class="st4" d="M185.8,452.1c-0.2,0-0.4,3.7-0.4,8.1c0,4.5,0.2,8.1,0.4,8.1c0.2,0,0.4-3.6,0.4-8.1
						C186.2,455.8,186.1,452.1,185.8,452.1z"/>
				</g>
			</g>
			<g>
				<g>
					<path class="st4" d="M178.3,452.1c-0.2,0-0.4,3.7-0.4,8.1c0,4.5,0.2,8.1,0.4,8.1c0.2,0,0.4-3.6,0.4-8.1
						C178.6,455.8,178.5,452.1,178.3,452.1z"/>
				</g>
			</g>
			<g>
				<g>
					<path class="st4" d="M170.7,452.1c-0.2,0-0.4,3.7-0.4,8.1c0,4.5,0.2,8.1,0.4,8.1c0.2,0,0.4-3.6,0.4-8.1
						C171,455.8,170.9,452.1,170.7,452.1z"/>
				</g>
			</g>
			<g>
				<g>
					<path class="st4" d="M163.1,452.1c-0.2,0-0.4,3.7-0.4,8.1c0,4.5,0.2,8.1,0.4,8.1c0.2,0,0.4-3.6,0.4-8.1
						C163.5,455.8,163.3,452.1,163.1,452.1z"/>
				</g>
			</g>
			<g>
				<g>
					<path class="st4" d="M155.6,452.1c-0.2,0-0.4,3.7-0.4,8.1c0,4.5,0.2,8.1,0.4,8.1c0.2,0,0.4-3.6,0.4-8.1
						C155.9,455.8,155.7,452.1,155.6,452.1z"/>
				</g>
			</g>
			<g>
				<g>
					<path class="st4" d="M147.9,452.1c-0.2,0-0.4,3.7-0.4,8.1c0,4.5,0.2,8.1,0.4,8.1c0.2,0,0.4-3.6,0.4-8.1
						C148.3,455.8,148.1,452.1,147.9,452.1z"/>
				</g>
			</g>
			<g>
				<g>
					<path class="st4" d="M140.4,452.1c-0.2,0-0.4,3.7-0.4,8.1c0,4.5,0.2,8.1,0.4,8.1c0.2,0,0.4-3.6,0.4-8.1
						C140.7,455.8,140.6,452.1,140.4,452.1z"/>
				</g>
			</g>
			<g>
				<g>
					<path class="st4" d="M132.8,452.1c-0.2,0-0.4,3.7-0.4,8.1c0,4.5,0.2,8.1,0.4,8.1s0.4-3.6,0.4-8.1
						C133.1,455.8,133,452.1,132.8,452.1z"/>
				</g>
			</g>
			<g>
				<g>
					<path class="st4" d="M125.2,452.1c-0.2,0-0.4,3.7-0.4,8.1c0,4.5,0.2,8.1,0.4,8.1c0.2,0,0.4-3.6,0.4-8.1
						C125.6,455.8,125.4,452.1,125.2,452.1z"/>
				</g>
			</g>
			<g class="st6">
				<g>
					<g>
						<path d="M205.2,451.9c-26.7,3.6-53.8,3.6-80.5,0H205.2z"/>
					</g>
				</g>
			</g>
			<g>
				<g>
					<path class="st4" d="M123.3,451.9c0,0.2,18.6,0.4,41.5,0.4s41.5-0.2,41.5-0.4c0-0.2-18.6-0.4-41.5-0.4S123.3,451.7,123.3,451.9
						z"/>
				</g>
			</g>
			<g>
				<g>
					<rect x="113.6" y="468.5" class="st8" width="83.2" height="16.1"/>
				</g>
			</g>
			<g class="st10">
				<rect x="141.7" y="468.6" class="st7" width="4.5" height="16"/>
			</g>
			<g>
				<g>
					<path class="st4" d="M191.4,468.8c-0.2,0-0.4,3.5-0.4,7.8c0,4.3,0.2,7.8,0.4,7.8s0.4-3.5,0.4-7.8
						C191.8,472.3,191.6,468.8,191.4,468.8z"/>
				</g>
			</g>
			<g>
				<g>
					<path class="st4" d="M183.7,468.8c-0.2,0-0.4,3.5-0.4,7.8c0,4.3,0.2,7.8,0.4,7.8s0.4-3.5,0.4-7.8
						C184.1,472.3,183.9,468.8,183.7,468.8z"/>
				</g>
			</g>
			<g>
				<g>
					<path class="st4" d="M176.1,468.8c-0.2,0-0.4,3.5-0.4,7.8c0,4.3,0.2,7.8,0.4,7.8c0.2,0,0.4-3.5,0.4-7.8
						C176.5,472.3,176.3,468.8,176.1,468.8z"/>
				</g>
			</g>
			<g>
				<g>
					<path class="st4" d="M168.5,468.8c-0.2,0-0.4,3.5-0.4,7.8c0,4.3,0.2,7.8,0.4,7.8c0.2,0,0.4-3.5,0.4-7.8
						C168.9,472.3,168.7,468.8,168.5,468.8z"/>
				</g>
			</g>
			<g>
				<g>
					<path class="st4" d="M160.9,468.8c-0.2,0-0.4,3.5-0.4,7.8c0,4.3,0.2,7.8,0.4,7.8c0.2,0,0.4-3.5,0.4-7.8
						C161.3,472.3,161.2,468.8,160.9,468.8z"/>
				</g>
			</g>
			<g>
				<g>
					<path class="st4" d="M153.4,468.8c-0.2,0-0.4,3.5-0.4,7.8c0,4.3,0.2,7.8,0.4,7.8c0.2,0,0.4-3.5,0.4-7.8
						C153.7,472.3,153.6,468.8,153.4,468.8z"/>
				</g>
			</g>
			<g>
				<g>
					<path class="st4" d="M145.8,468.8c-0.2,0-0.4,3.5-0.4,7.8c0,4.3,0.2,7.8,0.4,7.8c0.2,0,0.4-3.5,0.4-7.8
						C146.1,472.3,146,468.8,145.8,468.8z"/>
				</g>
			</g>
			<g>
				<g>
					<path class="st4" d="M138.2,468.8c-0.2,0-0.4,3.5-0.4,7.8c0,4.3,0.2,7.8,0.4,7.8c0.2,0,0.4-3.5,0.4-7.8
						C138.6,472.3,138.4,468.8,138.2,468.8z"/>
				</g>
			</g>
			<g>
				<g>
					<path class="st4" d="M130.6,468.8c-0.2,0-0.4,3.5-0.4,7.8c0,4.3,0.2,7.8,0.4,7.8s0.4-3.5,0.4-7.8
						C131,472.3,130.8,468.8,130.6,468.8z"/>
				</g>
			</g>
			<g>
				<g>
					<path class="st4" d="M123,468.8c-0.2,0-0.4,3.5-0.4,7.8c0,4.3,0.2,7.8,0.4,7.8c0.2,0,0.4-3.5,0.4-7.8
						C123.4,472.3,123.2,468.8,123,468.8z"/>
				</g>
			</g>
			<g>
				<g>
					<path class="st4" d="M115.4,468.8c-0.2,0-0.4,3.5-0.4,7.8c0,4.3,0.2,7.8,0.4,7.8c0.2,0,0.4-3.5,0.4-7.8
						C115.8,472.3,115.6,468.8,115.4,468.8z"/>
				</g>
			</g>
			<g class="st6">
				<g>
					<g>
						<path d="M195.5,468.5c-26.6,4.6-53.9,4.6-80.5,0H195.5z"/>
					</g>
				</g>
			</g>
			<g>
				<g>
					<path class="st4" d="M113.6,468.6c0,0.2,18.6,0.4,41.5,0.4s41.5-0.2,41.5-0.4c0-0.2-18.5-0.3-41.5-0.3S113.6,468.4,113.6,468.6
						z"/>
				</g>
			</g>
			<g>
				<g>
					<rect x="118.9" y="484.6" class="st8" width="83.2" height="16.1"/>
				</g>
			</g>
			<g class="st10">
				<rect x="140.9" y="485.1" class="st7" width="4.5" height="16"/>
			</g>
			<g>
				<g>
					<path class="st4" d="M196.8,484.9c-0.2,0-0.4,3.5-0.4,7.8c0,4.3,0.2,7.8,0.4,7.8c0.2,0,0.4-3.5,0.4-7.8
						C197.2,488.4,197,484.9,196.8,484.9z"/>
				</g>
			</g>
			<g>
				<g>
					<path class="st4" d="M189.1,484.9c-0.2,0-0.4,3.5-0.4,7.8c0,4.3,0.2,7.8,0.4,7.8c0.2,0,0.4-3.5,0.4-7.8
						C189.4,488.4,189.3,484.9,189.1,484.9z"/>
				</g>
			</g>
			<g>
				<g>
					<path class="st4" d="M181.5,484.9c-0.2,0-0.4,3.5-0.4,7.8c0,4.3,0.2,7.8,0.4,7.8c0.2,0,0.4-3.5,0.4-7.8
						C181.8,488.4,181.7,484.9,181.5,484.9z"/>
				</g>
			</g>
			<g>
				<g>
					<path class="st4" d="M173.9,484.9c-0.2,0-0.4,3.5-0.4,7.8c0,4.3,0.2,7.8,0.4,7.8s0.4-3.5,0.4-7.8
						C174.2,488.4,174.1,484.9,173.9,484.9z"/>
				</g>
			</g>
			<g>
				<g>
					<path class="st4" d="M166.3,484.9c-0.2,0-0.4,3.5-0.4,7.8c0,4.3,0.2,7.8,0.4,7.8c0.2,0,0.4-3.5,0.4-7.8
						C166.7,488.4,166.5,484.9,166.3,484.9z"/>
				</g>
			</g>
			<g>
				<g>
					<path class="st4" d="M158.7,484.9c-0.2,0-0.4,3.5-0.4,7.8c0,4.3,0.2,7.8,0.4,7.8s0.4-3.5,0.4-7.8
						C159.1,488.4,158.9,484.9,158.7,484.9z"/>
				</g>
			</g>
			<g>
				<g>
					<path class="st4" d="M151.1,484.9c-0.2,0-0.4,3.5-0.4,7.8c0,4.3,0.2,7.8,0.4,7.8c0.2,0,0.4-3.5,0.4-7.8
						C151.5,488.4,151.3,484.9,151.1,484.9z"/>
				</g>
			</g>
			<g>
				<g>
					<path class="st4" d="M143.5,484.9c-0.2,0-0.4,3.5-0.4,7.8c0,4.3,0.2,7.8,0.4,7.8c0.2,0,0.4-3.5,0.4-7.8
						C143.9,488.4,143.7,484.9,143.5,484.9z"/>
				</g>
			</g>
			<g>
				<g>
					<path class="st4" d="M136,484.9c-0.2,0-0.4,3.5-0.4,7.8c0,4.3,0.2,7.8,0.4,7.8s0.4-3.5,0.4-7.8
						C136.3,488.4,136.2,484.9,136,484.9z"/>
				</g>
			</g>
			<g>
				<g>
					<path class="st4" d="M128.4,484.9c-0.2,0-0.4,3.5-0.4,7.8c0,4.3,0.2,7.8,0.4,7.8c0.2,0,0.4-3.5,0.4-7.8
						C128.7,488.4,128.6,484.9,128.4,484.9z"/>
				</g>
			</g>
			<g>
				<g>
					<path class="st4" d="M120.8,484.9c-0.2,0-0.4,3.5-0.4,7.8c0,4.3,0.2,7.8,0.4,7.8s0.4-3.5,0.4-7.8
						C121.2,488.4,121,484.9,120.8,484.9z"/>
				</g>
			</g>
			<g class="st6">
				<g>
					<g>
						<path d="M200.8,484.7c-26.6,5.2-53.9,5.2-80.5,0H200.8z"/>
					</g>
				</g>
			</g>
			<g>
				<g>
					<path class="st4" d="M118.9,484.7c0,0.2,18.6,0.4,41.5,0.4s41.5-0.2,41.5-0.4c0-0.2-18.6-0.4-41.5-0.4
						C137.5,484.3,118.9,484.5,118.9,484.7z"/>
				</g>
			</g>
			<g>
				<g>
					<path class="st7" d="M140.9,343.6c0,0-0.6,0.4-1.6,1.1c-1.1,0.7-2.6,1.7-4.3,3.2c-3.4,2.9-7.6,7.8-10,14.2
						c-2.4,6.4-2.6,12.9-2,17.3c0.3,2.2,0.7,4,1.1,5.2c0.3,1.2,0.6,1.9,0.5,1.9c0,0-0.1-0.2-0.2-0.5c-0.1-0.3-0.3-0.8-0.5-1.4
						c-0.4-1.2-0.9-3-1.3-5.2c-0.7-4.5-0.7-11,1.8-17.6c2.5-6.6,6.8-11.5,10.3-14.3c1.8-1.4,3.3-2.5,4.4-3.1c0.5-0.3,1-0.5,1.3-0.7
						C140.8,343.6,140.9,343.6,140.9,343.6z"/>
				</g>
			</g>
		</g>
		<g class="st10">
			<rect x="142.9" y="419.5" class="st7" width="4.7" height="16"/>
		</g>
		<g>
			<g>
				<path class="st7" d="M143.2,433c-0.2,0-0.3-2.9-0.3-6.5c0-3.6,0.1-6.5,0.3-6.5c0.2,0,0.3,2.9,0.3,6.5
					C143.5,430.1,143.4,433,143.2,433z"/>
			</g>
		</g>
		<g>
			<g>
				<path class="st7" d="M140.9,452c-0.2,0-0.3-2.9-0.3-6.4c0-3.5,0.1-6.4,0.3-6.4c0.2,0,0.3,2.9,0.3,6.4
					C141.2,449.2,141.1,452,140.9,452z"/>
			</g>
		</g>
		<g>
			<g>
				<path class="st7" d="M141.3,467.1c-0.2,0-0.3-2.5-0.3-5.7c0-3.1,0.1-5.7,0.3-5.7c0.2,0,0.3,2.5,0.3,5.7
					C141.6,464.6,141.4,467.1,141.3,467.1z"/>
			</g>
		</g>
		<g>
			<g>
				<path class="st7" d="M140.9,483.8c-0.2,0-0.3-3-0.3-6.7c0-3.7,0.1-6.7,0.3-6.7c0.2,0,0.3,3,0.3,6.7
					C141.2,480.8,141.1,483.8,140.9,483.8z"/>
			</g>
		</g>
	</g>
	<g>
		<g>
			<g>
				<g>
					<path class="st7" d="M525.7,149.7h-89.5c-3.2,0-5.8-2.6-5.8-5.8V63.4c0-3.2,2.6-5.8,5.8-5.8h89.5c3.2,0,5.8,2.6,5.8,5.8v80.4
						C531.5,147,528.9,149.7,525.7,149.7z"/>
				</g>
			</g>
			<g>
				<g>
					<path class="st1" d="M531.5,73.3H430.4v-9.6c0-3.4,2.7-6.1,6.1-6.1h89.5c3.1,0,5.6,2.5,5.6,5.6V73.3z"/>
				</g>
			</g>
		</g>
		<g>
			<g>
				<g>
					<g>
						<path class="st7" d="M445,67c0,1.3-1.1,2.3-2.5,2.3s-2.5-1-2.5-2.3s1.1-2.3,2.5-2.3S445,65.7,445,67z"/>
					</g>
				</g>
			</g>
			<g>
				<g>
					<g>
						<path class="st7" d="M451.7,67c0,1.3-1.1,2.3-2.5,2.3c-1.4,0-2.5-1-2.5-2.3s1.1-2.3,2.5-2.3C450.6,64.6,451.7,65.7,451.7,67z"
							/>
					</g>
				</g>
			</g>
			<g>
				<g>
					<g>
						<path class="st7" d="M458.5,67c0,1.3-1.1,2.3-2.5,2.3c-1.4,0-2.5-1-2.5-2.3s1.1-2.3,2.5-2.3C457.4,64.6,458.5,65.7,458.5,67z"
							/>
					</g>
				</g>
			</g>
		</g>
		<g>
			<g>
				<g>
					<path class="st7" d="M441.5,81.5c0,0,0,56.8,0,56.3c0-0.5,81.3,0,81.3,0"/>
				</g>
			</g>
			<g>
				<g>
					<g>
						<path class="st4" d="M522.8,137.8c0,0-0.1,0-0.4,0c-0.3,0-0.6,0-1,0c-0.9,0-2.3,0-4,0c-3.5,0-8.5,0-14.7,0
							c-12.5,0-29.7,0-48.6,0c-2.4,0-4.7,0-7,0c-1.2,0-2.3,0-3.4,0.1c-0.6,0-1.1,0-1.7,0.1l-0.2,0c0,0,0,0,0,0l0,0
							c0.6,0-0.5-0.3-0.4-0.2v-0.1l0-0.4l0-0.8c0-4.5,0-8.8,0-12.9c0-8.2,0-15.6,0.1-21.9c0-6.2,0.1-11.2,0.1-14.7c0-1.7,0-3.1,0-4
							c0-0.4,0-0.8,0-1c0-0.2,0-0.4,0-0.4c0,0,0,0.1,0,0.4c0,0.3,0,0.6,0,1c0,0.9,0,2.3,0,4c0,3.5,0,8.5,0.1,14.7
							c0,6.2,0,13.6,0.1,21.9c0,4.1,0,8.4,0,12.9l0,0.8l0,0.4v0.1c0.1,0.1-0.9-0.2-0.3-0.2l0.1,0c0,0,0.1,0,0.1,0l0.2,0
							c0.6,0,1.1-0.1,1.7-0.1c1.1,0,2.3,0,3.4-0.1c2.3,0,4.7,0,7,0c19,0,36.2,0.1,48.6,0.2c6.2,0.1,11.2,0.1,14.7,0.2
							c1.7,0,3.1,0.1,4,0.1c0.4,0,0.8,0,1,0C522.7,137.8,522.8,137.8,522.8,137.8z"/>
					</g>
				</g>
			</g>
		</g>
		<g>
			<g>
				<rect x="449.8" y="108.9" class="st8" width="17.3" height="22.6"/>
			</g>
		</g>
		<g>
			<g>
				<rect x="473.3" y="96.8" class="st8" width="17.3" height="34.7"/>
			</g>
		</g>
		<g>
			<g>
				<rect x="496.9" y="86.7" class="st8" width="17.3" height="44.8"/>
			</g>
		</g>
		<g>
			<g>
				<g>
					<path class="st4" d="M525.7,149.7c0,0,0.3,0,1-0.1c0.6-0.1,1.6-0.4,2.6-1.1c1-0.7,2-2.1,2.2-3.9c0.1-1.8,0-3.9,0-6.3
						c0-9.5,0-23.3-0.1-40.3c0-8.5,0-17.8,0-27.8c0-1.3,0-2.5,0-3.8c0-0.6,0-1.3,0-1.9c0-0.6,0-1.3-0.1-1.9
						c-0.4-2.5-2.7-4.5-5.3-4.6c-5.3,0-10.8,0-16.4,0c-22.5,0-47.3,0-73.2,0c-1.6,0-3.1,0.7-4.1,1.8c-1.1,1.1-1.6,2.7-1.5,4.3
						c0,3.2,0,6.4,0,9.6c0,6.3,0,12.6,0,18.7c0,12.3,0,24.1,0,35.3c0,5.6,0,11.1,0,16.4c0,1.3,0.5,2.5,1.3,3.5c0.8,1,2,1.6,3.2,1.9
						c0.6,0.1,1.2,0.1,1.9,0.1c0.6,0,1.3,0,1.9,0c1.3,0,2.5,0,3.8,0c10,0,19.3,0,27.8,0c17,0,30.8,0.1,40.3,0.1c4.8,0,8.4,0,11,0
						c1.2,0,2.2,0,2.9,0C525.4,149.6,525.7,149.7,525.7,149.7s-0.3,0-1,0c-0.7,0-1.6,0-2.9,0c-2.5,0-6.2,0-11,0
						c-9.5,0-23.3,0-40.3,0.1c-8.5,0-17.8,0-27.8,0c-1.3,0-2.5,0-3.8,0c-0.6,0-1.3,0-1.9,0c-0.6,0-1.3,0-2-0.1c-1.3-0.3-2.6-1-3.4-2
						c-0.9-1-1.4-2.4-1.4-3.8c0-5.3,0-10.8,0-16.5c0-11.3,0-23.1,0-35.3c0-6.1,0-12.4,0-18.7c0-3.2,0-6.3,0-9.6
						c-0.1-1.6,0.4-3.4,1.6-4.6c1.1-1.3,2.8-2,4.5-2c26,0,50.7,0,73.2,0c5.6,0,11.1,0,16.5,0c2.8,0.1,5.3,2.3,5.7,5
						c0.1,0.7,0.1,1.3,0.1,2c0,0.6,0,1.3,0,1.9c0,1.3,0,2.5,0,3.8c0,10,0,19.3,0,27.8c0,17-0.1,30.8-0.1,40.3c0,2.4,0,4.5-0.1,6.3
						c-0.2,1.9-1.3,3.2-2.3,4c-1,0.8-2,1-2.6,1.1c-0.3,0.1-0.6,0.1-0.7,0.1C525.8,149.7,525.7,149.7,525.7,149.7z"/>
				</g>
			</g>
		</g>
	</g>
	<g>
		<g>
			<g>
				<path class="st7" d="M108.8,214.9H24c-3.7,0-6.6,3-6.6,6.6v35.8c0,3.7,3,6.6,6.6,6.6h84.8c3.7,0,6.6-3,6.6-6.6v-35.8
					C115.4,217.8,112.5,214.9,108.8,214.9z"/>
			</g>
		</g>
		<g>
			<g>
				<g>
					<g>
						<path class="st3" d="M108.2,368.8H24.6c-4,0-7.2-3.2-7.2-7.2v-109h98v109C115.4,365.5,112.2,368.8,108.2,368.8z"/>
					</g>
				</g>
			</g>
			<g>
				<g>
					<g>
						<rect x="17.4" y="252.3" class="st1" width="73.8" height="24.3"/>
					</g>
				</g>
			</g>
			<g>
				<g>
					<g>
						<path class="st1" d="M110.1,368.8c4.5,0,5.5-2.5,5.5-5.9l-0.2-110.4h-24v116.2L110.1,368.8z"/>
					</g>
				</g>
			</g>
			<g>
				<g>
					<g>
						<g>
							<path class="st4" d="M115.4,276.8c0,0.1-22.2,0.2-49.5,0.2c-27.4,0-49.5-0.1-49.5-0.2c0-0.1,22.2-0.2,49.5-0.2
								C93.2,276.6,115.4,276.7,115.4,276.8z"/>
						</g>
					</g>
				</g>
			</g>
			<g>
				<g>
					<g>
						<g>
							<path class="st4" d="M115.4,300.4c0,0.1-22.2,0.2-49.5,0.2c-27.4,0-49.5-0.1-49.5-0.2c0-0.1,22.2-0.2,49.5-0.2
								C93.2,300.2,115.4,300.3,115.4,300.4z"/>
						</g>
					</g>
				</g>
			</g>
			<g>
				<g>
					<g>
						<g>
							<path class="st4" d="M115.4,325.4c0,0.1-22.2,0.2-49.5,0.2c-27.4,0-49.5-0.1-49.5-0.2s22.2-0.2,49.5-0.2
								C93.2,325.3,115.4,325.3,115.4,325.4z"/>
						</g>
					</g>
				</g>
			</g>
			<g>
				<g>
					<g>
						<g>
							<path class="st4" d="M115.4,349.1c0,0.1-22.2,0.2-49.5,0.2c-27.4,0-49.5-0.1-49.5-0.2c0-0.1,22.2-0.2,49.5-0.2
								C93.2,348.9,115.4,349,115.4,349.1z"/>
						</g>
					</g>
				</g>
			</g>
			<g>
				<g>
					<g>
						<g>
							<path class="st4" d="M38.7,349.1c-0.1,0-0.2-21.5-0.2-48.1c0-26.6,0.1-48.1,0.2-48.1c0.1,0,0.2,21.5,0.2,48.1
								C38.9,327.5,38.8,349.1,38.7,349.1z"/>
						</g>
					</g>
				</g>
			</g>
			<g>
				<g>
					<g>
						<g>
							<path class="st4" d="M66.4,368.8c-0.1,0-0.2-26-0.2-58c0-32,0.1-58,0.2-58c0.1,0,0.2,26,0.2,58
								C66.6,342.9,66.5,368.8,66.4,368.8z"/>
						</g>
					</g>
				</g>
			</g>
			<g>
				<g>
					<g>
						<g>
							<path class="st4" d="M91.4,368.8c-0.1,0-0.2-25.9-0.2-57.9c0-32,0.1-58,0.2-58c0.1,0,0.2,25.9,0.2,58
								C91.6,342.8,91.5,368.8,91.4,368.8z"/>
						</g>
					</g>
				</g>
			</g>
			<g>
				<g>
					<g>
						<path class="st4" d="M30.8,285.4v0.8l-3.3,7.3h-1.2l3.2-7.1h-3.7v1.4h-1.1v-2.5H30.8z"/>
					</g>
				</g>
			</g>
			<g>
				<g>
					<g>
						<path class="st4" d="M55.8,291.2c0,1.5-1.3,2.4-3.2,2.4c-2,0-3.2-0.9-3.2-2.4c0-0.9,0.5-1.6,1.4-2c-0.7-0.3-1.1-0.9-1.1-1.7
							c0-1.4,1.2-2.2,2.9-2.2c1.8,0,2.9,0.8,2.9,2.2c0,0.8-0.4,1.4-1.1,1.7C55.3,289.6,55.8,290.3,55.8,291.2z M54.7,291.2
							c0-0.9-0.8-1.4-2.1-1.4c-1.3,0-2,0.6-2,1.4c0,0.9,0.8,1.5,2,1.5C53.9,292.7,54.7,292.1,54.7,291.2z M50.8,287.6
							c0,0.8,0.7,1.3,1.8,1.3c1.1,0,1.8-0.5,1.8-1.3c0-0.8-0.7-1.3-1.8-1.3C51.5,286.2,50.8,286.7,50.8,287.6z"/>
					</g>
				</g>
			</g>
			<g>
				<g>
					<g>
						<path class="st4" d="M81.4,288.7c0,2.8-1.6,4.3-3.8,4.3c-0.8,0-1.5-0.2-2-0.5l0.4-0.9c0.4,0.3,1,0.4,1.6,0.4
							c1.6,0,2.7-1,2.7-3.1v-0.3c-0.5,0.7-1.3,1.1-2.3,1.1c-1.6,0-2.8-1-2.8-2.5c0-1.6,1.3-2.6,2.9-2.6
							C80.2,284.6,81.4,286.1,81.4,288.7z M80,287.1c0-0.8-0.7-1.6-1.9-1.6c-1.1,0-1.8,0.6-1.8,1.6c0,0.9,0.7,1.6,1.8,1.6
							C79.2,288.7,80,288,80,287.1z"/>
					</g>
				</g>
			</g>
			<g>
				<g>
					<g>
						<path class="st4" d="M74.7,262.6c0-1.2,0.7-1.9,1.7-1.9c1,0,1.7,0.7,1.7,1.9c0,1.2-0.7,1.9-1.7,1.9
							C75.4,264.5,74.7,263.7,74.7,262.6z M77.2,262.6c0-0.7-0.3-1.1-0.7-1.1c-0.4,0-0.7,0.4-0.7,1.1c0,0.7,0.3,1.1,0.7,1.1
							C76.9,263.7,77.2,263.3,77.2,262.6z M80.6,260.7h1.2l-4.7,6.9h-1.2L80.6,260.7z M79.4,265.8c0-1.2,0.7-1.9,1.7-1.9
							c1,0,1.7,0.7,1.7,1.9c0,1.2-0.7,1.9-1.7,1.9C80.2,267.8,79.4,267,79.4,265.8z M81.9,265.8c0-0.7-0.3-1.1-0.7-1.1
							c-0.4,0-0.7,0.4-0.7,1.1c0,0.7,0.3,1.1,0.7,1.1C81.6,266.9,81.9,266.6,81.9,265.8z"/>
					</g>
				</g>
			</g>
			<g>
				<g>
					<g>
						<path class="st4" d="M24.6,264.9c0-2.1,1.6-3.6,3.7-3.6c1.1,0,2,0.4,2.6,1.1l-0.6,0.6c-0.5-0.6-1.2-0.8-2-0.8
							c-1.6,0-2.7,1.1-2.7,2.7c0,1.5,1.2,2.7,2.7,2.7c0.8,0,1.4-0.3,2-0.8l0.6,0.6c-0.6,0.7-1.6,1.1-2.7,1.1
							C26.1,268.4,24.6,266.9,24.6,264.9z"/>
					</g>
				</g>
			</g>
			<g>
				<g>
					<g>
						<path class="st4" d="M31.3,315.9h-1.5v2h-1.1v-2h-4.5v-0.8l4.1-5.3h1.3l-4,5.1h3.1v-1.8h1.1v1.8h1.5V315.9z"/>
					</g>
				</g>
			</g>
			<g>
				<g>
					<g>
						<path class="st4" d="M55.6,315.5c0,1.4-1,2.5-3.1,2.5c-1.1,0-2.3-0.4-3-1l0.5-0.9c0.5,0.5,1.4,0.9,2.4,0.9
							c1.2,0,1.9-0.6,1.9-1.4c0-0.9-0.6-1.5-2.5-1.5h-1.8l0.4-4.2h4.6v1h-3.6l-0.2,2.2h0.9C54.7,313.1,55.6,314.1,55.6,315.5z"/>
					</g>
				</g>
			</g>
			<g>
				<g>
					<g>
						<path class="st4" d="M81.7,314.8c0,1.6-1.3,2.6-2.9,2.6c-2.2,0-3.4-1.5-3.4-4c0-2.8,1.6-4.2,3.8-4.2c0.8,0,1.5,0.2,2,0.5
							l-0.4,0.9c-0.4-0.3-1-0.4-1.6-0.4c-1.6,0-2.7,1-2.7,3.1c0,0.1,0,0.2,0,0.3c0.5-0.7,1.3-1.1,2.3-1.1
							C80.5,312.4,81.7,313.3,81.7,314.8z M80.5,314.9c0-0.9-0.7-1.6-1.9-1.6c-1.1,0-1.9,0.7-1.9,1.6c0,0.8,0.7,1.6,1.9,1.6
							C79.8,316.4,80.5,315.8,80.5,314.9z"/>
					</g>
				</g>
			</g>
			<g>
				<g>
					<g>
						<path class="st4" d="M29.2,333.8v8.1h-1.1v-7.1h-1.8v-1H29.2z"/>
					</g>
				</g>
			</g>
			<g>
				<g>
					<g>
						<path class="st4" d="M55.7,340.9v1h-5.8v-0.8l3.3-3.2c0.9-0.8,1-1.3,1-1.9c0-0.8-0.6-1.3-1.7-1.3c-0.9,0-1.6,0.3-2.1,0.9
							l-0.8-0.7c0.6-0.8,1.7-1.2,3-1.2c1.7,0,2.8,0.9,2.8,2.3c0,0.8-0.2,1.5-1.3,2.5l-2.5,2.4H55.7z"/>
					</g>
				</g>
			</g>
			<g>
				<g>
					<g>
						<path class="st4" d="M80.9,338.8c0,1.4-1,2.5-3.1,2.5c-1.2,0-2.3-0.4-3-1l0.5-0.9c0.5,0.5,1.4,0.9,2.4,0.9
							c1.2,0,1.9-0.6,1.9-1.4c0-0.9-0.6-1.4-2-1.4h-0.6v-0.8l2-2.5h-3.9v-1h5.3v0.8l-2.1,2.6C80.1,336.7,80.9,337.6,80.9,338.8z"/>
					</g>
				</g>
			</g>
			<g>
				<g>
					<g>
						<path class="st4" d="M40.2,359.8c0-2.6,1.4-4.1,3.3-4.1c1.9,0,3.3,1.5,3.3,4.1c0,2.6-1.4,4.1-3.3,4.1
							C41.6,363.9,40.2,362.4,40.2,359.8z M45.6,359.8c0-2.1-0.9-3.1-2.1-3.1c-1.3,0-2.2,1-2.2,3.1c0,2.1,0.9,3.1,2.2,3.1
							C44.8,362.9,45.6,361.8,45.6,359.8z"/>
					</g>
				</g>
			</g>
			<g>
				<g>
					<g>
						<path class="st4" d="M79.2,358.6c0,0.2,0,0.4-0.2,0.8l-0.5,1.6h-0.7l0.4-1.7c-0.3-0.1-0.5-0.4-0.5-0.7c0-0.5,0.3-0.8,0.8-0.8
							C78.9,357.8,79.2,358.1,79.2,358.6z"/>
					</g>
				</g>
			</g>
			<g>
				<g>
					<g>
						<rect x="99.5" y="356.8" class="st4" width="7.9" height="0.8"/>
					</g>
				</g>
			</g>
			<g>
				<g>
					<g>
						<rect x="99.5" y="359.4" class="st4" width="7.9" height="0.8"/>
					</g>
				</g>
			</g>
			<g>
				<g>
					<g>
						<g>
							<g>
								<rect x="100.5" y="337.1" class="st4" width="5.9" height="0.6"/>
							</g>
						</g>
					</g>
					<g>
						<g>
							<g>
								<path class="st4" d="M106.7,338h-6.5v-1.2h6.5V338z M100.8,337.4l5.3,0L100.8,337.4z"/>
							</g>
						</g>
					</g>
				</g>
				<g>
					<g>
						<g>
							<g>
								
									<rect x="100.5" y="337.1" transform="matrix(6.123234e-17 -1 1 6.123234e-17 -233.9835 440.8286)" class="st4" width="5.9" height="0.6"/>
							</g>
						</g>
					</g>
					<g>
						<g>
							<g>
								<path class="st4" d="M104,340.7h-1.2v-6.5h1.2V340.7z M103.4,340.1L103.4,340.1v-5.3V340.1z"/>
							</g>
						</g>
					</g>
				</g>
			</g>
			<g>
				<g>
					<g>
						<polygon class="st4" points="106.2,287.1 105.3,286.3 103.4,288.1 101.5,286.3 100.7,287.1 102.6,289 100.7,290.9 
							101.5,291.7 103.4,289.9 105.3,291.7 106.2,290.9 104.3,289 						"/>
					</g>
				</g>
			</g>
			<g>
				<g>
					<g>
						<g>
							<g>
								<rect x="100.5" y="313.7" class="st4" width="5.9" height="0.6"/>
							</g>
						</g>
					</g>
					<g>
						<g>
							<g>
								<path class="st4" d="M106.7,314.6h-6.5v-1.2h6.5V314.6z M100.8,314l5.3,0L100.8,314z"/>
							</g>
						</g>
					</g>
				</g>
			</g>
			<g>
				<g>
					<g>
						<g>
							<g>
								<rect x="100.5" y="265" class="st4" width="5.9" height="0.6"/>
							</g>
						</g>
					</g>
					<g>
						<g>
							<g>
								<path class="st4" d="M106.7,265.9h-6.5v-1.2h6.5V265.9z M100.8,265.3l5.3,0L100.8,265.3z"/>
							</g>
						</g>
					</g>
				</g>
			</g>
			<g>
				<g>
					<g>
						<path class="st4" d="M104.4,262c0,0.5-0.4,1-1,1c-0.5,0-1-0.4-1-1s0.4-1,1-1C104,261,104.4,261.5,104.4,262z"/>
					</g>
				</g>
			</g>
			<g>
				<g>
					<g>
						<path class="st4" d="M104.4,268.3c0,0.5-0.4,1-1,1c-0.5,0-1-0.4-1-1c0-0.5,0.4-1,1-1C104,267.3,104.4,267.8,104.4,268.3z"/>
					</g>
				</g>
			</g>
			<g>
				<g>
					<g>
						<g>
							<polygon class="st4" points="55.8,263.5 55.2,263 54.1,264.1 53,263 52.4,263.5 53.6,264.7 52.4,265.8 53,266.3 54.1,265.2 
								55.2,266.3 55.8,265.8 54.6,264.7 							"/>
						</g>
					</g>
				</g>
				<g>
					<g>
						<g>
							<path class="st4" d="M57.1,267.9h-5.7c-0.3,0-0.5-0.1-0.7-0.3l-2-2.2c-0.4-0.4-0.4-1,0-1.4l2-2.2c0.2-0.2,0.5-0.3,0.7-0.3
								h5.7c0.6,0,1,0.5,1,1v4.3C58.2,267.4,57.7,267.9,57.1,267.9z M51.5,262.2c-0.1,0-0.2,0-0.2,0.1l-2,2.2
								c-0.1,0.1-0.1,0.4,0,0.5l2,2.2c0.1,0.1,0.1,0.1,0.2,0.1h5.7c0.2,0,0.3-0.2,0.3-0.3v-4.3c0-0.2-0.1-0.3-0.3-0.3H51.5z"/>
						</g>
					</g>
				</g>
			</g>
			<g>
				<g>
					<g>
						<path class="st4" d="M66.3,227.6v14.4h-1.1v-13.5h-3.5v-0.9H66.3z"/>
					</g>
				</g>
				<g>
					<g>
						<path class="st4" d="M79.8,227.6v0.7l-6.2,13.7h-1.2l6.1-13.5h-8.1v2.8h-1v-3.7H79.8z"/>
					</g>
				</g>
				<g>
					<g>
						<path class="st4" d="M91,238c0,2.4-1.7,4.2-5,4.2c-2.1,0-4.1-0.8-5.1-1.9l0.5-0.8c0.9,1,2.6,1.8,4.5,1.8c2.6,0,4-1.2,4-3.2
							c0-1.9-1.3-3.2-4.2-3.2h-0.9V234l4.3-5.5h-7.7v-0.9h9v0.7l-4.3,5.5C89.4,234,91,235.7,91,238z"/>
					</g>
				</g>
				<g>
					<g>
						<path class="st4" d="M104,238.1c0,2.5-2.1,4.1-5.5,4.1c-3.4,0-5.4-1.5-5.4-4.1c0-1.8,1.1-3.1,3.1-3.6
							c-1.6-0.5-2.6-1.7-2.6-3.3c0-2.3,1.9-3.7,4.9-3.7c3,0,5,1.4,5,3.7c0,1.6-0.9,2.7-2.6,3.3C102.9,235,104,236.3,104,238.1z
							 M103,238.1c0-1.9-1.6-3.1-4.4-3.1c-2.8,0-4.4,1.2-4.4,3.1c0,1.9,1.6,3.1,4.4,3.1C101.3,241.3,103,240,103,238.1z M98.5,234.1
							c2.4,0,3.9-1.1,3.9-2.8c0-1.8-1.5-2.9-3.9-2.9c-2.4,0-3.9,1.1-3.9,2.8C94.7,233,96.1,234.1,98.5,234.1z"/>
					</g>
				</g>
			</g>
		</g>
		<g>
			<g>
				<circle class="st1" cx="24.6" cy="221.9" r="2.4"/>
			</g>
		</g>
		<g>
			<g>
				<path class="st1" d="M35.1,221.9c0,1.3-1.1,2.4-2.4,2.4c-1.3,0-2.4-1.1-2.4-2.4s1.1-2.4,2.4-2.4C34,219.4,35.1,220.5,35.1,221.9
					z"/>
			</g>
		</g>
		<g>
			<g>
				<circle class="st1" cx="40.8" cy="221.9" r="2.4"/>
			</g>
		</g>
		<g>
			<g>
				<g>
					<path class="st4" d="M110.2,368.8c0,0,0.1,0,0.3,0c0.2,0,0.5,0,0.9-0.1c0.8-0.2,2-0.7,3.1-2c0.5-0.6,0.9-1.5,1-2.5
						c0.1-0.5,0.1-1,0.1-1.6c0-0.6,0-1.1,0-1.7c0-2.4,0-5.2,0-8.3c0-12.5,0-30.7-0.1-53.1c0-22.4,0-49.1,0-78.7
						c0.1-1.8-0.7-3.6-2.2-4.7c-0.7-0.5-1.6-0.9-2.5-1c-0.9-0.1-1.9,0-2.8,0c-3.8,0-7.6,0-11.5,0c-7.8,0-15.7,0-23.7,0
						c-16.1,0-32.8,0-49.9,0c-2.1,0-4.1,1.3-4.8,3.2c-0.2,0.5-0.3,1-0.4,1.5c0,0.5,0,1,0,1.6c0,1.1,0,2.1,0,3.2c0,4.2,0,8.4,0,12.6
						c0,8.3,0,16.5,0,24.6c0,16.1,0,31.7,0,46.5c0,14.8,0,28.9,0,42.1c0,3.3,0,6.5,0,9.7c0,0.8,0,1.6,0,2.4c0,0.8,0,1.6,0.1,2.3
						c0.3,1.5,1.3,2.8,2.6,3.5c0.7,0.4,1.4,0.6,2.1,0.6c0.7,0,1.5,0,2.2,0c1.5,0,3,0,4.4,0c2.9,0,5.8,0,8.6,0
						c22.4,0,40.5,0.1,53,0.1c6.3,0,11.1,0,14.4,0c1.6,0,2.9,0,3.8,0C109.8,368.8,110.2,368.8,110.2,368.8s-0.4,0-1.3,0
						c-0.9,0-2.1,0-3.8,0c-3.3,0-8.2,0-14.4,0c-12.5,0-30.7,0-53,0.1c-2.8,0-5.7,0-8.6,0c-1.5,0-2.9,0-4.4,0c-0.8,0-1.5,0-2.3,0
						c-0.8-0.1-1.5-0.3-2.2-0.7c-1.4-0.8-2.4-2.1-2.8-3.7c-0.2-0.8-0.1-1.6-0.1-2.4c0-0.8,0-1.6,0-2.4c0-3.2,0-6.4,0-9.7
						c0-13.2,0-27.2,0-42.1c0-14.8,0-30.4,0-46.5c0-8.1,0-16.3,0-24.6c0-4.2,0-8.4,0-12.6c0-1.1,0-2.1,0-3.2c0-0.5,0-1.1,0-1.6
						c0.1-0.5,0.2-1.1,0.4-1.6c0.8-2.1,3-3.5,5.2-3.4c17.1,0,33.8,0,49.9,0c8.1,0,16,0,23.7,0c3.9,0,7.7,0,11.5,0c1,0,1.9,0,2.9,0
						c1,0.1,1.9,0.5,2.7,1c1.6,1.1,2.5,3.1,2.3,5c0,29.6,0,56.3,0,78.7c0,22.4-0.1,40.5-0.1,53.1c0,3.1,0,5.9,0,8.3
						c0,0.6,0,1.2,0,1.7c0,0.6,0,1.1-0.1,1.6c-0.1,1-0.6,1.9-1.1,2.5c-1,1.3-2.3,1.8-3.1,2c-0.4,0.1-0.7,0.1-0.9,0.1
						C110.3,368.8,110.2,368.8,110.2,368.8z"/>
				</g>
			</g>
		</g>
	</g>
	<g>
		<g>
			<g>
				<g>
					<g>
						<path class="st11" d="M364.7,497.1c-0.3,0-5.5,9.1-5.5,9.1c0.4,0.7,3.5,3.1,3.1,4.3c-0.4,1.2-17.5,16.6-19.6,17.1
							c-2.2,0.5-4.4,0.1-4.4,0.1s4.5-11.1,6.3-15.5c1.8-4.4,7.2-17.6,7.2-17.6L364.7,497.1z"/>
					</g>
				</g>
				<g>
					<g>
						<path class="st4" d="M359.6,506.9c0.3,0.3,3.9,3.3,4.8,7.1c0.9,3.8-0.7,20.2-0.7,20.2l-1.7,0c0,0,0.2-12.3-0.3-13.2
							c-0.5-0.9-2.3-2.2-7.2,2c-4.9,4.2-4.2,8.8-8.7,10c-4.5,1.2-16.3-0.3-16.3-1.3c0.1-1,9-5,9-5s3,1,5.9-1.3
							C347.4,523,359.6,506.9,359.6,506.9z"/>
					</g>
				</g>
			</g>
			<g>
				<g>
					<path class="st11" d="M420.9,511.8l-0.3-3.8l0.2-2.2l-11.3,0.1c-0.1,1.9-0.2,4.3-0.3,7c-0.1,2.9,1.4,17,1.4,17H423l1.5-3.4
						L420.9,511.8z"/>
				</g>
				<g>
					<g>
						<path class="st4" d="M420.9,511.8c0,0,2.7,9.2,3.6,14.6c0.2,1.3,0.3,2.4,0.3,3.1c-0.3,3.6-1.9,6.4-8.7,6
							c-6.8-0.4-8.1-2.1-8.2-6.3c-0.2-4.2,0.7-12.7,1-15.3c0.3-2.7,0.6-4.4,0.6-4.4l0-0.8c0,0,0.4,3.1,0.3,5.3
							c-0.2,5,0.8,12.5,1.1,13c0.8,1.5,11,2.6,12.2,0.1C424.2,524.6,420.9,511.8,420.9,511.8z"/>
					</g>
				</g>
			</g>
			<g>
				<path class="st4" d="M433.3,310.6c1.2,0,10.2,25.4,12.2,43.7c2,18.3-17.2,157-17.2,157h-21.4c0,0,0.5-61,0-78.2
					c-0.6-18.9-1.6-57.7-1.6-57.7l-43.7,132.4l-26.1-5.9c0,0,15.2-67.6,21.4-96.5c6.2-28.9,16.4-62.5,18.2-74.5
					c1.6-10.4,3.2-20.3,3.2-20.3H433.3z"/>
			</g>
			<g class="st6">
				<path d="M366.1,365.3l-1.1,4.3c0,0,27.4,6.4,32.5,4.6c5.1-1.9,6.9-18.5,6.9-18.5s7.5,18.9,15.9,18.5c8.5-0.3,24.6-7.6,24.6-7.6
					l0.1-5.7l-26.7-23.5l-25.8,1.7L366.1,365.3z"/>
			</g>
			<g>
				<g>
					<path class="st5" d="M419.3,511.3c0,0,0-0.1,0-0.4c0-0.3,0-0.6,0-1c0.1-0.9,0.1-2.3,0.2-4c0.2-3.5,0.5-8.5,0.9-14.7
						c0.8-12.4,1.8-29.5,2.3-48.5c0.5-18.9,0.3-36.1,0-48.5c-0.2-6.2-0.3-11.2-0.4-14.7c0-1.7-0.1-3.1-0.1-4c0-0.4,0-0.8,0-1
						c0-0.2,0-0.4,0-0.4c0,0,0,0.1,0,0.4c0,0.3,0,0.6,0.1,1c0,0.9,0.1,2.3,0.2,4c0.2,3.5,0.4,8.5,0.6,14.7
						c0.4,12.4,0.6,29.6,0.1,48.5c-0.5,18.9-1.6,36.1-2.4,48.5c-0.4,6.2-0.8,11.2-1.1,14.7c-0.1,1.7-0.2,3-0.3,4
						c0,0.4-0.1,0.8-0.1,1C419.3,511.2,419.3,511.3,419.3,511.3z"/>
				</g>
			</g>
			<g>
				<g>
					<path class="st5" d="M382.1,378.8c0.1,0-7.7,28-17.5,62.4c-9.8,34.4-17.9,62.3-18,62.3c-0.1,0,7.7-28,17.5-62.4
						C373.9,406.7,382,378.8,382.1,378.8z"/>
				</g>
			</g>
		</g>
		<g>
			<path class="st4" d="M437.9,257.2c0.9-3.8-6.8-8-7-11.8c-0.2-3.9-0.2-7.9,1.6-11.3c1.4-2.6,3.7-4.9,3.4-7.8
				c-0.4-3.3-4.1-5.5-4.9-8.6c-0.6-2.3,0.5-4.6,1.1-6.9c2.2-8-2.2-23.2-8.5-32.3l-9.2,12.9l-25.7-19.1c-16.3,12-5.6,32.9-9.3,44.3
				c-1.7,5.3-10.6,11.9-10,17.5c0.5,4.9,3.3,7.3,3.1,12.2c-0.2,4-3.2,7.2-4.7,10.9c-1.8,4.4-1.2,9.4-1.8,14.1
				c-0.6,4.7-3.1,9.9-7.8,10.8c3.4,1.9,7.1,3.5,10.9,4.6c3.2,0.9,6.6,1.5,9.8,0.3c2.1-0.8,4-2.6,4.6-4.7c-0.1,2.4-0.1,4.7-0.2,7.1
				c10.9,0.7,24.6-4.2,33.9-10c0-5.3-0.3-10.5-0.7-15.7l25.2,14.4C445.6,276.8,437,261,437.9,257.2z"/>
		</g>
		<g>
			<g>
				<path class="st4" d="M423.6,178.4c-4.5-6.3-10.9-10.2-18.7-10.9c-4.4-0.4-6.3,0.4-9.5,1.1c-3.2,0.6-6.2,2.2-8.2,4.7
					c-2.4,3-4.6,6.5-5.2,10.3c-0.7,3.9-1.4,7.9-1.4,11.9c0,4,0.9,8.1,3,11.5l10,2.4c5.6,0.6,11.2,1.1,16.8,0.2
					c5.5-0.9,11-3.5,14.3-8.1C429.2,195.1,428.2,184.7,423.6,178.4z"/>
			</g>
			<g>
				<path class="st11" d="M383.4,186c0.5-6.4,6.5-14.8,14.5-14.3l3.6-0.2l13.2,6.2c1.9,0.2,3.4,1.9,3.3,3.9l-3.8,44.5L397,254
					l-2.7-24.3l-0.4-10.3c0,0-9-1.5-10.6-12.2C382.6,201.9,382.9,193.1,383.4,186z"/>
			</g>
			<g>
				<path class="st12" d="M399.4,205.8c0-0.6-0.3-1.1-0.7-1.4c-0.7-0.7-1.9-0.9-2.8-0.3c-0.9,0.5-1.4,1.7-1.4,2.8l0,0
					c0.4,0.7,1.1,1.2,1.9,1.3c0.1,0,0.2,0,0.4,0c0.6,0,1.2-0.1,1.7-0.6C399.1,207.1,399.5,206.4,399.4,205.8z"/>
			</g>
			<g>
				<path class="st4" d="M386.6,195.5c0,0.7,0.6,1.4,1.3,1.4c0.8,0,1.4-0.5,1.4-1.2c0-0.7-0.6-1.4-1.3-1.4
					C387.3,194.2,386.6,194.7,386.6,195.5z"/>
			</g>
			<g>
				<path class="st4" d="M385.6,189.7c0.2,0.2,1.2-0.6,2.7-0.6c1.5,0,2.6,0.8,2.7,0.6c0.1-0.1-0.1-0.4-0.6-0.8
					c-0.5-0.3-1.3-0.7-2.2-0.7c-0.9,0-1.7,0.3-2.2,0.7C385.7,189.3,385.6,189.6,385.6,189.7z"/>
			</g>
			<g>
				<path class="st4" d="M394.4,201.9c0-0.1-0.9-0.3-2.4-0.5c-0.4,0-0.7-0.1-0.8-0.4c-0.1-0.3,0.1-0.7,0.3-1.1
					c0.4-0.9,0.7-1.9,1.1-2.9c1.6-4.1,2.8-7.4,2.6-7.5c-0.2-0.1-1.6,3.2-3.2,7.3c-0.4,1-0.8,2-1.1,2.9c-0.1,0.4-0.4,0.9-0.2,1.5
					c0.1,0.3,0.4,0.5,0.6,0.6c0.2,0.1,0.5,0.1,0.6,0.1C393.4,202,394.3,202,394.4,201.9z"/>
			</g>
			<g>
				<path class="st12" d="M393.9,219.4c0,0,7.2,0.5,14.4-3.7c0,0-3.6,7.5-14.3,6.4L393.9,219.4z"/>
			</g>
			<g>
				<path class="st4" d="M398.7,203c-0.2,0-0.3,1.6-1.6,2.7c-1.4,1.1-3.1,0.9-3.1,1.2c0,0.1,0.4,0.3,1.1,0.3c0.7,0,1.7-0.2,2.6-0.9
					c0.8-0.7,1.2-1.6,1.3-2.3C399,203.3,398.8,202.9,398.7,203z"/>
			</g>
			<g>
				<path class="st4" d="M385.9,183.8c0.2,0.4,1.4,0.1,2.7,0.3c1.3,0.1,2.4,0.5,2.7,0.2c0.1-0.2,0-0.5-0.5-0.9
					c-0.4-0.4-1.2-0.7-2.1-0.8c-0.9-0.1-1.7,0.1-2.2,0.4C386,183.3,385.8,183.7,385.9,183.8z"/>
			</g>
			<g>
				<path class="st4" d="M402.2,195.7c0,0.7-0.6,1.3-1.4,1.3c-0.8,0-1.4-0.6-1.4-1.3c0-0.7,0.6-1.3,1.4-1.3
					C401.6,194.4,402.2,195,402.2,195.7z"/>
			</g>
			<g>
				<path class="st4" d="M405.6,190.4c-0.2,0.2-1.2-0.6-2.7-0.7c-1.5-0.1-2.6,0.6-2.7,0.4c-0.1-0.1,0.1-0.4,0.6-0.7
					c0.5-0.3,1.3-0.6,2.2-0.6c0.9,0,1.7,0.4,2.1,0.8C405.6,190,405.7,190.4,405.6,190.4z"/>
			</g>
			<g>
				<path class="st4" d="M406.1,185.7c-0.3,0.3-1.4-0.1-2.8-0.2c-1.4-0.1-2.5,0.1-2.8-0.3c-0.1-0.2,0.1-0.5,0.6-0.8
					c0.5-0.3,1.4-0.5,2.3-0.4c0.9,0.1,1.7,0.4,2.2,0.8C406,185.2,406.2,185.6,406.1,185.7z"/>
			</g>
			<g>
				<path class="st11" d="M415,199.4c0-0.8,1-2.7,1.7-2.8c2.1-0.3,5.9-0.1,5.9,5.2c0,7.3-8.1,5.9-8.1,5.9
					C414.5,207.6,414.9,202.2,415,199.4z"/>
			</g>
			<g>
				<path class="st12" d="M417.2,204.8c0,0,0.1,0.1,0.3,0.2c0.2,0.1,0.6,0.2,1,0c0.8-0.3,1.4-1.5,1.5-2.8c0-0.7-0.1-1.3-0.3-1.8
					c-0.2-0.5-0.6-0.9-1-1c-0.4-0.1-0.7,0.1-0.8,0.3c-0.1,0.2-0.1,0.4-0.1,0.4c0,0-0.2-0.1-0.1-0.4c0-0.1,0.1-0.3,0.3-0.5
					c0.2-0.1,0.4-0.2,0.7-0.2c0.6,0,1.1,0.6,1.3,1.1c0.3,0.6,0.5,1.3,0.4,2c-0.1,1.5-0.8,2.8-1.9,3.1c-0.5,0.1-0.9,0-1.2-0.2
					C417.2,204.9,417.2,204.8,417.2,204.8z"/>
			</g>
			<g>
				<path class="st4" d="M417,196.7l-2,1.8c-7.5-8.2-21.9-28.3-21.1-27.1c0,0,5.6-1.9,11.5-0.5c5.9,1.4,17,5.1,16.3,12.1
					C421.1,189.9,417,196.7,417,196.7z"/>
			</g>
		</g>
		<g>
			<g>
				<g>
					<path class="st1" d="M393.5,223.1c0.4,0.3,12.3,11,12.3,11l8.3-11.4l6.6,18.1l-7.4,36.5c0,0-7.2,12.5-7.4,11.7
						c-0.2-0.7-14.6-19.7-13.4-19.2c1.2,0.5-1.7-33-1.7-33v-11.4L393.5,223.1z"/>
				</g>
				<g>
					<g>
						<path class="st4" d="M407.1,284c0,0,0-0.2,0-0.5c0-0.4,0-0.9,0-1.4c0-1.3,0-3.1,0-5.3c0-4.5,0.1-10.6-0.1-17.4
							c-0.3-6.8-0.6-12.9-0.9-17.4c-0.1-2.2-0.2-4-0.2-5.3c0-0.6,0-1.1,0-1.4c0-0.3,0-0.5,0-0.5c0,0,0,0.2,0.1,0.5
							c0,0.4,0.1,0.9,0.1,1.4c0.1,1.3,0.2,3.1,0.4,5.3c0.3,4.5,0.7,10.6,1,17.4c0.2,6.8,0,13-0.1,17.4c-0.1,2.2-0.1,4-0.1,5.3
							c0,0.6,0,1.1-0.1,1.4C407.2,283.8,407.2,284,407.1,284z"/>
					</g>
				</g>
				<g>
					<g>
						<path class="st4" d="M414.3,234.8c0,0-0.3,0.6-0.9,1.5c-0.7,1-1.5,2.4-2.6,4l-0.1,0.2l-0.2-0.2c-1.4-1.8-3.1-3.8-4.9-6.1
							l0.4,0c-0.2,0.3-0.5,0.6-0.7,1c-1.2,1.7-2.5,3.4-3.5,4.9c-0.1,0.2-0.2,0.3-0.3,0.5l0,0c0,0,0,0,0,0c0,0,0,0.1,0,0.1
							c0,0.1-0.1,0.1-0.1,0.1c0,0-0.1,0-0.1,0l0,0c0,0,0,0-0.1,0c0,0-0.1,0-0.1-0.1l-0.1-0.1l-0.3-0.2c-0.3-0.3-0.7-0.6-1-0.9
							c-0.6-0.6-1.1-1.1-1.7-1.6c-1-1-1.8-1.8-2.3-2.4c-0.5-0.6-0.8-0.9-0.8-0.9c0,0,0.4,0.3,0.9,0.8c0.6,0.6,1.5,1.4,2.5,2.3
							c0.5,0.5,1.1,1,1.7,1.5c0.3,0.3,0.6,0.6,1,0.8l0.3,0.2l0.1,0.1l0,0c0,0-0.1,0.2-0.1,0.2c0,0,0,0,0,0l0,0c-0.4,0-0.1,0-0.2,0
							l0,0c0.1-0.2,0.1-0.3,0.2-0.4l0.2-0.3c1-1.6,2.2-3.2,3.5-5c0.2-0.3,0.5-0.7,0.7-1l0.2-0.3l0.2,0.2c1.8,2.3,3.4,4.3,4.8,6.1
							l-0.3,0c1.1-1.6,2-2.9,2.7-3.9C413.9,235.3,414.3,234.7,414.3,234.8z"/>
					</g>
				</g>
			</g>
			<g>
				<g>
					<path class="st8" d="M414.3,221.2l4.7,5.9l18.6,3.7c0,0-5.6,64.4-6,67c-0.4,2.5,11.9,29.2,16.1,64.5c0,0-24.7,8.8-28.4,6.6
						c-3.7-2.2-14.2-25.2-14.2-25.2l1.4-57.3c0,0,7.4-25.2,8.1-37.8C415.4,236.7,414.3,221.2,414.3,221.2z"/>
				</g>
				<g class="st6">
					<path d="M408.6,280.2c0,0,10.9,25.8,9.5,31.5c-1.4,5.6-7,31.8-8.8,40.7l-4.4-9.1l1.7-56.9L408.6,280.2z"/>
				</g>
				<g>
					<g>
						<path class="st4" d="M409.4,290.9c0,0,0.1-0.2,0.4-0.7c0.3-0.5,0.7-1.1,1.2-1.8c0.5-0.8,1.2-1.7,1.9-2.9
							c0.4-0.6,0.7-1.2,1.1-1.9c0.4-0.7,0.8-1.4,1.2-2.1c0.8-1.5,1.7-3.1,2.6-5c0.4-0.9,0.9-1.8,1.3-2.8c0.4-1,0.9-2,1.3-3
							c1.7-4.2,3.4-8.9,4.8-13.9c1.4-5,2.4-9.9,3-14.4c0-0.3,0.1-0.6,0.1-0.8c0-0.3,0-0.4-0.2-0.5c-0.4-0.2-1-0.2-1.5-0.1
							c-0.5,0-1,0.1-1.5,0.2c-0.2,0.1-0.5,0.1-0.7,0.2c0,0,0,0,0,0c0,0,0,0,0,0c0,0,0,0,0,0c0.1-0.1-0.2-0.3-0.2-0.2c0,0,0,0,0,0
							c0,0,0.1,0,0.1-0.1l0.3-0.2c0.8-0.6,1.6-1.2,2.3-1.8c0.2-0.1,0.4-0.3,0.6-0.4l0.1-0.1l0.1,0c0,0,0,0,0,0c0,0,0-0.1,0-0.2
							c-0.1-0.4-0.3-0.8-0.5-1.2c-1.7-3-3.3-5.3-4.3-6.9c-0.5-0.8-0.9-1.4-1.2-1.8c-0.3-0.4-0.4-0.6-0.4-0.7c0,0,0.2,0.2,0.5,0.6
							c0.3,0.4,0.8,1,1.3,1.8c1.1,1.6,2.7,3.8,4.5,6.8c0.2,0.4,0.4,0.8,0.6,1.2c0,0.1,0.1,0.2,0,0.4c0,0.1-0.1,0.1-0.1,0.2l-0.1,0
							l-0.1,0.1c-0.2,0.1-0.4,0.3-0.6,0.4c-0.7,0.6-1.5,1.2-2.3,1.8l-0.3,0.2c-0.1,0-0.1,0.1-0.2,0.1c0,0,0,0-0.1,0
							c0,0.1-0.3-0.2-0.2-0.3c0,0,0-0.1,0-0.1c0,0,0,0,0.1-0.1c0,0,0.1-0.1,0.1-0.1c0.3-0.1,0.5-0.2,0.8-0.3
							c0.5-0.1,1.1-0.2,1.6-0.2c0.6,0,1.1-0.1,1.7,0.2c0.1,0.1,0.3,0.2,0.4,0.4c0.1,0.2,0,0.3,0,0.5c0,0.3-0.1,0.6-0.1,0.9
							c-0.5,4.5-1.6,9.4-2.9,14.5c-1.4,5.1-3.1,9.8-4.8,14c-0.5,1-0.9,2.1-1.3,3c-0.5,1-0.9,1.9-1.4,2.8c-0.9,1.8-1.8,3.5-2.6,5
							c-0.4,0.8-0.8,1.5-1.3,2.1c-0.4,0.7-0.8,1.3-1.2,1.9c-0.7,1.2-1.4,2.1-2,2.9c-0.5,0.7-1,1.3-1.3,1.8
							C409.5,290.7,409.4,290.9,409.4,290.9z"/>
					</g>
				</g>
				<g>
					<g>
						<path class="st8" d="M437.4,315.5c-1,0.3-13.5,4.3-13.5,4.3s1.1,11.5,2.7,11.7c1.6,0.1,14.2-3.7,15.1-4.6
							C442.6,325.9,437.4,315.5,437.4,315.5z"/>
					</g>
					<g>
						<g>
							<path class="st4" d="M437.4,315.5c0,0,0.1,0.2,0.3,0.5c0.2,0.3,0.4,0.8,0.7,1.4c0.6,1.2,1.5,3,2.5,5.3
								c0.2,0.6,0.5,1.2,0.7,1.8c0.1,0.3,0.2,0.7,0.3,1c0.1,0.4,0.2,0.7,0.1,1.1c0,0.1,0,0.1,0,0.2c0,0.1-0.1,0.1-0.1,0.2l-0.3,0.2
								c-0.2,0.1-0.3,0.2-0.5,0.3c-0.3,0.2-0.7,0.3-1.1,0.4c-0.7,0.3-1.5,0.5-2.3,0.8c-3.1,1-6.5,2.1-10.3,2.9
								c-0.3,0.1-0.6,0.1-0.9,0.1c-0.5-0.1-0.6-0.5-0.8-0.7c-0.3-0.6-0.5-1.1-0.6-1.7c-0.3-1.1-0.5-2.2-0.7-3.3
								c-0.4-2.2-0.6-4.2-0.8-6.2l0-0.2l0.2,0c4-1.2,7.4-2.3,9.9-3c1.1-0.3,2.1-0.6,2.8-0.8C437.1,315.6,437.4,315.5,437.4,315.5
								c0,0-0.4,0.1-1,0.4c-0.7,0.2-1.6,0.5-2.8,0.9c-2.4,0.8-5.7,1.9-9.7,3.2l0.1-0.2c0.2,1.9,0.5,4,0.8,6.1
								c0.2,1.1,0.4,2.2,0.7,3.3c0.2,0.5,0.3,1.1,0.6,1.6c0.1,0.2,0.3,0.5,0.4,0.5c0.3,0,0.5,0,0.8-0.1c3.7-0.7,7.1-1.8,10.2-2.8
								c0.8-0.3,1.5-0.5,2.2-0.8c0.4-0.1,0.7-0.3,1-0.4c0.2-0.1,0.3-0.1,0.5-0.2l0.2-0.1c0,0,0,0,0,0l0-0.1c0-0.6-0.2-1.3-0.4-2
								c-0.2-0.6-0.4-1.2-0.7-1.8c-0.9-2.3-1.7-4.1-2.3-5.4c-0.3-0.6-0.5-1.1-0.7-1.4C437.4,315.7,437.4,315.5,437.4,315.5z"/>
						</g>
					</g>
				</g>
			</g>
			<g>
				<g>
					<path class="st8" d="M393.5,223.1c-1.6,1-7.6,6.1-7.6,6.1l-16.2,5.5c0,0,9.1,66.3,8.4,70c-1.5,7.8-16.9,38.7-18.2,59.9
						c0,0,33.4,7.4,35.7,4.6c2.3-2.8,18.6-51.2,18.6-59c0-7.8-13-41.6-15.4-50.2C396.6,251.5,393.5,223.1,393.5,223.1z"/>
				</g>
				<g>
					<g>
						<path class="st4" d="M404.4,346.3c0,0,0-0.1,0-0.2c0-0.1,0.1-0.3,0.2-0.5c0.1-0.5,0.4-1.1,0.6-1.9c0.6-1.7,1.4-4.2,2.4-7.3
							c1-3.1,2.2-6.9,3.6-11.3c0.7-2.2,1.4-4.5,2-6.9c0.2-0.6,0.3-1.2,0.5-1.9c0.2-0.6,0.3-1.3,0.3-1.9c0-1.3-0.2-2.7-0.5-4l0,0.1
							c-2.4-3.8-4.9-7.9-7.6-12.1c-1.4-2.1-2.7-4.3-4.1-6.5c-0.7-1.1-1.5-2.2-2.2-3.3c-0.7-1.2-1.4-2.3-2.1-3.5
							c-2.3-4.1-4.3-8.2-6-12.2c-0.9-2-1.6-4.1-2.4-6c-0.7-2-1.4-3.9-2-5.9c-1.3-3.8-2.3-7.5-3.2-11c-0.9-3.5-1.6-6.8-2.1-9.8
							c0-0.2-0.1-0.4-0.1-0.6c0-0.2,0-0.5,0.2-0.6c0.4-0.3,0.8-0.3,1.2-0.3c0.7,0,1.5,0.1,2.1,0.3c0.2,0,0.3,0.1,0.5,0.1
							c0.1,0,0.2,0.1,0.3,0.1c0,0,0.1,0.1,0.2,0.1c0,0,0,0,0,0.1c0.1-0.1,0,0.3-0.2,0.2c0,0,0,0-0.1,0c0,0-0.1,0-0.1,0
							c-0.3-0.2-0.5-0.4-0.8-0.6c-0.5-0.4-1-0.8-1.5-1.2c-0.2-0.2-0.5-0.4-0.7-0.6l-0.3-0.3c0,0-0.1,0-0.1-0.1c0-0.1,0-0.1-0.1-0.2
							c0-0.1,0-0.2,0-0.3c0.1-0.6,0.4-1.1,0.6-1.6c0.4-0.9,0.9-1.8,1.3-2.5c0.8-1.5,1.5-2.6,2-3.4c0.2-0.4,0.4-0.6,0.5-0.9
							c0.1-0.2,0.2-0.3,0.2-0.3c0,0,0,0.1-0.2,0.3c-0.1,0.2-0.3,0.5-0.5,0.9c-0.4,0.8-1.1,1.9-1.9,3.4c-0.4,0.8-0.8,1.6-1.3,2.5
							c-0.2,0.5-0.4,1-0.5,1.5c0,0.1,0,0.1,0,0.2c0,0,0,0.1,0,0c0,0,0,0,0,0c0,0,0,0,0,0l0.4,0.3c0.2,0.2,0.5,0.4,0.7,0.6
							c0.5,0.4,1,0.8,1.5,1.2c0.3,0.2,0.5,0.4,0.8,0.6c0,0,0,0,0,0c0,0,0,0.1,0,0.1c0,0,0,0-0.1,0c0,0-0.1,0-0.1,0c0,0,0.1,0,0,0
							c0,0,0,0-0.1,0c-0.1,0-0.1-0.1-0.2-0.1c-0.2-0.1-0.3-0.1-0.5-0.1c-0.7-0.2-1.4-0.2-2.1-0.2c-0.3,0-0.7,0.1-0.9,0.2
							c-0.2,0.1,0,0.6,0,0.9c0.5,3,1.2,6.3,2.1,9.7c0.9,3.5,1.9,7.2,3.2,11c0.6,1.9,1.3,3.9,2,5.8c0.8,2,1.5,4,2.4,6
							c1.7,4.1,3.7,8.1,6,12.2c5.8,9.2,11.2,17.9,16,25.5l0,0l0,0c0.3,1.4,0.5,2.7,0.5,4.1c0,0.7-0.2,1.4-0.3,2
							c-0.1,0.6-0.3,1.3-0.5,1.9c-0.7,2.5-1.4,4.8-2,7c-1.4,4.3-2.6,8.1-3.7,11.2c-1.1,3.1-1.9,5.5-2.5,7.2
							c-0.3,0.8-0.5,1.4-0.7,1.9c-0.1,0.2-0.1,0.4-0.2,0.5C404.4,346.3,404.4,346.3,404.4,346.3z"/>
					</g>
				</g>
				<g>
					<g>
						<path class="st8" d="M373.6,316.9l12.9,4.2c0,0-1.1,11.5-2.7,11.7s-14.2-3.7-15.1-4.6C367.7,327.2,373.6,316.9,373.6,316.9z"
							/>
					</g>
					<g>
						<g>
							<path class="st4" d="M373.6,316.9c0,0-0.1,0.2-0.2,0.5c-0.2,0.4-0.4,0.8-0.7,1.4c-0.6,1.2-1.6,3-2.6,5.2
								c-0.5,1.1-1.1,2.3-1.3,3.7c0,0.1,0,0.3,0,0.4c0.1,0.1,0.2,0.2,0.4,0.2c0.3,0.2,0.7,0.3,1,0.4c0.7,0.3,1.5,0.5,2.2,0.8
								c3.1,1,6.5,2.1,10.1,2.9c0.3,0.1,0.6,0.1,0.9,0.1c0.1,0,0.3,0,0.4,0c0.1,0,0.1-0.1,0.2-0.2c0.3-0.4,0.5-1,0.7-1.6
								c0.3-1.1,0.5-2.3,0.7-3.4c0.4-2.2,0.6-4.3,0.9-6.3l0.1,0.2c-3.8-1.3-6.9-2.3-9.2-3.1c-1.1-0.4-2-0.7-2.6-0.9
								C374,317.1,373.6,316.9,373.6,316.9c0,0,0.3,0.1,0.9,0.2c0.7,0.2,1.5,0.5,2.6,0.8c2.3,0.7,5.6,1.7,9.4,2.9l0.2,0l0,0.2
								c-0.2,2-0.4,4.1-0.8,6.3c-0.2,1.1-0.4,2.3-0.7,3.4c-0.2,0.6-0.4,1.2-0.7,1.7c-0.1,0.1-0.2,0.3-0.5,0.4c-0.2,0-0.4,0-0.5,0
								c-0.3,0-0.6-0.1-0.9-0.2c-3.7-0.8-7.1-1.9-10.1-2.9c-0.8-0.3-1.5-0.5-2.2-0.8c-0.4-0.1-0.7-0.3-1.1-0.5
								c-0.2-0.1-0.4-0.2-0.5-0.3c-0.2-0.3-0.1-0.5-0.2-0.7c0.1-0.8,0.4-1.4,0.6-2c0.3-0.6,0.5-1.2,0.8-1.8c1.1-2.2,2.1-3.9,2.7-5.1
								c0.3-0.6,0.6-1,0.8-1.4C373.5,317.1,373.6,316.9,373.6,316.9z"/>
						</g>
					</g>
				</g>
				<g>
					<path class="st4" d="M411.7,313.3c0,1.3-1.1,2.4-2.5,2.4c-1.4,0-2.5-1.1-2.5-2.4c0-1.3,1.1-2.4,2.5-2.4
						C410.6,310.9,411.7,312,411.7,313.3z"/>
				</g>
				<g>
					<path class="st4" d="M399.8,312.6c0,1.3-1.1,2.4-2.5,2.4c-1.4,0-2.5-1.1-2.5-2.4c0-1.3,1.1-2.4,2.5-2.4
						C398.7,310.3,399.8,311.3,399.8,312.6z"/>
				</g>
				<g>
					<ellipse class="st4" cx="395.7" cy="294.9" rx="2.5" ry="2.4"/>
				</g>
			</g>
			<g>
				<g>
					<path class="st8" d="M370.1,234.7c0,0-6.4,0.6-7.8,17.4c-1.1,13.3-1.3,33-1.3,33l-22.1-10.8l-9.2,11.7c0,0,27.2,24.8,39.2,20.4
						c12-4.4,9.9-26.2,9.9-26.2l-4.8-35.3L370.1,234.7z"/>
				</g>
				<g>
					<g>
						<path class="st4" d="M368.4,245.9c0,0,0.1,0.2,0.1,0.5c0.1,0.4,0.2,0.9,0.3,1.5c0.3,1.3,0.7,3.1,1.1,5.3
							c0.9,4.5,2.2,10.8,3.6,17.7c1.3,6.9,2.4,13.2,3.1,17.8c0.3,2.3,0.6,4.1,0.7,5.4c0.1,0.6,0.1,1.1,0.1,1.5c0,0.3,0,0.5,0,0.5
							c0,0-0.1-0.2-0.1-0.5c-0.1-0.4-0.1-0.9-0.2-1.5c-0.2-1.3-0.5-3.1-0.8-5.4c-0.7-4.6-1.9-10.8-3.2-17.7
							c-1.3-6.9-2.5-13.1-3.4-17.7c-0.4-2.3-0.8-4.1-1-5.4c-0.1-0.6-0.2-1.1-0.2-1.5C368.4,246.1,368.4,245.9,368.4,245.9z"/>
					</g>
				</g>
				<g>
					<g>
						<path class="st4" d="M367.2,293.6c-0.1,0.1-1.2-2.1-2.9-4.4c-1.7-2.4-3.4-4-3.3-4.1c0.1-0.1,2,1.4,3.7,3.8
							C366.4,291.3,367.3,293.6,367.2,293.6z"/>
					</g>
				</g>
			</g>
			<g>
				<g>
					<g>
						<g>
							<path class="st8" d="M436.9,230.6c0,0,10.8,2.7,12.2,16c0.7,6.6,1.9,46.9,1.7,50.2c-0.1,3.3-3,12.5-8,12.8
								c-8,0.5-10.1-5.6-10.1-5.6l-1.1-18.2L436.9,230.6z"/>
						</g>
					</g>
					<g>
						<g>
							<path class="st4" d="M432.8,256.7l-37.8,1.9c-0.9,0-1.6,0.8-1.6,1.6l-2.5,44.8c-0.1,1,0.8,1.9,1.8,1.8l36.7-1.9
								c0.9,0,1.6-0.7,1.6-1.6l3.6-44.8C434.7,257.5,433.8,256.6,432.8,256.7z"/>
						</g>
					</g>
					<g>
						<g>
							<g>
								<path class="st11" d="M433.6,286.1c0,0,2.2,0.1,4.1,3.3l3.7,2.3c0,0,3.2,5.1,0,9.8c-3.2,4.7-7.1,0.7-7.1,0.7s-3.9,1.9-5,1.6
									c-1.1-0.3-8.5-4.3-9.5-5.2c-0.3-0.3-2.7-3-2.7-3s-3.3-0.7-3.7-1.5c-0.4-0.8-0.4-2.5,1.8-2.3c0,0-2.2-0.7-2.4-1.7
									c-0.3-1.1,0-2.5,3.8-2c3.8,0.5,11.2,2.6,12,2.4c0.2,0,0.5-0.7-0.1-1c-0.3-0.1-8.9-3.5-10.3-3.9c-1.5-0.4-1.7-3.8,1.4-3
									c3.1,0.8,13.2,3.2,13.2,3.2L433.6,286.1z"/>
							</g>
						</g>
						<g>
							<g>
								<g>
									<path class="st12" d="M427.9,298.9c0,0-0.6-0.2-1.6-0.5c-1-0.3-2.3-0.8-3.8-1.2c-1.5-0.4-2.9-0.8-3.9-1.1
										c-1-0.3-1.6-0.4-1.6-0.5c0,0,0.2,0,0.4,0c0.3,0,0.7,0.1,1.2,0.2c1,0.2,2.4,0.6,3.9,1c1.5,0.4,2.9,0.9,3.8,1.3
										c0.5,0.2,0.9,0.3,1.1,0.4C427.7,298.8,427.9,298.9,427.9,298.9z"/>
								</g>
							</g>
						</g>
						<g>
							<g>
								<g>
									<path class="st12" d="M429.1,294.9c0,0-0.2,0-0.6,0c-0.4,0-0.9-0.1-1.5-0.2c-1.3-0.2-3.1-0.5-5-0.9
										c-1.9-0.4-3.7-0.9-4.9-1.2c-0.6-0.2-1.1-0.3-1.5-0.4c-0.3-0.1-0.5-0.2-0.5-0.2c0,0,0.2,0,0.6,0.1c0.4,0.1,0.9,0.2,1.5,0.4
										c1.3,0.3,3,0.7,4.9,1.1c1.9,0.4,3.7,0.7,5,1c0.6,0.1,1.1,0.2,1.5,0.3C428.9,294.8,429.1,294.9,429.1,294.9z"/>
								</g>
							</g>
						</g>
						<g>
							<g>
								<g>
									<path class="st12" d="M439.6,294c0,0,0,0.1,0,0.4c0,0.3-0.1,0.6-0.1,1.1c-0.2,0.9-0.6,2.1-1.4,3.3c-0.8,1.2-1.7,2-2.5,2.6
										c-0.4,0.3-0.7,0.4-0.9,0.6c-0.2,0.1-0.4,0.2-0.4,0.1c0,0,0.5-0.3,1.2-0.8c0.7-0.5,1.6-1.4,2.4-2.5c0.8-1.1,1.2-2.3,1.4-3.2
										C439.5,294.6,439.5,294,439.6,294z"/>
								</g>
							</g>
						</g>
						<g>
							<g>
								<g>
									<path class="st4" d="M440.8,302.8c0,0,0.5-0.5,1-1.5c0.6-0.9,1.2-2.4,1.2-4.1c0.1-1.7-0.4-3.2-1-4.2c-0.5-1-1-1.5-0.9-1.5
										c0,0,0.1,0.1,0.3,0.4c0.2,0.2,0.5,0.6,0.8,1.1c0.6,1,1.1,2.5,1,4.3c-0.1,1.8-0.7,3.3-1.3,4.2c-0.3,0.5-0.6,0.8-0.8,1.1
										C440.9,302.7,440.8,302.8,440.8,302.8z"/>
								</g>
							</g>
						</g>
					</g>
					<g>
						<g>
							<g>
								<path class="st4" d="M449.3,286.7c0,0-0.6-0.4-1.7-0.9c-0.5-0.3-1.2-0.5-1.9-0.7c-0.8-0.2-1.6-0.4-2.5-0.4
									c-0.9-0.1-1.8,0-2.5,0.1c-0.8,0.1-1.5,0.3-2,0.4c-1.1,0.4-1.8,0.7-1.8,0.7c0,0,0.2-0.1,0.4-0.3c0.1-0.1,0.3-0.2,0.5-0.3
									c0.2-0.1,0.5-0.2,0.8-0.3c0.6-0.2,1.3-0.4,2.1-0.5c0.8-0.1,1.7-0.2,2.6-0.1c0.9,0.1,1.8,0.3,2.5,0.5c0.8,0.2,1.4,0.5,2,0.8
									c0.3,0.1,0.5,0.3,0.7,0.4c0.2,0.1,0.4,0.2,0.5,0.3C449.2,286.6,449.3,286.7,449.3,286.7z"/>
							</g>
						</g>
					</g>
				</g>
				<g>
					<path class="st7" d="M416.1,271.8c0,1-0.8,1.7-1.7,1.7c-1,0-1.7-0.8-1.7-1.7c0-1,0.8-1.7,1.7-1.7
						C415.4,270.1,416.1,270.9,416.1,271.8z"/>
				</g>
			</g>
			<g>
				<g>
					<g>
						<path class="st4" d="M312.6,263.6l21.1,22.9c0.5,0.6,1.4,0.8,2.1,0.6l13.3-4.1c1.3-0.4,1.8-2,0.9-3.1l-19.3-22.4
							c-0.9-1-2.3-1.4-3.6-1.1l-13.7,4.1C312.1,261,311.7,262.6,312.6,263.6z"/>
					</g>
					<g>
						<g>
							<g>
								<g>
									<g>
										<g>
											<path class="st11" d="M330,271.1c0-0.9-0.8-1.5-1.7-1.5c-0.5,0.1-1.1,0.1-1.9,0.3c-2,0.3-7.7,3.7-7.7,4.9
												c-0.1,1.7,0.8,2.3,0.8,2.3s-1,1.6-0.5,2.8c0.4,1.1,2.2,1.3,2.2,1.3s-1.2,1.6,0.2,2.6c0.5,0.3,1.5,1,1.7,1.2
												c0,0,0.2,0.7,0.4,0.9c0.7,0.8,1.6,1.3,2.6,1.3l0.3,0c0.6,0,1.3-0.2,1.7-0.6c2.2-1.9,8.3-7.5,8.4-8.9c0,0,1.2-1.1,0.6-2
												c-0.6-1-2.4-0.4-2.4-0.4s0.8-0.7,0.3-1.8c-0.5-1-3.8-0.7-5.3-0.4c-1.2,0.2-4.5,1-4.5,1s4.3-1.8,4.5-2.6
												C330,271.3,330,271.2,330,271.1z"/>
										</g>
									</g>
								</g>
								<g>
									<g>
										<g>
											<g>
												<path class="st12" d="M336.6,277.6c0,0-0.1,0.1-0.4,0.3c-0.3,0.2-0.7,0.4-1.2,0.7c-1,0.6-2.5,1.4-4.2,2.2
													c-1.7,0.8-3.2,1.4-4.3,1.9c-0.6,0.2-1,0.4-1.3,0.5c-0.3,0.1-0.5,0.2-0.5,0.2c0,0,0.2-0.1,0.5-0.2
													c0.3-0.1,0.8-0.3,1.3-0.6c1.1-0.5,2.6-1.1,4.3-1.9c1.7-0.8,3.1-1.5,4.2-2.1c0.5-0.3,0.9-0.5,1.2-0.7
													C336.4,277.7,336.6,277.6,336.6,277.6z"/>
											</g>
										</g>
									</g>
								</g>
								<g>
									<g>
										<g>
											<g>
												<path class="st12" d="M335,275.1c0,0-0.2,0.1-0.5,0.1c-0.3,0.1-0.8,0.2-1.3,0.4c-1.1,0.3-2.6,0.9-4.2,1.5
													c-0.8,0.3-1.6,0.6-2.3,0.9c-0.7,0.3-1.3,0.6-1.8,0.9c-0.5,0.3-0.9,0.5-1.2,0.6c-0.3,0.2-0.4,0.2-0.4,0.2
													c0,0,0,0,0.1-0.1c0.1-0.1,0.2-0.1,0.3-0.2c0.3-0.2,0.7-0.4,1.2-0.7c0.5-0.3,1.1-0.6,1.8-0.9c0.7-0.3,1.5-0.6,2.3-0.9
													c1.6-0.6,3.1-1.2,4.2-1.5c0.6-0.2,1-0.3,1.3-0.3C334.8,275.1,335,275.1,335,275.1z"/>
											</g>
										</g>
									</g>
								</g>
								<g>
									<g>
										<g>
											<g>
												<path class="st12" d="M325.4,274c0,0-0.2,0.2-0.7,0.4c-0.4,0.2-1,0.6-1.7,0.9c-0.7,0.3-1.3,0.7-1.7,0.9
													c-0.4,0.2-0.7,0.4-0.7,0.4c0,0,0.2-0.2,0.7-0.5c0.4-0.3,1-0.6,1.7-1c0.7-0.3,1.3-0.6,1.7-0.8
													C325.1,274.1,325.4,274,325.4,274z"/>
											</g>
										</g>
									</g>
								</g>
							</g>
							<g>
								<g>
									<g>
										<g>
											<path class="st12" d="M334.7,280.3c0,0-0.1,0.1-0.3,0.4c-0.2,0.2-0.5,0.6-0.8,0.9c-0.7,0.8-1.8,1.8-3,2.9
												c-0.3,0.3-0.6,0.6-0.8,0.8c-0.3,0.3-0.6,0.5-0.9,0.7c-0.6,0.4-1.2,0.7-1.7,0.9c-0.5,0.2-1,0.2-1.3,0.2
												c-0.1,0-0.3,0-0.3,0c-0.1,0-0.1,0-0.1,0c0,0,0.2,0,0.5,0c0.3,0,0.7-0.1,1.2-0.3c0.5-0.2,1.1-0.5,1.6-0.9
												c0.3-0.2,0.6-0.4,0.8-0.7c0.3-0.3,0.5-0.5,0.8-0.8c1.2-1.1,2.2-2.1,3-2.9c0.4-0.4,0.7-0.7,0.9-0.9
												C334.6,280.4,334.7,280.3,334.7,280.3z"/>
										</g>
									</g>
								</g>
							</g>
						</g>
					</g>
				</g>
				<g>
					<path class="st7" d="M324.3,264.3c0,0.6-0.6,1-1.2,1c-0.7,0-1.2-0.4-1.2-1c0-0.6,0.6-1,1.2-1
						C323.7,263.3,324.3,263.7,324.3,264.3z"/>
				</g>
			</g>
		</g>
	</g>
</g>
</svg>
