<?xml version="1.0" encoding="utf-8"?>
<!-- Generator: Adobe Illustrator 28.2.0, SVG Export Plug-In . SVG Version: 6.00 Build 0)  -->
<svg version="1.1" id="Layer_1" xmlns="http://www.w3.org/2000/svg" xmlns:xlink="http://www.w3.org/1999/xlink" x="0px" y="0px"
	 viewBox="0 0 550 550" style="enable-background:new 0 0 550 550;" xml:space="preserve">
<style type="text/css">
	.st0{fill:#E1E1E1;}
	.st1{fill:#ECECEC;}
	.st2{fill:#F5F5F5;}
	.st3{fill:#FFFFFF;}
	.st4{fill:#375A64;}
	.st5{fill:#FAFAFA;}
	.st6{fill:none;stroke:#FFFFFF;stroke-miterlimit:10;}
	.st7{fill:#1A2E35;}
	.st8{fill:#FF735D;}
	.st9{fill:#996964;}
	.st10{fill:#784D48;}
	.st11{opacity:0.3;}
	.st12{opacity:0.4;}
	.st13{opacity:0.5;}
	.st14{fill:none;}
</style>
<g>
	<g>
		<g>
			<g>
				<g>
					<g>
						<g>
							<path class="st0" d="M457.8,408.9c-0.1,0.2-1.1-0.5-2.3-1.4c-1.1-0.9-1.9-1.7-1.8-1.9c0.1-0.2,1.1,0.5,2.3,1.4
								C457.1,407.9,457.9,408.7,457.8,408.9z"/>
						</g>
					</g>
				</g>
			</g>
			<g>
				<g>
					<g>
						<g>
							<path class="st1" d="M488.5,363.2c0.2-4.3,0.3-8.6-1-12.7c-1.4-4-4.5-7.8-8.6-8.6c-4.8-1-9.7,2-12.4,6.1
								c-2.7,4-3.6,9.1-4.4,13.8c-5.4,33.2-7.4,66.9-6,100.5l19.5,2.7C484.1,429.9,486.9,399.3,488.5,363.2z"/>
						</g>
					</g>
				</g>
				<g>
					<g>
						<g>
							<g>
								<path class="st0" d="M476,341.6c0,0,0,0.1-0.1,0.3c-0.1,0.3-0.2,0.5-0.4,0.9c-0.3,0.8-0.7,1.9-1.3,3.4
									c-0.3,0.7-0.6,1.6-0.9,2.5c-0.3,0.9-0.6,1.9-0.9,2.9c-0.4,1.1-0.7,2.2-1.1,3.4c-0.3,1.2-0.6,2.5-1,3.8
									c-1.5,5.4-2.7,12-3.8,19.3c-1.1,7.3-1.7,15.5-2.3,24c-1,17.1-1.2,32.6-1.6,43.9c-0.2,5.6-0.4,10.2-0.6,13.3
									c-0.1,1.6-0.2,2.7-0.3,3.6c0,0.4-0.1,0.6-0.1,0.9c0,0.2,0,0.3-0.1,0.3c0,0,0-0.1,0-0.4s0-0.5,0-0.9c0-0.9,0.1-2.1,0.1-3.6
									c0.1-3.1,0.3-7.7,0.4-13.3c0.3-11.3,0.4-26.8,1.4-43.9c0.5-8.5,1.3-16.8,2.4-24.1s2.4-13.9,3.9-19.3
									c0.4-1.4,0.7-2.7,1.1-3.8c0.4-1.2,0.8-2.3,1.2-3.4s0.7-2,1-2.9c0.3-0.9,0.7-1.7,1-2.4c0.6-1.4,1.1-2.5,1.5-3.3
									c0.2-0.4,0.3-0.6,0.4-0.8C475.9,341.7,476,341.6,476,341.6z"/>
							</g>
						</g>
					</g>
				</g>
				<g>
					<g>
						<g>
							<g>
								<path class="st0" d="M477.8,341.7c0,0,1.2,1.2,2.4,4c1.2,2.7,2,7.2,1.7,12.6c-0.5,10.8-1.5,25.7-2.7,42.2
									c-1.3,16.4-2.7,31.3-3.8,42.1c-0.5,5.4-1.1,9.7-1.5,12.7c-0.2,1.5-0.4,2.6-0.5,3.5c-0.1,0.4-0.1,0.6-0.1,0.9
									c0,0.2-0.1,0.3-0.1,0.3s0-0.1,0-0.3c0-0.3,0-0.5,0.1-0.9c0.1-0.8,0.2-2,0.3-3.5c0.3-3,0.7-7.4,1.2-12.7
									c1-10.7,2.4-25.6,3.7-42.1c1.3-16.4,2.3-31.3,2.9-42.1c0.3-5.4-0.4-9.7-1.6-12.6C478.8,343,477.7,341.7,477.8,341.7z"/>
							</g>
						</g>
					</g>
				</g>
				<g>
					<g>
						<g>
							<g>
								<path class="st0" d="M491.4,392.2c-0.1,0.2-1.7-0.3-3.7-0.9c-2-0.7-3.6-1.5-3.5-1.6c0.1-0.2,1.7,0.3,3.7,0.9
									C489.8,391.4,491.4,392.1,491.4,392.2z"/>
							</g>
						</g>
					</g>
				</g>
				<g>
					<g>
						<g>
							<g>
								<path class="st0" d="M493.7,372.3c0.1,0.2-1.5,1-3.5,1.9c-2,0.9-3.8,1.5-3.8,1.3c-0.1-0.2,1.5-1,3.5-1.9
									C491.9,372.8,493.7,372.2,493.7,372.3z"/>
							</g>
						</g>
					</g>
				</g>
				<g>
					<g>
						<g>
							<g>
								<path class="st0" d="M492.5,356.1c0,0.2-1.3,0.3-2.9,0.2c-1.6-0.1-2.8-0.4-2.8-0.5c0-0.2,1.3-0.3,2.9-0.2
									C491.2,355.7,492.5,355.9,492.5,356.1z"/>
							</g>
						</g>
					</g>
				</g>
				<g>
					<g>
						<g>
							<g>
								<path class="st0" d="M472.3,345.7c-0.2,0.1-1-1-1.9-2.4c-0.9-1.4-1.5-2.7-1.3-2.7c0.2-0.1,1,1,1.9,2.4
									C471.9,344.4,472.5,345.6,472.3,345.7z"/>
							</g>
						</g>
					</g>
				</g>
				<g>
					<g>
						<g>
							<g>
								<path class="st0" d="M465.6,355.5c0,0.2-1.3,0.4-2.7,0.3c-1.6,0-2.7-0.2-2.7-0.4c0-0.2,1.3-0.4,2.7-0.3
									C464.4,355.1,465.6,355.3,465.6,355.5z"/>
							</g>
						</g>
					</g>
				</g>
				<g>
					<g>
						<g>
							<g>
								<path class="st0" d="M460.9,375.2c-0.1,0.2-1.4-0.2-2.9-0.8c-1.6-0.6-2.7-1.3-2.7-1.5c0.1-0.2,1.4,0.2,2.9,0.8
									C459.8,374.4,461,375,460.9,375.2z"/>
							</g>
						</g>
					</g>
				</g>
				<g>
					<g>
						<g>
							<g>
								<path class="st0" d="M460.3,391.7c0,0.2-1.1,0.5-2.5,0.9c-1.4,0.3-2.6,0.4-2.7,0.2c0-0.2,1.1-0.5,2.5-0.9
									C459.1,391.6,460.3,391.5,460.3,391.7z"/>
							</g>
						</g>
					</g>
				</g>
				<g>
					<g>
						<g>
							<g>
								<path class="st0" d="M458.1,418.8c0,0.2-1.2,0.5-2.7,0.8s-2.7,0.4-2.7,0.2c0-0.2,1.2-0.5,2.7-0.8
									C456.8,418.6,458.1,418.6,458.1,418.8z"/>
							</g>
						</g>
					</g>
				</g>
				<g>
					<g>
						<g>
							<g>
								<path class="st0" d="M456.6,433.8c0.1,0.2-0.9,0.8-2.2,1.6c-1.3,0.7-2.5,1.1-2.6,0.9c-0.1-0.2,0.9-0.8,2.2-1.6
									C455.4,433.9,456.6,433.6,456.6,433.8z"/>
							</g>
						</g>
					</g>
				</g>
				<g>
					<g>
						<g>
							<g>
								<path class="st0" d="M468.8,450.7c-0.2,0.1-1-1.1-1.9-2.7c-0.9-1.6-1.5-2.9-1.3-3c0.2-0.1,1,1.1,1.9,2.7
									C468.4,449.2,468.9,450.6,468.8,450.7z"/>
							</g>
						</g>
					</g>
				</g>
				<g>
					<g>
						<g>
							<g>
								<path class="st0" d="M472.3,422.5c0.1,0.2-0.8,1.3-2.1,2.6c-1.3,1.3-2.5,2.2-2.7,2.1c-0.1-0.2,0.8-1.3,2.1-2.6
									C471,423.3,472.2,422.4,472.3,422.5z"/>
							</g>
						</g>
					</g>
				</g>
				<g>
					<g>
						<g>
							<g>
								<path class="st0" d="M471.6,407.7c-0.2,0.1-1-0.6-2-1.6c-0.9-1-1.6-1.9-1.5-2.1c0.2-0.1,1,0.6,2,1.6
									C471,406.6,471.7,407.6,471.6,407.7z"/>
							</g>
						</g>
					</g>
				</g>
				<g>
					<g>
						<g>
							<g>
								<path class="st0" d="M474,388.8c0.2,0.1-0.6,1.3-1.7,2.5c-1.1,1.3-2.2,2.2-2.3,2c-0.2-0.1,0.6-1.3,1.7-2.5
									C472.8,389.6,473.8,388.7,474,388.8z"/>
							</g>
						</g>
					</g>
				</g>
				<g>
					<g>
						<g>
							<g>
								<path class="st0" d="M475.3,375.1c-0.1,0.2-1.3-0.7-2.5-1.9c-1.3-1.2-2.1-2.3-2-2.5c0.1-0.2,1.3,0.7,2.5,1.9
									C474.6,373.9,475.4,375,475.3,375.1z"/>
							</g>
						</g>
					</g>
				</g>
				<g>
					<g>
						<g>
							<g>
								<path class="st0" d="M478,356.6c0.2,0.1-0.4,1.4-1.3,2.7c-0.8,1.5-1.6,2.5-1.8,2.4c-0.2-0.1,0.4-1.4,1.3-2.7
									C477,357.6,477.8,356.5,478,356.6z"/>
							</g>
						</g>
					</g>
				</g>
				<g>
					<g>
						<g>
							<g>
								<path class="st0" d="M483,339.4c0.2,0.1-0.4,1.4-1.1,2.7c-0.8,1.5-1.6,2.6-1.7,2.5c-0.2-0.1,0.4-1.4,1.1-2.7
									C482.1,340.4,482.9,339.3,483,339.4z"/>
							</g>
						</g>
					</g>
				</g>
				<g>
					<g>
						<g>
							<g>
								<path class="st0" d="M488.7,347.2c0.1,0.2-0.7,0.7-1.7,1.2c-1,0.5-1.9,0.7-2,0.5c-0.1-0.2,0.7-0.7,1.7-1.2
									C487.7,347.3,488.6,347,488.7,347.2z"/>
							</g>
						</g>
					</g>
				</g>
				<g>
					<g>
						<g>
							<g>
								<path class="st0" d="M488.9,408.9c0,0.2-1.8-0.1-3.8-0.9c-2-0.8-3.4-1.9-3.3-2.1c0.1-0.2,1.6,0.6,3.6,1.5
									C487.3,408.2,488.9,408.7,488.9,408.9z"/>
							</g>
						</g>
					</g>
				</g>
				<g>
					<g>
						<g>
							<g>
								<path class="st0" d="M486.5,421.9c0,0.2-1.1,0.5-2.7,0.8c-1.5,0.3-2.7,0.4-2.7,0.2c0-0.2,1.1-0.5,2.7-0.8
									C485.2,421.8,486.5,421.8,486.5,421.9z"/>
							</g>
						</g>
					</g>
				</g>
				<g>
					<g>
						<g>
							<g>
								<path class="st0" d="M483.7,444.4c-0.1,0.2-1.6-0.9-2.9-2.7c-1.4-1.7-2-3.4-1.8-3.5c0.2-0.1,1.1,1.4,2.4,3
									C482.6,443,483.8,444.2,483.7,444.4z"/>
							</g>
						</g>
					</g>
				</g>
				<g>
					<g>
						<g>
							<g>
								<path class="st0" d="M452.2,454.6c-0.1-0.2,0.6-1,1.7-2c1.1-0.9,2.1-1.6,2.2-1.5c0.1,0.2-0.6,1-1.7,2
									C453.3,454.1,452.4,454.7,452.2,454.6z"/>
							</g>
						</g>
					</g>
				</g>
			</g>
		</g>
		<g>
			<g>
				<g>
					<path class="st1" d="M443.3,405.7c-1.3-3.9-3.7-8.6-7.8-8.7c-2.5,0-4.7,1.7-5.9,3.9c-1.2,2.2-1.6,4.7-1.6,7.1
						c0.5,16.3,3.3,35,9,52.1h15.3C452,441.3,449,423.8,443.3,405.7z"/>
				</g>
			</g>
		</g>
		<g>
			<g>
				<g>
					<path class="st1" d="M415.6,380.7c-2.1-8.5-8.5-13.1-15.9-13.6c-6.8,1.2-9.3,7.8-10.2,14.7c-0.8,6.8,1.3,13.6,3.4,20.1
						c6.7,21,13.4,41.9,20.1,62.9c6.3-0.7,12.6-1.4,19-2.1C426,434.6,422.5,408.6,415.6,380.7z"/>
				</g>
			</g>
		</g>
		<g>
			<g>
				<g>
					<g>
						<path class="st0" d="M435.4,397.1c0.1,0.1-0.6,0.6-1.3,2.2c-0.6,1.5-1,3.8-0.7,6.8c0.3,2.9,0.6,6.4,1.1,10.3
							c0.5,3.8,1.2,8.1,2,12.4c1.7,8.8,3.7,16.7,4.9,22.4c0.6,2.8,1.1,5.2,1.4,6.8c0.1,0.7,0.3,1.4,0.3,1.8c0.1,0.5,0.1,0.6,0.1,0.6
							s-0.1-0.2-0.2-0.6c-0.1-0.5-0.3-1.1-0.5-1.8c-0.4-1.7-0.9-3.9-1.6-6.8c-1.4-5.7-3.4-13.6-5.1-22.4c-0.8-4.4-1.6-8.6-2-12.5
							c-0.3-1.9-0.4-3.8-0.5-5.5s-0.4-3.3-0.4-4.8c-0.2-2.9,0.2-5.4,0.9-6.9C434.6,397.6,435.4,397.1,435.4,397.1z"/>
					</g>
				</g>
			</g>
		</g>
		<g>
			<g>
				<g>
					<g>
						<path class="st0" d="M400,366.6c0.1,0.1-1,1-2.3,3.1c-1.3,2.1-2.7,5.5-2.9,9.9c-0.3,4.4,0.7,9.6,2.4,15.3
							c1.6,5.7,3.5,11.8,5.4,18.3c3.8,13,7.2,24.7,9.7,33.4c1.2,4.2,2.2,7.7,2.8,10.2c0.3,1.2,0.5,2.1,0.7,2.7c0.2,0.6,0.3,1,0.2,1
							c0,0-0.2-0.3-0.4-0.9c-0.2-0.7-0.5-1.6-0.9-2.7c-0.7-2.5-1.8-5.9-3.1-10.1c-2.6-8.6-6-20.3-9.9-33.4
							c-1.9-6.5-3.8-12.7-5.4-18.4c-1.6-5.7-2.6-11-2.2-15.5c0.3-4.5,1.7-8,3.1-10.1C398.9,367.4,400,366.6,400,366.6z"/>
					</g>
				</g>
			</g>
		</g>
		<g>
			<g>
				<g>
					<g>
						<path class="st0" d="M427.9,460.6c0,0-0.2-0.3-0.5-0.9c-0.3-0.6-0.6-1.5-1.1-2.7c-0.9-2.3-2.1-5.8-3.3-10.1
							c-1.2-4.3-2.4-9.5-3.6-15.3c-1.1-5.8-2.3-12.2-3.6-18.9c-1.3-6.7-2.7-13-4.5-18.7c-1.7-5.7-3.6-10.6-5.5-14.7
							c-1.9-4-3.8-7.1-5.1-9.3c-0.6-1.1-1.3-1.8-1.6-2.4c-0.4-0.5-0.5-0.8-0.5-0.8s0.3,0.3,0.6,0.7c0.4,0.5,1,1.3,1.7,2.3
							c1.5,2,3.4,5.1,5.3,9.2c2,4,3.9,9,5.7,14.7c1.7,5.7,3.2,12,4.6,18.7c1.3,6.7,2.5,13.1,3.5,18.9c1.1,5.8,2.2,11,3.4,15.3
							c1.1,4.3,2.2,7.8,3,10.1c0.4,1.2,0.7,2.1,0.9,2.7C427.9,460.2,428,460.6,427.9,460.6z"/>
					</g>
				</g>
			</g>
		</g>
		<g>
			<g>
				<g>
					<g>
						<path class="st0" d="M393.3,398.7c0,0.2-1,0.6-2.3,0.9s-2.4,0.5-2.5,0.3c0-0.2,1-0.6,2.3-0.9
							C392.1,398.7,393.3,398.6,393.3,398.7z"/>
					</g>
				</g>
			</g>
		</g>
		<g>
			<g>
				<g>
					<g>
						<path class="st0" d="M391.3,385.7c0,0.2-1.5,0.3-3.2,0.4c-1.7,0.1-3.2,0.1-3.2-0.1c0-0.2,1.4-0.5,3.2-0.6
							C389.8,385.4,391.3,385.5,391.3,385.7z"/>
					</g>
				</g>
			</g>
		</g>
		<g>
			<g>
				<g>
					<g>
						<path class="st0" d="M393.4,373.9c-0.1,0.2-1.2-0.5-2.3-1.5c-1.2-1-2-1.9-1.8-2c0.1-0.2,1.2,0.5,2.3,1.5
							C392.8,372.9,393.6,373.8,393.4,373.9z"/>
					</g>
				</g>
			</g>
		</g>
		<g>
			<g>
				<g>
					<g>
						<path class="st0" d="M399.3,363c0.2,0,0.2,1,0.1,2.1c0,1.1,0,2-0.3,2.1c-0.2,0-0.5-0.9-0.5-2.1
							C398.7,363.8,399.1,362.9,399.3,363z"/>
					</g>
				</g>
			</g>
		</g>
		<g>
			<g>
				<g>
					<g>
						<path class="st0" d="M411.1,368.1c0.2,0.1-0.3,1-1,2.1c-0.7,1-1.5,1.8-1.6,1.6c-0.2-0.1,0.3-1,1-2.1
							C410.2,368.8,410.9,368,411.1,368.1z"/>
					</g>
				</g>
			</g>
		</g>
		<g>
			<g>
				<g>
					<g>
						<path class="st0" d="M418.8,381.5c0.1,0.2-0.9,0.7-2.2,1.3c-1.3,0.5-2.4,0.8-2.5,0.6s0.9-0.7,2.2-1.3
							C417.6,381.6,418.7,381.3,418.8,381.5z"/>
					</g>
				</g>
			</g>
		</g>
		<g>
			<g>
				<g>
					<g>
						<path class="st0" d="M423.4,395.2c0.1,0.2-1.2,0.9-3,1.3c-1.7,0.4-3.3,0.3-3.3,0.1c0-0.2,1.4-0.4,3.1-0.8
							C422,395.4,423.4,395,423.4,395.2z"/>
					</g>
				</g>
			</g>
		</g>
		<g>
			<g>
				<g>
					<g>
						<path class="st0" d="M402,391.3c-0.2-0.1-0.1-1,0.3-2.1s0.8-1.9,1-1.9c0.2,0.1,0.1,1-0.3,2.1
							C402.7,390.5,402.2,391.4,402,391.3z"/>
					</g>
				</g>
			</g>
		</g>
		<g>
			<g>
				<g>
					<g>
						<path class="st0" d="M405,408.6c-0.2-0.1,0.2-1.4,0.8-2.8s1.3-2.7,1.5-2.6c0.2,0.1-0.2,1.4-0.8,2.8
							C405.9,407.5,405.1,408.6,405,408.6z"/>
					</g>
				</g>
			</g>
		</g>
		<g>
			<g>
				<g>
					<g>
						<path class="st0" d="M397.6,413.2c-0.1,0.2-1.3-0.2-2.7-0.6c-1.5-0.5-2.7-0.9-2.6-1.1c0-0.2,1.3-0.1,2.8,0.4
							C396.6,412.5,397.7,413.1,397.6,413.2z"/>
					</g>
				</g>
			</g>
		</g>
		<g>
			<g>
				<g>
					<g>
						<path class="st0" d="M401.8,427.3c0.1,0.2-0.7,0.9-1.8,1.7c-1.1,0.8-2.1,1.3-2.2,1.2c-0.1-0.2,0.7-0.9,1.8-1.7
							C400.7,427.7,401.7,427.2,401.8,427.3z"/>
					</g>
				</g>
			</g>
		</g>
		<g>
			<g>
				<g>
					<g>
						<path class="st0" d="M405.3,441.4c0,0.2-0.9,0.5-2.3,0.9c-1.3,0.3-2.4,0.5-2.4,0.2c0-0.2,0.9-0.5,2.3-0.9
							C404.1,441.3,405.2,441.2,405.3,441.4z"/>
					</g>
				</g>
			</g>
		</g>
		<g>
			<g>
				<g>
					<g>
						<path class="st0" d="M423.7,406.9c0.1,0.2-0.7,0.8-2,1.3c-1.3,0.5-2.4,0.5-2.4,0.4c0-0.2,0.9-0.5,2.1-1
							C422.7,407.2,423.6,406.7,423.7,406.9z"/>
					</g>
				</g>
			</g>
		</g>
		<g>
			<g>
				<g>
					<g>
						<path class="st0" d="M426.4,428.7c-0.1,0.2-1.1-0.1-2.3-0.7c-1.2-0.5-2.1-1.2-2-1.3c0.1-0.2,1.1,0.1,2.3,0.7
							C425.6,428,426.5,428.5,426.4,428.7z"/>
					</g>
				</g>
			</g>
		</g>
		<g>
			<g>
				<g>
					<g>
						<path class="st0" d="M431.1,444.3c-0.1,0.2-1.5-0.2-3-0.8c-1.6-0.6-2.8-1.3-2.7-1.5c0.1-0.2,1.5,0.2,3,0.8
							C429.9,443.5,431.2,444.1,431.1,444.3z"/>
					</g>
				</g>
			</g>
		</g>
		<g>
			<g>
				<g>
					<g>
						<path class="st0" d="M406,456.5c-0.1-0.2,1.2-1,2.6-2.1c1.5-1.1,2.6-2.1,2.7-2c0.2,0.1-0.7,1.4-2.3,2.6
							C407.5,456.1,406.1,456.7,406,456.5z"/>
					</g>
				</g>
			</g>
		</g>
		<g>
			<g>
				<g>
					<g>
						<path class="st0" d="M418.3,448.6c-0.2,0-0.5-1-0.9-2.2c-0.5-1.2-1-2.2-0.8-2.3c0.2-0.1,0.9,0.7,1.5,2
							C418.6,447.4,418.5,448.6,418.3,448.6z"/>
					</g>
				</g>
			</g>
		</g>
		<g>
			<g>
				<g>
					<g>
						<path class="st0" d="M415.1,429.8c-0.1,0.2-0.9-0.2-1.7-0.8c-0.8-0.6-1.5-1.3-1.4-1.4c0.1-0.2,0.9,0.2,1.7,0.8
							C414.6,429.1,415.2,429.7,415.1,429.8z"/>
					</g>
				</g>
			</g>
		</g>
		<g>
			<g>
				<g>
					<g>
						<path class="st0" d="M443.8,400.4c0.1,0.2-0.6,0.9-1.7,1.7s-2,1.3-2.1,1.2c-0.1-0.2,0.6-0.9,1.7-1.7
							C442.8,400.8,443.7,400.3,443.8,400.4z"/>
					</g>
				</g>
			</g>
		</g>
		<g>
			<g>
				<g>
					<g>
						<path class="st0" d="M448.2,412.3c0,0.2-1.2,0.5-2.7,0.3c-1.5-0.2-2.7-0.6-2.6-0.8s1.2,0,2.7,0.2
							C447,412,448.1,412.1,448.2,412.3z"/>
					</g>
				</g>
			</g>
		</g>
		<g>
			<g>
				<g>
					<g>
						<path class="st0" d="M429.5,415c0,0.2-1.1,0.5-2.6,0.6c-1.5,0.1-2.7-0.2-2.6-0.4c0-0.2,1.2-0.3,2.6-0.4
							C428.3,414.9,429.5,414.8,429.5,415z"/>
					</g>
				</g>
			</g>
		</g>
		<g>
			<g>
				<g>
					<g>
						<path class="st0" d="M431.2,403.8c0,0.2-1.2,0.2-2.4-0.4c-1.3-0.5-1.9-1.5-1.8-1.6c0.1-0.2,1,0.5,2.1,0.9
							C430.2,403.2,431.2,403.5,431.2,403.8z"/>
					</g>
				</g>
			</g>
		</g>
		<g>
			<g>
				<g>
					<g>
						<path class="st0" d="M449.8,425c-0.1,0.2-1.3-0.4-2.6-1.2c-1.4-0.8-2.3-1.6-2.2-1.8s1.3,0.4,2.6,1.2
							C448.9,424,449.9,424.9,449.8,425z"/>
					</g>
				</g>
			</g>
		</g>
		<g>
			<g>
				<g>
					<g>
						<rect x="395.9" y="458.2" class="st0" width="99.4" height="17.6"/>
					</g>
				</g>
			</g>
			<g>
				<g>
					<g>
						<polygon class="st0" points="403.3,472.3 415.4,525 474.6,525 487.8,472.3 						"/>
					</g>
				</g>
			</g>
			<g>
				<g>
					<g>
						<g>
							<path class="st1" d="M495.1,475.9c0,0.2-22.5,0.4-50,0.4c-27.7,0-50-0.2-50-0.4s22.4-0.4,50-0.4
								C472.8,475.6,495.1,475.6,495.1,475.9z"/>
						</g>
					</g>
				</g>
			</g>
		</g>
		<g>
			<g>
				<g>
					<g>
						<path class="st0" d="M439.9,415.3c-0.2,0.1-0.8-0.7-1.6-1.7c-0.6-1.1-1.1-2-0.9-2.1c0.2-0.1,0.8,0.7,1.6,1.7
							C439.7,414.2,440.1,415.2,439.9,415.3z"/>
					</g>
				</g>
			</g>
		</g>
		<g>
			<g>
				<g>
					<g>
						<path class="st0" d="M440,429.5c-0.2-0.1,0.1-1.3,0.5-2.7c0.5-1.4,1-2.5,1.2-2.5c0.2,0.1-0.1,1.3-0.5,2.7
							C440.7,428.4,440.1,429.5,440,429.5z"/>
					</g>
				</g>
			</g>
		</g>
		<g>
			<g>
				<g>
					<g>
						<path class="st0" d="M444.8,444.4c-0.2,0.1-0.9-1.1-1.6-2.7c-0.7-1.6-1.2-2.8-1-2.9c0.2-0.1,0.9,1.1,1.6,2.7
							C444.5,442.9,445,444.3,444.8,444.4z"/>
					</g>
				</g>
			</g>
		</g>
		<g>
			<g>
				<g>
					<g>
						<path class="st0" d="M434.3,456.3c-0.2-0.1,0.5-1,1.3-2c0.9-1,1.7-1.7,1.8-1.6c0.2,0.1-0.5,1-1.3,2S434.5,456.5,434.3,456.3z"
							/>
					</g>
				</g>
			</g>
		</g>
		<g>
			<g>
				<g>
					<g>
						<path class="st0" d="M432.1,434.6c0,0.2-1,0.2-2.1,0c-1.2-0.2-2-0.5-2-0.7c0-0.2,1-0.2,2.1,0
							C431.3,434.1,432.2,434.4,432.1,434.6z"/>
					</g>
				</g>
			</g>
		</g>
	</g>
	<g>
		<g>
			<g>
				<g>
					<g>
						<g>
							<g>
								<g>
									<g>
										<polygon class="st2" points="354.2,468.8 354.2,525 271.9,525 181.1,525 181.1,468.8 										"/>
									</g>
								</g>
							</g>
						</g>
					</g>
				</g>
			</g>
			<g>
				<g>
					<g>
						<g>
							<g>
								<g>
									<g>
										<polygon class="st0" points="361.4,453 361.4,468.8 175.1,468.8 175.1,453 271.9,453 										"/>
									</g>
								</g>
							</g>
						</g>
					</g>
				</g>
			</g>
			<g>
				<g>
					<g>
						<g>
							<g>
								<g>
									<g>
										<polygon class="st0" points="268.3,525 181.1,525 181.1,468.8 175.1,468.8 175.1,453 271.9,453 271.9,467.3 										"/>
									</g>
								</g>
							</g>
						</g>
					</g>
				</g>
			</g>
			<g>
				<g>
					<g>
						<g>
							<g>
								<g>
									<g>
										<rect x="294.9" y="477.8" class="st0" width="35.1" height="8.4"/>
									</g>
								</g>
							</g>
						</g>
					</g>
				</g>
			</g>
			<g>
				<g>
					<g>
						<g>
							<g>
								<g>
									<g>
										<rect x="289.4" y="496.9" class="st3" width="45.1" height="17.9"/>
									</g>
								</g>
							</g>
						</g>
					</g>
				</g>
			</g>
		</g>
	</g>
	<g>
		<g>
			<g>
				<g>
					<g>
						<g>
							<g>
								<rect x="54.6" y="30.8" class="st0" width="163.2" height="170"/>
							</g>
						</g>
					</g>
				</g>
			</g>
			<g>
				<g>
					<g>
						<g>
							<g>
								<rect x="43.6" y="30.8" class="st4" width="163.2" height="170"/>
							</g>
						</g>
					</g>
				</g>
				<g>
					<g>
						<g>
							<g>
								<path class="st2" d="M206.8,200.9H43.5V30.7h163.2V200.9z"/>
							</g>
						</g>
					</g>
				</g>
			</g>
			<g>
				<g>
					<g>
						<g>
							<g>
								<rect x="65.5" y="53.6" class="st5" width="119.2" height="124.3"/>
							</g>
						</g>
					</g>
				</g>
			</g>
			<g>
				<g>
					<g>
						<g>
							<g>
								<g>
									<path class="st0" d="M65.5,178.9c0.1,0.1-1,1.4-2.9,3.4c-1.9,2-4.6,4.8-7.6,7.7c-3,2.9-5.8,5.6-7.8,7.4
										c-2,1.8-3.3,2.9-3.5,2.8c-0.1-0.1,1-1.4,2.9-3.4s4.6-4.8,7.6-7.7s5.8-5.6,7.8-7.5C64.2,179.8,65.4,178.7,65.5,178.9z"/>
								</g>
							</g>
						</g>
					</g>
				</g>
			</g>
			<g>
				<g>
					<g>
						<g>
							<g>
								<g>
									<path class="st0" d="M184.8,178.5c0.1-0.1,1.4,1,3.4,2.9c2,1.9,4.8,4.6,7.7,7.6s5.6,5.8,7.4,7.8c1.8,2,2.9,3.3,2.8,3.5
										c-0.1,0.1-1.4-1-3.4-2.9c-2-1.9-4.8-4.6-7.7-7.6c-2.9-3-5.6-5.8-7.5-7.8C185.8,180,184.7,178.6,184.8,178.5z"/>
								</g>
							</g>
						</g>
					</g>
				</g>
			</g>
			<g>
				<g>
					<g>
						<g>
							<g>
								<g>
									<path class="st0" d="M184.5,54c-0.1-0.1,1-1.4,2.9-3.4c1.9-2,4.6-4.8,7.6-7.7c3-2.9,5.8-5.6,7.8-7.4s3.3-2.9,3.5-2.8
										c0.1,0.1-1,1.4-2.9,3.4c-1.9,2-4.6,4.8-7.6,7.7s-5.8,5.6-7.8,7.5C185.9,53,184.6,54.1,184.5,54z"/>
								</g>
							</g>
						</g>
					</g>
				</g>
			</g>
			<g>
				<g>
					<g>
						<g>
							<g>
								<g>
									<path class="st0" d="M65.3,54.3c-0.1,0.1-1.4-1-3.4-2.9c-2-1.9-4.8-4.6-7.7-7.6c-2.9-3-5.6-5.8-7.4-7.8
										c-1.8-2-2.9-3.3-2.8-3.5c0.1-0.1,1.4,1,3.4,2.9S52.1,40,55,43c2.9,3,5.6,5.8,7.5,7.8C64.3,52.9,65.4,54.2,65.3,54.3z"/>
								</g>
							</g>
						</g>
					</g>
				</g>
			</g>
			<g>
				<g>
					<g>
						<g>
							<g>
								<g>
									<path class="st0" d="M184.5,178c0,0,0-0.2,0-0.6s0-1,0-1.7c0-1.6,0-3.8-0.1-6.7c0-5.9-0.1-14.5-0.1-25.3
										c-0.1-21.8-0.1-52.8-0.3-89.9l0.5,0.5c-34.7,0-75.5,0-119,0.1l0,0l0.5-0.5c0,45.6-0.1,88.4-0.1,124.3l-0.5-0.5
										c35.7,0.1,65.4,0.2,86.2,0.3c10.4,0.1,18.6,0.1,24.2,0.1c2.7,0,4.9,0,6.4,0.1c0.7,0,1.3,0,1.6,0
										C184.3,178,184.5,178,184.5,178s-0.2,0-0.5,0c-0.4,0-0.9,0-1.6,0c-1.5,0-3.6,0-6.3,0.1c-5.6,0-13.7,0.1-24.1,0.1
										c-20.9,0.1-50.7,0.1-86.4,0.3H65V178c0-36-0.1-78.7-0.1-124.3v-0.5h0.5l0,0c43.4,0,84.2,0.1,119,0.1h0.5v0.5
										c-0.1,37.3-0.2,68.4-0.3,90.2c-0.1,10.8-0.1,19.3-0.1,25.2c0,2.8,0,5-0.1,6.6c0,0.7,0,1.3,0,1.6
										C184.5,177.8,184.5,178,184.5,178z"/>
								</g>
							</g>
						</g>
					</g>
				</g>
			</g>
		</g>
		<g>
			<g>
				<g>
					<g>
						<g>
							<path class="st2" d="M103.2,149.5c-9-9-9.5-25.1-1.2-34.7c3.3-3.8,7.7-6.6,10.8-10.6c6.7-8.7,6.6-22.4,15.8-28.1
								c6.8-4.2,16.4-1.8,21.4,4.5c4.9,6.2,5.3,15.4,2.1,22.6c-2.4,5.4-6.5,10-8.2,15.6c-1.7,5.8-0.7,12.1-2.6,17.9
								c-2.2,7-9.5,11.4-16.3,13.8C118.3,153,109.5,152.5,103.2,149.5"/>
						</g>
					</g>
				</g>
			</g>
			<g>
				<g>
					<g>
						<g>
							<g>
								<path class="st0" d="M136.8,92.2c0.1,0-0.4,1.2-1.2,3.3c-0.8,2.1-2,5-3.7,8.7c-3.3,7.3-8.3,17.2-14.8,27.6
									c-6.4,10.4-13.1,19.3-18.1,25.5c-2.6,3.1-4.7,5.6-6.1,7.2c-1.5,1.6-2.4,2.6-2.4,2.5c-0.1-0.1,0.7-1,2.1-2.7
									c1.5-1.7,3.5-4.2,5.9-7.4c4.9-6.3,11.5-15.2,17.9-25.6s11.5-20.2,14.9-27.4c1.7-3.6,3.1-6.5,4-8.6
									C136.1,93.3,136.7,92.2,136.8,92.2z"/>
							</g>
						</g>
					</g>
				</g>
			</g>
			<g>
				<g>
					<g>
						<g>
							<g>
								<path class="st0" d="M112.1,113.8c0.1,0,0.5,2.4,0.9,6.3c0.5,3.9,1.1,9.4,1.6,15.6l-0.8-0.4c0.8-0.5,1.6-1,2.6-1.5
									c6-3.5,11.4-6.6,15.3-8.8c3.9-2.2,6.4-3.5,6.5-3.4c0.1,0.1-2.3,1.6-6.1,4c-3.8,2.4-9.3,5.6-15.2,9.1c-0.9,0.5-1.7,1-2.6,1.5
									l-0.6,0.4l-0.1-0.8c-0.5-6.1-1-11.6-1.3-15.6C112,116.3,111.9,113.8,112.1,113.8z"/>
							</g>
						</g>
					</g>
				</g>
			</g>
			<g>
				<g>
					<g>
						<g>
							<g>
								<path class="st0" d="M143.4,104.6c0.1,0.1-1.5,1-4,2.3s-6,2.9-10,4.8c-0.5,0.2-0.8,0.4-1.2,0.5l-0.6,0.3l-0.1-0.7
									c-0.6-3.9-1.1-7.5-1.5-10.1c-0.3-2.6-0.5-4.1-0.3-4.1c0.2,0,0.5,1.5,1,4c0.5,2.6,1.1,6,1.7,10l-0.7-0.4
									c0.4-0.2,0.8-0.4,1.2-0.5c3.9-1.8,7.5-3.4,10.2-4.5C141.7,105.1,143.4,104.4,143.4,104.6z"/>
							</g>
						</g>
					</g>
				</g>
			</g>
		</g>
		<g>
			<g>
				<g>
					<g>
						<g>
							<path class="st6" d="M61.1,33.2"/>
						</g>
					</g>
				</g>
			</g>
		</g>
	</g>
	<g>
		<g>
			<g>
				<g>
					<path class="st7" d="M202.3,237.6c-0.1-0.1-0.2,2-2.7,3.9c-1.3,0.9-3.2,1.6-5.4,1c-2.1-0.5-4.1-2.7-4.6-5.4
						c-0.2-1.4,0.1-2.8,0.9-4.1c0.7-1.3,1.9-2.5,3.2-3.5c2.6-2,6.1-3.7,8.2-7.2c2-3.4,2.7-7.9,1.4-12c-0.6-2-1.6-4-3-5.8
						c-1.4-1.7-3.1-3.2-4.9-4.5c-1.7-1.4-3.5-2.7-4.9-4.1c-1.4-1.6-2.3-3.4-2.4-5.4c-0.1-1.9,0.6-3.8,1.6-5.5c1-1.6,2.3-3.1,3.6-4.4
						c2.7-2.7,5.7-4.9,7.5-8s2.5-6.3,2.4-9.3c-0.1-3-1.2-5.5-2.1-7.6c-0.9-2.1-1.6-3.9-2.1-5.5c-0.8-3.1-0.2-4.9-0.3-4.9
						c0,0-0.1,0.1-0.1,0.3c-0.1,0.2-0.2,0.5-0.2,0.9c-0.2,0.8-0.2,2.2,0.2,3.8c0.4,1.6,1.1,3.5,1.9,5.6c0.8,2.1,1.8,4.6,1.9,7.4
						c0.1,2.8-0.5,6-2.4,8.8c-1.7,2.8-4.6,5.1-7.4,7.8c-1.4,1.3-2.7,2.8-3.8,4.6c-1,1.7-1.8,3.8-1.7,6c0.1,2.2,1.1,4.4,2.6,6
						c1.5,1.6,3.3,2.9,5,4.3c1.7,1.4,3.4,2.7,4.7,4.3c1.3,1.6,2.3,3.5,2.8,5.4c1.2,3.8,0.6,8-1.3,11.2c-1.8,3.3-5.2,4.9-7.9,7.1
						c-1.4,1.1-2.6,2.3-3.4,3.8c-0.8,1.5-1.2,3.1-0.9,4.7c0.5,3,2.8,5.2,5.1,5.9c2.4,0.6,4.5-0.3,5.8-1.3c1.4-1,2-2.2,2.3-3
						C202.4,238.1,202.3,237.6,202.3,237.6z"/>
				</g>
			</g>
			<g>
				<g>
					<path class="st7" d="M86.4,132.6c-3.6-0.2-6.9-2.3-10.4-2.7c-5.1-0.5-9.9,2.6-13.7,6c-3.8,3.4-7.1,7.3-9.2,11.9
						c-3.3,7.7-2.4,16.7-0.2,24.7c2,7.2,5,15.4,1.4,22c-1.1,2.1-2.8,3.8-4.2,5.8c-3.1,4.6-4,10.5-2.6,15.9c1.5,5.1,4.9,9.4,6.6,14.6
						c1.6,5,1.3,10.6-0.8,15.4c-1.2,2.7-3,5.1-4.1,7.9c-1.7,4.3-1.8,9.3-0.2,13.7c1.4,3.7,3.9,6.9,4.6,10.7
						c1.1,6.1-2.7,12.2-1.9,18.3c14.9,3.8,31.1,7.3,45.2,1.4c0.9-0.4,1.8-0.9,2.2-1.7c0.3-0.7,0.2-1.5,0-2.2
						c-1.8-8.8-5.4-17.2-10.4-24.7c-3.4-5-7.5-10.4-6.8-16.3c1-7.9,10.6-13.8,8.8-21.6c-1.1-4.8-6.2-7.5-8.6-11.7
						c-2.2-3.9-1.9-8.9-0.8-13.3c1.1-4.4,3-8.6,3.8-13.1c1.1-6.2,0.2-12.9,2.9-18.6"/>
				</g>
			</g>
			<g>
				<g>
					<g>
						<path class="st8" d="M92.9,127.7c1.2,1.2,1.4,3,1.4,4.9c0,1.9-0.3,3.9-0.6,6c-0.5,2.1-1,4.1-1.6,5.9c-0.7,1.7-1.6,3.3-3.2,3.9
							c-1.5,0.6-3.4-0.1-4.9-2.3c-0.7-1.1-1.4-2.6-1.7-4.2c-0.3-1.6-0.4-3.6,0-5.6c0.4-1.9,1.2-3.7,2.1-5.1c0.9-1.5,2.1-2.6,3.2-3.3
							C89.6,126.5,91.8,126.6,92.9,127.7z"/>
					</g>
				</g>
			</g>
			<g>
				<g>
					<path class="st7" d="M75.2,187.1c-2.1-5.9-0.2-12.5,2.7-18.1c2.8-5.6,6.5-10.7,8.5-16.7c2.1-6.4,1.9-13.5,4.5-19.8
						c2.7-6.5,8.2-11.7,14.9-13.9c4-1.4,8.5-1.6,12-4.1c3.6-2.5,5.4-6.8,8.2-10.2c4.4-5.6,8.6-10.4,15.2-13.1
						c7.5-3.1,18.4-4.3,25.9-1.2c4.7,1.9,8.3,5.9,10.6,10.4c2.3,4.5,3.4,9.5,4.1,14.6c7.7,1.5,12.1,9.3,15.5,16.4
						c1.9,3.9,3.8,8.1,4,12.5c0.2,4.9-4,21.7-6.4,26c-12.3,22.2-30.5,26.9-52.7,39.1c-8.5,4.8-13.8,15.6-23.6,15.2
						c-11.4-0.5-22.5-0.9-29.1-10.2c-6.6-9.3-14-18.1-15-29.4"/>
				</g>
			</g>
			<g>
				<g>
					<path class="st9" d="M192.5,152c-0.6-15.9-10.6-35.6-26.5-34.3L116.4,129c-4.8,0.4-8.5,4.4-8.5,9.3l2.5,119.1
						c-0.1,0-0.2,0-0.4,0.1c0,0,10.4,33.8,43.3,24.5c6.5-1.8,9.6-8.9,11.1-16.1l0.4,0.1c0-0.8,0.1-1.6,0.1-2.5
						c1.3-8.3,0.6-16.3,0.6-16.3l0,0c0.4-9.6,0.5-13.6,0.5-13.5c0,0,20.3-2.8,25.2-29.2C193.3,191.2,193.1,169.7,192.5,152z"/>
				</g>
			</g>
			<g>
				<g>
					<g>
						<g>
							<g>
								<g>
									<g>
										<g>
											<g>
												<g>
													<g>
														<g>
															<g>
																<g>
																	<g>
																		<path class="st7" d="M149.8,172.9c0,1.8-1.5,3.3-3.4,3.3c-1.8,0.1-3.4-1.4-3.4-3.1c0-1.8,1.5-3.3,3.4-3.3
																			C148.2,169.7,149.8,171.1,149.8,172.9z"/>
																	</g>
																</g>
															</g>
														</g>
													</g>
												</g>
											</g>
										</g>
									</g>
								</g>
							</g>
						</g>
					</g>
					<g>
						<g>
							<g>
								<g>
									<g>
										<g>
											<g>
												<g>
													<g>
														<g>
															<g>
																<g>
																	<g>
																		<path class="st7" d="M184.1,171.9c0,1.8-1.5,3.3-3.4,3.3c-1.8,0.1-3.4-1.4-3.4-3.1c0-1.8,1.5-3.3,3.4-3.3
																			C182.5,168.7,184.1,170.1,184.1,171.9z"/>
																	</g>
																</g>
															</g>
														</g>
													</g>
												</g>
											</g>
										</g>
									</g>
								</g>
							</g>
						</g>
					</g>
					<g>
						<g>
							<g>
								<g>
									<g>
										<g>
											<g>
												<g>
													<g>
														<g>
															<g>
																<g>
																	<g>
																		<g>
																			<path class="st7" d="M188.9,163.5c-0.5,0.5-3.4-1.7-7.3-1.6c-3.9,0.1-6.8,2.6-7.2,2c-0.2-0.3,0.2-1.3,1.4-2.4
																				c1.2-1.1,3.3-2.3,5.8-2.4s4.6,0.9,5.9,1.9C188.6,162.4,189.1,163.4,188.9,163.5z"/>
																		</g>
																	</g>
																</g>
															</g>
														</g>
													</g>
												</g>
											</g>
										</g>
									</g>
								</g>
							</g>
						</g>
					</g>
				</g>
				<g>
					<g>
						<g>
							<g>
								<g>
									<g>
										<g>
											<g>
												<g>
													<g>
														<g>
															<g>
																<g>
																	<g>
																		<g>
																			<path class="st7" d="M152.2,164.1c-0.5,0.5-3.4-2-7.6-2.3s-7.4,1.8-7.9,1.3c-0.2-0.3,0.4-1.2,1.7-2.2
																				c1.4-1,3.8-1.8,6.3-1.6c2.7,0.2,4.8,1.4,6,2.5C152,162.9,152.3,163.9,152.2,164.1z"/>
																		</g>
																	</g>
																</g>
															</g>
														</g>
													</g>
												</g>
											</g>
										</g>
									</g>
								</g>
							</g>
						</g>
					</g>
				</g>
				<g>
					<g>
						<g>
							<g>
								<g>
									<g>
										<g>
											<g>
												<g>
													<g>
														<g>
															<g>
																<g>
																	<g>
																		<g>
																			<path class="st7" d="M164.3,190.3c0-0.2,2.3-0.5,6-0.9c0.9-0.1,1.8-0.3,2-0.8c0.3-0.6-0.1-1.6-0.5-2.7
																				c-0.8-2.3-1.6-4.7-2.6-7.1c-3.6-10.2-6.1-18.5-5.8-18.7c0.4-0.2,3.7,8,7.2,18.1c0.8,2.5,1.6,4.9,2.5,7.2
																				c0.4,1.1,0.9,2.3,0.4,3.7c-0.3,0.7-1,1.2-1.6,1.3c-0.6,0.2-1.1,0.2-1.6,0.2C166.5,190.6,164.3,190.5,164.3,190.3
																				z"/>
																		</g>
																	</g>
																</g>
															</g>
														</g>
													</g>
												</g>
											</g>
										</g>
									</g>
								</g>
							</g>
						</g>
					</g>
				</g>
				<g>
					<g>
						<g>
							<g>
								<g>
									<g>
										<g>
											<g>
												<g>
													<g>
														<g>
															<g>
																<g>
																	<g>
																		<path class="st10" d="M165.7,233.5c0,0-17.8,0.7-35.2-10.3c0,0,8.4,19,34.9,17.1L165.7,233.5z"/>
																	</g>
																</g>
															</g>
														</g>
													</g>
												</g>
											</g>
										</g>
									</g>
								</g>
							</g>
						</g>
					</g>
				</g>
				<g>
					<g>
						<g>
							<g>
								<g>
									<g>
										<g>
											<g>
												<g>
													<g>
														<g>
															<g>
																<g>
																	<g>
																		<path class="st10" d="M162.5,199c-1.3-1.7-3.6-2.7-5.9-2.6c-1.6,0.1-3.2,0.8-4.2,2.1c-1,1.3-1.2,3.1-0.4,4.3
																			c0.9,1.4,3,1.7,4.8,1.3s3.3-1.6,4.8-2.7c0.4-0.3,0.8-0.6,1.1-1c0.3-0.5,0.4-1,0-1.4"/>
																	</g>
																</g>
															</g>
														</g>
													</g>
												</g>
											</g>
										</g>
									</g>
								</g>
							</g>
						</g>
					</g>
				</g>
				<g>
					<g>
						<g>
							<g>
								<g>
									<g>
										<g>
											<g>
												<g>
													<g>
														<g>
															<g>
																<g>
																	<g>
																		<g>
																			<path class="st7" d="M153.4,192.6c0.5,0,0.5,3.9,3.8,6.9c3.3,2.9,7.5,2.6,7.6,3.1c0.1,0.3-0.9,0.7-2.7,0.7
																				c-1.7,0-4.3-0.6-6.3-2.4c-2-1.7-2.8-4.1-2.9-5.7C152.7,193.5,153.2,192.5,153.4,192.6z"/>
																		</g>
																	</g>
																</g>
															</g>
														</g>
													</g>
												</g>
											</g>
										</g>
									</g>
								</g>
							</g>
						</g>
					</g>
				</g>
			</g>
			<g>
				<g>
					<g>
						<g>
							<g>
								<g>
									<g>
										<g>
											<g>
												<g>
													<g>
														<g>
															<path class="st7" d="M153,151.7c-0.4,1-4,0.5-8.3,0.8c-4.3,0.4-7.8,1.5-8.3,0.5c-0.3-0.5,0.4-1.4,1.8-2.3
																c1.4-0.9,3.7-1.7,6.2-2c2.6-0.2,4.9,0.3,6.4,0.9C152.4,150.5,153.2,151.3,153,151.7z"/>
														</g>
													</g>
												</g>
											</g>
										</g>
									</g>
								</g>
							</g>
						</g>
					</g>
				</g>
			</g>
			<g>
				<g>
					<g>
						<g>
							<g>
								<g>
									<g>
										<g>
											<g>
												<g>
													<g>
														<g>
															<path class="st7" d="M186.4,152.5c-0.7,0.8-3.6-0.1-7.1-0.3s-6.4,0.4-7.1-0.5c-0.3-0.5,0.2-1.3,1.5-2
																c1.3-0.7,3.4-1.4,5.8-1.2c2.4,0.1,4.4,0.9,5.6,1.8C186.3,151.3,186.7,152.1,186.4,152.5z"/>
														</g>
													</g>
												</g>
											</g>
										</g>
									</g>
								</g>
							</g>
						</g>
					</g>
				</g>
			</g>
			<g>
				<g>
					<path class="st7" d="M105.3,131.7c2.8-3.5,7.3-4.9,11.6-6.1c18.6-5.1,37.8-8,57-8.5c2,4.1-0.7,9.3-4.6,11.7
						c-3.8,2.5-8.5,3.1-13,4.3c-4.4,1.2-9.1,3.2-11.3,7.2c-2.3,4.3-1.3,9.7-3.4,14.1c-3.7,7.6-14.8,9-18.4,16.6
						c-2.7,5.8-0.9,4.4-0.7,10.8c0.3,7.1-4.1,8.2-9.8,12.6c-4.5,3.5-13.1,7.4-18.8,7c1-22.6,6.9-33.5,7.8-56.3
						C102,140.4,102.4,135.4,105.3,131.7z"/>
				</g>
			</g>
			<g>
				<g>
					<g>
						<path class="st4" d="M137,95.6c0,0,0.2-0.1,0.5-0.4c0.4-0.2,0.7-0.5,1.5-0.8c1.3-0.7,3.2-1.6,5.8-2.2c2.6-0.6,5.7-0.9,9.1-0.5
							c3.4,0.5,7.1,1.7,10.4,3.9c3.3,2.3,5.8,5.3,7.4,8.3c1.6,3,2.5,6,2.8,8.7c0.4,2.6,0.3,4.7,0,6.1c-0.1,0.7-0.3,1.3-0.3,1.6
							c-0.1,0.4-0.2,0.5-0.2,0.5c-0.2,0,0.8-3.2,0-8.2c-0.4-2.6-1.3-5.5-2.9-8.4c-1.6-2.9-4-5.9-7.2-8.2c-3.2-2.2-6.8-3.5-10.2-3.9
							s-6.4-0.3-9,0.3C139.7,93.8,137.1,95.8,137,95.6z"/>
					</g>
				</g>
			</g>
			<g>
				<g>
					<g>
						<path class="st4" d="M111.6,117.1c0,0,0.3,0,0.7,0c0.5,0,1.2,0,2.2-0.2c0.9-0.2,2-0.5,3.2-1.2c1.2-0.6,2.5-1.5,3.8-2.5
							c1.4-1,2.7-2.2,4.4-3.5c1.6-1.2,3.3-2.5,5.4-3.5c4.1-1.9,9.1-3.1,14.4-2.8c5.2,0.3,10.2,1.9,13.9,4.4c3.8,2.4,6.7,5.5,8.6,8.2
							c1.9,2.8,3,5.4,3.7,7.2c0.3,0.9,0.5,1.6,0.6,2.1c0.1,0.5,0.2,0.7,0.2,0.7c-0.1,0-0.3-1-0.9-2.7c-0.6-1.7-1.7-4.3-3.8-7.1
							c-1.9-2.7-4.8-5.7-8.6-8.1c-3.8-2.4-8.5-3.9-13.7-4.2c-5.1-0.3-10.1,0.8-14.1,2.7c-2,0.9-3.8,2.2-5.3,3.4
							c-1.6,1.2-3,2.4-4.4,3.4c-1.4,1-2.7,1.8-3.9,2.4c-1.2,0.6-2.4,0.9-3.3,1.1c-0.9,0.1-1.7,0.2-2.2,0.1
							C111.9,117.2,111.6,117.1,111.6,117.1z"/>
					</g>
				</g>
			</g>
			<g>
				<g>
					<g>
						<path class="st4" d="M89.4,145.3c0.1,0,0.2,2.6,1.4,6.5c1.2,3.8,3.8,9.1,8.5,13.2c4.7,4.1,10.2,6.2,14.1,7
							c4,0.7,6.6,0.5,6.6,0.6c0,0-0.2,0-0.5,0.1c-0.3,0-0.7,0.1-1.3,0.1c-1.2,0-2.8,0-4.9-0.4c-4-0.6-9.7-2.7-14.4-6.9
							c-4.8-4.2-7.4-9.6-8.5-13.6c-0.5-2-0.8-3.7-0.9-4.8c-0.1-0.5-0.1-1-0.1-1.3C89.4,145.5,89.4,145.3,89.4,145.3z"/>
					</g>
				</g>
			</g>
			<g>
				<g>
					<g>
						<path class="st4" d="M114.5,184.5c0,0-0.6-0.1-1.8-0.3c-1.1-0.2-2.7-0.6-4.8-1.2c-3.9-1.2-9.4-3.5-14.2-7.9
							c-4.7-4.5-7-10.2-7.3-14.4c-0.2-2.1-0.1-3.8,0.2-4.9c0.1-0.5,0.3-1,0.3-1.3c0.1-0.3,0.2-0.5,0.2-0.5c0.2,0-0.7,2.6-0.3,6.7
							c0.5,4,2.7,9.6,7.3,14c4.6,4.3,10,6.6,13.9,8c1.9,0.6,3.6,1.1,4.7,1.4C113.8,184.4,114.5,184.5,114.5,184.5z"/>
					</g>
				</g>
			</g>
			<g>
				<g>
					<g>
						<path class="st7" d="M197.3,112.9c0,0.2-3.9-0.8-8.6,0.2c-4.8,0.9-8,3.2-8.1,3c0-0.1,0.7-0.7,2.1-1.5c1.4-0.8,3.5-1.6,5.9-2.1
							c2.4-0.5,4.7-0.5,6.2-0.2C196.4,112.5,197.4,112.8,197.3,112.9z"/>
					</g>
				</g>
			</g>
			<g>
				<g>
					<g>
						<path class="st7" d="M186.8,99.2c0.1,0,0.3,1,0.2,2.7c0,1.7-0.4,4.1-1.2,6.6c-0.8,2.5-1.9,4.6-2.9,6c-1,1.4-1.7,2.2-1.7,2.1
							c-0.2-0.1,2.6-3.4,4.1-8.3C186.9,103.4,186.6,99.2,186.8,99.2z"/>
					</g>
				</g>
			</g>
			<g>
				<g>
					<g>
						<path class="st7" d="M77.2,226.5c0.1-0.1,1.4,1.1,3.8,2.1c2.5,1.1,6.3,1.9,10.4,1.1c4-0.9,7.2-3.2,9-5.2
							c1.8-2,2.6-3.6,2.7-3.6c0,0-0.1,0.5-0.5,1.1c-0.4,0.7-0.9,1.6-1.8,2.7c-1.7,2.1-4.9,4.6-9.3,5.5c-4.2,0.9-8.2-0.1-10.6-1.3
							c-1.3-0.6-2.2-1.2-2.8-1.7C77.5,226.9,77.2,226.5,77.2,226.5z"/>
					</g>
				</g>
			</g>
			<g>
				<g>
					<g>
						<path class="st7" d="M69.8,218.4c0,0,0.7,0.1,1.9,0.3c1.2,0.1,3.1,0.5,5.2-0.4c1-0.4,2-1.2,2.6-2.4c0.3-0.5,0.5-1.2,0.5-1.8
							c0-0.6-0.3-1.3-0.7-1.8c-0.9-1-2.7-1.3-4-0.6c-1.4,0.6-2.2,2.3-2.2,3.9c0,1.6,0.8,3.2,1.8,4.3c1.1,1.2,2.5,2,3.8,2.5
							c2.7,1,5.6,0.7,7.7,0c2.1-0.7,3.6-1.9,4.5-2.7c0.2-0.2,0.4-0.5,0.5-0.6c0.1-0.2,0.3-0.4,0.4-0.5c0.2-0.3,0.4-0.4,0.4-0.4
							s-0.1,0.2-0.3,0.5c-0.1,0.2-0.2,0.4-0.4,0.5c-0.2,0.2-0.4,0.5-0.5,0.6c-0.8,0.9-2.3,2.2-4.5,3c-2.1,0.8-5,1.1-8,0.1
							c-1.5-0.5-2.9-1.4-4-2.6s-2-2.9-2-4.8s0.9-3.7,2.6-4.5c1.6-0.7,3.6-0.5,4.7,0.7c0.5,0.6,0.8,1.4,0.8,2.2
							c0,0.7-0.2,1.5-0.5,2.1c-0.6,1.3-1.7,2.1-2.8,2.6c-2.3,0.8-4.2,0.4-5.4,0.2c-0.6-0.1-1.1-0.3-1.5-0.3
							C69.8,218.5,69.8,218.4,69.8,218.4z"/>
					</g>
				</g>
			</g>
			<g>
				<g>
					<g>
						<path class="st9" d="M114.7,174.1c-0.4-0.2-16.5-5.7-16.7,11s16.6,13.4,16.7,12.9C114.7,197.6,114.7,174.1,114.7,174.1z"/>
					</g>
				</g>
			</g>
			<g>
				<g>
					<g>
						<g>
							<path class="st10" d="M109.6,191.7c-0.1-0.1-0.3,0.2-0.8,0.5c-0.5,0.2-1.3,0.4-2.2,0c-1.7-0.6-3.2-3.5-3.3-6.5
								c0-1.6,0.3-2.9,0.8-4.1c0.5-1.2,1.3-2,2.2-2.2c0.9-0.2,1.5,0.4,1.7,0.8c0.2,0.5,0.1,0.8,0.2,0.8c0.1,0,0.4-0.3,0.3-1
								c-0.1-0.4-0.3-0.7-0.6-1c-0.4-0.4-1-0.5-1.6-0.5c-1.3,0.1-2.5,1.3-3,2.6c-0.6,1.3-1.1,2.9-1,4.7c0.1,3.4,1.7,6.5,4.1,7.2
								c1.2,0.3,2.1,0,2.7-0.5C109.5,192.1,109.6,191.7,109.6,191.7z"/>
						</g>
					</g>
				</g>
			</g>
			<g>
				<g>
					<g>
						<path class="st3" d="M100.6,194.4c0,0-0.3,0.2-0.7,0.5c-0.5,0.3-1.3,0.7-2.2,1.3c-1.8,1.2-4.3,3.5-5.9,7.1
							c-0.7,1.8-1.2,4-1.2,6.3s0.6,4.8,1.9,7.1c1.2,2.3,3.1,4.4,5.6,5.9c2.4,1.5,5.3,2.4,8.3,2.3c1.5,0,3-0.2,4.4-0.6
							c1.4-0.4,2.7-1,3.9-1.8c2.4-1.6,4.2-3.7,5.4-6c2.4-4.7,2-9.9,0.5-13.5c-1.6-3.7-4.1-5.9-6-7.1s-3.1-1.6-3.1-1.6
							s1.3,0.3,3.2,1.4c1.9,1.1,4.6,3.3,6.3,7.1c0.8,1.8,1.4,4,1.4,6.5c0,2.4-0.5,4.9-1.7,7.4c-1.2,2.4-3.1,4.7-5.6,6.2
							c-1.2,0.8-2.6,1.5-4,1.9c-1.5,0.5-3,0.6-4.6,0.7c-3.1,0.1-6.1-0.9-8.6-2.4c-2.5-1.6-4.5-3.8-5.7-6.1c-1.3-2.4-1.9-4.9-1.9-7.3
							c0-2.4,0.5-4.6,1.3-6.5c1.6-3.8,4.2-6,6.1-7.2c1-0.5,1.7-0.9,2.3-1.2C100.4,194.5,100.6,194.4,100.6,194.4z"/>
					</g>
				</g>
			</g>
			<g>
				<g>
					<g>
						<path class="st4" d="M88,143.6c0,0,0,0.3,0,0.8c-0.1,0.5,0,1.4-0.2,2.3c-0.3,2-1,4.9-2.5,8.2c-1.4,3.4-3.5,7.1-5.7,11.4
							c-1.1,2.1-2.2,4.4-3.1,6.8c-0.9,2.4-1.6,4.9-2,7.7c-0.6,5.4,0.3,10.7,2.3,15c0.9,2.2,2.2,4,3.4,5.8c1.3,1.7,2.5,3.3,3.6,4.7
							c2.3,2.8,4.2,5,5.5,6.6c0.6,0.7,1.1,1.3,1.6,1.7c0.4,0.4,0.5,0.6,0.5,0.6s-0.2-0.2-0.6-0.5c-0.4-0.4-0.9-0.9-1.6-1.6
							c-1.4-1.5-3.4-3.7-5.7-6.4c-1.2-1.4-2.4-2.9-3.7-4.7c-1.3-1.7-2.6-3.7-3.6-5.9c-2-4.4-3-9.8-2.4-15.4c0.4-2.7,1.1-5.4,2.1-7.9
							c0.9-2.5,2-4.7,3.2-6.9c2.2-4.2,4.4-8,5.8-11.3c1.5-3.3,2.3-6.1,2.6-8.1c0.3-1,0.3-1.7,0.4-2.3C88,143.8,88,143.6,88,143.6z"
							/>
					</g>
				</g>
			</g>
			<g>
				<g>
					<g>
						<path class="st7" d="M36,238.2c0,0,0-0.2-0.2-0.4c-0.1-0.3-0.5-0.5-0.9-0.7c-0.5-0.2-1.2-0.2-1.9,0.1s-1.2,1.1-1.5,2.1
							c-0.2,1-0.2,2.1,0,3.4c0.2,1.2,0.6,2.6,1.6,3.6c0.9,1,2.6,1.6,4.1,1.3c1.6-0.3,3.2-1.1,4.3-2.6c1.1-1.5,1.6-3.3,1.7-5.3
							s-0.2-4-0.5-6.1c-0.8-4.2-2.5-8.5-3.8-13.2c-1.4-4.7-2.4-9.9-1.4-15.2c0.5-2.7,1.6-5.2,3.3-7.4c1.7-2.2,3.8-4,5-6.5
							c1.3-2.5,1.8-5.2,2-7.9s-0.1-5.4-0.5-8c-0.8-5.2-2.1-10.2-2.2-15.1c-0.1-4.9,1.1-9.5,3-13.5c1.9-3.9,4.7-7.1,7.5-9.3
							c2.8-2.4,6-3.8,8.7-4.8c2.7-0.9,5.3-1.3,7.3-1.5c2-0.1,3.7,0,4.8,0.1c0.5,0.1,0.9,0.2,1.2,0.2c0.3,0,0.5,0.1,0.4,0.1
							c0,0-0.2,0-0.5,0c-0.3,0-0.7-0.1-1.2-0.1c-1.1-0.1-2.7-0.2-4.7,0c-2,0.2-4.5,0.5-7.2,1.6c-2.7,1-5.8,2.5-8.5,4.8
							c-2.8,2.3-5.4,5.4-7.3,9.3c-1.9,3.8-3,8.4-2.9,13.2c0.1,4.9,1.4,9.8,2.2,15c0.4,2.7,0.6,5.3,0.5,8.1s-0.7,5.6-2,8.2
							c-1.3,2.6-3.5,4.5-5.1,6.6c-1.6,2.1-2.7,4.7-3.1,7.1c-0.9,5.1,0,10.3,1.4,14.9c1.4,4.7,2.9,9,3.8,13.3
							c0.5,2.1,0.7,4.2,0.5,6.2c-0.1,2-0.7,4-1.8,5.5c-1.2,1.5-2.8,2.4-4.6,2.7c-1.6,0.3-3.4-0.3-4.4-1.5c-1-1.1-1.4-2.6-1.6-3.8
							c-0.2-1.3-0.2-2.4,0-3.5c0.3-1,0.8-1.8,1.6-2.2c0.7-0.4,1.5-0.3,2-0.1c0.5,0.2,0.8,0.5,0.9,0.8C36,238,36,238.2,36,238.2z"/>
					</g>
				</g>
			</g>
		</g>
		<g>
			<g>
				<path class="st8" d="M114.8,255.4c0,0,21.8,11,32.7,9.1c13.7-2.5,17.1-8.3,17.1-8.3l5.5,12.6l39.5,256.4h-54.3H80.1l27.4-262.6
					L114.8,255.4z"/>
			</g>
		</g>
		<g>
			<g>
				<g>
					<path class="st4" d="M153.3,324.9c0,0-7.2-37.2-37-66.5l-8.9-25.2c0,0-11.1,2.3-12.8,7.3c-1.6,5-2.5,12.2-2.5,12.2
						s-39,7.5-44.9,15.1c-5.9,7.5,26,145.6,26,145.6S49.5,468.1,46.9,487c-3,22.1-3,37.9-3,37.9h111.5c0-11.7,4.5-113.9,4.5-113.9
						L153.3,324.9z"/>
				</g>
			</g>
			<g class="st11">
				<g>
					<g>
						<path d="M98.5,270.2c1,3.6,2.9,6.9,5.5,9.4c-0.6-3.4,1.4-7,4.4-8.8c2.9-1.8,6.7-2.2,10.1-1.6c3.5,0.5,6.7,1.9,9.9,3.3
							c-2.6-3.8-6.3-7.9-9.4-11.1c-1.4-1.4-1.6-2.2-3.4-2.8c0,0-5.8,2.5-8.1,3.8C103.7,264.7,101.4,266.9,98.5,270.2"/>
					</g>
				</g>
			</g>
			<g>
				<g>
					<g>
						<path class="st7" d="M116.2,258.4c0,0.1-2.6,0.5-6.2,2.5c-1.8,0.9-3.9,2.3-6,4c-2,1.8-4,4-5.8,6.7c-0.4,0.5-0.7,1.1-1,1.6
							l-0.3,0.4l-0.3-0.4c-3.1-5.1-4.3-10.4-4.6-14.3c-0.2-1.9-0.1-3.5,0-4.5c0-0.5,0.1-0.9,0.1-1.2c0-0.3,0.1-0.5,0.1-0.5
							s0,0.5,0,1.6c0,1,0,2.6,0.2,4.5c0.4,3.8,1.6,9,4.7,14h-0.5c0.4-0.5,0.6-1.1,1-1.6c1.7-2.7,3.8-4.9,6-6.8
							c2.1-1.8,4.3-3.1,6.1-4c1.9-0.9,3.5-1.4,4.7-1.7c0.5-0.2,1-0.3,1.3-0.3C116,258.4,116.2,258.4,116.2,258.4z"/>
					</g>
				</g>
			</g>
			<g>
				<g>
					<g>
						<path class="st7" d="M144.1,351.6c0,0-0.1-0.4-0.2-1c-0.1-0.7-0.3-1.6-0.4-2.8c-0.1-0.6-0.2-1.3-0.3-2
							c-0.2-0.7-0.3-1.6-0.5-2.4c-0.4-1.7-0.6-3.7-1.2-5.8c-1.9-8.6-5.5-20.3-10.7-32.6c-2.6-6.2-5.3-12-7.9-17.2
							c-2.6-5.2-5.2-9.8-7.4-13.6c-2.3-3.8-4.3-6.7-5.7-8.7c-0.7-1-1.3-1.7-1.6-2.3s-0.5-0.8-0.5-0.8s0.3,0.3,0.6,0.7
							c0.5,0.5,1,1.3,1.7,2.2c1.5,2,3.5,4.9,5.9,8.7c2.3,3.8,4.9,8.3,7.6,13.5c2.7,5.2,5.4,11,8,17.2c5.2,12.4,8.7,24.1,10.6,32.7
							c0.5,2.1,0.8,4.1,1.1,5.9c0.2,0.8,0.3,1.6,0.5,2.4c0.1,0.7,0.2,1.5,0.3,2c0.1,1.2,0.2,2.1,0.3,2.8
							C144.1,351.3,144.1,351.6,144.1,351.6z"/>
					</g>
				</g>
			</g>
			<g>
				<g>
					<g>
						<path class="st7" d="M102.1,444.8c0,0-0.1,0.2-0.3,0.5c-0.3,0.4-0.6,0.7-1,1.2c-0.9,1.1-2.2,2.6-3.7,4.4
							c-3.1,3.7-7.3,8.8-11.8,14.7c-4.5,5.9-8.3,11.3-11.1,15.2c-1.4,1.9-2.5,3.5-3.3,4.7c-0.4,0.5-0.6,0.9-0.9,1.3
							c-0.2,0.3-0.4,0.5-0.4,0.5s0.1-0.2,0.3-0.5c0.2-0.4,0.5-0.8,0.8-1.4c0.7-1.2,1.7-2.7,3.1-4.8c2.7-4,6.5-9.5,11-15.3
							c4.5-5.9,8.8-11,12-14.6c1.6-1.8,2.9-3.3,3.8-4.2c0.5-0.5,0.8-0.8,1.1-1.1C101.9,444.8,102.1,444.8,102.1,444.8z"/>
					</g>
				</g>
			</g>
			<g>
				<g>
					<g>
						<path class="st7" d="M112.6,455.3c0,0-0.1,0.2-0.4,0.5s-0.6,0.8-1.1,1.5c-1,1.3-2.4,3-4.2,5.1c-3.7,4.3-8.9,10.1-15,16.1
							c-6.1,6.1-12.1,11.3-16.4,14.8l-0.2,0.1l-0.1-0.1c-1.9-1.8-3.6-3.4-4.8-4.6c-0.5-0.5-0.9-0.9-1.3-1.3
							c-0.3-0.3-0.5-0.5-0.5-0.5s0.2,0.1,0.5,0.4c0.4,0.3,0.8,0.7,1.4,1.2c1.2,1.1,2.8,2.6,4.9,4.4h-0.3c4.3-3.7,10.2-8.9,16.3-14.9
							c6.1-6,11.4-11.7,15.1-15.9c1.8-2.1,3.3-3.8,4.4-5c0.5-0.5,0.9-1,1.2-1.4C112.5,455.4,112.6,455.2,112.6,455.3z"/>
					</g>
				</g>
			</g>
			<g>
				<g>
					<g>
						<path class="st7" d="M112.2,454.8c-0.1,0.1-2.5-2.3-5.3-5.3c-2.7-3-4.9-5.6-4.9-5.8c0.1-0.1,2.5,2.3,5.3,5.3
							C110.1,452.2,112.3,454.7,112.2,454.8z"/>
					</g>
				</g>
			</g>
			<g class="st11">
				<g>
					<g>
						<path d="M157,388.7c-1.2-1.8-3.8-2.2-6-2.2c-9,0.1-17.8,3.4-25.5,8c-7.7,4.7-14.6,10.6-21.3,16.6c-2.2,1.9-4.6,4.4-4,7.2
							c0.4,1.9,1.8,0.4,2.4,2.3c0.7,2.2,3.7,8.2,3.7,8.2c-1.5,1.7-9.2,8.9-11.2,9.9c-11.3,5.6-22.3,7.7-33,2.7l-1.4,2.4
							c4.9,6.5,11.2,6.8,19.3,6.4c8.2-0.4,15.9-3.7,23-7.8c4.8-2.7,9.7-6.6,10.3-12c0.3-2.4-0.5-4.9,0-7.3c1-5.4,6.9-8.2,11.7-10.7
							c7.9-4.2,14.8-10.1,20.1-17.2c2.8,0.7,6,1.6,8.7,0.5C156.6,394.6,158.7,391.1,157,388.7z"/>
					</g>
				</g>
			</g>
			<g>
				<g>
					<g>
						<path class="st7" d="M154.8,344c0,0-0.1-0.4-0.1-1c-0.1-0.7-0.2-1.6-0.3-2.7c-0.2-2.4-0.6-6-1.3-10.2
							c-0.7-4.3-1.6-9.3-3.2-14.9c-0.7-2.7-1.7-5.6-2.7-8.6c-0.5-1.5-1.1-2.9-1.7-4.4c-0.5-1.5-1.3-2.9-1.9-4.5
							c-2.7-6-5.9-11.5-9-16.3c-1.6-2.4-3.1-4.7-4.7-6.7c-0.7-1-1.5-2-2.2-2.9c-0.7-0.9-1.5-1.8-2.1-2.7c-1.4-1.7-2.7-3.2-3.8-4.5
							c-1.1-1.3-2.1-2.4-2.9-3.3c-0.8-0.8-1.4-1.6-1.9-2.1c-0.5-0.5-0.6-0.7-0.6-0.7s0.3,0.2,0.7,0.6c0.5,0.5,1.1,1.2,1.9,2
							c0.8,0.8,1.9,1.9,3,3.2c1.2,1.3,2.5,2.7,3.8,4.4c0.7,0.8,1.5,1.7,2.2,2.7s1.5,1.9,2.3,2.9c1.6,2,3.1,4.3,4.8,6.7
							c3.2,4.9,6.3,10.4,9.1,16.4c0.6,1.6,1.4,3,1.9,4.5c0.5,1.6,1.2,3,1.7,4.5c1,3,2,5.9,2.7,8.6c1.6,5.6,2.5,10.7,3.1,14.9
							c0.5,4.3,0.9,7.8,1.1,10.3c0.1,1.2,0.1,2.1,0.2,2.8C154.8,343.7,154.8,344,154.8,344z"/>
					</g>
				</g>
			</g>
			<g>
				<g>
					<g>
						<path class="st7" d="M141.2,525c0,0,0-0.1,0-0.4c0-0.3,0.1-0.6,0.1-1c0.1-0.9,0.3-2.2,0.5-3.9c0.2-1.6,0.5-3.8,0.7-6.1
							c0.3-2.4,0.6-5.1,0.9-8.2c0.6-6,1.3-13.3,1.8-21.4c0.5-8.1,1-17,1.2-26.2c0.2-9.3,0.2-18.2,0.1-26.3
							c-0.2-8.1-0.5-15.3-0.7-21.4c-0.1-3-0.4-5.8-0.5-8.2c-0.2-2.4-0.3-4.5-0.5-6.2c-0.1-1.6-0.2-3-0.3-3.9c0-0.5,0-0.7-0.1-1
							c0-0.3,0-0.4,0-0.4s0,0.1,0.1,0.4c0,0.3,0.1,0.6,0.1,1c0.1,0.9,0.2,2.3,0.4,3.9c0.2,1.7,0.4,3.8,0.5,6.2
							c0.2,2.4,0.4,5.1,0.5,8.2c0.4,6.1,0.7,13.4,0.9,21.4s0.2,17,0,26.3c-0.3,9.3-0.7,18.2-1.3,26.3c-0.5,8.1-1.3,15.3-1.9,21.4
							c-0.3,3-0.6,5.8-1,8.2c-0.3,2.4-0.5,4.5-0.8,6.1c-0.3,1.6-0.5,2.9-0.5,3.8c-0.1,0.5-0.1,0.7-0.2,1
							C141.2,524.9,141.2,525,141.2,525z"/>
					</g>
				</g>
			</g>
		</g>
		<g>
			<g>
				<g>
					<path class="st4" d="M192.3,249.7c0,0,11-1.3,22.8,14.8c11.8,16,25.7,67,26.3,86c0.6,19,5.7,48.9-7.8,57.7
						c-13.5,8.8-22.4,8.2-29.5,3.7c-7.1-4.6-11.3-19.7-11.3-19.7L192.3,249.7z"/>
				</g>
			</g>
			<g>
				<g>
					<path class="st4" d="M185,525c-11.9-26.9-15.3-47.3-18.1-80.8c-2.7-33.5-9.5-104.3-11.1-105.1c-1.1-0.5-3.3-25-4.4-38
						c-0.5-5.2,0.5-10.5,2.5-15.3c2.5-5.8,5.7-12.9,6-13.4c0.7-0.7,4.8-16.2,4.8-16.2l0.5-20l11.6,10.7l15.4,2.9L207,415.2
						c0,0,19.7,50.3,23.2,67.2c3.4,16.9,1.1,42.7,1.1,42.7"/>
				</g>
			</g>
			<g class="st11">
				<g>
					<g>
						<path d="M202.4,397.3c-3.3-4.6-6.8-9.2-11.4-12.5c-4.6-3.2-10.7-4.9-15.9-3c-4.9,1.8-8.4,6.4-13.2,8.6l0.6,5.5
							c2.7,2.8,6.6,3.3,10.4,2.3c3.6-0.9,6.8-3.6,10.4-3.3c3.5,0.3,6.2,3.2,9.7,3.6c1.6,0.2,3.4-0.2,4.9,0.5
							c0.9,0.5,1.6,1.2,2.4,1.6c0.8,0.5,2.1,0.6,2.7-0.2C203.8,399.7,203.1,398.3,202.4,397.3z"/>
					</g>
				</g>
			</g>
			<g>
				<g>
					<g>
						<path class="st7" d="M177.1,246.8c0,0,0.1,0.2,0.4,0.5c0.2,0.3,0.5,0.7,0.9,1.4c0.8,1.2,1.9,3,3.1,5.3
							c2.5,4.7,5.3,11.7,6.5,20.5l0.1,0.5l-0.5-0.3c-4.2-2.1-9.3-3.4-14.7-3.4c-3.1,0-6,0.5-8.8,1.4l0.2-0.4c1,3,2,6,2.9,8.7
							l0.1,0.3l-0.3,0.1c-3.7,1.5-6.6,3.8-8.7,6.3c-2.1,2.5-3.5,5-4.3,7.2c-0.8,2.2-1.2,4.1-1.3,5.3c-0.1,1.3-0.2,1.9-0.2,1.9
							s0-0.2,0-0.5c0-0.4,0-0.8,0-1.5c0.1-1.3,0.4-3.2,1.2-5.4c0.8-2.3,2.1-4.9,4.2-7.4c2.1-2.6,5-4.9,8.8-6.5l-0.2,0.4
							c-0.9-2.7-1.9-5.7-2.9-8.7l-0.1-0.3l0.3-0.1c2.8-0.8,5.9-1.4,9-1.4c5.5-0.1,10.6,1.3,14.9,3.5l-0.4,0.3
							c-1.2-8.6-3.9-15.7-6.3-20.4c-1.2-2.4-2.3-4.2-3-5.4c-0.4-0.5-0.6-1-0.9-1.4C177.2,247,177.1,246.8,177.1,246.8z"/>
					</g>
				</g>
			</g>
			<g>
				<g>
					<g>
						<path class="st1" d="M170.8,325.1c-0.7-2.4-3.5-4-6-3.4l-1.4,0.5c-2.2,1.3-3.2,4.3-2.1,6.6s4,3.5,6.4,2.6
							C170.1,330.5,171.5,327.6,170.8,325.1z"/>
					</g>
				</g>
				<g>
					<g>
						<g>
							<path class="st7" d="M170.8,325.1c0,0,0.1,0.1,0.1,0.3c0.1,0.2,0.2,0.5,0.2,0.9c0.1,0.8-0.1,2-0.9,3.3
								c-0.4,0.6-1,1.2-1.7,1.6c-0.7,0.5-1.7,0.6-2.7,0.5s-2-0.4-2.9-1c-0.9-0.6-1.6-1.6-1.9-2.7c-0.7-2.6,0.5-5.1,2.5-6.2l0,0l0,0
								c0.5-0.2,0.9-0.4,1.4-0.5l0,0l0,0c1.2-0.3,2.3,0,3.1,0.4c0.9,0.4,1.6,0.9,1.9,1.5c0.5,0.5,0.6,1,0.8,1.4
								C170.7,325,170.8,325.1,170.8,325.1c-0.1,0-0.3-0.7-1.1-1.6c-0.5-0.5-1.1-0.9-1.9-1.3c-0.8-0.4-1.8-0.5-2.9-0.3l0,0
								c-0.5,0.2-0.9,0.4-1.4,0.5l0,0c-1.6,0.9-2.8,3.3-2.2,5.6c0.5,2,2.6,3.2,4.3,3.3c1.8,0.2,3.3-0.8,4.1-1.9c0.8-1.1,1-2.3,1-3
								C170.8,325.6,170.7,325.2,170.8,325.1z"/>
						</g>
					</g>
				</g>
			</g>
			<g>
				<g>
					<g>
						<path class="st1" d="M178.6,407.5c-0.7-2.4-3.5-4-6-3.4l-1.4,0.5c-2.2,1.3-3.2,4.3-2.1,6.6s4,3.5,6.4,2.6
							C177.9,412.8,179.3,409.8,178.6,407.5z"/>
					</g>
				</g>
				<g>
					<g>
						<g>
							<path class="st7" d="M178.6,407.5c0,0,0.1,0.1,0.1,0.3c0.1,0.2,0.2,0.5,0.2,0.9c0.1,0.8-0.1,2-0.9,3.3
								c-0.4,0.6-1,1.2-1.7,1.6c-0.7,0.5-1.7,0.6-2.7,0.5c-1-0.1-2-0.4-2.9-1c-0.9-0.6-1.6-1.6-1.9-2.7c-0.7-2.6,0.5-5.1,2.5-6.2
								l0,0l0,0c0.5-0.2,0.9-0.4,1.4-0.5l0,0l0,0c1.2-0.3,2.3,0,3.1,0.4c0.9,0.4,1.6,0.9,1.9,1.5c0.5,0.5,0.6,1,0.8,1.4
								C178.6,407.3,178.6,407.5,178.6,407.5c-0.1,0-0.3-0.7-1.1-1.6c-0.5-0.5-1.1-0.9-1.9-1.3c-0.8-0.4-1.8-0.5-2.9-0.3l0,0
								c-0.5,0.2-0.9,0.4-1.4,0.5l0,0c-1.6,0.9-2.8,3.3-2.2,5.6c0.5,2,2.6,3.2,4.3,3.3c1.8,0.2,3.3-0.8,4.1-1.9c0.8-1.1,1-2.3,1-3
								C178.6,407.9,178.6,407.5,178.6,407.5z"/>
						</g>
					</g>
				</g>
			</g>
			<g>
				<g>
					<g>
						<path class="st1" d="M183.9,462.9c-0.7-2.4-3.5-4-6-3.4l-1.4,0.5c-2.2,1.3-3.2,4.3-2.1,6.6c1.1,2.3,4,3.5,6.4,2.6
							C183.2,468.2,184.6,465.3,183.9,462.9z"/>
					</g>
				</g>
				<g>
					<g>
						<g>
							<path class="st7" d="M183.9,462.9c0,0,0.1,0.1,0.1,0.3c0.1,0.2,0.2,0.5,0.2,0.9c0.1,0.8-0.1,2-0.9,3.3
								c-0.4,0.6-1,1.2-1.7,1.6c-0.7,0.5-1.7,0.6-2.7,0.5c-1-0.1-2-0.4-2.9-1c-0.9-0.6-1.6-1.6-1.9-2.7c-0.7-2.6,0.5-5.1,2.5-6.2
								l0,0l0,0c0.5-0.2,0.9-0.4,1.4-0.5l0,0l0,0c1.2-0.3,2.3,0,3.1,0.4c0.9,0.4,1.6,0.9,1.9,1.5c0.5,0.5,0.6,1,0.8,1.4
								C183.9,462.7,183.9,462.9,183.9,462.9c-0.1,0-0.3-0.7-1.1-1.6c-0.5-0.5-1.1-0.9-1.9-1.3c-0.8-0.4-1.8-0.5-2.9-0.3l0,0
								c-0.5,0.2-0.9,0.4-1.4,0.5l0,0c-1.6,0.9-2.8,3.3-2.2,5.6c0.5,2,2.6,3.2,4.3,3.3c1.8,0.2,3.3-0.8,4.1-1.9c0.8-1.1,1-2.3,1-3
								C184,463.4,183.8,462.9,183.9,462.9z"/>
						</g>
					</g>
				</g>
			</g>
			<g>
				<g>
					<g>
						<path class="st7" d="M215.9,336c0,0-0.1-0.6-0.2-1.8c-0.1-1.2-0.2-2.8-0.5-4.9c-0.5-4.1-1.5-9.8-3.3-15.9
							c-1.8-6.1-3.9-11.5-5.7-15.2c-0.8-1.9-1.6-3.4-2.1-4.5c-0.5-1-0.7-1.6-0.7-1.6s0.4,0.5,0.9,1.6c0.5,1,1.4,2.6,2.3,4.4
							c1.8,3.8,4,9.2,5.9,15.3c1.8,6.1,2.8,11.8,3.2,16c0.2,2.1,0.3,3.8,0.3,4.9C215.9,335.4,215.9,336,215.9,336z"/>
					</g>
				</g>
			</g>
			<g class="st11">
				<g>
					<g>
						<path d="M152,307.5c1.9-10.5,13.5-19,24.2-18.9c-0.4-2.1-0.7-4.1-1.1-6.2c3.6,1.5,7.1,2.8,10.6,4.3c1.7-5.2-1.2-11.2-5.8-14.1
							c-4.7-2.9-10.4-1.3-15.9,0c0.8,3.6,2.1,5.1,2.9,8.7C157.6,283.4,151.3,297.9,152,307.5"/>
					</g>
				</g>
			</g>
			<g>
				<g>
					<g>
						<path class="st7" d="M225.7,466.2c0,0-0.1-0.2-0.3-0.6c-0.2-0.5-0.5-1.1-0.7-1.9c-0.6-1.7-1.5-4.1-2.6-7.1
							c-2.1-6-5-14.3-8.2-23.4c-3.2-9.1-6.2-17.3-8.4-23.3c-1.1-2.9-2-5.3-2.7-7.1c-0.3-0.8-0.5-1.4-0.7-1.9
							c-0.2-0.5-0.2-0.6-0.2-0.6s0.1,0.2,0.3,0.6c0.2,0.5,0.5,1.1,0.8,1.8c0.7,1.6,1.6,4,2.8,7c2.3,5.9,5.4,14.1,8.6,23.2
							c3.2,9.1,6,17.4,8.1,23.4c1,2.9,1.8,5.4,2.4,7.1c0.3,0.8,0.5,1.5,0.6,1.9C225.6,465.9,225.7,466.2,225.7,466.2z"/>
					</g>
				</g>
			</g>
			<g>
				<g>
					<g>
						<path class="st7" d="M210.7,525c0,0-0.2-0.3-0.5-0.8c-0.3-0.5-0.6-1.4-1.2-2.4c-1-2-2.4-5-4-8.7c-3.3-7.4-7.7-17.8-11.7-29.5
							c-4.1-11.7-7.1-22.5-9.2-30.4c-1-3.9-1.7-7.1-2.3-9.3c-0.3-1.1-0.5-1.9-0.5-2.6c-0.1-0.5-0.2-0.9-0.2-0.9s0.1,0.3,0.3,0.9
							c0.2,0.6,0.4,1.5,0.6,2.6c0.5,2.2,1.4,5.4,2.5,9.3c2.1,7.9,5.2,18.6,9.3,30.3c4.1,11.7,8.3,22.1,11.5,29.5
							c1.6,3.8,2.9,6.7,3.8,8.8c0.5,1,0.8,1.8,1.1,2.4C210.6,524.7,210.8,525,210.7,525z"/>
					</g>
				</g>
			</g>
		</g>
		<g>
			<g>
				<g>
					<path class="st4" d="M47.1,267.9c0,0-16.1,12.4-19.3,39.6c-3.3,27.2,2.8,62.2,2.8,62.2l2,24c0,0-2.5,13,2.5,22.4
						c4.9,9.3,0,15.5,14.7,20c14.7,4.5,14.2,10.2,31.7,7.3s24.8-14.7,24.8-14.7l-19.2-43.2c0,0-0.8-5.1-10.2-0.8L72.1,322
						C72.1,322.2,55.5,270.6,47.1,267.9z"/>
				</g>
			</g>
			<g>
				<g>
					<g>
						<path class="st7" d="M72.1,322.2c0,0,0.1,0.4,0.1,1.1c0.1,0.7,0.2,1.8,0.3,3.3c0.3,2.8,0.5,7.1,1,12.5
							c0.8,10.9,2.1,26.5,3.7,45.7l-0.3-0.2c1.6-0.7,3.5-1.5,5.4-1.6c1-0.1,2-0.1,3,0.3c1,0.4,1.8,1.2,2.1,2.3v-0.1
							c5.8,13,12.2,27.5,19.2,43.1l0.1,0.2l-0.1,0.1c-5.6,7.9-14.8,13.1-25,14.8c-2.6,0.4-5.1,0.7-7.7,0.7c-2.7,0-5.3-0.3-7.8-1.1
							c-2.6-0.9-4.9-2.2-7.2-3.4c-2.4-1.2-4.9-2.2-7.4-3c-2.1-0.7-4.2-1.4-6.2-2.3c-2-1-3.9-2.3-5.2-4.1c-1.3-1.8-1.8-4.1-2.3-6.1
							c-0.5-2.1-0.9-4.2-1.7-6.1c-0.8-1.9-1.8-3.8-2.5-5.9c-0.6-2-1-4.1-1.2-6.2c-0.5-4.2-0.3-8.3,0.4-12.4v0.1
							c-0.7-8.3-1.4-16.3-2-24l0,0c-2.5-15.7-3.7-30.3-3.8-43.4c0-6.5,0.3-12.6,0.9-18.3c0.7-5.7,1.9-10.8,3.4-15.3
							c1.5-4.5,3.4-8.3,5.2-11.5c1.8-3.2,3.8-5.8,5.4-7.7c1.6-1.9,3-3.4,4-4.3c0.5-0.5,0.9-0.8,1.1-1c0.3-0.2,0.4-0.3,0.4-0.3
							s-0.1,0.1-0.4,0.4c-0.3,0.2-0.6,0.5-1.1,1c-0.9,0.9-2.3,2.4-3.9,4.3c-1.6,2-3.5,4.6-5.3,7.8s-3.7,7.1-5.1,11.5
							c-1.5,4.5-2.7,9.6-3.3,15.2c-0.6,5.7-0.9,11.7-0.8,18.3c0.1,13,1.3,27.7,3.8,43.4l0,0l0,0c0.6,7.7,1.4,15.7,2,24l0,0l0,0
							c-0.6,3.9-0.8,8.1-0.4,12.2c0.3,2,0.5,4.1,1.2,6.1s1.6,3.8,2.5,5.9c0.8,2,1.4,4.1,1.8,6.2c0.5,2.1,1,4.2,2.2,6
							c1.3,1.7,3.1,2.9,5,3.9c2,0.9,4,1.6,6.2,2.3c2.6,0.8,5,1.9,7.4,3.1s4.8,2.5,7.1,3.3c4.9,1.6,10.3,1.1,15.3,0.4
							c5-0.8,9.8-2.5,14-4.9c2.1-1.2,4.1-2.7,5.9-4.2c1.8-1.6,3.4-3.4,4.8-5.2v0.3c-6.9-15.6-13.4-30.2-19.1-43.2l0,0l0,0
							c-0.2-0.9-0.9-1.6-1.7-2c-0.8-0.4-1.8-0.4-2.7-0.3c-1.9,0.2-3.7,0.9-5.3,1.6l-0.3,0.1V385c-1.5-19.2-2.7-34.9-3.5-45.8
							c-0.4-5.4-0.7-9.6-0.9-12.6c-0.1-1.5-0.2-2.5-0.2-3.3C72.1,322.6,72.1,322.2,72.1,322.2z"/>
					</g>
				</g>
			</g>
			<g>
				<g>
					<g>
						<path class="st7" d="M48.8,408.2c0,0,0-0.5,0.3-1.6c0.2-1,0.6-2.4,1.4-4c1.4-3.3,4.1-7.6,8.4-11s8.9-5.6,12.4-6.3
							c1.7-0.4,3.2-0.5,4.2-0.5c1,0,1.6,0.1,1.6,0.1c0,0.1-2.2-0.1-5.7,0.8c-3.4,0.8-7.9,3-12.1,6.4c-4.2,3.3-7,7.5-8.4,10.7
							C49.3,406.1,48.9,408.3,48.8,408.2z"/>
					</g>
				</g>
			</g>
			<g>
				<g>
					<g>
						<path class="st7" d="M84.8,438.1c0,0-0.2-0.1-0.6-0.3c-0.4-0.2-0.9-0.5-1.6-0.9c-1.4-0.9-3.3-2.3-5.3-4.5c-2-2.2-4-5-5.8-8.6
							c-1.7-3.5-3.2-7.5-4.5-11.8c-1.3-4.2-2.5-8.4-2.2-12.5c0.1-1.9,0.6-3.8,1.5-5.4c0.9-1.6,2-2.7,3-3.8c2.2-2,4.1-3.3,5.5-4.2
							c0.7-0.5,1.2-0.8,1.6-1c0.4-0.2,0.5-0.4,0.5-0.3c0,0-0.2,0.2-0.5,0.4c-0.4,0.3-0.9,0.6-1.6,1.1c-1.3,0.9-3.3,2.3-5.4,4.3
							c-1,1-2.1,2.2-2.9,3.7c-0.8,1.5-1.3,3.3-1.4,5.1c-0.3,3.8,0.9,8,2.2,12.2c1.3,4.3,2.7,8.2,4.4,11.7s3.7,6.3,5.6,8.5
							c1.9,2.2,3.8,3.7,5.1,4.6C84,437.6,84.8,438.1,84.8,438.1z"/>
					</g>
				</g>
			</g>
			<g>
				<g>
					<g>
						<path class="st7" d="M44.5,286c0,0,0.5,0.4,1.2,1.1c0.7,0.7,1.8,1.7,3.3,2.9c2.7,2.5,7,5.5,11.2,9.4c4.2,3.8,7.3,8.2,8.8,11.6
							c0.7,1.7,1.2,3.2,1.4,4.2c0.1,0.5,0.2,0.9,0.2,1.2s0,0.5,0,0.5c-0.1,0-0.4-2.3-1.9-5.7s-4.7-7.5-8.8-11.4
							c-4.2-3.8-8.2-7-11-9.5c-1.4-1.3-2.5-2.3-3.1-3.1C44.9,286.6,44.5,286.1,44.5,286z"/>
					</g>
				</g>
			</g>
			<g class="st11">
				<g>
					<g>
						<path d="M79.3,434.4c-4.2-3.7-7.1-8.6-9.1-13.7c-2-5.2-3.8-9.9-4.9-15.4l-0.3,0.1c-1.5,6.9,1.6,13.4,3.8,20.1
							c0.9,2.7,1.9,5.4,3.8,7.6c1.8,2.2,4.9,3.6,7.6,2.8C80.2,435.2,79.7,434.8,79.3,434.4z"/>
					</g>
				</g>
			</g>
		</g>
		<g>
			<g>
				<g>
					<path class="st9" d="M81.2,390l57.7-33.9l3.8,33.8l-47.8,37.6c0,0-7.5-10.9-10-19.2C82.3,400,81.2,390,81.2,390z"/>
				</g>
			</g>
			<g>
				<g>
					<path class="st0" d="M174.6,356.3l23.7-19.2c0.8-0.6,1.8-1,2.9-1l33.1,0.1c1.4,0,2.5,1,2.5,2.4c0.1,1.3-0.1,2.8-1.1,3.6
						c-1.9,1.6-50.3,41.5-50.3,41.5l-40.3-3L174.6,356.3z"/>
				</g>
			</g>
			<g>
				<g>
					<g>
						<path class="st9" d="M138.9,356c0,0,12.7-11.2,15.9-12c3.1-0.8,17.5-1.9,17.5-1.9l12.6,5.9l-7.1,5.7c-5.3-0.7-7-2.6-7-2.6
							l-8.2,1.3L138.9,356z"/>
					</g>
				</g>
				<g>
					<g>
						<path class="st9" d="M153.7,350.4l22.1,5.6l31.2,1.8c0,0,0.7,6.2-5.6,7.4c-3.7,0.7-10.2,1.7-10.2,1.7s-1.1,5.8-5.8,7.4
							c0,0-1.7,4.2-4.2,5.9c-0.3,0.2-0.5,0.4-0.9,0.5c-2.9,1.1-8.2,9.6-12,11c-3.8,1.4-25.8-1.8-25.8-1.8l-3.8-33.8L153.7,350.4z"/>
					</g>
				</g>
				<g>
					<g>
						<g>
							<path class="st10" d="M161.5,367.4c0-0.1,1.7,0.2,4.5,0.5s6.6,0.5,10.9,0.5c4.3-0.1,8.2-0.5,10.9-0.9
								c2.7-0.5,4.5-0.8,4.5-0.7c0,0-0.4,0.2-1.2,0.4c-0.7,0.2-1.8,0.5-3.2,0.7c-2.7,0.5-6.6,1-10.9,1.1c-4.3,0.1-8.2-0.3-11-0.7
								c-1.4-0.2-2.5-0.5-3.3-0.6C162,367.6,161.5,367.5,161.5,367.4z"/>
						</g>
					</g>
				</g>
				<g>
					<g>
						<g>
							<path class="st10" d="M166.5,375.8c0.1,0,0.2,0.8-0.1,2.1c-0.1,0.6-0.4,1.5-1,2.2c-0.6,0.7-1.6,1.1-2.7,1.2
								c-1,0-2-0.3-2.8-0.5c-0.8-0.4-1.5-0.6-2.1-0.9c-1.2-0.5-1.9-0.7-1.9-0.8c0-0.1,0.8,0,2.1,0.5c1.2,0.5,2.8,1.4,4.8,1.3
								c0.9,0,1.8-0.4,2.3-0.9c0.5-0.5,0.8-1.3,1-1.9C166.3,376.7,166.3,375.8,166.5,375.8z"/>
						</g>
					</g>
				</g>
				<g>
					<g>
						<g>
							<path class="st10" d="M182.4,376.7c0,0.1-0.8,0.4-2.3,0.8c-1.5,0.4-3.5,0.8-5.7,1.2c-2.3,0.4-4.3,0.5-5.8,0.5
								c-1.5,0.1-2.4,0-2.4-0.1c0-0.2,3.7-0.4,8.2-1.1C178.8,377.4,182.4,376.5,182.4,376.7z"/>
						</g>
					</g>
				</g>
				<g>
					<g>
						<g>
							<path class="st10" d="M166.9,386.9c0.1,0.1-1.3,1.3-3.4,1.8c-2.1,0.5-3.9,0.1-3.8-0.1c0-0.2,1.7,0,3.8-0.5
								C165.4,387.7,166.8,386.7,166.9,386.9z"/>
						</g>
					</g>
				</g>
				<g>
					<g>
						<g>
							<path class="st10" d="M174.6,385.9c0,0.2-1,0.5-2.3,0.8s-2.4,0.4-2.4,0.2s1-0.5,2.3-0.8C173.5,385.8,174.6,385.7,174.6,385.9
								z"/>
						</g>
					</g>
				</g>
				<g>
					<g>
						<g>
							<path class="st10" d="M175.8,356c-0.1,0.3-4.7-0.8-10.4-2.6c-2.8-0.8-5.3-1.6-7.1-2.3s-2.9-1.1-2.8-1.2c0-0.1,1.2,0.3,3,0.8
								c2,0.6,4.5,1.3,7.2,2.1s5.1,1.6,7.2,2.1C174.7,355.7,175.8,355.9,175.8,356z"/>
						</g>
					</g>
				</g>
			</g>
			<g>
				<g>
					<g>
						<path class="st9" d="M208,361.2c0,0-2.5-0.6-0.2-4.6c2.3-3.9,9.8,0,9.8,0l9.6,4.7c0,0,2.5,4.6,0,6l-1.6,2.5
							c0,0,3.8,3.3,2.7,6.6c-1.2,3.3-4.8,3.1-4.8,3.1s0.9,6.4-0.9,9.1c-1.9,2.7-3.8,3-3.8,3s-1.3,5.5-7.3,7.5c-6,2.1-9.3,2.5-11.1,0
							c-1.9-2.5-3.2-5.7-3.2-5.7s-13.7-5.9-14.3-9.3c-0.5-3.5,0-3.8,0-3.8s-1.3-2.8-0.2-5.1c1.2-2.3,6.5-0.8,6.5-0.8l17.1,2.6
							c0,0-14-5.2-15.8-7.1s-0.3-4.6,5.2-4.4c5.5,0.2,22.1,1.9,22.1,1.9s-0.9-1.6-2.1-1.9c-1.1-0.4-4.7-2-4.7-2L208,361.2z"/>
					</g>
				</g>
				<g>
					<g>
						<g>
							<path class="st10" d="M214.1,386.4c0,0.2-7-1-15.6-2.7c-8.6-1.6-15.5-3-15.5-3.2c0-0.2,7,1,15.6,2.7
								C207.2,384.7,214.1,386.2,214.1,386.4z"/>
						</g>
					</g>
				</g>
				<g>
					<g>
						<g>
							<path class="st10" d="M206.8,396.2c0,0.2-2.3-0.2-5-0.8c-1.4-0.4-2.6-0.6-3.5-1c-0.5-0.2-0.8-0.3-1-0.5
								c-0.1-0.1-0.2-0.1-0.3-0.2c-0.1-0.1,0-0.2,0-0.1c-0.1,0.1,2.2,0.5,4.9,1.2C204.7,395.4,206.9,396,206.8,396.2z"/>
						</g>
					</g>
				</g>
				<g>
					<g>
						<g>
							<path class="st10" d="M219.9,378.4c0,0.2-3.4-0.2-7.5-0.5c-4.1-0.4-7.5-0.5-7.5-0.6s3.4-0.3,7.5,0.1
								C216.6,377.6,219.9,378.2,219.9,378.4z"/>
						</g>
					</g>
				</g>
				<g>
					<g>
						<g>
							<path class="st10" d="M223.3,369.3c-0.1,0.2-1.5-0.6-3.4-1.2c-1.9-0.5-3.6-0.5-3.6-0.7c0-0.2,1.6-0.5,3.7,0.2
								C222,368.1,223.4,369.2,223.3,369.3z"/>
						</g>
					</g>
				</g>
			</g>
			<g>
				<g>
					<g>
						<path class="st7" d="M235.5,339.2c0,0-0.2,0-0.6,0s-1.1,0-1.7-0.1c-1.6-0.1-3.8-0.2-6.5-0.3c-5.5-0.2-13.1-0.2-21.4,0.3
							c-2.1,0.2-4.2,0.1-5.8,1.2c-0.8,0.5-1.6,1.2-2.3,1.7c-0.7,0.6-1.5,1.2-2.1,1.8c-2.7,2.3-5.3,4.4-7.4,6.2
							c-2.1,1.7-3.8,3.1-5,4.1c-0.5,0.5-1,0.8-1.4,1.1c-0.4,0.3-0.5,0.4-0.5,0.4c0,0,0.1-0.2,0.5-0.5c0.4-0.3,0.8-0.7,1.3-1.2
							c1.2-1.1,2.8-2.6,4.9-4.3c2.1-1.8,4.6-3.9,7.3-6.3c0.7-0.5,1.4-1.2,2.1-1.8c0.7-0.6,1.5-1.3,2.3-1.8c0.8-0.5,1.9-0.9,2.9-1
							c1-0.2,2.1-0.2,3.1-0.3c8.4-0.5,16-0.4,21.5-0.1c2.7,0.1,4.9,0.3,6.5,0.5c0.7,0.1,1.3,0.1,1.7,0.2
							C235.3,339.1,235.5,339.2,235.5,339.2z"/>
					</g>
				</g>
			</g>
			<g>
				<g>
					<path class="st3" d="M215.2,343.7c-0.3-0.5-1-0.6-1.6-0.5h0.1c-0.1,0-0.2,0.1-0.3,0.1h-0.1c-0.5,0.2-0.9,0.5-1.2,0.8
						c-0.4,0.5-0.4,1.3,0.1,1.7c0.3,0.3,0.6,0.4,0.9,0.4c0.6,0.1,1.4-0.2,1.8-0.6C215.5,345.1,215.6,344.4,215.2,343.7z"/>
				</g>
			</g>
		</g>
	</g>
	<g>
		<g>
			<g>
				<path class="st8" d="M333.9,376.1c0,3.9-3.2,7.1-7.1,7.2c-3.9,0-7.1-3.2-7.2-7.1c0-3.9,3.2-7.1,7.1-7.2
					C330.7,368.9,333.9,372.1,333.9,376.1z"/>
			</g>
		</g>
		<g>
			<g>
				<path class="st8" d="M354,361.6c0,3.9-3.2,7.1-7.1,7.2c-3.9,0-7.1-3.2-7.2-7.1c0-3.9,3.2-7.1,7.1-7.2
					C350.8,354.5,354,357.7,354,361.6z"/>
			</g>
		</g>
		<g>
			<g>
				<path class="st8" d="M354.1,392.1c0,4.3-3.2,7.8-7.1,7.8c-3.9,0-7.1-3.5-7.2-7.8c0-4.3,3.2-7.8,7.1-7.8
					C350.9,384.4,354.1,387.8,354.1,392.1z"/>
			</g>
		</g>
		<g>
			<g>
				<g>
					<path class="st8" d="M344.7,391.2c-0.3,0.5-5.1-2.3-10.7-6c-5.6-3.8-9.9-7.2-9.5-7.7c0.3-0.5,5.1,2.3,10.7,6
						S345.1,390.8,344.7,391.2z"/>
				</g>
			</g>
		</g>
		<g>
			<g>
				<g>
					<path class="st8" d="M345.4,361.2c0.4,0.5-3.4,3.8-8.2,7.6c-4.9,3.8-9.2,6.5-9.4,6c-0.4-0.5,3.4-3.8,8.2-7.6
						C340.8,363.5,345,360.7,345.4,361.2z"/>
				</g>
			</g>
		</g>
	</g>
	<g>
		<g>
			<g>
				<g>
					<g>
						<g>
							<g>
								<g>
									<g>
										<path class="st1" d="M478.8,269.6l-18.5-6.8l-18.3,6.7c-2.4,1.1-4.4,1.8-4.4,4v11.1c0,7.7,2,15.4,6,22.2
											c3.4,5.7,8.7,11.5,16.9,15.3c7.5-2.5,13.1-9.2,16.5-14.8c4-6.8,6-14.4,6-22.2v-10C483,271.9,481.4,270.3,478.8,269.6z"/>
									</g>
								</g>
								<g>
									<g>
										<g>
											<path class="st7" d="M478.8,269.6c0,0,0.5,0.1,1.2,0.4c0.7,0.3,1.9,0.9,2.6,2.4c0.4,0.7,0.5,1.6,0.5,2.6c0,0.9,0,2,0,3.1
												c0,2.2,0,4.8,0,7.6c0,5.7-1.2,12.6-4.7,19.4c-1.7,3.4-4,6.8-7,9.9c-2.9,3.1-6.5,5.9-10.9,7.3h-0.1h-0.1
												c-5.8-2.6-11.2-7-15.1-12.6c-4.8-6.6-7.2-14.4-7.8-21.8c-0.2-1.8-0.1-3.7-0.1-5.5s0-3.6,0-5.3c0-0.8,0-1.7,0-2.6
												c0-0.5,0-0.8,0-1.3c0-0.5,0.2-0.9,0.4-1.3c0.5-0.8,1.2-1.3,1.9-1.6c0.7-0.4,1.5-0.7,2.2-1l0,0l0,0
												c7-2.6,13.1-4.8,18.3-6.7h0.1h0.1c5.8,2.2,10.4,3.8,13.6,5c1.6,0.5,2.7,1,3.6,1.4c0.4,0.2,0.7,0.3,0.9,0.4
												C478.7,269.5,478.8,269.6,478.8,269.6s-0.1,0-0.4-0.1c-0.3-0.1-0.5-0.2-0.9-0.4c-0.8-0.3-2.1-0.7-3.7-1.3
												c-3.2-1.2-7.8-2.8-13.7-4.9h0.1c-5.2,1.9-11.4,4.2-18.3,6.8l0,0c-0.7,0.4-1.5,0.6-2.2,1c-0.7,0.4-1.4,0.8-1.7,1.5
												c-0.4,0.6-0.4,1.5-0.4,2.4c0,0.8,0,1.7,0,2.6c0,1.7,0,3.5,0,5.3s0,3.6,0.1,5.4c0.5,7.3,3,15,7.7,21.5
												c3.9,5.6,9.3,9.9,14.9,12.5h-0.2c4.3-1.5,7.9-4.2,10.7-7.2c2.8-3,5.1-6.4,7-9.8c3.5-6.8,4.7-13.7,4.8-19.2
												c0-2.8,0-5.3,0-7.6c0-2.2,0.2-4.1-0.5-5.6c-0.6-1.4-1.7-2-2.5-2.4C479.4,269.8,479.1,269.7,478.8,269.6
												C478.9,269.6,478.8,269.6,478.8,269.6z"/>
										</g>
									</g>
								</g>
							</g>
						</g>
					</g>
				</g>
			</g>
			<g>
				<g>
					<g>
						<g>
							<g>
								<g>
									<path class="st4" d="M473.2,299.4h-3.9v-21.2c0-4.9-4-9-9-9s-9,4-9,9v21.2h-3.8v-21.2c0-7.1,5.8-12.9,12.9-12.9
										c7.1,0,12.9,5.8,12.9,12.9L473.2,299.4L473.2,299.4z"/>
								</g>
							</g>
						</g>
					</g>
					<g class="st12">
						<g>
							<g>
								<g>
									<path d="M473.2,299.4h-3.9v-21.2c0-4.9-4-9-9-9s-9,4-9,9v21.2h-3.8v-21.2c0-7.1,5.8-12.9,12.9-12.9
										c7.1,0,12.9,5.8,12.9,12.9L473.2,299.4L473.2,299.4z"/>
								</g>
							</g>
						</g>
					</g>
					<g>
						<g>
							<g>
								<g>
									<path class="st8" d="M474.6,312.3H446c-1.7,0-3.1-1.4-3.1-3.1v-16.1c0-1.7,1.4-3.1,3.1-3.1h28.6c1.7,0,3.1,1.4,3.1,3.1
										v16.1C477.7,310.9,476.4,312.3,474.6,312.3z"/>
								</g>
							</g>
						</g>
					</g>
					<g class="st13">
						<g>
							<g>
								<path d="M463.2,298.3c0-1.6-1.3-2.9-2.9-2.9c-1.6,0-2.9,1.3-2.9,2.9c0,1.4,0.9,2.5,2.1,2.7v4.3h1.6V301
									C462.3,300.7,463.2,299.6,463.2,298.3z"/>
							</g>
						</g>
					</g>
				</g>
				<g>
					<g>
						<g>
							<g>
								<g>
									<path class="st5" d="M444.7,310.2c-0.1,0-0.2-3.8-0.2-8.3s0.1-8.3,0.2-8.3s0.2,3.8,0.2,8.3
										C444.9,306.5,444.8,310.2,444.7,310.2z"/>
								</g>
							</g>
						</g>
					</g>
				</g>
				<g>
					<g>
						<g>
							<g>
								<g>
									<path class="st5" d="M458,302c0,0-0.1,0-0.4-0.2c-0.2-0.2-0.5-0.4-0.7-0.7c-0.5-0.7-1-2-0.7-3.4c0.4-1.4,1.4-2.3,2.2-2.7
										c0.4-0.2,0.7-0.3,1-0.4c0.3,0,0.4,0,0.4,0c0,0.1-0.5,0.1-1.3,0.5c-0.7,0.5-1.6,1.3-2,2.6c-0.3,1.3,0.1,2.5,0.6,3.2
										C457.6,301.7,458,302,458,302z"/>
								</g>
							</g>
						</g>
					</g>
				</g>
			</g>
		</g>
	</g>
	<g>
		<g>
			<g>
				<g>
					<g>
						<g>
							<path class="st8" d="M506,180.5c0.7-0.5,1.5-0.7,2.3-1l0.5-2.3l3.8-0.1l0.5,2.3c0.8,0.2,1.6,0.5,2.4,0.9l1.9-1.3l2.7,2.7
								l-1.2,2c0.5,0.7,0.7,1.5,1,2.3l2.3,0.5l0.1,3.8l-2.3,0.5c-0.2,0.8-0.5,1.6-0.9,2.4l1.3,1.9l-2.7,2.7l-2-1.2
								c-0.7,0.5-1.5,0.7-2.3,1L513,200l-3.8,0.1l-0.5-2.3c-0.8-0.2-1.6-0.5-2.4-0.9l-1.9,1.3l-2.7-2.7l1.2-2
								c-0.5-0.7-0.7-1.5-1-2.3l-2.3-0.5l-0.1-3.8l2.3-0.5c0.2-0.8,0.5-1.6,0.9-2.4l-1.3-1.9l2.7-2.7L506,180.5L506,180.5z
								 M508,185.7c-1.6,1.6-1.6,4.3,0.1,5.9s4.3,1.6,5.9-0.1c1.6-1.6,1.6-4.3-0.1-5.9C512.2,184,509.5,184.1,508,185.7z"/>
						</g>
					</g>
				</g>
			</g>
			<g>
				<g>
					<g>
						<g>
							<g>
								<path class="st4" d="M508,185.7c0,0,0.2-0.3,0.7-0.6c0.5-0.4,1.5-0.7,2.7-0.6c0.5,0.1,1.3,0.3,1.8,0.6
									c0.5,0.4,1.1,0.9,1.5,1.6c0.2,0.4,0.3,0.7,0.4,1.2c0.1,0.4,0.1,0.8,0,1.3c-0.1,0.8-0.5,1.7-1.2,2.4
									c-0.6,0.6-1.5,1.1-2.4,1.2c-0.5,0.1-0.8,0.1-1.3,0c-0.5-0.1-0.8-0.2-1.2-0.4c-0.7-0.3-1.3-0.8-1.7-1.5
									c-0.5-0.5-0.6-1.2-0.7-1.8c-0.2-1.2,0.2-2.2,0.5-2.7C507.7,185.9,508,185.7,508,185.7s-0.3,0.3-0.5,0.8s-0.6,1.5-0.5,2.7
									c0.1,0.5,0.3,1.2,0.7,1.7c0.4,0.5,0.9,1,1.6,1.4c0.4,0.2,0.7,0.3,1.1,0.3c0.4,0.1,0.8,0.1,1.2,0c0.8-0.1,1.6-0.5,2.2-1.2
									c0.6-0.6,1-1.5,1.1-2.3c0.1-0.4,0.1-0.8,0-1.2c-0.1-0.4-0.2-0.7-0.4-1.1c-0.4-0.7-0.8-1.2-1.4-1.6c-0.5-0.4-1.2-0.5-1.7-0.6
									c-1.2-0.2-2.1,0.2-2.7,0.5C508.2,185.5,508,185.7,508,185.7z"/>
							</g>
						</g>
					</g>
				</g>
			</g>
			<g>
				<g>
					<g>
						<g>
							<g>
								<path class="st7" d="M506,180.5C506,180.5,506,180.5,506,180.5c-0.2-0.2-0.3-0.2-0.5-0.3c-0.4-0.2-0.8-0.5-1.5-0.9h0.1
									c-0.6,0.7-1.6,1.6-2.7,2.7V182c0.4,0.5,0.8,1.3,1.3,1.9l0,0l0,0c-0.4,0.6-0.7,1.5-0.9,2.3l0,0h-0.1
									c-0.7,0.2-1.5,0.4-2.3,0.5l0.1-0.1c0,1.2,0.1,2.5,0.1,3.8l-0.1-0.1c0.7,0.2,1.5,0.3,2.3,0.5h0.1v0.1c0.2,0.7,0.5,1.6,1,2.3
									v0.1v0.1c-0.4,0.6-0.8,1.3-1.2,2v-0.1c0.9,0.8,1.8,1.7,2.7,2.7h-0.1c0.6-0.4,1.3-0.8,1.9-1.3h0.1h0.1
									c0.6,0.4,1.5,0.7,2.3,0.9h0.1v0.1c0.2,0.7,0.4,1.5,0.5,2.3l-0.1-0.1c1.2,0,2.6,0,3.8-0.1l-0.1,0.1c0.2-0.7,0.3-1.5,0.5-2.3
									v-0.1h0.1c0.7-0.2,1.6-0.5,2.3-1l0,0h0.1h0.1c0.6,0.4,1.4,0.8,2,1.2H518c0.9-0.9,1.8-1.8,2.7-2.7v0.2
									c-0.5-0.6-0.8-1.3-1.3-1.9v-0.1v-0.1c0.4-0.7,0.7-1.6,0.9-2.3v-0.1h0.1c0.7-0.2,1.6-0.4,2.3-0.5l-0.1,0.1
									c0-1.3,0-2.6-0.1-3.8l0.1,0.1c-0.7-0.2-1.6-0.4-2.3-0.5h-0.1v-0.1c-0.3-0.8-0.5-1.6-1-2.3v-0.1v-0.1c0.5-0.6,0.8-1.4,1.2-2
									v0.1c-1-0.9-1.9-1.8-2.7-2.7h0.1c-0.7,0.5-1.4,0.8-1.9,1.3l0,0l0,0c-0.7-0.5-1.6-0.7-2.3-0.9h-0.1l0,0
									c-0.2-0.8-0.4-1.6-0.5-2.3l0.1,0.1c-1.5,0-2.7,0-3.8,0.1h0.1c-0.2,0.9-0.4,1.6-0.5,2.3l0,0l0,0c-0.8,0.2-1.4,0.5-1.7,0.6
									c-0.2,0.1-0.3,0.2-0.5,0.2C506,180.5,506,180.5,506,180.5S506,180.5,506,180.5c0.2-0.2,0.3-0.2,0.5-0.4
									c0.4-0.2,0.9-0.5,1.7-0.7l0,0c0.1-0.6,0.3-1.4,0.5-2.3l0,0l0,0c1.1,0,2.4-0.1,3.8-0.1h0.1v0.1c0.2,0.7,0.4,1.5,0.5,2.3
									l-0.1-0.1c0.7,0.2,1.6,0.5,2.4,0.9h-0.1c0.6-0.4,1.3-0.8,1.9-1.3h0.1l0.1,0.1c0.9,0.8,1.8,1.7,2.7,2.7l0.1,0.1v0.1
									c-0.4,0.6-0.8,1.3-1.2,2v-0.1c0.5,0.7,0.8,1.5,1,2.3L520,186c0.7,0.2,1.5,0.3,2.3,0.5h0.1v0.1c0,1.3,0.1,2.6,0.1,3.8v0.1
									h-0.1c-0.7,0.2-1.5,0.4-2.3,0.5l0.1-0.1c-0.2,0.8-0.5,1.6-0.9,2.4v-0.1c0.5,0.6,0.8,1.3,1.3,1.9l0.1,0.1l-0.1,0.1
									c-0.9,0.9-1.7,1.8-2.7,2.7l-0.1,0.1l-0.1-0.1c-0.6-0.4-1.3-0.8-2-1.2h0.1l0,0c-0.7,0.5-1.6,0.8-2.3,1l0.1-0.1
									c-0.2,0.8-0.4,1.6-0.5,2.3v0.1H513c-1.3,0-2.7,0-3.8,0.1h-0.1v-0.1c-0.2-0.8-0.4-1.6-0.5-2.3l0.1,0.1
									c-0.8-0.2-1.6-0.5-2.4-0.9h0.1c-0.6,0.5-1.4,0.9-1.9,1.3l-0.1,0.1l-0.1-0.1c-1-0.9-1.9-1.8-2.7-2.7l-0.1-0.1v-0.1
									c0.5-0.7,0.8-1.4,1.2-2v0.1c-0.5-0.7-0.8-1.6-1-2.3l0.1,0.1c-0.8-0.2-1.6-0.4-2.3-0.5h-0.1v-0.1c0-1.4,0-2.7-0.1-3.8v-0.1
									h0.1c0.8-0.2,1.6-0.4,2.3-0.5l-0.1,0.1c0.2-0.9,0.5-1.6,0.9-2.4v0.1c-0.5-0.7-0.9-1.4-1.3-1.9l0,0l0,0c1.1-1.1,2-2,2.7-2.7
									l0,0l0,0c0.6,0.4,1.1,0.7,1.5,0.9c0.2,0.1,0.3,0.2,0.4,0.3C505.9,180.5,506,180.5,506,180.5z"/>
							</g>
						</g>
					</g>
				</g>
			</g>
		</g>
		<g>
			<g>
				<g>
					<g>
						<g>
							<path class="st8" d="M483,177c0.5-0.3,0.9-0.5,1.4-0.6l0.3-1.4h2.3l0.4,1.4c0.5,0.1,0.9,0.3,1.4,0.5l1.2-0.7l1.6,1.6
								l-0.7,1.2c0.3,0.5,0.5,0.9,0.6,1.4l1.4,0.3v2.3l-1.4,0.4c-0.1,0.5-0.3,0.9-0.5,1.4l0.7,1.2l-1.6,1.6l-1.2-0.7
								c-0.5,0.3-0.9,0.5-1.4,0.6l-0.3,1.4h-2.3l-0.4-1.4c-0.5-0.1-0.9-0.3-1.4-0.5l-1.2,0.7l-1.6-1.6l0.7-1.2
								c-0.3-0.5-0.5-0.9-0.6-1.4l-1.4-0.3V181l1.4-0.4c0.1-0.5,0.3-0.9,0.5-1.4l-0.7-1.2l1.6-1.6L483,177L483,177z M484.1,180.1
								c-0.9,1-0.9,2.6,0.1,3.5c1,0.9,2.6,0.9,3.5-0.1c0.9-1,0.9-2.6-0.1-3.5C486.7,179.1,485.1,179.1,484.1,180.1z"/>
						</g>
					</g>
				</g>
			</g>
			<g>
				<g>
					<g>
						<g>
							<g>
								<path class="st4" d="M484.1,180.1c0,0,0.1-0.2,0.5-0.4c0.4-0.2,0.9-0.5,1.6-0.4c0.4,0,0.7,0.2,1.1,0.4
									c0.4,0.3,0.6,0.5,0.9,1c0.1,0.2,0.2,0.5,0.2,0.7c0,0.3,0.1,0.5,0,0.7c-0.1,0.5-0.3,1-0.7,1.5c-0.4,0.4-0.9,0.6-1.4,0.7
									c-0.3,0.1-0.5,0.1-0.7,0c-0.3,0-0.5-0.1-0.7-0.2c-0.5-0.2-0.8-0.5-1-0.8c-0.3-0.4-0.4-0.7-0.5-1.1c-0.1-0.7,0.1-1.3,0.4-1.6
									C484,180.2,484.1,180.1,484.1,180.1s-0.2,0.2-0.4,0.5c-0.2,0.4-0.4,0.9-0.3,1.6c0.1,0.4,0.2,0.7,0.5,1
									c0.3,0.4,0.5,0.6,1,0.8c0.2,0.1,0.5,0.2,0.6,0.2c0.3,0,0.5,0,0.7,0c0.5-0.1,0.9-0.4,1.3-0.7c0.4-0.4,0.5-0.8,0.6-1.4
									c0-0.3,0-0.5,0-0.7s-0.1-0.5-0.2-0.6c-0.2-0.5-0.5-0.7-0.8-0.9c-0.4-0.2-0.7-0.4-1-0.4c-0.7-0.1-1.3,0.1-1.6,0.4
									C484.3,180,484.1,180.1,484.1,180.1z"/>
							</g>
						</g>
					</g>
				</g>
			</g>
			<g>
				<g>
					<g>
						<g>
							<g>
								<path class="st7" d="M483,177C483,177,482.9,177,483,177c-0.1-0.1-0.2-0.1-0.3-0.2c-0.2-0.1-0.5-0.3-0.9-0.5l0,0
									c-0.4,0.5-0.9,1-1.6,1.6l0,0c0.3,0.4,0.5,0.7,0.7,1.2l0,0l0,0c-0.2,0.4-0.5,0.9-0.5,1.4l0,0l0,0c-0.5,0.1-0.9,0.2-1.4,0.4
									v-0.1c0,0.7,0,1.5,0.1,2.3V183c0.5,0.1,0.9,0.2,1.4,0.3l0,0l0,0c0.1,0.5,0.4,0.9,0.6,1.4l0,0l0,0c-0.2,0.4-0.5,0.8-0.7,1.2
									v-0.1c0.5,0.5,1.1,1,1.6,1.6h-0.1c0.4-0.3,0.7-0.5,1.2-0.7l0,0l0,0c0.4,0.2,0.9,0.5,1.4,0.5l0,0l0,0
									c0.1,0.5,0.2,0.9,0.4,1.4l-0.1-0.1c0.7,0,1.6,0,2.3,0l-0.1,0.1c0.1-0.5,0.2-0.9,0.3-1.4l0,0l0,0c0.5-0.1,0.9-0.4,1.4-0.5
									l0,0l0,0l0,0c0.4,0.3,0.8,0.5,1.2,0.7h-0.1c0.5-0.5,1.1-1.1,1.6-1.6v0.1c-0.3-0.4-0.5-0.8-0.7-1.2l0,0l0,0
									c0.3-0.5,0.5-0.9,0.5-1.4l0,0l0,0c0.5-0.1,0.9-0.2,1.4-0.4l-0.1,0.1c0-0.8,0-1.6,0-2.3l0.1,0.1c-0.5-0.1-0.9-0.2-1.4-0.3
									l0,0l0,0c-0.2-0.5-0.4-0.9-0.5-1.4l0,0l0,0c0.3-0.4,0.5-0.8,0.7-1.2v0.1c-0.5-0.5-1.1-1.1-1.6-1.6h0.1
									c-0.4,0.3-0.8,0.5-1.2,0.7l0,0l0,0c-0.5-0.3-0.9-0.5-1.4-0.5l0,0l0,0c-0.1-0.5-0.2-0.9-0.4-1.4l0,0c-0.9,0-1.6,0-2.3,0l0,0
									c-0.1,0.5-0.2,1-0.3,1.4l0,0l0,0c-0.5,0.1-0.8,0.3-1.1,0.4C483.1,176.9,483,176.9,483,177L483,177L483,177
									c0.1-0.1,0.2-0.1,0.3-0.2c0.2-0.1,0.5-0.3,1.1-0.5l0,0c0.1-0.4,0.2-0.8,0.3-1.4l0,0l0,0c0.6,0,1.4,0,2.3-0.1l0,0l0,0
									c0.1,0.5,0.2,0.8,0.4,1.4l0,0c0.5,0.1,0.9,0.3,1.4,0.5h-0.1c0.4-0.3,0.7-0.5,1.2-0.7l0,0l0,0c0.5,0.5,1.1,1,1.6,1.6l0,0l0,0
									c-0.3,0.4-0.5,0.8-0.7,1.2v-0.1c0.3,0.5,0.5,0.9,0.6,1.4h-0.1c0.5,0.1,0.9,0.2,1.4,0.3h0.1v0.1c0,0.7,0,1.6,0,2.3v0.1h-0.1
									c-0.5,0.1-0.9,0.2-1.4,0.4l0.1-0.1c-0.1,0.5-0.3,1-0.5,1.4v-0.1c0.3,0.4,0.5,0.7,0.7,1.2v0.1l0,0c-0.5,0.5-1.1,1.1-1.6,1.6
									l0,0h-0.1c-0.4-0.3-0.8-0.5-1.2-0.7h0.1l0,0c-0.5,0.3-0.9,0.5-1.4,0.6l0.1-0.1c-0.1,0.5-0.2,0.9-0.3,1.4v0.1H487
									c-0.8,0-1.6,0-2.3,0h-0.1v-0.1c-0.1-0.5-0.2-0.9-0.4-1.4l0.1,0.1c-0.5-0.1-1-0.4-1.4-0.5h0.1c-0.4,0.3-0.8,0.5-1.2,0.7l0,0
									l0,0c-0.5-0.5-1.1-1.1-1.6-1.6l0,0l0,0c0.3-0.5,0.5-0.8,0.7-1.2v0.1c-0.3-0.5-0.5-0.9-0.6-1.4l0,0c-0.5-0.1-0.9-0.2-1.4-0.3
									l0,0l0,0c0-0.8,0-1.6,0-2.3l0,0l0,0c0.5-0.1,0.9-0.2,1.4-0.4l0,0c0.1-0.5,0.4-1,0.5-1.4l0,0c-0.3-0.5-0.5-0.8-0.7-1.2l0,0
									l0,0c0.6-0.6,1.2-1.2,1.6-1.6l0,0l0,0c0.4,0.3,0.6,0.5,0.9,0.5C482.7,176.9,482.8,176.9,483,177C482.9,177,483,177,483,177z
									"/>
							</g>
						</g>
					</g>
				</g>
			</g>
		</g>
		<g>
			<g>
				<g>
					<g>
						<g>
							<path class="st14" d="M482.6,197.3c1.2-0.3,2.3-0.5,3.5-0.5l1.6-2.8l5.2,1.5l-0.2,3.3c1,0.5,1.9,1.3,2.7,2.2l3.1-0.9l2.7,4.7
								l-2.4,2.2c0.3,1.2,0.5,2.3,0.5,3.5l2.8,1.6l-1.5,5.2l-3.3-0.2c-0.5,1-1.3,1.9-2.2,2.7l0.9,3.1l-4.7,2.7l-2.2-2.4
								c-1.2,0.3-2.3,0.5-3.5,0.5l-1.6,2.8l-5.2-1.5l0.2-3.3c-1-0.5-1.9-1.3-2.7-2.2l-3.1,0.9l-2.7-4.7l2.4-2.2
								c-0.3-1.2-0.5-2.3-0.5-3.5l-2.8-1.6l1.5-5.2l3.3,0.2c0.5-1,1.3-1.9,2.2-2.7l-0.9-3.1l4.7-2.7L482.6,197.3L482.6,197.3z
								 M483.3,205c-2.7,1.6-3.8,5.1-2.2,7.9c1.6,2.7,5.1,3.8,7.9,2.2c2.7-1.6,3.8-5.1,2.2-7.9C489.6,204.4,486.1,203.4,483.3,205z"
								/>
						</g>
					</g>
				</g>
			</g>
			<g>
				<g>
					<g>
						<g>
							<g>
								<path class="st7" d="M483.3,205c0,0,0.5-0.4,1.3-0.6c0.9-0.3,2.3-0.5,3.8,0.3c0.7,0.4,1.6,0.8,2.2,1.6
									c0.6,0.7,1.1,1.7,1.3,2.8c0.1,0.5,0.1,1.1,0,1.7c-0.1,0.5-0.2,1.2-0.5,1.7c-0.5,1.1-1.4,2.1-2.5,2.7
									c-1.1,0.6-2.5,0.9-3.7,0.7c-0.6-0.1-1.2-0.3-1.7-0.5c-0.5-0.3-1-0.5-1.5-0.9c-0.8-0.7-1.4-1.6-1.7-2.6
									c-0.3-0.9-0.4-1.9-0.3-2.7c0.3-1.6,1.1-2.8,1.8-3.4C482.9,205.2,483.3,205,483.3,205s-0.5,0.3-1.1,0.9
									c-0.6,0.6-1.5,1.7-1.6,3.4c-0.1,0.8-0.1,1.7,0.3,2.6c0.3,0.9,0.8,1.7,1.6,2.5c0.4,0.4,0.8,0.6,1.4,0.8
									c0.5,0.3,1.1,0.4,1.6,0.5c1.1,0.2,2.4-0.1,3.4-0.6c1.1-0.6,1.9-1.6,2.4-2.6c0.3-0.5,0.4-1.1,0.5-1.6c0.1-0.5,0.1-1.1,0-1.6
									c-0.2-1-0.6-2-1.2-2.7c-0.6-0.7-1.4-1.3-2.1-1.6c-1.5-0.6-2.8-0.5-3.8-0.3S483.3,205.1,483.3,205z"/>
							</g>
						</g>
					</g>
				</g>
			</g>
			<g>
				<g>
					<g>
						<g>
							<g>
								<path class="st7" d="M482.6,197.3c0,0-0.1,0-0.2-0.2c-0.1-0.1-0.3-0.3-0.5-0.5c-0.4-0.5-0.9-1-1.6-1.8h0.1
									c-1.2,0.6-2.7,1.6-4.7,2.7v-0.1c0.3,0.9,0.6,2,0.9,3.1v0.1l0,0c-0.8,0.7-1.6,1.6-2.1,2.7v0.1h-0.1c-1-0.1-2.1-0.1-3.3-0.2
									l0.1-0.1c-0.5,1.6-0.9,3.4-1.5,5.2l-0.1-0.2c0.9,0.5,1.8,1,2.8,1.6h0.1v0.1c0,1.1,0.1,2.3,0.5,3.5v0.1l-0.1,0.1
									c-0.7,0.6-1.6,1.5-2.4,2.2v-0.2c0.8,1.5,1.7,3,2.7,4.7l-0.2-0.1c1-0.3,2-0.6,3.1-0.9h0.1l0.1,0.1c0.7,0.8,1.6,1.6,2.7,2.1
									l0.1,0.1v0.1c-0.1,1-0.1,2.1-0.2,3.3l-0.1-0.2c1.6,0.5,3.4,0.9,5.2,1.5l-0.2,0.1c0.5-0.9,1-1.9,1.6-2.8l0.1-0.1h0.1
									c1.1,0,2.3-0.1,3.5-0.4l0,0h0.1l0.1,0.1c0.7,0.8,1.5,1.6,2.2,2.4h-0.2c1.6-0.9,3.1-1.7,4.7-2.7l-0.1,0.2
									c-0.3-1-0.6-2.1-0.9-3.1v-0.1l0.1-0.1c0.8-0.8,1.6-1.7,2.1-2.7l0.1-0.1h0.1c1.1,0.1,2.2,0.1,3.3,0.2l-0.2,0.1
									c0.5-1.7,1-3.5,1.5-5.2l0.1,0.2c-1-0.5-1.9-1-2.8-1.6h-0.1v-0.1c0-1.2-0.1-2.4-0.4-3.5v-0.1l0.1-0.1
									c0.8-0.7,1.6-1.5,2.4-2.2v0.2c-0.9-1.6-1.8-3.2-2.7-4.7l0.2,0.1c-1.1,0.4-2.1,0.6-3.1,0.9h-0.1l-0.1-0.1
									c-0.8-0.9-1.8-1.6-2.7-2.2h-0.1v-0.1c0.1-1.2,0.1-2.3,0.2-3.3l0.1,0.1c-2-0.5-3.8-1.1-5.2-1.5h0.1c-0.6,1.1-1.1,2.1-1.6,2.8
									l0,0l0,0c-1.2,0-2,0.1-2.7,0.2c-0.3,0.1-0.5,0.1-0.6,0.1C482.7,197.3,482.6,197.3,482.6,197.3s0.1,0,0.2-0.1
									c0.2,0,0.4-0.1,0.6-0.2c0.5-0.1,1.5-0.3,2.7-0.3H486c0.5-0.8,0.9-1.7,1.6-2.8v-0.1h0.1c1.5,0.4,3.2,0.9,5.2,1.5h0.1v0.1
									c-0.1,1-0.1,2.1-0.2,3.3l-0.1-0.1c1,0.5,1.9,1.3,2.8,2.2h-0.1c1-0.3,2-0.6,3.1-0.9h0.1l0.1,0.1c0.8,1.5,1.7,3,2.7,4.7
									l0.1,0.1l-0.1,0.1c-0.8,0.7-1.6,1.5-2.4,2.2v-0.2c0.3,1.1,0.5,2.3,0.5,3.6l-0.1-0.1c0.9,0.5,1.9,1,2.8,1.6l0.1,0.1v0.1
									c-0.5,1.6-0.9,3.4-1.5,5.2v0.1h-0.1c-1.1-0.1-2.2-0.1-3.3-0.2l0.2-0.1c-0.6,1-1.4,1.9-2.2,2.8v-0.2c0.3,1,0.6,2.1,0.9,3.1
									v0.1l-0.1,0.1c-1.6,0.8-3.1,1.7-4.7,2.7l-0.1,0.1l-0.1-0.1c-0.7-0.8-1.5-1.6-2.2-2.4l0.2,0.1l0,0c-1.2,0.3-2.4,0.5-3.6,0.5
									l0.2-0.1c-0.5,1-1.1,1.9-1.6,2.8l-0.1,0.1h-0.1c-1.7-0.5-3.6-1-5.2-1.5h-0.1v-0.1c0.1-1.1,0.1-2.2,0.2-3.3l0.1,0.2
									c-1.1-0.6-2-1.4-2.8-2.2h0.2c-1.1,0.3-2.1,0.6-3.1,0.9h-0.1l-0.1-0.1c-0.9-1.6-1.8-3.2-2.7-4.7l-0.1-0.1l0.1-0.1
									c0.8-0.7,1.6-1.5,2.4-2.2v0.2c-0.3-1.2-0.5-2.4-0.5-3.6l0.1,0.1c-1-0.5-2-1.1-2.8-1.6l-0.1-0.1v-0.1c0.5-1.8,1-3.6,1.5-5.2
									v-0.1h0.1c1.1,0.1,2.2,0.1,3.3,0.2l-0.1,0.1c0.6-1.1,1.4-2,2.2-2.7v0.1c-0.4-1.1-0.6-2.2-0.9-3.1v-0.1h0.1
									c1.9-1.1,3.5-1.9,4.8-2.7l0,0l0,0c0.7,0.8,1.2,1.4,1.6,1.8C482.3,197,482.4,197.2,482.6,197.3
									C482.6,197.2,482.6,197.3,482.6,197.3z"/>
							</g>
						</g>
					</g>
				</g>
			</g>
		</g>
	</g>
	<g>
		<g>
			<g>
				<g>
					<g>
						<g>
							<g>
								<g>
									<g>
										<g>
											<path class="st1" d="M476.9,130.9l-25.8-3c-1.7-0.2-3-1.8-2.8-3.6l4.2-35.6c0.2-1.7,1.8-3,3.6-2.8l16.3,1.9l11.1,14.5
												l-3.1,25.8C480.3,129.9,478.7,131.1,476.9,130.9z"/>
										</g>
									</g>
									<g>
										<g>
											<g>
												<path class="st7" d="M476.9,130.9c0,0,0.2,0,0.5,0s0.9-0.1,1.6-0.5c0.5-0.4,1.2-1.1,1.4-2.1c0.1-1,0.3-2.3,0.4-3.6
													c0.6-5.4,1.5-13.1,2.6-22.5l0.1,0.2c-3.4-4.4-7.1-9.3-11.1-14.5l0.2,0.1c-3-0.4-6.1-0.7-9.4-1.1
													c-1.6-0.2-3.3-0.4-4.9-0.5c-0.8-0.1-1.7-0.3-2.5-0.3c-0.7,0-1.6,0.4-2,0.9c-0.4,0.4-0.6,0.9-0.7,1.5
													c-0.1,0.5-0.2,1.2-0.2,1.7c-0.2,1.2-0.3,2.3-0.5,3.5c-0.3,2.3-0.5,4.6-0.8,6.8c-0.5,4.5-1,8.7-1.6,12.8
													c-0.3,2-0.5,4-0.7,6c-0.1,1-0.3,1.9-0.4,2.8c-0.1,0.5-0.1,0.9-0.2,1.4c-0.1,0.5-0.2,0.9-0.1,1.4
													c0.1,0.8,0.5,1.6,1.2,2.1c0.4,0.3,0.7,0.5,1.1,0.5c0.4,0.1,0.8,0.1,1.3,0.2c1.6,0.2,3.3,0.4,4.9,0.6
													c6.1,0.7,11.2,1.4,14.7,1.8c1.6,0.2,3,0.4,3.9,0.5c0.5,0.1,0.7,0.1,1,0.2C476.8,130.9,476.9,130.9,476.9,130.9
													s-0.1,0-0.4,0s-0.6-0.1-1-0.1c-0.9-0.1-2.3-0.3-4-0.5c-3.5-0.4-8.5-0.9-14.7-1.6c-1.6-0.2-3.2-0.4-4.9-0.5
													c-0.5-0.1-0.8-0.1-1.3-0.2c-0.5-0.1-0.9-0.4-1.3-0.6c-0.7-0.5-1.3-1.5-1.4-2.5c0-0.5,0.1-1,0.1-1.5
													c0.1-0.5,0.1-0.9,0.2-1.4c0.1-0.9,0.2-1.9,0.4-2.8c0.2-1.9,0.5-3.9,0.7-6c0.5-4.1,1-8.3,1.6-12.8
													c0.3-2.2,0.5-4.5,0.8-6.8c0.1-1.2,0.3-2.3,0.5-3.5c0.1-0.5,0.1-1.2,0.2-1.7c0.1-0.6,0.5-1.2,0.8-1.7
													c0.6-0.7,1.6-1.1,2.5-1.2c0.9,0,1.7,0.2,2.6,0.3c1.6,0.2,3.3,0.4,4.9,0.5c3.2,0.4,6.4,0.7,9.4,1.1h0.1l0.1,0.1
													c3.9,5.2,7.7,10.2,11,14.6l0.1,0.1v0.1c-1.2,9.3-2.1,17-2.7,22.4c-0.2,1.4-0.3,2.6-0.5,3.6c-0.2,1.1-0.9,1.8-1.6,2.2
													s-1.2,0.5-1.6,0.5C477.1,131,476.9,130.9,476.9,130.9z"/>
											</g>
										</g>
									</g>
								</g>
							</g>
						</g>
					</g>
				</g>
				<g>
					<g>
						<g>
							<g>
								<g>
									<g>
										<path class="st2" d="M472.5,87.7l-1.2,10c-0.2,1.6,1,3.1,2.7,3.4l9.6,1.2L472.5,87.7z"/>
									</g>
								</g>
							</g>
						</g>
					</g>
				</g>
				<g>
					<g>
						<g>
							<g>
								<g>
									<g>
										<path class="st0" d="M471.3,98.7c0,0-0.5,2.4,2.3,3.6c0.1,0,0.2,0.1,0.3,0.1c1.2,0.4,9.3,2.8,9.3,2.7
											c0-0.2,0.3-2.7,0.3-2.7l-9.6-1.2C474,101.1,471.6,100.8,471.3,98.7z"/>
									</g>
								</g>
							</g>
						</g>
					</g>
				</g>
			</g>
			<g>
				<g>
					<g>
						<g>
							<g>
								<path class="st7" d="M469.2,97.1c0,0.1-2.7-0.1-6-0.5c-3.3-0.4-6-0.8-6-0.9s2.7,0.1,6,0.5C466.5,96.5,469.2,97,469.2,97.1z"
									/>
							</g>
						</g>
					</g>
				</g>
			</g>
			<g>
				<g>
					<g>
						<g>
							<g>
								<path class="st7" d="M476.3,103.7c0,0.1-4.4-0.3-9.8-0.9c-5.4-0.6-9.8-1.3-9.7-1.4c0-0.1,4.4,0.3,9.8,0.9
									C471.9,103,476.3,103.6,476.3,103.7z"/>
							</g>
						</g>
					</g>
				</g>
			</g>
			<g>
				<g>
					<g>
						<g>
							<g>
								<path class="st7" d="M477.5,108.6c0,0.1-4.8-0.4-10.7-1c-5.9-0.7-10.6-1.4-10.6-1.5s4.8,0.4,10.7,1
									C472.7,107.8,477.5,108.6,477.5,108.6z"/>
							</g>
						</g>
					</g>
				</g>
			</g>
			<g>
				<g>
					<g>
						<g>
							<g>
								<path class="st7" d="M476.9,113.1c0,0.1-4.8-0.4-10.7-1c-5.9-0.7-10.6-1.4-10.6-1.5s4.8,0.4,10.7,1
									C472.1,112.3,476.9,113,476.9,113.1z"/>
							</g>
						</g>
					</g>
				</g>
			</g>
			<g>
				<g>
					<g>
						<g>
							<g>
								<path class="st7" d="M476.4,117.5c0,0.1-4.8-0.4-10.7-1c-5.9-0.7-10.6-1.4-10.6-1.5s4.8,0.4,10.7,1
									C471.6,116.8,476.4,117.4,476.4,117.5z"/>
							</g>
						</g>
					</g>
				</g>
			</g>
			<g>
				<g>
					<g>
						<g>
							<g>
								<path class="st7" d="M475.8,122c0,0.1-4.8-0.4-10.7-1c-5.9-0.7-10.6-1.4-10.6-1.5s4.8,0.4,10.7,1
									C471.1,121.2,475.8,121.9,475.8,122z"/>
							</g>
						</g>
					</g>
				</g>
			</g>
		</g>
		<g>
			<g>
				<g>
					<path class="st7" d="M483.6,102.3c0,0.1-1.4,0-3.6-0.2c-1.2-0.1-2.5-0.3-3.9-0.4c-0.7-0.1-1.6-0.2-2.3-0.3
						c-0.8-0.1-1.7-0.5-2.3-1.3c-0.3-0.4-0.5-0.8-0.5-1.3c0-0.5,0.1-0.9,0.1-1.3c0.1-0.8,0.2-1.6,0.3-2.3c0.2-1.4,0.4-2.7,0.5-3.8
						c0.3-2.2,0.5-3.6,0.6-3.6c0.1,0,0,1.4-0.2,3.6c-0.1,1.2-0.3,2.5-0.4,3.9c-0.1,0.7-0.2,1.5-0.3,2.3s-0.2,1.6,0.3,2.2
						c0.9,1.3,2.7,1.1,4.2,1.4c1.4,0.2,2.7,0.4,3.8,0.5C482.2,102,483.6,102.2,483.6,102.3z"/>
				</g>
			</g>
		</g>
	</g>
	<g>
		<g>
			<g>
				<g>
					<g>
						<path class="st8" d="M328,44.4c3.5-1.5,6-5,6-9.3c0-5.5-4.2-10.1-9.3-10.1c-5.2,0-9.4,4.5-9.4,10c0,4.3,2.5,7.9,6,9.3
							c-14.5,2.2-13.8,18-13.8,18l34.3,0.2C341.6,62.4,342.4,46.6,328,44.4z"/>
					</g>
				</g>
			</g>
		</g>
	</g>
	<g>
		<g>
			<g>
				<circle class="st7" cx="434.7" cy="293.7" r="2.1"/>
			</g>
		</g>
		<g>
			<g>
				<g>
					<path class="st7" d="M434.7,293.7c0,0-0.3,0-0.7,0.1c-0.5,0-1.3,0-2.1,0.1c-1.9,0-4.6,0.1-7.9,0.1c-6.7,0-15.9,0.1-25.9,0.1
						c-2.7,0-5.5,0-8.1,0h-0.2l-0.1-0.2c-3.9-7.1-7.5-13.4-10.1-17.7c-1.3-2.2-2.4-3.8-3.2-5c-0.4-0.5-0.7-1-1-1.2
						c-0.1-0.1-0.3-0.2-0.4-0.2c-0.1,0-0.1,0-0.1,0s0-0.1,0.1-0.1c0.1,0,0.3,0.1,0.4,0.2c0.3,0.2,0.6,0.6,1.1,1.2
						c0.9,1.1,2,2.7,3.4,4.9c2.7,4.3,6.3,10.4,10.3,17.6l-0.3-0.2c2.6,0,5.3,0,8.1,0c10.1,0,19.2,0.1,25.9,0.1c3.3,0,6,0.1,7.9,0.1
						c0.9,0,1.6,0,2.1,0.1C434.5,293.7,434.7,293.7,434.7,293.7z"/>
				</g>
			</g>
		</g>
	</g>
	<g>
		<g>
			<g>
				<circle class="st7" cx="437.9" cy="115.2" r="2.1"/>
			</g>
		</g>
		<g>
			<g>
				<g>
					<path class="st7" d="M437.9,115.2c0,0-0.3,0-0.6,0.1c-0.5,0-1.2,0-2,0.1c-1.8,0-4.2,0.1-7.2,0.1c-6.2,0-14.6,0.1-23.9,0.1
						c-3.8,0-7.5,0-10.9,0l0.2-0.1c-4.5,4.9-8.3,9.1-11.1,12.2c-1.4,1.5-2.5,2.6-3.2,3.5c-0.4,0.4-0.6,0.6-0.9,0.9
						c-0.2,0.2-0.3,0.3-0.4,0.3c0,0,0.1-0.1,0.3-0.4s0.5-0.5,0.8-1c0.7-0.9,1.8-2.1,3.1-3.6c2.7-3.1,6.5-7.3,10.9-12.3l0.1-0.1h0.1
						c3.4,0,7.1,0,10.9,0c9.3,0,17.7,0.1,23.9,0.1c3,0,5.5,0.1,7.2,0.1c0.8,0,1.5,0,2,0.1C437.7,115.1,437.9,115.1,437.9,115.2z"/>
				</g>
			</g>
		</g>
	</g>
	<g>
		<g>
			<g>
				<path class="st7" d="M333.6,351.5c-1.4,1.1-3.5,0.9-4.6-0.5c-1.1-1.4-0.9-3.5,0.5-4.6c1.4-1.1,3.5-0.9,4.6,0.5
					C335.4,348.3,335.1,350.4,333.6,351.5z"/>
			</g>
		</g>
		<g>
			<g>
				<g>
					<path class="st7" d="M331.3,348.5c-0.2,0-1.9-14.3-3.8-32c-2-17.7-3.5-32.1-3.3-32.1s1.9,14.3,3.8,32
						C330,334.1,331.4,348.5,331.3,348.5z"/>
				</g>
			</g>
		</g>
	</g>
	<g>
		<g>
			<g>
				<circle class="st7" cx="324.7" cy="70.4" r="2.1"/>
			</g>
		</g>
		<g>
			<g>
				<g>
					<path class="st7" d="M324.5,70.4c0.2,0,0.3,7.3,0.3,16.5c0,9.1-0.1,16.5-0.3,16.5s-0.3-7.3-0.3-16.5
						C324.2,77.8,324.3,70.4,324.5,70.4z"/>
				</g>
			</g>
		</g>
	</g>
	<g>
		<g>
			<g>
				<circle class="st7" cx="461.2" cy="201.5" r="2.1"/>
			</g>
		</g>
		<g>
			<g>
				<g>
					<path class="st7" d="M460.5,201.5c0,0.2-9.8,0.3-21.9,0.3s-21.9-0.1-21.9-0.3c0-0.2,9.8-0.3,21.9-0.3
						C450.7,201.2,460.5,201.3,460.5,201.5z"/>
				</g>
			</g>
		</g>
	</g>
	<g>
		<g>
			<g>
				<path class="st7" d="M316.3,297.8c0,0-0.1,0-0.3,0s-0.5,0-0.8-0.1c-0.7-0.1-1.8-0.2-3.3-0.3c-1.5-0.1-3.1-0.4-5.2-0.6
					c-2-0.3-4.3-0.7-6.9-1.3c-5.1-1.2-11.2-2.9-17.8-5.7c-3.3-1.4-6.7-3-10.2-4.9c-3.5-1.9-7-4-10.4-6.7h0.3
					c-5.6,2.7-11.6,5.5-17.8,8.4l-0.5,0.3l0.1-0.5c0.3-1.5,0.5-3.1,0.7-4.8c0.9-6,1.8-11.9,2.7-17.6l0.1,0.3
					c-6.9-6.4-12.1-13.7-15.9-20.6s-6.1-13.7-7.7-19.2c-1.6-5.7-2.3-10.3-2.7-13.5c-0.2-1.6-0.3-2.8-0.3-3.7c0-0.4,0-0.7,0-0.9
					s0-0.4,0-0.4s0,0.1,0,0.4c0,0.3,0,0.5,0.1,0.9c0.1,0.8,0.2,2.1,0.4,3.7c0.5,3.2,1.2,7.8,2.8,13.4c1.6,5.6,4,12.2,7.8,19.2
					c3.8,6.9,9,14.1,15.9,20.4l0.1,0.1v0.2c-0.9,5.7-1.8,11.5-2.7,17.6c-0.3,1.6-0.5,3.2-0.7,4.8l-0.5-0.3
					c6.2-2.9,12.2-5.8,17.9-8.4l0.2-0.1l0.2,0.1c3.4,2.6,6.9,4.8,10.4,6.6c3.5,1.9,6.9,3.6,10.1,4.9c6.5,2.7,12.6,4.6,17.6,5.8
					c2.6,0.5,4.9,1.1,6.9,1.4c2,0.4,3.8,0.6,5.1,0.7c1.4,0.2,2.5,0.3,3.2,0.4c0.4,0,0.6,0.1,0.8,0.1S316.3,297.8,316.3,297.8z"/>
			</g>
		</g>
	</g>
	<g>
		<g>
			<g>
				<g>
					<path class="st8" d="M336.9,138.2c-10.8-1.9-21.9-1.6-32.5,1.3c-0.9,0.3-0.5,1.6,0.4,1.4c10.4-2.7,21.3-3.2,31.8-1.3
						C337.5,139.7,337.9,138.3,336.9,138.2L336.9,138.2z"/>
				</g>
			</g>
		</g>
		<g>
			<g>
				<g>
					<path class="st8" d="M346.2,145.5c-16.3-5.9-34.6-5.1-50.5,1.9c-0.8,0.4-0.1,1.6,0.7,1.2c15.5-6.9,33.5-7.5,49.4-1.7
						C346.7,147.2,347,145.9,346.2,145.5L346.2,145.5z"/>
				</g>
			</g>
		</g>
		<g>
			<g>
				<g>
					<path class="st8" d="M352.6,152.4c-15.3-5.5-32.8-8.2-48.7-3.3c-5,1.6-9.8,3.9-14.2,7c-0.7,0.5,0,1.7,0.7,1.2
						c14.6-10.4,33.2-11,50.1-7.1c3.9,0.9,7.9,2.1,11.7,3.5C353.1,154,353.5,152.6,352.6,152.4L352.6,152.4z"/>
				</g>
			</g>
		</g>
		<g>
			<g>
				<g>
					<path class="st8" d="M357.7,160c-16.7-9.3-37.1-11.7-55.2-4.9c-6,2.2-11.5,5.3-16.5,9.2c-0.7,0.5,0,1.7,0.7,1.2
						c8.4-6.4,18.1-10.7,28.6-12.3c9.3-1.4,19.1-0.5,28.1,2.3c4.7,1.5,9.3,3.4,13.6,5.8C357.7,161.6,358.4,160.4,357.7,160
						L357.7,160z"/>
				</g>
			</g>
		</g>
		<g>
			<g>
				<g>
					<path class="st8" d="M361.3,168.1c-17.2-13.9-41.2-16.2-61-6.8c-6.4,3-12.3,7.1-17.4,12c-0.6,0.6,0.4,1.6,1,1
						c8.6-8.1,19.2-14,30.8-16.3c10.3-2,21-1.2,30.8,2.6c5.3,2,10.4,4.9,14.8,8.5C361,169.7,362.1,168.7,361.3,168.1L361.3,168.1z"
						/>
				</g>
			</g>
		</g>
		<g>
			<g>
				<g>
					<path class="st8" d="M326.3,160c-8.4-0.3-16.9,1.4-24.5,5c-8.3,3.9-15.4,10.1-21,17.4c-0.5,0.7,0.6,1.5,1.2,0.7
						c10.5-13.8,26.7-22.4,44.2-21.7C327.2,161.3,327.2,160,326.3,160L326.3,160z"/>
				</g>
			</g>
		</g>
		<g>
			<g>
				<g>
					<path class="st8" d="M364.1,177.7c-6.1-6.6-13.7-11.6-22.3-14.8c-0.8-0.3-1.2,1.1-0.4,1.4c8.2,2.9,15.7,7.9,21.6,14.4
						C363.7,179.3,364.7,178.3,364.1,177.7L364.1,177.7z"/>
				</g>
			</g>
		</g>
		<g>
			<g>
				<g>
					<path class="st8" d="M365.7,188.1c-7.2-11.5-18.8-20.1-32.2-22.7c-12.9-2.6-26.4,0.6-36.8,8.5c-6.7,5-12,11.7-15.9,19.2
						c-0.5,0.8,0.8,1.6,1.2,0.7c6.3-12.4,16.9-22.5,30.4-26.3c12.1-3.4,25.2-1.5,35.9,5.1c6.6,4,12,9.6,16.1,16.1
						C365,189.6,366.3,188.9,365.7,188.1L365.7,188.1z"/>
				</g>
			</g>
		</g>
		<g>
			<g>
				<g>
					<path class="st8" d="M366.4,201.4c-3.9-14.7-15-26.6-29.8-30.6c-14.3-3.9-29.9,0.1-40.7,10.2c-7.5,7.1-12.4,16.5-15.1,26.3
						c-0.3,0.9,1.1,1.3,1.4,0.4c4.4-15.9,14.8-30.3,31.2-35.3c13.4-4,28.3-0.9,38.9,8.2c6.3,5.6,10.7,13,12.8,21.1
						C365.3,202.7,366.6,202.3,366.4,201.4L366.4,201.4z"/>
				</g>
			</g>
		</g>
		<g>
			<g>
				<g>
					<path class="st8" d="M285.5,216.7c0.5-10.4,3.6-21.1,10.7-29.1c5.7-6.3,13.6-10.4,22-11.5c8.2-1.1,16.7,0.3,23.9,4.1
						c7.5,3.8,13.6,10.3,16.8,18.1c3.5,8.6,2.7,17.8,1.3,26.8c-0.3,1.5-0.4,2.8-0.1,4.3c0.2,0.9,1.5,0.5,1.4-0.4
						c-0.4-2,0.2-3.9,0.5-6s0.5-4,0.7-6c0.3-3,0.4-6,0.1-9.1c-0.2-2.7-0.8-5.3-1.6-7.9c-2.7-8.3-8.5-15.4-16-20
						c-7.2-4.4-15.9-6.4-24.4-5.8c-8.7,0.6-17,4.1-23.4,10.1c-7.6,7.1-11.5,17.2-12.7,27.4c-0.2,1.6-0.3,3.1-0.4,4.8
						C284.1,217.6,285.5,217.6,285.5,216.7L285.5,216.7z"/>
				</g>
			</g>
		</g>
		<g>
			<g>
				<g>
					<path class="st8" d="M357.4,235.9c-0.5-2.2-1.2-4.6-1-6.8c0.1-1.5,0.3-2.8,0.5-4.3c0.3-2.7,0.5-5.4,0.8-8.2
						c0.2-1.9,0.5-3.9,0.4-6c0-0.9-1.5-0.9-1.4,0c0.1,2-0.2,4-0.4,6c-0.3,2.7-0.5,5.6-0.8,8.3c-0.2,1.4-0.4,2.8-0.5,4.2
						c-0.1,2.3,0.5,4.8,1.1,7C356.2,237.1,357.6,236.7,357.4,235.9L357.4,235.9z"/>
				</g>
			</g>
		</g>
		<g>
			<g>
				<g>
					<path class="st8" d="M290.8,219.9c0.3-14.8,5.7-30.6,19.9-37.4c10.7-5.1,24-3.7,33.4,3.6c5.6,4.3,9.4,10.5,11.1,17.4
						c0.2,0.9,1.6,0.5,1.4-0.4c-3.1-12.6-13.4-22.3-26.2-24.6c-12.9-2.3-25.8,3.2-33.3,14c-5.5,8-7.5,17.8-7.7,27.4
						C289.4,220.8,290.8,220.8,290.8,219.9L290.8,219.9z"/>
				</g>
			</g>
		</g>
		<g>
			<g>
				<g>
					<path class="st8" d="M295.2,241.1c0.9,0,0.9-1.4,0-1.4C294.3,239.6,294.3,241.1,295.2,241.1L295.2,241.1z"/>
				</g>
			</g>
		</g>
		<g>
			<g>
				<g>
					<path class="st8" d="M353.8,239.6c-3.5-11.8,1-24.3-1.5-36.2c-1.1-5.2-3.7-10-7.7-13.5c-3.9-3.4-8.8-5.4-13.9-6.3
						c-8-1.5-16.6-0.4-23.3,4.4c-6.1,4.5-9.6,11.1-11.8,18.2c-3.4,11.1-3.3,23-1.1,34.4c0.2,0.9,1.6,0.5,1.4-0.4
						c-1.9-10.1-2.2-20.5,0.3-30.5c1.6-6.7,4.3-13.6,9.4-18.4c5.7-5.3,13-7.3,20.7-6.9c10.8,0.6,21.2,6.6,24.1,17.5
						c3.4,12.5-1.8,25.6,1.9,38C352.7,240.8,354,240.4,353.8,239.6L353.8,239.6z"/>
				</g>
			</g>
		</g>
		<g>
			<g>
				<g>
					<path class="st8" d="M299.1,211.1c-1.5,11.6-0.5,23.6,0.7,35.2c0.1,0.9,1.5,0.9,1.4,0c-1.2-11.6-2.2-23.6-0.7-35.2
						C300.5,210.3,299.2,210.3,299.1,211.1L299.1,211.1z"/>
				</g>
			</g>
		</g>
		<g>
			<g>
				<g>
					<path class="st8" d="M350.6,243.5c-4.9-4.8-4.9-12.3-3.8-18.6c1.2-6.8,3-13.6,1-20.3c-3.4-11.2-14.5-18.7-26.1-17.2
						c-6.2,0.8-12,3.8-15.8,8.9c-0.5,0.7,0.6,1.5,1.2,0.7c7.1-9.3,21.4-11,30.7-4.2c4.5,3.3,7.9,8.2,9.1,13.7c1.6,7.1-0.9,14-1.8,21
						c-0.7,6,0,12.7,4.6,17.1C350.2,245,351.2,244,350.6,243.5L350.6,243.5z"/>
				</g>
			</g>
		</g>
		<g>
			<g>
				<g>
					<path class="st8" d="M346.2,245.4c-4.5-4.5-5.1-11.1-4.4-17c0.4-3.5,1.1-7,1.6-10.4c0.5-3.1,1.1-6.2,0.9-9.4
						c-0.7-10.3-10.8-17-20.5-17c-8.6,0-15.2,6.5-18.6,13.8c-0.9,2.1-1.4,4.4-1.7,6.7c-0.7,5.2-0.5,10.6,0,15.9
						c0.6,7.5,1.4,15.1,1.9,22.6c0.1,0.9,1.5,0.9,1.4,0c-0.4-5.4-0.8-10.8-1.3-16.1c-0.7-8.7-2.4-18.3,0.4-26.9
						c2.1-6.6,7.7-12.7,14.6-14.2c9.7-2.2,21.7,4.9,22.5,15.3c0.3,3.7-0.5,7.3-1.1,10.9c-0.5,3.5-1.3,7-1.6,10.5
						c-0.5,5.9,0.6,12.2,4.9,16.5C345.8,247,346.8,246,346.2,245.4L346.2,245.4z"/>
				</g>
			</g>
		</g>
		<g>
			<g>
				<g>
					<path class="st8" d="M343.3,249.5c-6.7-7.9-6.7-18.3-4.9-28c1-5.1,3.1-10.7,1.5-15.9c-1.3-3.8-4.5-6.8-8.2-8.2
						c-7.5-3.1-17.3-0.2-21.3,7.1c-1.9,3.7-2.6,8-2.8,12.1c-0.3,3.5-0.3,7-0.1,10.4c0.4,9,1.3,18.7,5,27c0.4,0.8,1.6,0.1,1.2-0.7
						c-3.3-7.2-4.2-15.7-4.7-23.6c-0.5-7.1-0.7-14.7,1.4-21.4c2.5-8.2,11.5-12.6,19.7-10c4.2,1.4,7.8,4.7,8.7,9.1
						c1,5.2-1.3,10.6-2.1,15.8c-1.6,9.6-1.1,19.6,5.5,27.4C342.8,251.2,343.8,250.2,343.3,249.5L343.3,249.5z"/>
				</g>
			</g>
		</g>
		<g>
			<g>
				<g>
					<path class="st8" d="M339.6,252.8c-2.6-5.1-5.1-10.4-6.5-15.9c-0.7-2.7-1.2-5.7-1.1-8.5c0.1-2.9,0.8-5.7,1.6-8.5
						c1.2-4.4,2.4-9.1,0.3-13.5c-1.8-3.9-6.1-5.6-10.3-4.9c-5.1,0.9-8.5,5.2-10.1,9.9c-0.3,0.8,1.1,1.2,1.4,0.4
						c1.4-4.2,4.5-8.2,9.1-9c4.8-0.8,8.7,2.1,9.4,6.9c0.8,4.9-1.6,9.6-2.4,14.3c-0.9,4.7-0.4,9.3,0.9,13.9c1.5,5.4,4,10.4,6.5,15.5
						C338.9,254.4,340.1,253.6,339.6,252.8L339.6,252.8z"/>
				</g>
			</g>
		</g>
		<g>
			<g>
				<g>
					<path class="st8" d="M317.1,235.2c1.1,8.1,4.7,15.4,7.8,22.9c0.4,0.8,1.7,0.5,1.4-0.4c-3-7.3-6.7-14.6-7.7-22.5
						C318.5,234.4,317,234.3,317.1,235.2L317.1,235.2z"/>
				</g>
			</g>
		</g>
		<g>
			<g>
				<g>
					<path class="st8" d="M334.6,254.6c-4.5-7.4-7.1-15.9-7.4-24.5c-0.2-4.3,0.2-8.6,1.1-12.8c0.7-3.3,2.1-7.9-1.4-10.2
						c-3.5-2.4-6.8,1.3-8.1,4.3c-0.4,0.8,0.8,1.6,1.2,0.7c0.8-1.8,2.3-4.4,4.7-4.3c3.4,0.2,3.3,4.5,2.7,6.9c-1,4.7-1.8,9.3-1.7,14
						c0.1,9.3,2.8,18.6,7.7,26.7C333.9,256,335.1,255.4,334.6,254.6L334.6,254.6z"/>
				</g>
			</g>
		</g>
		<g>
			<g>
				<g>
					<path class="st8" d="M330.9,255.5c-7.7-12.7-9.2-28-6.6-42.4c0.2-0.9-1.2-1.3-1.4-0.4c-2.7,14.8-1.2,30.4,6.7,43.4
						C330.1,256.9,331.3,256.3,330.9,255.5L330.9,255.5z"/>
				</g>
			</g>
		</g>
		<g>
			<g>
				<path class="st8" d="M319,256.1c-7.9-16.3-6.4-38.9-6.4-39l1.1,0.1c0,0.2-1.5,22.5,6.3,38.5L319,256.1z"/>
			</g>
		</g>
		<g>
			<g>
				<g>
					<path class="st8" d="M318.1,213.9c-1.8,5.6-2.4,11.5-1.6,17.4c0.1,0.9,1.5,0.5,1.4-0.4c-0.7-5.6-0.2-11.3,1.6-16.7
						C319.7,213.3,318.3,213,318.1,213.9L318.1,213.9z"/>
				</g>
			</g>
		</g>
		<g>
			<g>
				<g>
					<path class="st8" d="M313,213.5c0,0.3-0.1,0.5-0.1,0.7c0,0.1,0,0.2,0,0.3c0,0.1,0,0.2,0.1,0.3c0,0.1,0.1,0.2,0.2,0.2
						c0.1,0.1,0.2,0.1,0.3,0.1c0.1,0,0.1,0,0.2,0c0.1,0,0.3,0,0.4-0.1c0.1,0,0.1-0.1,0.2-0.1c0.1-0.1,0.2-0.2,0.2-0.3
						c0-0.3,0.1-0.5,0.1-0.7c0-0.1,0-0.2,0-0.3c0-0.1,0-0.2-0.1-0.3c0-0.1-0.1-0.2-0.2-0.2c-0.1-0.1-0.2-0.1-0.3-0.1
						c-0.1,0-0.1,0-0.2,0c-0.1,0-0.3,0-0.4,0.1c-0.1,0-0.1,0.1-0.2,0.1C313.1,213.2,313.1,213.3,313,213.5L313,213.5z"/>
				</g>
			</g>
		</g>
		<g>
			<g>
				<g>
					<path class="st8" d="M304,198.1c-2,2.3-3.6,5-4.5,8c-0.3,0.8,1.1,1.3,1.4,0.4c0.8-2.7,2.3-5.2,4.1-7.4
						C305.6,198.5,304.6,197.5,304,198.1L304,198.1z"/>
				</g>
			</g>
		</g>
		<g>
			<g>
				<g>
					<path class="st8" d="M356.6,206.2c0,0.4,0.1,0.7,0.1,1.1c0,0.1,0,0.2,0.1,0.3c0,0.1,0.1,0.2,0.2,0.2c0.1,0.1,0.4,0.2,0.5,0.2
						c0.2,0,0.4-0.1,0.5-0.2c0.1-0.1,0.2-0.3,0.2-0.5c0-0.4-0.1-0.7-0.1-1.1c0-0.1,0-0.2-0.1-0.3c0-0.1-0.1-0.2-0.2-0.2
						c-0.1-0.1-0.4-0.2-0.5-0.2c-0.2,0-0.4,0.1-0.5,0.2C356.7,205.8,356.6,206.1,356.6,206.2L356.6,206.2z"/>
				</g>
			</g>
		</g>
		<g>
			<g>
				<g>
					<path class="st8" d="M339,162c-3.1-1-6.3-1.5-9.5-1.8c-0.4,0-0.7,0.4-0.7,0.7c0,0.5,0.4,0.6,0.7,0.7c3.1,0.4,6.2,0.8,9.2,1.8
						C339.5,163.6,339.9,162.4,339,162L339,162z"/>
				</g>
			</g>
		</g>
		<g>
			<g>
				<g>
					<path class="st8" d="M289.1,225.4c0,2.3,0.2,4.6,0.5,6.9c0.1,0.4,0.5,0.5,0.8,0.5c0.4-0.1,0.5-0.5,0.5-0.8
						c-0.3-2.1-0.5-4.3-0.5-6.5C290.5,224.5,289.1,224.5,289.1,225.4L289.1,225.4z"/>
				</g>
			</g>
		</g>
		<g>
			<g>
				<g>
					<path class="st8" d="M283.7,221.1c0,0.5-0.1,0.9-0.1,1.4c0,0.2,0.1,0.4,0.2,0.5c0.1,0.1,0.4,0.2,0.5,0.2c0.2,0,0.4-0.1,0.5-0.2
						c0.1-0.2,0.2-0.3,0.2-0.5c0-0.5,0.1-0.9,0.1-1.4c0-0.2-0.1-0.4-0.2-0.5c-0.1-0.1-0.4-0.2-0.5-0.2c-0.2,0-0.4,0.1-0.5,0.2
						C283.8,220.7,283.7,220.9,283.7,221.1L283.7,221.1z"/>
				</g>
			</g>
		</g>
		<g>
			<g>
				<g>
					<path class="st8" d="M297.5,142.8c1.1-0.5,2.2-1,3.3-1.5c0.4-0.2,0.5-0.6,0.3-1c-0.2-0.4-0.6-0.5-1-0.3c-1.1,0.5-2.2,1-3.3,1.5
						c-0.4,0.2-0.5,0.6-0.3,1C296.8,142.9,297.2,143,297.5,142.8L297.5,142.8z"/>
				</g>
			</g>
		</g>
		<g>
			<g>
				<g>
					<path class="st8" d="M365.4,204.7c0.7,2.6,1,5.1,0.8,7.8c-0.1,0.9,1.4,0.9,1.4,0c0.2-2.7-0.2-5.5-0.9-8.2
						C366.5,203.4,365.3,203.8,365.4,204.7L365.4,204.7z"/>
				</g>
			</g>
		</g>
		<g>
			<g>
				<g>
					<path class="st8" d="M366.6,191.2c0.2,0.7,0.5,1.6,0.6,2.3c0.1,0.4,0.5,0.6,0.8,0.5c0.4-0.1,0.6-0.5,0.5-0.8
						c-0.2-0.7-0.5-1.6-0.6-2.3c-0.1-0.4-0.5-0.6-0.8-0.5C366.8,190.5,366.5,190.9,366.6,191.2L366.6,191.2z"/>
				</g>
			</g>
		</g>
	</g>
	<g>
		<g>
			<g>
				<path class="st7" d="M406.6,194.4c0,0,0-0.5-0.1-1.3c-0.1-0.9,0-2.2-0.2-3.8c-0.2-3.4-0.8-8.4-2.4-14.8
					c-0.8-3.1-1.8-6.6-3.4-10.3c-1.5-3.7-3.3-7.6-5.7-11.5c-4.8-7.9-11.5-16.1-20.8-23.2c-4.6-3.6-9.8-6.7-15.6-9.3
					c-5.8-2.7-12.1-4.7-18.8-6c-6.7-1.2-13.8-1.7-21.1-1.2c-3.7,0.2-7.2,0.8-10.9,1.6c-3.7,0.8-7.3,1.8-10.9,3.1
					c-14.4,5.2-28,14.9-37.9,28.4c-2.5,3.3-4.7,7-6.7,10.7c-1,1.8-1.8,3.8-2.7,5.8c-0.8,2-1.6,3.9-2.3,6c-2.7,8.2-4.1,16.9-4.2,25.8
					c0.1,8.8,1.4,17.6,4.1,25.8c0.6,2,1.5,4,2.3,6c0.9,1.9,1.7,3.9,2.7,5.8c2,3.8,4.1,7.3,6.7,10.7c9.9,13.5,23.6,23.3,37.9,28.4
					c3.6,1.3,7.2,2.3,10.9,3.1c3.7,0.7,7.3,1.3,10.9,1.6c7.2,0.5,14.3,0.1,21.1-1.2c6.7-1.2,13-3.3,18.8-6c5.8-2.7,11-5.8,15.6-9.3
					c9.3-7.1,16-15.3,20.8-23.2c2.4-3.9,4.2-7.9,5.7-11.5c1.5-3.7,2.6-7.1,3.4-10.3c1.6-6.3,2.1-11.4,2.4-14.8
					c0.2-1.7,0.1-3,0.2-3.8C406.5,194.9,406.6,194.4,406.6,194.4s0,1.8-0.1,5.2c-0.2,3.4-0.7,8.4-2.2,14.8
					c-0.8,3.1-1.8,6.6-3.3,10.4c-1.5,3.7-3.3,7.6-5.7,11.5c-4.8,8-11.5,16.2-20.8,23.4c-4.6,3.6-9.9,6.8-15.7,9.4
					c-5.8,2.7-12.1,4.8-18.9,6c-6.8,1.3-13.8,1.7-21.2,1.2c-3.7-0.2-7.3-0.8-11-1.6c-3.7-0.8-7.3-1.8-11-3.1
					c-14.5-5.2-28.3-15-38.2-28.6c-2.5-3.4-4.7-7-6.7-10.8c-1-1.9-1.8-3.8-2.7-5.8c-0.8-2-1.6-4-2.3-6c-2.7-8.2-4.1-17-4.2-25.9
					c0.1-8.9,1.5-17.7,4.2-25.9c0.6-2.1,1.5-4,2.3-6c0.9-1.9,1.7-3.9,2.7-5.8c2-3.8,4.2-7.4,6.7-10.8c9.9-13.6,23.7-23.4,38.2-28.6
					c3.7-1.3,7.3-2.4,11-3.1s7.3-1.3,11-1.6c7.3-0.5,14.4-0.1,21.2,1.2c6.8,1.2,13.1,3.4,18.9,6c5.8,2.7,11.1,5.9,15.7,9.4
					c9.3,7.1,16,15.4,20.8,23.4c2.4,3.9,4.2,7.9,5.7,11.5c1.5,3.7,2.5,7.1,3.3,10.4c1.6,6.3,2.1,11.4,2.2,14.8
					C406.6,192.6,406.6,194.4,406.6,194.4z"/>
			</g>
		</g>
	</g>
	<g>
		<g>
			<path class="st7" d="M324.7,285c-50.5,0-91.7-41.2-91.7-91.7s41.2-91.7,91.7-91.7c0.9,0,1.6,0.7,1.6,1.6c0,0.9-0.7,1.6-1.6,1.6
				c-48.7,0-88.3,39.6-88.3,88.3s39.6,88.3,88.3,88.3s88.3-39.6,88.3-88.3c0-0.9,0.7-1.6,1.6-1.6s1.6,0.7,1.6,1.6
				C416.4,243.8,375.3,285,324.7,285z"/>
		</g>
	</g>
</g>
</svg>
