<?xml version="1.0" encoding="UTF-8"?>
<svg id="Layer_1" data-name="Layer 1" xmlns="http://www.w3.org/2000/svg" version="1.1" viewBox="0 0 550 550">
  <defs>
    <style>
      .cls-1 {
        fill: #f1511b;
      }

      .cls-1, .cls-2, .cls-3, .cls-4, .cls-5 {
        stroke-width: 0px;
      }

      .cls-2 {
        fill: #80cc28;
      }

      .cls-3 {
        fill: #00adef;
      }

      .cls-4 {
        fill: #fbbc09;
      }

      .cls-5 {
        fill: #706d6e;
      }
    </style>
  </defs>
  <path class="cls-5" d="M500,270.5v-7.9h-9.9v-12.3h-.4c0,0-9.2,2.9-9.2,2.9h-.2v9.4h-14.6v-5.2c0-2.5.5-4.3,1.6-5.5s2.5-1.8,4.5-1.8,2.8.4,4.3,1l.4.2v-8.3h-.2c-1.3-.6-3.2-.8-5.4-.8s-5.4.6-7.7,1.8-4.1,3-5.3,5.3c-1.2,2.3-1.8,4.8-1.8,7.7v5.7h-6.9v7.9h6.9v33.3h9.9v-33.3h14.6v21.2c0,8.7,4.1,13.2,12.2,13.2s2.7-.2,4.1-.5c1.5-.4,2.5-.6,3.1-1h0v-8.1l-.4.3c-.5.4-1.2.6-1.9.9-.8.3-1.4.4-1.9.4-1.9,0-3.3-.5-4.2-1.5-.9-1.1-1.3-2.8-1.3-5.3v-19.5h9.9ZM427.2,296.8c-3.6,0-6.4-1.1-8.3-3.5-2-2.4-3-5.7-3-9.9s1-7.8,3-10.2,4.7-3.6,8.3-3.6,6.1,1.1,8.1,3.4,2.9,5.7,2.9,10.1-1,7.9-2.7,10.2c-1.8,2.4-4.6,3.5-8.2,3.5ZM427.7,261.6c-6.8,0-12.2,2-16.1,5.9-3.9,4-5.8,9.4-5.8,16.2s1.9,11.7,5.6,15.5c3.8,3.8,8.9,5.7,15.2,5.7s11.9-2,15.7-6,5.8-9.4,5.8-16-1.8-11.8-5.4-15.5c-3.5-3.9-8.6-5.7-15-5.7ZM390,261.6c-4.7,0-8.4,1.1-11.3,3.5s-4.4,5.4-4.4,9.1.4,3.7,1,5.1c.6,1.5,1.6,2.7,2.9,3.9,1.3,1.1,3.3,2.2,6,3.3,2.2.9,3.9,1.7,4.9,2.3s1.8,1.2,2.2,1.8c.4.6.6,1.4.6,2.4,0,2.8-2.1,4.1-6.3,4.1s-3.4-.4-5.4-1c-2-.6-3.9-1.6-5.5-2.8l-.4-.3v9.5h.2c1.4.7,3.2,1.2,5.2,1.7s4,.6,5.5.6c5,0,9-1.2,12-3.5,3-2.4,4.5-5.5,4.5-9.4s-.8-5.2-2.4-7.1-4.3-3.7-8.2-5.2c-3.1-1.2-5-2.3-5.8-3-.8-.8-1.1-1.8-1.1-3.2s.5-2.2,1.5-2.9c1-.8,2.4-1.1,4.2-1.1s3.3.3,5,.8,3.2,1.1,4.3,2l.4.3v-9h-.2c-1.1-.5-2.6-1-4.4-1.3-2-.4-3.6-.6-5-.6ZM348.6,296.8c-3.6,0-6.4-1.1-8.3-3.5-2-2.4-3-5.7-3-9.9s1-7.8,3-10.2,4.7-3.6,8.3-3.6,6.1,1.1,8.1,3.4,2.9,5.7,2.9,10.1-1,7.9-2.8,10.2c-1.8,2.4-4.5,3.5-8.1,3.5ZM349,261.6c-6.8,0-12.2,2-16.1,5.9-3.9,4-5.8,9.4-5.8,16.2s1.9,11.7,5.6,15.5c3.8,3.8,8.9,5.7,15.2,5.7s11.9-2,15.7-6,5.8-9.4,5.8-16-1.8-11.8-5.4-15.5c-3.5-3.9-8.6-5.7-15-5.7ZM312.3,269.7v-7.1h-9.7v41.2h9.7v-21.1c0-3.6.8-6.5,2.5-8.8,1.6-2.2,3.7-3.3,6.2-3.3s1.8.2,2.9.5,1.8.6,2.3.9l.4.3v-9.8h-.2c-.9-.5-2.2-.7-3.8-.7-2.5,0-4.7.8-6.5,2.3-1.7,1.3-2.8,3.3-3.7,5.5h-.2v.2h0ZM285.2,261.6c-4.5,0-8.4,1-11.8,2.8-3.4,1.8-6,4.6-7.8,8-1.8,3.4-2.6,7.4-2.6,11.9s.9,7.5,2.6,10.6,4.1,5.6,7.3,7.4c3.1,1.7,6.7,2.5,10.6,2.5s8.5-.9,11.7-2.7h0v-9l-.4.3c-1.4,1.1-3,1.8-4.7,2.5s-3.3.9-4.7.9c-3.8,0-6.9-1.2-9-3.5-2.2-2.4-3.3-5.6-3.3-9.9s1.1-7.6,3.5-10.1c2.3-2.5,5.4-3.8,9.1-3.8s6.3,1.1,9.2,3.3l.4.3v-9.4h0c-1.1-.7-2.6-1.2-4.5-1.6-2.1-.2-4-.4-5.6-.4ZM256.2,262.6h-9.7v41.2h9.7v-41.2ZM251.4,245c-1.6,0-3,.5-4.1,1.6s-1.8,2.5-1.8,4,.6,2.9,1.8,4,2.5,1.6,4.1,1.6,3-.5,4.1-1.6,1.8-2.4,1.8-4-.5-2.9-1.7-4c-1.1-1.1-2.6-1.6-4.2-1.6ZM227.3,259.5v44.3h9.9v-57.6h-13.7l-17.4,42.7-16.9-42.7h-14.2v57.6h9.3v-44.3h.4l17.8,44.3h7l17.6-44.3h.2Z"/>
  <rect class="cls-1" x="50" y="227" width="45.6" height="45.6"/>
  <rect class="cls-2" x="100.4" y="227" width="45.6" height="45.6"/>
  <rect class="cls-3" x="50" y="277.4" width="45.6" height="45.6"/>
  <rect class="cls-4" x="100.4" y="277.4" width="45.6" height="45.6"/>
</svg>