<?xml version="1.0" encoding="UTF-8"?>
<svg id="Layer_1" data-name="Layer 1" xmlns="http://www.w3.org/2000/svg" version="1.1" viewBox="0 0 550 550">
  <defs>
    <style>
      .cls-1 {
        fill: #000;
      }

      .cls-1, .cls-2, .cls-3 {
        stroke-width: 0px;
      }

      .cls-2 {
        fill: #f05138;
      }

      .cls-3 {
        fill: #fff;
      }
    </style>
  </defs>
  <path class="cls-2" d="M179.7,245.7v-3.9c0-2.9-.2-5.7-.7-8.6s-1.3-5.5-2.6-8.1-3.1-4.8-5-7c-2.1-2-4.4-3.7-7-5-2.6-1.3-5.3-2.2-8.1-2.6s-5.7-.7-8.6-.7h-68c-2.2,0-4.4.2-6.4.7-2.2.4-4.2.9-6.1,1.8-.7.2-1.3.7-2,.9-2,.9-3.7,2.2-5.3,3.5-.4.4-1.1.9-1.5,1.5-2,2.1-3.7,4.4-5,7-1.3,2.6-2.2,5.3-2.6,8.1s-.7,5.7-.7,8.6v66c0,2.9.2,5.7.7,8.6s1.3,5.5,2.6,8.1,3.1,4.8,5,7c2.1,2,4.4,3.7,7,5,2.6,1.3,5.3,2.2,8.1,2.6s5.7.7,8.6.7h65.8c2.9,0,5.7-.2,8.6-.7s5.5-1.3,8.1-2.6,4.8-3.1,7-5c2-2.1,3.7-4.4,5-7,1.3-2.6,2.2-5.3,2.6-8.1s.7-5.7.7-8.6v-57.3c-.2-1.8-.2-3.3-.2-4.8Z"/>
  <path class="cls-3" d="M152.7,290c.2-.4.2-1.1.4-1.5,5.5-21.5-7.9-47-30.1-60.3,9.9,13.2,14,29.4,10.3,43.4-.4,1.3-.7,2.4-1.3,3.7-.4-.2-1.1-.7-2-1.1,0,0-22.2-13.8-46.3-38-.7-.7,12.9,19.3,28.1,35.3-7.2-3.9-27.2-18.6-39.9-30.3,1.5,2.6,3.5,5,5.5,7.5,10.5,13.4,24.4,30.1,41,42.8-11.6,7-28.1,7.7-44.5,0-3.9-2-7.9-4.2-11.4-6.8,7,11.2,17.6,20.6,30.7,26.3,15.6,6.6,30.9,6.1,42.3.2h.2c.4-.2.9-.4,1.3-.9,5.5-2.9,16.5-5.7,22.4,5.7,1.3,2.4,4.4-12.5-6.8-26.1h0Z"/>
  <path class="cls-1" d="M223.1,327.1c2.9,2,6.1,3.5,9.9,4.8,3.7,1.1,7.7,1.8,11.8,1.8,7.5,0,13.4-2,17.8-5.7,4.2-3.9,6.4-9,6.4-15.4s-1.5-10.3-4.6-14c-3.1-3.5-8.3-6.8-15.6-9.9-7.9-2.9-14-6.4-18.6-10.8s-7-10.1-7-17.1.7-7.2,2.2-10.3,3.5-5.9,5.9-8.1,5.7-3.9,9.2-5.3,7.5-2,11.6-2,9,.4,12.3,1.5,5.9,2,7.5,3.1l-2.6,5.9c-1.3-1.1-3.7-2-6.6-3.1-3.1-1.1-6.6-1.5-10.8-1.5s-7.5.7-10.1,1.8c-2.9,1.1-5,2.6-6.6,4.4-1.8,1.8-2.9,3.7-3.5,5.9s-1.1,4.2-1.1,6.4c0,5.7,1.8,10.1,5,13.4s8.6,6.4,15.8,9.2c4.2,1.8,7.7,3.5,11,5.5,3.1,2,5.7,3.9,7.9,6.4s3.7,4.8,4.8,7.9c1.1,2.9,1.5,6.1,1.5,9.9s-.7,7.2-2,10.5-3.3,6.4-5.9,9-5.9,4.6-9.9,6.1-8.6,2.2-13.8,2.2-4.4-.2-6.6-.4l-6.6-1.5c-2.2-.7-4.2-1.3-5.9-2.2l-4.8-2.6,2-5.7h0ZM289.2,265.9l11.8,41,3.3,11.8,2.6,10.8h.4l3.1-10.8,3.9-12.1,14.3-41h6.6l13.6,40.6,3.9,12.3c1.3,3.7,2.2,7.5,3.1,10.8h.4c.7-3.5,1.5-7,2.6-10.8l3.7-12.3,12.7-40.8h7.2l-23.7,72.4h-6.1l-13.4-40.4-4.2-12.3c-1.3-3.9-2.2-7.9-3.1-12.1h-.2l-3.5,12.5-4.2,12.3-14.3,40.2h-6.1l-21.9-72.4s7.2.2,7.2.2ZM394.9,244c0-1.8.7-3.1,1.8-4.4s2.6-1.8,4.4-1.8,3.1.7,4.4,1.8c1.1,1.1,1.8,2.6,1.8,4.4s-.7,3.1-1.8,4.4c-1.3,1.1-2.6,1.8-4.4,1.8s-3.1-.7-4.4-1.8c-1.1-1.3-1.8-2.6-1.8-4.4ZM397.5,338.3v-72.4h7v72.4h-7ZM433.5,338.3v-66.7h-10.3v-5.5h10.3v-4.2c0-4.6.4-8.8,1.1-12.7.9-3.9,2.2-7.2,3.9-10.1,1.8-2.9,4.4-5,7.2-6.8,3.1-1.8,6.8-2.4,11.2-2.4s4.4.2,6.1.7,3.3,1.1,4.4,1.8l-2.2,5.5-3.5-1.3c-1.3-.4-3.1-.7-5.3-.7-3.5,0-6.1.7-8.1,2.2-2,1.3-3.7,3.3-4.8,5.7s-2,5-2.4,8.3-.7,6.6-.7,9.9v4.2h34.4v5.5h-34.2v66.7h-7.2Z"/>
  <path class="cls-1" d="M480,249.9v16.2h20v5.5h-20v47.2c0,4.8.9,8.6,2.4,11.2s4.2,3.9,8.1,3.9l4.6-.2,3.3-.7.7,5.5c-2.4,1.1-5.7,1.8-9.7,1.8s-6.1-.7-8.1-1.8c-2.2-1.1-3.7-2.6-5-4.6s-2.2-4.4-2.6-7c-.4-2.9-.7-5.7-.7-9v-45.9h.4v-5.5h-.4v-13.4l7-3.3h0Z"/>
</svg>