<?xml version="1.0" encoding="utf-8"?>
<!-- Generator: Adobe Illustrator 27.9.0, SVG Export Plug-In . SVG Version: 6.00 Build 0)  -->
<svg version="1.1" id="Layer_1" xmlns="http://www.w3.org/2000/svg" xmlns:xlink="http://www.w3.org/1999/xlink" x="0px" y="0px"
	 viewBox="0 0 140 50" enable-background="new 0 0 140 50" xml:space="preserve">
<g>
	<g>
		<polygon fill="#E41663" points="70,25 87.5,25 87.5,25 87.5,7.5 87.5,7.5 70,7.5 70,7.5 70,25 		"/>
		<polygon fill="#E41663" points="70,42.5 87.5,42.5 87.5,42.5 87.5,33.75 87.5,33.75 70,33.75 70,33.75 70,42.5 		"/>
		<path fill="#46B4E3" d="M96.25,33.75c0,4.83,3.92,8.75,8.75,8.75h0c4.83,0,8.75-3.92,8.75-8.75V7.5c0,0,0,0,0,0h-17.5c0,0,0,0,0,0
			V33.75z"/>
		<path fill="#F1AA1E" d="M131.18,33.75h-8.68c0,0,0,0,0,0v8.75c0,0,0,0,0,0h8.75c2.44,0,4.41-1.99,4.37-4.43
			C135.59,35.66,133.59,33.75,131.18,33.75z"/>
		<path fill="#EF8F21" d="M131.25,20.42c-0.1-2.35-2.08-4.17-4.43-4.17h-4.31c0,0,0,0,0,0V25c0,0,0,0,0,0h4.38
			C129.36,25,131.36,22.93,131.25,20.42z"/>
	</g>
	<g>
		<path fill="#E41663" d="M0,33.75c0,4.83,3.92,8.75,8.75,8.75h0c4.83,0,8.75-3.92,8.75-8.75V7.5c0,0,0,0,0,0H0c0,0,0,0,0,0L0,33.75
			z"/>
		<polygon fill="#46B4E3" points="43.75,7.5 43.75,28.5 43.75,28.5 26.25,7.5 26.25,7.5 43.75,7.5 		"/>
		<polygon fill="#46B4E3" points="26.25,42.5 26.25,21.5 26.25,21.5 43.75,42.5 43.75,42.5 26.25,42.5 		"/>
		<rect x="52.5" y="7.5" fill="#F1AA1E" width="8.75" height="35"/>
	</g>
</g>
</svg>
