<svg width="55" height="28" viewBox="0 0 55 28" fill="none" xmlns="http://www.w3.org/2000/svg">
<rect width="54.1718" height="26.1136" transform="translate(0.503662 0.996887)" fill="white"/>
<mask id="mask0_730_1495" style="mask-type:alpha" maskUnits="userSpaceOnUse" x="3" y="2" width="49" height="24">
<rect x="3.83716" y="2.10803" width="47.5045" height="23.8912" fill="white"/>
</mask>
<g mask="url(#mask0_730_1495)">
<mask id="mask1_730_1495" style="mask-type:alpha" maskUnits="userSpaceOnUse" x="7" y="4" width="42" height="20">
<rect x="7.33765" y="4.28082" width="40.7539" height="18.8614" fill="white"/>
</mask>
<g mask="url(#mask1_730_1495)">
<rect x="12.3379" y="9.31049" width="9.0669" height="9.05349" fill="#292E7F"/>
<rect x="23.3059" y="9.31049" width="9.0669" height="9.05349" fill="#292E7F"/>
<rect x="34.2739" y="9.31049" width="9.0669" height="9.05349" fill="#292E7F"/>
<path d="M17.5299 17.3763C18.2573 17.3763 18.8904 17.2256 19.4292 16.9241V16.9241V15.7149H19.3888C19.1126 15.8788 18.8247 16.0049 18.525 16.0934C18.2253 16.1819 17.9306 16.2261 17.641 16.2261C16.8934 16.2261 16.3041 16.0197 15.8731 15.6068C15.442 15.1939 15.2265 14.6041 15.2265 13.8372C15.2265 13.0639 15.4471 12.4708 15.8882 12.0579C16.3294 11.645 16.9339 11.4385 17.7016 11.4385C17.971 11.4385 18.2556 11.4746 18.5553 11.5467C18.855 11.6188 19.1328 11.7269 19.3888 11.8711V11.8711H19.4292V10.6717C19.1732 10.5472 18.8853 10.4538 18.5654 10.3915C18.2455 10.3293 17.9205 10.2982 17.5905 10.2982C16.8025 10.2982 16.1256 10.4423 15.5599 10.7307C14.9942 11.0191 14.5631 11.4303 14.2668 11.9645C13.9704 12.4986 13.8223 13.1229 13.8223 13.8372C13.8223 14.5516 13.9688 15.1759 14.2617 15.71C14.5547 16.2442 14.979 16.6554 15.5346 16.9438C16.0903 17.2322 16.7554 17.3763 17.5299 17.3763Z" fill="white"/>
<path d="M28.4137 17.3763C29.1411 17.3763 29.7742 17.2256 30.313 16.9241V16.9241V15.7149H30.2726C29.9964 15.8788 29.7085 16.0049 29.4088 16.0934C29.1091 16.1819 28.8144 16.2261 28.5248 16.2261C27.7772 16.2261 27.1879 16.0197 26.7569 15.6068C26.3258 15.1939 26.1103 14.6041 26.1103 13.8372C26.1103 13.0639 26.3309 12.4708 26.772 12.0579C27.2132 11.645 27.8176 11.4385 28.5854 11.4385C28.8548 11.4385 29.1394 11.4746 29.4391 11.5467C29.7388 11.6188 30.0166 11.7269 30.2726 11.8711V11.8711H30.313V10.6717C30.057 10.5472 29.7691 10.4538 29.4492 10.3915C29.1293 10.3293 28.8043 10.2982 28.4743 10.2982C27.6863 10.2982 27.0094 10.4423 26.4437 10.7307C25.878 11.0191 25.4469 11.4303 25.1506 11.9645C24.8542 12.4986 24.7061 13.1229 24.7061 13.8372C24.7061 14.5516 24.8525 15.1759 25.1455 15.71C25.4385 16.2442 25.8628 16.6554 26.4184 16.9438C26.9741 17.2322 27.6392 17.3763 28.4137 17.3763Z" fill="white"/>
<path fill-rule="evenodd" clip-rule="evenodd" d="M39.1135 10.4627L39.1938 10.4633C39.9107 10.4741 40.4658 10.6312 40.8592 10.9345C41.2672 11.2491 41.4712 11.6977 41.4712 12.2805C41.4712 12.9758 41.1769 13.4758 40.5883 13.7804C40.9495 13.9327 41.2237 14.148 41.411 14.4261C41.5983 14.7042 41.6919 15.042 41.6919 15.4393C41.6919 16.0684 41.4611 16.5485 40.9996 16.8796C40.5382 17.2107 39.8693 17.3763 38.9931 17.3763H36.4148V10.4627H39.1135ZM39.1119 14.4343H37.8806V16.1995H39.1022C39.5647 16.1995 39.8921 16.1332 40.0843 16.0006C40.2765 15.8681 40.3726 15.6402 40.3726 15.3169C40.3726 15.013 40.27 14.7899 40.0648 14.6477C39.8595 14.5054 39.5419 14.4343 39.1119 14.4343ZM37.734 11.6395H39.0023C39.405 11.6395 39.6851 11.6947 39.8428 11.8052C40.0005 11.9156 40.0794 12.1203 40.0794 12.4193C40.0794 12.6922 39.9888 12.9001 39.8076 13.0431C39.6264 13.1861 39.3546 13.2575 38.9923 13.2575H37.734V11.6395Z" fill="white"/>
</g>
</g>
</svg>
