<?xml version="1.0" encoding="utf-8"?>
<!-- Generator: Adobe Illustrator 27.9.0, SVG Export Plug-In . SVG Version: 6.00 Build 0)  -->
<svg version="1.1" id="Layer_1" xmlns="http://www.w3.org/2000/svg" xmlns:xlink="http://www.w3.org/1999/xlink" x="0px" y="0px"
	 viewBox="0 0 200 100" enable-background="new 0 0 200 100" xml:space="preserve">
<g display="none">
	<defs>
		<path id="SVGID_1_" d="M63.49,0.13c-7.38,0-13.41,6.05-13.41,13.44v73.12c0,7.39,6.04,13.44,13.41,13.44h73.18
			c7.38,0,13.41-6.05,13.41-13.44V13.57c0-7.39-6.04-13.44-13.41-13.44H63.49z"/>
	</defs>
	<clipPath id="SVGID_00000015317675553714212460000011876932843117866667_" display="inline">
		<use xlink:href="#SVGID_1_"  overflow="visible"/>
	</clipPath>
	
		<linearGradient id="SVGID_00000000180342673239153500000006663533241475732888_" gradientUnits="userSpaceOnUse" x1="-204.6934" y1="453.2062" x2="-202.4739" y2="453.2062" gradientTransform="matrix(41.5461 -41.5461 -41.5461 -41.5461 27387.1582 10420.9834)">
		<stop  offset="0" style="stop-color:#F9A843"/>
		<stop  offset="0.5009" style="stop-color:#F58650"/>
		<stop  offset="1" style="stop-color:#F16260"/>
	</linearGradient>
	
		<polygon display="inline" clip-path="url(#SVGID_00000015317675553714212460000011876932843117866667_)" fill="url(#SVGID_00000000180342673239153500000006663533241475732888_)" points="
		0.19,50.13 100.08,-49.98 199.97,50.13 100.08,150.24 	"/>
</g>
<g display="none">
	<path display="inline" fill="#FFFFFF" d="M112.43,32.4c-5.1-0.38-9.43,2.86-11.85,2.86c-2.45,0-6.23-2.77-10.23-2.7
		c-5.26,0.08-10.11,3.07-12.82,7.79c-5.47,9.5-1.4,23.58,3.93,31.3c2.6,3.77,5.71,8.02,9.78,7.86c3.93-0.15,5.41-2.54,10.16-2.54
		c4.74,0,6.08,2.54,10.23,2.47c4.22-0.08,6.9-3.85,9.49-7.64c2.99-4.37,4.22-8.61,4.29-8.83c-0.1-0.03-8.24-3.17-8.32-12.57
		c-0.07-7.86,6.4-11.64,6.7-11.82C120.11,33.14,114.43,32.54,112.43,32.4"/>
	<path display="inline" fill="#FFFFFF" d="M109.28,27.31c2.17-2.62,3.63-6.28,3.22-9.91c-3.12,0.12-6.89,2.08-9.13,4.7
		c-2,2.33-3.76,6.05-3.29,9.61C103.57,31.97,107.11,29.93,109.28,27.31"/>
</g>
<g display="none">
	<defs>
		<rect id="SVGID_00000115480507170571347460000006053044360651356587_" y="28.68" width="200" height="42.65"/>
	</defs>
	<clipPath id="SVGID_00000101793500380980538080000003792224685272593561_" display="inline">
		<use xlink:href="#SVGID_00000115480507170571347460000006053044360651356587_"  overflow="visible"/>
	</clipPath>
	<path display="inline" clip-path="url(#SVGID_00000101793500380980538080000003792224685272593561_)" fill="#717171" d="
		M83.13,37.21v25.59h-4.44V42.74h-0.07l-7.94,20.06h-2.94L59.6,42.74h-0.05v20.06h-4.1V37.21h6.37l7.35,18.97h0.11l7.76-18.97H83.13
		z M86.85,39.15c0-0.72,0.26-1.31,0.78-1.79c0.52-0.48,1.13-0.72,1.85-0.72c0.76,0,1.39,0.25,1.89,0.74
		c0.5,0.49,0.75,1.09,0.75,1.78c0,0.7-0.26,1.29-0.77,1.77c-0.51,0.48-1.13,0.71-1.87,0.71c-0.74,0-1.36-0.24-1.86-0.72
		C87.1,40.43,86.85,39.84,86.85,39.15 M91.61,62.79H87.3V44.45h4.32V62.79z M104.71,59.65c0.64,0,1.35-0.15,2.12-0.45
		c0.77-0.3,1.49-0.69,2.14-1.18v4.01c-0.69,0.39-1.47,0.69-2.35,0.89c-0.87,0.2-1.83,0.3-2.88,0.3c-2.7,0-4.9-0.85-6.58-2.56
		c-1.69-1.71-2.53-3.89-2.53-6.54c0-2.95,0.86-5.38,2.59-7.29c1.73-1.91,4.17-2.86,7.33-2.86c0.81,0,1.63,0.1,2.45,0.31
		c0.83,0.21,1.48,0.45,1.97,0.72v4.14c-0.67-0.49-1.35-0.87-2.04-1.13c-0.7-0.27-1.41-0.4-2.13-0.4c-1.7,0-3.07,0.55-4.12,1.66
		c-1.05,1.11-1.57,2.6-1.57,4.48c0,1.86,0.5,3.3,1.51,4.34C101.62,59.14,102.99,59.65,104.71,59.65 M121.27,44.15
		c0.34,0,0.65,0.02,0.93,0.07c0.27,0.05,0.51,0.11,0.7,0.18v4.37c-0.23-0.17-0.56-0.32-0.99-0.47c-0.43-0.15-0.96-0.22-1.58-0.22
		c-1.06,0-1.95,0.45-2.69,1.34c-0.73,0.89-1.1,2.27-1.1,4.12v9.26h-4.32V44.45h4.32v2.89h0.07c0.39-1,0.99-1.78,1.79-2.35
		C119.2,44.43,120.15,44.15,121.27,44.15 M123.13,53.89c0-3.03,0.86-5.44,2.57-7.21c1.71-1.77,4.09-2.66,7.14-2.66
		c2.87,0,5.11,0.85,6.72,2.56c1.61,1.71,2.42,4.01,2.42,6.92c0,2.97-0.86,5.34-2.57,7.1c-1.71,1.76-4.04,2.64-7,2.64
		c-2.84,0-5.1-0.83-6.77-2.51C123.97,59.06,123.13,56.78,123.13,53.89 M127.63,53.75c0,1.91,0.43,3.38,1.3,4.39
		c0.87,1.01,2.11,1.52,3.73,1.52c1.57,0,2.77-0.51,3.59-1.52c0.82-1.01,1.23-2.51,1.23-4.5c0-1.97-0.42-3.46-1.27-4.47
		c-0.85-1.01-2.04-1.51-3.58-1.51c-1.58,0-2.81,0.53-3.68,1.58C128.06,50.29,127.63,51.8,127.63,53.75 M148.4,49.27
		c0,0.62,0.2,1.1,0.59,1.45c0.39,0.35,1.26,0.79,2.61,1.33c1.72,0.69,2.94,1.47,3.63,2.33c0.7,0.86,1.04,1.91,1.04,3.13
		c0,1.73-0.66,3.11-1.99,4.16c-1.33,1.05-3.12,1.57-5.38,1.57c-0.76,0-1.6-0.09-2.53-0.28c-0.92-0.18-1.7-0.42-2.35-0.7v-4.25
		c0.79,0.55,1.63,0.98,2.53,1.3c0.9,0.32,1.73,0.48,2.46,0.48c0.97,0,1.69-0.14,2.16-0.41c0.46-0.27,0.7-0.73,0.7-1.37
		c0-0.6-0.24-1.1-0.72-1.51c-0.48-0.41-1.39-0.88-2.74-1.42c-1.59-0.67-2.72-1.41-3.39-2.25c-0.67-0.83-1-1.89-1-3.18
		c0-1.65,0.66-3.01,1.97-4.08c1.31-1.07,3.02-1.6,5.11-1.6c0.64,0,1.36,0.07,2.16,0.21c0.8,0.14,1.46,0.33,2,0.55v4.11
		c-0.57-0.38-1.24-0.71-2-0.98c-0.76-0.27-1.52-0.41-2.26-0.41c-0.82,0-1.46,0.16-1.92,0.48C148.63,48.27,148.4,48.71,148.4,49.27
		 M158.12,53.89c0-3.03,0.86-5.44,2.57-7.21c1.71-1.77,4.09-2.66,7.14-2.66c2.87,0,5.11,0.85,6.72,2.56
		c1.61,1.71,2.42,4.01,2.42,6.92c0,2.97-0.86,5.34-2.57,7.1c-1.71,1.76-4.04,2.64-6.99,2.64c-2.84,0-5.1-0.83-6.77-2.51
		C158.96,59.06,158.12,56.78,158.12,53.89 M162.62,53.75c0,1.91,0.43,3.38,1.3,4.39c0.87,1.01,2.11,1.52,3.73,1.52
		c1.57,0,2.77-0.51,3.59-1.52c0.82-1.01,1.23-2.51,1.23-4.5c0-1.97-0.42-3.46-1.27-4.47c-0.85-1.01-2.04-1.51-3.58-1.51
		c-1.58,0-2.81,0.53-3.68,1.58C163.06,50.29,162.62,51.8,162.62,53.75 M191.29,47.98h-6.43v14.81h-4.37V47.98h-3.07v-3.53h3.07V41.9
		c0-1.93,0.63-3.51,1.88-4.74c1.25-1.23,2.86-1.85,4.83-1.85c0.52,0,0.99,0.03,1.39,0.08c0.4,0.05,0.76,0.13,1.07,0.24v3.73
		c-0.14-0.08-0.39-0.18-0.75-0.3c-0.36-0.12-0.77-0.18-1.23-0.18c-0.9,0-1.6,0.28-2.09,0.85c-0.49,0.57-0.73,1.4-0.73,2.51v2.21
		h6.43v-4.12l4.33-1.32v5.44H200v3.53h-4.37v8.58c0,1.13,0.21,1.93,0.62,2.39c0.41,0.46,1.06,0.7,1.94,0.7
		c0.25,0,0.55-0.06,0.9-0.18c0.35-0.12,0.66-0.26,0.92-0.43v3.57c-0.27,0.16-0.73,0.3-1.37,0.43c-0.64,0.13-1.26,0.2-1.88,0.2
		c-1.82,0-3.18-0.48-4.09-1.45c-0.91-0.97-1.37-2.43-1.37-4.38V47.98z"/>
	
		<rect y="28.68" display="inline" clip-path="url(#SVGID_00000101793500380980538080000003792224685272593561_)" fill="#F26522" width="20.27" height="20.27"/>
	
		<rect x="22.38" y="28.68" display="inline" clip-path="url(#SVGID_00000101793500380980538080000003792224685272593561_)" fill="#8DC63F" width="20.27" height="20.27"/>
	
		<rect y="51.05" display="inline" clip-path="url(#SVGID_00000101793500380980538080000003792224685272593561_)" fill="#00AEEF" width="20.27" height="20.27"/>
	
		<rect x="22.38" y="51.05" display="inline" clip-path="url(#SVGID_00000101793500380980538080000003792224685272593561_)" fill="#FFC20E" width="20.27" height="20.27"/>
</g>
<g display="none">
	<polygon display="inline" fill="#EB1000" points="0,35.64 0,64.36 12,35.64 	"/>
	<polygon display="inline" fill="#EB1000" points="21.69,35.64 33.69,64.36 33.69,35.64 	"/>
	<polygon display="inline" fill="#EB1000" points="11.4,58.36 17.21,58.36 19.58,64.36 24.78,64.36 16.85,45.53 	"/>
	<g display="inline">
		<defs>
			<rect id="SVGID_00000062168751485247060400000017465031925044916145_" y="35.64" width="200" height="28.72"/>
		</defs>
		<clipPath id="SVGID_00000106847273639234992620000010156315777442286763_">
			<use xlink:href="#SVGID_00000062168751485247060400000017465031925044916145_"  overflow="visible"/>
		</clipPath>
		<path clip-path="url(#SVGID_00000106847273639234992620000010156315777442286763_)" d="M45.04,44.21l-0.82,2.53
			c-0.03,0.09-0.08,0.14-0.19,0.14h-1.98c-0.12,0-0.16-0.07-0.14-0.17l3.42-9.88c0.07-0.19,0.14-0.39,0.17-1.04
			c0-0.07,0.05-0.12,0.1-0.12h2.74c0.09,0,0.12,0.02,0.14,0.1l3.89,10.96c0.03,0.08,0.02,0.15-0.09,0.15h-2.22
			c-0.1,0-0.16-0.03-0.19-0.12l-0.87-2.55H45.04z M48.36,42.07c-0.34-1.13-1.03-3.2-1.35-4.42h-0.02c-0.27,1.15-0.89,3.03-1.33,4.42
			H48.36z"/>
		<path clip-path="url(#SVGID_00000106847273639234992620000010156315777442286763_)" d="M52.88,42.7c0-2.45,1.83-4.5,4.96-4.5
			c0.14,0,0.31,0.02,0.56,0.03v-3.37c0-0.09,0.05-0.12,0.12-0.12h2.16c0.09,0,0.1,0.03,0.1,0.1v10.12c0,0.39,0.02,0.91,0.07,1.25
			c0,0.09-0.02,0.12-0.12,0.15c-1.18,0.5-2.31,0.69-3.37,0.69C54.83,47.05,52.88,45.61,52.88,42.7 M58.4,40.27
			c-0.17-0.07-0.39-0.09-0.63-0.09c-1.32,0-2.45,0.8-2.45,2.4c0,1.69,0.98,2.43,2.28,2.43c0.29,0,0.56-0.02,0.8-0.1V40.27z"/>
		<path clip-path="url(#SVGID_00000106847273639234992620000010156315777442286763_)" d="M70.76,42.58c0,2.69-1.75,4.47-4.21,4.47
			c-2.93,0-4.23-2.21-4.23-4.42c0-2.43,1.63-4.43,4.26-4.43C69.34,38.2,70.76,40.27,70.76,42.58 M64.73,42.6
			c0,1.51,0.7,2.46,1.85,2.46c0.99,0,1.75-0.86,1.75-2.43c0-1.33-0.55-2.45-1.85-2.45C65.49,40.18,64.73,41.07,64.73,42.6"/>
		<path clip-path="url(#SVGID_00000106847273639234992620000010156315777442286763_)" d="M74.51,34.74c0.14,0,0.17,0.02,0.17,0.14
			v3.51c0.44-0.12,0.92-0.19,1.44-0.19c2.52,0,4.11,1.78,4.11,4.07c0,3.2-2.53,4.78-5.13,4.78c-0.91,0-1.81-0.12-2.69-0.39
			c-0.05-0.02-0.1-0.1-0.1-0.17V34.86c0-0.08,0.03-0.12,0.12-0.12H74.51z M75.69,40.22c-0.55,0-0.79,0.09-1.01,0.14v4.64
			c0.2,0.05,0.43,0.07,0.63,0.07c1.3,0,2.48-0.79,2.48-2.57C77.79,40.94,76.89,40.22,75.69,40.22"/>
		<path clip-path="url(#SVGID_00000106847273639234992620000010156315777442286763_)" d="M83.8,43.25c0.09,0.98,0.77,1.78,2.45,1.78
			c0.77,0,1.46-0.12,2.1-0.39c0.05-0.03,0.1-0.02,0.1,0.09v1.63c0,0.12-0.03,0.17-0.12,0.2c-0.68,0.33-1.44,0.5-2.62,0.5
			c-3.22,0-4.35-2.21-4.35-4.33c0-2.36,1.45-4.52,4.14-4.52c2.58,0,3.61,2,3.61,3.7c0,0.53-0.03,0.96-0.09,1.15
			c-0.02,0.09-0.05,0.12-0.14,0.14c-0.22,0.03-0.87,0.07-1.76,0.07H83.8z M86.02,41.59c0.55,0,0.79-0.02,0.86-0.03v-0.12
			c0-0.41-0.32-1.35-1.45-1.35c-1.08,0-1.54,0.8-1.64,1.51H86.02z"/>
		<path clip-path="url(#SVGID_00000106847273639234992620000010156315777442286763_)" d="M50.89,63.61c0,0.12-0.03,0.2-0.14,0.24
			c-0.56,0.21-1.42,0.31-2.38,0.31c-3.32,0-5.9-1.97-5.9-5.72c0-3.48,2.4-5.84,6.18-5.84c1.08,0,1.78,0.09,2.22,0.29
			c0.09,0.03,0.12,0.1,0.12,0.2v1.87c0,0.15-0.09,0.15-0.15,0.12c-0.56-0.27-1.37-0.38-2.22-0.38c-2.29,0-3.7,1.42-3.7,3.65
			c0,2.67,1.95,3.68,3.75,3.68c0.84,0,1.47-0.07,2.09-0.27c0.09-0.03,0.14-0.02,0.14,0.09V63.61z"/>
		<path clip-path="url(#SVGID_00000106847273639234992620000010156315777442286763_)" d="M54.28,60.36
			c0.09,0.98,0.77,1.78,2.45,1.78c0.77,0,1.46-0.12,2.11-0.39c0.05-0.03,0.1-0.02,0.1,0.09v1.63c0,0.12-0.03,0.17-0.12,0.2
			c-0.68,0.33-1.44,0.5-2.62,0.5c-3.22,0-4.35-2.21-4.35-4.33c0-2.36,1.45-4.52,4.14-4.52c2.58,0,3.61,2,3.61,3.7
			c0,0.53-0.03,0.96-0.09,1.15c-0.02,0.09-0.05,0.12-0.14,0.14c-0.22,0.03-0.87,0.07-1.76,0.07H54.28z M56.5,58.7
			c0.55,0,0.79-0.02,0.86-0.04v-0.12c0-0.41-0.32-1.35-1.45-1.35c-1.08,0-1.54,0.8-1.64,1.51H56.5z"/>
		<path clip-path="url(#SVGID_00000106847273639234992620000010156315777442286763_)" d="M63.01,55.48c0.12,0,0.17,0.05,0.2,0.15
			c0.09,0.22,0.17,0.58,0.19,0.96c0.56-0.67,1.51-1.28,2.72-1.28c0.1,0,0.14,0.03,0.14,0.14v2.11c0,0.09-0.03,0.12-0.15,0.12
			c-1.23-0.05-2.23,0.32-2.58,0.74l-0.02,5.44c0,0.1-0.03,0.14-0.15,0.14h-2.05c-0.14,0-0.17-0.05-0.17-0.15v-5.9
			c0-0.74-0.02-1.73-0.09-2.33c0-0.09,0.02-0.12,0.1-0.12H63.01z"/>
		<path clip-path="url(#SVGID_00000106847273639234992620000010156315777442286763_)" d="M72.35,63.7c0,0.1-0.02,0.19-0.12,0.22
			c-0.48,0.17-0.92,0.24-1.52,0.24c-1.49,0-2.36-0.74-2.36-2.45v-4.24h-1.03c-0.1-0.02-0.14-0.05-0.14-0.16v-1.68
			c0-0.12,0.03-0.15,0.15-0.15h1.03c0.02-0.58,0.09-1.59,0.17-2.07c0.02-0.09,0.07-0.14,0.15-0.15l2-0.26
			c0.09-0.02,0.14-0.02,0.14,0.1c-0.05,0.53-0.09,1.54-0.09,2.38h1.57c0.1,0,0.14,0.03,0.14,0.14v1.73c0,0.09-0.04,0.1-0.12,0.12
			h-1.61v3.66c0,0.75,0.22,1.1,0.92,1.1c0.2,0,0.38-0.03,0.58-0.07c0.07,0,0.12,0.02,0.12,0.12V63.7z"/>
		<path clip-path="url(#SVGID_00000106847273639234992620000010156315777442286763_)" d="M73.7,53.24c0-0.77,0.56-1.32,1.33-1.32
			c0.82,0,1.32,0.55,1.32,1.32c0,0.81-0.53,1.33-1.33,1.33C74.21,54.58,73.7,54.05,73.7,53.24 M73.82,55.62
			c0-0.09,0.04-0.14,0.14-0.14h2.11c0.1,0,0.14,0.03,0.14,0.14v8.22c0,0.1-0.02,0.15-0.16,0.15h-2.05c-0.12,0-0.17-0.05-0.17-0.15
			V55.62z"/>
		<path clip-path="url(#SVGID_00000106847273639234992620000010156315777442286763_)" d="M77.57,57.47
			c-0.09-0.02-0.12-0.05-0.12-0.14V55.6c0-0.09,0.05-0.12,0.12-0.12h1.01v-0.27c0-0.81,0.14-1.4,0.38-1.92
			c0.44-0.96,1.25-1.61,2.65-1.61c0.36,0,0.67,0.03,0.89,0.12c0.09,0.03,0.1,0.09,0.1,0.17v1.69c0,0.07-0.03,0.12-0.12,0.1
			c-0.17-0.03-0.38-0.03-0.51-0.03c-0.63,0-1.01,0.32-1.01,1.28v0.46h1.45c0.12,0,0.14,0.05,0.14,0.12v1.73
			c0,0.1-0.02,0.12-0.14,0.14h-1.45v6.37c0,0.09-0.02,0.15-0.15,0.15h-2.07c-0.1,0-0.15-0.05-0.15-0.15v-6.37H77.57z"/>
		<path clip-path="url(#SVGID_00000106847273639234992620000010156315777442286763_)" d="M83.58,53.24c0-0.77,0.56-1.32,1.33-1.32
			c0.82,0,1.32,0.55,1.32,1.32c0,0.81-0.53,1.33-1.33,1.33C84.09,54.58,83.58,54.05,83.58,53.24 M83.69,55.62
			c0-0.09,0.04-0.14,0.14-0.14h2.11c0.1,0,0.14,0.03,0.14,0.14v8.22c0,0.1-0.02,0.15-0.15,0.15h-2.05c-0.12,0-0.17-0.05-0.17-0.15
			V55.62z"/>
		<path clip-path="url(#SVGID_00000106847273639234992620000010156315777442286763_)" d="M90.04,60.36
			c0.09,0.98,0.77,1.78,2.45,1.78c0.77,0,1.46-0.12,2.11-0.39c0.05-0.03,0.1-0.02,0.1,0.09v1.63c0,0.12-0.03,0.17-0.12,0.2
			c-0.68,0.33-1.44,0.5-2.62,0.5c-3.22,0-4.35-2.21-4.35-4.33c0-2.36,1.45-4.52,4.14-4.52c2.58,0,3.61,2,3.61,3.7
			c0,0.53-0.03,0.96-0.09,1.15c-0.02,0.09-0.05,0.12-0.14,0.14c-0.22,0.03-0.87,0.07-1.76,0.07H90.04z M92.27,58.7
			c0.55,0,0.79-0.02,0.86-0.04v-0.12c0-0.41-0.32-1.35-1.45-1.35c-1.08,0-1.54,0.8-1.64,1.51H92.27z"/>
		<path clip-path="url(#SVGID_00000106847273639234992620000010156315777442286763_)" d="M96.48,59.81c0-2.45,1.83-4.5,4.96-4.5
			c0.14,0,0.31,0.02,0.56,0.03v-3.37c0-0.09,0.05-0.12,0.12-0.12h2.16c0.09,0,0.1,0.03,0.1,0.1v10.12c0,0.39,0.02,0.91,0.07,1.25
			c0,0.09-0.02,0.12-0.12,0.16c-1.18,0.5-2.31,0.68-3.37,0.68C98.43,64.16,96.48,62.72,96.48,59.81 M102.01,57.38
			c-0.17-0.07-0.39-0.09-0.63-0.09c-1.32,0-2.45,0.8-2.45,2.4c0,1.69,0.98,2.43,2.28,2.43c0.29,0,0.56-0.02,0.8-0.1V57.38z"/>
		<path clip-path="url(#SVGID_00000106847273639234992620000010156315777442286763_)" d="M110.53,52.93c0-0.1,0.02-0.14,0.1-0.14
			c0.7-0.02,2.05-0.05,3.36-0.05c3.46,0,4.66,1.92,4.66,3.78c0,2.77-2.14,3.95-4.78,3.95h-0.97v3.37c0,0.09-0.03,0.14-0.14,0.14
			h-2.11c-0.09,0-0.12-0.05-0.12-0.14V52.93z M112.89,58.38c0.29,0.02,0.48,0.02,0.96,0.02c1.35,0,2.43-0.41,2.43-1.81
			c0-1.08-0.74-1.76-2.22-1.76c-0.55,0-1.01,0.02-1.16,0.03V58.38z"/>
		<path clip-path="url(#SVGID_00000106847273639234992620000010156315777442286763_)" d="M121.94,55.48c0.12,0,0.17,0.05,0.2,0.15
			c0.09,0.22,0.17,0.58,0.19,0.96c0.56-0.67,1.51-1.28,2.72-1.28c0.1,0,0.14,0.03,0.14,0.14v2.11c0,0.09-0.03,0.12-0.15,0.12
			c-1.23-0.05-2.23,0.32-2.58,0.74l-0.02,5.44c0,0.1-0.03,0.14-0.15,0.14h-2.05c-0.14,0-0.17-0.05-0.17-0.15v-5.9
			c0-0.74-0.02-1.73-0.09-2.33c0-0.09,0.02-0.12,0.1-0.12H121.94z"/>
		<path clip-path="url(#SVGID_00000106847273639234992620000010156315777442286763_)" d="M134.39,59.69c0,2.69-1.75,4.47-4.21,4.47
			c-2.93,0-4.23-2.21-4.23-4.42c0-2.43,1.63-4.43,4.26-4.43C132.97,55.31,134.39,57.38,134.39,59.69 M128.36,59.71
			c0,1.51,0.7,2.46,1.85,2.46c0.99,0,1.74-0.86,1.74-2.43c0-1.33-0.55-2.45-1.85-2.45C129.11,57.3,128.36,58.19,128.36,59.71"/>
		<path clip-path="url(#SVGID_00000106847273639234992620000010156315777442286763_)" d="M135.16,57.47
			c-0.09-0.02-0.12-0.05-0.12-0.14V55.6c0-0.09,0.05-0.12,0.12-0.12h1.01v-0.27c0-0.81,0.14-1.4,0.38-1.92
			c0.45-0.96,1.25-1.61,2.65-1.61c0.36,0,0.67,0.03,0.89,0.12c0.09,0.03,0.1,0.09,0.1,0.17v1.69c0,0.07-0.03,0.12-0.12,0.1
			c-0.17-0.03-0.38-0.03-0.51-0.03c-0.63,0-1.01,0.32-1.01,1.28v0.46H140c0.12,0,0.14,0.05,0.14,0.12v1.73
			c0,0.1-0.02,0.12-0.14,0.14h-1.45v6.37c0,0.09-0.02,0.15-0.16,0.15h-2.07c-0.1,0-0.15-0.05-0.15-0.15v-6.37H135.16z"/>
		<path clip-path="url(#SVGID_00000106847273639234992620000010156315777442286763_)" d="M143.2,60.36
			c0.09,0.98,0.77,1.78,2.45,1.78c0.77,0,1.46-0.12,2.11-0.39c0.05-0.03,0.1-0.02,0.1,0.09v1.63c0,0.12-0.03,0.17-0.12,0.2
			c-0.68,0.33-1.44,0.5-2.62,0.5c-3.22,0-4.35-2.21-4.35-4.33c0-2.36,1.45-4.52,4.14-4.52c2.58,0,3.61,2,3.61,3.7
			c0,0.53-0.03,0.96-0.09,1.15c-0.02,0.09-0.05,0.12-0.14,0.14c-0.22,0.03-0.87,0.07-1.76,0.07H143.2z M145.42,58.7
			c0.55,0,0.79-0.02,0.86-0.04v-0.12c0-0.41-0.32-1.35-1.45-1.35c-1.08,0-1.54,0.8-1.64,1.51H145.42z"/>
		<path clip-path="url(#SVGID_00000106847273639234992620000010156315777442286763_)" d="M152.95,57.21c-0.8,0-1.06,0.29-1.06,0.58
			c0,0.29,0.22,0.51,1.22,0.89c2.07,0.75,2.72,1.56,2.72,2.77c0,1.63-1.27,2.7-3.53,2.7c-1.04,0-1.95-0.19-2.48-0.48
			c-0.09-0.05-0.12-0.1-0.12-0.19v-1.85c0-0.1,0.07-0.15,0.14-0.1c0.79,0.5,1.75,0.68,2.52,0.68c0.8,0,1.16-0.22,1.16-0.58
			c0-0.32-0.29-0.56-1.3-0.94c-1.93-0.72-2.57-1.54-2.57-2.77c0-1.34,1.08-2.62,3.34-2.62c1.01,0,1.8,0.14,2.22,0.34
			c0.1,0.05,0.12,0.14,0.12,0.22v1.71c0,0.1-0.07,0.17-0.17,0.12C154.6,57.42,153.72,57.21,152.95,57.21"/>
		<path clip-path="url(#SVGID_00000106847273639234992620000010156315777442286763_)" d="M160.21,57.21c-0.8,0-1.06,0.29-1.06,0.58
			c0,0.29,0.22,0.51,1.22,0.89c2.07,0.75,2.72,1.56,2.72,2.77c0,1.63-1.27,2.7-3.53,2.7c-1.04,0-1.95-0.19-2.48-0.48
			c-0.09-0.05-0.12-0.1-0.12-0.19v-1.85c0-0.1,0.07-0.15,0.14-0.1c0.79,0.5,1.75,0.68,2.52,0.68c0.8,0,1.16-0.22,1.16-0.58
			c0-0.32-0.29-0.56-1.3-0.94c-1.93-0.72-2.57-1.54-2.57-2.77c0-1.34,1.08-2.62,3.34-2.62c1.01,0,1.8,0.14,2.22,0.34
			c0.1,0.05,0.12,0.14,0.12,0.22v1.71c0,0.1-0.07,0.17-0.17,0.12C161.85,57.42,160.98,57.21,160.21,57.21"/>
		<path clip-path="url(#SVGID_00000106847273639234992620000010156315777442286763_)" d="M164.4,53.24c0-0.77,0.56-1.32,1.33-1.32
			c0.82,0,1.32,0.55,1.32,1.32c0,0.81-0.53,1.33-1.33,1.33C164.92,54.58,164.4,54.05,164.4,53.24 M164.52,55.62
			c0-0.09,0.03-0.14,0.14-0.14h2.11c0.1,0,0.14,0.03,0.14,0.14v8.22c0,0.1-0.02,0.15-0.16,0.15h-2.05c-0.12,0-0.17-0.05-0.17-0.15
			V55.62z"/>
		<path clip-path="url(#SVGID_00000106847273639234992620000010156315777442286763_)" d="M176.88,59.69c0,2.69-1.75,4.47-4.21,4.47
			c-2.93,0-4.23-2.21-4.23-4.42c0-2.43,1.63-4.43,4.26-4.43C175.46,55.31,176.88,57.38,176.88,59.69 M170.85,59.71
			c0,1.51,0.7,2.46,1.85,2.46c0.99,0,1.74-0.86,1.74-2.43c0-1.33-0.55-2.45-1.85-2.45C171.61,57.3,170.85,58.19,170.85,59.71"/>
		<path clip-path="url(#SVGID_00000106847273639234992620000010156315777442286763_)" d="M178.42,57.47c0-0.58-0.03-1.47-0.07-1.85
			c-0.02-0.09,0.02-0.14,0.12-0.14h1.8c0.14,0,0.19,0.05,0.22,0.14c0.07,0.15,0.1,0.33,0.14,0.56c0.72-0.58,1.52-0.87,2.43-0.87
			c1.32,0,2.87,0.68,2.87,3.44v5.08c0,0.1-0.03,0.15-0.15,0.15h-2.05c-0.12,0-0.17-0.05-0.17-0.15v-4.88c0-1.03-0.45-1.57-1.33-1.57
			c-0.58,0-1.06,0.2-1.42,0.53v5.94c0,0.09-0.05,0.14-0.16,0.14h-2.07c-0.12,0-0.15-0.05-0.15-0.15V57.47z"/>
		<path clip-path="url(#SVGID_00000106847273639234992620000010156315777442286763_)" d="M194.63,62.09c0,0.44,0,0.8,0.03,1.21
			c0,0.04,0,0.07-0.03,0.09c-1.51,0.58-2.5,0.77-3.73,0.77c-1.9,0-3.46-0.87-3.46-2.86c0-1.81,1.59-2.77,3.87-2.77
			c0.46,0,0.86,0,1.01,0.03v-0.12c0-0.33-0.2-1.08-1.64-1.08c-0.86,0-1.61,0.17-2.26,0.46c-0.07,0.03-0.15,0-0.15-0.09v-1.73
			c0-0.09,0.02-0.14,0.12-0.17c0.75-0.36,1.73-0.53,2.69-0.53c2.46,0,3.56,1.52,3.56,3.48V62.09z M192.32,60.33
			c-0.27-0.04-0.51-0.05-0.86-0.05c-1.22,0-1.71,0.39-1.71,1.01c0,0.57,0.43,1.03,1.51,1.03c0.39,0,0.74-0.05,1.06-0.16V60.33z"/>
		<path clip-path="url(#SVGID_00000106847273639234992620000010156315777442286763_)" d="M196.66,51.99c0-0.09,0.03-0.14,0.17-0.14
			h2.04c0.12,0,0.17,0.05,0.17,0.14v9.58c0,0.48,0.15,0.65,0.56,0.65c0.14,0,0.16,0,0.31-0.02c0.07,0,0.09,0.03,0.09,0.12v1.47
			c0,0.14-0.02,0.17-0.12,0.2c-0.2,0.09-0.53,0.15-1.06,0.15c-1.23,0-2.16-0.46-2.16-2.36V51.99z"/>
	</g>
</g>
<g display="none">
	<g display="inline">
		<defs>
			<rect id="SVGID_00000120533217613823059660000001906223114889587382_" y="19.94" width="200" height="60.12"/>
		</defs>
		<clipPath id="SVGID_00000124134581131468451210000003654832018726577082_">
			<use xlink:href="#SVGID_00000120533217613823059660000001906223114889587382_"  overflow="visible"/>
		</clipPath>
		<path clip-path="url(#SVGID_00000124134581131468451210000003654832018726577082_)" fill="#05BFE0" d="M21.16,65.55
			c0-3.9,3.16-7.05,7.05-7.05v-7.05H0v7.05c3.9,0,7.05,3.16,7.05,7.05c0,3.9-3.16,7.05-7.05,7.05v7.05h28.22v-7.05
			C24.32,72.61,21.16,69.45,21.16,65.55"/>
		<path clip-path="url(#SVGID_00000124134581131468451210000003654832018726577082_)" fill="#FF610F" d="M44.72,34.94
			c0-7.79-6.32-14.1-14.11-14.1v28.22C38.4,49.05,44.71,42.74,44.72,34.94c0,7.8,6.32,14.11,14.11,14.11V20.84
			C51.03,20.84,44.72,27.15,44.72,34.94"/>
		<path clip-path="url(#SVGID_00000124134581131468451210000003654832018726577082_)" d="M19.4,20.88
			c-0.29-0.03-0.59-0.04-0.88-0.04H5.29H0v5.29v8.82v5.29v8.82h5.29v-8.82h13.23c0.3,0,0.59-0.01,0.88-0.04
			c4.94-0.45,8.82-4.6,8.82-9.66S24.34,21.33,19.4,20.88 M18.52,34.95H9.88H5.29v-8.82h4.59h8.64c2.43,0,4.41,1.97,4.41,4.41
			C22.93,32.97,20.95,34.95,18.52,34.95"/>
		<polygon clip-path="url(#SVGID_00000124134581131468451210000003654832018726577082_)" fill="#4F17A8" points="30.61,79.66 
			30.61,71.67 38.59,79.66 		"/>
		<polygon clip-path="url(#SVGID_00000124134581131468451210000003654832018726577082_)" fill="#4F17A8" points="46.7,79.66 
			30.61,63.57 30.61,55.46 54.81,79.66 		"/>
		<polygon clip-path="url(#SVGID_00000124134581131468451210000003654832018726577082_)" fill="#4F17A8" points="58.82,51.44 
			58.82,59.34 50.93,51.44 		"/>
		<polygon clip-path="url(#SVGID_00000124134581131468451210000003654832018726577082_)" fill="#4F17A8" points="58.82,75.56 
			34.71,51.44 42.82,51.44 58.82,67.45 		"/>
		<path clip-path="url(#SVGID_00000124134581131468451210000003654832018726577082_)" d="M61.23,78.05h-0.56v-0.26h1.4v0.26h-0.55
			v1.61h-0.3V78.05z M62.27,77.78h0.41l0.67,1.51L64,77.78h0.41v1.87h-0.3v-1.46l-0.64,1.46H63.2l-0.63-1.46v1.46h-0.3L62.27,77.78z
			"/>
		<path clip-path="url(#SVGID_00000124134581131468451210000003654832018726577082_)" d="M73.53,20.83h6.71
			c0.93,0,1.83,0.19,2.69,0.56c0.86,0.37,1.56,0.92,2.1,1.63c0.54,0.72,0.81,1.58,0.81,2.6c0,0.91-0.24,1.72-0.72,2.44
			c-0.48,0.72-1.15,1.29-2.01,1.7c-0.86,0.41-1.83,0.62-2.91,0.62h-3.3v4.89h-3.36V20.83z M79.67,27.81c0.53,0,1-0.09,1.42-0.28
			c0.42-0.19,0.75-0.45,0.98-0.78c0.24-0.33,0.36-0.71,0.36-1.12c0-0.43-0.12-0.81-0.34-1.15c-0.23-0.33-0.55-0.59-0.97-0.78
			c-0.42-0.19-0.9-0.28-1.44-0.28h-2.78v4.4H79.67z"/>
		<path clip-path="url(#SVGID_00000124134581131468451210000003654832018726577082_)" d="M87.1,24.89h2.43L90,26.55
			c0.28-0.65,0.69-1.14,1.22-1.48c0.53-0.34,1.13-0.51,1.8-0.51c0.62,0,1.17,0.15,1.65,0.45c0.48,0.3,0.87,0.72,1.18,1.26
			c0.3,0.54,0.49,1.16,0.56,1.87l-2.57,0.71c-0.03-0.55-0.21-1.02-0.55-1.39c-0.34-0.37-0.74-0.56-1.22-0.56
			c-0.36,0-0.69,0.11-0.98,0.34c-0.29,0.23-0.52,0.55-0.68,0.96c-0.16,0.41-0.24,0.88-0.24,1.39v5.68H87.1V24.89z"/>
		<path clip-path="url(#SVGID_00000124134581131468451210000003654832018726577082_)" d="M99.99,34.9c-0.87-0.46-1.55-1.1-2.04-1.94
			c-0.49-0.83-0.73-1.79-0.73-2.89s0.24-2.06,0.73-2.89c0.49-0.83,1.17-1.48,2.04-1.94c0.87-0.46,1.87-0.69,3.01-0.69
			c1.12,0,2.12,0.23,2.99,0.69c0.87,0.46,1.55,1.11,2.04,1.94c0.49,0.83,0.73,1.79,0.73,2.89s-0.24,2.06-0.73,2.89
			c-0.49,0.83-1.17,1.48-2.04,1.94c-0.87,0.46-1.87,0.69-2.99,0.69C101.86,35.59,100.86,35.36,99.99,34.9 M104.4,32.62
			c0.42-0.25,0.74-0.59,0.97-1.03c0.23-0.44,0.35-0.94,0.35-1.51c0-0.57-0.12-1.07-0.35-1.51c-0.23-0.44-0.55-0.78-0.97-1.03
			c-0.42-0.25-0.89-0.37-1.4-0.37c-0.53,0-1,0.13-1.41,0.37c-0.41,0.25-0.73,0.6-0.96,1.03c-0.23,0.44-0.34,0.94-0.34,1.51
			c0,0.57,0.11,1.07,0.34,1.51c0.23,0.44,0.55,0.78,0.96,1.03C102,32.87,102.47,33,103,33C103.51,33,103.98,32.87,104.4,32.62"/>
		<path clip-path="url(#SVGID_00000124134581131468451210000003654832018726577082_)" d="M107.07,39.82
			c-0.62-0.29-1.1-0.68-1.44-1.17l1.36-1.78c0.18,0.34,0.42,0.6,0.73,0.79c0.31,0.19,0.64,0.28,0.97,0.28c0.3,0,0.56-0.07,0.79-0.22
			c0.23-0.15,0.41-0.36,0.53-0.63c0.12-0.27,0.18-0.57,0.18-0.91V24.89h3.04v11.76c0,0.7-0.17,1.33-0.52,1.88
			c-0.34,0.55-0.82,0.97-1.44,1.28c-0.61,0.3-1.32,0.46-2.12,0.46C108.39,40.26,107.69,40.11,107.07,39.82 M110.43,22.99
			c-0.34-0.33-0.52-0.76-0.52-1.29c0-0.51,0.17-0.94,0.52-1.27c0.34-0.33,0.78-0.5,1.31-0.5c0.54,0,0.98,0.17,1.32,0.5
			c0.34,0.33,0.51,0.75,0.51,1.27c0,0.53-0.17,0.96-0.51,1.29c-0.34,0.33-0.78,0.5-1.32,0.5C111.21,23.49,110.77,23.32,110.43,22.99
			"/>
		<path clip-path="url(#SVGID_00000124134581131468451210000003654832018726577082_)" d="M123.12,25.24
			c0.8,0.45,1.43,1.09,1.86,1.93c0.44,0.83,0.66,1.79,0.66,2.87c0,0.14,0,0.29-0.01,0.48c-0.01,0.18-0.02,0.32-0.03,0.42h-7.76
			c0.07,0.49,0.25,0.91,0.55,1.28s0.68,0.65,1.15,0.84c0.47,0.2,0.97,0.29,1.53,0.29c0.64,0,1.23-0.13,1.77-0.39
			c0.55-0.26,0.95-0.58,1.21-0.97l1.82,1.3c-0.38,0.69-1.03,1.25-1.97,1.67c-0.93,0.42-1.97,0.64-3.12,0.64
			c-1.16,0-2.2-0.24-3.12-0.72c-0.92-0.48-1.64-1.14-2.17-1.99c-0.53-0.84-0.79-1.81-0.79-2.89c0-1.07,0.24-2.01,0.72-2.83
			c0.48-0.82,1.14-1.46,1.99-1.92c0.84-0.46,1.81-0.69,2.89-0.69S122.31,24.79,123.12,25.24 M119.11,27.09
			c-0.34,0.18-0.62,0.45-0.83,0.8c-0.22,0.35-0.36,0.76-0.45,1.22h4.7c-0.05-0.45-0.18-0.84-0.37-1.19
			c-0.2-0.34-0.46-0.61-0.79-0.81c-0.33-0.2-0.71-0.29-1.12-0.29C119.83,26.81,119.45,26.91,119.11,27.09"/>
		<path clip-path="url(#SVGID_00000124134581131468451210000003654832018726577082_)" d="M129.58,34.89
			c-0.87-0.47-1.55-1.12-2.05-1.97s-0.74-1.79-0.74-2.85c0-1.07,0.23-2.02,0.7-2.86c0.47-0.84,1.11-1.49,1.93-1.96
			c0.82-0.47,1.75-0.7,2.79-0.7c0.81,0,1.57,0.15,2.29,0.46c0.72,0.3,1.32,0.73,1.8,1.27c0.49,0.54,0.8,1.16,0.95,1.87l-2.8,0.71
			c-0.12-0.53-0.39-0.96-0.8-1.29c-0.41-0.33-0.87-0.5-1.39-0.5c-0.46,0-0.87,0.13-1.24,0.38c-0.36,0.25-0.65,0.6-0.86,1.06
			c-0.21,0.46-0.31,0.98-0.31,1.56c0,0.58,0.12,1.1,0.35,1.56c0.24,0.46,0.56,0.81,0.96,1.06c0.4,0.25,0.86,0.37,1.38,0.37
			c0.43,0,0.84-0.1,1.22-0.29c0.38-0.2,0.69-0.46,0.94-0.8c0.25-0.34,0.41-0.72,0.48-1.16l2.84,0.41c-0.11,0.84-0.42,1.59-0.94,2.25
			c-0.52,0.66-1.18,1.18-1.98,1.55c-0.8,0.37-1.67,0.56-2.62,0.56C131.42,35.59,130.45,35.36,129.58,34.89"/>
		<path clip-path="url(#SVGID_00000124134581131468451210000003654832018726577082_)" d="M142.03,35.13
			c-0.6-0.31-1.06-0.75-1.37-1.32c-0.31-0.57-0.47-1.24-0.47-2.03V27.2h-1.99v-2.31h1.99v-2.86l3.06-0.67l-0.02,3.53h4.22v2.31
			h-4.22l0.02,4.12c0,0.55,0.15,1,0.45,1.33c0.3,0.33,0.68,0.5,1.16,0.5c0.47,0,0.89-0.13,1.24-0.39c0.35-0.26,0.65-0.62,0.89-1.09
			l1.07,1.8c-0.41,0.69-0.92,1.22-1.55,1.58c-0.63,0.36-1.39,0.55-2.28,0.55C143.37,35.59,142.64,35.44,142.03,35.13"/>
		<polygon clip-path="url(#SVGID_00000124134581131468451210000003654832018726577082_)" points="73.53,43.17 75.96,43.17 
			81.19,55.62 86.42,43.17 88.86,43.17 88.86,57.46 87.17,57.46 87.17,45.6 82.08,57.46 80.3,57.46 75.21,45.62 75.21,57.46 
			73.53,57.46 		"/>
		<path clip-path="url(#SVGID_00000124134581131468451210000003654832018726577082_)" d="M92.78,57.48
			c-0.6-0.26-1.07-0.62-1.42-1.09c-0.34-0.47-0.52-1.01-0.52-1.6c0-0.57,0.16-1.08,0.48-1.53c0.32-0.45,0.82-0.84,1.5-1.17
			c0.68-0.32,1.56-0.55,2.65-0.67l2.51-0.3c0.26-0.03,0.46-0.11,0.62-0.25c0.16-0.14,0.23-0.32,0.23-0.54c0-0.42-0.14-0.79-0.42-1.1
			c-0.28-0.32-0.64-0.56-1.09-0.74c-0.45-0.17-0.95-0.26-1.49-0.26c-0.62,0-1.18,0.12-1.67,0.35c-0.49,0.24-0.89,0.54-1.18,0.91
			c-0.29,0.37-0.45,0.75-0.48,1.15l-1.4-0.59c0.07-0.55,0.31-1.08,0.74-1.58c0.42-0.5,0.99-0.9,1.7-1.2
			c0.71-0.3,1.49-0.45,2.34-0.45c0.86,0,1.64,0.16,2.31,0.47c0.68,0.31,1.2,0.75,1.58,1.32c0.38,0.57,0.57,1.22,0.57,1.97v5.19
			c0,0.22,0.05,0.39,0.15,0.51c0.1,0.12,0.23,0.18,0.39,0.18c0.13,0,0.28-0.05,0.43-0.16c0.15-0.11,0.28-0.26,0.41-0.45l0.83,0.97
			c-0.22,0.32-0.52,0.58-0.9,0.77c-0.39,0.19-0.77,0.28-1.16,0.28c-0.5,0-0.91-0.16-1.23-0.48c-0.32-0.32-0.48-0.73-0.48-1.25v-0.39
			c-0.24,0.43-0.56,0.81-0.94,1.13c-0.38,0.32-0.83,0.56-1.35,0.73c-0.51,0.17-1.07,0.25-1.66,0.25
			C94.07,57.87,93.38,57.74,92.78,57.48 M97.02,56.02c0.56-0.3,1-0.7,1.31-1.21c0.31-0.51,0.47-1.08,0.47-1.73v-0.73l-3.16,0.39
			c-1.16,0.15-1.99,0.4-2.49,0.75c-0.5,0.35-0.75,0.78-0.75,1.28c0,0.51,0.25,0.93,0.76,1.24c0.51,0.31,1.17,0.47,1.98,0.47
			C95.82,56.47,96.45,56.32,97.02,56.02"/>
		<path clip-path="url(#SVGID_00000124134581131468451210000003654832018726577082_)" d="M103.77,47.22h1.4l0.14,1.5
			c0.35-0.6,0.84-1.06,1.48-1.4c0.64-0.34,1.31-0.51,2.03-0.51c0.84,0,1.58,0.2,2.22,0.59c0.64,0.39,1.14,0.93,1.49,1.61
			c0.35,0.68,0.53,1.46,0.53,2.32v6.12h-1.56v-6.12c0-0.59-0.12-1.13-0.34-1.6c-0.23-0.47-0.56-0.84-0.99-1.1
			c-0.43-0.26-0.94-0.4-1.52-0.4c-0.6,0-1.15,0.15-1.65,0.44c-0.51,0.29-0.91,0.69-1.22,1.2c-0.3,0.51-0.45,1.08-0.45,1.71v5.88
			h-1.54V47.22z"/>
		<path clip-path="url(#SVGID_00000124134581131468451210000003654832018726577082_)" d="M116.61,57.48
			c-0.6-0.26-1.07-0.62-1.42-1.09c-0.34-0.47-0.52-1.01-0.52-1.6c0-0.57,0.16-1.08,0.48-1.53c0.32-0.45,0.82-0.84,1.5-1.17
			c0.68-0.32,1.56-0.55,2.65-0.67l2.51-0.3c0.26-0.03,0.46-0.11,0.62-0.25c0.16-0.14,0.23-0.32,0.23-0.54c0-0.42-0.14-0.79-0.42-1.1
			c-0.28-0.32-0.64-0.56-1.09-0.74c-0.45-0.17-0.95-0.26-1.49-0.26c-0.62,0-1.18,0.12-1.67,0.35c-0.49,0.24-0.89,0.54-1.18,0.91
			c-0.29,0.37-0.45,0.75-0.48,1.15l-1.4-0.59c0.07-0.55,0.31-1.08,0.74-1.58c0.42-0.5,0.99-0.9,1.7-1.2
			c0.71-0.3,1.49-0.45,2.34-0.45c0.86,0,1.64,0.16,2.31,0.47c0.68,0.31,1.2,0.75,1.58,1.32c0.38,0.57,0.57,1.22,0.57,1.97v5.19
			c0,0.22,0.05,0.39,0.15,0.51c0.1,0.12,0.23,0.18,0.4,0.18c0.13,0,0.28-0.05,0.43-0.16c0.15-0.11,0.28-0.26,0.4-0.45l0.83,0.97
			c-0.22,0.32-0.52,0.58-0.9,0.77c-0.39,0.19-0.77,0.28-1.17,0.28c-0.5,0-0.91-0.16-1.23-0.48c-0.32-0.32-0.48-0.73-0.48-1.25v-0.39
			c-0.24,0.43-0.56,0.81-0.94,1.13c-0.39,0.32-0.83,0.56-1.35,0.73c-0.51,0.17-1.07,0.25-1.66,0.25
			C117.9,57.87,117.21,57.74,116.61,57.48 M120.85,56.02c0.56-0.3,1-0.7,1.31-1.21c0.31-0.51,0.47-1.08,0.47-1.73v-0.73l-3.16,0.39
			c-1.16,0.15-1.99,0.4-2.49,0.75c-0.5,0.35-0.75,0.78-0.75,1.28c0,0.51,0.25,0.93,0.76,1.24c0.51,0.31,1.17,0.47,1.98,0.47
			C119.65,56.47,120.28,56.32,120.85,56.02"/>
		<path clip-path="url(#SVGID_00000124134581131468451210000003654832018726577082_)" d="M129.04,62.12c-0.77-0.27-1.44-0.65-2-1.14
			c-0.56-0.49-0.98-1.05-1.27-1.68l1.3-0.89c0.16,0.53,0.45,1,0.87,1.41c0.42,0.41,0.93,0.73,1.53,0.96
			c0.6,0.23,1.25,0.34,1.96,0.34c0.82,0,1.55-0.18,2.19-0.53c0.64-0.35,1.13-0.83,1.47-1.45c0.34-0.62,0.52-1.32,0.52-2.1v-1.38
			c-0.45,0.66-1,1.17-1.66,1.53c-0.66,0.36-1.41,0.54-2.23,0.54c-0.97,0-1.85-0.23-2.63-0.7c-0.78-0.47-1.39-1.11-1.82-1.93
			c-0.44-0.82-0.66-1.74-0.66-2.77c0-1.04,0.22-1.98,0.66-2.82c0.44-0.84,1.05-1.49,1.82-1.97c0.78-0.47,1.65-0.71,2.63-0.71
			c0.84,0,1.59,0.18,2.25,0.54c0.66,0.36,1.22,0.87,1.66,1.53l0.16-1.7h1.38v9.83c0,1.05-0.24,2-0.73,2.83
			c-0.49,0.83-1.16,1.48-2.03,1.95c-0.86,0.47-1.85,0.7-2.94,0.7C130.62,62.53,129.81,62.39,129.04,62.12 M133.83,55.83
			c0.57-0.34,1.02-0.82,1.35-1.43c0.32-0.61,0.49-1.29,0.49-2.05c0-0.78-0.16-1.49-0.49-2.12c-0.32-0.63-0.77-1.12-1.35-1.47
			c-0.57-0.35-1.21-0.53-1.92-0.53c-0.72,0-1.36,0.18-1.94,0.53s-1.02,0.84-1.35,1.47c-0.33,0.63-0.49,1.33-0.49,2.12
			c0,0.76,0.16,1.44,0.5,2.05c0.33,0.61,0.78,1.09,1.35,1.43c0.57,0.34,1.21,0.52,1.93,0.52C132.62,56.34,133.26,56.17,133.83,55.83
			"/>
		<path clip-path="url(#SVGID_00000124134581131468451210000003654832018726577082_)" d="M146.79,47.51
			c0.75,0.46,1.33,1.11,1.75,1.94c0.42,0.83,0.64,1.77,0.65,2.81v0.29c0,0.1-0.01,0.21-0.02,0.31h-8.62
			c0.07,0.7,0.28,1.33,0.65,1.87c0.36,0.55,0.85,0.97,1.44,1.28c0.59,0.3,1.26,0.46,1.99,0.46c0.78,0,1.5-0.18,2.14-0.55
			c0.64-0.36,1.1-0.83,1.39-1.4l1.34,0.55c-0.35,0.82-0.97,1.5-1.85,2.02c-0.89,0.52-1.9,0.78-3.03,0.78
			c-1.08,0-2.05-0.24-2.91-0.72c-0.86-0.48-1.53-1.15-2.02-2.02c-0.49-0.86-0.73-1.83-0.73-2.9c0-1.03,0.22-1.95,0.67-2.78
			c0.45-0.82,1.07-1.47,1.87-1.93c0.8-0.47,1.7-0.7,2.7-0.7C145.17,46.82,146.04,47.05,146.79,47.51 M142.45,48.64
			c-0.51,0.27-0.92,0.66-1.25,1.15c-0.32,0.5-0.53,1.07-0.63,1.7h6.97c-0.08-0.65-0.27-1.22-0.57-1.71
			c-0.3-0.49-0.69-0.87-1.18-1.15c-0.49-0.27-1.03-0.41-1.64-0.41C143.53,48.24,142.96,48.37,142.45,48.64"/>
		<path clip-path="url(#SVGID_00000124134581131468451210000003654832018726577082_)" d="M151.12,47.22h1.34l0.16,1.28
			c0.32-0.54,0.75-0.96,1.28-1.25c0.53-0.29,1.11-0.44,1.76-0.44c0.84,0,1.58,0.19,2.22,0.58c0.64,0.39,1.11,0.91,1.41,1.57
			c0.34-0.66,0.81-1.18,1.43-1.56c0.61-0.38,1.32-0.57,2.12-0.57c0.78,0,1.49,0.19,2.11,0.58c0.62,0.38,1.11,0.92,1.46,1.6
			c0.35,0.68,0.53,1.46,0.53,2.32v6.12h-1.56v-6.14c0-0.58-0.11-1.11-0.34-1.58c-0.23-0.47-0.55-0.84-0.96-1.1
			c-0.41-0.26-0.88-0.4-1.41-0.4c-0.55,0-1.05,0.13-1.49,0.39c-0.44,0.26-0.78,0.62-1.02,1.11c-0.24,0.48-0.36,1.01-0.36,1.59v6.14
			h-1.54v-6.14c0-0.61-0.11-1.15-0.33-1.61c-0.22-0.47-0.54-0.83-0.95-1.09c-0.41-0.26-0.89-0.39-1.43-0.39
			c-0.57,0-1.07,0.13-1.5,0.39c-0.43,0.26-0.77,0.62-1,1.09c-0.24,0.47-0.35,1-0.35,1.61v6.14h-1.54V47.22z"/>
		<path clip-path="url(#SVGID_00000124134581131468451210000003654832018726577082_)" d="M176.45,47.51
			c0.75,0.46,1.33,1.11,1.75,1.94c0.42,0.83,0.64,1.77,0.65,2.81v0.29c0,0.1-0.01,0.21-0.02,0.31h-8.62
			c0.07,0.7,0.28,1.33,0.65,1.87c0.36,0.55,0.85,0.97,1.44,1.28c0.59,0.3,1.26,0.46,1.99,0.46c0.78,0,1.5-0.18,2.14-0.55
			c0.64-0.36,1.1-0.83,1.39-1.4l1.34,0.55c-0.35,0.82-0.97,1.5-1.85,2.02c-0.89,0.52-1.9,0.78-3.03,0.78
			c-1.08,0-2.05-0.24-2.91-0.72c-0.86-0.48-1.53-1.15-2.02-2.02c-0.49-0.86-0.73-1.83-0.73-2.9c0-1.03,0.22-1.95,0.67-2.78
			c0.45-0.82,1.07-1.47,1.87-1.93c0.8-0.47,1.7-0.7,2.7-0.7C174.83,46.82,175.7,47.05,176.45,47.51 M172.11,48.64
			c-0.51,0.27-0.92,0.66-1.25,1.15c-0.32,0.5-0.53,1.07-0.63,1.7h6.97c-0.08-0.65-0.27-1.22-0.57-1.71
			c-0.3-0.49-0.69-0.87-1.18-1.15c-0.49-0.27-1.03-0.41-1.64-0.41C173.19,48.24,172.61,48.37,172.11,48.64"/>
		<path clip-path="url(#SVGID_00000124134581131468451210000003654832018726577082_)" d="M180.78,47.22h1.4l0.14,1.5
			c0.35-0.6,0.84-1.06,1.48-1.4c0.64-0.34,1.31-0.51,2.03-0.51c0.84,0,1.58,0.2,2.22,0.59c0.64,0.39,1.14,0.93,1.49,1.61
			c0.35,0.68,0.53,1.46,0.53,2.32v6.12h-1.56v-6.12c0-0.59-0.12-1.13-0.34-1.6c-0.23-0.47-0.56-0.84-0.99-1.1
			c-0.43-0.26-0.94-0.4-1.52-0.4c-0.6,0-1.15,0.15-1.65,0.44c-0.51,0.29-0.91,0.69-1.22,1.2c-0.3,0.51-0.45,1.08-0.45,1.71v5.88
			h-1.54V47.22z"/>
		<path clip-path="url(#SVGID_00000124134581131468451210000003654832018726577082_)" d="M194.74,57.46
			c-0.49-0.27-0.88-0.65-1.15-1.12c-0.27-0.48-0.4-1.02-0.4-1.63v-6.2h-2.25v-1.28h2.25v-3.04l1.54-0.36v3.41h4.58v1.28h-4.58v6.04
			c0,0.58,0.17,1.06,0.5,1.43c0.33,0.37,0.77,0.56,1.33,0.56c0.53,0,1-0.19,1.42-0.56c0.42-0.37,0.68-0.88,0.77-1.51l1.26,0.53
			c-0.13,0.86-0.54,1.56-1.23,2.09c-0.68,0.53-1.47,0.79-2.36,0.79C195.79,57.87,195.23,57.73,194.74,57.46"/>
		
			<rect x="73.53" y="65.36" clip-path="url(#SVGID_00000124134581131468451210000003654832018726577082_)" width="1.68" height="14.29"/>
		<path clip-path="url(#SVGID_00000124134581131468451210000003654832018726577082_)" d="M77.71,69.41h1.4l0.14,1.5
			c0.35-0.6,0.84-1.06,1.48-1.4c0.64-0.34,1.31-0.51,2.03-0.51c0.84,0,1.58,0.2,2.22,0.59c0.64,0.39,1.14,0.93,1.49,1.61
			c0.35,0.68,0.53,1.46,0.53,2.32v6.12h-1.56v-6.12c0-0.59-0.12-1.13-0.35-1.6c-0.23-0.47-0.56-0.84-0.99-1.11
			c-0.43-0.26-0.94-0.39-1.52-0.39c-0.6,0-1.15,0.15-1.65,0.44c-0.51,0.29-0.91,0.69-1.22,1.2c-0.3,0.51-0.45,1.08-0.45,1.71v5.88
			h-1.54V69.41z"/>
		<path clip-path="url(#SVGID_00000124134581131468451210000003654832018726577082_)" d="M90.98,79.6c-0.7-0.31-1.28-0.72-1.72-1.25
			c-0.45-0.53-0.72-1.13-0.81-1.8l1.52-0.3c0.04,0.46,0.21,0.88,0.51,1.25c0.3,0.37,0.69,0.66,1.19,0.86
			c0.49,0.2,1.04,0.31,1.63,0.31c0.54,0,1.02-0.08,1.45-0.23c0.43-0.15,0.76-0.37,1.01-0.65c0.25-0.28,0.38-0.58,0.38-0.92
			c0-0.35-0.14-0.64-0.41-0.86c-0.27-0.22-0.61-0.39-1.01-0.51c-0.41-0.12-0.93-0.23-1.56-0.36c-0.89-0.16-1.61-0.33-2.17-0.51
			c-0.55-0.18-1.02-0.46-1.41-0.86c-0.39-0.4-0.58-0.95-0.58-1.65c0-0.58,0.16-1.11,0.5-1.58c0.33-0.47,0.78-0.84,1.36-1.11
			c0.57-0.27,1.22-0.41,1.94-0.41c0.7,0,1.34,0.12,1.93,0.36c0.58,0.24,1.06,0.58,1.45,1c0.39,0.43,0.64,0.91,0.76,1.45l-1.48,0.41
			c-0.07-0.54-0.35-0.99-0.84-1.34c-0.49-0.35-1.11-0.53-1.84-0.53c-0.42,0-0.8,0.08-1.15,0.23c-0.34,0.16-0.62,0.36-0.82,0.63
			c-0.2,0.26-0.31,0.56-0.31,0.88c0,0.35,0.14,0.63,0.42,0.83c0.28,0.2,0.52,0.33,0.72,0.39c0.2,0.05,0.84,0.18,1.91,0.36
			c0.82,0.16,1.52,0.35,2.1,0.56c0.57,0.21,1.05,0.51,1.43,0.91c0.38,0.4,0.57,0.92,0.57,1.55c0,0.64-0.19,1.21-0.57,1.71
			c-0.38,0.51-0.9,0.91-1.55,1.2c-0.65,0.29-1.39,0.44-2.22,0.44C92.46,80.06,91.68,79.91,90.98,79.6"/>
		<path clip-path="url(#SVGID_00000124134581131468451210000003654832018726577082_)" d="M101.85,79.65
			c-0.49-0.27-0.88-0.65-1.15-1.12c-0.27-0.48-0.4-1.02-0.4-1.63v-6.2h-2.25v-1.28h2.25v-3.04l1.54-0.36v3.41h4.58v1.28h-4.58v6.04
			c0,0.58,0.17,1.06,0.5,1.43c0.33,0.37,0.77,0.56,1.33,0.56c0.53,0,1-0.19,1.42-0.56c0.42-0.37,0.68-0.88,0.77-1.51l1.26,0.53
			c-0.13,0.86-0.54,1.56-1.23,2.09c-0.68,0.53-1.47,0.79-2.36,0.79C102.91,80.06,102.35,79.92,101.85,79.65"/>
		<path clip-path="url(#SVGID_00000124134581131468451210000003654832018726577082_)" d="M108.37,67.17
			c-0.21-0.21-0.31-0.48-0.31-0.82c0-0.32,0.1-0.59,0.31-0.8c0.21-0.21,0.48-0.31,0.82-0.31c0.34,0,0.62,0.1,0.83,0.31
			c0.22,0.21,0.33,0.48,0.33,0.8c0,0.34-0.11,0.61-0.33,0.82c-0.22,0.21-0.49,0.31-0.83,0.31
			C108.85,67.49,108.58,67.38,108.37,67.17 M108.4,69.41h1.54v10.24h-1.54V69.41z"/>
		<path clip-path="url(#SVGID_00000124134581131468451210000003654832018726577082_)" d="M115.04,79.65
			c-0.49-0.27-0.87-0.65-1.15-1.12c-0.27-0.48-0.41-1.02-0.41-1.63v-6.2h-2.25v-1.28h2.25v-3.04l1.54-0.36v3.41h4.58v1.28h-4.58
			v6.04c0,0.58,0.17,1.06,0.5,1.43c0.33,0.37,0.77,0.56,1.33,0.56c0.53,0,1-0.19,1.42-0.56c0.42-0.37,0.68-0.88,0.77-1.51l1.26,0.53
			c-0.14,0.86-0.54,1.56-1.23,2.09c-0.68,0.53-1.47,0.79-2.36,0.79C116.09,80.06,115.53,79.92,115.04,79.65"/>
		<path clip-path="url(#SVGID_00000124134581131468451210000003654832018726577082_)" d="M123.44,79.48
			c-0.64-0.39-1.14-0.92-1.49-1.6c-0.35-0.68-0.53-1.46-0.53-2.34v-6.12h1.54v6.12c0,0.61,0.12,1.15,0.36,1.61
			c0.24,0.47,0.57,0.83,1,1.1c0.43,0.27,0.94,0.41,1.52,0.41c0.58,0,1.13-0.14,1.63-0.44c0.51-0.29,0.91-0.69,1.22-1.2
			c0.31-0.51,0.46-1.08,0.46-1.71v-5.9h1.56v10.24h-1.4l-0.16-1.5c-0.34,0.6-0.83,1.06-1.47,1.4c-0.64,0.34-1.32,0.51-2.02,0.51
			C124.83,80.06,124.09,79.86,123.44,79.48"/>
		<path clip-path="url(#SVGID_00000124134581131468451210000003654832018726577082_)" d="M135.73,79.65
			c-0.49-0.27-0.87-0.65-1.15-1.12c-0.27-0.48-0.41-1.02-0.41-1.63v-6.2h-2.25v-1.28h2.25v-3.04l1.54-0.36v3.41h4.58v1.28h-4.58
			v6.04c0,0.58,0.17,1.06,0.5,1.43c0.33,0.37,0.77,0.56,1.33,0.56c0.53,0,1-0.19,1.42-0.56c0.42-0.37,0.68-0.88,0.77-1.51l1.26,0.53
			c-0.14,0.86-0.54,1.56-1.23,2.09c-0.68,0.53-1.47,0.79-2.36,0.79C136.78,80.06,136.22,79.92,135.73,79.65"/>
		<path clip-path="url(#SVGID_00000124134581131468451210000003654832018726577082_)" d="M149.65,69.7c0.75,0.46,1.33,1.1,1.75,1.94
			c0.42,0.83,0.64,1.77,0.65,2.81v0.29c0,0.1-0.01,0.21-0.02,0.31h-8.62c0.07,0.7,0.28,1.33,0.65,1.88
			c0.36,0.55,0.85,0.97,1.44,1.28c0.59,0.3,1.26,0.46,1.99,0.46c0.78,0,1.5-0.18,2.14-0.55c0.64-0.36,1.1-0.83,1.39-1.4l1.34,0.55
			c-0.35,0.82-0.97,1.5-1.85,2.02c-0.89,0.52-1.9,0.78-3.03,0.78c-1.08,0-2.05-0.24-2.91-0.72c-0.86-0.48-1.53-1.15-2.02-2.02
			c-0.49-0.86-0.73-1.83-0.73-2.9c0-1.03,0.22-1.95,0.67-2.78c0.45-0.82,1.07-1.47,1.87-1.93c0.8-0.47,1.7-0.7,2.7-0.7
			C148.03,69.01,148.9,69.24,149.65,69.7 M145.31,70.83c-0.51,0.27-0.92,0.65-1.25,1.15c-0.32,0.5-0.53,1.07-0.63,1.7h6.97
			c-0.08-0.65-0.27-1.22-0.57-1.71c-0.3-0.49-0.69-0.88-1.18-1.15c-0.49-0.27-1.03-0.41-1.64-0.41
			C146.39,70.43,145.82,70.56,145.31,70.83"/>
		<path clip-path="url(#SVGID_00000124134581131468451210000003654832018726577082_)" d="M154.23,79.87
			c-0.22-0.13-0.4-0.3-0.53-0.52c-0.13-0.22-0.19-0.48-0.19-0.75c0-0.28,0.06-0.53,0.19-0.75c0.13-0.22,0.3-0.4,0.53-0.53
			c0.22-0.13,0.48-0.19,0.75-0.19c0.28,0,0.53,0.06,0.75,0.19s0.4,0.3,0.52,0.53c0.13,0.22,0.19,0.48,0.19,0.76
			c0,0.28-0.06,0.53-0.19,0.75c-0.13,0.22-0.3,0.4-0.52,0.52c-0.22,0.13-0.47,0.19-0.75,0.19
			C154.71,80.06,154.46,79.99,154.23,79.87 M155.67,79.74c0.2-0.11,0.36-0.27,0.47-0.47c0.11-0.2,0.17-0.43,0.17-0.68
			c0-0.25-0.06-0.48-0.17-0.68c-0.11-0.2-0.27-0.36-0.47-0.48c-0.2-0.12-0.42-0.17-0.67-0.17c-0.25,0-0.48,0.06-0.68,0.17
			c-0.2,0.11-0.36,0.27-0.48,0.48c-0.11,0.2-0.17,0.43-0.17,0.68c0,0.25,0.06,0.47,0.17,0.68c0.11,0.2,0.27,0.36,0.48,0.47
			c0.2,0.11,0.43,0.17,0.68,0.17C155.25,79.91,155.47,79.85,155.67,79.74"/>
		<path clip-path="url(#SVGID_00000124134581131468451210000003654832018726577082_)" d="M155.74,79.52l-0.45-0.8
			c0.05-0.01,0.1-0.03,0.15-0.05c0.09-0.05,0.17-0.11,0.22-0.2c0.05-0.08,0.08-0.18,0.08-0.28c0,0,0-0.01,0-0.01
			c0-0.1-0.02-0.19-0.07-0.27c-0.05-0.08-0.12-0.14-0.21-0.19c-0.09-0.04-0.19-0.07-0.3-0.07h-0.78v1.87h0.28v-0.78h0.35l0.44,0.79
			L155.74,79.52z M154.64,78.5v-0.62h0.41c0.12,0,0.22,0.03,0.29,0.08c0.07,0.06,0.11,0.13,0.11,0.23c0,0.1-0.04,0.17-0.11,0.23
			c-0.07,0.05-0.17,0.08-0.28,0.08H154.64z"/>
	</g>
</g>
<g display="none">
	<g display="inline">
		<g>
			<path fill="#F05138" d="M62.12,36.14c0-0.62-0.01-1.25-0.03-1.87c-0.04-1.36-0.12-2.73-0.36-4.08c-0.25-1.37-0.65-2.64-1.28-3.88
				c-0.62-1.22-1.43-2.34-2.4-3.3c-0.97-0.97-2.08-1.78-3.3-2.4c-1.24-0.63-2.51-1.03-3.88-1.28c-1.35-0.24-2.72-0.32-4.08-0.36
				c-0.63-0.02-1.25-0.02-1.87-0.03c-0.74,0-1.48,0-2.23,0H26.25h-6.81c-0.74,0-1.48,0-2.23,0c-0.63,0-1.25,0.01-1.87,0.03
				c-0.34,0.01-0.68,0.02-1.02,0.04c-1.02,0.05-2.05,0.14-3.06,0.32c-1.02,0.18-2,0.46-2.94,0.85C8,20.3,7.68,20.45,7.37,20.6
				c-0.92,0.47-1.77,1.04-2.55,1.7c-0.26,0.22-0.51,0.45-0.75,0.7c-0.97,0.97-1.78,2.08-2.4,3.3c-0.63,1.24-1.03,2.51-1.28,3.88
				c-0.24,1.35-0.32,2.72-0.36,4.08C0.02,34.89,0.01,35.52,0,36.14c0,0.74,0,1.48,0,2.23V48.5v13.13c0,0.74,0,1.48,0,2.23
				c0,0.62,0.01,1.25,0.03,1.87c0.04,1.36,0.12,2.73,0.36,4.08c0.25,1.37,0.65,2.64,1.28,3.88c0.62,1.22,1.43,2.34,2.4,3.3
				c0.97,0.97,2.08,1.78,3.3,2.4c1.24,0.63,2.51,1.03,3.88,1.28c1.35,0.24,2.72,0.32,4.08,0.36c0.62,0.02,1.25,0.02,1.87,0.03
				c0.74,0.01,1.48,0,2.23,0h23.26c0.74,0,1.48,0,2.23,0c0.63,0,1.25-0.01,1.87-0.03c1.36-0.04,2.73-0.12,4.08-0.36
				c1.37-0.25,2.64-0.65,3.88-1.28c1.22-0.62,2.34-1.43,3.3-2.4c0.97-0.97,1.78-2.08,2.4-3.3c0.63-1.24,1.03-2.51,1.28-3.88
				c0.24-1.35,0.32-2.72,0.36-4.08c0.02-0.62,0.02-1.25,0.03-1.87c0-0.74,0-1.48,0-2.23V38.37C62.13,37.63,62.13,36.89,62.12,36.14z
				"/>
			<path fill="#FFFFFF" d="M49.23,57.29C49.23,57.28,49.23,57.28,49.23,57.29c0.06-0.24,0.14-0.47,0.2-0.71
				C52,46.3,45.71,34.16,35.06,27.76c4.67,6.33,6.73,13.99,4.9,20.69c-0.16,0.6-0.36,1.17-0.58,1.73c-0.24-0.15-0.53-0.33-0.93-0.55
				c0,0-10.59-6.54-22.08-18.11c-0.3-0.3,6.12,9.18,13.41,16.88c-3.43-1.93-13.01-8.89-19.07-14.44c0.74,1.24,1.63,2.44,2.6,3.59
				c5.06,6.42,11.66,14.34,19.57,20.42c-5.56,3.4-13.4,3.66-21.22,0c-1.93-0.91-3.75-2-5.43-3.24c3.31,5.29,8.4,9.86,14.6,12.52
				c7.4,3.18,14.75,2.96,20.23,0.05l0,0.01c0.03-0.02,0.06-0.03,0.08-0.05c0.22-0.12,0.45-0.24,0.67-0.37
				c2.63-1.37,7.83-2.75,10.62,2.68C53.12,70.9,54.57,63.85,49.23,57.29z"/>
		</g>
	</g>
	<g id="XMLID_1_" display="inline">
		<g>
			<path d="M85.71,59.25c0.49,4.31,4.6,7.14,10.31,7.14c5.42,0,9.34-2.83,9.34-6.74c0-3.37-2.37-5.43-7.82-6.79l-5.28-1.34
				c-7.59-1.88-11.02-5.31-11.02-10.96c0-6.97,6.08-11.79,14.73-11.79c8.39,0,14.36,4.85,14.56,11.85h-5.57
				c-0.43-4.28-3.91-6.91-9.14-6.91c-5.17,0-8.76,2.66-8.76,6.54c0,3.03,2.23,4.83,7.71,6.22l4.4,1.14
				c8.51,2.08,11.99,5.4,11.99,11.36c0,7.59-6.02,12.36-15.62,12.36c-8.91,0-14.99-4.74-15.44-12.08H85.71z"/>
			<path d="M146.51,70.65h-5.6l-6.54-22.78h-0.11l-6.51,22.78h-5.6l-8.28-29.83h5.42l5.77,23.95h0.11l6.51-23.95h5.25l6.57,23.95
				h0.11l5.77-23.95h5.37L146.51,70.65z"/>
			<path d="M158.37,32.79c0-1.8,1.48-3.25,3.28-3.25c1.83,0,3.31,1.46,3.31,3.25c0,1.8-1.48,3.28-3.31,3.28
				C159.85,36.07,158.37,34.59,158.37,32.79z M158.94,40.81h5.45v29.83h-5.45V40.81z"/>
			<path d="M200,45.21v-4.4h-5.77v-7.14h-5.42v7.14h-4.42h-6v-2.63c0.03-2.66,1.06-3.77,3.51-3.77c0.8,0,1.6,0.09,2.26,0.2v-4.28
				c-0.97-0.14-1.86-0.23-2.88-0.23c-5.82,0-8.28,2.43-8.28,7.99v2.71h-4.17v4.4h4.17v25.44h5.42V45.21h5.97h4.42v17.61
				c0,5.77,2.2,7.99,7.91,7.99c1.23,0,2.63-0.09,3.25-0.23v-4.45c-0.37,0.06-1.46,0.14-2.06,0.14c-2.54,0-3.68-1.2-3.68-3.88V45.21
				H200z"/>
		</g>
	</g>
</g>
<g>
	<path fill="#E63523" d="M96.68,56.86H86.16l-2.64,7.96c-0.04,0.24-0.2,0.36-0.48,0.36h-4.76c-0.32,0-0.4-0.16-0.32-0.44l9.44-26.96
		c0.2-0.44,0.36-1.32,0.4-2.56c0-0.2,0.12-0.28,0.32-0.28h6.52c0.16,0,0.28,0.08,0.36,0.24l10.52,29.6c0.08,0.28,0,0.4-0.28,0.4
		h-5.36c-0.2,0-0.36-0.12-0.44-0.32L96.68,56.86z M87.32,52.46h8.16c-0.12-0.44-0.76-2.36-1.92-5.76c-1.12-3.44-1.88-5.8-2.24-7.08
		h-0.04C90.96,41.18,89.64,45.46,87.32,52.46z"/>
	<path fill="#E63523" d="M118.32,65.62c-3.52,0-6.32-0.96-8.48-2.84c-2.12-1.92-3.16-4.76-3.16-8.48c0-3.36,1.12-6.12,3.4-8.32
		s5.36-3.32,9.2-3.32c1.04,0,1.92,0.08,2.56,0.28V32.78c0-0.2,0.12-0.32,0.32-0.32h5.16c0.2,0,0.28,0.08,0.28,0.28V60.1
		c0,0.52,0.04,1.56,0.12,3.08c0.04,0.2-0.08,0.36-0.28,0.4C124.6,64.94,121.56,65.62,118.32,65.62z M121.8,60.9V47.14
		c-0.68-0.32-1.56-0.48-2.64-0.48c-2,0-3.6,0.64-4.8,1.96c-1.2,1.28-1.8,3.08-1.8,5.44c0,2.48,0.6,4.32,1.8,5.52
		c1.2,1.2,2.72,1.8,4.6,1.8C120.2,61.42,121.12,61.26,121.8,60.9z"/>
	<path fill="#E63523" d="M142.2,42.66c3.44,0,6.16,1.08,8.12,3.24c1.96,2.16,2.96,4.88,2.96,8.16c0,3.56-1.04,6.4-3.08,8.48
		c-2.04,2.04-4.76,3.08-8.08,3.08c-3.68,0-6.44-1.12-8.36-3.32c-1.92-2.24-2.84-4.96-2.84-8.16c0-3.36,1.04-6.12,3.08-8.28
		C136.08,43.74,138.8,42.66,142.2,42.66z M141.96,46.62c-1.56,0-2.84,0.68-3.8,2c-0.96,1.32-1.44,3.12-1.44,5.44
		s0.48,4.16,1.44,5.52c0.96,1.36,2.32,2.04,4.04,2.04c1.48,0,2.72-0.64,3.72-1.88c1-1.28,1.48-3.16,1.48-5.64
		c0-2.28-0.44-4.08-1.36-5.44C145.16,47.3,143.8,46.62,141.96,46.62z"/>
	<path fill="#E63523" d="M156.88,32.46h5.08c0.24,0,0.36,0.12,0.36,0.36V43.5c1.48-0.56,3.04-0.8,4.72-0.8c3.16,0,5.68,1,7.56,3.04
		c1.92,2,2.84,4.6,2.84,7.76c0,3.8-1.16,6.76-3.52,8.96c-2.36,2.16-5.16,3.24-8.44,3.24c-3.4,0-6.28-0.56-8.68-1.72
		c-0.2-0.08-0.28-0.24-0.28-0.44V32.78C156.56,32.54,156.64,32.46,156.88,32.46z M171.56,54.02c0-2.32-0.52-4.08-1.6-5.28
		c-1.04-1.2-2.44-1.8-4.24-1.8c-1.32,0-2.48,0.24-3.44,0.72V60.9c0.88,0.48,2.04,0.72,3.48,0.72c1.6,0,2.96-0.64,4.08-1.96
		C171,58.34,171.56,56.46,171.56,54.02z"/>
	<path fill="#E63523" d="M194.8,55.18h-9.12c0.04,1.84,0.6,3.32,1.72,4.44c1.16,1.08,2.8,1.64,5,1.64c2.16,0,4.04-0.36,5.64-1.12
		c0.2-0.08,0.28,0,0.28,0.24v3.4c0,0.28-0.08,0.44-0.28,0.56c-1.92,0.88-4.2,1.32-6.84,1.32c-2.04,0-3.8-0.32-5.32-0.96
		c-1.52-0.64-2.68-1.48-3.52-2.6c-0.84-1.08-1.48-2.28-1.92-3.56c-0.4-1.32-0.6-2.68-0.6-4.16c0-3.28,0.96-6.08,2.84-8.32
		c1.92-2.28,4.56-3.4,7.88-3.4c3.16,0,5.52,0.92,7.08,2.8s2.36,4.08,2.36,6.6c0,0.92-0.08,1.8-0.2,2.6
		c-0.04,0.2-0.16,0.32-0.36,0.36C198.6,55.14,197.04,55.18,194.8,55.18z M185.64,51.66h6.44c1.44,0,2.24-0.04,2.4-0.08
		c0.04-0.12,0.04-0.32,0.04-0.64c0-1.16-0.32-2.16-1-3.08c-0.64-0.92-1.68-1.36-3.16-1.36c-1.44,0-2.56,0.48-3.36,1.48
		C186.24,48.94,185.8,50.18,185.64,51.66z"/>
	<polygon fill="#E63523" points="37.76,23.5 59.88,23.5 59.88,76.5 	"/>
	<polygon fill="#E63523" points="22.16,23.5 0,23.5 0,76.5 	"/>
	<polygon fill="#E63523" points="29.96,43.02 44.04,76.5 34.8,76.5 30.6,65.82 20.28,65.82 	"/>
</g>
</svg>
