<?xml version="1.0" encoding="UTF-8"?>
<svg id="Layer_1" data-name="Layer 1" xmlns="http://www.w3.org/2000/svg" version="1.1" viewBox="0 0 550 550">
  <defs>
    <style>
      .cls-1 {
        fill: #000;
      }

      .cls-1, .cls-2, .cls-3, .cls-4, .cls-5 {
        stroke-width: 0px;
      }

      .cls-2 {
        fill: #4f17a8;
      }

      .cls-3 {
        fill: #231f20;
      }

      .cls-4 {
        fill: #ff610f;
      }

      .cls-5 {
        fill: #05bfe0;
      }
    </style>
  </defs>
  <g id="logo_pmi" data-name="logo/pmi">
    <g id="Logo">
      <path id="Fill-1" class="cls-5" d="M93,304.2c0-8.8,7.1-15.9,15.8-15.9h0v-15.9h-63.4v15.9c8.8,0,15.9,7.1,15.9,15.9h0c0,8.8-7.1,15.9-15.9,15.9v15.8h63.5v-15.9c-8.8,0-15.9-7-15.9-15.8h0Z"/>
      <path id="Fill-3" class="cls-4" d="M144.8,236.5c0-17.5-14.2-31.7-31.7-31.7v63.4c17.5,0,31.7-14.2,31.7-31.7,0,17.5,14.2,31.7,31.7,31.7v-63.4c-17.5,0-31.7,14.2-31.7,31.7"/>
      <path id="Fill-5" class="cls-3" d="M87.1,236.5h-29.7v-19.8h29.7c5.5,0,9.9,4.4,9.9,9.9,0,5.5-4.5,9.9-9.9,9.9h0ZM89,204.9c-.7,0-1.3,0-1.9,0h-41.6v63.4h11.8v-19.8h29.7c.7,0,1.3,0,1.9,0,12-1,20.8-11.6,19.8-23.6-.9-10.6-9.2-19-19.7-19.9h0Z"/>
      <polygon id="Fill-7" class="cls-2" points="113.1 335.9 113.1 316.9 132.1 335.9 113.1 335.9"/>
      <polygon id="Fill-9" class="cls-2" points="150.4 335.9 115.2 300.7 115.2 283 168.1 335.9 150.4 335.9"/>
      <polygon id="Fill-11" class="cls-2" points="178.7 272.5 178.7 291.5 159.7 272.5 178.7 272.5"/>
      <polygon id="Fill-13" class="cls-2" points="176.5 325.3 123.7 272.5 141.4 272.5 176.5 307.6 176.5 325.3"/>
      <path id="Fill-15" class="cls-1" d="M184.4,331.7h.9l1.5,3.4,1.5-3.4h.9v4.2h-.7v-3.3l-1.4,3.3h-.6l-1.4-3.3v3.3h-.7v-4.2ZM182.1,332.3h-1.3v-.6h3.2v.6h-1.3v3.6h-.7s0-3.6,0-3.6Z"/>
      <path id="Fill-17" class="cls-1" d="M224.1,219c1.1,0,2.2-.2,3.1-.7.9-.4,1.6-1,2.2-1.9.5-.7.8-1.7.7-2.6,0-1-.2-1.9-.7-2.7s-1.3-1.4-2.2-1.8c-1-.4-2.1-.7-3.2-.7h-6.2v10.3h6.3ZM210.4,202.7h15c2.1,0,4.1.4,6,1.3,1.9.8,3.4,2.2,4.7,3.8,1.2,1.8,1.9,3.9,1.8,6.1,0,2-.5,4-1.6,5.7-1.1,1.7-2.6,3.1-4.5,4-2,1-4.3,1.5-6.5,1.4h-7.3v11.5h-7.5v-33.7Z"/>
      <path id="Fill-19" class="cls-1" d="M242.1,211.8h5.5l1,3.6c.5-1.3,1.5-2.4,2.7-3.2,1.2-.7,2.6-1.1,4.1-1.1s2.6.3,3.7,1c1.1.7,2,1.6,2.7,2.7.7,1.3,1.1,2.6,1.3,4l-5.8,1.6c0-1.1-.4-2.2-1.3-3-.7-.7-1.6-1.2-2.7-1.2s-1.6.2-2.2.7-1.3,1.3-1.6,2.1c-.4,1-.5,2-.5,3v12.4h-7v-22.6Z"/>
      <path id="Fill-21" class="cls-1" d="M281.2,228.2c.9-.5,1.6-1.3,2.2-2.2.5-1,.7-2.1.7-3.1s-.2-2.2-.7-3.2c-.5-.9-1.2-1.6-2.2-2.2-.9-.5-2-.8-3.1-.8s-2.2.2-3.1.8c-.9.5-1.6,1.3-2.1,2.2-.5,1-.8,2.1-.7,3.2,0,1.1.2,2.2.7,3.1.4.9,1.2,1.6,2.1,2.2s2,.8,3.1.8c1.1,0,2.2-.3,3.1-.8h0ZM271.5,233c-1.9-.9-3.4-2.3-4.5-4-1.1-1.9-1.7-4-1.6-6.1,0-2.1.5-4.3,1.6-6.1,1-1.7,2.7-3.1,4.6-4.1,4.2-1.9,9-1.9,13.2,0,1.9.9,3.4,2.3,4.4,4.1,1.1,1.9,1.6,4,1.6,6.1,0,2.1-.5,4.3-1.6,6.1-1,1.7-2.6,3.1-4.5,4-4.2,1.9-9,1.9-13.2,0h0Z"/>
      <g id="Group-25">
        <path id="Fill-23" class="cls-1" d="M293.8,208.1c-.7-.7-1.2-1.8-1.2-2.8,0-1,.4-2.1,1.1-2.8,1.7-1.5,4.3-1.5,5.9,0,.7.7,1.2,1.8,1.1,2.8,0,1-.4,2.1-1.1,2.8-1.6,1.5-4.1,1.5-5.8,0h0ZM286.2,245.7c-1.3-.6-2.4-1.5-3.2-2.6l3.1-4c.4.7,1,1.3,1.6,1.8.7.4,1.4.6,2.2.6,1.3,0,2.5-.7,3-1.9.3-.7.4-1.3.4-2v-25.3h6.9v26.2c0,3-1.6,5.8-4.4,7-1.5.7-3.1,1-4.8,1-1.6,0-3.2-.3-4.7-1h0Z"/>
      </g>
      <path id="Fill-26" class="cls-1" d="M313.5,216.5c-.7.4-1.4,1-1.9,1.7-.5.7-.8,1.6-1,2.5h10.6c0-.9-.4-1.7-.8-2.5-.9-1.4-2.5-2.3-4.3-2.3s-1.8.2-2.6.6M322.6,212.6c1.8.9,3.3,2.3,4.2,4,1,1.9,1.6,4,1.5,6.1v1c0,.3,0,.6,0,.8h-17.6c.1,1,.5,1.9,1.2,2.7.7.7,1.6,1.4,2.6,1.8,1.1.4,2.2.6,3.4.6s2.8-.3,4-.8c1.1-.4,2-1.1,2.7-2l4.1,2.7c-1,1.6-2.6,2.8-4.5,3.5-2.2.9-4.6,1.3-7.1,1.3s-4.9-.4-7.1-1.5c-2-1-3.7-2.4-4.9-4.2-1.2-1.8-1.9-3.9-1.8-6.1,0-2.1.5-4.1,1.6-6,1-1.7,2.6-3.1,4.6-4,2-1,4.3-1.5,6.5-1.4,2.5,0,4.6.5,6.6,1.5"/>
      <path id="Fill-28" class="cls-1" d="M337.3,233c-1.9-1-3.5-2.4-4.6-4.1-1.1-1.8-1.7-3.9-1.6-6,0-2.1.5-4.2,1.6-6,1-1.7,2.5-3.1,4.3-4.1,1.9-1,4.1-1.5,6.3-1.5s3.5.3,5.2,1c1.6.6,2.9,1.5,4,2.7,1,1.1,1.8,2.5,2.2,4l-6.3,1.5c-.2-1-.9-2-1.8-2.7-.9-.7-2-1-3.1-1s-1.9.3-2.8.8c-.8.6-1.5,1.3-1.9,2.2-.5,1-.7,2.2-.7,3.3s.2,2.2.8,3.3c.5.9,1.3,1.7,2.2,2.2,1.8,1,4,1,5.8.1.8-.4,1.6-1,2.1-1.7.6-.7,1-1.6,1-2.5l6.4.8c-.2,1.7-1,3.4-2.1,4.7-1.2,1.4-2.7,2.5-4.5,3.3-3.9,1.6-8.5,1.4-12.4-.4h0Z"/>
      <path id="Fill-30" class="cls-1" d="M365.4,235.5c-1.3-.7-2.5-1.6-3.2-2.9-.7-1.4-1.1-2.9-1.1-4.5v-10.2h-4.7v-5.2h4.7v-6.4l7.2-1.5v7.9c0,0,9.9,0,9.9,0v5.2h-10v9.1c0,1,.4,2.1,1.1,3,.7.7,1.7,1.1,2.7,1.1s2.1-.3,2.9-.9c.9-.7,1.6-1.5,2.1-2.4l2.5,4c-.9,1.5-2.1,2.7-3.7,3.6-1.6.8-3.5,1.3-5.4,1.2-1.7-.1-3.5-.4-5.1-1.2"/>
      <polygon id="Fill-32" class="cls-1" points="210.4 253.4 216.1 253.4 228.4 281.1 240.6 253.4 246.3 253.4 246.3 285.1 242.4 285.1 242.4 258.8 230.4 285.1 226.3 285.1 214.3 258.9 214.3 285.1 210.4 285.1 210.4 253.4"/>
      <path id="Fill-34" class="cls-1" d="M264,281.2c1.1-.6,2.2-1.4,2.8-2.5.7-1.1,1-2.4,1-3.7v-1.6l-6.8.8c-2.5.3-4.3.8-5.4,1.6-1,.5-1.6,1.6-1.6,2.6,0,1.1.7,2.1,1.6,2.6,1.3.7,2.8,1,4.3,1,1.4.1,2.8-.2,4-.8M254.8,284.3c-1.2-.4-2.3-1.3-3.1-2.3-.7-1-1.1-2.2-1.1-3.4s.4-2.2,1-3.2c.8-1,1.9-1.9,3.2-2.5,1.8-.7,3.7-1.3,5.7-1.4l5.5-.7c.5,0,1-.2,1.3-.5.3-.3.5-.7.5-1.1,0-.8-.3-1.6-.9-2.3-.7-.7-1.4-1.2-2.4-1.6-1-.4-2.1-.6-3.2-.5-1.3,0-2.5.2-3.6.7-1,.4-1.9,1.1-2.5,1.9-.6.7-1,1.5-1,2.4l-3-1.2c.1-1.2.7-2.4,1.6-3.3,1-1.1,2.2-1.9,3.7-2.5,1.6-.6,3.3-1,5.1-.9,1.7,0,3.4.3,5,1,1.3.6,2.5,1.6,3.4,2.8.8,1.2,1.3,2.7,1.2,4.1v10.9c0,.4,0,.7.3,1,.2.2.5.4.9.4s.7-.1.9-.4c.4-.2.7-.6.9-.9l1.8,2c-.5.7-1.2,1.3-1.9,1.6s-1.6.6-2.5.6c-1.9,0-3.6-1.4-3.7-3.3v-1.1c-.5.9-1.2,1.7-2,2.4-.9.7-1.9,1.2-2.9,1.6-1.1.4-2.4.5-3.6.5-1.6,0-3.1-.3-4.5-.9"/>
      <path id="Fill-36" class="cls-1" d="M278,262.8h3.2l.3,3.3c.8-1.3,1.9-2.4,3.4-3.1,1.4-.7,3-1.1,4.6-1.1s3.5.4,5,1.3c1.4.8,2.6,2,3.4,3.5.8,1.6,1.2,3.3,1.2,5.1v13.4h-3.5v-13.3c0-1.2-.2-2.4-.7-3.5-.5-1-1.3-1.8-2.2-2.4-1-.6-2.2-.9-3.4-.9-4.2,0-7.6,3.2-7.6,7.2h0v13h-3.5v-22.5h0Z"/>
      <path id="Fill-38" class="cls-1" d="M316.8,281.2c1.1-.6,2.2-1.4,2.8-2.5.7-1.1,1-2.3,1-3.7v-1.6l-6.8.8c-2.5.3-4.3.8-5.4,1.6-1,.5-1.6,1.6-1.6,2.6,0,1.1.7,2.1,1.6,2.6,1.3.7,2.8,1,4.3,1,1.4.1,2.8-.2,4.1-.8M307.7,284.3c-1.2-.4-2.3-1.3-3.1-2.3-.7-1-1.1-2.2-1.1-3.4s.4-2.2,1-3.2c.8-1,1.9-1.9,3.2-2.5,1.8-.7,3.7-1.3,5.7-1.4l5.5-.7c.5,0,1-.2,1.3-.5.3-.3.5-.7.5-1,0-.8-.3-1.6-.9-2.3-.7-.7-1.5-1.2-2.4-1.6-1-.4-2.1-.6-3.2-.5-1.3,0-2.5.2-3.6.7-1,.4-1.9,1-2.5,1.9-.6.7-1,1.5-1,2.4l-3-1.2c.1-1.3.7-2.4,1.6-3.3,1-1.1,2.2-1.9,3.7-2.5,1.6-.6,3.3-1,5.1-.9,1.7,0,3.4.3,4.9,1,1.4.6,2.6,1.6,3.4,2.8s1.3,2.7,1.2,4.1v10.9c0,.4,0,.7.3,1,.2.2.5.4.9.4s.7-.1.9-.4c.4-.2.7-.6.9-.9l1.8,2c-.5.7-1.2,1.3-1.9,1.6s-1.6.6-2.5.6c-1.9,0-3.6-1.4-3.7-3.3v-1.1c-.5.9-1.2,1.7-2,2.4-.9.7-1.9,1.2-2.9,1.6-1.1.4-2.4.5-3.6.5-1.5,0-3-.3-4.4-.9"/>
      <path id="Fill-40" class="cls-1" d="M346.8,282.4c1.3-.7,2.3-1.9,3-3.3.7-1.4,1.1-3.1,1-4.7,0-1.7-.4-3.4-1-4.9-.7-1.4-1.7-2.5-3-3.4s-2.8-1.2-4.3-1.2c-3.1,0-5.9,1.7-7.3,4.6s-1.1,3.1-1,4.9c0,1.6.4,3.2,1.1,4.7s1.7,2.5,3,3.3c2.6,1.6,5.8,1.6,8.5,0h0ZM336.1,296.9c-1.6-.6-3.1-1.4-4.4-2.6-1.2-1-2.2-2.4-2.8-3.8l2.8-2c.4,1.2,1,2.3,1.9,3.2,1,1,2.1,1.7,3.4,2.2,1.4.5,2.8.8,4.3.8s3.4-.4,4.9-1.2c1.3-.7,2.5-1.9,3.3-3.3.8-1.5,1.2-3.1,1.1-4.8v-3.1c-.9,1.5-2.2,2.7-3.7,3.5s-3.2,1.3-4.9,1.3-4-.5-5.8-1.6c-1.7-1-3.1-2.6-4-4.4s-1.5-4.1-1.4-6.4c0-2.2.4-4.4,1.4-6.4,1.9-3.8,5.8-6.2,9.9-6.1,3.5,0,6.8,1.7,8.7,4.7l.4-3.9h3.1v22.6c0,2.2-.5,4.5-1.6,6.5-1,1.9-2.6,3.4-4.5,4.5-2,1.1-4.3,1.6-6.5,1.6-1.8-.1-3.6-.5-5.4-1.1h0Z"/>
      <path id="Fill-42" class="cls-1" d="M366.1,265.7c-1.1.6-2.1,1.4-2.8,2.4-.7,1.1-1.2,2.3-1.4,3.6h15.4c-.1-1.3-.6-2.5-1.3-3.6-.6-1-1.5-1.9-2.6-2.4-1.1-.6-2.3-.9-3.6-.8-1.2,0-2.5.3-3.7.8M375.7,263.3c1.6,1,3,2.4,3.9,4,1,1.8,1.4,3.8,1.4,5.9v.6c0,.2,0,.4,0,.7h-19c.1,1.4.6,2.8,1.4,4,.8,1.1,1.9,2.1,3.1,2.7,2.9,1.3,6.3,1.3,9.1-.2,1.3-.7,2.4-1.7,3.1-2.9l2.9,1.1c-.8,1.8-2.2,3.3-4.1,4.2-4,2.2-9,2.2-13.1.1-1.9-1-3.4-2.5-4.4-4.2-2.1-3.7-2.2-8.2-.1-12,1-1.7,2.4-3.1,4.1-4,1.8-1,3.9-1.5,5.9-1.5,2.1,0,4.1.5,5.8,1.5"/>
      <path id="Fill-44" class="cls-1" d="M383.8,262.8h3.1l.4,2.8c.7-1.1,1.7-2.1,2.9-2.7,1.2-.7,2.6-1,4-1s3.5.4,5,1.3c1.4.8,2.5,2,3.2,3.4.7-1.4,1.9-2.5,3.2-3.4,4.3-2.5,9.9-1.3,12.5,2.8.1.2.3.4.4.7.8,1.6,1.2,3.3,1.2,5.1v13.3h-3.5v-13.4c0-1.2-.2-2.4-.7-3.5-.4-1-1.3-1.8-2.2-2.4-1-.6-2.1-.9-3.2-.9s-2.3.3-3.4.9c-1,.6-1.8,1.4-2.3,2.4-.6,1-.8,2.2-.8,3.5v13.4h-3.5v-13.4c0-1.2-.2-2.4-.7-3.5-.4-1-1.2-1.8-2.2-2.4-1-.6-2.1-.9-3.2-.9s-2.4.3-3.4.9c-1,.6-1.8,1.3-2.2,2.4-.5,1.1-.8,2.2-.8,3.5v13.4h-3.5v-22.3h0Z"/>
      <path id="Fill-46" class="cls-1" d="M431.7,265.7c-1.1.6-2.1,1.4-2.8,2.4-.7,1.1-1.2,2.3-1.4,3.6h15.4c-.1-1.3-.6-2.5-1.3-3.6-.6-1-1.5-1.9-2.6-2.4-1.1-.6-2.3-.9-3.6-.8-1.3,0-2.6.2-3.7.8h0ZM441.3,263.3c1.6,1,3,2.4,3.9,4,1,1.9,1.4,3.8,1.4,5.9v.6c0,.2,0,.4,0,.7h-19c.1,1.4.6,2.8,1.4,4,.8,1.1,1.9,2.1,3.1,2.7,2.9,1.3,6.3,1.3,9.1-.2,1.3-.7,2.4-1.7,3.1-2.9l2.9,1.1c-.8,1.8-2.3,3.3-4.1,4.2-4,2.2-9,2.2-13.1.1-1.9-1-3.4-2.5-4.4-4.2-1-1.9-1.6-4-1.6-6.1,0-2,.4-4,1.5-5.8,1-1.7,2.4-3.1,4.1-4,1.8-1,3.9-1.5,6-1.5s4,.5,5.7,1.5h0Z"/>
      <path id="Fill-48" class="cls-1" d="M453.6,262.8h3.1l.3,3.3c.8-1.3,1.9-2.4,3.4-3.1,1.4-.7,3-1.1,4.6-1.1,1.8,0,3.5.4,5.1,1.3,1.4.8,2.6,2,3.4,3.5.8,1.6,1.2,3.3,1.2,5.1v13.4h-3.5v-13.3c0-1.2-.2-2.4-.7-3.5-.5-1-1.3-1.9-2.2-2.4-1-.6-2.2-.9-3.4-.9s-2.6.3-3.7,1c-1.1.6-2.1,1.6-2.7,2.6-.7,1.1-1,2.4-1,3.7v12.8h-3.5v-22.4Z"/>
      <g id="Group-52">
        <path id="Fill-50" class="cls-1" d="M482.6,285.9c-1.1-.6-2.1-1.5-2.8-2.6-.7-1.2-1-2.5-1-3.8v-14.6h-5.5v-3h5.5v-7.1l3.7-.8v8h11.1v3h-11.1v14.2c0,1.2.4,2.4,1.2,3.4.8.9,2,1.3,3.2,1.3s2.5-.4,3.4-1.3c1-.9,1.7-2.2,1.9-3.5l3.1,1.3c-.3,1.9-1.3,3.7-3,4.9-1.6,1.2-3.7,1.9-5.7,1.9-1.5,0-2.9-.4-4.1-1"/>
      </g>
      <polygon id="Fill-53" class="cls-1" points="210.4 335.9 214.6 335.9 214.6 304.2 210.4 304.2 210.4 335.9"/>
      <path id="Fill-55" class="cls-1" d="M218.9,313.6h3.1l.3,3.3c.8-1.3,1.9-2.3,3.4-3.1s3-1.1,4.6-1.1,3.5.4,5,1.3c1.4.8,2.6,2,3.4,3.5.8,1.6,1.2,3.3,1.2,5.1v13.3h-3.5v-13.4c0-1.2-.2-2.4-.8-3.5-.5-1-1.3-1.9-2.2-2.4-1-.6-2.2-.9-3.4-.9s-2.6.3-3.7,1c-1.1.6-2.1,1.6-2.7,2.6-.7,1.1-1,2.4-1,3.7v12.9h-3.5v-22.3Z"/>
      <path id="Fill-56" class="cls-1" d="M250,334.9c-1.5-.6-2.8-1.5-4-2.6-1-1-1.6-2.4-1.9-3.8l3.5-.7c0,1,.5,1.9,1.2,2.6.7.8,1.6,1.4,2.8,1.8,1.2.4,2.5.7,3.7.7s2.2-.1,3.3-.5c.9-.3,1.6-.7,2.3-1.3.5-.5.8-1.2.9-1.9,0-.7-.3-1.3-.9-1.8-.7-.5-1.5-.9-2.3-1-.9-.2-2.1-.5-3.6-.7-1.6-.3-3.4-.6-5-1-1.2-.4-2.3-1-3.2-1.8-.9-1-1.4-2.2-1.3-3.4,0-1.2.4-2.3,1.1-3.3.8-1,1.9-1.8,3.1-2.3,1.4-.6,2.9-.9,4.4-.8,1.5,0,3,.2,4.4.7,1.3.4,2.4,1.2,3.3,2.1.9.8,1.5,1.9,1.7,3.1l-3.3.7c-.1-1.1-.9-2.2-1.9-2.8-1.3-.7-2.7-1.1-4.2-1.1s-1.8.1-2.6.5c-.7.3-1.4.7-1.9,1.3-.4.5-.7,1.2-.7,1.9s.3,1.3.9,1.7c.5.4,1,.7,1.6.8.4,0,1.9.4,4.3.7,1.6.3,3.2.7,4.8,1.2,1.3.4,2.4,1,3.3,1.9s1.3,2,1.3,3.3c0,1.3-.4,2.5-1.3,3.6-.9,1.1-2.2,1.9-3.6,2.5-1.6.6-3.4,1-5.1.9-1.8-.1-3.6-.4-5.3-1.1"/>
      <path id="Fill-57" class="cls-1" d="M274.2,337.1c-1.1-.6-2-1.4-2.7-2.5-.6-1.1-1-2.4-.9-3.7v-14h-5.2v-2.8h5.2v-6.8l3.6-.8v7.7h10.6v2.8h-10.6v13.6c0,1.2.4,2.3,1.1,3.2.8.8,1.9,1.3,3.1,1.3s2.4-.4,3.3-1.3c1-.9,1.6-2.1,1.8-3.4l2.9,1.2c-.3,1.9-1.3,3.6-2.8,4.7-1.6,1.2-3.5,1.8-5.5,1.8-1.3,0-2.6-.4-3.8-1"/>
      <path id="Fill-58" class="cls-1" d="M289.6,311.9h4.3v24h-4.2v-24ZM289.5,306.7c-.6-.5-.9-1.2-.9-1.9s.3-1.3.9-1.9,1.4-.7,2.2-.7,1.6.2,2.3.7c.6.5.9,1.2.9,1.9s-.3,1.4-.9,1.9-1.4.7-2.3.7-1.6-.3-2.2-.7h0Z"/>
      <path id="Fill-59" class="cls-1" d="M303.8,337.1c-1.1-.6-2-1.4-2.7-2.5-.6-1.1-1-2.4-.9-3.7v-14h-5.2v-2.8h5.2v-6.9l3.6-.8v7.7h10.7v2.8h-10.7v13.6c0,1.2.4,2.3,1.1,3.2.8.8,1.9,1.3,3.1,1.3s2.4-.4,3.3-1.3c1-.9,1.6-2.1,1.8-3.4l2.9,1.1c-.3,1.9-1.3,3.6-2.8,4.7-1.6,1.2-3.5,1.8-5.5,1.8-1.3.1-2.6-.1-3.8-.8"/>
      <path id="Fill-60" class="cls-1" d="M322.9,336.8c-1.4-.8-2.6-2-3.4-3.5-.8-1.6-1.2-3.4-1.2-5.1v-13.4h3.5v13.4c0,1.2.2,2.4.8,3.5.5,1,1.3,1.8,2.3,2.4,1,.6,2.2.9,3.4.9s2.6-.3,3.7-1c1.1-.6,2.1-1.6,2.8-2.6.7-1.1,1-2.4,1-3.7v-12.8h3.6v22.3h-3.2l-.4-3.3c-.7,1.3-1.9,2.4-3.4,3.1-1.4.7-3,1.1-4.6,1.1-1.9,0-3.7-.4-5.2-1.3"/>
      <path id="Fill-61" class="cls-1" d="M350.4,337.1c-1.1-.6-2-1.5-2.7-2.5-.6-1.1-1-2.4-.9-3.7v-14h-5.2v-2.8h5.2v-6.9l3.6-.8v7.7h10.7v2.8h-10.7v13.6c0,1.2.4,2.3,1.1,3.2.8.8,1.9,1.3,3.1,1.3s2.4-.4,3.3-1.3c1-.9,1.6-2.1,1.8-3.4l2.9,1.1c-.3,1.9-1.3,3.6-2.8,4.7-1.6,1.2-3.5,1.8-5.5,1.8-1.3.1-2.6-.1-3.8-.8"/>
      <path id="Fill-62" class="cls-1" d="M372.4,316.5c-1.1.6-2.1,1.4-2.8,2.5-.7,1-1.2,2.3-1.4,3.6h15.4c-.1-1.3-.6-2.5-1.3-3.6-.6-1-1.5-1.9-2.6-2.4-1.1-.6-2.4-.9-3.6-.8-1.2,0-2.5.2-3.7.7h0ZM382,314.1c1.6,1,3,2.4,3.9,4,1,1.9,1.4,3.8,1.4,5.9v.6c0,.2,0,.4,0,.7h-19c.1,1.4.6,2.8,1.4,4,.8,1.1,1.9,2.1,3.1,2.7,2.9,1.3,6.3,1.3,9.1-.2,1.3-.7,2.4-1.7,3.1-2.9l3,1.1c-.8,1.8-2.3,3.3-4.1,4.2-4,2.2-9,2.2-13.1.1-1.9-1-3.4-2.5-4.4-4.2-1-1.9-1.6-4-1.6-6.1,0-2,.4-4,1.5-5.8,1-1.7,2.4-3.1,4.1-4,1.8-1,3.9-1.5,6-1.5,1.9,0,3.8.5,5.5,1.5h0Z"/>
      <path id="Fill-63" class="cls-1" d="M396.4,337.1c.6-.3,1-.8,1.3-1.3.7-1.2.7-2.7,0-3.9-.3-.6-.8-1-1.3-1.3-.6-.3-1.3-.5-1.9-.5s-1.3.1-1.9.5c-.6.3-1,.8-1.3,1.3-.3.6-.5,1.3-.5,1.9s.1,1.3.5,1.9c.3.6.8,1,1.3,1.3.6.3,1.3.5,1.9.4.7,0,1.3,0,1.9-.4M392.2,337.5c-.6-.4-1.1-.9-1.5-1.5-.4-.7-.5-1.4-.5-2.2s.1-1.5.5-2.2c.4-.6.9-1.1,1.5-1.5.7-.4,1.4-.6,2.2-.5.7,0,1.5.1,2.2.5.6.4,1.1.9,1.5,1.5.4.7.5,1.4.5,2.2s-.1,1.5-.5,2.2c-.4.6-.9,1.1-1.5,1.5-.7.4-1.4.5-2.2.5-.7,0-1.5-.1-2.2-.5"/>
      <path id="Fill-64" class="cls-1" d="M393.1,333.6v-1.4h1.2c.3,0,.6,0,.9.2.2.1.4.3.4.5s0,.4-.3.5-.5.2-.9.2h-1.3ZM396.5,335.8l-1.4-1.8c.1,0,.3,0,.4-.1.6-.2.9-.6.9-1s0-.4-.2-.6-.4-.3-.7-.4c-.3,0-.6-.1-.9-.1h-2.3v4.2h.8v-1.7h1l1.3,1.8h1Z"/>
    </g>
  </g>
</svg>