<?xml version="1.0" encoding="UTF-8"?>
<svg id="Layer_1" data-name="Layer 1" xmlns="http://www.w3.org/2000/svg" version="1.1" viewBox="0 0 550 550">
  <defs>
    <style>
      .cls-1 {
        fill: #e63523;
        stroke-width: 0px;
      }
    </style>
  </defs>
  <path class="cls-1" d="M267.5,290.4h-23.7l-5.9,17.9c0,.5-.4.8-1.1.8h-10.7c-.7,0-.9-.4-.7-1l21.2-60.7c.4-1,.8-3,.9-5.8,0-.5.3-.6.7-.6h14.7c.4,0,.6.2.8.5l23.7,66.6c.2.6,0,.9-.6.9h-12.1c-.4,0-.8-.3-1-.7l-6.2-18ZM246.5,280.5h18.4c-.3-1-1.7-5.3-4.3-13-2.5-7.7-4.2-13-5-15.9h0c-.7,3.5-3.7,13.1-8.9,28.9Z"/>
  <path class="cls-1" d="M316.2,310.1c-7.9,0-14.2-2.2-19.1-6.4-4.8-4.3-7.1-10.7-7.1-19.1s2.5-13.8,7.7-18.7,12.1-7.5,20.7-7.5,4.3.2,5.8.6v-22.9c0-.5.3-.7.7-.7h11.6c.4,0,.6.2.6.6v61.6c0,1.2,0,3.5.3,6.9,0,.5-.2.8-.6.9-6.4,3.1-13.2,4.6-20.5,4.6ZM324.1,299.5v-31c-1.5-.7-3.5-1.1-5.9-1.1-4.5,0-8.1,1.4-10.8,4.4-2.7,2.9-4.1,6.9-4.1,12.2s1.3,9.7,4.1,12.4c2.7,2.7,6.1,4,10.3,4,2.8,0,4.9-.3,6.4-1.1Z"/>
  <path class="cls-1" d="M369.9,258.5c7.7,0,13.9,2.4,18.3,7.3,4.4,4.9,6.7,11,6.7,18.4s-2.3,14.4-6.9,19.1c-4.6,4.6-10.7,6.9-18.2,6.9s-14.5-2.5-18.8-7.5c-4.3-5-6.4-11.2-6.4-18.4s2.3-13.8,6.9-18.6c4.7-4.8,10.8-7.2,18.4-7.2ZM369.4,267.4c-3.5,0-6.4,1.5-8.6,4.5s-3.2,7-3.2,12.2,1.1,9.4,3.2,12.4,5.2,4.6,9.1,4.6,6.1-1.4,8.4-4.2c2.2-2.9,3.3-7.1,3.3-12.7s-1-9.2-3.1-12.2c-2-3.1-5-4.6-9.2-4.6Z"/>
  <path class="cls-1" d="M403,235.5h11.4c.5,0,.8.3.8.8v24c3.3-1.3,6.8-1.8,10.6-1.8,7.1,0,12.8,2.2,17,6.8,4.3,4.5,6.4,10.3,6.4,17.5s-2.6,15.2-7.9,20.2c-5.3,4.9-11.6,7.3-19,7.3s-14.1-1.3-19.5-3.9c-.4-.2-.6-.5-.6-1v-69.2c0-.5.3-.7.8-.7ZM436,284c0-5.2-1.2-9.2-3.6-11.9-2.3-2.7-5.5-4-9.5-4s-5.6.5-7.7,1.6v29.8c2,1.1,4.6,1.6,7.8,1.6s6.7-1.4,9.2-4.4c2.6-3,3.9-7.2,3.9-12.7Z"/>
  <path class="cls-1" d="M488.3,286.7h-20.5c0,4.1,1.4,7.5,3.9,10,2.6,2.4,6.3,3.7,11.2,3.7s9.1-.8,12.7-2.5c.4-.2.6,0,.6.5v7.7c0,.6-.2,1-.6,1.3-4.3,2-9.4,3-15.4,3s-8.6-.7-12-2.2-6-3.3-7.9-5.8c-1.9-2.4-3.3-5.1-4.3-8-.9-3-1.4-6-1.4-9.4,0-7.4,2.2-13.7,6.4-18.7,4.3-5.1,10.3-7.7,17.7-7.7s12.4,2.1,15.9,6.3,5.3,9.2,5.3,14.8-.2,4-.4,5.8c0,.5-.4.7-.8.8-1.9.3-5.4.4-10.4.4ZM467.7,278.7h14.5c3.2,0,5,0,5.4-.2,0-.3,0-.7,0-1.4,0-2.6-.7-4.9-2.2-6.9-1.4-2.1-3.8-3.1-7.1-3.1s-5.8,1.1-7.6,3.3c-1.7,2.2-2.7,5-3.1,8.3Z"/>
  <polygon class="cls-1" points="135 215.4 184.7 215.4 184.7 334.6 135 215.4"/>
  <polygon class="cls-1" points="99.9 215.4 50 215.4 50 334.6 99.9 215.4"/>
  <polygon class="cls-1" points="117.4 259.3 149.1 334.6 128.3 334.6 118.9 310.6 95.6 310.6 117.4 259.3"/>
</svg>