<?xml version="1.0" encoding="UTF-8"?>
<svg id="Layer_1" data-name="Layer 1" xmlns="http://www.w3.org/2000/svg" version="1.1" viewBox="0 0 550 550">
  <defs>
    <style>
      .cls-1 {
        fill: #000;
        stroke-width: 0px;
      }
    </style>
  </defs>
  <path class="cls-1" d="M500,253.1h-13.3l-16,17.8v-17.8h-11.2v43.9h11.2v-16.7l15.1,16.7h14.1l-20.4-21.7,20.4-22.2h0ZM441.5,271.2l-10.2-1.1c-6-.7-7.4-2.1-7.4-4.2s3.1-4.3,9-4.3,8.8,2.1,9.3,5.4h11c-.6-9.3-8.3-15-19.7-15s-20.3,5.4-20.3,14.8,4.5,11.4,13.8,12.3l10.4,1.1c4,.5,5.8,2,5.8,4s-2.6,4.3-9,4.3-10.3-1.9-10.8-5.6h-10.8c.5,10.1,7.1,15.2,21.2,15.2s20.1-5.6,20.1-14.2-4.3-11.8-12.3-12.8h0ZM372.4,297h35.3v-9.5h-24.1v-7.9h19.4v-9.5h-19.4v-7.4h24.1v-9.5h-35.3v43.9ZM346,253.1h-20.5v43.9h20.5c15.7,0,20.1-5.9,20.1-22.3s-4.2-21.6-20.1-21.6ZM345.6,287.5h-8.9v-24.9h8.9c7,0,9.1,1.9,9.1,12.1s-2.3,12.8-9.1,12.8ZM295.2,251.9c-16,0-24.2,9.8-24.2,23s8.3,23.1,24.2,23.1,24.3-9.9,24.3-23.1c0-13.2-8.3-23-24.3-23ZM295.2,288.2c-8.3,0-12.8-5-12.8-13.3s4.5-13.2,12.8-13.2,12.8,5.1,12.8,13.2c0,8.2-4.5,13.3-12.8,13.3ZM229.7,262.6h14.2v34.4h11.2v-34.4h14.1v-9.5h-39.4v9.5ZM213.4,280.2c0,5.7-3.5,8-9.5,8s-9.6-2.4-9.6-8v-27.1h-11.2v28.3c0,12.7,11.3,16.6,20.8,16.6s20.7-3.9,20.7-16.6v-28.3h-11.2v27.1h0ZM150.4,253.1l-16.8,43.9h11.6l2.9-8.2h18.8l2.9,8.2h11.9l-17-43.9h-14.3ZM151.4,279.4l6.1-17.2,6.1,17.2h-12.2ZM50.3,297l39.3-24.4h20.4c.7,0,1.2.5,1.2,1.2h0c0,.4-.2.8-.6,1l-19.3,11.6c-1.3.7-1.7,2.2-1.7,3.4v7.3s24.5,0,24.5,0v-42.3c0-.8-.7-1.5-1.5-1.5h-23.5l-39.2,24.3v19.6h.3Z"/>
</svg>